  0
SECTION
  2
HEADER
  9
$ANGBASE
  50
0.0
  9
$ANGDIR
  70
  1
  9
$MEASUREMENT
  70
0
  0
ENDSEC
  0
SECTION
  2
TABLES
  0
TABLE
  2
LTYPE
  70
1
  0
LTYPE
  2
CONTINUOUS
  70
0
  3
Solid line
  72
65
  73
0
  40
0.0
  0
ENDTAB
  0
TABLE
  2
STYLE
  70
4
  0
STYLE
  2
KICAD
  70
0
  40
0
  41
1
  42
1
  50
0
  71
0
  3
isocp.shx
  0
STYLE
  2
KICADB
  70
0
  40
0
  41
1
  42
1
  50
0
  71
0
  3
isocp.shx
  0
STYLE
  2
KICADI
  70
0
  40
0
  41
1
  42
1
  50
15
  71
0
  3
isocp.shx
  0
STYLE
  2
KICADBI
  70
0
  40
0
  41
1
  42
1
  50
15
  71
0
  3
isocp.shx
  0
ENDTAB
  0
TABLE
  2
LAYER
  70
30
  0
LAYER
  2
BLACK
  70
0
  62
7
  6
CONTINUOUS
  0
LAYER
  2
GRAY1
  70
0
  62
251
  6
CONTINUOUS
  0
LAYER
  2
GRAY2
  70
0
  62
8
  6
CONTINUOUS
  0
LAYER
  2
GRAY3
  70
0
  62
9
  6
CONTINUOUS
  0
LAYER
  2
WHITE
  70
0
  62
7
  6
CONTINUOUS
  0
LAYER
  2
LYELLOW
  70
0
  62
51
  6
CONTINUOUS
  0
LAYER
  2
BLUE1
  70
0
  62
178
  6
CONTINUOUS
  0
LAYER
  2
GREEN1
  70
0
  62
98
  6
CONTINUOUS
  0
LAYER
  2
CYAN1
  70
0
  62
138
  6
CONTINUOUS
  0
LAYER
  2
RED1
  70
0
  62
18
  6
CONTINUOUS
  0
LAYER
  2
MAGENTA1
  70
0
  62
228
  6
CONTINUOUS
  0
LAYER
  2
BROWN1
  70
0
  62
58
  6
CONTINUOUS
  0
LAYER
  2
BLUE2
  70
0
  62
5
  6
CONTINUOUS
  0
LAYER
  2
GREEN2
  70
0
  62
3
  6
CONTINUOUS
  0
LAYER
  2
CYAN2
  70
0
  62
4
  6
CONTINUOUS
  0
LAYER
  2
RED2
  70
0
  62
1
  6
CONTINUOUS
  0
LAYER
  2
MAGENTA2
  70
0
  62
6
  6
CONTINUOUS
  0
LAYER
  2
BROWN2
  70
0
  62
54
  6
CONTINUOUS
  0
LAYER
  2
BLUE3
  70
0
  62
171
  6
CONTINUOUS
  0
LAYER
  2
GREEN3
  70
0
  62
91
  6
CONTINUOUS
  0
LAYER
  2
CYAN3
  70
0
  62
131
  6
CONTINUOUS
  0
LAYER
  2
RED3
  70
0
  62
11
  6
CONTINUOUS
  0
LAYER
  2
MAGENTA3
  70
0
  62
221
  6
CONTINUOUS
  0
LAYER
  2
YELLOW3
  70
0
  62
2
  6
CONTINUOUS
  0
LAYER
  2
BLUE4
  70
0
  62
5
  6
CONTINUOUS
  0
LAYER
  2
GREEN4
  70
0
  62
3
  6
CONTINUOUS
  0
LAYER
  2
CYAN4
  70
0
  62
4
  6
CONTINUOUS
  0
LAYER
  2
RED4
  70
0
  62
1
  6
CONTINUOUS
  0
LAYER
  2
MAGENTA4
  70
0
  62
6
  6
CONTINUOUS
  0
LAYER
  2
YELLOW4
  70
0
  62
2
  6
CONTINUOUS
  0
ENDTAB
  0
ENDSEC
  0
SECTION
  2
ENTITIES
0
LINE
8
Black
10
113.897
20
-109.965
11
113.903
21
-109.965
0
LINE
8
Black
10
113.903
20
-109.965
11
113.91
21
-109.967
0
LINE
8
Black
10
113.91
20
-109.967
11
113.916
21
-109.968
0
LINE
8
Black
10
113.916
20
-109.968
11
113.922
21
-109.971
0
LINE
8
Black
10
113.922
20
-109.971
11
113.928
21
-109.974
0
LINE
8
Black
10
113.928
20
-109.974
11
113.933
21
-109.978
0
LINE
8
Black
10
113.933
20
-109.978
11
113.939
21
-109.981
0
LINE
8
Black
10
113.939
20
-109.981
11
113.943
21
-109.986
0
LINE
8
Black
10
113.943
20
-109.986
11
113.948
21
-109.99
0
LINE
8
Black
10
113.948
20
-109.99
11
113.951
21
-109.996
0
LINE
8
Black
10
113.951
20
-109.996
11
113.955
21
-110.001
0
LINE
8
Black
10
113.955
20
-110.001
11
113.958
21
-110.007
0
LINE
8
Black
10
113.958
20
-110.007
11
113.961
21
-110.013
0
LINE
8
Black
10
113.961
20
-110.013
11
113.962
21
-110.019
0
LINE
8
Black
10
113.962
20
-110.019
11
113.964
21
-110.026
0
LINE
8
Black
10
113.964
20
-110.026
11
113.964
21
-110.032
0
LINE
8
Black
10
113.964
20
-110.032
11
113.965
21
-110.039
0
LINE
8
Black
10
113.965
20
-110.039
11
113.965
21
-111.039
0
LINE
8
Black
10
113.965
20
-111.039
11
113.964
21
-111.045
0
LINE
8
Black
10
113.964
20
-111.045
11
113.964
21
-111.052
0
LINE
8
Black
10
113.964
20
-111.052
11
113.962
21
-111.058
0
LINE
8
Black
10
113.962
20
-111.058
11
113.961
21
-111.064
0
LINE
8
Black
10
113.961
20
-111.064
11
113.958
21
-111.07
0
LINE
8
Black
10
113.958
20
-111.07
11
113.955
21
-111.076
0
LINE
8
Black
10
113.955
20
-111.076
11
113.951
21
-111.081
0
LINE
8
Black
10
113.951
20
-111.081
11
113.948
21
-111.087
0
LINE
8
Black
10
113.948
20
-111.087
11
113.943
21
-111.091
0
LINE
8
Black
10
113.943
20
-111.091
11
113.939
21
-111.096
0
LINE
8
Black
10
113.939
20
-111.096
11
113.933
21
-111.099
0
LINE
8
Black
10
113.933
20
-111.099
11
113.928
21
-111.104
0
LINE
8
Black
10
113.928
20
-111.104
11
113.922
21
-111.106
0
LINE
8
Black
10
113.922
20
-111.106
11
113.916
21
-111.109
0
LINE
8
Black
10
113.916
20
-111.109
11
113.91
21
-111.11
0
LINE
8
Black
10
113.91
20
-111.11
11
113.903
21
-111.112
0
LINE
8
Black
10
113.903
20
-111.112
11
113.897
21
-111.112
0
LINE
8
Black
10
113.897
20
-111.112
11
113.89
21
-111.114
0
LINE
8
Black
10
113.89
20
-111.114
11
113.652
21
-111.114
0
LINE
8
Black
10
113.652
20
-111.114
11
113.641
21
-111.112
0
LINE
8
Black
10
113.641
20
-111.112
11
113.629
21
-111.11
0
LINE
8
Black
10
113.629
20
-111.11
11
113.486
21
-111.062
0
LINE
8
Black
10
113.486
20
-111.062
11
113.482
21
-111.06
0
LINE
8
Black
10
113.482
20
-111.06
11
113.478
21
-111.059
0
LINE
8
Black
10
113.478
20
-111.059
11
113.471
21
-111.054
0
LINE
8
Black
10
113.471
20
-111.054
11
113.463
21
-111.05
0
LINE
8
Black
10
113.463
20
-111.05
11
113.46
21
-111.047
0
LINE
8
Black
10
113.46
20
-111.047
11
113.456
21
-111.044
0
LINE
8
Black
10
113.456
20
-111.044
11
113.361
21
-110.949
0
LINE
8
Black
10
113.361
20
-110.949
11
113.354
21
-110.939
0
LINE
8
Black
10
113.354
20
-110.939
11
113.347
21
-110.929
0
LINE
8
Black
10
113.347
20
-110.929
11
113.3
21
-110.834
0
LINE
8
Black
10
113.3
20
-110.834
11
113.297
21
-110.826
0
LINE
8
Black
10
113.297
20
-110.826
11
113.294
21
-110.819
0
LINE
8
Black
10
113.294
20
-110.819
11
113.246
21
-110.628
0
LINE
8
Black
10
113.246
20
-110.628
11
113.246
21
-110.619
0
LINE
8
Black
10
113.246
20
-110.619
11
113.244
21
-110.61
0
LINE
8
Black
10
113.244
20
-110.61
11
113.244
21
-110.467
0
LINE
8
Black
10
113.244
20
-110.467
11
113.246
21
-110.458
0
LINE
8
Black
10
113.246
20
-110.458
11
113.246
21
-110.449
0
LINE
8
Black
10
113.246
20
-110.449
11
113.294
21
-110.259
0
LINE
8
Black
10
113.294
20
-110.259
11
113.297
21
-110.251
0
LINE
8
Black
10
113.297
20
-110.251
11
113.3
21
-110.243
0
LINE
8
Black
10
113.3
20
-110.243
11
113.347
21
-110.148
0
LINE
8
Black
10
113.347
20
-110.148
11
113.354
21
-110.138
0
LINE
8
Black
10
113.354
20
-110.138
11
113.361
21
-110.128
0
LINE
8
Black
10
113.361
20
-110.128
11
113.456
21
-110.033
0
LINE
8
Black
10
113.456
20
-110.033
11
113.46
21
-110.031
0
LINE
8
Black
10
113.46
20
-110.031
11
113.463
21
-110.027
0
LINE
8
Black
10
113.463
20
-110.027
11
113.471
21
-110.023
0
LINE
8
Black
10
113.471
20
-110.023
11
113.478
21
-110.018
0
LINE
8
Black
10
113.478
20
-110.018
11
113.482
21
-110.017
0
LINE
8
Black
10
113.482
20
-110.017
11
113.486
21
-110.015
0
LINE
8
Black
10
113.486
20
-110.015
11
113.629
21
-109.967
0
LINE
8
Black
10
113.629
20
-109.967
11
113.641
21
-109.966
0
LINE
8
Black
10
113.641
20
-109.966
11
113.652
21
-109.964
0
LINE
8
Black
10
113.652
20
-109.964
11
113.89
21
-109.964
0
LINE
8
Black
10
113.89
20
-109.964
11
113.897
21
-109.965
0
LINE
8
Black
10
113.665
20
-110.114
11
113.55
21
-110.152
0
LINE
8
Black
10
113.55
20
-110.152
11
113.476
21
-110.226
0
LINE
8
Black
10
113.476
20
-110.226
11
113.437
21
-110.303
0
LINE
8
Black
10
113.437
20
-110.303
11
113.394
21
-110.476
0
LINE
8
Black
10
113.394
20
-110.476
11
113.394
21
-110.601
0
LINE
8
Black
10
113.394
20
-110.601
11
113.437
21
-110.774
0
LINE
8
Black
10
113.437
20
-110.774
11
113.476
21
-110.851
0
LINE
8
Black
10
113.476
20
-110.851
11
113.55
21
-110.925
0
LINE
8
Black
10
113.55
20
-110.925
11
113.665
21
-110.964
0
LINE
8
Black
10
113.665
20
-110.964
11
113.815
21
-110.964
0
LINE
8
Black
10
113.815
20
-110.964
11
113.815
21
-110.114
0
LINE
8
Black
10
113.815
20
-110.114
11
113.665
21
-110.114
0
LINE
8
Black
10
112.799
20
-109.964
11
112.804
21
-109.964
0
LINE
8
Black
10
112.804
20
-109.964
11
112.812
21
-109.967
0
LINE
8
Black
10
112.812
20
-109.967
11
112.821
21
-109.968
0
LINE
8
Black
10
112.821
20
-109.968
11
112.825
21
-109.97
0
LINE
8
Black
10
112.825
20
-109.97
11
112.829
21
-109.972
0
LINE
8
Black
10
112.829
20
-109.972
11
112.924
21
-110.019
0
LINE
8
Black
10
112.924
20
-110.019
11
112.934
21
-110.026
0
LINE
8
Black
10
112.934
20
-110.026
11
112.943
21
-110.033
0
LINE
8
Black
10
112.943
20
-110.033
11
112.991
21
-110.081
0
LINE
8
Black
10
112.991
20
-110.081
11
113.006
21
-110.102
0
LINE
8
Black
10
113.006
20
-110.102
11
113.013
21
-110.127
0
LINE
8
Black
10
113.013
20
-110.127
11
113.011
21
-110.153
0
LINE
8
Black
10
113.011
20
-110.153
11
113
21
-110.177
0
LINE
8
Black
10
113
20
-110.177
11
112.981
21
-110.195
0
LINE
8
Black
10
112.981
20
-110.195
11
112.957
21
-110.206
0
LINE
8
Black
10
112.957
20
-110.206
11
112.932
21
-110.209
0
LINE
8
Black
10
112.932
20
-110.209
11
112.906
21
-110.202
0
LINE
8
Black
10
112.906
20
-110.202
11
112.885
21
-110.187
0
LINE
8
Black
10
112.885
20
-110.187
11
112.846
21
-110.148
0
LINE
8
Black
10
112.846
20
-110.148
11
112.778
21
-110.114
0
LINE
8
Black
10
112.778
20
-110.114
11
112.575
21
-110.114
0
LINE
8
Black
10
112.575
20
-110.114
11
112.506
21
-110.148
0
LINE
8
Black
10
112.506
20
-110.148
11
112.476
21
-110.178
0
LINE
8
Black
10
112.476
20
-110.178
11
112.442
21
-110.247
0
LINE
8
Black
10
112.442
20
-110.247
11
112.442
21
-110.312
0
LINE
8
Black
10
112.442
20
-110.312
11
112.48
21
-110.427
0
LINE
8
Black
10
112.48
20
-110.427
11
113.039
21
-110.986
0
LINE
8
Black
10
113.039
20
-110.986
11
113.044
21
-110.994
0
LINE
8
Black
10
113.044
20
-110.994
11
113.051
21
-111.001
0
LINE
8
Black
10
113.051
20
-111.001
11
113.052
21
-111.004
0
LINE
8
Black
10
113.052
20
-111.004
11
113.054
21
-111.007
0
LINE
8
Black
10
113.054
20
-111.007
11
113.056
21
-111.016
0
LINE
8
Black
10
113.056
20
-111.016
11
113.06
21
-111.026
0
LINE
8
Black
10
113.06
20
-111.026
11
113.06
21
-111.029
0
LINE
8
Black
10
113.06
20
-111.029
11
113.06
21
-111.032
0
LINE
8
Black
10
113.06
20
-111.032
11
113.06
21
-111.042
0
LINE
8
Black
10
113.06
20
-111.042
11
113.06
21
-111.052
0
LINE
8
Black
10
113.06
20
-111.052
11
113.058
21
-111.055
0
LINE
8
Black
10
113.058
20
-111.055
11
113.058
21
-111.058
0
LINE
8
Black
10
113.058
20
-111.058
11
113.054
21
-111.067
0
LINE
8
Black
10
113.054
20
-111.067
11
113.051
21
-111.076
0
LINE
8
Black
10
113.051
20
-111.076
11
113.049
21
-111.079
0
LINE
8
Black
10
113.049
20
-111.079
11
113.047
21
-111.082
0
LINE
8
Black
10
113.047
20
-111.082
11
113.04
21
-111.089
0
LINE
8
Black
10
113.04
20
-111.089
11
113.034
21
-111.096
0
LINE
8
Black
10
113.034
20
-111.096
11
113.031
21
-111.098
0
LINE
8
Black
10
113.031
20
-111.098
11
113.029
21
-111.1
0
LINE
8
Black
10
113.029
20
-111.1
11
113.02
21
-111.104
0
LINE
8
Black
10
113.02
20
-111.104
11
113.011
21
-111.109
0
LINE
8
Black
10
113.011
20
-111.109
11
113.008
21
-111.11
0
LINE
8
Black
10
113.008
20
-111.11
11
113.005
21
-111.111
0
LINE
8
Black
10
113.005
20
-111.111
11
112.995
21
-111.112
0
LINE
8
Black
10
112.995
20
-111.112
11
112.986
21
-111.114
0
LINE
8
Black
10
112.986
20
-111.114
11
112.367
21
-111.114
0
LINE
8
Black
10
112.367
20
-111.114
11
112.341
21
-111.109
0
LINE
8
Black
10
112.341
20
-111.109
11
112.318
21
-111.096
0
LINE
8
Black
10
112.318
20
-111.096
11
112.302
21
-111.076
0
LINE
8
Black
10
112.302
20
-111.076
11
112.293
21
-111.052
0
LINE
8
Black
10
112.293
20
-111.052
11
112.293
21
-111.026
0
LINE
8
Black
10
112.293
20
-111.026
11
112.302
21
-111.001
0
LINE
8
Black
10
112.302
20
-111.001
11
112.318
21
-110.981
0
LINE
8
Black
10
112.318
20
-110.981
11
112.341
21
-110.968
0
LINE
8
Black
10
112.341
20
-110.968
11
112.367
21
-110.964
0
LINE
8
Black
10
112.367
20
-110.964
11
112.805
21
-110.964
0
LINE
8
Black
10
112.805
20
-110.964
11
112.361
21
-110.52
0
LINE
8
Black
10
112.361
20
-110.52
11
112.359
21
-110.517
0
LINE
8
Black
10
112.359
20
-110.517
11
112.356
21
-110.514
0
LINE
8
Black
10
112.356
20
-110.514
11
112.351
21
-110.506
0
LINE
8
Black
10
112.351
20
-110.506
11
112.346
21
-110.499
0
LINE
8
Black
10
112.346
20
-110.499
11
112.345
21
-110.495
0
LINE
8
Black
10
112.345
20
-110.495
11
112.343
21
-110.491
0
LINE
8
Black
10
112.343
20
-110.491
11
112.295
21
-110.348
0
LINE
8
Black
10
112.295
20
-110.348
11
112.294
21
-110.336
0
LINE
8
Black
10
112.294
20
-110.336
11
112.292
21
-110.324
0
LINE
8
Black
10
112.292
20
-110.324
11
112.292
21
-110.229
0
LINE
8
Black
10
112.292
20
-110.229
11
112.292
21
-110.225
0
LINE
8
Black
10
112.292
20
-110.225
11
112.292
21
-110.221
0
LINE
8
Black
10
112.292
20
-110.221
11
112.295
21
-110.212
0
LINE
8
Black
10
112.295
20
-110.212
11
112.296
21
-110.203
0
LINE
8
Black
10
112.296
20
-110.203
11
112.298
21
-110.2
0
LINE
8
Black
10
112.298
20
-110.2
11
112.3
21
-110.196
0
LINE
8
Black
10
112.3
20
-110.196
11
112.347
21
-110.1
0
LINE
8
Black
10
112.347
20
-110.1
11
112.354
21
-110.091
0
LINE
8
Black
10
112.354
20
-110.091
11
112.361
21
-110.081
0
LINE
8
Black
10
112.361
20
-110.081
11
112.409
21
-110.033
0
LINE
8
Black
10
112.409
20
-110.033
11
112.419
21
-110.026
0
LINE
8
Black
10
112.419
20
-110.026
11
112.428
21
-110.019
0
LINE
8
Black
10
112.428
20
-110.019
11
112.524
21
-109.972
0
LINE
8
Black
10
112.524
20
-109.972
11
112.528
21
-109.97
0
LINE
8
Black
10
112.528
20
-109.97
11
112.531
21
-109.968
0
LINE
8
Black
10
112.531
20
-109.968
11
112.54
21
-109.967
0
LINE
8
Black
10
112.54
20
-109.967
11
112.549
21
-109.964
0
LINE
8
Black
10
112.549
20
-109.964
11
112.553
21
-109.964
0
LINE
8
Black
10
112.553
20
-109.964
11
112.557
21
-109.964
0
LINE
8
Black
10
112.557
20
-109.964
11
112.795
21
-109.964
0
LINE
8
Black
10
112.795
20
-109.964
11
112.799
21
-109.964
0
LINE
8
Black
10
118.315
20
-106.572
11
118.321
21
-106.572
0
LINE
8
Black
10
118.321
20
-106.572
11
118.328
21
-106.575
0
LINE
8
Black
10
118.328
20
-106.575
11
118.334
21
-106.576
0
LINE
8
Black
10
118.334
20
-106.576
11
118.34
21
-106.579
0
LINE
8
Black
10
118.34
20
-106.579
11
118.346
21
-106.581
0
LINE
8
Black
10
118.346
20
-106.581
11
118.351
21
-106.585
0
LINE
8
Black
10
118.351
20
-106.585
11
118.357
21
-106.589
0
LINE
8
Black
10
118.357
20
-106.589
11
118.361
21
-106.594
0
LINE
8
Black
10
118.361
20
-106.594
11
118.366
21
-106.598
0
LINE
8
Black
10
118.366
20
-106.598
11
118.369
21
-106.604
0
LINE
8
Black
10
118.369
20
-106.604
11
118.373
21
-106.609
0
LINE
8
Black
10
118.373
20
-106.609
11
118.376
21
-106.615
0
LINE
8
Black
10
118.376
20
-106.615
11
118.379
21
-106.621
0
LINE
8
Black
10
118.379
20
-106.621
11
118.38
21
-106.627
0
LINE
8
Black
10
118.38
20
-106.627
11
118.382
21
-106.633
0
LINE
8
Black
10
118.382
20
-106.633
11
118.382
21
-106.64
0
LINE
8
Black
10
118.382
20
-106.64
11
118.383
21
-106.646
0
LINE
8
Black
10
118.383
20
-106.646
11
118.383
21
-109.446
0
LINE
8
Black
10
118.383
20
-109.446
11
118.382
21
-109.453
0
LINE
8
Black
10
118.382
20
-109.453
11
118.382
21
-109.459
0
LINE
8
Black
10
118.382
20
-109.459
11
118.38
21
-109.465
0
LINE
8
Black
10
118.38
20
-109.465
11
118.379
21
-109.472
0
LINE
8
Black
10
118.379
20
-109.472
11
118.376
21
-109.478
0
LINE
8
Black
10
118.376
20
-109.478
11
118.373
21
-109.484
0
LINE
8
Black
10
118.373
20
-109.484
11
118.369
21
-109.489
0
LINE
8
Black
10
118.369
20
-109.489
11
118.366
21
-109.494
0
LINE
8
Black
10
118.366
20
-109.494
11
118.361
21
-109.499
0
LINE
8
Black
10
118.361
20
-109.499
11
118.357
21
-109.504
0
LINE
8
Black
10
118.357
20
-109.504
11
118.351
21
-109.507
0
LINE
8
Black
10
118.351
20
-109.507
11
118.346
21
-109.511
0
LINE
8
Black
10
118.346
20
-109.511
11
118.34
21
-109.513
0
LINE
8
Black
10
118.34
20
-109.513
11
118.334
21
-109.517
0
LINE
8
Black
10
118.334
20
-109.517
11
118.328
21
-109.518
0
LINE
8
Black
10
118.328
20
-109.518
11
118.321
21
-109.52
0
LINE
8
Black
10
118.321
20
-109.52
11
118.315
21
-109.52
0
LINE
8
Black
10
118.315
20
-109.52
11
118.308
21
-109.521
0
LINE
8
Black
10
118.308
20
-109.521
11
115.108
21
-109.521
0
LINE
8
Black
10
115.108
20
-109.521
11
115.102
21
-109.52
0
LINE
8
Black
10
115.102
20
-109.52
11
115.095
21
-109.52
0
LINE
8
Black
10
115.095
20
-109.52
11
115.089
21
-109.518
0
LINE
8
Black
10
115.089
20
-109.518
11
115.083
21
-109.517
0
LINE
8
Black
10
115.083
20
-109.517
11
115.077
21
-109.513
0
LINE
8
Black
10
115.077
20
-109.513
11
115.071
21
-109.511
0
LINE
8
Black
10
115.071
20
-109.511
11
115.066
21
-109.507
0
LINE
8
Black
10
115.066
20
-109.507
11
115.06
21
-109.504
0
LINE
8
Black
10
115.06
20
-109.504
11
115.056
21
-109.499
0
LINE
8
Black
10
115.056
20
-109.499
11
115.051
21
-109.494
0
LINE
8
Black
10
115.051
20
-109.494
11
115.048
21
-109.489
0
LINE
8
Black
10
115.048
20
-109.489
11
115.043
21
-109.484
0
LINE
8
Black
10
115.043
20
-109.484
11
115.041
21
-109.478
0
LINE
8
Black
10
115.041
20
-109.478
11
115.038
21
-109.472
0
LINE
8
Black
10
115.038
20
-109.472
11
115.037
21
-109.465
0
LINE
8
Black
10
115.037
20
-109.465
11
115.035
21
-109.459
0
LINE
8
Black
10
115.035
20
-109.459
11
115.035
21
-109.453
0
LINE
8
Black
10
115.035
20
-109.453
11
115.033
21
-109.446
0
LINE
8
Black
10
115.033
20
-109.446
11
115.033
21
-106.646
0
LINE
8
Black
10
115.033
20
-106.646
11
115.035
21
-106.64
0
LINE
8
Black
10
115.035
20
-106.64
11
115.035
21
-106.633
0
LINE
8
Black
10
115.035
20
-106.633
11
115.037
21
-106.627
0
LINE
8
Black
10
115.037
20
-106.627
11
115.038
21
-106.621
0
LINE
8
Black
10
115.038
20
-106.621
11
115.041
21
-106.615
0
LINE
8
Black
10
115.041
20
-106.615
11
115.043
21
-106.609
0
LINE
8
Black
10
115.043
20
-106.609
11
115.048
21
-106.604
0
LINE
8
Black
10
115.048
20
-106.604
11
115.051
21
-106.598
0
LINE
8
Black
10
115.051
20
-106.598
11
115.056
21
-106.594
0
LINE
8
Black
10
115.056
20
-106.594
11
115.06
21
-106.589
0
LINE
8
Black
10
115.06
20
-106.589
11
115.066
21
-106.585
0
LINE
8
Black
10
115.066
20
-106.585
11
115.071
21
-106.581
0
LINE
8
Black
10
115.071
20
-106.581
11
115.077
21
-106.579
0
LINE
8
Black
10
115.077
20
-106.579
11
115.083
21
-106.576
0
LINE
8
Black
10
115.083
20
-106.576
11
115.089
21
-106.575
0
LINE
8
Black
10
115.089
20
-106.575
11
115.095
21
-106.572
0
LINE
8
Black
10
115.095
20
-106.572
11
115.102
21
-106.572
0
LINE
8
Black
10
115.102
20
-106.572
11
115.108
21
-106.571
0
LINE
8
Black
10
115.108
20
-106.571
11
118.308
21
-106.571
0
LINE
8
Black
10
118.308
20
-106.571
11
118.315
21
-106.572
0
LINE
8
Black
10
115.183
20
-106.721
11
115.183
21
-109.371
0
LINE
8
Black
10
115.183
20
-109.371
11
118.233
21
-109.371
0
LINE
8
Black
10
118.233
20
-109.371
11
118.233
21
-106.721
0
LINE
8
Black
10
118.233
20
-106.721
11
115.183
21
-106.721
0
LINE
8
Black
10
117.316
20
-108.556
11
117.105
21
-108.733
0
LINE
8
Black
10
117.105
20
-108.733
11
116.846
21
-108.828
0
LINE
8
Black
10
116.846
20
-108.828
11
116.571
21
-108.828
0
LINE
8
Black
10
116.571
20
-108.828
11
116.312
21
-108.733
0
LINE
8
Black
10
116.312
20
-108.733
11
116.101
21
-108.556
0
LINE
8
Black
10
116.101
20
-108.556
11
115.963
21
-108.318
0
LINE
8
Black
10
115.963
20
-108.318
11
115.915
21
-108.046
0
LINE
8
Black
10
115.915
20
-108.046
11
115.963
21
-107.775
0
LINE
8
Black
10
115.963
20
-107.775
11
116.101
21
-107.536
0
LINE
8
Black
10
116.101
20
-107.536
11
116.312
21
-107.359
0
LINE
8
Black
10
116.312
20
-107.359
11
116.571
21
-107.265
0
LINE
8
Black
10
116.571
20
-107.265
11
116.846
21
-107.265
0
LINE
8
Black
10
116.846
20
-107.265
11
117.105
21
-107.359
0
LINE
8
Black
10
117.105
20
-107.359
11
117.316
21
-107.536
0
LINE
8
Black
10
117.316
20
-107.536
11
117.454
21
-107.775
0
LINE
8
Black
10
117.454
20
-107.775
11
117.502
21
-108.046
0
LINE
8
Black
10
117.502
20
-108.046
11
117.454
21
-108.318
0
LINE
8
Black
10
117.454
20
-108.318
11
117.316
21
-108.556
0
LINE
8
Black
10
117.201
20
-107.633
11
117.03
21
-107.489
0
LINE
8
Black
10
117.03
20
-107.489
11
116.82
21
-107.413
0
LINE
8
Black
10
116.82
20
-107.413
11
116.597
21
-107.413
0
LINE
8
Black
10
116.597
20
-107.413
11
116.387
21
-107.489
0
LINE
8
Black
10
116.387
20
-107.489
11
116.215
21
-107.633
0
LINE
8
Black
10
116.215
20
-107.633
11
116.104
21
-107.826
0
LINE
8
Black
10
116.104
20
-107.826
11
116.065
21
-108.046
0
LINE
8
Black
10
116.065
20
-108.046
11
116.104
21
-108.266
0
LINE
8
Black
10
116.104
20
-108.266
11
116.215
21
-108.46
0
LINE
8
Black
10
116.215
20
-108.46
11
116.387
21
-108.603
0
LINE
8
Black
10
116.387
20
-108.603
11
116.597
21
-108.68
0
LINE
8
Black
10
116.597
20
-108.68
11
116.82
21
-108.68
0
LINE
8
Black
10
116.82
20
-108.68
11
117.03
21
-108.603
0
LINE
8
Black
10
117.03
20
-108.603
11
117.201
21
-108.46
0
LINE
8
Black
10
117.201
20
-108.46
11
117.313
21
-108.266
0
LINE
8
Black
10
117.313
20
-108.266
11
117.352
21
-108.046
0
LINE
8
Black
10
117.352
20
-108.046
11
117.313
21
-107.826
0
LINE
8
Black
10
117.313
20
-107.826
11
117.201
21
-107.633
0
LINE
8
Black
10
85.9065
20
-105.976
11
85.913
21
-105.976
0
LINE
8
Black
10
85.913
20
-105.976
11
85.9192
21
-105.978
0
LINE
8
Black
10
85.9192
20
-105.978
11
85.9257
21
-105.98
0
LINE
8
Black
10
85.9257
20
-105.98
11
85.9313
21
-105.983
0
LINE
8
Black
10
85.9313
20
-105.983
11
85.9375
21
-105.985
0
LINE
8
Black
10
85.9375
20
-105.985
11
85.9425
21
-105.989
0
LINE
8
Black
10
85.9425
20
-105.989
11
85.9482
21
-105.993
0
LINE
8
Black
10
85.9482
20
-105.993
11
85.9524
21
-105.998
0
LINE
8
Black
10
85.9524
20
-105.998
11
85.9575
21
-106.002
0
LINE
8
Black
10
85.9575
20
-106.002
11
85.9607
21
-106.007
0
LINE
8
Black
10
85.9607
20
-106.007
11
85.965
21
-106.012
0
LINE
8
Black
10
85.965
20
-106.012
11
85.9672
21
-106.019
0
LINE
8
Black
10
85.9672
20
-106.019
11
85.9705
21
-106.024
0
LINE
8
Black
10
85.9705
20
-106.024
11
85.9716
21
-106.031
0
LINE
8
Black
10
85.9716
20
-106.031
11
85.9739
21
-106.037
0
LINE
8
Black
10
85.9739
20
-106.037
11
85.9739
21
-106.044
0
LINE
8
Black
10
85.9739
20
-106.044
11
85.975
21
-106.05
0
LINE
8
Black
10
85.975
20
-106.05
11
85.975
21
-108.05
0
LINE
8
Black
10
85.975
20
-108.05
11
85.9739
21
-108.056
0
LINE
8
Black
10
85.9739
20
-108.056
11
85.9739
21
-108.063
0
LINE
8
Black
10
85.9739
20
-108.063
11
85.9716
21
-108.069
0
LINE
8
Black
10
85.9716
20
-108.069
11
85.9705
21
-108.076
0
LINE
8
Black
10
85.9705
20
-108.076
11
85.9672
21
-108.081
0
LINE
8
Black
10
85.9672
20
-108.081
11
85.965
21
-108.087
0
LINE
8
Black
10
85.965
20
-108.087
11
85.9607
21
-108.093
0
LINE
8
Black
10
85.9607
20
-108.093
11
85.9575
21
-108.098
0
LINE
8
Black
10
85.9575
20
-108.098
11
85.9524
21
-108.102
0
LINE
8
Black
10
85.9524
20
-108.102
11
85.9482
21
-108.107
0
LINE
8
Black
10
85.9482
20
-108.107
11
85.9425
21
-108.111
0
LINE
8
Black
10
85.9425
20
-108.111
11
85.9375
21
-108.115
0
LINE
8
Black
10
85.9375
20
-108.115
11
85.9313
21
-108.117
0
LINE
8
Black
10
85.9313
20
-108.117
11
85.9257
21
-108.12
0
LINE
8
Black
10
85.9257
20
-108.12
11
85.9192
21
-108.122
0
LINE
8
Black
10
85.9192
20
-108.122
11
85.913
21
-108.124
0
LINE
8
Black
10
85.913
20
-108.124
11
85.9065
21
-108.124
0
LINE
8
Black
10
85.9065
20
-108.124
11
85.9
21
-108.125
0
LINE
8
Black
10
85.9
20
-108.125
11
83.4
21
-108.125
0
LINE
8
Black
10
83.4
20
-108.125
11
83.3935
21
-108.124
0
LINE
8
Black
10
83.3935
20
-108.124
11
83.387
21
-108.124
0
LINE
8
Black
10
83.387
20
-108.124
11
83.3808
21
-108.122
0
LINE
8
Black
10
83.3808
20
-108.122
11
83.3743
21
-108.12
0
LINE
8
Black
10
83.3743
20
-108.12
11
83.3687
21
-108.117
0
LINE
8
Black
10
83.3687
20
-108.117
11
83.3625
21
-108.115
0
LINE
8
Black
10
83.3625
20
-108.115
11
83.3575
21
-108.111
0
LINE
8
Black
10
83.3575
20
-108.111
11
83.3518
21
-108.107
0
LINE
8
Black
10
83.3518
20
-108.107
11
83.3476
21
-108.102
0
LINE
8
Black
10
83.3476
20
-108.102
11
83.3425
21
-108.098
0
LINE
8
Black
10
83.3425
20
-108.098
11
83.3393
21
-108.093
0
LINE
8
Black
10
83.3393
20
-108.093
11
83.335
21
-108.087
0
LINE
8
Black
10
83.335
20
-108.087
11
83.3328
21
-108.081
0
LINE
8
Black
10
83.3328
20
-108.081
11
83.3295
21
-108.076
0
LINE
8
Black
10
83.3295
20
-108.076
11
83.3284
21
-108.069
0
LINE
8
Black
10
83.3284
20
-108.069
11
83.3261
21
-108.063
0
LINE
8
Black
10
83.3261
20
-108.063
11
83.3261
21
-108.056
0
LINE
8
Black
10
83.3261
20
-108.056
11
83.325
21
-108.05
0
LINE
8
Black
10
83.325
20
-108.05
11
83.325
21
-106.05
0
LINE
8
Black
10
83.325
20
-106.05
11
83.3261
21
-106.044
0
LINE
8
Black
10
83.3261
20
-106.044
11
83.3261
21
-106.037
0
LINE
8
Black
10
83.3261
20
-106.037
11
83.3284
21
-106.031
0
LINE
8
Black
10
83.3284
20
-106.031
11
83.3295
21
-106.024
0
LINE
8
Black
10
83.3295
20
-106.024
11
83.3328
21
-106.019
0
LINE
8
Black
10
83.3328
20
-106.019
11
83.335
21
-106.012
0
LINE
8
Black
10
83.335
20
-106.012
11
83.3393
21
-106.007
0
LINE
8
Black
10
83.3393
20
-106.007
11
83.3425
21
-106.002
0
LINE
8
Black
10
83.3425
20
-106.002
11
83.3476
21
-105.998
0
LINE
8
Black
10
83.3476
20
-105.998
11
83.3518
21
-105.993
0
LINE
8
Black
10
83.3518
20
-105.993
11
83.3575
21
-105.989
0
LINE
8
Black
10
83.3575
20
-105.989
11
83.3625
21
-105.985
0
LINE
8
Black
10
83.3625
20
-105.985
11
83.3687
21
-105.983
0
LINE
8
Black
10
83.3687
20
-105.983
11
83.3743
21
-105.98
0
LINE
8
Black
10
83.3743
20
-105.98
11
83.3808
21
-105.978
0
LINE
8
Black
10
83.3808
20
-105.978
11
83.387
21
-105.976
0
LINE
8
Black
10
83.387
20
-105.976
11
83.3935
21
-105.976
0
LINE
8
Black
10
83.3935
20
-105.976
11
83.4
21
-105.975
0
LINE
8
Black
10
83.4
20
-105.975
11
85.9
21
-105.975
0
LINE
8
Black
10
85.9
20
-105.975
11
85.9065
21
-105.976
0
LINE
8
Black
10
83.475
20
-106.125
11
83.475
21
-107.975
0
LINE
8
Black
10
83.475
20
-107.975
11
85.825
21
-107.975
0
LINE
8
Black
10
85.825
20
-107.975
11
85.825
21
-106.125
0
LINE
8
Black
10
85.825
20
-106.125
11
83.475
21
-106.125
0
LINE
8
Black
10
119.032
20
-106.806
11
119.052
21
-106.823
0
LINE
8
Black
10
119.052
20
-106.823
11
119.065
21
-106.846
0
LINE
8
Black
10
119.065
20
-106.846
11
119.069
21
-106.871
0
LINE
8
Black
10
119.069
20
-106.871
11
119.069
21
-107.771
0
LINE
8
Black
10
119.069
20
-107.771
11
119.065
21
-107.797
0
LINE
8
Black
10
119.065
20
-107.797
11
119.052
21
-107.819
0
LINE
8
Black
10
119.052
20
-107.819
11
119.032
21
-107.836
0
LINE
8
Black
10
119.032
20
-107.836
11
119.007
21
-107.845
0
LINE
8
Black
10
119.007
20
-107.845
11
118.981
21
-107.845
0
LINE
8
Black
10
118.981
20
-107.845
11
118.957
21
-107.836
0
LINE
8
Black
10
118.957
20
-107.836
11
118.937
21
-107.819
0
LINE
8
Black
10
118.937
20
-107.819
11
118.924
21
-107.797
0
LINE
8
Black
10
118.924
20
-107.797
11
118.919
21
-107.771
0
LINE
8
Black
10
118.919
20
-107.771
11
118.919
21
-106.871
0
LINE
8
Black
10
118.919
20
-106.871
11
118.924
21
-106.846
0
LINE
8
Black
10
118.924
20
-106.846
11
118.937
21
-106.823
0
LINE
8
Black
10
118.937
20
-106.823
11
118.957
21
-106.806
0
LINE
8
Black
10
118.957
20
-106.806
11
118.981
21
-106.797
0
LINE
8
Black
10
118.981
20
-106.797
11
119.007
21
-106.797
0
LINE
8
Black
10
119.007
20
-106.797
11
119.032
21
-106.806
0
LINE
8
Black
10
86.5345
20
-107.107
11
86.5381
21
-107.107
0
LINE
8
Black
10
86.5381
20
-107.107
11
86.5451
21
-107.109
0
LINE
8
Black
10
86.5451
20
-107.109
11
86.5523
21
-107.11
0
LINE
8
Black
10
86.5523
20
-107.11
11
86.5555
21
-107.112
0
LINE
8
Black
10
86.5555
20
-107.112
11
86.5589
21
-107.113
0
LINE
8
Black
10
86.5589
20
-107.113
11
86.6065
21
-107.137
0
LINE
8
Black
10
86.6065
20
-107.137
11
86.6146
21
-107.143
0
LINE
8
Black
10
86.6146
20
-107.143
11
86.6228
21
-107.149
0
LINE
8
Black
10
86.6228
20
-107.149
11
86.6466
21
-107.172
0
LINE
8
Black
10
86.6466
20
-107.172
11
86.6523
21
-107.181
0
LINE
8
Black
10
86.6523
20
-107.181
11
86.6583
21
-107.189
0
LINE
8
Black
10
86.6583
20
-107.189
11
86.6821
21
-107.236
0
LINE
8
Black
10
86.6821
20
-107.236
11
86.6831
21
-107.24
0
LINE
8
Black
10
86.6831
20
-107.24
11
86.6849
21
-107.243
0
LINE
8
Black
10
86.6849
20
-107.243
11
86.6862
21
-107.25
0
LINE
8
Black
10
86.6862
20
-107.25
11
86.6883
21
-107.257
0
LINE
8
Black
10
86.6883
20
-107.257
11
86.6881
21
-107.261
0
LINE
8
Black
10
86.6881
20
-107.261
11
86.6887
21
-107.264
0
LINE
8
Black
10
86.6887
20
-107.264
11
86.6887
21
-107.36
0
LINE
8
Black
10
86.6887
20
-107.36
11
86.6881
21
-107.363
0
LINE
8
Black
10
86.6881
20
-107.363
11
86.6883
21
-107.367
0
LINE
8
Black
10
86.6883
20
-107.367
11
86.6862
21
-107.374
0
LINE
8
Black
10
86.6862
20
-107.374
11
86.6849
21
-107.381
0
LINE
8
Black
10
86.6849
20
-107.381
11
86.6831
21
-107.384
0
LINE
8
Black
10
86.6831
20
-107.384
11
86.6821
21
-107.387
0
LINE
8
Black
10
86.6821
20
-107.387
11
86.6583
21
-107.435
0
LINE
8
Black
10
86.6583
20
-107.435
11
86.6523
21
-107.443
0
LINE
8
Black
10
86.6523
20
-107.443
11
86.6466
21
-107.451
0
LINE
8
Black
10
86.6466
20
-107.451
11
86.6228
21
-107.475
0
LINE
8
Black
10
86.6228
20
-107.475
11
86.6146
21
-107.481
0
LINE
8
Black
10
86.6146
20
-107.481
11
86.6065
21
-107.487
0
LINE
8
Black
10
86.6065
20
-107.487
11
86.5589
21
-107.511
0
LINE
8
Black
10
86.5589
20
-107.511
11
86.5554
21
-107.512
0
LINE
8
Black
10
86.5554
20
-107.512
11
86.5523
21
-107.513
0
LINE
8
Black
10
86.5523
20
-107.513
11
86.5451
21
-107.515
0
LINE
8
Black
10
86.5451
20
-107.515
11
86.5381
21
-107.517
0
LINE
8
Black
10
86.5381
20
-107.517
11
86.5345
21
-107.517
0
LINE
8
Black
10
86.5345
20
-107.517
11
86.531
21
-107.517
0
LINE
8
Black
10
86.531
20
-107.517
11
86.4119
21
-107.517
0
LINE
8
Black
10
86.4119
20
-107.517
11
86.4084
21
-107.517
0
LINE
8
Black
10
86.4084
20
-107.517
11
86.4048
21
-107.517
0
LINE
8
Black
10
86.4048
20
-107.517
11
86.3977
21
-107.515
0
LINE
8
Black
10
86.3977
20
-107.515
11
86.3905
21
-107.513
0
LINE
8
Black
10
86.3905
20
-107.513
11
86.3874
21
-107.512
0
LINE
8
Black
10
86.3874
20
-107.512
11
86.384
21
-107.511
0
LINE
8
Black
10
86.384
20
-107.511
11
86.3363
21
-107.487
0
LINE
8
Black
10
86.3363
20
-107.487
11
86.3283
21
-107.481
0
LINE
8
Black
10
86.3283
20
-107.481
11
86.3201
21
-107.475
0
LINE
8
Black
10
86.3201
20
-107.475
11
86.2963
21
-107.451
0
LINE
8
Black
10
86.2963
20
-107.451
11
86.2905
21
-107.443
0
LINE
8
Black
10
86.2905
20
-107.443
11
86.2846
21
-107.435
0
LINE
8
Black
10
86.2846
20
-107.435
11
86.2608
21
-107.387
0
LINE
8
Black
10
86.2608
20
-107.387
11
86.2597
21
-107.384
0
LINE
8
Black
10
86.2597
20
-107.384
11
86.2579
21
-107.381
0
LINE
8
Black
10
86.2579
20
-107.381
11
86.2567
21
-107.374
0
LINE
8
Black
10
86.2567
20
-107.374
11
86.2546
21
-107.367
0
LINE
8
Black
10
86.2546
20
-107.367
11
86.2548
21
-107.363
0
LINE
8
Black
10
86.2548
20
-107.363
11
86.2542
21
-107.36
0
LINE
8
Black
10
86.2542
20
-107.36
11
86.2542
21
-107.264
0
LINE
8
Black
10
86.2542
20
-107.264
11
86.2546
21
-107.262
0
LINE
8
Black
10
86.2546
20
-107.262
11
86.2136
21
-107.289
0
LINE
8
Black
10
86.2136
20
-107.289
11
86.2014
21
-107.301
0
LINE
8
Black
10
86.2014
20
-107.301
11
86.1887
21
-107.327
0
LINE
8
Black
10
86.1887
20
-107.327
11
86.1887
21
-107.407
0
LINE
8
Black
10
86.1887
20
-107.407
11
86.1849
21
-107.429
0
LINE
8
Black
10
86.1849
20
-107.429
11
86.1741
21
-107.447
0
LINE
8
Black
10
86.1741
20
-107.447
11
86.1574
21
-107.461
0
LINE
8
Black
10
86.1574
20
-107.461
11
86.137
21
-107.469
0
LINE
8
Black
10
86.137
20
-107.469
11
86.1153
21
-107.469
0
LINE
8
Black
10
86.1153
20
-107.469
11
86.0949
21
-107.461
0
LINE
8
Black
10
86.0949
20
-107.461
11
86.0783
21
-107.447
0
LINE
8
Black
10
86.0783
20
-107.447
11
86.0675
21
-107.429
0
LINE
8
Black
10
86.0675
20
-107.429
11
86.0637
21
-107.407
0
LINE
8
Black
10
86.0637
20
-107.407
11
86.0637
21
-107.312
0
LINE
8
Black
10
86.0637
20
-107.312
11
86.0643
21
-107.308
0
LINE
8
Black
10
86.0643
20
-107.308
11
86.0641
21
-107.305
0
LINE
8
Black
10
86.0641
20
-107.305
11
86.0662
21
-107.298
0
LINE
8
Black
10
86.0662
20
-107.298
11
86.0675
21
-107.291
0
LINE
8
Black
10
86.0675
20
-107.291
11
86.0693
21
-107.287
0
LINE
8
Black
10
86.0693
20
-107.287
11
86.0703
21
-107.284
0
LINE
8
Black
10
86.0703
20
-107.284
11
86.0941
21
-107.236
0
LINE
8
Black
10
86.0941
20
-107.236
11
86.1001
21
-107.228
0
LINE
8
Black
10
86.1001
20
-107.228
11
86.1058
21
-107.22
0
LINE
8
Black
10
86.1058
20
-107.22
11
86.1296
21
-107.196
0
LINE
8
Black
10
86.1296
20
-107.196
11
86.1347
21
-107.193
0
LINE
8
Black
10
86.1347
20
-107.193
11
86.1391
21
-107.188
0
LINE
8
Black
10
86.1391
20
-107.188
11
86.2106
21
-107.141
0
LINE
8
Black
10
86.2106
20
-107.141
11
86.2203
21
-107.137
0
LINE
8
Black
10
86.2203
20
-107.137
11
86.2301
21
-107.132
0
LINE
8
Black
10
86.2301
20
-107.132
11
86.3253
21
-107.108
0
LINE
8
Black
10
86.3253
20
-107.108
11
86.3329
21
-107.108
0
LINE
8
Black
10
86.3329
20
-107.108
11
86.3405
21
-107.107
0
LINE
8
Black
10
86.3405
20
-107.107
11
86.531
21
-107.107
0
LINE
8
Black
10
86.531
20
-107.107
11
86.5345
21
-107.107
0
LINE
8
Black
10
86.4267
20
-107.232
11
86.4013
21
-107.244
0
LINE
8
Black
10
86.4013
20
-107.244
11
86.3918
21
-107.254
0
LINE
8
Black
10
86.3918
20
-107.254
11
86.3792
21
-107.279
0
LINE
8
Black
10
86.3792
20
-107.279
11
86.3792
21
-107.345
0
LINE
8
Black
10
86.3792
20
-107.345
11
86.3918
21
-107.37
0
LINE
8
Black
10
86.3918
20
-107.37
11
86.4013
21
-107.38
0
LINE
8
Black
10
86.4013
20
-107.38
11
86.4267
21
-107.392
0
LINE
8
Black
10
86.4267
20
-107.392
11
86.5162
21
-107.392
0
LINE
8
Black
10
86.5162
20
-107.392
11
86.5416
21
-107.38
0
LINE
8
Black
10
86.5416
20
-107.38
11
86.551
21
-107.37
0
LINE
8
Black
10
86.551
20
-107.37
11
86.5637
21
-107.345
0
LINE
8
Black
10
86.5637
20
-107.345
11
86.5637
21
-107.279
0
LINE
8
Black
10
86.5637
20
-107.279
11
86.551
21
-107.254
0
LINE
8
Black
10
86.551
20
-107.254
11
86.5416
21
-107.244
0
LINE
8
Black
10
86.5416
20
-107.244
11
86.5162
21
-107.232
0
LINE
8
Black
10
86.5162
20
-107.232
11
86.4267
21
-107.232
0
LINE
8
Black
10
86.5345
20
-106.607
11
86.5381
21
-106.607
0
LINE
8
Black
10
86.5381
20
-106.607
11
86.5451
21
-106.609
0
LINE
8
Black
10
86.5451
20
-106.609
11
86.5523
21
-106.61
0
LINE
8
Black
10
86.5523
20
-106.61
11
86.5554
21
-106.612
0
LINE
8
Black
10
86.5554
20
-106.612
11
86.5589
21
-106.613
0
LINE
8
Black
10
86.5589
20
-106.613
11
86.6065
21
-106.637
0
LINE
8
Black
10
86.6065
20
-106.637
11
86.6146
21
-106.643
0
LINE
8
Black
10
86.6146
20
-106.643
11
86.6228
21
-106.649
0
LINE
8
Black
10
86.6228
20
-106.649
11
86.6466
21
-106.672
0
LINE
8
Black
10
86.6466
20
-106.672
11
86.6523
21
-106.681
0
LINE
8
Black
10
86.6523
20
-106.681
11
86.6583
21
-106.689
0
LINE
8
Black
10
86.6583
20
-106.689
11
86.6821
21
-106.736
0
LINE
8
Black
10
86.6821
20
-106.736
11
86.6831
21
-106.74
0
LINE
8
Black
10
86.6831
20
-106.74
11
86.6849
21
-106.743
0
LINE
8
Black
10
86.6849
20
-106.743
11
86.6862
21
-106.75
0
LINE
8
Black
10
86.6862
20
-106.75
11
86.6883
21
-106.757
0
LINE
8
Black
10
86.6883
20
-106.757
11
86.6881
21
-106.761
0
LINE
8
Black
10
86.6881
20
-106.761
11
86.6887
21
-106.764
0
LINE
8
Black
10
86.6887
20
-106.764
11
86.6887
21
-106.86
0
LINE
8
Black
10
86.6887
20
-106.86
11
86.6881
21
-106.863
0
LINE
8
Black
10
86.6881
20
-106.863
11
86.6883
21
-106.867
0
LINE
8
Black
10
86.6883
20
-106.867
11
86.6862
21
-106.874
0
LINE
8
Black
10
86.6862
20
-106.874
11
86.6849
21
-106.881
0
LINE
8
Black
10
86.6849
20
-106.881
11
86.6831
21
-106.884
0
LINE
8
Black
10
86.6831
20
-106.884
11
86.6821
21
-106.887
0
LINE
8
Black
10
86.6821
20
-106.887
11
86.6583
21
-106.935
0
LINE
8
Black
10
86.6583
20
-106.935
11
86.6523
21
-106.943
0
LINE
8
Black
10
86.6523
20
-106.943
11
86.6466
21
-106.951
0
LINE
8
Black
10
86.6466
20
-106.951
11
86.6228
21
-106.975
0
LINE
8
Black
10
86.6228
20
-106.975
11
86.6146
21
-106.981
0
LINE
8
Black
10
86.6146
20
-106.981
11
86.6065
21
-106.987
0
LINE
8
Black
10
86.6065
20
-106.987
11
86.5589
21
-107.011
0
LINE
8
Black
10
86.5589
20
-107.011
11
86.5555
21
-107.012
0
LINE
8
Black
10
86.5555
20
-107.012
11
86.5523
21
-107.013
0
LINE
8
Black
10
86.5523
20
-107.013
11
86.5451
21
-107.015
0
LINE
8
Black
10
86.5451
20
-107.015
11
86.5381
21
-107.017
0
LINE
8
Black
10
86.5381
20
-107.017
11
86.5345
21
-107.017
0
LINE
8
Black
10
86.5345
20
-107.017
11
86.531
21
-107.017
0
LINE
8
Black
10
86.531
20
-107.017
11
86.1262
21
-107.017
0
LINE
8
Black
10
86.1262
20
-107.017
11
86.1048
21
-107.013
0
LINE
8
Black
10
86.1048
20
-107.013
11
86.086
21
-107.003
0
LINE
8
Black
10
86.086
20
-107.003
11
86.0721
21
-106.986
0
LINE
8
Black
10
86.0721
20
-106.986
11
86.0646
21
-106.966
0
LINE
8
Black
10
86.0646
20
-106.966
11
86.0646
21
-106.944
0
LINE
8
Black
10
86.0646
20
-106.944
11
86.0721
21
-106.924
0
LINE
8
Black
10
86.0721
20
-106.924
11
86.086
21
-106.907
0
LINE
8
Black
10
86.086
20
-106.907
11
86.1048
21
-106.896
0
LINE
8
Black
10
86.1048
20
-106.896
11
86.1262
21
-106.892
0
LINE
8
Black
10
86.1262
20
-106.892
11
86.5162
21
-106.892
0
LINE
8
Black
10
86.5162
20
-106.892
11
86.5416
21
-106.88
0
LINE
8
Black
10
86.5416
20
-106.88
11
86.551
21
-106.87
0
LINE
8
Black
10
86.551
20
-106.87
11
86.5637
21
-106.845
0
LINE
8
Black
10
86.5637
20
-106.845
11
86.5637
21
-106.779
0
LINE
8
Black
10
86.5637
20
-106.779
11
86.551
21
-106.754
0
LINE
8
Black
10
86.551
20
-106.754
11
86.5416
21
-106.744
0
LINE
8
Black
10
86.5416
20
-106.744
11
86.5162
21
-106.732
0
LINE
8
Black
10
86.5162
20
-106.732
11
86.1262
21
-106.732
0
LINE
8
Black
10
86.1262
20
-106.732
11
86.1048
21
-106.728
0
LINE
8
Black
10
86.1048
20
-106.728
11
86.086
21
-106.717
0
LINE
8
Black
10
86.086
20
-106.717
11
86.0721
21
-106.7
0
LINE
8
Black
10
86.0721
20
-106.7
11
86.0646
21
-106.68
0
LINE
8
Black
10
86.0646
20
-106.68
11
86.0646
21
-106.658
0
LINE
8
Black
10
86.0646
20
-106.658
11
86.0721
21
-106.638
0
LINE
8
Black
10
86.0721
20
-106.638
11
86.086
21
-106.621
0
LINE
8
Black
10
86.086
20
-106.621
11
86.1048
21
-106.61
0
LINE
8
Black
10
86.1048
20
-106.61
11
86.1262
21
-106.607
0
LINE
8
Black
10
86.1262
20
-106.607
11
86.531
21
-106.607
0
LINE
8
Black
10
86.531
20
-106.607
11
86.5345
21
-106.607
0
LINE
8
Black
10
83.6757
20
-105.73
11
83.6982
21
-105.743
0
LINE
8
Black
10
83.6982
20
-105.743
11
83.715
21
-105.762
0
LINE
8
Black
10
83.715
20
-105.762
11
83.7239
21
-105.787
0
LINE
8
Black
10
83.7239
20
-105.787
11
83.7239
21
-105.813
0
LINE
8
Black
10
83.7239
20
-105.813
11
83.715
21
-105.837
0
LINE
8
Black
10
83.715
20
-105.837
11
83.6982
21
-105.857
0
LINE
8
Black
10
83.6982
20
-105.857
11
83.6757
21
-105.87
0
LINE
8
Black
10
83.6757
20
-105.87
11
83.65
21
-105.875
0
LINE
8
Black
10
83.65
20
-105.875
11
83.225
21
-105.875
0
LINE
8
Black
10
83.225
20
-105.875
11
83.225
21
-106.3
0
LINE
8
Black
10
83.225
20
-106.3
11
83.2205
21
-106.326
0
LINE
8
Black
10
83.2205
20
-106.326
11
83.2075
21
-106.348
0
LINE
8
Black
10
83.2075
20
-106.348
11
83.1875
21
-106.365
0
LINE
8
Black
10
83.1875
20
-106.365
11
83.163
21
-106.374
0
LINE
8
Black
10
83.163
20
-106.374
11
83.137
21
-106.374
0
LINE
8
Black
10
83.137
20
-106.374
11
83.1125
21
-106.365
0
LINE
8
Black
10
83.1125
20
-106.365
11
83.0925
21
-106.348
0
LINE
8
Black
10
83.0925
20
-106.348
11
83.0795
21
-106.326
0
LINE
8
Black
10
83.0795
20
-106.326
11
83.075
21
-106.3
0
LINE
8
Black
10
83.075
20
-106.3
11
83.075
21
-105.8
0
LINE
8
Black
10
83.075
20
-105.8
11
83.0761
21
-105.794
0
LINE
8
Black
10
83.0761
20
-105.794
11
83.0761
21
-105.787
0
LINE
8
Black
10
83.0761
20
-105.787
11
83.0784
21
-105.781
0
LINE
8
Black
10
83.0784
20
-105.781
11
83.0795
21
-105.774
0
LINE
8
Black
10
83.0795
20
-105.774
11
83.0828
21
-105.769
0
LINE
8
Black
10
83.0828
20
-105.769
11
83.085
21
-105.762
0
LINE
8
Black
10
83.085
20
-105.762
11
83.0893
21
-105.757
0
LINE
8
Black
10
83.0893
20
-105.757
11
83.0925
21
-105.752
0
LINE
8
Black
10
83.0925
20
-105.752
11
83.0976
21
-105.748
0
LINE
8
Black
10
83.0976
20
-105.748
11
83.1018
21
-105.743
0
LINE
8
Black
10
83.1018
20
-105.743
11
83.1075
21
-105.739
0
LINE
8
Black
10
83.1075
20
-105.739
11
83.1125
21
-105.735
0
LINE
8
Black
10
83.1125
20
-105.735
11
83.1187
21
-105.733
0
LINE
8
Black
10
83.1187
20
-105.733
11
83.1243
21
-105.73
0
LINE
8
Black
10
83.1243
20
-105.73
11
83.1308
21
-105.728
0
LINE
8
Black
10
83.1308
20
-105.728
11
83.137
21
-105.726
0
LINE
8
Black
10
83.137
20
-105.726
11
83.1435
21
-105.726
0
LINE
8
Black
10
83.1435
20
-105.726
11
83.15
21
-105.725
0
LINE
8
Black
10
83.15
20
-105.725
11
83.65
21
-105.725
0
LINE
8
Black
10
83.65
20
-105.725
11
83.6757
21
-105.73
0
LINE
8
Black
10
78.5065
20
-98.5761
11
78.513
21
-98.5761
0
LINE
8
Black
10
78.513
20
-98.5761
11
78.5192
21
-98.5784
0
LINE
8
Black
10
78.5192
20
-98.5784
11
78.5257
21
-98.5795
0
LINE
8
Black
10
78.5257
20
-98.5795
11
78.5313
21
-98.5828
0
LINE
8
Black
10
78.5313
20
-98.5828
11
78.5375
21
-98.585
0
LINE
8
Black
10
78.5375
20
-98.585
11
78.5425
21
-98.5893
0
LINE
8
Black
10
78.5425
20
-98.5893
11
78.5482
21
-98.5925
0
LINE
8
Black
10
78.5482
20
-98.5925
11
78.5524
21
-98.5976
0
LINE
8
Black
10
78.5524
20
-98.5976
11
78.5575
21
-98.6018
0
LINE
8
Black
10
78.5575
20
-98.6018
11
78.5607
21
-98.6075
0
LINE
8
Black
10
78.5607
20
-98.6075
11
78.565
21
-98.6125
0
LINE
8
Black
10
78.565
20
-98.6125
11
78.5672
21
-98.6187
0
LINE
8
Black
10
78.5672
20
-98.6187
11
78.5705
21
-98.6243
0
LINE
8
Black
10
78.5705
20
-98.6243
11
78.5716
21
-98.6308
0
LINE
8
Black
10
78.5716
20
-98.6308
11
78.5739
21
-98.637
0
LINE
8
Black
10
78.5739
20
-98.637
11
78.5739
21
-98.6435
0
LINE
8
Black
10
78.5739
20
-98.6435
11
78.575
21
-98.65
0
LINE
8
Black
10
78.575
20
-98.65
11
78.575
21
-101.15
0
LINE
8
Black
10
78.575
20
-101.15
11
78.5739
21
-101.156
0
LINE
8
Black
10
78.5739
20
-101.156
11
78.5739
21
-101.163
0
LINE
8
Black
10
78.5739
20
-101.163
11
78.5716
21
-101.169
0
LINE
8
Black
10
78.5716
20
-101.169
11
78.5705
21
-101.176
0
LINE
8
Black
10
78.5705
20
-101.176
11
78.5672
21
-101.181
0
LINE
8
Black
10
78.5672
20
-101.181
11
78.565
21
-101.188
0
LINE
8
Black
10
78.565
20
-101.188
11
78.5607
21
-101.193
0
LINE
8
Black
10
78.5607
20
-101.193
11
78.5575
21
-101.198
0
LINE
8
Black
10
78.5575
20
-101.198
11
78.5524
21
-101.202
0
LINE
8
Black
10
78.5524
20
-101.202
11
78.5482
21
-101.207
0
LINE
8
Black
10
78.5482
20
-101.207
11
78.5425
21
-101.211
0
LINE
8
Black
10
78.5425
20
-101.211
11
78.5375
21
-101.215
0
LINE
8
Black
10
78.5375
20
-101.215
11
78.5313
21
-101.217
0
LINE
8
Black
10
78.5313
20
-101.217
11
78.5257
21
-101.22
0
LINE
8
Black
10
78.5257
20
-101.22
11
78.5192
21
-101.222
0
LINE
8
Black
10
78.5192
20
-101.222
11
78.513
21
-101.224
0
LINE
8
Black
10
78.513
20
-101.224
11
78.5065
21
-101.224
0
LINE
8
Black
10
78.5065
20
-101.224
11
78.5
21
-101.225
0
LINE
8
Black
10
78.5
20
-101.225
11
76
21
-101.225
0
LINE
8
Black
10
76
20
-101.225
11
75.9935
21
-101.224
0
LINE
8
Black
10
75.9935
20
-101.224
11
75.987
21
-101.224
0
LINE
8
Black
10
75.987
20
-101.224
11
75.9808
21
-101.222
0
LINE
8
Black
10
75.9808
20
-101.222
11
75.9743
21
-101.22
0
LINE
8
Black
10
75.9743
20
-101.22
11
75.9687
21
-101.217
0
LINE
8
Black
10
75.9687
20
-101.217
11
75.9625
21
-101.215
0
LINE
8
Black
10
75.9625
20
-101.215
11
75.9575
21
-101.211
0
LINE
8
Black
10
75.9575
20
-101.211
11
75.9518
21
-101.207
0
LINE
8
Black
10
75.9518
20
-101.207
11
75.9476
21
-101.202
0
LINE
8
Black
10
75.9476
20
-101.202
11
75.9425
21
-101.198
0
LINE
8
Black
10
75.9425
20
-101.198
11
75.9393
21
-101.193
0
LINE
8
Black
10
75.9393
20
-101.193
11
75.935
21
-101.188
0
LINE
8
Black
10
75.935
20
-101.188
11
75.9328
21
-101.181
0
LINE
8
Black
10
75.9328
20
-101.181
11
75.9295
21
-101.176
0
LINE
8
Black
10
75.9295
20
-101.176
11
75.9284
21
-101.169
0
LINE
8
Black
10
75.9284
20
-101.169
11
75.9261
21
-101.163
0
LINE
8
Black
10
75.9261
20
-101.163
11
75.9261
21
-101.156
0
LINE
8
Black
10
75.9261
20
-101.156
11
75.925
21
-101.15
0
LINE
8
Black
10
75.925
20
-101.15
11
75.925
21
-98.65
0
LINE
8
Black
10
75.925
20
-98.65
11
75.9261
21
-98.6435
0
LINE
8
Black
10
75.9261
20
-98.6435
11
75.9261
21
-98.637
0
LINE
8
Black
10
75.9261
20
-98.637
11
75.9284
21
-98.6308
0
LINE
8
Black
10
75.9284
20
-98.6308
11
75.9295
21
-98.6243
0
LINE
8
Black
10
75.9295
20
-98.6243
11
75.9328
21
-98.6187
0
LINE
8
Black
10
75.9328
20
-98.6187
11
75.935
21
-98.6125
0
LINE
8
Black
10
75.935
20
-98.6125
11
75.9393
21
-98.6075
0
LINE
8
Black
10
75.9393
20
-98.6075
11
75.9425
21
-98.6018
0
LINE
8
Black
10
75.9425
20
-98.6018
11
75.9476
21
-98.5976
0
LINE
8
Black
10
75.9476
20
-98.5976
11
75.9518
21
-98.5925
0
LINE
8
Black
10
75.9518
20
-98.5925
11
75.9575
21
-98.5893
0
LINE
8
Black
10
75.9575
20
-98.5893
11
75.9625
21
-98.585
0
LINE
8
Black
10
75.9625
20
-98.585
11
75.9687
21
-98.5828
0
LINE
8
Black
10
75.9687
20
-98.5828
11
75.9743
21
-98.5795
0
LINE
8
Black
10
75.9743
20
-98.5795
11
75.9808
21
-98.5784
0
LINE
8
Black
10
75.9808
20
-98.5784
11
75.987
21
-98.5761
0
LINE
8
Black
10
75.987
20
-98.5761
11
75.9935
21
-98.5761
0
LINE
8
Black
10
75.9935
20
-98.5761
11
76
21
-98.575
0
LINE
8
Black
10
76
20
-98.575
11
78.5
21
-98.575
0
LINE
8
Black
10
78.5
20
-98.575
11
78.5065
21
-98.5761
0
LINE
8
Black
10
76.075
20
-98.725
11
76.075
21
-101.075
0
LINE
8
Black
10
76.075
20
-101.075
11
78.425
21
-101.075
0
LINE
8
Black
10
78.425
20
-101.075
11
78.425
21
-98.725
0
LINE
8
Black
10
78.425
20
-98.725
11
76.075
21
-98.725
0
LINE
8
Black
10
86.1875
20
-100.535
11
86.2075
21
-100.552
0
LINE
8
Black
10
86.2075
20
-100.552
11
86.2205
21
-100.574
0
LINE
8
Black
10
86.2205
20
-100.574
11
86.225
21
-100.6
0
LINE
8
Black
10
86.225
20
-100.6
11
86.225
21
-101.1
0
LINE
8
Black
10
86.225
20
-101.1
11
86.2239
21
-101.106
0
LINE
8
Black
10
86.2239
20
-101.106
11
86.2239
21
-101.113
0
LINE
8
Black
10
86.2239
20
-101.113
11
86.2216
21
-101.119
0
LINE
8
Black
10
86.2216
20
-101.119
11
86.2205
21
-101.126
0
LINE
8
Black
10
86.2205
20
-101.126
11
86.2172
21
-101.131
0
LINE
8
Black
10
86.2172
20
-101.131
11
86.215
21
-101.137
0
LINE
8
Black
10
86.215
20
-101.137
11
86.2107
21
-101.143
0
LINE
8
Black
10
86.2107
20
-101.143
11
86.2075
21
-101.148
0
LINE
8
Black
10
86.2075
20
-101.148
11
86.2024
21
-101.152
0
LINE
8
Black
10
86.2024
20
-101.152
11
86.1982
21
-101.157
0
LINE
8
Black
10
86.1982
20
-101.157
11
86.1925
21
-101.161
0
LINE
8
Black
10
86.1925
20
-101.161
11
86.1875
21
-101.165
0
LINE
8
Black
10
86.1875
20
-101.165
11
86.1813
21
-101.167
0
LINE
8
Black
10
86.1813
20
-101.167
11
86.1757
21
-101.17
0
LINE
8
Black
10
86.1757
20
-101.17
11
86.1692
21
-101.172
0
LINE
8
Black
10
86.1692
20
-101.172
11
86.163
21
-101.174
0
LINE
8
Black
10
86.163
20
-101.174
11
86.1565
21
-101.174
0
LINE
8
Black
10
86.1565
20
-101.174
11
86.15
21
-101.175
0
LINE
8
Black
10
86.15
20
-101.175
11
85.65
21
-101.175
0
LINE
8
Black
10
85.65
20
-101.175
11
85.6243
21
-101.17
0
LINE
8
Black
10
85.6243
20
-101.17
11
85.6018
21
-101.157
0
LINE
8
Black
10
85.6018
20
-101.157
11
85.585
21
-101.137
0
LINE
8
Black
10
85.585
20
-101.137
11
85.5761
21
-101.113
0
LINE
8
Black
10
85.5761
20
-101.113
11
85.5761
21
-101.087
0
LINE
8
Black
10
85.5761
20
-101.087
11
85.585
21
-101.062
0
LINE
8
Black
10
85.585
20
-101.062
11
85.6018
21
-101.043
0
LINE
8
Black
10
85.6018
20
-101.043
11
85.6243
21
-101.03
0
LINE
8
Black
10
85.6243
20
-101.03
11
85.65
21
-101.025
0
LINE
8
Black
10
85.65
20
-101.025
11
86.075
21
-101.025
0
LINE
8
Black
10
86.075
20
-101.025
11
86.075
21
-100.6
0
LINE
8
Black
10
86.075
20
-100.6
11
86.0795
21
-100.574
0
LINE
8
Black
10
86.0795
20
-100.574
11
86.0925
21
-100.552
0
LINE
8
Black
10
86.0925
20
-100.552
11
86.1125
21
-100.535
0
LINE
8
Black
10
86.1125
20
-100.535
11
86.137
21
-100.526
0
LINE
8
Black
10
86.137
20
-100.526
11
86.163
21
-100.526
0
LINE
8
Black
10
86.163
20
-100.526
11
86.1875
21
-100.535
0
LINE
8
Black
10
85.9065
20
-98.7761
11
85.913
21
-98.7761
0
LINE
8
Black
10
85.913
20
-98.7761
11
85.9192
21
-98.7784
0
LINE
8
Black
10
85.9192
20
-98.7784
11
85.9257
21
-98.7795
0
LINE
8
Black
10
85.9257
20
-98.7795
11
85.9313
21
-98.7828
0
LINE
8
Black
10
85.9313
20
-98.7828
11
85.9375
21
-98.785
0
LINE
8
Black
10
85.9375
20
-98.785
11
85.9425
21
-98.7893
0
LINE
8
Black
10
85.9425
20
-98.7893
11
85.9482
21
-98.7925
0
LINE
8
Black
10
85.9482
20
-98.7925
11
85.9524
21
-98.7976
0
LINE
8
Black
10
85.9524
20
-98.7976
11
85.9575
21
-98.8018
0
LINE
8
Black
10
85.9575
20
-98.8018
11
85.9607
21
-98.8075
0
LINE
8
Black
10
85.9607
20
-98.8075
11
85.965
21
-98.8125
0
LINE
8
Black
10
85.965
20
-98.8125
11
85.9672
21
-98.8187
0
LINE
8
Black
10
85.9672
20
-98.8187
11
85.9705
21
-98.8243
0
LINE
8
Black
10
85.9705
20
-98.8243
11
85.9716
21
-98.8308
0
LINE
8
Black
10
85.9716
20
-98.8308
11
85.9739
21
-98.837
0
LINE
8
Black
10
85.9739
20
-98.837
11
85.9739
21
-98.8435
0
LINE
8
Black
10
85.9739
20
-98.8435
11
85.975
21
-98.85
0
LINE
8
Black
10
85.975
20
-98.85
11
85.975
21
-100.85
0
LINE
8
Black
10
85.975
20
-100.85
11
85.9739
21
-100.856
0
LINE
8
Black
10
85.9739
20
-100.856
11
85.9739
21
-100.863
0
LINE
8
Black
10
85.9739
20
-100.863
11
85.9716
21
-100.869
0
LINE
8
Black
10
85.9716
20
-100.869
11
85.9705
21
-100.876
0
LINE
8
Black
10
85.9705
20
-100.876
11
85.9672
21
-100.881
0
LINE
8
Black
10
85.9672
20
-100.881
11
85.965
21
-100.887
0
LINE
8
Black
10
85.965
20
-100.887
11
85.9607
21
-100.893
0
LINE
8
Black
10
85.9607
20
-100.893
11
85.9575
21
-100.898
0
LINE
8
Black
10
85.9575
20
-100.898
11
85.9524
21
-100.902
0
LINE
8
Black
10
85.9524
20
-100.902
11
85.9482
21
-100.907
0
LINE
8
Black
10
85.9482
20
-100.907
11
85.9425
21
-100.911
0
LINE
8
Black
10
85.9425
20
-100.911
11
85.9375
21
-100.915
0
LINE
8
Black
10
85.9375
20
-100.915
11
85.9313
21
-100.917
0
LINE
8
Black
10
85.9313
20
-100.917
11
85.9257
21
-100.92
0
LINE
8
Black
10
85.9257
20
-100.92
11
85.9192
21
-100.922
0
LINE
8
Black
10
85.9192
20
-100.922
11
85.913
21
-100.924
0
LINE
8
Black
10
85.913
20
-100.924
11
85.9065
21
-100.924
0
LINE
8
Black
10
85.9065
20
-100.924
11
85.9
21
-100.925
0
LINE
8
Black
10
85.9
20
-100.925
11
83.4
21
-100.925
0
LINE
8
Black
10
83.4
20
-100.925
11
83.3935
21
-100.924
0
LINE
8
Black
10
83.3935
20
-100.924
11
83.387
21
-100.924
0
LINE
8
Black
10
83.387
20
-100.924
11
83.3808
21
-100.922
0
LINE
8
Black
10
83.3808
20
-100.922
11
83.3743
21
-100.92
0
LINE
8
Black
10
83.3743
20
-100.92
11
83.3687
21
-100.917
0
LINE
8
Black
10
83.3687
20
-100.917
11
83.3625
21
-100.915
0
LINE
8
Black
10
83.3625
20
-100.915
11
83.3575
21
-100.911
0
LINE
8
Black
10
83.3575
20
-100.911
11
83.3518
21
-100.907
0
LINE
8
Black
10
83.3518
20
-100.907
11
83.3476
21
-100.902
0
LINE
8
Black
10
83.3476
20
-100.902
11
83.3425
21
-100.898
0
LINE
8
Black
10
83.3425
20
-100.898
11
83.3393
21
-100.893
0
LINE
8
Black
10
83.3393
20
-100.893
11
83.335
21
-100.887
0
LINE
8
Black
10
83.335
20
-100.887
11
83.3328
21
-100.881
0
LINE
8
Black
10
83.3328
20
-100.881
11
83.3295
21
-100.876
0
LINE
8
Black
10
83.3295
20
-100.876
11
83.3284
21
-100.869
0
LINE
8
Black
10
83.3284
20
-100.869
11
83.3261
21
-100.863
0
LINE
8
Black
10
83.3261
20
-100.863
11
83.3261
21
-100.856
0
LINE
8
Black
10
83.3261
20
-100.856
11
83.325
21
-100.85
0
LINE
8
Black
10
83.325
20
-100.85
11
83.325
21
-98.85
0
LINE
8
Black
10
83.325
20
-98.85
11
83.3261
21
-98.8435
0
LINE
8
Black
10
83.3261
20
-98.8435
11
83.3261
21
-98.837
0
LINE
8
Black
10
83.3261
20
-98.837
11
83.3284
21
-98.8308
0
LINE
8
Black
10
83.3284
20
-98.8308
11
83.3295
21
-98.8243
0
LINE
8
Black
10
83.3295
20
-98.8243
11
83.3328
21
-98.8187
0
LINE
8
Black
10
83.3328
20
-98.8187
11
83.335
21
-98.8125
0
LINE
8
Black
10
83.335
20
-98.8125
11
83.3393
21
-98.8075
0
LINE
8
Black
10
83.3393
20
-98.8075
11
83.3425
21
-98.8018
0
LINE
8
Black
10
83.3425
20
-98.8018
11
83.3476
21
-98.7976
0
LINE
8
Black
10
83.3476
20
-98.7976
11
83.3518
21
-98.7925
0
LINE
8
Black
10
83.3518
20
-98.7925
11
83.3575
21
-98.7893
0
LINE
8
Black
10
83.3575
20
-98.7893
11
83.3625
21
-98.785
0
LINE
8
Black
10
83.3625
20
-98.785
11
83.3687
21
-98.7828
0
LINE
8
Black
10
83.3687
20
-98.7828
11
83.3743
21
-98.7795
0
LINE
8
Black
10
83.3743
20
-98.7795
11
83.3808
21
-98.7784
0
LINE
8
Black
10
83.3808
20
-98.7784
11
83.387
21
-98.7761
0
LINE
8
Black
10
83.387
20
-98.7761
11
83.3935
21
-98.7761
0
LINE
8
Black
10
83.3935
20
-98.7761
11
83.4
21
-98.775
0
LINE
8
Black
10
83.4
20
-98.775
11
85.9
21
-98.775
0
LINE
8
Black
10
85.9
20
-98.775
11
85.9065
21
-98.7761
0
LINE
8
Black
10
83.475
20
-98.925
11
83.475
21
-100.775
0
LINE
8
Black
10
83.475
20
-100.775
11
85.825
21
-100.775
0
LINE
8
Black
10
85.825
20
-100.775
11
85.825
21
-98.925
0
LINE
8
Black
10
85.825
20
-98.925
11
83.475
21
-98.925
0
LINE
8
Black
10
82.6574
20
-99.8911
11
82.6741
21
-99.9051
0
LINE
8
Black
10
82.6741
20
-99.9051
11
82.6849
21
-99.9239
0
LINE
8
Black
10
82.6849
20
-99.9239
11
82.6887
21
-99.9452
0
LINE
8
Black
10
82.6887
20
-99.9452
11
82.6887
21
-100.184
0
LINE
8
Black
10
82.6887
20
-100.184
11
83.1016
21
-100.007
0
LINE
8
Black
10
83.1016
20
-100.007
11
83.1227
21
-100.002
0
LINE
8
Black
10
83.1227
20
-100.002
11
83.1443
21
-100.004
0
LINE
8
Black
10
83.1443
20
-100.004
11
83.1636
21
-100.014
0
LINE
8
Black
10
83.1636
20
-100.014
11
83.1785
21
-100.03
0
LINE
8
Black
10
83.1785
20
-100.03
11
83.187
21
-100.05
0
LINE
8
Black
10
83.187
20
-100.05
11
83.1883
21
-100.072
0
LINE
8
Black
10
83.1883
20
-100.072
11
83.182
21
-100.092
0
LINE
8
Black
10
83.182
20
-100.092
11
83.169
21
-100.11
0
LINE
8
Black
10
83.169
20
-100.11
11
83.1508
21
-100.122
0
LINE
8
Black
10
83.1508
20
-100.122
11
82.6508
21
-100.336
0
LINE
8
Black
10
82.6508
20
-100.336
11
82.6438
21
-100.338
0
LINE
8
Black
10
82.6438
20
-100.338
11
82.637
21
-100.34
0
LINE
8
Black
10
82.637
20
-100.34
11
82.6333
21
-100.34
0
LINE
8
Black
10
82.6333
20
-100.34
11
82.6297
21
-100.341
0
LINE
8
Black
10
82.6297
20
-100.341
11
82.6225
21
-100.34
0
LINE
8
Black
10
82.6225
20
-100.34
11
82.6153
21
-100.34
0
LINE
8
Black
10
82.6153
20
-100.34
11
82.6118
21
-100.339
0
LINE
8
Black
10
82.6118
20
-100.339
11
82.6081
21
-100.338
0
LINE
8
Black
10
82.6081
20
-100.338
11
82.6017
21
-100.335
0
LINE
8
Black
10
82.6017
20
-100.335
11
82.5949
21
-100.333
0
LINE
8
Black
10
82.5949
20
-100.333
11
82.5921
21
-100.33
0
LINE
8
Black
10
82.5921
20
-100.33
11
82.5887
21
-100.329
0
LINE
8
Black
10
82.5887
20
-100.329
11
82.5838
21
-100.323
0
LINE
8
Black
10
82.5838
20
-100.323
11
82.5783
21
-100.319
0
LINE
8
Black
10
82.5783
20
-100.319
11
82.5764
21
-100.316
0
LINE
8
Black
10
82.5764
20
-100.316
11
82.5739
21
-100.313
0
LINE
8
Black
10
82.5739
20
-100.313
11
82.5711
21
-100.306
0
LINE
8
Black
10
82.5711
20
-100.306
11
82.5675
21
-100.3
0
LINE
8
Black
10
82.5675
20
-100.3
11
82.5668
21
-100.296
0
LINE
8
Black
10
82.5668
20
-100.296
11
82.5653
21
-100.293
0
LINE
8
Black
10
82.5653
20
-100.293
11
82.5649
21
-100.286
0
LINE
8
Black
10
82.5649
20
-100.286
11
82.5637
21
-100.279
0
LINE
8
Black
10
82.5637
20
-100.279
11
82.5637
21
-99.9452
0
LINE
8
Black
10
82.5637
20
-99.9452
11
82.5675
21
-99.9239
0
LINE
8
Black
10
82.5675
20
-99.9239
11
82.5783
21
-99.9051
0
LINE
8
Black
10
82.5783
20
-99.9051
11
82.5949
21
-99.8911
0
LINE
8
Black
10
82.5949
20
-99.8911
11
82.6153
21
-99.8837
0
LINE
8
Black
10
82.6153
20
-99.8837
11
82.637
21
-99.8837
0
LINE
8
Black
10
82.637
20
-99.8837
11
82.6574
21
-99.8911
0
LINE
8
Black
10
109.323
20
-99.0285
11
109.332
21
-99.0285
0
LINE
8
Black
10
109.332
20
-99.0285
11
109.336
21
-99.0299
0
LINE
8
Black
10
109.336
20
-99.0299
11
109.34
21
-99.0304
0
LINE
8
Black
10
109.34
20
-99.0304
11
109.348
21
-99.0344
0
LINE
8
Black
10
109.348
20
-99.0344
11
109.357
21
-99.0374
0
LINE
8
Black
10
109.357
20
-99.0374
11
109.36
21
-99.0401
0
LINE
8
Black
10
109.36
20
-99.0401
11
109.363
21
-99.0419
0
LINE
8
Black
10
109.363
20
-99.0419
11
109.37
21
-99.0484
0
LINE
8
Black
10
109.37
20
-99.0484
11
109.377
21
-99.0542
0
LINE
8
Black
10
109.377
20
-99.0542
11
109.379
21
-99.0578
0
LINE
8
Black
10
109.379
20
-99.0578
11
109.381
21
-99.0608
0
LINE
8
Black
10
109.381
20
-99.0608
11
109.473
21
-99.1975
0
LINE
8
Black
10
109.473
20
-99.1975
11
109.554
21
-99.2788
0
LINE
8
Black
10
109.554
20
-99.2788
11
109.638
21
-99.321
0
LINE
8
Black
10
109.638
20
-99.321
11
109.659
21
-99.3365
0
LINE
8
Black
10
109.659
20
-99.3365
11
109.674
21
-99.3583
0
LINE
8
Black
10
109.674
20
-99.3583
11
109.68
21
-99.3836
0
LINE
8
Black
10
109.68
20
-99.3836
11
109.677
21
-99.4095
0
LINE
8
Black
10
109.677
20
-99.4095
11
109.665
21
-99.4328
0
LINE
8
Black
10
109.665
20
-99.4328
11
109.646
21
-99.4507
0
LINE
8
Black
10
109.646
20
-99.4507
11
109.622
21
-99.461
0
LINE
8
Black
10
109.622
20
-99.461
11
109.596
21
-99.4626
0
LINE
8
Black
10
109.596
20
-99.4626
11
109.571
21
-99.4552
0
LINE
8
Black
10
109.571
20
-99.4552
11
109.476
21
-99.4076
0
LINE
8
Black
10
109.476
20
-99.4076
11
109.466
21
-99.4004
0
LINE
8
Black
10
109.466
20
-99.4004
11
109.456
21
-99.3935
0
LINE
8
Black
10
109.456
20
-99.3935
11
109.394
21
-99.3311
0
LINE
8
Black
10
109.394
20
-99.3311
11
109.394
21
-100.027
0
LINE
8
Black
10
109.394
20
-100.027
11
109.605
21
-100.027
0
LINE
8
Black
10
109.605
20
-100.027
11
109.63
21
-100.032
0
LINE
8
Black
10
109.63
20
-100.032
11
109.653
21
-100.045
0
LINE
8
Black
10
109.653
20
-100.045
11
109.67
21
-100.065
0
LINE
8
Black
10
109.67
20
-100.065
11
109.679
21
-100.089
0
LINE
8
Black
10
109.679
20
-100.089
11
109.679
21
-100.115
0
LINE
8
Black
10
109.679
20
-100.115
11
109.67
21
-100.14
0
LINE
8
Black
10
109.67
20
-100.14
11
109.653
21
-100.16
0
LINE
8
Black
10
109.653
20
-100.16
11
109.63
21
-100.173
0
LINE
8
Black
10
109.63
20
-100.173
11
109.605
21
-100.177
0
LINE
8
Black
10
109.605
20
-100.177
11
109.033
21
-100.177
0
LINE
8
Black
10
109.033
20
-100.177
11
109.008
21
-100.173
0
LINE
8
Black
10
109.008
20
-100.173
11
108.985
21
-100.16
0
LINE
8
Black
10
108.985
20
-100.16
11
108.968
21
-100.14
0
LINE
8
Black
10
108.968
20
-100.14
11
108.959
21
-100.115
0
LINE
8
Black
10
108.959
20
-100.115
11
108.959
21
-100.089
0
LINE
8
Black
10
108.959
20
-100.089
11
108.968
21
-100.065
0
LINE
8
Black
10
108.968
20
-100.065
11
108.985
21
-100.045
0
LINE
8
Black
10
108.985
20
-100.045
11
109.008
21
-100.032
0
LINE
8
Black
10
109.008
20
-100.032
11
109.033
21
-100.027
0
LINE
8
Black
10
109.033
20
-100.027
11
109.244
21
-100.027
0
LINE
8
Black
10
109.244
20
-100.027
11
109.244
21
-99.1024
0
LINE
8
Black
10
109.244
20
-99.1024
11
109.245
21
-99.0983
0
LINE
8
Black
10
109.245
20
-99.0983
11
109.245
21
-99.0941
0
LINE
8
Black
10
109.245
20
-99.0941
11
109.247
21
-99.0855
0
LINE
8
Black
10
109.247
20
-99.0855
11
109.249
21
-99.0767
0
LINE
8
Black
10
109.249
20
-99.0767
11
109.251
21
-99.0731
0
LINE
8
Black
10
109.251
20
-99.0731
11
109.252
21
-99.0691
0
LINE
8
Black
10
109.252
20
-99.0691
11
109.257
21
-99.0619
0
LINE
8
Black
10
109.257
20
-99.0619
11
109.262
21
-99.0542
0
LINE
8
Black
10
109.262
20
-99.0542
11
109.265
21
-99.0515
0
LINE
8
Black
10
109.265
20
-99.0515
11
109.267
21
-99.0481
0
LINE
8
Black
10
109.267
20
-99.0481
11
109.275
21
-99.0432
0
LINE
8
Black
10
109.275
20
-99.0432
11
109.282
21
-99.0374
0
LINE
8
Black
10
109.282
20
-99.0374
11
109.285
21
-99.036
0
LINE
8
Black
10
109.285
20
-99.036
11
109.289
21
-99.0337
0
LINE
8
Black
10
109.289
20
-99.0337
11
109.298
21
-99.0316
0
LINE
8
Black
10
109.298
20
-99.0316
11
109.306
21
-99.0285
0
LINE
8
Black
10
109.306
20
-99.0285
11
109.31
21
-99.0285
0
LINE
8
Black
10
109.31
20
-99.0285
11
109.314
21
-99.0275
0
LINE
8
Black
10
109.314
20
-99.0275
11
109.323
21
-99.0285
0
LINE
8
Black
10
110.071
20
-99.0374
11
110.091
21
-99.0542
0
LINE
8
Black
10
110.091
20
-99.0542
11
110.104
21
-99.0767
0
LINE
8
Black
10
110.104
20
-99.0767
11
110.108
21
-99.1024
0
LINE
8
Black
10
110.108
20
-99.1024
11
110.108
21
-99.8045
0
LINE
8
Black
10
110.108
20
-99.8045
11
110.147
21
-99.919
0
LINE
8
Black
10
110.147
20
-99.919
11
110.217
21
-99.9892
0
LINE
8
Black
10
110.217
20
-99.9892
11
110.331
21
-100.027
0
LINE
8
Black
10
110.331
20
-100.027
11
110.414
21
-100.027
0
LINE
8
Black
10
110.414
20
-100.027
11
110.44
21
-100.032
0
LINE
8
Black
10
110.44
20
-100.032
11
110.462
21
-100.045
0
LINE
8
Black
10
110.462
20
-100.045
11
110.479
21
-100.065
0
LINE
8
Black
10
110.479
20
-100.065
11
110.488
21
-100.089
0
LINE
8
Black
10
110.488
20
-100.089
11
110.488
21
-100.115
0
LINE
8
Black
10
110.488
20
-100.115
11
110.479
21
-100.14
0
LINE
8
Black
10
110.479
20
-100.14
11
110.462
21
-100.16
0
LINE
8
Black
10
110.462
20
-100.16
11
110.44
21
-100.173
0
LINE
8
Black
10
110.44
20
-100.173
11
110.414
21
-100.177
0
LINE
8
Black
10
110.414
20
-100.177
11
110.319
21
-100.177
0
LINE
8
Black
10
110.319
20
-100.177
11
110.307
21
-100.175
0
LINE
8
Black
10
110.307
20
-100.175
11
110.295
21
-100.174
0
LINE
8
Black
10
110.295
20
-100.174
11
110.152
21
-100.126
0
LINE
8
Black
10
110.152
20
-100.126
11
110.149
21
-100.124
0
LINE
8
Black
10
110.149
20
-100.124
11
110.144
21
-100.123
0
LINE
8
Black
10
110.144
20
-100.123
11
110.137
21
-100.118
0
LINE
8
Black
10
110.137
20
-100.118
11
110.13
21
-100.114
0
LINE
8
Black
10
110.13
20
-100.114
11
110.127
21
-100.11
0
LINE
8
Black
10
110.127
20
-100.11
11
110.123
21
-100.108
0
LINE
8
Black
10
110.123
20
-100.108
11
110.028
21
-100.013
0
LINE
8
Black
10
110.028
20
-100.013
11
110.025
21
-100.009
0
LINE
8
Black
10
110.025
20
-100.009
11
110.022
21
-100.006
0
LINE
8
Black
10
110.022
20
-100.006
11
110.018
21
-99.9984
0
LINE
8
Black
10
110.018
20
-99.9984
11
110.013
21
-99.9912
0
LINE
8
Black
10
110.013
20
-99.9912
11
110.012
21
-99.987
0
LINE
8
Black
10
110.012
20
-99.987
11
110.01
21
-99.9832
0
LINE
8
Black
10
110.01
20
-99.9832
11
109.962
21
-99.8404
0
LINE
8
Black
10
109.962
20
-99.8404
11
109.96
21
-99.8285
0
LINE
8
Black
10
109.96
20
-99.8285
11
109.958
21
-99.8167
0
LINE
8
Black
10
109.958
20
-99.8167
11
109.958
21
-99.1024
0
LINE
8
Black
10
109.958
20
-99.1024
11
109.963
21
-99.0767
0
LINE
8
Black
10
109.963
20
-99.0767
11
109.976
21
-99.0542
0
LINE
8
Black
10
109.976
20
-99.0542
11
109.996
21
-99.0374
0
LINE
8
Black
10
109.996
20
-99.0374
11
110.02
21
-99.0285
0
LINE
8
Black
10
110.02
20
-99.0285
11
110.046
21
-99.0285
0
LINE
8
Black
10
110.046
20
-99.0285
11
110.071
21
-99.0374
0
LINE
8
Black
10
83.0345
20
-99.4072
11
83.0381
21
-99.407
0
LINE
8
Black
10
83.0381
20
-99.407
11
83.0451
21
-99.409
0
LINE
8
Black
10
83.0451
20
-99.409
11
83.0523
21
-99.4103
0
LINE
8
Black
10
83.0523
20
-99.4103
11
83.0554
21
-99.4121
0
LINE
8
Black
10
83.0554
20
-99.4121
11
83.0589
21
-99.4131
0
LINE
8
Black
10
83.0589
20
-99.4131
11
83.1065
21
-99.437
0
LINE
8
Black
10
83.1065
20
-99.437
11
83.1146
21
-99.4429
0
LINE
8
Black
10
83.1146
20
-99.4429
11
83.1228
21
-99.4487
0
LINE
8
Black
10
83.1228
20
-99.4487
11
83.1466
21
-99.4725
0
LINE
8
Black
10
83.1466
20
-99.4725
11
83.1523
21
-99.4807
0
LINE
8
Black
10
83.1523
20
-99.4807
11
83.1583
21
-99.4887
0
LINE
8
Black
10
83.1583
20
-99.4887
11
83.1821
21
-99.5363
0
LINE
8
Black
10
83.1821
20
-99.5363
11
83.1831
21
-99.5398
0
LINE
8
Black
10
83.1831
20
-99.5398
11
83.1849
21
-99.5429
0
LINE
8
Black
10
83.1849
20
-99.5429
11
83.1862
21
-99.5501
0
LINE
8
Black
10
83.1862
20
-99.5501
11
83.1883
21
-99.5571
0
LINE
8
Black
10
83.1883
20
-99.5571
11
83.1881
21
-99.5607
0
LINE
8
Black
10
83.1881
20
-99.5607
11
83.1887
21
-99.5643
0
LINE
8
Black
10
83.1887
20
-99.5643
11
83.1887
21
-99.6595
0
LINE
8
Black
10
83.1887
20
-99.6595
11
83.1881
21
-99.6631
0
LINE
8
Black
10
83.1881
20
-99.6631
11
83.1883
21
-99.6667
0
LINE
8
Black
10
83.1883
20
-99.6667
11
83.1862
21
-99.6737
0
LINE
8
Black
10
83.1862
20
-99.6737
11
83.1849
21
-99.6809
0
LINE
8
Black
10
83.1849
20
-99.6809
11
83.1831
21
-99.684
0
LINE
8
Black
10
83.1831
20
-99.684
11
83.1821
21
-99.6875
0
LINE
8
Black
10
83.1821
20
-99.6875
11
83.1583
21
-99.7351
0
LINE
8
Black
10
83.1583
20
-99.7351
11
83.1523
21
-99.7431
0
LINE
8
Black
10
83.1523
20
-99.7431
11
83.1466
21
-99.7513
0
LINE
8
Black
10
83.1466
20
-99.7513
11
83.1228
21
-99.7751
0
LINE
8
Black
10
83.1228
20
-99.7751
11
83.1146
21
-99.7809
0
LINE
8
Black
10
83.1146
20
-99.7809
11
83.1065
21
-99.7869
0
LINE
8
Black
10
83.1065
20
-99.7869
11
83.0589
21
-99.8107
0
LINE
8
Black
10
83.0589
20
-99.8107
11
83.0555
21
-99.8117
0
LINE
8
Black
10
83.0555
20
-99.8117
11
83.0523
21
-99.8135
0
LINE
8
Black
10
83.0523
20
-99.8135
11
83.0451
21
-99.8148
0
LINE
8
Black
10
83.0451
20
-99.8148
11
83.0381
21
-99.8169
0
LINE
8
Black
10
83.0381
20
-99.8169
11
83.0345
21
-99.8166
0
LINE
8
Black
10
83.0345
20
-99.8166
11
83.031
21
-99.8173
0
LINE
8
Black
10
83.031
20
-99.8173
11
82.6262
21
-99.8173
0
LINE
8
Black
10
82.6262
20
-99.8173
11
82.6048
21
-99.8135
0
LINE
8
Black
10
82.6048
20
-99.8135
11
82.586
21
-99.8026
0
LINE
8
Black
10
82.586
20
-99.8026
11
82.5721
21
-99.786
0
LINE
8
Black
10
82.5721
20
-99.786
11
82.5646
21
-99.7656
0
LINE
8
Black
10
82.5646
20
-99.7656
11
82.5646
21
-99.7439
0
LINE
8
Black
10
82.5646
20
-99.7439
11
82.5721
21
-99.7235
0
LINE
8
Black
10
82.5721
20
-99.7235
11
82.586
21
-99.7069
0
LINE
8
Black
10
82.586
20
-99.7069
11
82.6048
21
-99.696
0
LINE
8
Black
10
82.6048
20
-99.696
11
82.6262
21
-99.6923
0
LINE
8
Black
10
82.6262
20
-99.6923
11
83.0162
21
-99.6923
0
LINE
8
Black
10
83.0162
20
-99.6923
11
83.0416
21
-99.6796
0
LINE
8
Black
10
83.0416
20
-99.6796
11
83.051
21
-99.6701
0
LINE
8
Black
10
83.051
20
-99.6701
11
83.0637
21
-99.6448
0
LINE
8
Black
10
83.0637
20
-99.6448
11
83.0637
21
-99.579
0
LINE
8
Black
10
83.0637
20
-99.579
11
83.051
21
-99.5537
0
LINE
8
Black
10
83.051
20
-99.5537
11
83.0416
21
-99.5442
0
LINE
8
Black
10
83.0416
20
-99.5442
11
83.0162
21
-99.5315
0
LINE
8
Black
10
83.0162
20
-99.5315
11
82.6262
21
-99.5315
0
LINE
8
Black
10
82.6262
20
-99.5315
11
82.6048
21
-99.5278
0
LINE
8
Black
10
82.6048
20
-99.5278
11
82.586
21
-99.5169
0
LINE
8
Black
10
82.586
20
-99.5169
11
82.5721
21
-99.5003
0
LINE
8
Black
10
82.5721
20
-99.5003
11
82.5646
21
-99.4799
0
LINE
8
Black
10
82.5646
20
-99.4799
11
82.5646
21
-99.4582
0
LINE
8
Black
10
82.5646
20
-99.4582
11
82.5721
21
-99.4378
0
LINE
8
Black
10
82.5721
20
-99.4378
11
82.586
21
-99.4212
0
LINE
8
Black
10
82.586
20
-99.4212
11
82.6048
21
-99.4103
0
LINE
8
Black
10
82.6048
20
-99.4103
11
82.6262
21
-99.4065
0
LINE
8
Black
10
82.6262
20
-99.4065
11
83.031
21
-99.4065
0
LINE
8
Black
10
83.031
20
-99.4065
11
83.0345
21
-99.4072
0
LINE
8
Black
10
128.814
20
-99.6112
11
128.809
21
-99.6114
0
LINE
8
Black
10
128.809
20
-99.6114
11
128.801
21
-99.6089
0
LINE
8
Black
10
128.801
20
-99.6089
11
128.792
21
-99.6074
0
LINE
8
Black
10
128.792
20
-99.6074
11
128.788
21
-99.6052
0
LINE
8
Black
10
128.788
20
-99.6052
11
128.784
21
-99.604
0
LINE
8
Black
10
128.784
20
-99.604
11
128.698
21
-99.5609
0
LINE
8
Black
10
128.698
20
-99.5609
11
128.698
21
-99.5626
0
LINE
8
Black
10
128.698
20
-99.5626
11
128.685
21
-99.5851
0
LINE
8
Black
10
128.685
20
-99.5851
11
128.665
21
-99.6019
0
LINE
8
Black
10
128.665
20
-99.6019
11
128.64
21
-99.6108
0
LINE
8
Black
10
128.64
20
-99.6108
11
128.614
21
-99.6108
0
LINE
8
Black
10
128.614
20
-99.6108
11
128.59
21
-99.6019
0
LINE
8
Black
10
128.59
20
-99.6019
11
128.57
21
-99.5851
0
LINE
8
Black
10
128.57
20
-99.5851
11
128.557
21
-99.5626
0
LINE
8
Black
10
128.557
20
-99.5626
11
128.552
21
-99.5369
0
LINE
8
Black
10
128.552
20
-99.5369
11
128.552
21
-99.5272
0
LINE
8
Black
10
128.552
20
-99.5272
11
128.477
21
-99.5933
0
LINE
8
Black
10
128.477
20
-99.5933
11
128.47
21
-99.5971
0
LINE
8
Black
10
128.47
20
-99.5971
11
128.465
21
-99.6019
0
LINE
8
Black
10
128.465
20
-99.6019
11
128.459
21
-99.6038
0
LINE
8
Black
10
128.459
20
-99.6038
11
128.454
21
-99.6068
0
LINE
8
Black
10
128.454
20
-99.6068
11
128.447
21
-99.6083
0
LINE
8
Black
10
128.447
20
-99.6083
11
128.44
21
-99.6108
0
LINE
8
Black
10
128.44
20
-99.6108
11
128.435
21
-99.6108
0
LINE
8
Black
10
128.435
20
-99.6108
11
128.429
21
-99.6119
0
LINE
8
Black
10
128.429
20
-99.6119
11
128.422
21
-99.6108
0
LINE
8
Black
10
128.422
20
-99.6108
11
128.414
21
-99.6108
0
LINE
8
Black
10
128.414
20
-99.6108
11
128.409
21
-99.6088
0
LINE
8
Black
10
128.409
20
-99.6088
11
128.403
21
-99.6079
0
LINE
8
Black
10
128.403
20
-99.6079
11
128.397
21
-99.6044
0
LINE
8
Black
10
128.397
20
-99.6044
11
128.39
21
-99.6019
0
LINE
8
Black
10
128.39
20
-99.6019
11
128.385
21
-99.5981
0
LINE
8
Black
10
128.385
20
-99.5981
11
128.38
21
-99.5953
0
LINE
8
Black
10
128.38
20
-99.5953
11
128.376
21
-99.5898
0
LINE
8
Black
10
128.376
20
-99.5898
11
128.37
21
-99.5851
0
LINE
8
Black
10
128.37
20
-99.5851
11
128.367
21
-99.5801
0
LINE
8
Black
10
128.367
20
-99.5801
11
128.363
21
-99.5757
0
LINE
8
Black
10
128.363
20
-99.5757
11
128.361
21
-99.5689
0
LINE
8
Black
10
128.361
20
-99.5689
11
128.357
21
-99.5626
0
LINE
8
Black
10
128.357
20
-99.5626
11
128.356
21
-99.5569
0
LINE
8
Black
10
128.356
20
-99.5569
11
128.354
21
-99.5515
0
LINE
8
Black
10
128.354
20
-99.5515
11
128.354
21
-99.5441
0
LINE
8
Black
10
128.354
20
-99.5441
11
128.352
21
-99.5369
0
LINE
8
Black
10
128.352
20
-99.5369
11
128.352
21
-99.2989
0
LINE
8
Black
10
128.352
20
-99.2989
11
128.109
21
-99.5423
0
LINE
8
Black
10
128.109
20
-99.5423
11
128.105
21
-99.5448
0
LINE
8
Black
10
128.105
20
-99.5448
11
128.103
21
-99.548
0
LINE
8
Black
10
128.103
20
-99.548
11
128.095
21
-99.5522
0
LINE
8
Black
10
128.095
20
-99.5522
11
128.088
21
-99.5573
0
LINE
8
Black
10
128.088
20
-99.5573
11
128.083
21
-99.5584
0
LINE
8
Black
10
128.083
20
-99.5584
11
128.08
21
-99.5604
0
LINE
8
Black
10
128.08
20
-99.5604
11
127.937
21
-99.6081
0
LINE
8
Black
10
127.937
20
-99.6081
11
127.925
21
-99.6098
0
LINE
8
Black
10
127.925
20
-99.6098
11
127.913
21
-99.6119
0
LINE
8
Black
10
127.913
20
-99.6119
11
127.818
21
-99.6119
0
LINE
8
Black
10
127.818
20
-99.6119
11
127.814
21
-99.6112
0
LINE
8
Black
10
127.814
20
-99.6112
11
127.809
21
-99.6114
0
LINE
8
Black
10
127.809
20
-99.6114
11
127.801
21
-99.6089
0
LINE
8
Black
10
127.801
20
-99.6089
11
127.792
21
-99.6074
0
LINE
8
Black
10
127.792
20
-99.6074
11
127.788
21
-99.6052
0
LINE
8
Black
10
127.788
20
-99.6052
11
127.784
21
-99.604
0
LINE
8
Black
10
127.784
20
-99.604
11
127.689
21
-99.5564
0
LINE
8
Black
10
127.689
20
-99.5564
11
127.679
21
-99.5492
0
LINE
8
Black
10
127.679
20
-99.5492
11
127.67
21
-99.5423
0
LINE
8
Black
10
127.67
20
-99.5423
11
127.622
21
-99.4947
0
LINE
8
Black
10
127.622
20
-99.4947
11
127.615
21
-99.4849
0
LINE
8
Black
10
127.615
20
-99.4849
11
127.608
21
-99.4752
0
LINE
8
Black
10
127.608
20
-99.4752
11
127.56
21
-99.38
0
LINE
8
Black
10
127.56
20
-99.38
11
127.559
21
-99.3758
0
LINE
8
Black
10
127.559
20
-99.3758
11
127.557
21
-99.3721
0
LINE
8
Black
10
127.557
20
-99.3721
11
127.555
21
-99.3634
0
LINE
8
Black
10
127.555
20
-99.3634
11
127.553
21
-99.355
0
LINE
8
Black
10
127.553
20
-99.355
11
127.553
21
-99.3507
0
LINE
8
Black
10
127.553
20
-99.3507
11
127.552
21
-99.3464
0
LINE
8
Black
10
127.552
20
-99.3464
11
127.552
21
-99.1083
0
LINE
8
Black
10
127.552
20
-99.1083
11
127.553
21
-99.1041
0
LINE
8
Black
10
127.553
20
-99.1041
11
127.553
21
-99.0998
0
LINE
8
Black
10
127.553
20
-99.0998
11
127.555
21
-99.0913
0
LINE
8
Black
10
127.555
20
-99.0913
11
127.557
21
-99.0827
0
LINE
8
Black
10
127.557
20
-99.0827
11
127.559
21
-99.0789
0
LINE
8
Black
10
127.559
20
-99.0789
11
127.56
21
-99.0748
0
LINE
8
Black
10
127.56
20
-99.0748
11
127.608
21
-98.9796
0
LINE
8
Black
10
127.608
20
-98.9796
11
127.615
21
-98.9699
0
LINE
8
Black
10
127.615
20
-98.9699
11
127.622
21
-98.9601
0
LINE
8
Black
10
127.622
20
-98.9601
11
127.67
21
-98.9124
0
LINE
8
Black
10
127.67
20
-98.9124
11
127.691
21
-98.8975
0
LINE
8
Black
10
127.691
20
-98.8975
11
127.716
21
-98.8908
0
LINE
8
Black
10
127.716
20
-98.8908
11
127.742
21
-98.893
0
LINE
8
Black
10
127.742
20
-98.893
11
127.766
21
-98.904
0
LINE
8
Black
10
127.766
20
-98.904
11
127.784
21
-98.9225
0
LINE
8
Black
10
127.784
20
-98.9225
11
127.795
21
-98.9461
0
LINE
8
Black
10
127.795
20
-98.9461
11
127.797
21
-98.972
0
LINE
8
Black
10
127.797
20
-98.972
11
127.791
21
-98.9972
0
LINE
8
Black
10
127.791
20
-98.9972
11
127.776
21
-99.0185
0
LINE
8
Black
10
127.776
20
-99.0185
11
127.737
21
-99.0575
0
LINE
8
Black
10
127.737
20
-99.0575
11
127.702
21
-99.126
0
LINE
8
Black
10
127.702
20
-99.126
11
127.702
21
-99.3287
0
LINE
8
Black
10
127.702
20
-99.3287
11
127.737
21
-99.3972
0
LINE
8
Black
10
127.737
20
-99.3972
11
127.767
21
-99.4276
0
LINE
8
Black
10
127.767
20
-99.4276
11
127.836
21
-99.4619
0
LINE
8
Black
10
127.836
20
-99.4619
11
127.901
21
-99.4619
0
LINE
8
Black
10
127.901
20
-99.4619
11
128.015
21
-99.4237
0
LINE
8
Black
10
128.015
20
-99.4237
11
128.352
21
-99.0868
0
LINE
8
Black
10
128.352
20
-99.0868
11
128.352
21
-98.9179
0
LINE
8
Black
10
128.352
20
-98.9179
11
128.357
21
-98.8922
0
LINE
8
Black
10
128.357
20
-98.8922
11
128.37
21
-98.8696
0
LINE
8
Black
10
128.37
20
-98.8696
11
128.39
21
-98.8529
0
LINE
8
Black
10
128.39
20
-98.8529
11
128.414
21
-98.844
0
LINE
8
Black
10
128.414
20
-98.844
11
128.44
21
-98.844
0
LINE
8
Black
10
128.44
20
-98.844
11
128.465
21
-98.8529
0
LINE
8
Black
10
128.465
20
-98.8529
11
128.485
21
-98.8696
0
LINE
8
Black
10
128.485
20
-98.8696
11
128.498
21
-98.8922
0
LINE
8
Black
10
128.498
20
-98.8922
11
128.502
21
-98.9179
0
LINE
8
Black
10
128.502
20
-98.9179
11
128.502
21
-98.9368
0
LINE
8
Black
10
128.502
20
-98.9368
11
128.574
21
-98.8648
0
LINE
8
Black
10
128.574
20
-98.8648
11
128.582
21
-98.8592
0
LINE
8
Black
10
128.582
20
-98.8592
11
128.59
21
-98.8529
0
LINE
8
Black
10
128.59
20
-98.8529
11
128.593
21
-98.8518
0
LINE
8
Black
10
128.593
20
-98.8518
11
128.596
21
-98.8499
0
LINE
8
Black
10
128.596
20
-98.8499
11
128.605
21
-98.8473
0
LINE
8
Black
10
128.605
20
-98.8473
11
128.614
21
-98.844
0
LINE
8
Black
10
128.614
20
-98.844
11
128.618
21
-98.844
0
LINE
8
Black
10
128.618
20
-98.844
11
128.621
21
-98.8431
0
LINE
8
Black
10
128.621
20
-98.8431
11
128.631
21
-98.844
0
LINE
8
Black
10
128.631
20
-98.844
11
128.64
21
-98.844
0
LINE
8
Black
10
128.64
20
-98.844
11
128.644
21
-98.8451
0
LINE
8
Black
10
128.644
20
-98.8451
11
128.647
21
-98.8454
0
LINE
8
Black
10
128.647
20
-98.8454
11
128.656
21
-98.8496
0
LINE
8
Black
10
128.656
20
-98.8496
11
128.665
21
-98.8529
0
LINE
8
Black
10
128.665
20
-98.8529
11
128.667
21
-98.855
0
LINE
8
Black
10
128.667
20
-98.855
11
128.67
21
-98.8564
0
LINE
8
Black
10
128.67
20
-98.8564
11
128.677
21
-98.8634
0
LINE
8
Black
10
128.677
20
-98.8634
11
128.685
21
-98.8696
0
LINE
8
Black
10
128.685
20
-98.8696
11
128.686
21
-98.8725
0
LINE
8
Black
10
128.686
20
-98.8725
11
128.689
21
-98.8748
0
LINE
8
Black
10
128.689
20
-98.8748
11
128.693
21
-98.8837
0
LINE
8
Black
10
128.693
20
-98.8837
11
128.698
21
-98.8922
0
LINE
8
Black
10
128.698
20
-98.8922
11
128.698
21
-98.8955
0
LINE
8
Black
10
128.698
20
-98.8955
11
128.7
21
-98.8984
0
LINE
8
Black
10
128.7
20
-98.8984
11
128.701
21
-98.9082
0
LINE
8
Black
10
128.701
20
-98.9082
11
128.702
21
-98.9179
0
LINE
8
Black
10
128.702
20
-98.9179
11
128.702
21
-98.9394
0
LINE
8
Black
10
128.702
20
-98.9394
11
128.784
21
-98.8984
0
LINE
8
Black
10
128.784
20
-98.8984
11
128.788
21
-98.8972
0
LINE
8
Black
10
128.788
20
-98.8972
11
128.792
21
-98.895
0
LINE
8
Black
10
128.792
20
-98.895
11
128.801
21
-98.8935
0
LINE
8
Black
10
128.801
20
-98.8935
11
128.809
21
-98.891
0
LINE
8
Black
10
128.809
20
-98.891
11
128.814
21
-98.8912
0
LINE
8
Black
10
128.814
20
-98.8912
11
128.818
21
-98.8905
0
LINE
8
Black
10
128.818
20
-98.8905
11
129.056
21
-98.8905
0
LINE
8
Black
10
129.056
20
-98.8905
11
129.06
21
-98.8912
0
LINE
8
Black
10
129.06
20
-98.8912
11
129.065
21
-98.891
0
LINE
8
Black
10
129.065
20
-98.891
11
129.073
21
-98.8935
0
LINE
8
Black
10
129.073
20
-98.8935
11
129.082
21
-98.895
0
LINE
8
Black
10
129.082
20
-98.895
11
129.085
21
-98.8972
0
LINE
8
Black
10
129.085
20
-98.8972
11
129.089
21
-98.8984
0
LINE
8
Black
10
129.089
20
-98.8984
11
129.185
21
-98.946
0
LINE
8
Black
10
129.185
20
-98.946
11
129.194
21
-98.9532
0
LINE
8
Black
10
129.194
20
-98.9532
11
129.204
21
-98.9601
0
LINE
8
Black
10
129.204
20
-98.9601
11
129.252
21
-99.0077
0
LINE
8
Black
10
129.252
20
-99.0077
11
129.259
21
-99.0175
0
LINE
8
Black
10
129.259
20
-99.0175
11
129.266
21
-99.0272
0
LINE
8
Black
10
129.266
20
-99.0272
11
129.314
21
-99.1224
0
LINE
8
Black
10
129.314
20
-99.1224
11
129.315
21
-99.1266
0
LINE
8
Black
10
129.315
20
-99.1266
11
129.317
21
-99.1303
0
LINE
8
Black
10
129.317
20
-99.1303
11
129.318
21
-99.139
0
LINE
8
Black
10
129.318
20
-99.139
11
129.321
21
-99.1474
0
LINE
8
Black
10
129.321
20
-99.1474
11
129.321
21
-99.1517
0
LINE
8
Black
10
129.321
20
-99.1517
11
129.321
21
-99.156
0
LINE
8
Black
10
129.321
20
-99.156
11
129.321
21
-99.3464
0
LINE
8
Black
10
129.321
20
-99.3464
11
129.321
21
-99.3507
0
LINE
8
Black
10
129.321
20
-99.3507
11
129.321
21
-99.355
0
LINE
8
Black
10
129.321
20
-99.355
11
129.318
21
-99.3634
0
LINE
8
Black
10
129.318
20
-99.3634
11
129.317
21
-99.3721
0
LINE
8
Black
10
129.317
20
-99.3721
11
129.315
21
-99.3758
0
LINE
8
Black
10
129.315
20
-99.3758
11
129.314
21
-99.38
0
LINE
8
Black
10
129.314
20
-99.38
11
129.292
21
-99.4237
0
LINE
8
Black
10
129.292
20
-99.4237
11
129.318
21
-99.3972
0
LINE
8
Black
10
129.318
20
-99.3972
11
129.352
21
-99.3287
0
LINE
8
Black
10
129.352
20
-99.3287
11
129.352
21
-99.0784
0
LINE
8
Black
10
129.352
20
-99.0784
11
129.318
21
-99.0099
0
LINE
8
Black
10
129.318
20
-99.0099
11
129.279
21
-98.9709
0
LINE
8
Black
10
129.279
20
-98.9709
11
129.264
21
-98.9496
0
LINE
8
Black
10
129.264
20
-98.9496
11
129.257
21
-98.9244
0
LINE
8
Black
10
129.257
20
-98.9244
11
129.26
21
-98.8984
0
LINE
8
Black
10
129.26
20
-98.8984
11
129.271
21
-98.8748
0
LINE
8
Black
10
129.271
20
-98.8748
11
129.289
21
-98.8564
0
LINE
8
Black
10
129.289
20
-98.8564
11
129.313
21
-98.8454
0
LINE
8
Black
10
129.313
20
-98.8454
11
129.339
21
-98.8431
0
LINE
8
Black
10
129.339
20
-98.8431
11
129.364
21
-98.8499
0
LINE
8
Black
10
129.364
20
-98.8499
11
129.385
21
-98.8648
0
LINE
8
Black
10
129.385
20
-98.8648
11
129.433
21
-98.9124
0
LINE
8
Black
10
129.433
20
-98.9124
11
129.44
21
-98.9223
0
LINE
8
Black
10
129.44
20
-98.9223
11
129.447
21
-98.9319
0
LINE
8
Black
10
129.447
20
-98.9319
11
129.481
21
-98.9998
0
LINE
8
Black
10
129.481
20
-98.9998
11
129.489
21
-98.9936
0
LINE
8
Black
10
129.489
20
-98.9936
11
129.584
21
-98.946
0
LINE
8
Black
10
129.584
20
-98.946
11
129.592
21
-98.9437
0
LINE
8
Black
10
129.592
20
-98.9437
11
129.6
21
-98.9403
0
LINE
8
Black
10
129.6
20
-98.9403
11
129.79
21
-98.8927
0
LINE
8
Black
10
129.79
20
-98.8927
11
129.799
21
-98.8921
0
LINE
8
Black
10
129.799
20
-98.8921
11
129.808
21
-98.8905
0
LINE
8
Black
10
129.808
20
-98.8905
11
130.046
21
-98.8905
0
LINE
8
Black
10
130.046
20
-98.8905
11
130.055
21
-98.8921
0
LINE
8
Black
10
130.055
20
-98.8921
11
130.065
21
-98.8927
0
LINE
8
Black
10
130.065
20
-98.8927
11
130.255
21
-98.9403
0
LINE
8
Black
10
130.255
20
-98.9403
11
130.263
21
-98.9437
0
LINE
8
Black
10
130.263
20
-98.9437
11
130.27
21
-98.946
0
LINE
8
Black
10
130.27
20
-98.946
11
130.366
21
-98.9936
0
LINE
8
Black
10
130.366
20
-98.9936
11
130.375
21
-99.0008
0
LINE
8
Black
10
130.375
20
-99.0008
11
130.385
21
-99.0077
0
LINE
8
Black
10
130.385
20
-99.0077
11
130.399
21
-99.0213
0
LINE
8
Black
10
130.399
20
-99.0213
11
130.404
21
-99.0163
0
LINE
8
Black
10
130.404
20
-99.0163
11
130.446
21
-98.9319
0
LINE
8
Black
10
130.446
20
-98.9319
11
130.462
21
-98.911
0
LINE
8
Black
10
130.462
20
-98.911
11
130.483
21
-98.8967
0
LINE
8
Black
10
130.483
20
-98.8967
11
130.509
21
-98.8906
0
LINE
8
Black
10
130.509
20
-98.8906
11
130.534
21
-98.8936
0
LINE
8
Black
10
130.534
20
-98.8936
11
130.558
21
-98.9052
0
LINE
8
Black
10
130.558
20
-98.9052
11
130.576
21
-98.9242
0
LINE
8
Black
10
130.576
20
-98.9242
11
130.586
21
-98.9481
0
LINE
8
Black
10
130.586
20
-98.9481
11
130.588
21
-98.9741
0
LINE
8
Black
10
130.588
20
-98.9741
11
130.58
21
-98.999
0
LINE
8
Black
10
130.58
20
-98.999
11
130.533
21
-99.0943
0
LINE
8
Black
10
130.533
20
-99.0943
11
130.525
21
-99.1039
0
LINE
8
Black
10
130.525
20
-99.1039
11
130.519
21
-99.1137
0
LINE
8
Black
10
130.519
20
-99.1137
11
130.484
21
-99.1485
0
LINE
8
Black
10
130.484
20
-99.1485
11
130.494
21
-99.17
0
LINE
8
Black
10
130.494
20
-99.17
11
130.496
21
-99.1742
0
LINE
8
Black
10
130.496
20
-99.1742
11
130.497
21
-99.1762
0
LINE
8
Black
10
130.497
20
-99.1762
11
131.152
21
-99.1762
0
LINE
8
Black
10
131.152
20
-99.1762
11
131.152
21
-98.9655
0
LINE
8
Black
10
131.152
20
-98.9655
11
131.157
21
-98.9398
0
LINE
8
Black
10
131.157
20
-98.9398
11
131.17
21
-98.9173
0
LINE
8
Black
10
131.17
20
-98.9173
11
131.19
21
-98.9005
0
LINE
8
Black
10
131.19
20
-98.9005
11
131.214
21
-98.8916
0
LINE
8
Black
10
131.214
20
-98.8916
11
131.24
21
-98.8916
0
LINE
8
Black
10
131.24
20
-98.8916
11
131.265
21
-98.9005
0
LINE
8
Black
10
131.265
20
-98.9005
11
131.285
21
-98.9173
0
LINE
8
Black
10
131.285
20
-98.9173
11
131.298
21
-98.9398
0
LINE
8
Black
10
131.298
20
-98.9398
11
131.302
21
-98.9655
0
LINE
8
Black
10
131.302
20
-98.9655
11
131.302
21
-99.5369
0
LINE
8
Black
10
131.302
20
-99.5369
11
131.298
21
-99.5626
0
LINE
8
Black
10
131.298
20
-99.5626
11
131.285
21
-99.5851
0
LINE
8
Black
10
131.285
20
-99.5851
11
131.265
21
-99.6019
0
LINE
8
Black
10
131.265
20
-99.6019
11
131.24
21
-99.6108
0
LINE
8
Black
10
131.24
20
-99.6108
11
131.214
21
-99.6108
0
LINE
8
Black
10
131.214
20
-99.6108
11
131.19
21
-99.6019
0
LINE
8
Black
10
131.19
20
-99.6019
11
131.17
21
-99.5851
0
LINE
8
Black
10
131.17
20
-99.5851
11
131.157
21
-99.5626
0
LINE
8
Black
10
131.157
20
-99.5626
11
131.152
21
-99.5369
0
LINE
8
Black
10
131.152
20
-99.5369
11
131.152
21
-99.3262
0
LINE
8
Black
10
131.152
20
-99.3262
11
130.497
21
-99.3262
0
LINE
8
Black
10
130.497
20
-99.3262
11
130.496
21
-99.3282
0
LINE
8
Black
10
130.496
20
-99.3282
11
130.494
21
-99.3324
0
LINE
8
Black
10
130.494
20
-99.3324
11
130.447
21
-99.4276
0
LINE
8
Black
10
130.447
20
-99.4276
11
130.44
21
-99.4372
0
LINE
8
Black
10
130.44
20
-99.4372
11
130.433
21
-99.4471
0
LINE
8
Black
10
130.433
20
-99.4471
11
130.385
21
-99.4947
0
LINE
8
Black
10
130.385
20
-99.4947
11
130.375
21
-99.5016
0
LINE
8
Black
10
130.375
20
-99.5016
11
130.366
21
-99.5087
0
LINE
8
Black
10
130.366
20
-99.5087
11
130.27
21
-99.5564
0
LINE
8
Black
10
130.27
20
-99.5564
11
130.263
21
-99.5587
0
LINE
8
Black
10
130.263
20
-99.5587
11
130.255
21
-99.562
0
LINE
8
Black
10
130.255
20
-99.562
11
130.065
21
-99.6097
0
LINE
8
Black
10
130.065
20
-99.6097
11
130.055
21
-99.6103
0
LINE
8
Black
10
130.055
20
-99.6103
11
130.046
21
-99.6119
0
LINE
8
Black
10
130.046
20
-99.6119
11
129.808
21
-99.6119
0
LINE
8
Black
10
129.808
20
-99.6119
11
129.799
21
-99.6103
0
LINE
8
Black
10
129.799
20
-99.6103
11
129.79
21
-99.6097
0
LINE
8
Black
10
129.79
20
-99.6097
11
129.6
21
-99.562
0
LINE
8
Black
10
129.6
20
-99.562
11
129.592
21
-99.5587
0
LINE
8
Black
10
129.592
20
-99.5587
11
129.584
21
-99.5564
0
LINE
8
Black
10
129.584
20
-99.5564
11
129.493
21
-99.5105
0
LINE
8
Black
10
129.493
20
-99.5105
11
129.431
21
-99.5517
0
LINE
8
Black
10
129.431
20
-99.5517
11
129.419
21
-99.5569
0
LINE
8
Black
10
129.419
20
-99.5569
11
129.407
21
-99.562
0
LINE
8
Black
10
129.407
20
-99.562
11
129.301
21
-99.5886
0
LINE
8
Black
10
129.301
20
-99.5886
11
129.27
21
-99.604
0
LINE
8
Black
10
129.27
20
-99.604
11
129.266
21
-99.6052
0
LINE
8
Black
10
129.266
20
-99.6052
11
129.263
21
-99.6074
0
LINE
8
Black
10
129.263
20
-99.6074
11
129.254
21
-99.6089
0
LINE
8
Black
10
129.254
20
-99.6089
11
129.245
21
-99.6114
0
LINE
8
Black
10
129.245
20
-99.6114
11
129.241
21
-99.6112
0
LINE
8
Black
10
129.241
20
-99.6112
11
129.237
21
-99.6119
0
LINE
8
Black
10
129.237
20
-99.6119
11
129.199
21
-99.6119
0
LINE
8
Black
10
129.199
20
-99.6119
11
128.999
21
-99.6119
0
LINE
8
Black
10
128.999
20
-99.6119
11
128.818
21
-99.6119
0
LINE
8
Black
10
128.818
20
-99.6119
11
128.814
21
-99.6112
0
LINE
8
Black
10
129.818
20
-99.0405
11
129.702
21
-99.0693
0
LINE
8
Black
10
129.702
20
-99.0693
11
129.702
21
-99.2512
0
LINE
8
Black
10
129.702
20
-99.2512
11
129.702
21
-99.2554
0
LINE
8
Black
10
129.702
20
-99.2554
11
129.702
21
-99.2598
0
LINE
8
Black
10
129.702
20
-99.2598
11
129.699
21
-99.2682
0
LINE
8
Black
10
129.699
20
-99.2682
11
129.698
21
-99.2768
0
LINE
8
Black
10
129.698
20
-99.2768
11
129.696
21
-99.2806
0
LINE
8
Black
10
129.696
20
-99.2806
11
129.694
21
-99.2847
0
LINE
8
Black
10
129.694
20
-99.2847
11
129.647
21
-99.38
0
LINE
8
Black
10
129.647
20
-99.38
11
129.64
21
-99.3896
0
LINE
8
Black
10
129.64
20
-99.3896
11
129.633
21
-99.3995
0
LINE
8
Black
10
129.633
20
-99.3995
11
129.624
21
-99.4084
0
LINE
8
Black
10
129.624
20
-99.4084
11
129.644
21
-99.4185
0
LINE
8
Black
10
129.644
20
-99.4185
11
129.818
21
-99.4619
0
LINE
8
Black
10
129.818
20
-99.4619
11
130.037
21
-99.4619
0
LINE
8
Black
10
130.037
20
-99.4619
11
130.211
21
-99.4185
0
LINE
8
Black
10
130.211
20
-99.4185
11
130.288
21
-99.38
0
LINE
8
Black
10
130.288
20
-99.38
11
130.318
21
-99.3496
0
LINE
8
Black
10
130.318
20
-99.3496
11
130.33
21
-99.3262
0
LINE
8
Black
10
130.33
20
-99.3262
11
130.227
21
-99.3262
0
LINE
8
Black
10
130.227
20
-99.3262
11
130.223
21
-99.3255
0
LINE
8
Black
10
130.223
20
-99.3255
11
130.219
21
-99.3257
0
LINE
8
Black
10
130.219
20
-99.3257
11
130.211
21
-99.3232
0
LINE
8
Black
10
130.211
20
-99.3232
11
130.202
21
-99.3217
0
LINE
8
Black
10
130.202
20
-99.3217
11
130.198
21
-99.3196
0
LINE
8
Black
10
130.198
20
-99.3196
11
130.194
21
-99.3184
0
LINE
8
Black
10
130.194
20
-99.3184
11
130.187
21
-99.3131
0
LINE
8
Black
10
130.187
20
-99.3131
11
130.179
21
-99.3086
0
LINE
8
Black
10
130.179
20
-99.3086
11
130.177
21
-99.3055
0
LINE
8
Black
10
130.177
20
-99.3055
11
130.173
21
-99.303
0
LINE
8
Black
10
130.173
20
-99.303
11
130.168
21
-99.2955
0
LINE
8
Black
10
130.168
20
-99.2955
11
130.162
21
-99.2887
0
LINE
8
Black
10
130.162
20
-99.2887
11
130.161
21
-99.2848
0
LINE
8
Black
10
130.161
20
-99.2848
11
130.159
21
-99.2813
0
LINE
8
Black
10
130.159
20
-99.2813
11
130.157
21
-99.2726
0
LINE
8
Black
10
130.157
20
-99.2726
11
130.154
21
-99.2642
0
LINE
8
Black
10
130.154
20
-99.2642
11
130.154
21
-99.2601
0
LINE
8
Black
10
130.154
20
-99.2601
11
130.153
21
-99.256
0
LINE
8
Black
10
130.153
20
-99.256
11
130.154
21
-99.2471
0
LINE
8
Black
10
130.154
20
-99.2471
11
130.154
21
-99.2382
0
LINE
8
Black
10
130.154
20
-99.2382
11
130.155
21
-99.2343
0
LINE
8
Black
10
130.155
20
-99.2343
11
130.155
21
-99.2301
0
LINE
8
Black
10
130.155
20
-99.2301
11
130.159
21
-99.2221
0
LINE
8
Black
10
130.159
20
-99.2221
11
130.162
21
-99.2137
0
LINE
8
Black
10
130.162
20
-99.2137
11
130.165
21
-99.2105
0
LINE
8
Black
10
130.165
20
-99.2105
11
130.167
21
-99.2068
0
LINE
8
Black
10
130.167
20
-99.2068
11
130.173
21
-99.2006
0
LINE
8
Black
10
130.173
20
-99.2006
11
130.179
21
-99.1937
0
LINE
8
Black
10
130.179
20
-99.1937
11
130.183
21
-99.1917
0
LINE
8
Black
10
130.183
20
-99.1917
11
130.186
21
-99.1888
0
LINE
8
Black
10
130.186
20
-99.1888
11
130.286
21
-99.1217
0
LINE
8
Black
10
130.286
20
-99.1217
11
130.211
21
-99.0839
0
LINE
8
Black
10
130.211
20
-99.0839
11
130.037
21
-99.0405
0
LINE
8
Black
10
130.037
20
-99.0405
11
129.818
21
-99.0405
0
LINE
8
Black
10
128.836
20
-99.0405
11
128.767
21
-99.0747
0
LINE
8
Black
10
128.767
20
-99.0747
11
128.737
21
-99.1051
0
LINE
8
Black
10
128.737
20
-99.1051
11
128.702
21
-99.1737
0
LINE
8
Black
10
128.702
20
-99.1737
11
128.702
21
-99.1966
0
LINE
8
Black
10
128.702
20
-99.1966
11
128.759
21
-99.1471
0
LINE
8
Black
10
128.759
20
-99.1471
11
128.765
21
-99.1433
0
LINE
8
Black
10
128.765
20
-99.1433
11
128.771
21
-99.1386
0
LINE
8
Black
10
128.771
20
-99.1386
11
128.776
21
-99.1366
0
LINE
8
Black
10
128.776
20
-99.1366
11
128.781
21
-99.1336
0
LINE
8
Black
10
128.781
20
-99.1336
11
128.788
21
-99.1322
0
LINE
8
Black
10
128.788
20
-99.1322
11
128.795
21
-99.1297
0
LINE
8
Black
10
128.795
20
-99.1297
11
128.801
21
-99.1297
0
LINE
8
Black
10
128.801
20
-99.1297
11
128.807
21
-99.1286
0
LINE
8
Black
10
128.807
20
-99.1286
11
128.814
21
-99.1297
0
LINE
8
Black
10
128.814
20
-99.1297
11
128.821
21
-99.1297
0
LINE
8
Black
10
128.821
20
-99.1297
11
128.827
21
-99.1317
0
LINE
8
Black
10
128.827
20
-99.1317
11
128.833
21
-99.1326
0
LINE
8
Black
10
128.833
20
-99.1326
11
128.839
21
-99.1361
0
LINE
8
Black
10
128.839
20
-99.1361
11
128.846
21
-99.1386
0
LINE
8
Black
10
128.846
20
-99.1386
11
128.85
21
-99.1423
0
LINE
8
Black
10
128.85
20
-99.1423
11
128.855
21
-99.1451
0
LINE
8
Black
10
128.855
20
-99.1451
11
128.86
21
-99.1507
0
LINE
8
Black
10
128.86
20
-99.1507
11
128.866
21
-99.1554
0
LINE
8
Black
10
128.866
20
-99.1554
11
128.869
21
-99.1604
0
LINE
8
Black
10
128.869
20
-99.1604
11
128.872
21
-99.1647
0
LINE
8
Black
10
128.872
20
-99.1647
11
128.875
21
-99.1716
0
LINE
8
Black
10
128.875
20
-99.1716
11
128.879
21
-99.1779
0
LINE
8
Black
10
128.879
20
-99.1779
11
128.88
21
-99.1836
0
LINE
8
Black
10
128.88
20
-99.1836
11
128.882
21
-99.189
0
LINE
8
Black
10
128.882
20
-99.189
11
128.882
21
-99.1964
0
LINE
8
Black
10
128.882
20
-99.1964
11
128.883
21
-99.2036
0
LINE
8
Black
10
128.883
20
-99.2036
11
128.883
21
-99.3287
0
LINE
8
Black
10
128.883
20
-99.3287
11
128.918
21
-99.3972
0
LINE
8
Black
10
128.918
20
-99.3972
11
128.948
21
-99.4276
0
LINE
8
Black
10
128.948
20
-99.4276
11
129.017
21
-99.4619
0
LINE
8
Black
10
129.017
20
-99.4619
11
129.038
21
-99.4619
0
LINE
8
Black
10
129.038
20
-99.4619
11
129.107
21
-99.4276
0
LINE
8
Black
10
129.107
20
-99.4276
11
129.137
21
-99.3972
0
LINE
8
Black
10
129.137
20
-99.3972
11
129.171
21
-99.3287
0
LINE
8
Black
10
129.171
20
-99.3287
11
129.171
21
-99.1737
0
LINE
8
Black
10
129.171
20
-99.1737
11
129.137
21
-99.1051
0
LINE
8
Black
10
129.137
20
-99.1051
11
129.107
21
-99.0747
0
LINE
8
Black
10
129.107
20
-99.0747
11
129.038
21
-99.0405
0
LINE
8
Black
10
129.038
20
-99.0405
11
128.836
21
-99.0405
0
LINE
8
Black
10
128.726
20
-99.3755
11
128.737
21
-99.3972
0
LINE
8
Black
10
128.737
20
-99.3972
11
128.763
21
-99.4237
0
LINE
8
Black
10
128.763
20
-99.4237
11
128.741
21
-99.38
0
LINE
8
Black
10
128.741
20
-99.38
11
128.74
21
-99.3758
0
LINE
8
Black
10
128.74
20
-99.3758
11
128.738
21
-99.3721
0
LINE
8
Black
10
128.738
20
-99.3721
11
128.737
21
-99.3659
0
LINE
8
Black
10
128.737
20
-99.3659
11
128.726
21
-99.3755
0
LINE
8
Black
10
128.502
20
-99.1489
11
128.502
21
-99.3716
0
LINE
8
Black
10
128.502
20
-99.3716
11
128.552
21
-99.3279
0
LINE
8
Black
10
128.552
20
-99.3279
11
128.552
21
-99.0989
0
LINE
8
Black
10
128.552
20
-99.0989
11
128.502
21
-99.1489
0
LINE
8
Black
10
129.537
20
-99.1528
11
129.502
21
-99.2213
0
LINE
8
Black
10
129.502
20
-99.2213
11
129.502
21
-99.2811
0
LINE
8
Black
10
129.502
20
-99.2811
11
129.515
21
-99.3055
0
LINE
8
Black
10
129.515
20
-99.3055
11
129.518
21
-99.302
0
LINE
8
Black
10
129.518
20
-99.302
11
129.552
21
-99.2335
0
LINE
8
Black
10
129.552
20
-99.2335
11
129.552
21
-99.137
0
LINE
8
Black
10
129.552
20
-99.137
11
129.537
21
-99.1528
0
LINE
8
Black
10
127.037
20
-97.96
11
127.057
21
-97.9768
0
LINE
8
Black
10
127.057
20
-97.9768
11
127.07
21
-97.9993
0
LINE
8
Black
10
127.07
20
-97.9993
11
127.075
21
-98.025
0
LINE
8
Black
10
127.075
20
-98.025
11
127.075
21
-98.525
0
LINE
8
Black
10
127.075
20
-98.525
11
127.07
21
-98.5507
0
LINE
8
Black
10
127.07
20
-98.5507
11
127.057
21
-98.5732
0
LINE
8
Black
10
127.057
20
-98.5732
11
127.037
21
-98.59
0
LINE
8
Black
10
127.037
20
-98.59
11
127.013
21
-98.5989
0
LINE
8
Black
10
127.013
20
-98.5989
11
126.987
21
-98.5989
0
LINE
8
Black
10
126.987
20
-98.5989
11
126.962
21
-98.59
0
LINE
8
Black
10
126.962
20
-98.59
11
126.943
21
-98.5732
0
LINE
8
Black
10
126.943
20
-98.5732
11
126.93
21
-98.5507
0
LINE
8
Black
10
126.93
20
-98.5507
11
126.925
21
-98.525
0
LINE
8
Black
10
126.925
20
-98.525
11
126.925
21
-98.025
0
LINE
8
Black
10
126.925
20
-98.025
11
126.93
21
-97.9993
0
LINE
8
Black
10
126.93
20
-97.9993
11
126.943
21
-97.9768
0
LINE
8
Black
10
126.943
20
-97.9768
11
126.962
21
-97.96
0
LINE
8
Black
10
126.962
20
-97.96
11
126.987
21
-97.9511
0
LINE
8
Black
10
126.987
20
-97.9511
11
127.013
21
-97.9511
0
LINE
8
Black
10
127.013
20
-97.9511
11
127.037
21
-97.96
0
LINE
8
Black
10
76.6578
20
-98.3904
11
76.6204
21
-98.4219
0
LINE
8
Black
10
76.6204
20
-98.4219
11
76.5744
21
-98.4386
0
LINE
8
Black
10
76.5744
20
-98.4386
11
76.5256
21
-98.4386
0
LINE
8
Black
10
76.5256
20
-98.4386
11
76.4796
21
-98.4219
0
LINE
8
Black
10
76.4796
20
-98.4219
11
76.4422
21
-98.3904
0
LINE
8
Black
10
76.4422
20
-98.3904
11
76.4178
21
-98.3481
0
LINE
8
Black
10
76.4178
20
-98.3481
11
76.4093
21
-98.3
0
LINE
8
Black
10
76.4093
20
-98.3
11
76.4178
21
-98.2519
0
LINE
8
Black
10
76.4178
20
-98.2519
11
76.4422
21
-98.2096
0
LINE
8
Black
10
76.4422
20
-98.2096
11
76.4796
21
-98.1781
0
LINE
8
Black
10
76.4796
20
-98.1781
11
76.5256
21
-98.1614
0
LINE
8
Black
10
76.5256
20
-98.1614
11
76.5744
21
-98.1614
0
LINE
8
Black
10
76.5744
20
-98.1614
11
76.6204
21
-98.1781
0
LINE
8
Black
10
76.6204
20
-98.1781
11
76.6578
21
-98.2096
0
LINE
8
Black
10
76.6578
20
-98.2096
11
76.6822
21
-98.2519
0
LINE
8
Black
10
76.6822
20
-98.2519
11
76.6907
21
-98.3
0
LINE
8
Black
10
76.6907
20
-98.3
11
76.6822
21
-98.3481
0
LINE
8
Black
10
76.6822
20
-98.3481
11
76.6578
21
-98.3904
0
LINE
8
Black
10
76.5505
20
-98.2995
11
76.5504
21
-98.2994
0
LINE
8
Black
10
76.5504
20
-98.2994
11
76.5501
21
-98.2993
0
LINE
8
Black
10
76.5501
20
-98.2993
11
76.5499
21
-98.2993
0
LINE
8
Black
10
76.5499
20
-98.2993
11
76.5496
21
-98.2994
0
LINE
8
Black
10
76.5496
20
-98.2994
11
76.5495
21
-98.2995
0
LINE
8
Black
10
76.5495
20
-98.2995
11
76.5493
21
-98.2998
0
LINE
8
Black
10
76.5493
20
-98.2998
11
76.5493
21
-98.3
0
LINE
8
Black
10
76.5493
20
-98.3
11
76.5493
21
-98.3002
0
LINE
8
Black
10
76.5493
20
-98.3002
11
76.5495
21
-98.3005
0
LINE
8
Black
10
76.5495
20
-98.3005
11
76.5496
21
-98.3006
0
LINE
8
Black
10
76.5496
20
-98.3006
11
76.5499
21
-98.3007
0
LINE
8
Black
10
76.5499
20
-98.3007
11
76.5501
21
-98.3007
0
LINE
8
Black
10
76.5501
20
-98.3007
11
76.5504
21
-98.3006
0
LINE
8
Black
10
76.5504
20
-98.3006
11
76.5505
21
-98.3005
0
LINE
8
Black
10
76.5505
20
-98.3005
11
76.5507
21
-98.3002
0
LINE
8
Black
10
76.5507
20
-98.3002
11
76.5507
21
-98.3
0
LINE
8
Black
10
76.5507
20
-98.3
11
76.5507
21
-98.2998
0
LINE
8
Black
10
76.5507
20
-98.2998
11
76.5505
21
-98.2995
0
LINE
8
Black
10
128.208
20
-96.9397
11
128.217
21
-96.9403
0
LINE
8
Black
10
128.217
20
-96.9403
11
128.407
21
-96.988
0
LINE
8
Black
10
128.407
20
-96.988
11
128.415
21
-96.9913
0
LINE
8
Black
10
128.415
20
-96.9913
11
128.423
21
-96.9936
0
LINE
8
Black
10
128.423
20
-96.9936
11
128.518
21
-97.0413
0
LINE
8
Black
10
128.518
20
-97.0413
11
128.527
21
-97.0482
0
LINE
8
Black
10
128.527
20
-97.0482
11
128.537
21
-97.0413
0
LINE
8
Black
10
128.537
20
-97.0413
11
128.632
21
-96.9936
0
LINE
8
Black
10
128.632
20
-96.9936
11
128.64
21
-96.9913
0
LINE
8
Black
10
128.64
20
-96.9913
11
128.647
21
-96.988
0
LINE
8
Black
10
128.647
20
-96.988
11
128.838
21
-96.9403
0
LINE
8
Black
10
128.838
20
-96.9403
11
128.847
21
-96.9397
0
LINE
8
Black
10
128.847
20
-96.9397
11
128.856
21
-96.9381
0
LINE
8
Black
10
128.856
20
-96.9381
11
128.999
21
-96.9381
0
LINE
8
Black
10
128.999
20
-96.9381
11
129.008
21
-96.9397
0
LINE
8
Black
10
129.008
20
-96.9397
11
129.017
21
-96.9403
0
LINE
8
Black
10
129.017
20
-96.9403
11
129.027
21
-96.9429
0
LINE
8
Black
10
129.027
20
-96.9429
11
129.038
21
-96.9403
0
LINE
8
Black
10
129.038
20
-96.9403
11
129.047
21
-96.9397
0
LINE
8
Black
10
129.047
20
-96.9397
11
129.056
21
-96.9381
0
LINE
8
Black
10
129.056
20
-96.9381
11
129.199
21
-96.9381
0
LINE
8
Black
10
129.199
20
-96.9381
11
129.208
21
-96.9397
0
LINE
8
Black
10
129.208
20
-96.9397
11
129.217
21
-96.9403
0
LINE
8
Black
10
129.217
20
-96.9403
11
129.407
21
-96.988
0
LINE
8
Black
10
129.407
20
-96.988
11
129.415
21
-96.9913
0
LINE
8
Black
10
129.415
20
-96.9913
11
129.423
21
-96.9936
0
LINE
8
Black
10
129.423
20
-96.9936
11
129.518
21
-97.0413
0
LINE
8
Black
10
129.518
20
-97.0413
11
129.527
21
-97.0482
0
LINE
8
Black
10
129.527
20
-97.0482
11
129.537
21
-97.0413
0
LINE
8
Black
10
129.537
20
-97.0413
11
129.632
21
-96.9936
0
LINE
8
Black
10
129.632
20
-96.9936
11
129.64
21
-96.9913
0
LINE
8
Black
10
129.64
20
-96.9913
11
129.647
21
-96.988
0
LINE
8
Black
10
129.647
20
-96.988
11
129.838
21
-96.9403
0
LINE
8
Black
10
129.838
20
-96.9403
11
129.847
21
-96.9397
0
LINE
8
Black
10
129.847
20
-96.9397
11
129.856
21
-96.9381
0
LINE
8
Black
10
129.856
20
-96.9381
11
129.999
21
-96.9381
0
LINE
8
Black
10
129.999
20
-96.9381
11
130.008
21
-96.9397
0
LINE
8
Black
10
130.008
20
-96.9397
11
130.017
21
-96.9403
0
LINE
8
Black
10
130.017
20
-96.9403
11
130.207
21
-96.988
0
LINE
8
Black
10
130.207
20
-96.988
11
130.215
21
-96.9913
0
LINE
8
Black
10
130.215
20
-96.9913
11
130.223
21
-96.9936
0
LINE
8
Black
10
130.223
20
-96.9936
11
130.318
21
-97.0413
0
LINE
8
Black
10
130.318
20
-97.0413
11
130.327
21
-97.0482
0
LINE
8
Black
10
130.327
20
-97.0482
11
130.337
21
-97.0413
0
LINE
8
Black
10
130.337
20
-97.0413
11
130.432
21
-96.9936
0
LINE
8
Black
10
130.432
20
-96.9936
11
130.44
21
-96.9913
0
LINE
8
Black
10
130.44
20
-96.9913
11
130.447
21
-96.988
0
LINE
8
Black
10
130.447
20
-96.988
11
130.638
21
-96.9403
0
LINE
8
Black
10
130.638
20
-96.9403
11
130.647
21
-96.9397
0
LINE
8
Black
10
130.647
20
-96.9397
11
130.656
21
-96.9381
0
LINE
8
Black
10
130.656
20
-96.9381
11
130.799
21
-96.9381
0
LINE
8
Black
10
130.799
20
-96.9381
11
130.808
21
-96.9397
0
LINE
8
Black
10
130.808
20
-96.9397
11
130.817
21
-96.9403
0
LINE
8
Black
10
130.817
20
-96.9403
11
131.007
21
-96.988
0
LINE
8
Black
10
131.007
20
-96.988
11
131.015
21
-96.9913
0
LINE
8
Black
10
131.015
20
-96.9913
11
131.023
21
-96.9936
0
LINE
8
Black
10
131.023
20
-96.9936
11
131.118
21
-97.0413
0
LINE
8
Black
10
131.118
20
-97.0413
11
131.128
21
-97.0484
0
LINE
8
Black
10
131.128
20
-97.0484
11
131.138
21
-97.0553
0
LINE
8
Black
10
131.138
20
-97.0553
11
131.233
21
-97.1505
0
LINE
8
Black
10
131.233
20
-97.1505
11
131.235
21
-97.1541
0
LINE
8
Black
10
131.235
20
-97.1541
11
131.239
21
-97.1569
0
LINE
8
Black
10
131.239
20
-97.1569
11
131.243
21
-97.1647
0
LINE
8
Black
10
131.243
20
-97.1647
11
131.248
21
-97.1719
0
LINE
8
Black
10
131.248
20
-97.1719
11
131.249
21
-97.1761
0
LINE
8
Black
10
131.249
20
-97.1761
11
131.251
21
-97.1799
0
LINE
8
Black
10
131.251
20
-97.1799
11
131.299
21
-97.3227
0
LINE
8
Black
10
131.299
20
-97.3227
11
131.3
21
-97.3346
0
LINE
8
Black
10
131.3
20
-97.3346
11
131.302
21
-97.3464
0
LINE
8
Black
10
131.302
20
-97.3464
11
131.302
21
-97.4417
0
LINE
8
Black
10
131.302
20
-97.4417
11
131.3
21
-97.4535
0
LINE
8
Black
10
131.3
20
-97.4535
11
131.299
21
-97.4654
0
LINE
8
Black
10
131.299
20
-97.4654
11
131.251
21
-97.6082
0
LINE
8
Black
10
131.251
20
-97.6082
11
131.249
21
-97.612
0
LINE
8
Black
10
131.249
20
-97.612
11
131.248
21
-97.6162
0
LINE
8
Black
10
131.248
20
-97.6162
11
131.243
21
-97.6234
0
LINE
8
Black
10
131.243
20
-97.6234
11
131.239
21
-97.6311
0
LINE
8
Black
10
131.239
20
-97.6311
11
131.235
21
-97.634
0
LINE
8
Black
10
131.235
20
-97.634
11
131.233
21
-97.6376
0
LINE
8
Black
10
131.233
20
-97.6376
11
131.185
21
-97.6852
0
LINE
8
Black
10
131.185
20
-97.6852
11
131.164
21
-97.7001
0
LINE
8
Black
10
131.164
20
-97.7001
11
131.139
21
-97.7069
0
LINE
8
Black
10
131.139
20
-97.7069
11
131.113
21
-97.7046
0
LINE
8
Black
10
131.113
20
-97.7046
11
131.089
21
-97.6936
0
LINE
8
Black
10
131.089
20
-97.6936
11
131.071
21
-97.6752
0
LINE
8
Black
10
131.071
20
-97.6752
11
131.06
21
-97.6516
0
LINE
8
Black
10
131.06
20
-97.6516
11
131.057
21
-97.6256
0
LINE
8
Black
10
131.057
20
-97.6256
11
131.064
21
-97.6004
0
LINE
8
Black
10
131.064
20
-97.6004
11
131.079
21
-97.5791
0
LINE
8
Black
10
131.079
20
-97.5791
11
131.114
21
-97.544
0
LINE
8
Black
10
131.114
20
-97.544
11
131.152
21
-97.4295
0
LINE
8
Black
10
131.152
20
-97.4295
11
131.152
21
-97.3586
0
LINE
8
Black
10
131.152
20
-97.3586
11
131.114
21
-97.2441
0
LINE
8
Black
10
131.114
20
-97.2441
11
131.04
21
-97.17
0
LINE
8
Black
10
131.04
20
-97.17
11
130.963
21
-97.1315
0
LINE
8
Black
10
130.963
20
-97.1315
11
130.79
21
-97.0881
0
LINE
8
Black
10
130.79
20
-97.0881
11
130.665
21
-97.0881
0
LINE
8
Black
10
130.665
20
-97.0881
11
130.492
21
-97.1315
0
LINE
8
Black
10
130.492
20
-97.1315
11
130.439
21
-97.1578
0
LINE
8
Black
10
130.439
20
-97.1578
11
130.443
21
-97.1647
0
LINE
8
Black
10
130.443
20
-97.1647
11
130.448
21
-97.1719
0
LINE
8
Black
10
130.448
20
-97.1719
11
130.449
21
-97.1761
0
LINE
8
Black
10
130.449
20
-97.1761
11
130.451
21
-97.1799
0
LINE
8
Black
10
130.451
20
-97.1799
11
130.499
21
-97.3227
0
LINE
8
Black
10
130.499
20
-97.3227
11
130.5
21
-97.3346
0
LINE
8
Black
10
130.5
20
-97.3346
11
130.502
21
-97.3464
0
LINE
8
Black
10
130.502
20
-97.3464
11
130.502
21
-97.4417
0
LINE
8
Black
10
130.502
20
-97.4417
11
130.5
21
-97.4535
0
LINE
8
Black
10
130.5
20
-97.4535
11
130.499
21
-97.4654
0
LINE
8
Black
10
130.499
20
-97.4654
11
130.451
21
-97.6082
0
LINE
8
Black
10
130.451
20
-97.6082
11
130.449
21
-97.612
0
LINE
8
Black
10
130.449
20
-97.612
11
130.448
21
-97.6162
0
LINE
8
Black
10
130.448
20
-97.6162
11
130.443
21
-97.6234
0
LINE
8
Black
10
130.443
20
-97.6234
11
130.439
21
-97.6311
0
LINE
8
Black
10
130.439
20
-97.6311
11
130.435
21
-97.634
0
LINE
8
Black
10
130.435
20
-97.634
11
130.433
21
-97.6376
0
LINE
8
Black
10
130.433
20
-97.6376
11
130.385
21
-97.6852
0
LINE
8
Black
10
130.385
20
-97.6852
11
130.364
21
-97.7001
0
LINE
8
Black
10
130.364
20
-97.7001
11
130.339
21
-97.7069
0
LINE
8
Black
10
130.339
20
-97.7069
11
130.327
21
-97.7059
0
LINE
8
Black
10
130.327
20
-97.7059
11
130.316
21
-97.7069
0
LINE
8
Black
10
130.316
20
-97.7069
11
130.291
21
-97.7001
0
LINE
8
Black
10
130.291
20
-97.7001
11
130.27
21
-97.6852
0
LINE
8
Black
10
130.27
20
-97.6852
11
130.222
21
-97.6376
0
LINE
8
Black
10
130.222
20
-97.6376
11
130.219
21
-97.634
0
LINE
8
Black
10
130.219
20
-97.634
11
130.216
21
-97.6311
0
LINE
8
Black
10
130.216
20
-97.6311
11
130.212
21
-97.6234
0
LINE
8
Black
10
130.212
20
-97.6234
11
130.207
21
-97.6162
0
LINE
8
Black
10
130.207
20
-97.6162
11
130.206
21
-97.612
0
LINE
8
Black
10
130.206
20
-97.612
11
130.204
21
-97.6082
0
LINE
8
Black
10
130.204
20
-97.6082
11
130.156
21
-97.4654
0
LINE
8
Black
10
130.156
20
-97.4654
11
130.154
21
-97.4535
0
LINE
8
Black
10
130.154
20
-97.4535
11
130.152
21
-97.4417
0
LINE
8
Black
10
130.152
20
-97.4417
11
130.152
21
-97.3464
0
LINE
8
Black
10
130.152
20
-97.3464
11
130.154
21
-97.3346
0
LINE
8
Black
10
130.154
20
-97.3346
11
130.156
21
-97.3227
0
LINE
8
Black
10
130.156
20
-97.3227
11
130.204
21
-97.1799
0
LINE
8
Black
10
130.204
20
-97.1799
11
130.206
21
-97.1761
0
LINE
8
Black
10
130.206
20
-97.1761
11
130.207
21
-97.1719
0
LINE
8
Black
10
130.207
20
-97.1719
11
130.212
21
-97.1647
0
LINE
8
Black
10
130.212
20
-97.1647
11
130.216
21
-97.1578
0
LINE
8
Black
10
130.216
20
-97.1578
11
130.163
21
-97.1315
0
LINE
8
Black
10
130.163
20
-97.1315
11
129.99
21
-97.0881
0
LINE
8
Black
10
129.99
20
-97.0881
11
129.865
21
-97.0881
0
LINE
8
Black
10
129.865
20
-97.0881
11
129.692
21
-97.1315
0
LINE
8
Black
10
129.692
20
-97.1315
11
129.639
21
-97.1578
0
LINE
8
Black
10
129.639
20
-97.1578
11
129.643
21
-97.1647
0
LINE
8
Black
10
129.643
20
-97.1647
11
129.648
21
-97.1719
0
LINE
8
Black
10
129.648
20
-97.1719
11
129.649
21
-97.1761
0
LINE
8
Black
10
129.649
20
-97.1761
11
129.651
21
-97.1799
0
LINE
8
Black
10
129.651
20
-97.1799
11
129.699
21
-97.3227
0
LINE
8
Black
10
129.699
20
-97.3227
11
129.7
21
-97.3346
0
LINE
8
Black
10
129.7
20
-97.3346
11
129.702
21
-97.3464
0
LINE
8
Black
10
129.702
20
-97.3464
11
129.702
21
-97.4417
0
LINE
8
Black
10
129.702
20
-97.4417
11
129.7
21
-97.4535
0
LINE
8
Black
10
129.7
20
-97.4535
11
129.699
21
-97.4654
0
LINE
8
Black
10
129.699
20
-97.4654
11
129.651
21
-97.6082
0
LINE
8
Black
10
129.651
20
-97.6082
11
129.649
21
-97.612
0
LINE
8
Black
10
129.649
20
-97.612
11
129.648
21
-97.6162
0
LINE
8
Black
10
129.648
20
-97.6162
11
129.643
21
-97.6234
0
LINE
8
Black
10
129.643
20
-97.6234
11
129.639
21
-97.6311
0
LINE
8
Black
10
129.639
20
-97.6311
11
129.635
21
-97.634
0
LINE
8
Black
10
129.635
20
-97.634
11
129.633
21
-97.6376
0
LINE
8
Black
10
129.633
20
-97.6376
11
129.585
21
-97.6852
0
LINE
8
Black
10
129.585
20
-97.6852
11
129.564
21
-97.7001
0
LINE
8
Black
10
129.564
20
-97.7001
11
129.539
21
-97.7069
0
LINE
8
Black
10
129.539
20
-97.7069
11
129.527
21
-97.7059
0
LINE
8
Black
10
129.527
20
-97.7059
11
129.516
21
-97.7069
0
LINE
8
Black
10
129.516
20
-97.7069
11
129.491
21
-97.7001
0
LINE
8
Black
10
129.491
20
-97.7001
11
129.47
21
-97.6852
0
LINE
8
Black
10
129.47
20
-97.6852
11
129.427
21
-97.643
0
LINE
8
Black
10
129.427
20
-97.643
11
129.385
21
-97.6852
0
LINE
8
Black
10
129.385
20
-97.6852
11
129.364
21
-97.7001
0
LINE
8
Black
10
129.364
20
-97.7001
11
129.339
21
-97.7069
0
LINE
8
Black
10
129.339
20
-97.7069
11
129.313
21
-97.7046
0
LINE
8
Black
10
129.313
20
-97.7046
11
129.289
21
-97.6936
0
LINE
8
Black
10
129.289
20
-97.6936
11
129.271
21
-97.6752
0
LINE
8
Black
10
129.271
20
-97.6752
11
129.26
21
-97.6516
0
LINE
8
Black
10
129.26
20
-97.6516
11
129.257
21
-97.6256
0
LINE
8
Black
10
129.257
20
-97.6256
11
129.264
21
-97.6004
0
LINE
8
Black
10
129.264
20
-97.6004
11
129.279
21
-97.5791
0
LINE
8
Black
10
129.279
20
-97.5791
11
129.314
21
-97.544
0
LINE
8
Black
10
129.314
20
-97.544
11
129.352
21
-97.4295
0
LINE
8
Black
10
129.352
20
-97.4295
11
129.352
21
-97.3586
0
LINE
8
Black
10
129.352
20
-97.3586
11
129.314
21
-97.2441
0
LINE
8
Black
10
129.314
20
-97.2441
11
129.24
21
-97.17
0
LINE
8
Black
10
129.24
20
-97.17
11
129.163
21
-97.1315
0
LINE
8
Black
10
129.163
20
-97.1315
11
129.027
21
-97.0975
0
LINE
8
Black
10
129.027
20
-97.0975
11
128.892
21
-97.1315
0
LINE
8
Black
10
128.892
20
-97.1315
11
128.815
21
-97.17
0
LINE
8
Black
10
128.815
20
-97.17
11
128.741
21
-97.2441
0
LINE
8
Black
10
128.741
20
-97.2441
11
128.702
21
-97.3586
0
LINE
8
Black
10
128.702
20
-97.3586
11
128.702
21
-97.4295
0
LINE
8
Black
10
128.702
20
-97.4295
11
128.741
21
-97.544
0
LINE
8
Black
10
128.741
20
-97.544
11
128.776
21
-97.5791
0
LINE
8
Black
10
128.776
20
-97.5791
11
128.791
21
-97.6004
0
LINE
8
Black
10
128.791
20
-97.6004
11
128.797
21
-97.6256
0
LINE
8
Black
10
128.797
20
-97.6256
11
128.795
21
-97.6516
0
LINE
8
Black
10
128.795
20
-97.6516
11
128.784
21
-97.6752
0
LINE
8
Black
10
128.784
20
-97.6752
11
128.766
21
-97.6936
0
LINE
8
Black
10
128.766
20
-97.6936
11
128.742
21
-97.7046
0
LINE
8
Black
10
128.742
20
-97.7046
11
128.716
21
-97.7069
0
LINE
8
Black
10
128.716
20
-97.7069
11
128.691
21
-97.7001
0
LINE
8
Black
10
128.691
20
-97.7001
11
128.67
21
-97.6852
0
LINE
8
Black
10
128.67
20
-97.6852
11
128.627
21
-97.643
0
LINE
8
Black
10
128.627
20
-97.643
11
128.585
21
-97.6852
0
LINE
8
Black
10
128.585
20
-97.6852
11
128.564
21
-97.7001
0
LINE
8
Black
10
128.564
20
-97.7001
11
128.539
21
-97.7069
0
LINE
8
Black
10
128.539
20
-97.7069
11
128.527
21
-97.7059
0
LINE
8
Black
10
128.527
20
-97.7059
11
128.516
21
-97.7069
0
LINE
8
Black
10
128.516
20
-97.7069
11
128.491
21
-97.7001
0
LINE
8
Black
10
128.491
20
-97.7001
11
128.47
21
-97.6852
0
LINE
8
Black
10
128.47
20
-97.6852
11
128.422
21
-97.6376
0
LINE
8
Black
10
128.422
20
-97.6376
11
128.419
21
-97.634
0
LINE
8
Black
10
128.419
20
-97.634
11
128.416
21
-97.6311
0
LINE
8
Black
10
128.416
20
-97.6311
11
128.412
21
-97.6234
0
LINE
8
Black
10
128.412
20
-97.6234
11
128.407
21
-97.6162
0
LINE
8
Black
10
128.407
20
-97.6162
11
128.406
21
-97.612
0
LINE
8
Black
10
128.406
20
-97.612
11
128.404
21
-97.6082
0
LINE
8
Black
10
128.404
20
-97.6082
11
128.356
21
-97.4654
0
LINE
8
Black
10
128.356
20
-97.4654
11
128.354
21
-97.4535
0
LINE
8
Black
10
128.354
20
-97.4535
11
128.352
21
-97.4417
0
LINE
8
Black
10
128.352
20
-97.4417
11
128.352
21
-97.3464
0
LINE
8
Black
10
128.352
20
-97.3464
11
128.354
21
-97.3346
0
LINE
8
Black
10
128.354
20
-97.3346
11
128.356
21
-97.3227
0
LINE
8
Black
10
128.356
20
-97.3227
11
128.404
21
-97.1799
0
LINE
8
Black
10
128.404
20
-97.1799
11
128.406
21
-97.1761
0
LINE
8
Black
10
128.406
20
-97.1761
11
128.407
21
-97.1719
0
LINE
8
Black
10
128.407
20
-97.1719
11
128.412
21
-97.1647
0
LINE
8
Black
10
128.412
20
-97.1647
11
128.416
21
-97.1578
0
LINE
8
Black
10
128.416
20
-97.1578
11
128.363
21
-97.1315
0
LINE
8
Black
10
128.363
20
-97.1315
11
128.19
21
-97.0881
0
LINE
8
Black
10
128.19
20
-97.0881
11
128.065
21
-97.0881
0
LINE
8
Black
10
128.065
20
-97.0881
11
127.892
21
-97.1315
0
LINE
8
Black
10
127.892
20
-97.1315
11
127.815
21
-97.17
0
LINE
8
Black
10
127.815
20
-97.17
11
127.741
21
-97.2441
0
LINE
8
Black
10
127.741
20
-97.2441
11
127.702
21
-97.3586
0
LINE
8
Black
10
127.702
20
-97.3586
11
127.702
21
-97.4295
0
LINE
8
Black
10
127.702
20
-97.4295
11
127.741
21
-97.544
0
LINE
8
Black
10
127.741
20
-97.544
11
127.776
21
-97.5791
0
LINE
8
Black
10
127.776
20
-97.5791
11
127.791
21
-97.6004
0
LINE
8
Black
10
127.791
20
-97.6004
11
127.797
21
-97.6256
0
LINE
8
Black
10
127.797
20
-97.6256
11
127.795
21
-97.6516
0
LINE
8
Black
10
127.795
20
-97.6516
11
127.784
21
-97.6752
0
LINE
8
Black
10
127.784
20
-97.6752
11
127.766
21
-97.6936
0
LINE
8
Black
10
127.766
20
-97.6936
11
127.742
21
-97.7046
0
LINE
8
Black
10
127.742
20
-97.7046
11
127.716
21
-97.7069
0
LINE
8
Black
10
127.716
20
-97.7069
11
127.691
21
-97.7001
0
LINE
8
Black
10
127.691
20
-97.7001
11
127.67
21
-97.6852
0
LINE
8
Black
10
127.67
20
-97.6852
11
127.622
21
-97.6376
0
LINE
8
Black
10
127.622
20
-97.6376
11
127.619
21
-97.634
0
LINE
8
Black
10
127.619
20
-97.634
11
127.616
21
-97.6311
0
LINE
8
Black
10
127.616
20
-97.6311
11
127.612
21
-97.6234
0
LINE
8
Black
10
127.612
20
-97.6234
11
127.607
21
-97.6162
0
LINE
8
Black
10
127.607
20
-97.6162
11
127.606
21
-97.612
0
LINE
8
Black
10
127.606
20
-97.612
11
127.604
21
-97.6082
0
LINE
8
Black
10
127.604
20
-97.6082
11
127.556
21
-97.4654
0
LINE
8
Black
10
127.556
20
-97.4654
11
127.554
21
-97.4535
0
LINE
8
Black
10
127.554
20
-97.4535
11
127.552
21
-97.4417
0
LINE
8
Black
10
127.552
20
-97.4417
11
127.552
21
-97.3464
0
LINE
8
Black
10
127.552
20
-97.3464
11
127.554
21
-97.3346
0
LINE
8
Black
10
127.554
20
-97.3346
11
127.556
21
-97.3227
0
LINE
8
Black
10
127.556
20
-97.3227
11
127.604
21
-97.1799
0
LINE
8
Black
10
127.604
20
-97.1799
11
127.606
21
-97.1761
0
LINE
8
Black
10
127.606
20
-97.1761
11
127.607
21
-97.1719
0
LINE
8
Black
10
127.607
20
-97.1719
11
127.612
21
-97.1647
0
LINE
8
Black
10
127.612
20
-97.1647
11
127.616
21
-97.1569
0
LINE
8
Black
10
127.616
20
-97.1569
11
127.619
21
-97.1541
0
LINE
8
Black
10
127.619
20
-97.1541
11
127.622
21
-97.1505
0
LINE
8
Black
10
127.622
20
-97.1505
11
127.717
21
-97.0553
0
LINE
8
Black
10
127.717
20
-97.0553
11
127.727
21
-97.0484
0
LINE
8
Black
10
127.727
20
-97.0484
11
127.737
21
-97.0413
0
LINE
8
Black
10
127.737
20
-97.0413
11
127.832
21
-96.9936
0
LINE
8
Black
10
127.832
20
-96.9936
11
127.84
21
-96.9913
0
LINE
8
Black
10
127.84
20
-96.9913
11
127.847
21
-96.988
0
LINE
8
Black
10
127.847
20
-96.988
11
128.038
21
-96.9403
0
LINE
8
Black
10
128.038
20
-96.9403
11
128.047
21
-96.9397
0
LINE
8
Black
10
128.047
20
-96.9397
11
128.056
21
-96.9381
0
LINE
8
Black
10
128.056
20
-96.9381
11
128.199
21
-96.9381
0
LINE
8
Black
10
128.199
20
-96.9381
11
128.208
21
-96.9397
0
LINE
8
Black
10
128.502
20
-97.3586
11
128.502
21
-97.4295
0
LINE
8
Black
10
128.502
20
-97.4295
11
128.527
21
-97.5045
0
LINE
8
Black
10
128.527
20
-97.5045
11
128.552
21
-97.4295
0
LINE
8
Black
10
128.552
20
-97.4295
11
128.552
21
-97.3586
0
LINE
8
Black
10
128.552
20
-97.3586
11
128.527
21
-97.2836
0
LINE
8
Black
10
128.527
20
-97.2836
11
128.502
21
-97.3586
0
LINE
8
Black
10
129.502
20
-97.3586
11
129.502
21
-97.4295
0
LINE
8
Black
10
129.502
20
-97.4295
11
129.527
21
-97.5045
0
LINE
8
Black
10
129.527
20
-97.5045
11
129.552
21
-97.4295
0
LINE
8
Black
10
129.552
20
-97.4295
11
129.552
21
-97.3586
0
LINE
8
Black
10
129.552
20
-97.3586
11
129.527
21
-97.2836
0
LINE
8
Black
10
129.527
20
-97.2836
11
129.502
21
-97.3586
0
LINE
8
Black
10
130.302
20
-97.3586
11
130.302
21
-97.4295
0
LINE
8
Black
10
130.302
20
-97.4295
11
130.327
21
-97.5045
0
LINE
8
Black
10
130.327
20
-97.5045
11
130.352
21
-97.4295
0
LINE
8
Black
10
130.352
20
-97.4295
11
130.352
21
-97.3586
0
LINE
8
Black
10
130.352
20
-97.3586
11
130.327
21
-97.2836
0
LINE
8
Black
10
130.327
20
-97.2836
11
130.302
21
-97.3586
0
LINE
8
Black
10
85.4078
20
-94.2404
11
85.3704
21
-94.2719
0
LINE
8
Black
10
85.3704
20
-94.2719
11
85.3244
21
-94.2886
0
LINE
8
Black
10
85.3244
20
-94.2886
11
85.2756
21
-94.2886
0
LINE
8
Black
10
85.2756
20
-94.2886
11
85.2296
21
-94.2719
0
LINE
8
Black
10
85.2296
20
-94.2719
11
85.1922
21
-94.2404
0
LINE
8
Black
10
85.1922
20
-94.2404
11
85.1678
21
-94.1981
0
LINE
8
Black
10
85.1678
20
-94.1981
11
85.1593
21
-94.15
0
LINE
8
Black
10
85.1593
20
-94.15
11
85.1678
21
-94.1019
0
LINE
8
Black
10
85.1678
20
-94.1019
11
85.1922
21
-94.0596
0
LINE
8
Black
10
85.1922
20
-94.0596
11
85.2296
21
-94.0281
0
LINE
8
Black
10
85.2296
20
-94.0281
11
85.2756
21
-94.0114
0
LINE
8
Black
10
85.2756
20
-94.0114
11
85.3244
21
-94.0114
0
LINE
8
Black
10
85.3244
20
-94.0114
11
85.3704
21
-94.0281
0
LINE
8
Black
10
85.3704
20
-94.0281
11
85.4078
21
-94.0596
0
LINE
8
Black
10
85.4078
20
-94.0596
11
85.4322
21
-94.1019
0
LINE
8
Black
10
85.4322
20
-94.1019
11
85.4407
21
-94.15
0
LINE
8
Black
10
85.4407
20
-94.15
11
85.4322
21
-94.1981
0
LINE
8
Black
10
85.4322
20
-94.1981
11
85.4078
21
-94.2404
0
LINE
8
Black
10
85.3005
20
-94.1495
11
85.3004
21
-94.1494
0
LINE
8
Black
10
85.3004
20
-94.1494
11
85.3001
21
-94.1493
0
LINE
8
Black
10
85.3001
20
-94.1493
11
85.2999
21
-94.1493
0
LINE
8
Black
10
85.2999
20
-94.1493
11
85.2996
21
-94.1494
0
LINE
8
Black
10
85.2996
20
-94.1494
11
85.2995
21
-94.1495
0
LINE
8
Black
10
85.2995
20
-94.1495
11
85.2993
21
-94.1498
0
LINE
8
Black
10
85.2993
20
-94.1498
11
85.2993
21
-94.15
0
LINE
8
Black
10
85.2993
20
-94.15
11
85.2993
21
-94.1502
0
LINE
8
Black
10
85.2993
20
-94.1502
11
85.2995
21
-94.1505
0
LINE
8
Black
10
85.2995
20
-94.1505
11
85.2996
21
-94.1506
0
LINE
8
Black
10
85.2996
20
-94.1506
11
85.2999
21
-94.1507
0
LINE
8
Black
10
85.2999
20
-94.1507
11
85.3001
21
-94.1507
0
LINE
8
Black
10
85.3001
20
-94.1507
11
85.3004
21
-94.1506
0
LINE
8
Black
10
85.3004
20
-94.1506
11
85.3005
21
-94.1505
0
LINE
8
Black
10
85.3005
20
-94.1505
11
85.3007
21
-94.1502
0
LINE
8
Black
10
85.3007
20
-94.1502
11
85.3007
21
-94.15
0
LINE
8
Black
10
85.3007
20
-94.15
11
85.3007
21
-94.1498
0
LINE
8
Black
10
85.3007
20
-94.1498
11
85.3005
21
-94.1495
0
LINE
8
Black
10
85.8565
20
-91.2261
11
85.863
21
-91.2261
0
LINE
8
Black
10
85.863
20
-91.2261
11
85.8692
21
-91.2284
0
LINE
8
Black
10
85.8692
20
-91.2284
11
85.8757
21
-91.2295
0
LINE
8
Black
10
85.8757
20
-91.2295
11
85.8813
21
-91.2328
0
LINE
8
Black
10
85.8813
20
-91.2328
11
85.8875
21
-91.235
0
LINE
8
Black
10
85.8875
20
-91.235
11
85.8925
21
-91.2393
0
LINE
8
Black
10
85.8925
20
-91.2393
11
85.8982
21
-91.2425
0
LINE
8
Black
10
85.8982
20
-91.2425
11
85.9024
21
-91.2476
0
LINE
8
Black
10
85.9024
20
-91.2476
11
85.9075
21
-91.2518
0
LINE
8
Black
10
85.9075
20
-91.2518
11
85.9107
21
-91.2575
0
LINE
8
Black
10
85.9107
20
-91.2575
11
85.915
21
-91.2625
0
LINE
8
Black
10
85.915
20
-91.2625
11
85.9172
21
-91.2687
0
LINE
8
Black
10
85.9172
20
-91.2687
11
85.9205
21
-91.2743
0
LINE
8
Black
10
85.9205
20
-91.2743
11
85.9216
21
-91.2808
0
LINE
8
Black
10
85.9216
20
-91.2808
11
85.9239
21
-91.287
0
LINE
8
Black
10
85.9239
20
-91.287
11
85.9239
21
-91.2935
0
LINE
8
Black
10
85.9239
20
-91.2935
11
85.925
21
-91.3
0
LINE
8
Black
10
85.925
20
-91.3
11
85.925
21
-93.8
0
LINE
8
Black
10
85.925
20
-93.8
11
85.9239
21
-93.8065
0
LINE
8
Black
10
85.9239
20
-93.8065
11
85.9239
21
-93.813
0
LINE
8
Black
10
85.9239
20
-93.813
11
85.9216
21
-93.8192
0
LINE
8
Black
10
85.9216
20
-93.8192
11
85.9205
21
-93.8257
0
LINE
8
Black
10
85.9205
20
-93.8257
11
85.9172
21
-93.8313
0
LINE
8
Black
10
85.9172
20
-93.8313
11
85.915
21
-93.8375
0
LINE
8
Black
10
85.915
20
-93.8375
11
85.9107
21
-93.8425
0
LINE
8
Black
10
85.9107
20
-93.8425
11
85.9075
21
-93.8482
0
LINE
8
Black
10
85.9075
20
-93.8482
11
85.9024
21
-93.8524
0
LINE
8
Black
10
85.9024
20
-93.8524
11
85.8982
21
-93.8575
0
LINE
8
Black
10
85.8982
20
-93.8575
11
85.8925
21
-93.8607
0
LINE
8
Black
10
85.8925
20
-93.8607
11
85.8875
21
-93.865
0
LINE
8
Black
10
85.8875
20
-93.865
11
85.8813
21
-93.8672
0
LINE
8
Black
10
85.8813
20
-93.8672
11
85.8757
21
-93.8705
0
LINE
8
Black
10
85.8757
20
-93.8705
11
85.8692
21
-93.8716
0
LINE
8
Black
10
85.8692
20
-93.8716
11
85.863
21
-93.8739
0
LINE
8
Black
10
85.863
20
-93.8739
11
85.8565
21
-93.8739
0
LINE
8
Black
10
85.8565
20
-93.8739
11
85.85
21
-93.875
0
LINE
8
Black
10
85.85
20
-93.875
11
83.35
21
-93.875
0
LINE
8
Black
10
83.35
20
-93.875
11
83.3435
21
-93.8739
0
LINE
8
Black
10
83.3435
20
-93.8739
11
83.337
21
-93.8739
0
LINE
8
Black
10
83.337
20
-93.8739
11
83.3308
21
-93.8716
0
LINE
8
Black
10
83.3308
20
-93.8716
11
83.3243
21
-93.8705
0
LINE
8
Black
10
83.3243
20
-93.8705
11
83.3187
21
-93.8672
0
LINE
8
Black
10
83.3187
20
-93.8672
11
83.3125
21
-93.865
0
LINE
8
Black
10
83.3125
20
-93.865
11
83.3075
21
-93.8607
0
LINE
8
Black
10
83.3075
20
-93.8607
11
83.3018
21
-93.8575
0
LINE
8
Black
10
83.3018
20
-93.8575
11
83.2976
21
-93.8524
0
LINE
8
Black
10
83.2976
20
-93.8524
11
83.2925
21
-93.8482
0
LINE
8
Black
10
83.2925
20
-93.8482
11
83.2893
21
-93.8425
0
LINE
8
Black
10
83.2893
20
-93.8425
11
83.285
21
-93.8375
0
LINE
8
Black
10
83.285
20
-93.8375
11
83.2828
21
-93.8313
0
LINE
8
Black
10
83.2828
20
-93.8313
11
83.2795
21
-93.8257
0
LINE
8
Black
10
83.2795
20
-93.8257
11
83.2784
21
-93.8192
0
LINE
8
Black
10
83.2784
20
-93.8192
11
83.2761
21
-93.813
0
LINE
8
Black
10
83.2761
20
-93.813
11
83.2761
21
-93.8065
0
LINE
8
Black
10
83.2761
20
-93.8065
11
83.275
21
-93.8
0
LINE
8
Black
10
83.275
20
-93.8
11
83.275
21
-91.3
0
LINE
8
Black
10
83.275
20
-91.3
11
83.2761
21
-91.2935
0
LINE
8
Black
10
83.2761
20
-91.2935
11
83.2761
21
-91.287
0
LINE
8
Black
10
83.2761
20
-91.287
11
83.2784
21
-91.2808
0
LINE
8
Black
10
83.2784
20
-91.2808
11
83.2795
21
-91.2743
0
LINE
8
Black
10
83.2795
20
-91.2743
11
83.2828
21
-91.2687
0
LINE
8
Black
10
83.2828
20
-91.2687
11
83.285
21
-91.2625
0
LINE
8
Black
10
83.285
20
-91.2625
11
83.2893
21
-91.2575
0
LINE
8
Black
10
83.2893
20
-91.2575
11
83.2925
21
-91.2518
0
LINE
8
Black
10
83.2925
20
-91.2518
11
83.2976
21
-91.2476
0
LINE
8
Black
10
83.2976
20
-91.2476
11
83.3018
21
-91.2425
0
LINE
8
Black
10
83.3018
20
-91.2425
11
83.3075
21
-91.2393
0
LINE
8
Black
10
83.3075
20
-91.2393
11
83.3125
21
-91.235
0
LINE
8
Black
10
83.3125
20
-91.235
11
83.3187
21
-91.2328
0
LINE
8
Black
10
83.3187
20
-91.2328
11
83.3243
21
-91.2295
0
LINE
8
Black
10
83.3243
20
-91.2295
11
83.3308
21
-91.2284
0
LINE
8
Black
10
83.3308
20
-91.2284
11
83.337
21
-91.2261
0
LINE
8
Black
10
83.337
20
-91.2261
11
83.3435
21
-91.2261
0
LINE
8
Black
10
83.3435
20
-91.2261
11
83.35
21
-91.225
0
LINE
8
Black
10
83.35
20
-91.225
11
85.85
21
-91.225
0
LINE
8
Black
10
85.85
20
-91.225
11
85.8565
21
-91.2261
0
LINE
8
Black
10
83.425
20
-91.375
11
83.425
21
-93.725
0
LINE
8
Black
10
83.425
20
-93.725
11
85.775
21
-93.725
0
LINE
8
Black
10
85.775
20
-93.725
11
85.775
21
-91.375
0
LINE
8
Black
10
85.775
20
-91.375
11
83.425
21
-91.375
0
LINE
8
Black
10
127.88
20
-97.9993
11
127.893
21
-97.9768
0
LINE
8
Black
10
127.893
20
-97.9768
11
127.912
21
-97.96
0
LINE
8
Black
10
127.912
20
-97.96
11
127.937
21
-97.9511
0
LINE
8
Black
10
127.937
20
-97.9511
11
127.963
21
-97.9511
0
LINE
8
Black
10
127.963
20
-97.9511
11
127.987
21
-97.96
0
LINE
8
Black
10
127.987
20
-97.96
11
128.007
21
-97.9768
0
LINE
8
Black
10
128.007
20
-97.9768
11
128.02
21
-97.9993
0
LINE
8
Black
10
128.02
20
-97.9993
11
128.025
21
-98.025
0
LINE
8
Black
10
128.025
20
-98.025
11
128.025
21
-98.4618
0
LINE
8
Black
10
128.025
20
-98.4618
11
128.357
21
-98.1293
0
LINE
8
Black
10
128.357
20
-98.1293
11
128.359
21
-98.1266
0
LINE
8
Black
10
128.359
20
-98.1266
11
128.36
21
-98.1224
0
LINE
8
Black
10
128.36
20
-98.1224
11
128.408
21
-98.0272
0
LINE
8
Black
10
128.408
20
-98.0272
11
128.415
21
-98.0175
0
LINE
8
Black
10
128.415
20
-98.0175
11
128.422
21
-98.0077
0
LINE
8
Black
10
128.422
20
-98.0077
11
128.47
21
-97.9601
0
LINE
8
Black
10
128.47
20
-97.9601
11
128.491
21
-97.9451
0
LINE
8
Black
10
128.491
20
-97.9451
11
128.516
21
-97.9384
0
LINE
8
Black
10
128.516
20
-97.9384
11
128.542
21
-97.9407
0
LINE
8
Black
10
128.542
20
-97.9407
11
128.545
21
-97.942
0
LINE
8
Black
10
128.545
20
-97.942
11
128.574
21
-97.9124
0
LINE
8
Black
10
128.574
20
-97.9124
11
128.582
21
-97.9068
0
LINE
8
Black
10
128.582
20
-97.9068
11
128.59
21
-97.9005
0
LINE
8
Black
10
128.59
20
-97.9005
11
128.593
21
-97.8994
0
LINE
8
Black
10
128.593
20
-97.8994
11
128.596
21
-97.8975
0
LINE
8
Black
10
128.596
20
-97.8975
11
128.605
21
-97.895
0
LINE
8
Black
10
128.605
20
-97.895
11
128.614
21
-97.8916
0
LINE
8
Black
10
128.614
20
-97.8916
11
128.618
21
-97.8916
0
LINE
8
Black
10
128.618
20
-97.8916
11
128.621
21
-97.8908
0
LINE
8
Black
10
128.621
20
-97.8908
11
128.631
21
-97.8916
0
LINE
8
Black
10
128.631
20
-97.8916
11
128.64
21
-97.8916
0
LINE
8
Black
10
128.64
20
-97.8916
11
128.644
21
-97.8927
0
LINE
8
Black
10
128.644
20
-97.8927
11
128.647
21
-97.893
0
LINE
8
Black
10
128.647
20
-97.893
11
128.656
21
-97.8972
0
LINE
8
Black
10
128.656
20
-97.8972
11
128.665
21
-97.9005
0
LINE
8
Black
10
128.665
20
-97.9005
11
128.667
21
-97.9026
0
LINE
8
Black
10
128.667
20
-97.9026
11
128.67
21
-97.904
0
LINE
8
Black
10
128.67
20
-97.904
11
128.677
21
-97.911
0
LINE
8
Black
10
128.677
20
-97.911
11
128.685
21
-97.9173
0
LINE
8
Black
10
128.685
20
-97.9173
11
128.686
21
-97.9201
0
LINE
8
Black
10
128.686
20
-97.9201
11
128.689
21
-97.9225
0
LINE
8
Black
10
128.689
20
-97.9225
11
128.693
21
-97.9313
0
LINE
8
Black
10
128.693
20
-97.9313
11
128.698
21
-97.9398
0
LINE
8
Black
10
128.698
20
-97.9398
11
128.698
21
-97.9431
0
LINE
8
Black
10
128.698
20
-97.9431
11
128.7
21
-97.9461
0
LINE
8
Black
10
128.7
20
-97.9461
11
128.701
21
-97.9558
0
LINE
8
Black
10
128.701
20
-97.9558
11
128.702
21
-97.9655
0
LINE
8
Black
10
128.702
20
-97.9655
11
128.702
21
-97.9685
0
LINE
8
Black
10
128.702
20
-97.9685
11
128.713
21
-97.96
0
LINE
8
Black
10
128.713
20
-97.96
11
128.737
21
-97.9511
0
LINE
8
Black
10
128.737
20
-97.9511
11
128.763
21
-97.9511
0
LINE
8
Black
10
128.763
20
-97.9511
11
128.787
21
-97.96
0
LINE
8
Black
10
128.787
20
-97.96
11
128.807
21
-97.9768
0
LINE
8
Black
10
128.807
20
-97.9768
11
128.82
21
-97.9993
0
LINE
8
Black
10
128.82
20
-97.9993
11
128.825
21
-98.0225
0
LINE
8
Black
10
128.825
20
-98.0225
11
128.846
21
-97.9796
0
LINE
8
Black
10
128.846
20
-97.9796
11
128.862
21
-97.9586
0
LINE
8
Black
10
128.862
20
-97.9586
11
128.883
21
-97.9443
0
LINE
8
Black
10
128.883
20
-97.9443
11
128.909
21
-97.9382
0
LINE
8
Black
10
128.909
20
-97.9382
11
128.934
21
-97.9412
0
LINE
8
Black
10
128.934
20
-97.9412
11
128.958
21
-97.9529
0
LINE
8
Black
10
128.958
20
-97.9529
11
128.976
21
-97.9718
0
LINE
8
Black
10
128.976
20
-97.9718
11
128.986
21
-97.9957
0
LINE
8
Black
10
128.986
20
-97.9957
11
128.988
21
-98.0217
0
LINE
8
Black
10
128.988
20
-98.0217
11
128.98
21
-98.0466
0
LINE
8
Black
10
128.98
20
-98.0466
11
128.933
21
-98.1419
0
LINE
8
Black
10
128.933
20
-98.1419
11
128.925
21
-98.1515
0
LINE
8
Black
10
128.925
20
-98.1515
11
128.919
21
-98.1614
0
LINE
8
Black
10
128.919
20
-98.1614
11
128.856
21
-98.2238
0
LINE
8
Black
10
128.856
20
-98.2238
11
129.063
21
-98.2238
0
LINE
8
Black
10
129.063
20
-98.2238
11
129.374
21
-97.9124
0
LINE
8
Black
10
129.374
20
-97.9124
11
129.382
21
-97.9068
0
LINE
8
Black
10
129.382
20
-97.9068
11
129.39
21
-97.9005
0
LINE
8
Black
10
129.39
20
-97.9005
11
129.393
21
-97.8994
0
LINE
8
Black
10
129.393
20
-97.8994
11
129.396
21
-97.8975
0
LINE
8
Black
10
129.396
20
-97.8975
11
129.405
21
-97.895
0
LINE
8
Black
10
129.405
20
-97.895
11
129.414
21
-97.8916
0
LINE
8
Black
10
129.414
20
-97.8916
11
129.418
21
-97.8916
0
LINE
8
Black
10
129.418
20
-97.8916
11
129.421
21
-97.8908
0
LINE
8
Black
10
129.421
20
-97.8908
11
129.431
21
-97.8916
0
LINE
8
Black
10
129.431
20
-97.8916
11
129.44
21
-97.8916
0
LINE
8
Black
10
129.44
20
-97.8916
11
129.444
21
-97.8927
0
LINE
8
Black
10
129.444
20
-97.8927
11
129.447
21
-97.893
0
LINE
8
Black
10
129.447
20
-97.893
11
129.456
21
-97.8972
0
LINE
8
Black
10
129.456
20
-97.8972
11
129.465
21
-97.9005
0
LINE
8
Black
10
129.465
20
-97.9005
11
129.467
21
-97.9026
0
LINE
8
Black
10
129.467
20
-97.9026
11
129.47
21
-97.904
0
LINE
8
Black
10
129.47
20
-97.904
11
129.477
21
-97.911
0
LINE
8
Black
10
129.477
20
-97.911
11
129.485
21
-97.9173
0
LINE
8
Black
10
129.485
20
-97.9173
11
129.486
21
-97.9201
0
LINE
8
Black
10
129.486
20
-97.9201
11
129.489
21
-97.9225
0
LINE
8
Black
10
129.489
20
-97.9225
11
129.493
21
-97.9313
0
LINE
8
Black
10
129.493
20
-97.9313
11
129.498
21
-97.9398
0
LINE
8
Black
10
129.498
20
-97.9398
11
129.498
21
-97.9431
0
LINE
8
Black
10
129.498
20
-97.9431
11
129.498
21
-97.9431
0
LINE
8
Black
10
129.498
20
-97.9431
11
129.516
21
-97.9384
0
LINE
8
Black
10
129.516
20
-97.9384
11
129.542
21
-97.9407
0
LINE
8
Black
10
129.542
20
-97.9407
11
129.566
21
-97.9517
0
LINE
8
Black
10
129.566
20
-97.9517
11
129.566
21
-97.9523
0
LINE
8
Black
10
129.566
20
-97.9523
11
129.579
21
-97.9571
0
LINE
8
Black
10
129.579
20
-97.9571
11
129.59
21
-97.9481
0
LINE
8
Black
10
129.59
20
-97.9481
11
129.614
21
-97.9392
0
LINE
8
Black
10
129.614
20
-97.9392
11
129.64
21
-97.9392
0
LINE
8
Black
10
129.64
20
-97.9392
11
129.665
21
-97.9481
0
LINE
8
Black
10
129.665
20
-97.9481
11
129.685
21
-97.9649
0
LINE
8
Black
10
129.685
20
-97.9649
11
129.698
21
-97.9874
0
LINE
8
Black
10
129.698
20
-97.9874
11
129.702
21
-98.0131
0
LINE
8
Black
10
129.702
20
-98.0131
11
129.702
21
-98.509
0
LINE
8
Black
10
129.702
20
-98.509
11
129.815
21
-98.4714
0
LINE
8
Black
10
129.815
20
-98.4714
11
130.125
21
-98.1618
0
LINE
8
Black
10
130.125
20
-98.1618
11
130.125
21
-98.025
0
LINE
8
Black
10
130.125
20
-98.025
11
130.13
21
-97.9993
0
LINE
8
Black
10
130.13
20
-97.9993
11
130.143
21
-97.9768
0
LINE
8
Black
10
130.143
20
-97.9768
11
130.162
21
-97.96
0
LINE
8
Black
10
130.162
20
-97.96
11
130.187
21
-97.9511
0
LINE
8
Black
10
130.187
20
-97.9511
11
130.213
21
-97.9511
0
LINE
8
Black
10
130.213
20
-97.9511
11
130.237
21
-97.96
0
LINE
8
Black
10
130.237
20
-97.96
11
130.255
21
-97.9747
0
LINE
8
Black
10
130.255
20
-97.9747
11
130.27
21
-97.9601
0
LINE
8
Black
10
130.27
20
-97.9601
11
130.291
21
-97.9451
0
LINE
8
Black
10
130.291
20
-97.9451
11
130.316
21
-97.9384
0
LINE
8
Black
10
130.316
20
-97.9384
11
130.342
21
-97.9407
0
LINE
8
Black
10
130.342
20
-97.9407
11
130.345
21
-97.942
0
LINE
8
Black
10
130.345
20
-97.942
11
130.374
21
-97.9124
0
LINE
8
Black
10
130.374
20
-97.9124
11
130.382
21
-97.9068
0
LINE
8
Black
10
130.382
20
-97.9068
11
130.39
21
-97.9005
0
LINE
8
Black
10
130.39
20
-97.9005
11
130.393
21
-97.8994
0
LINE
8
Black
10
130.393
20
-97.8994
11
130.396
21
-97.8975
0
LINE
8
Black
10
130.396
20
-97.8975
11
130.405
21
-97.895
0
LINE
8
Black
10
130.405
20
-97.895
11
130.414
21
-97.8916
0
LINE
8
Black
10
130.414
20
-97.8916
11
130.418
21
-97.8916
0
LINE
8
Black
10
130.418
20
-97.8916
11
130.421
21
-97.8908
0
LINE
8
Black
10
130.421
20
-97.8908
11
130.431
21
-97.8916
0
LINE
8
Black
10
130.431
20
-97.8916
11
130.44
21
-97.8916
0
LINE
8
Black
10
130.44
20
-97.8916
11
130.444
21
-97.8927
0
LINE
8
Black
10
130.444
20
-97.8927
11
130.447
21
-97.893
0
LINE
8
Black
10
130.447
20
-97.893
11
130.456
21
-97.8972
0
LINE
8
Black
10
130.456
20
-97.8972
11
130.465
21
-97.9005
0
LINE
8
Black
10
130.465
20
-97.9005
11
130.467
21
-97.9026
0
LINE
8
Black
10
130.467
20
-97.9026
11
130.47
21
-97.904
0
LINE
8
Black
10
130.47
20
-97.904
11
130.477
21
-97.911
0
LINE
8
Black
10
130.477
20
-97.911
11
130.485
21
-97.9173
0
LINE
8
Black
10
130.485
20
-97.9173
11
130.486
21
-97.9201
0
LINE
8
Black
10
130.486
20
-97.9201
11
130.489
21
-97.9225
0
LINE
8
Black
10
130.489
20
-97.9225
11
130.493
21
-97.9313
0
LINE
8
Black
10
130.493
20
-97.9313
11
130.498
21
-97.9398
0
LINE
8
Black
10
130.498
20
-97.9398
11
130.498
21
-97.9431
0
LINE
8
Black
10
130.498
20
-97.9431
11
130.5
21
-97.9461
0
LINE
8
Black
10
130.5
20
-97.9461
11
130.501
21
-97.9558
0
LINE
8
Black
10
130.501
20
-97.9558
11
130.502
21
-97.9655
0
LINE
8
Black
10
130.502
20
-97.9655
11
130.502
21
-98.509
0
LINE
8
Black
10
130.502
20
-98.509
11
130.615
21
-98.4714
0
LINE
8
Black
10
130.615
20
-98.4714
11
131.078
21
-98.009
0
LINE
8
Black
10
131.078
20
-98.009
11
131.08
21
-97.9993
0
LINE
8
Black
10
131.08
20
-97.9993
11
131.093
21
-97.9768
0
LINE
8
Black
10
131.093
20
-97.9768
11
131.112
21
-97.96
0
LINE
8
Black
10
131.112
20
-97.96
11
131.135
21
-97.9519
0
LINE
8
Black
10
131.135
20
-97.9519
11
131.174
21
-97.9124
0
LINE
8
Black
10
131.174
20
-97.9124
11
131.182
21
-97.9068
0
LINE
8
Black
10
131.182
20
-97.9068
11
131.19
21
-97.9005
0
LINE
8
Black
10
131.19
20
-97.9005
11
131.193
21
-97.8994
0
LINE
8
Black
10
131.193
20
-97.8994
11
131.196
21
-97.8975
0
LINE
8
Black
10
131.196
20
-97.8975
11
131.205
21
-97.895
0
LINE
8
Black
10
131.205
20
-97.895
11
131.214
21
-97.8916
0
LINE
8
Black
10
131.214
20
-97.8916
11
131.218
21
-97.8916
0
LINE
8
Black
10
131.218
20
-97.8916
11
131.221
21
-97.8908
0
LINE
8
Black
10
131.221
20
-97.8908
11
131.231
21
-97.8916
0
LINE
8
Black
10
131.231
20
-97.8916
11
131.24
21
-97.8916
0
LINE
8
Black
10
131.24
20
-97.8916
11
131.244
21
-97.8927
0
LINE
8
Black
10
131.244
20
-97.8927
11
131.247
21
-97.893
0
LINE
8
Black
10
131.247
20
-97.893
11
131.256
21
-97.8972
0
LINE
8
Black
10
131.256
20
-97.8972
11
131.265
21
-97.9005
0
LINE
8
Black
10
131.265
20
-97.9005
11
131.267
21
-97.9026
0
LINE
8
Black
10
131.267
20
-97.9026
11
131.27
21
-97.904
0
LINE
8
Black
10
131.27
20
-97.904
11
131.277
21
-97.911
0
LINE
8
Black
10
131.277
20
-97.911
11
131.285
21
-97.9173
0
LINE
8
Black
10
131.285
20
-97.9173
11
131.286
21
-97.9201
0
LINE
8
Black
10
131.286
20
-97.9201
11
131.289
21
-97.9225
0
LINE
8
Black
10
131.289
20
-97.9225
11
131.293
21
-97.9313
0
LINE
8
Black
10
131.293
20
-97.9313
11
131.298
21
-97.9398
0
LINE
8
Black
10
131.298
20
-97.9398
11
131.298
21
-97.9431
0
LINE
8
Black
10
131.298
20
-97.9431
11
131.3
21
-97.9461
0
LINE
8
Black
10
131.3
20
-97.9461
11
131.301
21
-97.9558
0
LINE
8
Black
10
131.301
20
-97.9558
11
131.302
21
-97.9655
0
LINE
8
Black
10
131.302
20
-97.9655
11
131.302
21
-98.5845
0
LINE
8
Black
10
131.302
20
-98.5845
11
131.298
21
-98.6102
0
LINE
8
Black
10
131.298
20
-98.6102
11
131.285
21
-98.6327
0
LINE
8
Black
10
131.285
20
-98.6327
11
131.265
21
-98.6495
0
LINE
8
Black
10
131.265
20
-98.6495
11
131.24
21
-98.6584
0
LINE
8
Black
10
131.24
20
-98.6584
11
131.214
21
-98.6584
0
LINE
8
Black
10
131.214
20
-98.6584
11
131.19
21
-98.6495
0
LINE
8
Black
10
131.19
20
-98.6495
11
131.17
21
-98.6327
0
LINE
8
Black
10
131.17
20
-98.6327
11
131.157
21
-98.6102
0
LINE
8
Black
10
131.157
20
-98.6102
11
131.155
21
-98.5989
0
LINE
8
Black
10
131.155
20
-98.5989
11
131.137
21
-98.5989
0
LINE
8
Black
10
131.137
20
-98.5989
11
131.112
21
-98.59
0
LINE
8
Black
10
131.112
20
-98.59
11
131.093
21
-98.5732
0
LINE
8
Black
10
131.093
20
-98.5732
11
131.08
21
-98.5507
0
LINE
8
Black
10
131.08
20
-98.5507
11
131.075
21
-98.525
0
LINE
8
Black
10
131.075
20
-98.525
11
131.075
21
-98.2239
0
LINE
8
Black
10
131.075
20
-98.2239
11
130.709
21
-98.5899
0
LINE
8
Black
10
130.709
20
-98.5899
11
130.705
21
-98.5924
0
LINE
8
Black
10
130.705
20
-98.5924
11
130.703
21
-98.5957
0
LINE
8
Black
10
130.703
20
-98.5957
11
130.695
21
-98.5998
0
LINE
8
Black
10
130.695
20
-98.5998
11
130.688
21
-98.6049
0
LINE
8
Black
10
130.688
20
-98.6049
11
130.683
21
-98.606
0
LINE
8
Black
10
130.683
20
-98.606
11
130.68
21
-98.6081
0
LINE
8
Black
10
130.68
20
-98.6081
11
130.537
21
-98.6557
0
LINE
8
Black
10
130.537
20
-98.6557
11
130.525
21
-98.6574
0
LINE
8
Black
10
130.525
20
-98.6574
11
130.513
21
-98.6595
0
LINE
8
Black
10
130.513
20
-98.6595
11
130.418
21
-98.6595
0
LINE
8
Black
10
130.418
20
-98.6595
11
130.414
21
-98.6588
0
LINE
8
Black
10
130.414
20
-98.6588
11
130.409
21
-98.659
0
LINE
8
Black
10
130.409
20
-98.659
11
130.401
21
-98.6565
0
LINE
8
Black
10
130.401
20
-98.6565
11
130.392
21
-98.655
0
LINE
8
Black
10
130.392
20
-98.655
11
130.388
21
-98.6528
0
LINE
8
Black
10
130.388
20
-98.6528
11
130.384
21
-98.6516
0
LINE
8
Black
10
130.384
20
-98.6516
11
130.289
21
-98.604
0
LINE
8
Black
10
130.289
20
-98.604
11
130.279
21
-98.5968
0
LINE
8
Black
10
130.279
20
-98.5968
11
130.27
21
-98.5899
0
LINE
8
Black
10
130.27
20
-98.5899
11
130.255
21
-98.5753
0
LINE
8
Black
10
130.255
20
-98.5753
11
130.237
21
-98.59
0
LINE
8
Black
10
130.237
20
-98.59
11
130.213
21
-98.5989
0
LINE
8
Black
10
130.213
20
-98.5989
11
130.187
21
-98.5989
0
LINE
8
Black
10
130.187
20
-98.5989
11
130.162
21
-98.59
0
LINE
8
Black
10
130.162
20
-98.59
11
130.143
21
-98.5732
0
LINE
8
Black
10
130.143
20
-98.5732
11
130.13
21
-98.5507
0
LINE
8
Black
10
130.13
20
-98.5507
11
130.125
21
-98.525
0
LINE
8
Black
10
130.125
20
-98.525
11
130.125
21
-98.3739
0
LINE
8
Black
10
130.125
20
-98.3739
11
129.909
21
-98.5899
0
LINE
8
Black
10
129.909
20
-98.5899
11
129.905
21
-98.5924
0
LINE
8
Black
10
129.905
20
-98.5924
11
129.903
21
-98.5957
0
LINE
8
Black
10
129.903
20
-98.5957
11
129.895
21
-98.5998
0
LINE
8
Black
10
129.895
20
-98.5998
11
129.888
21
-98.6049
0
LINE
8
Black
10
129.888
20
-98.6049
11
129.883
21
-98.606
0
LINE
8
Black
10
129.883
20
-98.606
11
129.88
21
-98.6081
0
LINE
8
Black
10
129.88
20
-98.6081
11
129.737
21
-98.6557
0
LINE
8
Black
10
129.737
20
-98.6557
11
129.725
21
-98.6574
0
LINE
8
Black
10
129.725
20
-98.6574
11
129.713
21
-98.6595
0
LINE
8
Black
10
129.713
20
-98.6595
11
129.618
21
-98.6595
0
LINE
8
Black
10
129.618
20
-98.6595
11
129.614
21
-98.6588
0
LINE
8
Black
10
129.614
20
-98.6588
11
129.609
21
-98.659
0
LINE
8
Black
10
129.609
20
-98.659
11
129.601
21
-98.6565
0
LINE
8
Black
10
129.601
20
-98.6565
11
129.592
21
-98.655
0
LINE
8
Black
10
129.592
20
-98.655
11
129.588
21
-98.6528
0
LINE
8
Black
10
129.588
20
-98.6528
11
129.584
21
-98.6516
0
LINE
8
Black
10
129.584
20
-98.6516
11
129.498
21
-98.6085
0
LINE
8
Black
10
129.498
20
-98.6085
11
129.498
21
-98.6102
0
LINE
8
Black
10
129.498
20
-98.6102
11
129.485
21
-98.6327
0
LINE
8
Black
10
129.485
20
-98.6327
11
129.465
21
-98.6495
0
LINE
8
Black
10
129.465
20
-98.6495
11
129.44
21
-98.6584
0
LINE
8
Black
10
129.44
20
-98.6584
11
129.414
21
-98.6584
0
LINE
8
Black
10
129.414
20
-98.6584
11
129.39
21
-98.6495
0
LINE
8
Black
10
129.39
20
-98.6495
11
129.37
21
-98.6327
0
LINE
8
Black
10
129.37
20
-98.6327
11
129.357
21
-98.6102
0
LINE
8
Black
10
129.357
20
-98.6102
11
129.352
21
-98.5845
0
LINE
8
Black
10
129.352
20
-98.5845
11
129.352
21
-98.5815
0
LINE
8
Black
10
129.352
20
-98.5815
11
129.343
21
-98.5732
0
LINE
8
Black
10
129.343
20
-98.5732
11
129.33
21
-98.5507
0
LINE
8
Black
10
129.33
20
-98.5507
11
129.325
21
-98.525
0
LINE
8
Black
10
129.325
20
-98.525
11
129.325
21
-98.3738
0
LINE
8
Black
10
129.325
20
-98.3738
11
129.125
21
-98.3738
0
LINE
8
Black
10
129.125
20
-98.3738
11
128.909
21
-98.5899
0
LINE
8
Black
10
128.909
20
-98.5899
11
128.905
21
-98.5924
0
LINE
8
Black
10
128.905
20
-98.5924
11
128.903
21
-98.5957
0
LINE
8
Black
10
128.903
20
-98.5957
11
128.895
21
-98.5998
0
LINE
8
Black
10
128.895
20
-98.5998
11
128.888
21
-98.6049
0
LINE
8
Black
10
128.888
20
-98.6049
11
128.883
21
-98.606
0
LINE
8
Black
10
128.883
20
-98.606
11
128.88
21
-98.6081
0
LINE
8
Black
10
128.88
20
-98.6081
11
128.737
21
-98.6557
0
LINE
8
Black
10
128.737
20
-98.6557
11
128.725
21
-98.6574
0
LINE
8
Black
10
128.725
20
-98.6574
11
128.713
21
-98.6595
0
LINE
8
Black
10
128.713
20
-98.6595
11
128.618
21
-98.6595
0
LINE
8
Black
10
128.618
20
-98.6595
11
128.614
21
-98.6588
0
LINE
8
Black
10
128.614
20
-98.6588
11
128.609
21
-98.659
0
LINE
8
Black
10
128.609
20
-98.659
11
128.601
21
-98.6565
0
LINE
8
Black
10
128.601
20
-98.6565
11
128.592
21
-98.655
0
LINE
8
Black
10
128.592
20
-98.655
11
128.588
21
-98.6528
0
LINE
8
Black
10
128.588
20
-98.6528
11
128.584
21
-98.6516
0
LINE
8
Black
10
128.584
20
-98.6516
11
128.489
21
-98.604
0
LINE
8
Black
10
128.489
20
-98.604
11
128.479
21
-98.5968
0
LINE
8
Black
10
128.479
20
-98.5968
11
128.47
21
-98.5899
0
LINE
8
Black
10
128.47
20
-98.5899
11
128.422
21
-98.5423
0
LINE
8
Black
10
128.422
20
-98.5423
11
128.415
21
-98.5325
0
LINE
8
Black
10
128.415
20
-98.5325
11
128.408
21
-98.5228
0
LINE
8
Black
10
128.408
20
-98.5228
11
128.36
21
-98.4276
0
LINE
8
Black
10
128.36
20
-98.4276
11
128.359
21
-98.4234
0
LINE
8
Black
10
128.359
20
-98.4234
11
128.357
21
-98.4197
0
LINE
8
Black
10
128.357
20
-98.4197
11
128.355
21
-98.411
0
LINE
8
Black
10
128.355
20
-98.411
11
128.353
21
-98.4026
0
LINE
8
Black
10
128.353
20
-98.4026
11
128.353
21
-98.3983
0
LINE
8
Black
10
128.353
20
-98.3983
11
128.352
21
-98.394
0
LINE
8
Black
10
128.352
20
-98.394
11
128.352
21
-98.3465
0
LINE
8
Black
10
128.352
20
-98.3465
11
128.109
21
-98.5899
0
LINE
8
Black
10
128.109
20
-98.5899
11
128.105
21
-98.5924
0
LINE
8
Black
10
128.105
20
-98.5924
11
128.103
21
-98.5957
0
LINE
8
Black
10
128.103
20
-98.5957
11
128.095
21
-98.5998
0
LINE
8
Black
10
128.095
20
-98.5998
11
128.088
21
-98.6049
0
LINE
8
Black
10
128.088
20
-98.6049
11
128.083
21
-98.606
0
LINE
8
Black
10
128.083
20
-98.606
11
128.08
21
-98.6081
0
LINE
8
Black
10
128.08
20
-98.6081
11
127.937
21
-98.6557
0
LINE
8
Black
10
127.937
20
-98.6557
11
127.925
21
-98.6574
0
LINE
8
Black
10
127.925
20
-98.6574
11
127.913
21
-98.6595
0
LINE
8
Black
10
127.913
20
-98.6595
11
127.818
21
-98.6595
0
LINE
8
Black
10
127.818
20
-98.6595
11
127.814
21
-98.6588
0
LINE
8
Black
10
127.814
20
-98.6588
11
127.809
21
-98.659
0
LINE
8
Black
10
127.809
20
-98.659
11
127.801
21
-98.6565
0
LINE
8
Black
10
127.801
20
-98.6565
11
127.792
21
-98.655
0
LINE
8
Black
10
127.792
20
-98.655
11
127.788
21
-98.6528
0
LINE
8
Black
10
127.788
20
-98.6528
11
127.784
21
-98.6516
0
LINE
8
Black
10
127.784
20
-98.6516
11
127.689
21
-98.604
0
LINE
8
Black
10
127.689
20
-98.604
11
127.679
21
-98.5968
0
LINE
8
Black
10
127.679
20
-98.5968
11
127.67
21
-98.5899
0
LINE
8
Black
10
127.67
20
-98.5899
11
127.622
21
-98.5423
0
LINE
8
Black
10
127.622
20
-98.5423
11
127.615
21
-98.5325
0
LINE
8
Black
10
127.615
20
-98.5325
11
127.608
21
-98.5228
0
LINE
8
Black
10
127.608
20
-98.5228
11
127.56
21
-98.4276
0
LINE
8
Black
10
127.56
20
-98.4276
11
127.559
21
-98.4234
0
LINE
8
Black
10
127.559
20
-98.4234
11
127.557
21
-98.4197
0
LINE
8
Black
10
127.557
20
-98.4197
11
127.555
21
-98.411
0
LINE
8
Black
10
127.555
20
-98.411
11
127.553
21
-98.4026
0
LINE
8
Black
10
127.553
20
-98.4026
11
127.553
21
-98.3983
0
LINE
8
Black
10
127.553
20
-98.3983
11
127.552
21
-98.394
0
LINE
8
Black
10
127.552
20
-98.394
11
127.552
21
-98.156
0
LINE
8
Black
10
127.552
20
-98.156
11
127.553
21
-98.1517
0
LINE
8
Black
10
127.553
20
-98.1517
11
127.553
21
-98.1474
0
LINE
8
Black
10
127.553
20
-98.1474
11
127.555
21
-98.139
0
LINE
8
Black
10
127.555
20
-98.139
11
127.557
21
-98.1303
0
LINE
8
Black
10
127.557
20
-98.1303
11
127.559
21
-98.1266
0
LINE
8
Black
10
127.559
20
-98.1266
11
127.56
21
-98.1224
0
LINE
8
Black
10
127.56
20
-98.1224
11
127.608
21
-98.0272
0
LINE
8
Black
10
127.608
20
-98.0272
11
127.615
21
-98.0175
0
LINE
8
Black
10
127.615
20
-98.0175
11
127.622
21
-98.0077
0
LINE
8
Black
10
127.622
20
-98.0077
11
127.67
21
-97.9601
0
LINE
8
Black
10
127.67
20
-97.9601
11
127.691
21
-97.9451
0
LINE
8
Black
10
127.691
20
-97.9451
11
127.716
21
-97.9384
0
LINE
8
Black
10
127.716
20
-97.9384
11
127.742
21
-97.9407
0
LINE
8
Black
10
127.742
20
-97.9407
11
127.766
21
-97.9517
0
LINE
8
Black
10
127.766
20
-97.9517
11
127.771
21
-97.957
0
LINE
8
Black
10
127.771
20
-97.957
11
127.787
21
-97.9511
0
LINE
8
Black
10
127.787
20
-97.9511
11
127.813
21
-97.9511
0
LINE
8
Black
10
127.813
20
-97.9511
11
127.837
21
-97.96
0
LINE
8
Black
10
127.837
20
-97.96
11
127.857
21
-97.9768
0
LINE
8
Black
10
127.857
20
-97.9768
11
127.87
21
-97.9993
0
LINE
8
Black
10
127.87
20
-97.9993
11
127.875
21
-98.025
0
LINE
8
Black
10
127.875
20
-98.025
11
127.88
21
-97.9993
0
LINE
8
Black
10
128.825
20
-98.3738
11
128.825
21
-98.4618
0
LINE
8
Black
10
128.825
20
-98.4618
11
128.913
21
-98.3738
0
LINE
8
Black
10
128.913
20
-98.3738
11
128.825
21
-98.3738
0
LINE
8
Black
10
127.702
20
-98.1737
11
127.702
21
-98.3763
0
LINE
8
Black
10
127.702
20
-98.3763
11
127.725
21
-98.4216
0
LINE
8
Black
10
127.725
20
-98.4216
11
127.725
21
-98.1284
0
LINE
8
Black
10
127.725
20
-98.1284
11
127.702
21
-98.1737
0
LINE
8
Black
10
128.502
20
-98.1965
11
128.502
21
-98.3763
0
LINE
8
Black
10
128.502
20
-98.3763
11
128.525
21
-98.4216
0
LINE
8
Black
10
128.525
20
-98.4216
11
128.525
21
-98.1739
0
LINE
8
Black
10
128.525
20
-98.1739
11
128.502
21
-98.1965
0
LINE
8
Black
10
129.275
20
-98.2238
11
129.325
21
-98.2238
0
LINE
8
Black
10
129.325
20
-98.2238
11
129.325
21
-98.1739
0
LINE
8
Black
10
129.325
20
-98.1739
11
129.275
21
-98.2238
  0
ENDSEC
  0
EOF
