  0
SECTION
  2
HEADER
  9
$ANGBASE
  50
0.0
  9
$ANGDIR
  70
  1
  9
$MEASUREMENT
  70
0
  0
ENDSEC
  0
SECTION
  2
TABLES
  0
TABLE
  2
LTYPE
  70
1
  0
LTYPE
  2
CONTINUOUS
  70
0
  3
Solid line
  72
65
  73
0
  40
0.0
  0
ENDTAB
  0
TABLE
  2
STYLE
  70
4
  0
STYLE
  2
KICAD
  70
0
  40
0
  41
1
  42
1
  50
0
  71
0
  3
isocp.shx
  0
STYLE
  2
KICADB
  70
0
  40
0
  41
1
  42
1
  50
0
  71
0
  3
isocp.shx
  0
STYLE
  2
KICADI
  70
0
  40
0
  41
1
  42
1
  50
15
  71
0
  3
isocp.shx
  0
STYLE
  2
KICADBI
  70
0
  40
0
  41
1
  42
1
  50
15
  71
0
  3
isocp.shx
  0
ENDTAB
  0
TABLE
  2
LAYER
  70
30
  0
LAYER
  2
BLACK
  70
0
  62
7
  6
CONTINUOUS
  0
LAYER
  2
GRAY1
  70
0
  62
251
  6
CONTINUOUS
  0
LAYER
  2
GRAY2
  70
0
  62
8
  6
CONTINUOUS
  0
LAYER
  2
GRAY3
  70
0
  62
9
  6
CONTINUOUS
  0
LAYER
  2
WHITE
  70
0
  62
7
  6
CONTINUOUS
  0
LAYER
  2
LYELLOW
  70
0
  62
51
  6
CONTINUOUS
  0
LAYER
  2
BLUE1
  70
0
  62
178
  6
CONTINUOUS
  0
LAYER
  2
GREEN1
  70
0
  62
98
  6
CONTINUOUS
  0
LAYER
  2
CYAN1
  70
0
  62
138
  6
CONTINUOUS
  0
LAYER
  2
RED1
  70
0
  62
18
  6
CONTINUOUS
  0
LAYER
  2
MAGENTA1
  70
0
  62
228
  6
CONTINUOUS
  0
LAYER
  2
BROWN1
  70
0
  62
58
  6
CONTINUOUS
  0
LAYER
  2
BLUE2
  70
0
  62
5
  6
CONTINUOUS
  0
LAYER
  2
GREEN2
  70
0
  62
3
  6
CONTINUOUS
  0
LAYER
  2
CYAN2
  70
0
  62
4
  6
CONTINUOUS
  0
LAYER
  2
RED2
  70
0
  62
1
  6
CONTINUOUS
  0
LAYER
  2
MAGENTA2
  70
0
  62
6
  6
CONTINUOUS
  0
LAYER
  2
BROWN2
  70
0
  62
54
  6
CONTINUOUS
  0
LAYER
  2
BLUE3
  70
0
  62
171
  6
CONTINUOUS
  0
LAYER
  2
GREEN3
  70
0
  62
91
  6
CONTINUOUS
  0
LAYER
  2
CYAN3
  70
0
  62
131
  6
CONTINUOUS
  0
LAYER
  2
RED3
  70
0
  62
11
  6
CONTINUOUS
  0
LAYER
  2
MAGENTA3
  70
0
  62
221
  6
CONTINUOUS
  0
LAYER
  2
YELLOW3
  70
0
  62
2
  6
CONTINUOUS
  0
LAYER
  2
BLUE4
  70
0
  62
5
  6
CONTINUOUS
  0
LAYER
  2
GREEN4
  70
0
  62
3
  6
CONTINUOUS
  0
LAYER
  2
CYAN4
  70
0
  62
4
  6
CONTINUOUS
  0
LAYER
  2
RED4
  70
0
  62
1
  6
CONTINUOUS
  0
LAYER
  2
MAGENTA4
  70
0
  62
6
  6
CONTINUOUS
  0
LAYER
  2
YELLOW4
  70
0
  62
2
  6
CONTINUOUS
  0
ENDTAB
  0
ENDSEC
  0
SECTION
  2
ENTITIES
0
LINE
8
Black
10
118.13
20
-103.912
11
118.222
21
-103.966
0
LINE
8
Black
10
118.222
20
-103.966
11
118.29
21
-104.047
0
LINE
8
Black
10
118.29
20
-104.047
11
118.326
21
-104.147
0
LINE
8
Black
10
118.326
20
-104.147
11
118.326
21
-104.253
0
LINE
8
Black
10
118.326
20
-104.253
11
118.29
21
-104.353
0
LINE
8
Black
10
118.29
20
-104.353
11
118.222
21
-104.434
0
LINE
8
Black
10
118.222
20
-104.434
11
118.13
21
-104.488
0
LINE
8
Black
10
118.13
20
-104.488
11
118.125
21
-104.488
0
LINE
8
Black
10
118.125
20
-104.488
11
118.125
21
-105.425
0
LINE
8
Black
10
118.125
20
-105.425
11
119.3
21
-105.425
0
LINE
8
Black
10
119.3
20
-105.425
11
119.309
21
-105.427
0
LINE
8
Black
10
119.309
20
-105.427
11
119.317
21
-105.427
0
LINE
8
Black
10
119.317
20
-105.427
11
119.326
21
-105.43
0
LINE
8
Black
10
119.326
20
-105.43
11
119.334
21
-105.431
0
LINE
8
Black
10
119.334
20
-105.431
11
119.342
21
-105.435
0
LINE
8
Black
10
119.342
20
-105.435
11
119.35
21
-105.438
0
LINE
8
Black
10
119.35
20
-105.438
11
119.357
21
-105.444
0
LINE
8
Black
10
119.357
20
-105.444
11
119.364
21
-105.448
0
LINE
8
Black
10
119.364
20
-105.448
11
119.37
21
-105.455
0
LINE
8
Black
10
119.37
20
-105.455
11
119.377
21
-105.461
0
LINE
8
Black
10
119.377
20
-105.461
11
119.381
21
-105.468
0
LINE
8
Black
10
119.381
20
-105.468
11
119.387
21
-105.475
0
LINE
8
Black
10
119.387
20
-105.475
11
119.39
21
-105.483
0
LINE
8
Black
10
119.39
20
-105.483
11
119.394
21
-105.491
0
LINE
8
Black
10
119.394
20
-105.491
11
119.395
21
-105.499
0
LINE
8
Black
10
119.395
20
-105.499
11
119.398
21
-105.508
0
LINE
8
Black
10
119.398
20
-105.508
11
119.398
21
-105.516
0
LINE
8
Black
10
119.398
20
-105.516
11
119.4
21
-105.525
0
LINE
8
Black
10
119.4
20
-105.525
11
119.4
21
-109.337
0
LINE
8
Black
10
119.4
20
-109.337
11
119.405
21
-109.337
0
LINE
8
Black
10
119.405
20
-109.337
11
119.497
21
-109.391
0
LINE
8
Black
10
119.497
20
-109.391
11
119.565
21
-109.472
0
LINE
8
Black
10
119.565
20
-109.472
11
119.601
21
-109.572
0
LINE
8
Black
10
119.601
20
-109.572
11
119.601
21
-109.678
0
LINE
8
Black
10
119.601
20
-109.678
11
119.565
21
-109.778
0
LINE
8
Black
10
119.565
20
-109.778
11
119.497
21
-109.859
0
LINE
8
Black
10
119.497
20
-109.859
11
119.405
21
-109.913
0
LINE
8
Black
10
119.405
20
-109.913
11
119.3
21
-109.931
0
LINE
8
Black
10
119.3
20
-109.931
11
119.195
21
-109.913
0
LINE
8
Black
10
119.195
20
-109.913
11
119.103
21
-109.859
0
LINE
8
Black
10
119.103
20
-109.859
11
119.035
21
-109.778
0
LINE
8
Black
10
119.035
20
-109.778
11
119.016
21
-109.725
0
LINE
8
Black
10
119.016
20
-109.725
11
118.825
21
-109.725
0
LINE
8
Black
10
118.825
20
-109.725
11
118.821
21
-109.724
0
LINE
8
Black
10
118.821
20
-109.724
11
118.816
21
-109.725
0
LINE
8
Black
10
118.816
20
-109.725
11
118.804
21
-109.721
0
LINE
8
Black
10
118.804
20
-109.721
11
118.791
21
-109.719
0
LINE
8
Black
10
118.791
20
-109.719
11
118.787
21
-109.717
0
LINE
8
Black
10
118.787
20
-109.717
11
118.783
21
-109.716
0
LINE
8
Black
10
118.783
20
-109.716
11
118.772
21
-109.708
0
LINE
8
Black
10
118.772
20
-109.708
11
118.761
21
-109.702
0
LINE
8
Black
10
118.761
20
-109.702
11
118.758
21
-109.698
0
LINE
8
Black
10
118.758
20
-109.698
11
118.754
21
-109.696
0
LINE
8
Black
10
118.754
20
-109.696
11
118.28
21
-109.221
0
LINE
8
Black
10
118.28
20
-109.221
11
117.508
21
-109.221
0
LINE
8
Black
10
117.508
20
-109.221
11
117.508
21
-108.321
0
LINE
8
Black
10
117.508
20
-108.321
11
118.708
21
-108.321
0
LINE
8
Black
10
118.708
20
-108.321
11
118.708
21
-109.221
0
LINE
8
Black
10
118.708
20
-109.221
11
118.563
21
-109.221
0
LINE
8
Black
10
118.563
20
-109.221
11
118.866
21
-109.525
0
LINE
8
Black
10
118.866
20
-109.525
11
119.016
21
-109.525
0
LINE
8
Black
10
119.016
20
-109.525
11
119.035
21
-109.472
0
LINE
8
Black
10
119.035
20
-109.472
11
119.103
21
-109.391
0
LINE
8
Black
10
119.103
20
-109.391
11
119.195
21
-109.337
0
LINE
8
Black
10
119.195
20
-109.337
11
119.2
21
-109.337
0
LINE
8
Black
10
119.2
20
-109.337
11
119.2
21
-105.625
0
LINE
8
Black
10
119.2
20
-105.625
11
118.025
21
-105.625
0
LINE
8
Black
10
118.025
20
-105.625
11
118.016
21
-105.623
0
LINE
8
Black
10
118.016
20
-105.623
11
118.008
21
-105.623
0
LINE
8
Black
10
118.008
20
-105.623
11
117.999
21
-105.62
0
LINE
8
Black
10
117.999
20
-105.62
11
117.991
21
-105.619
0
LINE
8
Black
10
117.991
20
-105.619
11
117.983
21
-105.615
0
LINE
8
Black
10
117.983
20
-105.615
11
117.975
21
-105.612
0
LINE
8
Black
10
117.975
20
-105.612
11
117.968
21
-105.606
0
LINE
8
Black
10
117.968
20
-105.606
11
117.961
21
-105.602
0
LINE
8
Black
10
117.961
20
-105.602
11
117.955
21
-105.595
0
LINE
8
Black
10
117.955
20
-105.595
11
117.948
21
-105.589
0
LINE
8
Black
10
117.948
20
-105.589
11
117.944
21
-105.582
0
LINE
8
Black
10
117.944
20
-105.582
11
117.938
21
-105.575
0
LINE
8
Black
10
117.938
20
-105.575
11
117.935
21
-105.567
0
LINE
8
Black
10
117.935
20
-105.567
11
117.931
21
-105.559
0
LINE
8
Black
10
117.931
20
-105.559
11
117.93
21
-105.551
0
LINE
8
Black
10
117.93
20
-105.551
11
117.927
21
-105.542
0
LINE
8
Black
10
117.927
20
-105.542
11
117.927
21
-105.534
0
LINE
8
Black
10
117.927
20
-105.534
11
117.925
21
-105.525
0
LINE
8
Black
10
117.925
20
-105.525
11
117.925
21
-104.488
0
LINE
8
Black
10
117.925
20
-104.488
11
117.92
21
-104.488
0
LINE
8
Black
10
117.92
20
-104.488
11
117.828
21
-104.434
0
LINE
8
Black
10
117.828
20
-104.434
11
117.76
21
-104.353
0
LINE
8
Black
10
117.76
20
-104.353
11
117.724
21
-104.253
0
LINE
8
Black
10
117.724
20
-104.253
11
117.724
21
-104.147
0
LINE
8
Black
10
117.724
20
-104.147
11
117.76
21
-104.047
0
LINE
8
Black
10
117.76
20
-104.047
11
117.828
21
-103.966
0
LINE
8
Black
10
117.828
20
-103.966
11
117.92
21
-103.912
0
LINE
8
Black
10
117.92
20
-103.912
11
118.025
21
-103.894
0
LINE
8
Black
10
118.025
20
-103.894
11
118.13
21
-103.912
0
LINE
8
Black
10
82.5546
20
-106.437
11
82.6467
21
-106.491
0
LINE
8
Black
10
82.6467
20
-106.491
11
82.715
21
-106.572
0
LINE
8
Black
10
82.715
20
-106.572
11
82.7513
21
-106.672
0
LINE
8
Black
10
82.7513
20
-106.672
11
82.7513
21
-106.778
0
LINE
8
Black
10
82.7513
20
-106.778
11
82.7228
21
-106.856
0
LINE
8
Black
10
82.7228
20
-106.856
11
82.7914
21
-106.925
0
LINE
8
Black
10
82.7914
20
-106.925
11
84.45
21
-106.925
0
LINE
8
Black
10
84.45
20
-106.925
11
84.4543
21
-106.926
0
LINE
8
Black
10
84.4543
20
-106.926
11
84.4587
21
-106.925
0
LINE
8
Black
10
84.4587
20
-106.925
11
84.4713
21
-106.929
0
LINE
8
Black
10
84.4713
20
-106.929
11
84.4842
21
-106.931
0
LINE
8
Black
10
84.4842
20
-106.931
11
84.488
21
-106.933
0
LINE
8
Black
10
84.488
20
-106.933
11
84.4923
21
-106.934
0
LINE
8
Black
10
84.4923
20
-106.934
11
84.503
21
-106.942
0
LINE
8
Black
10
84.503
20
-106.942
11
84.5143
21
-106.948
0
LINE
8
Black
10
84.5143
20
-106.948
11
84.5171
21
-106.952
0
LINE
8
Black
10
84.5171
20
-106.952
11
84.5207
21
-106.954
0
LINE
8
Black
10
84.5207
20
-106.954
11
84.7957
21
-107.229
0
LINE
8
Black
10
84.7957
20
-107.229
11
84.7982
21
-107.233
0
LINE
8
Black
10
84.7982
20
-107.233
11
84.8016
21
-107.236
0
LINE
8
Black
10
84.8016
20
-107.236
11
84.8081
21
-107.247
0
LINE
8
Black
10
84.8081
20
-107.247
11
84.8156
21
-107.258
0
LINE
8
Black
10
84.8156
20
-107.258
11
84.8168
21
-107.262
0
LINE
8
Black
10
84.8168
20
-107.262
11
84.819
21
-107.266
0
LINE
8
Black
10
84.819
20
-107.266
11
84.8206
21
-107.275
0
LINE
8
Black
10
84.8206
20
-107.275
11
84.9
21
-107.275
0
LINE
8
Black
10
84.9
20
-107.275
11
84.9
21
-107.35
0
LINE
8
Black
10
84.9
20
-107.35
11
84.925
21
-107.35
0
LINE
8
Black
10
84.925
20
-107.35
11
84.9293
21
-107.351
0
LINE
8
Black
10
84.9293
20
-107.351
11
84.9337
21
-107.35
0
LINE
8
Black
10
84.9337
20
-107.35
11
84.9463
21
-107.354
0
LINE
8
Black
10
84.9463
20
-107.354
11
84.9592
21
-107.356
0
LINE
8
Black
10
84.9592
20
-107.356
11
84.963
21
-107.358
0
LINE
8
Black
10
84.963
20
-107.358
11
84.9673
21
-107.359
0
LINE
8
Black
10
84.9673
20
-107.359
11
84.978
21
-107.367
0
LINE
8
Black
10
84.978
20
-107.367
11
84.9893
21
-107.373
0
LINE
8
Black
10
84.9893
20
-107.373
11
84.9921
21
-107.377
0
LINE
8
Black
10
84.9921
20
-107.377
11
84.9957
21
-107.379
0
LINE
8
Black
10
84.9957
20
-107.379
11
85.6207
21
-108.004
0
LINE
8
Black
10
85.6207
20
-108.004
11
85.6232
21
-108.008
0
LINE
8
Black
10
85.6232
20
-108.008
11
85.6266
21
-108.011
0
LINE
8
Black
10
85.6266
20
-108.011
11
85.6331
21
-108.022
0
LINE
8
Black
10
85.6331
20
-108.022
11
85.6406
21
-108.033
0
LINE
8
Black
10
85.6406
20
-108.033
11
85.6418
21
-108.037
0
LINE
8
Black
10
85.6418
20
-108.037
11
85.644
21
-108.041
0
LINE
8
Black
10
85.644
20
-108.041
11
85.6462
21
-108.054
0
LINE
8
Black
10
85.6462
20
-108.054
11
85.6496
21
-108.066
0
LINE
8
Black
10
85.6496
20
-108.066
11
85.6492
21
-108.071
0
LINE
8
Black
10
85.6492
20
-108.071
11
85.65
21
-108.075
0
LINE
8
Black
10
85.65
20
-108.075
11
85.65
21
-108.875
0
LINE
8
Black
10
85.65
20
-108.875
11
85.6492
21
-108.879
0
LINE
8
Black
10
85.6492
20
-108.879
11
85.6496
21
-108.884
0
LINE
8
Black
10
85.6496
20
-108.884
11
85.6462
21
-108.896
0
LINE
8
Black
10
85.6462
20
-108.896
11
85.644
21
-108.909
0
LINE
8
Black
10
85.644
20
-108.909
11
85.6418
21
-108.913
0
LINE
8
Black
10
85.6418
20
-108.913
11
85.6406
21
-108.917
0
LINE
8
Black
10
85.6406
20
-108.917
11
85.6331
21
-108.928
0
LINE
8
Black
10
85.6331
20
-108.928
11
85.6266
21
-108.939
0
LINE
8
Black
10
85.6266
20
-108.939
11
85.6232
21
-108.942
0
LINE
8
Black
10
85.6232
20
-108.942
11
85.6207
21
-108.946
0
LINE
8
Black
10
85.6207
20
-108.946
11
84.7707
21
-109.796
0
LINE
8
Black
10
84.7707
20
-109.796
11
84.7671
21
-109.798
0
LINE
8
Black
10
84.7671
20
-109.798
11
84.7643
21
-109.802
0
LINE
8
Black
10
84.7643
20
-109.802
11
84.753
21
-109.808
0
LINE
8
Black
10
84.753
20
-109.808
11
84.7423
21
-109.816
0
LINE
8
Black
10
84.7423
20
-109.816
11
84.738
21
-109.817
0
LINE
8
Black
10
84.738
20
-109.817
11
84.7342
21
-109.819
0
LINE
8
Black
10
84.7342
20
-109.819
11
84.7213
21
-109.821
0
LINE
8
Black
10
84.7213
20
-109.821
11
84.7087
21
-109.825
0
LINE
8
Black
10
84.7087
20
-109.825
11
84.7043
21
-109.824
0
LINE
8
Black
10
84.7043
20
-109.824
11
84.7
21
-109.825
0
LINE
8
Black
10
84.7
20
-109.825
11
83.3
21
-109.825
0
LINE
8
Black
10
83.3
20
-109.825
11
83.2957
21
-109.824
0
LINE
8
Black
10
83.2957
20
-109.824
11
83.2913
21
-109.825
0
LINE
8
Black
10
83.2913
20
-109.825
11
83.2787
21
-109.821
0
LINE
8
Black
10
83.2787
20
-109.821
11
83.2658
21
-109.819
0
LINE
8
Black
10
83.2658
20
-109.819
11
83.262
21
-109.817
0
LINE
8
Black
10
83.262
20
-109.817
11
83.2577
21
-109.816
0
LINE
8
Black
10
83.2577
20
-109.816
11
83.247
21
-109.808
0
LINE
8
Black
10
83.247
20
-109.808
11
83.2357
21
-109.802
0
LINE
8
Black
10
83.2357
20
-109.802
11
83.2329
21
-109.798
0
LINE
8
Black
10
83.2329
20
-109.798
11
83.2313
21
-109.797
0
LINE
8
Black
10
83.2313
20
-109.797
11
83.2046
21
-109.813
0
LINE
8
Black
10
83.2046
20
-109.813
11
83.1
21
-109.831
0
LINE
8
Black
10
83.1
20
-109.831
11
82.9954
21
-109.813
0
LINE
8
Black
10
82.9954
20
-109.813
11
82.9033
21
-109.759
0
LINE
8
Black
10
82.9033
20
-109.759
11
82.835
21
-109.678
0
LINE
8
Black
10
82.835
20
-109.678
11
82.7987
21
-109.578
0
LINE
8
Black
10
82.7987
20
-109.578
11
82.7987
21
-109.472
0
LINE
8
Black
10
82.7987
20
-109.472
11
82.835
21
-109.372
0
LINE
8
Black
10
82.835
20
-109.372
11
82.9033
21
-109.291
0
LINE
8
Black
10
82.9033
20
-109.291
11
82.9954
21
-109.237
0
LINE
8
Black
10
82.9954
20
-109.237
11
83.1
21
-109.219
0
LINE
8
Black
10
83.1
20
-109.219
11
83.2046
21
-109.237
0
LINE
8
Black
10
83.2046
20
-109.237
11
83.2967
21
-109.291
0
LINE
8
Black
10
83.2967
20
-109.291
11
83.365
21
-109.372
0
LINE
8
Black
10
83.365
20
-109.372
11
83.4013
21
-109.472
0
LINE
8
Black
10
83.4013
20
-109.472
11
83.4013
21
-109.578
0
LINE
8
Black
10
83.4013
20
-109.578
11
83.3843
21
-109.625
0
LINE
8
Black
10
83.3843
20
-109.625
11
84.6586
21
-109.625
0
LINE
8
Black
10
84.6586
20
-109.625
11
85.45
21
-108.834
0
LINE
8
Black
10
85.45
20
-108.834
11
85.45
21
-108.116
0
LINE
8
Black
10
85.45
20
-108.116
11
84.9
21
-107.566
0
LINE
8
Black
10
84.9
20
-107.566
11
84.9
21
-107.625
0
LINE
8
Black
10
84.9
20
-107.625
11
84.8206
21
-107.625
0
LINE
8
Black
10
84.8206
20
-107.625
11
84.819
21
-107.634
0
LINE
8
Black
10
84.819
20
-107.634
11
84.8168
21
-107.638
0
LINE
8
Black
10
84.8168
20
-107.638
11
84.8156
21
-107.642
0
LINE
8
Black
10
84.8156
20
-107.642
11
84.8081
21
-107.653
0
LINE
8
Black
10
84.8081
20
-107.653
11
84.8016
21
-107.664
0
LINE
8
Black
10
84.8016
20
-107.664
11
84.7982
21
-107.667
0
LINE
8
Black
10
84.7982
20
-107.667
11
84.7957
21
-107.671
0
LINE
8
Black
10
84.7957
20
-107.671
11
84.175
21
-108.291
0
LINE
8
Black
10
84.175
20
-108.291
11
84.175
21
-108.725
0
LINE
8
Black
10
84.175
20
-108.725
11
84.25
21
-108.725
0
LINE
8
Black
10
84.25
20
-108.725
11
84.25
21
-109.075
0
LINE
8
Black
10
84.25
20
-109.075
11
83.9
21
-109.075
0
LINE
8
Black
10
83.9
20
-109.075
11
83.9
21
-108.725
0
LINE
8
Black
10
83.9
20
-108.725
11
83.975
21
-108.725
0
LINE
8
Black
10
83.975
20
-108.725
11
83.975
21
-108.25
0
LINE
8
Black
10
83.975
20
-108.25
11
83.9758
21
-108.246
0
LINE
8
Black
10
83.9758
20
-108.246
11
83.9754
21
-108.241
0
LINE
8
Black
10
83.9754
20
-108.241
11
83.9788
21
-108.229
0
LINE
8
Black
10
83.9788
20
-108.229
11
83.981
21
-108.216
0
LINE
8
Black
10
83.981
20
-108.216
11
83.9832
21
-108.212
0
LINE
8
Black
10
83.9832
20
-108.212
11
83.9844
21
-108.208
0
LINE
8
Black
10
83.9844
20
-108.208
11
83.9919
21
-108.197
0
LINE
8
Black
10
83.9919
20
-108.197
11
83.9984
21
-108.186
0
LINE
8
Black
10
83.9984
20
-108.186
11
84.0018
21
-108.183
0
LINE
8
Black
10
84.0018
20
-108.183
11
84.0043
21
-108.179
0
LINE
8
Black
10
84.0043
20
-108.179
11
84.5586
21
-107.625
0
LINE
8
Black
10
84.5586
20
-107.625
11
84.55
21
-107.625
0
LINE
8
Black
10
84.55
20
-107.625
11
84.55
21
-107.275
0
LINE
8
Black
10
84.55
20
-107.275
11
84.5586
21
-107.275
0
LINE
8
Black
10
84.5586
20
-107.275
11
84.4086
21
-107.125
0
LINE
8
Black
10
84.4086
20
-107.125
11
82.75
21
-107.125
0
LINE
8
Black
10
82.75
20
-107.125
11
82.7457
21
-107.124
0
LINE
8
Black
10
82.7457
20
-107.124
11
82.7413
21
-107.125
0
LINE
8
Black
10
82.7413
20
-107.125
11
82.7287
21
-107.121
0
LINE
8
Black
10
82.7287
20
-107.121
11
82.7158
21
-107.119
0
LINE
8
Black
10
82.7158
20
-107.119
11
82.712
21
-107.117
0
LINE
8
Black
10
82.712
20
-107.117
11
82.7077
21
-107.116
0
LINE
8
Black
10
82.7077
20
-107.116
11
82.697
21
-107.108
0
LINE
8
Black
10
82.697
20
-107.108
11
82.6857
21
-107.102
0
LINE
8
Black
10
82.6857
20
-107.102
11
82.6829
21
-107.098
0
LINE
8
Black
10
82.6829
20
-107.098
11
82.6793
21
-107.096
0
LINE
8
Black
10
82.6793
20
-107.096
11
82.5809
21
-106.997
0
LINE
8
Black
10
82.5809
20
-106.997
11
82.5546
21
-107.013
0
LINE
8
Black
10
82.5546
20
-107.013
11
82.45
21
-107.031
0
LINE
8
Black
10
82.45
20
-107.031
11
82.3454
21
-107.013
0
LINE
8
Black
10
82.3454
20
-107.013
11
82.2533
21
-106.959
0
LINE
8
Black
10
82.2533
20
-106.959
11
82.185
21
-106.878
0
LINE
8
Black
10
82.185
20
-106.878
11
82.1487
21
-106.778
0
LINE
8
Black
10
82.1487
20
-106.778
11
82.1487
21
-106.672
0
LINE
8
Black
10
82.1487
20
-106.672
11
82.185
21
-106.572
0
LINE
8
Black
10
82.185
20
-106.572
11
82.2533
21
-106.491
0
LINE
8
Black
10
82.2533
20
-106.491
11
82.3454
21
-106.437
0
LINE
8
Black
10
82.3454
20
-106.437
11
82.45
21
-106.419
0
LINE
8
Black
10
82.45
20
-106.419
11
82.5546
21
-106.437
0
LINE
8
Black
10
85.0046
20
-107.937
11
85.0967
21
-107.991
0
LINE
8
Black
10
85.0967
20
-107.991
11
85.165
21
-108.072
0
LINE
8
Black
10
85.165
20
-108.072
11
85.2013
21
-108.172
0
LINE
8
Black
10
85.2013
20
-108.172
11
85.2013
21
-108.278
0
LINE
8
Black
10
85.2013
20
-108.278
11
85.165
21
-108.378
0
LINE
8
Black
10
85.165
20
-108.378
11
85.0967
21
-108.459
0
LINE
8
Black
10
85.0967
20
-108.459
11
85.0046
21
-108.513
0
LINE
8
Black
10
85.0046
20
-108.513
11
84.9
21
-108.531
0
LINE
8
Black
10
84.9
20
-108.531
11
84.825
21
-108.518
0
LINE
8
Black
10
84.825
20
-108.518
11
84.825
21
-108.725
0
LINE
8
Black
10
84.825
20
-108.725
11
84.9
21
-108.725
0
LINE
8
Black
10
84.9
20
-108.725
11
84.9
21
-109.075
0
LINE
8
Black
10
84.9
20
-109.075
11
84.8206
21
-109.075
0
LINE
8
Black
10
84.8206
20
-109.075
11
84.819
21
-109.084
0
LINE
8
Black
10
84.819
20
-109.084
11
84.8168
21
-109.088
0
LINE
8
Black
10
84.8168
20
-109.088
11
84.8156
21
-109.092
0
LINE
8
Black
10
84.8156
20
-109.092
11
84.8081
21
-109.103
0
LINE
8
Black
10
84.8081
20
-109.103
11
84.8016
21
-109.114
0
LINE
8
Black
10
84.8016
20
-109.114
11
84.7982
21
-109.117
0
LINE
8
Black
10
84.7982
20
-109.117
11
84.7957
21
-109.121
0
LINE
8
Black
10
84.7957
20
-109.121
11
84.5207
21
-109.396
0
LINE
8
Black
10
84.5207
20
-109.396
11
84.5171
21
-109.398
0
LINE
8
Black
10
84.5171
20
-109.398
11
84.5143
21
-109.402
0
LINE
8
Black
10
84.5143
20
-109.402
11
84.503
21
-109.408
0
LINE
8
Black
10
84.503
20
-109.408
11
84.4923
21
-109.416
0
LINE
8
Black
10
84.4923
20
-109.416
11
84.488
21
-109.417
0
LINE
8
Black
10
84.488
20
-109.417
11
84.4842
21
-109.419
0
LINE
8
Black
10
84.4842
20
-109.419
11
84.4713
21
-109.421
0
LINE
8
Black
10
84.4713
20
-109.421
11
84.4587
21
-109.425
0
LINE
8
Black
10
84.4587
20
-109.425
11
84.4543
21
-109.424
0
LINE
8
Black
10
84.4543
20
-109.424
11
84.45
21
-109.425
0
LINE
8
Black
10
84.45
20
-109.425
11
83.7
21
-109.425
0
LINE
8
Black
10
83.7
20
-109.425
11
83.6957
21
-109.424
0
LINE
8
Black
10
83.6957
20
-109.424
11
83.6913
21
-109.425
0
LINE
8
Black
10
83.6913
20
-109.425
11
83.6787
21
-109.421
0
LINE
8
Black
10
83.6787
20
-109.421
11
83.6658
21
-109.419
0
LINE
8
Black
10
83.6658
20
-109.419
11
83.662
21
-109.417
0
LINE
8
Black
10
83.662
20
-109.417
11
83.6577
21
-109.416
0
LINE
8
Black
10
83.6577
20
-109.416
11
83.647
21
-109.408
0
LINE
8
Black
10
83.647
20
-109.408
11
83.6357
21
-109.402
0
LINE
8
Black
10
83.6357
20
-109.402
11
83.6329
21
-109.398
0
LINE
8
Black
10
83.6329
20
-109.398
11
83.6293
21
-109.396
0
LINE
8
Black
10
83.6293
20
-109.396
11
83.3543
21
-109.121
0
LINE
8
Black
10
83.3543
20
-109.121
11
83.3518
21
-109.117
0
LINE
8
Black
10
83.3518
20
-109.117
11
83.3484
21
-109.114
0
LINE
8
Black
10
83.3484
20
-109.114
11
83.3419
21
-109.103
0
LINE
8
Black
10
83.3419
20
-109.103
11
83.3344
21
-109.092
0
LINE
8
Black
10
83.3344
20
-109.092
11
83.3332
21
-109.088
0
LINE
8
Black
10
83.3332
20
-109.088
11
83.331
21
-109.084
0
LINE
8
Black
10
83.331
20
-109.084
11
83.3294
21
-109.075
0
LINE
8
Black
10
83.3294
20
-109.075
11
83.25
21
-109.075
0
LINE
8
Black
10
83.25
20
-109.075
11
83.25
21
-108.725
0
LINE
8
Black
10
83.25
20
-108.725
11
83.6
21
-108.725
0
LINE
8
Black
10
83.6
20
-108.725
11
83.6
21
-109.075
0
LINE
8
Black
10
83.6
20
-109.075
11
83.5914
21
-109.075
0
LINE
8
Black
10
83.5914
20
-109.075
11
83.7414
21
-109.225
0
LINE
8
Black
10
83.7414
20
-109.225
11
84.4086
21
-109.225
0
LINE
8
Black
10
84.4086
20
-109.225
11
84.5586
21
-109.075
0
LINE
8
Black
10
84.5586
20
-109.075
11
84.55
21
-109.075
0
LINE
8
Black
10
84.55
20
-109.075
11
84.55
21
-108.725
0
LINE
8
Black
10
84.55
20
-108.725
11
84.625
21
-108.725
0
LINE
8
Black
10
84.625
20
-108.725
11
84.625
21
-108.4
0
LINE
8
Black
10
84.625
20
-108.4
11
84.6258
21
-108.396
0
LINE
8
Black
10
84.6258
20
-108.396
11
84.6254
21
-108.391
0
LINE
8
Black
10
84.6254
20
-108.391
11
84.6288
21
-108.379
0
LINE
8
Black
10
84.6288
20
-108.379
11
84.6309
21
-108.367
0
LINE
8
Black
10
84.6309
20
-108.367
11
84.5987
21
-108.278
0
LINE
8
Black
10
84.5987
20
-108.278
11
84.5987
21
-108.172
0
LINE
8
Black
10
84.5987
20
-108.172
11
84.635
21
-108.072
0
LINE
8
Black
10
84.635
20
-108.072
11
84.7033
21
-107.991
0
LINE
8
Black
10
84.7033
20
-107.991
11
84.7954
21
-107.937
0
LINE
8
Black
10
84.7954
20
-107.937
11
84.9
21
-107.919
0
LINE
8
Black
10
84.9
20
-107.919
11
85.0046
21
-107.937
0
LINE
8
Black
10
114.73
20
-105.962
11
114.822
21
-106.016
0
LINE
8
Black
10
114.822
20
-106.016
11
114.89
21
-106.097
0
LINE
8
Black
10
114.89
20
-106.097
11
114.926
21
-106.197
0
LINE
8
Black
10
114.926
20
-106.197
11
114.926
21
-106.303
0
LINE
8
Black
10
114.926
20
-106.303
11
114.89
21
-106.403
0
LINE
8
Black
10
114.89
20
-106.403
11
114.822
21
-106.484
0
LINE
8
Black
10
114.822
20
-106.484
11
114.73
21
-106.538
0
LINE
8
Black
10
114.73
20
-106.538
11
114.625
21
-106.556
0
LINE
8
Black
10
114.625
20
-106.556
11
114.525
21
-106.538
0
LINE
8
Black
10
114.525
20
-106.538
11
114.525
21
-107.909
0
LINE
8
Black
10
114.525
20
-107.909
11
114.938
21
-108.321
0
LINE
8
Black
10
114.938
20
-108.321
11
115.908
21
-108.321
0
LINE
8
Black
10
115.908
20
-108.321
11
115.908
21
-109.221
0
LINE
8
Black
10
115.908
20
-109.221
11
114.708
21
-109.221
0
LINE
8
Black
10
114.708
20
-109.221
11
114.708
21
-108.375
0
LINE
8
Black
10
114.708
20
-108.375
11
114.354
21
-108.021
0
LINE
8
Black
10
114.354
20
-108.021
11
114.352
21
-108.017
0
LINE
8
Black
10
114.352
20
-108.017
11
114.348
21
-108.014
0
LINE
8
Black
10
114.348
20
-108.014
11
114.342
21
-108.003
0
LINE
8
Black
10
114.342
20
-108.003
11
114.334
21
-107.992
0
LINE
8
Black
10
114.334
20
-107.992
11
114.333
21
-107.988
0
LINE
8
Black
10
114.333
20
-107.988
11
114.331
21
-107.984
0
LINE
8
Black
10
114.331
20
-107.984
11
114.329
21
-107.971
0
LINE
8
Black
10
114.329
20
-107.971
11
114.325
21
-107.959
0
LINE
8
Black
10
114.325
20
-107.959
11
114.326
21
-107.954
0
LINE
8
Black
10
114.326
20
-107.954
11
114.325
21
-107.95
0
LINE
8
Black
10
114.325
20
-107.95
11
114.325
21
-106.45
0
LINE
8
Black
10
114.325
20
-106.45
11
114.326
21
-106.446
0
LINE
8
Black
10
114.326
20
-106.446
11
114.325
21
-106.441
0
LINE
8
Black
10
114.325
20
-106.441
11
114.329
21
-106.429
0
LINE
8
Black
10
114.329
20
-106.429
11
114.331
21
-106.416
0
LINE
8
Black
10
114.331
20
-106.416
11
114.333
21
-106.412
0
LINE
8
Black
10
114.333
20
-106.412
11
114.334
21
-106.408
0
LINE
8
Black
10
114.334
20
-106.408
11
114.342
21
-106.397
0
LINE
8
Black
10
114.342
20
-106.397
11
114.348
21
-106.386
0
LINE
8
Black
10
114.348
20
-106.386
11
114.352
21
-106.383
0
LINE
8
Black
10
114.352
20
-106.383
11
114.352
21
-106.382
0
LINE
8
Black
10
114.352
20
-106.382
11
114.324
21
-106.303
0
LINE
8
Black
10
114.324
20
-106.303
11
114.324
21
-106.197
0
LINE
8
Black
10
114.324
20
-106.197
11
114.36
21
-106.097
0
LINE
8
Black
10
114.36
20
-106.097
11
114.428
21
-106.016
0
LINE
8
Black
10
114.428
20
-106.016
11
114.52
21
-105.962
0
LINE
8
Black
10
114.52
20
-105.962
11
114.625
21
-105.944
0
LINE
8
Black
10
114.625
20
-105.944
11
114.73
21
-105.962
0
LINE
8
Black
10
80.6546
20
-107.237
11
80.7467
21
-107.291
0
LINE
8
Black
10
80.7467
20
-107.291
11
80.815
21
-107.372
0
LINE
8
Black
10
80.815
20
-107.372
11
80.8343
21
-107.425
0
LINE
8
Black
10
80.8343
20
-107.425
11
81.25
21
-107.425
0
LINE
8
Black
10
81.25
20
-107.425
11
81.2543
21
-107.426
0
LINE
8
Black
10
81.2543
20
-107.426
11
81.2587
21
-107.425
0
LINE
8
Black
10
81.2587
20
-107.425
11
81.2713
21
-107.429
0
LINE
8
Black
10
81.2713
20
-107.429
11
81.2842
21
-107.431
0
LINE
8
Black
10
81.2842
20
-107.431
11
81.288
21
-107.433
0
LINE
8
Black
10
81.288
20
-107.433
11
81.2923
21
-107.434
0
LINE
8
Black
10
81.2923
20
-107.434
11
81.303
21
-107.442
0
LINE
8
Black
10
81.303
20
-107.442
11
81.3143
21
-107.448
0
LINE
8
Black
10
81.3143
20
-107.448
11
81.3171
21
-107.452
0
LINE
8
Black
10
81.3171
20
-107.452
11
81.3207
21
-107.454
0
LINE
8
Black
10
81.3207
20
-107.454
11
82.6
21
-108.734
0
LINE
8
Black
10
82.6
20
-108.734
11
82.6
21
-108.725
0
LINE
8
Black
10
82.6
20
-108.725
11
82.95
21
-108.725
0
LINE
8
Black
10
82.95
20
-108.725
11
82.95
21
-109.075
0
LINE
8
Black
10
82.95
20
-109.075
11
82.6
21
-109.075
0
LINE
8
Black
10
82.6
20
-109.075
11
82.6
21
-108.996
0
LINE
8
Black
10
82.6
20
-108.996
11
82.5908
21
-108.994
0
LINE
8
Black
10
82.5908
20
-108.994
11
82.587
21
-108.992
0
LINE
8
Black
10
82.587
20
-108.992
11
82.5827
21
-108.991
0
LINE
8
Black
10
82.5827
20
-108.991
11
82.572
21
-108.983
0
LINE
8
Black
10
82.572
20
-108.983
11
82.5607
21
-108.977
0
LINE
8
Black
10
82.5607
20
-108.977
11
82.5579
21
-108.973
0
LINE
8
Black
10
82.5579
20
-108.973
11
82.5543
21
-108.971
0
LINE
8
Black
10
82.5543
20
-108.971
11
81.2086
21
-107.625
0
LINE
8
Black
10
81.2086
20
-107.625
11
80.8343
21
-107.625
0
LINE
8
Black
10
80.8343
20
-107.625
11
80.815
21
-107.678
0
LINE
8
Black
10
80.815
20
-107.678
11
80.7467
21
-107.759
0
LINE
8
Black
10
80.7467
20
-107.759
11
80.6546
21
-107.813
0
LINE
8
Black
10
80.6546
20
-107.813
11
80.55
21
-107.831
0
LINE
8
Black
10
80.55
20
-107.831
11
80.4454
21
-107.813
0
LINE
8
Black
10
80.4454
20
-107.813
11
80.3533
21
-107.759
0
LINE
8
Black
10
80.3533
20
-107.759
11
80.285
21
-107.678
0
LINE
8
Black
10
80.285
20
-107.678
11
80.2487
21
-107.578
0
LINE
8
Black
10
80.2487
20
-107.578
11
80.2487
21
-107.472
0
LINE
8
Black
10
80.2487
20
-107.472
11
80.285
21
-107.372
0
LINE
8
Black
10
80.285
20
-107.372
11
80.3533
21
-107.291
0
LINE
8
Black
10
80.3533
20
-107.291
11
80.4454
21
-107.237
0
LINE
8
Black
10
80.4454
20
-107.237
11
80.55
21
-107.219
0
LINE
8
Black
10
80.55
20
-107.219
11
80.6546
21
-107.237
0
LINE
8
Black
10
100.755
20
-90.945
11
101.75
21
-90.945
0
LINE
8
Black
10
101.75
20
-90.945
11
101.758
21
-90.9463
0
LINE
8
Black
10
101.758
20
-90.9463
11
101.765
21
-90.9454
0
LINE
8
Black
10
101.765
20
-90.9454
11
101.81
21
-90.9555
0
LINE
8
Black
10
101.81
20
-90.9555
11
101.854
21
-90.9634
0
LINE
8
Black
10
101.854
20
-90.9634
11
101.861
21
-90.9673
0
LINE
8
Black
10
101.861
20
-90.9673
11
101.869
21
-90.969
0
LINE
8
Black
10
101.869
20
-90.969
11
105.069
21
-92.319
0
LINE
8
Black
10
105.069
20
-92.319
11
105.073
21
-92.3221
0
LINE
8
Black
10
105.073
20
-92.3221
11
105.079
21
-92.3236
0
LINE
8
Black
10
105.079
20
-92.3236
11
105.118
21
-92.3508
0
LINE
8
Black
10
105.118
20
-92.3508
11
105.158
21
-92.3765
0
LINE
8
Black
10
105.158
20
-92.3765
11
105.161
21
-92.381
0
LINE
8
Black
10
105.161
20
-92.381
11
105.166
21
-92.3843
0
LINE
8
Black
10
105.166
20
-92.3843
11
107.616
21
-94.8343
0
LINE
8
Black
10
107.616
20
-94.8343
11
107.619
21
-94.839
0
LINE
8
Black
10
107.619
20
-94.839
11
107.624
21
-94.8425
0
LINE
8
Black
10
107.624
20
-94.8425
11
107.638
21
-94.8648
0
LINE
8
Black
10
107.638
20
-94.8648
11
107.665
21
-94.897
0
LINE
8
Black
10
107.665
20
-94.897
11
107.671
21
-94.9131
0
LINE
8
Black
10
107.671
20
-94.9131
11
107.676
21
-94.9211
0
LINE
8
Black
10
107.676
20
-94.9211
11
107.678
21
-94.9266
0
LINE
8
Black
10
107.678
20
-94.9266
11
107.681
21
-94.9314
0
LINE
8
Black
10
107.681
20
-94.9314
11
109.031
21
-98.1314
0
LINE
8
Black
10
109.031
20
-98.1314
11
109.033
21
-98.139
0
LINE
8
Black
10
109.033
20
-98.139
11
109.037
21
-98.1457
0
LINE
8
Black
10
109.037
20
-98.1457
11
109.044
21
-98.1904
0
LINE
8
Black
10
109.044
20
-98.1904
11
109.055
21
-98.2347
0
LINE
8
Black
10
109.055
20
-98.2347
11
109.054
21
-98.2424
0
LINE
8
Black
10
109.054
20
-98.2424
11
109.055
21
-98.25
0
LINE
8
Black
10
109.055
20
-98.25
11
109.055
21
-100.75
0
LINE
8
Black
10
109.055
20
-100.75
11
109.055
21
-101.7
0
LINE
8
Black
10
109.055
20
-101.7
11
109.054
21
-101.707
0
LINE
8
Black
10
109.054
20
-101.707
11
109.055
21
-101.714
0
LINE
8
Black
10
109.055
20
-101.714
11
109.045
21
-101.759
0
LINE
8
Black
10
109.045
20
-101.759
11
109.037
21
-101.804
0
LINE
8
Black
10
109.037
20
-101.804
11
109.033
21
-101.81
0
LINE
8
Black
10
109.033
20
-101.81
11
109.032
21
-101.817
0
LINE
8
Black
10
109.032
20
-101.817
11
107.682
21
-105.067
0
LINE
8
Black
10
107.682
20
-105.067
11
107.677
21
-105.074
0
LINE
8
Black
10
107.677
20
-105.074
11
107.675
21
-105.082
0
LINE
8
Black
10
107.675
20
-105.082
11
107.649
21
-105.118
0
LINE
8
Black
10
107.649
20
-105.118
11
107.625
21
-105.156
0
LINE
8
Black
10
107.625
20
-105.156
11
107.618
21
-105.161
0
LINE
8
Black
10
107.618
20
-105.161
11
107.614
21
-105.168
0
LINE
8
Black
10
107.614
20
-105.168
11
105.064
21
-107.668
0
LINE
8
Black
10
105.064
20
-107.668
11
105.06
21
-107.67
0
LINE
8
Black
10
105.06
20
-107.67
11
105.057
21
-107.674
0
LINE
8
Black
10
105.057
20
-107.674
11
105.016
21
-107.7
0
LINE
8
Black
10
105.016
20
-107.7
11
104.976
21
-107.728
0
LINE
8
Black
10
104.976
20
-107.728
11
104.972
21
-107.729
0
LINE
8
Black
10
104.972
20
-107.729
11
104.968
21
-107.731
0
LINE
8
Black
10
104.968
20
-107.731
11
101.868
21
-109.031
0
LINE
8
Black
10
101.868
20
-109.031
11
101.861
21
-109.033
0
LINE
8
Black
10
101.861
20
-109.033
11
101.854
21
-109.037
0
LINE
8
Black
10
101.854
20
-109.037
11
101.809
21
-109.045
0
LINE
8
Black
10
101.809
20
-109.045
11
101.765
21
-109.055
0
LINE
8
Black
10
101.765
20
-109.055
11
101.757
21
-109.054
0
LINE
8
Black
10
101.757
20
-109.054
11
101.75
21
-109.055
0
LINE
8
Black
10
101.75
20
-109.055
11
99.2555
21
-109.055
0
LINE
8
Black
10
99.2555
20
-109.055
11
99.25
21
-109.056
0
LINE
8
Black
10
99.25
20
-109.056
11
99.2445
21
-109.055
0
LINE
8
Black
10
99.2445
20
-109.055
11
98.25
21
-109.055
0
LINE
8
Black
10
98.25
20
-109.055
11
98.2424
21
-109.054
0
LINE
8
Black
10
98.2424
20
-109.054
11
98.2347
21
-109.055
0
LINE
8
Black
10
98.2347
20
-109.055
11
98.1904
21
-109.044
0
LINE
8
Black
10
98.1904
20
-109.044
11
98.1457
21
-109.037
0
LINE
8
Black
10
98.1457
20
-109.037
11
98.139
21
-109.033
0
LINE
8
Black
10
98.139
20
-109.033
11
98.1314
21
-109.031
0
LINE
8
Black
10
98.1314
20
-109.031
11
94.9314
21
-107.681
0
LINE
8
Black
10
94.9314
20
-107.681
11
94.9266
21
-107.678
0
LINE
8
Black
10
94.9266
20
-107.678
11
94.9211
21
-107.676
0
LINE
8
Black
10
94.9211
20
-107.676
11
94.8823
21
-107.649
0
LINE
8
Black
10
94.8823
20
-107.649
11
94.8425
21
-107.624
0
LINE
8
Black
10
94.8425
20
-107.624
11
94.839
21
-107.619
0
LINE
8
Black
10
94.839
20
-107.619
11
94.8343
21
-107.616
0
LINE
8
Black
10
94.8343
20
-107.616
11
92.3843
21
-105.166
0
LINE
8
Black
10
92.3843
20
-105.166
11
92.381
21
-105.161
0
LINE
8
Black
10
92.381
20
-105.161
11
92.3765
21
-105.158
0
LINE
8
Black
10
92.3765
20
-105.158
11
92.3508
21
-105.118
0
LINE
8
Black
10
92.3508
20
-105.118
11
92.3236
21
-105.079
0
LINE
8
Black
10
92.3236
20
-105.079
11
92.3221
21
-105.073
0
LINE
8
Black
10
92.3221
20
-105.073
11
92.319
21
-105.069
0
LINE
8
Black
10
92.319
20
-105.069
11
90.969
21
-101.869
0
LINE
8
Black
10
90.969
20
-101.869
11
90.9673
21
-101.861
0
LINE
8
Black
10
90.9673
20
-101.861
11
90.9634
21
-101.854
0
LINE
8
Black
10
90.9634
20
-101.854
11
90.9555
21
-101.81
0
LINE
8
Black
10
90.9555
20
-101.81
11
90.9454
21
-101.765
0
LINE
8
Black
10
90.9454
20
-101.765
11
90.9463
21
-101.758
0
LINE
8
Black
10
90.9463
20
-101.758
11
90.945
21
-101.75
0
LINE
8
Black
10
90.945
20
-101.75
11
90.945
21
-99.25
0
LINE
8
Black
10
90.945
20
-99.25
11
90.945
21
-98.25
0
LINE
8
Black
10
90.945
20
-98.25
11
90.9463
21
-98.2424
0
LINE
8
Black
10
90.9463
20
-98.2424
11
90.9454
21
-98.2347
0
LINE
8
Black
10
90.9454
20
-98.2347
11
90.9555
21
-98.1904
0
LINE
8
Black
10
90.9555
20
-98.1904
11
90.9634
21
-98.1457
0
LINE
8
Black
10
90.9634
20
-98.1457
11
90.9673
21
-98.139
0
LINE
8
Black
10
90.9673
20
-98.139
11
90.969
21
-98.1314
0
LINE
8
Black
10
90.969
20
-98.1314
11
92.319
21
-94.9314
0
LINE
8
Black
10
92.319
20
-94.9314
11
92.3221
21
-94.9266
0
LINE
8
Black
10
92.3221
20
-94.9266
11
92.3236
21
-94.9211
0
LINE
8
Black
10
92.3236
20
-94.9211
11
92.3508
21
-94.8823
0
LINE
8
Black
10
92.3508
20
-94.8823
11
92.3765
21
-94.8425
0
LINE
8
Black
10
92.3765
20
-94.8425
11
92.381
21
-94.839
0
LINE
8
Black
10
92.381
20
-94.839
11
92.3843
21
-94.8343
0
LINE
8
Black
10
92.3843
20
-94.8343
11
94.8343
21
-92.3843
0
LINE
8
Black
10
94.8343
20
-92.3843
11
94.839
21
-92.381
0
LINE
8
Black
10
94.839
20
-92.381
11
94.8425
21
-92.3765
0
LINE
8
Black
10
94.8425
20
-92.3765
11
94.8823
21
-92.3508
0
LINE
8
Black
10
94.8823
20
-92.3508
11
94.9211
21
-92.3236
0
LINE
8
Black
10
94.9211
20
-92.3236
11
94.9266
21
-92.3221
0
LINE
8
Black
10
94.9266
20
-92.3221
11
94.9314
21
-92.319
0
LINE
8
Black
10
94.9314
20
-92.319
11
98.1314
21
-90.969
0
LINE
8
Black
10
98.1314
20
-90.969
11
98.139
21
-90.9673
0
LINE
8
Black
10
98.139
20
-90.9673
11
98.1457
21
-90.9634
0
LINE
8
Black
10
98.1457
20
-90.9634
11
98.1904
21
-90.9555
0
LINE
8
Black
10
98.1904
20
-90.9555
11
98.2347
21
-90.9454
0
LINE
8
Black
10
98.2347
20
-90.9454
11
98.2424
21
-90.9463
0
LINE
8
Black
10
98.2424
20
-90.9463
11
98.25
21
-90.945
0
LINE
8
Black
10
98.25
20
-90.945
11
100.745
21
-90.945
0
LINE
8
Black
10
100.745
20
-90.945
11
100.75
21
-90.944
0
LINE
8
Black
10
100.75
20
-90.944
11
100.755
21
-90.945
0
LINE
8
Black
10
100.755
20
-91.555
11
100.75
21
-91.556
0
LINE
8
Black
10
100.75
20
-91.556
11
100.745
21
-91.555
0
LINE
8
Black
10
100.745
20
-91.555
11
98.3117
21
-91.555
0
LINE
8
Black
10
98.3117
20
-91.555
11
95.2235
21
-92.8578
0
LINE
8
Black
10
95.2235
20
-92.8578
11
92.8578
21
-95.2235
0
LINE
8
Black
10
92.8578
20
-95.2235
11
91.555
21
-98.3117
0
LINE
8
Black
10
91.555
20
-98.3117
11
91.555
21
-99.25
0
LINE
8
Black
10
91.555
20
-99.25
11
91.555
21
-101.688
0
LINE
8
Black
10
91.555
20
-101.688
11
92.8578
21
-104.776
0
LINE
8
Black
10
92.8578
20
-104.776
11
95.2235
21
-107.142
0
LINE
8
Black
10
95.2235
20
-107.142
11
98.3117
21
-108.445
0
LINE
8
Black
10
98.3117
20
-108.445
11
99.2445
21
-108.445
0
LINE
8
Black
10
99.2445
20
-108.445
11
99.25
21
-108.444
0
LINE
8
Black
10
99.25
20
-108.444
11
99.2555
21
-108.445
0
LINE
8
Black
10
99.2555
20
-108.445
11
101.689
21
-108.445
0
LINE
8
Black
10
101.689
20
-108.445
11
104.678
21
-107.191
0
LINE
8
Black
10
104.678
20
-107.191
11
107.142
21
-104.776
0
LINE
8
Black
10
107.142
20
-104.776
11
108.445
21
-101.639
0
LINE
8
Black
10
108.445
20
-101.639
11
108.445
21
-100.75
0
LINE
8
Black
10
108.445
20
-100.75
11
108.445
21
-98.3117
0
LINE
8
Black
10
108.445
20
-98.3117
11
107.142
21
-95.2235
0
LINE
8
Black
10
107.142
20
-95.2235
11
104.776
21
-92.8578
0
LINE
8
Black
10
104.776
20
-92.8578
11
101.688
21
-91.555
0
LINE
8
Black
10
101.688
20
-91.555
11
100.755
21
-91.555
0
LINE
8
Black
10
100.555
20
-92.9125
11
100.647
21
-92.9656
0
LINE
8
Black
10
100.647
20
-92.9656
11
100.715
21
-93.047
0
LINE
8
Black
10
100.715
20
-93.047
11
100.751
21
-93.1469
0
LINE
8
Black
10
100.751
20
-93.1469
11
100.751
21
-93.2531
0
LINE
8
Black
10
100.751
20
-93.2531
11
100.715
21
-93.353
0
LINE
8
Black
10
100.715
20
-93.353
11
100.647
21
-93.4344
0
LINE
8
Black
10
100.647
20
-93.4344
11
100.555
21
-93.4875
0
LINE
8
Black
10
100.555
20
-93.4875
11
100.45
21
-93.506
0
LINE
8
Black
10
100.45
20
-93.506
11
100.425
21
-93.5016
0
LINE
8
Black
10
100.425
20
-93.5016
11
97.975
21
-95.9518
0
LINE
8
Black
10
97.975
20
-95.9518
11
97.975
21
-98.5982
0
LINE
8
Black
10
97.975
20
-98.5982
11
98.2518
21
-98.875
0
LINE
8
Black
10
98.2518
20
-98.875
11
100.548
21
-98.875
0
LINE
8
Black
10
100.548
20
-98.875
11
101.062
21
-98.3616
0
LINE
8
Black
10
101.062
20
-98.3616
11
101.066
21
-98.3585
0
LINE
8
Black
10
101.066
20
-98.3585
11
101.07
21
-98.3542
0
LINE
8
Black
10
101.07
20
-98.3542
11
101.084
21
-98.3461
0
LINE
8
Black
10
101.084
20
-98.3461
11
101.097
21
-98.3367
0
LINE
8
Black
10
101.097
20
-98.3367
11
101.102
21
-98.3353
0
LINE
8
Black
10
101.102
20
-98.3353
11
101.107
21
-98.3325
0
LINE
8
Black
10
101.107
20
-98.3325
11
101.123
21
-98.3297
0
LINE
8
Black
10
101.123
20
-98.3297
11
101.139
21
-98.3255
0
LINE
8
Black
10
101.139
20
-98.3255
11
101.145
21
-98.326
0
LINE
8
Black
10
101.145
20
-98.326
11
101.15
21
-98.325
0
LINE
8
Black
10
101.15
20
-98.325
11
101.7
21
-98.325
0
LINE
8
Black
10
101.7
20
-98.325
11
101.705
21
-98.326
0
LINE
8
Black
10
101.705
20
-98.326
11
101.711
21
-98.3255
0
LINE
8
Black
10
101.711
20
-98.3255
11
101.727
21
-98.3297
0
LINE
8
Black
10
101.727
20
-98.3297
11
101.743
21
-98.3325
0
LINE
8
Black
10
101.743
20
-98.3325
11
101.748
21
-98.3353
0
LINE
8
Black
10
101.748
20
-98.3353
11
101.753
21
-98.3367
0
LINE
8
Black
10
101.753
20
-98.3367
11
101.766
21
-98.3461
0
LINE
8
Black
10
101.766
20
-98.3461
11
101.78
21
-98.3542
0
LINE
8
Black
10
101.78
20
-98.3542
11
101.784
21
-98.3585
0
LINE
8
Black
10
101.784
20
-98.3585
11
101.788
21
-98.3616
0
LINE
8
Black
10
101.788
20
-98.3616
11
102.138
21
-98.7116
0
LINE
8
Black
10
102.138
20
-98.7116
11
102.142
21
-98.7161
0
LINE
8
Black
10
102.142
20
-98.7161
11
102.146
21
-98.7197
0
LINE
8
Black
10
102.146
20
-98.7197
11
102.154
21
-98.7338
0
LINE
8
Black
10
102.154
20
-98.7338
11
102.163
21
-98.7472
0
LINE
8
Black
10
102.163
20
-98.7472
11
102.165
21
-98.7525
0
LINE
8
Black
10
102.165
20
-98.7525
11
102.167
21
-98.7572
0
LINE
8
Black
10
102.167
20
-98.7572
11
102.17
21
-98.7733
0
LINE
8
Black
10
102.17
20
-98.7733
11
102.175
21
-98.7891
0
LINE
8
Black
10
102.175
20
-98.7891
11
102.174
21
-98.7946
0
LINE
8
Black
10
102.174
20
-98.7946
11
102.175
21
-98.8
0
LINE
8
Black
10
102.175
20
-98.8
11
102.175
21
-99.35
0
LINE
8
Black
10
102.175
20
-99.35
11
102.174
21
-99.3554
0
LINE
8
Black
10
102.174
20
-99.3554
11
102.175
21
-99.3609
0
LINE
8
Black
10
102.175
20
-99.3609
11
102.17
21
-99.3767
0
LINE
8
Black
10
102.17
20
-99.3767
11
102.167
21
-99.3928
0
LINE
8
Black
10
102.167
20
-99.3928
11
102.165
21
-99.3975
0
LINE
8
Black
10
102.165
20
-99.3975
11
102.163
21
-99.4028
0
LINE
8
Black
10
102.163
20
-99.4028
11
102.154
21
-99.4162
0
LINE
8
Black
10
102.154
20
-99.4162
11
102.146
21
-99.4303
0
LINE
8
Black
10
102.146
20
-99.4303
11
102.142
21
-99.4339
0
LINE
8
Black
10
102.142
20
-99.4339
11
102.138
21
-99.4384
0
LINE
8
Black
10
102.138
20
-99.4384
11
101.732
21
-99.8445
0
LINE
8
Black
10
101.732
20
-99.8445
11
101.751
21
-99.8969
0
LINE
8
Black
10
101.751
20
-99.8969
11
101.751
21
-100.003
0
LINE
8
Black
10
101.751
20
-100.003
11
101.715
21
-100.103
0
LINE
8
Black
10
101.715
20
-100.103
11
101.647
21
-100.184
0
LINE
8
Black
10
101.647
20
-100.184
11
101.555
21
-100.238
0
LINE
8
Black
10
101.555
20
-100.238
11
101.45
21
-100.256
0
LINE
8
Black
10
101.45
20
-100.256
11
101.345
21
-100.238
0
LINE
8
Black
10
101.345
20
-100.238
11
101.341
21
-100.235
0
LINE
8
Black
10
101.341
20
-100.235
11
101.325
21
-100.252
0
LINE
8
Black
10
101.325
20
-100.252
11
101.325
21
-106.9
0
LINE
8
Black
10
101.325
20
-106.9
11
101.324
21
-106.905
0
LINE
8
Black
10
101.324
20
-106.905
11
101.325
21
-106.911
0
LINE
8
Black
10
101.325
20
-106.911
11
101.32
21
-106.927
0
LINE
8
Black
10
101.32
20
-106.927
11
101.317
21
-106.943
0
LINE
8
Black
10
101.317
20
-106.943
11
101.315
21
-106.948
0
LINE
8
Black
10
101.315
20
-106.948
11
101.313
21
-106.953
0
LINE
8
Black
10
101.313
20
-106.953
11
101.304
21
-106.966
0
LINE
8
Black
10
101.304
20
-106.966
11
101.296
21
-106.98
0
LINE
8
Black
10
101.296
20
-106.98
11
101.292
21
-106.984
0
LINE
8
Black
10
101.292
20
-106.984
11
101.288
21
-106.988
0
LINE
8
Black
10
101.288
20
-106.988
11
100.738
21
-107.538
0
LINE
8
Black
10
100.738
20
-107.538
11
100.734
21
-107.542
0
LINE
8
Black
10
100.734
20
-107.542
11
100.73
21
-107.546
0
LINE
8
Black
10
100.73
20
-107.546
11
100.716
21
-107.554
0
LINE
8
Black
10
100.716
20
-107.554
11
100.703
21
-107.563
0
LINE
8
Black
10
100.703
20
-107.563
11
100.698
21
-107.565
0
LINE
8
Black
10
100.698
20
-107.565
11
100.693
21
-107.567
0
LINE
8
Black
10
100.693
20
-107.567
11
100.677
21
-107.57
0
LINE
8
Black
10
100.677
20
-107.57
11
100.661
21
-107.575
0
LINE
8
Black
10
100.661
20
-107.575
11
100.655
21
-107.574
0
LINE
8
Black
10
100.655
20
-107.574
11
100.65
21
-107.575
0
LINE
8
Black
10
100.65
20
-107.575
11
99.8
21
-107.575
0
LINE
8
Black
10
99.8
20
-107.575
11
99.7946
21
-107.574
0
LINE
8
Black
10
99.7946
20
-107.574
11
99.7891
21
-107.575
0
LINE
8
Black
10
99.7891
20
-107.575
11
99.7733
21
-107.57
0
LINE
8
Black
10
99.7733
20
-107.57
11
99.7572
21
-107.567
0
LINE
8
Black
10
99.7572
20
-107.567
11
99.7525
21
-107.565
0
LINE
8
Black
10
99.7525
20
-107.565
11
99.7472
21
-107.563
0
LINE
8
Black
10
99.7472
20
-107.563
11
99.7338
21
-107.554
0
LINE
8
Black
10
99.7338
20
-107.554
11
99.7197
21
-107.546
0
LINE
8
Black
10
99.7197
20
-107.546
11
99.7161
21
-107.542
0
LINE
8
Black
10
99.7161
20
-107.542
11
99.7116
21
-107.538
0
LINE
8
Black
10
99.7116
20
-107.538
11
99.5116
21
-107.338
0
LINE
8
Black
10
99.5116
20
-107.338
11
99.5085
21
-107.334
0
LINE
8
Black
10
99.5085
20
-107.334
11
99.5042
21
-107.33
0
LINE
8
Black
10
99.5042
20
-107.33
11
99.4961
21
-107.316
0
LINE
8
Black
10
99.4961
20
-107.316
11
99.4867
21
-107.303
0
LINE
8
Black
10
99.4867
20
-107.303
11
99.4853
21
-107.298
0
LINE
8
Black
10
99.4853
20
-107.298
11
99.4825
21
-107.293
0
LINE
8
Black
10
99.4825
20
-107.293
11
99.4797
21
-107.277
0
LINE
8
Black
10
99.4797
20
-107.277
11
99.4755
21
-107.261
0
LINE
8
Black
10
99.4755
20
-107.261
11
99.476
21
-107.255
0
LINE
8
Black
10
99.476
20
-107.255
11
99.475
21
-107.25
0
LINE
8
Black
10
99.475
20
-107.25
11
99.475
21
-107.076
0
LINE
8
Black
10
99.475
20
-107.076
11
99.4033
21
-107.034
0
LINE
8
Black
10
99.4033
20
-107.034
11
99.335
21
-106.953
0
LINE
8
Black
10
99.335
20
-106.953
11
99.2987
21
-106.853
0
LINE
8
Black
10
99.2987
20
-106.853
11
99.2987
21
-106.747
0
LINE
8
Black
10
99.2987
20
-106.747
11
99.335
21
-106.647
0
LINE
8
Black
10
99.335
20
-106.647
11
99.4033
21
-106.566
0
LINE
8
Black
10
99.4033
20
-106.566
11
99.4954
21
-106.512
0
LINE
8
Black
10
99.4954
20
-106.512
11
99.6
21
-106.494
0
LINE
8
Black
10
99.6
20
-106.494
11
99.7046
21
-106.512
0
LINE
8
Black
10
99.7046
20
-106.512
11
99.7967
21
-106.566
0
LINE
8
Black
10
99.7967
20
-106.566
11
99.865
21
-106.647
0
LINE
8
Black
10
99.865
20
-106.647
11
99.9013
21
-106.747
0
LINE
8
Black
10
99.9013
20
-106.747
11
99.9013
21
-106.853
0
LINE
8
Black
10
99.9013
20
-106.853
11
99.865
21
-106.953
0
LINE
8
Black
10
99.865
20
-106.953
11
99.7967
21
-107.034
0
LINE
8
Black
10
99.7967
20
-107.034
11
99.725
21
-107.076
0
LINE
8
Black
10
99.725
20
-107.076
11
99.725
21
-107.198
0
LINE
8
Black
10
99.725
20
-107.198
11
99.8518
21
-107.325
0
LINE
8
Black
10
99.8518
20
-107.325
11
100.598
21
-107.325
0
LINE
8
Black
10
100.598
20
-107.325
11
101.075
21
-106.848
0
LINE
8
Black
10
101.075
20
-106.848
11
101.075
21
-100.2
0
LINE
8
Black
10
101.075
20
-100.2
11
101.076
21
-100.195
0
LINE
8
Black
10
101.076
20
-100.195
11
101.075
21
-100.189
0
LINE
8
Black
10
101.075
20
-100.189
11
101.08
21
-100.173
0
LINE
8
Black
10
101.08
20
-100.173
11
101.083
21
-100.157
0
LINE
8
Black
10
101.083
20
-100.157
11
101.085
21
-100.152
0
LINE
8
Black
10
101.085
20
-100.152
11
101.087
21
-100.147
0
LINE
8
Black
10
101.087
20
-100.147
11
101.096
21
-100.134
0
LINE
8
Black
10
101.096
20
-100.134
11
101.104
21
-100.12
0
LINE
8
Black
10
101.104
20
-100.12
11
101.108
21
-100.116
0
LINE
8
Black
10
101.108
20
-100.116
11
101.112
21
-100.112
0
LINE
8
Black
10
101.112
20
-100.112
11
101.168
21
-100.055
0
LINE
8
Black
10
101.168
20
-100.055
11
101.149
21
-100.003
0
LINE
8
Black
10
101.149
20
-100.003
11
101.149
21
-99.8969
0
LINE
8
Black
10
101.149
20
-99.8969
11
101.185
21
-99.797
0
LINE
8
Black
10
101.185
20
-99.797
11
101.253
21
-99.7156
0
LINE
8
Black
10
101.253
20
-99.7156
11
101.345
21
-99.6625
0
LINE
8
Black
10
101.345
20
-99.6625
11
101.45
21
-99.644
0
LINE
8
Black
10
101.45
20
-99.644
11
101.555
21
-99.6625
0
LINE
8
Black
10
101.555
20
-99.6625
11
101.559
21
-99.6647
0
LINE
8
Black
10
101.559
20
-99.6647
11
101.925
21
-99.2982
0
LINE
8
Black
10
101.925
20
-99.2982
11
101.925
21
-98.8518
0
LINE
8
Black
10
101.925
20
-98.8518
11
101.648
21
-98.575
0
LINE
8
Black
10
101.648
20
-98.575
11
101.202
21
-98.575
0
LINE
8
Black
10
101.202
20
-98.575
11
100.688
21
-99.0884
0
LINE
8
Black
10
100.688
20
-99.0884
11
100.684
21
-99.0915
0
LINE
8
Black
10
100.684
20
-99.0915
11
100.68
21
-99.0958
0
LINE
8
Black
10
100.68
20
-99.0958
11
100.666
21
-99.1039
0
LINE
8
Black
10
100.666
20
-99.1039
11
100.653
21
-99.1133
0
LINE
8
Black
10
100.653
20
-99.1133
11
100.648
21
-99.1147
0
LINE
8
Black
10
100.648
20
-99.1147
11
100.643
21
-99.1175
0
LINE
8
Black
10
100.643
20
-99.1175
11
100.627
21
-99.1203
0
LINE
8
Black
10
100.627
20
-99.1203
11
100.611
21
-99.1245
0
LINE
8
Black
10
100.611
20
-99.1245
11
100.605
21
-99.124
0
LINE
8
Black
10
100.605
20
-99.124
11
100.6
21
-99.125
0
LINE
8
Black
10
100.6
20
-99.125
11
98.2
21
-99.125
0
LINE
8
Black
10
98.2
20
-99.125
11
98.1946
21
-99.124
0
LINE
8
Black
10
98.1946
20
-99.124
11
98.1891
21
-99.1245
0
LINE
8
Black
10
98.1891
20
-99.1245
11
98.1733
21
-99.1203
0
LINE
8
Black
10
98.1733
20
-99.1203
11
98.1572
21
-99.1175
0
LINE
8
Black
10
98.1572
20
-99.1175
11
98.1525
21
-99.1147
0
LINE
8
Black
10
98.1525
20
-99.1147
11
98.1472
21
-99.1133
0
LINE
8
Black
10
98.1472
20
-99.1133
11
98.1338
21
-99.1039
0
LINE
8
Black
10
98.1338
20
-99.1039
11
98.1197
21
-99.0958
0
LINE
8
Black
10
98.1197
20
-99.0958
11
98.1161
21
-99.0915
0
LINE
8
Black
10
98.1161
20
-99.0915
11
98.1116
21
-99.0884
0
LINE
8
Black
10
98.1116
20
-99.0884
11
97.85
21
-98.8268
0
LINE
8
Black
10
97.85
20
-98.8268
11
97.5884
21
-99.0884
0
LINE
8
Black
10
97.5884
20
-99.0884
11
97.5839
21
-99.0915
0
LINE
8
Black
10
97.5839
20
-99.0915
11
97.5803
21
-99.0958
0
LINE
8
Black
10
97.5803
20
-99.0958
11
97.5662
21
-99.1039
0
LINE
8
Black
10
97.5662
20
-99.1039
11
97.5528
21
-99.1133
0
LINE
8
Black
10
97.5528
20
-99.1133
11
97.5475
21
-99.1147
0
LINE
8
Black
10
97.5475
20
-99.1147
11
97.5428
21
-99.1175
0
LINE
8
Black
10
97.5428
20
-99.1175
11
97.5267
21
-99.1203
0
LINE
8
Black
10
97.5267
20
-99.1203
11
97.5109
21
-99.1245
0
LINE
8
Black
10
97.5109
20
-99.1245
11
97.5054
21
-99.124
0
LINE
8
Black
10
97.5054
20
-99.124
11
97.5
21
-99.125
0
LINE
8
Black
10
97.5
20
-99.125
11
93.4
21
-99.125
0
LINE
8
Black
10
93.4
20
-99.125
11
93.3946
21
-99.124
0
LINE
8
Black
10
93.3946
20
-99.124
11
93.3891
21
-99.1245
0
LINE
8
Black
10
93.3891
20
-99.1245
11
93.3733
21
-99.1203
0
LINE
8
Black
10
93.3733
20
-99.1203
11
93.3572
21
-99.1175
0
LINE
8
Black
10
93.3572
20
-99.1175
11
93.3525
21
-99.1147
0
LINE
8
Black
10
93.3525
20
-99.1147
11
93.3472
21
-99.1133
0
LINE
8
Black
10
93.3472
20
-99.1133
11
93.3338
21
-99.1039
0
LINE
8
Black
10
93.3338
20
-99.1039
11
93.3197
21
-99.0958
0
LINE
8
Black
10
93.3197
20
-99.0958
11
93.3161
21
-99.0915
0
LINE
8
Black
10
93.3161
20
-99.0915
11
93.3116
21
-99.0884
0
LINE
8
Black
10
93.3116
20
-99.0884
11
93.0085
21
-98.7853
0
LINE
8
Black
10
93.0085
20
-98.7853
11
93.0046
21
-98.7875
0
LINE
8
Black
10
93.0046
20
-98.7875
11
92.9
21
-98.806
0
LINE
8
Black
10
92.9
20
-98.806
11
92.7954
21
-98.7875
0
LINE
8
Black
10
92.7954
20
-98.7875
11
92.7033
21
-98.7344
0
LINE
8
Black
10
92.7033
20
-98.7344
11
92.635
21
-98.653
0
LINE
8
Black
10
92.635
20
-98.653
11
92.5987
21
-98.5531
0
LINE
8
Black
10
92.5987
20
-98.5531
11
92.5987
21
-98.4469
0
LINE
8
Black
10
92.5987
20
-98.4469
11
92.635
21
-98.347
0
LINE
8
Black
10
92.635
20
-98.347
11
92.7033
21
-98.2656
0
LINE
8
Black
10
92.7033
20
-98.2656
11
92.7954
21
-98.2125
0
LINE
8
Black
10
92.7954
20
-98.2125
11
92.9
21
-98.194
0
LINE
8
Black
10
92.9
20
-98.194
11
93.0046
21
-98.2125
0
LINE
8
Black
10
93.0046
20
-98.2125
11
93.0967
21
-98.2656
0
LINE
8
Black
10
93.0967
20
-98.2656
11
93.165
21
-98.347
0
LINE
8
Black
10
93.165
20
-98.347
11
93.2013
21
-98.4469
0
LINE
8
Black
10
93.2013
20
-98.4469
11
93.2013
21
-98.5531
0
LINE
8
Black
10
93.2013
20
-98.5531
11
93.1823
21
-98.6055
0
LINE
8
Black
10
93.1823
20
-98.6055
11
93.4518
21
-98.875
0
LINE
8
Black
10
93.4518
20
-98.875
11
97.4482
21
-98.875
0
LINE
8
Black
10
97.4482
20
-98.875
11
97.725
21
-98.5982
0
LINE
8
Black
10
97.725
20
-98.5982
11
97.725
21
-95.9
0
LINE
8
Black
10
97.725
20
-95.9
11
97.726
21
-95.8946
0
LINE
8
Black
10
97.726
20
-95.8946
11
97.7255
21
-95.8891
0
LINE
8
Black
10
97.7255
20
-95.8891
11
97.7297
21
-95.8733
0
LINE
8
Black
10
97.7297
20
-95.8733
11
97.7325
21
-95.8572
0
LINE
8
Black
10
97.7325
20
-95.8572
11
97.7353
21
-95.8525
0
LINE
8
Black
10
97.7353
20
-95.8525
11
97.7367
21
-95.8472
0
LINE
8
Black
10
97.7367
20
-95.8472
11
97.7461
21
-95.8338
0
LINE
8
Black
10
97.7461
20
-95.8338
11
97.7542
21
-95.8197
0
LINE
8
Black
10
97.7542
20
-95.8197
11
97.7585
21
-95.8161
0
LINE
8
Black
10
97.7585
20
-95.8161
11
97.7616
21
-95.8116
0
LINE
8
Black
10
97.7616
20
-95.8116
11
100.201
21
-93.3721
0
LINE
8
Black
10
100.201
20
-93.3721
11
100.185
21
-93.353
0
LINE
8
Black
10
100.185
20
-93.353
11
100.149
21
-93.2531
0
LINE
8
Black
10
100.149
20
-93.2531
11
100.149
21
-93.1469
0
LINE
8
Black
10
100.149
20
-93.1469
11
100.185
21
-93.047
0
LINE
8
Black
10
100.185
20
-93.047
11
100.253
21
-92.9656
0
LINE
8
Black
10
100.253
20
-92.9656
11
100.345
21
-92.9125
0
LINE
8
Black
10
100.345
20
-92.9125
11
100.45
21
-92.894
0
LINE
8
Black
10
100.45
20
-92.894
11
100.555
21
-92.9125
0
LINE
8
Black
10
99.6546
20
-92.9125
11
99.7467
21
-92.9656
0
LINE
8
Black
10
99.7467
20
-92.9656
11
99.815
21
-93.047
0
LINE
8
Black
10
99.815
20
-93.047
11
99.8513
21
-93.1469
0
LINE
8
Black
10
99.8513
20
-93.1469
11
99.8513
21
-93.2531
0
LINE
8
Black
10
99.8513
20
-93.2531
11
99.815
21
-93.353
0
LINE
8
Black
10
99.815
20
-93.353
11
99.7467
21
-93.4344
0
LINE
8
Black
10
99.7467
20
-93.4344
11
99.675
21
-93.4758
0
LINE
8
Black
10
99.675
20
-93.4758
11
99.675
21
-93.6
0
LINE
8
Black
10
99.675
20
-93.6
11
99.674
21
-93.6054
0
LINE
8
Black
10
99.674
20
-93.6054
11
99.6745
21
-93.6109
0
LINE
8
Black
10
99.6745
20
-93.6109
11
99.6703
21
-93.6267
0
LINE
8
Black
10
99.6703
20
-93.6267
11
99.6675
21
-93.6428
0
LINE
8
Black
10
99.6675
20
-93.6428
11
99.6647
21
-93.6475
0
LINE
8
Black
10
99.6647
20
-93.6475
11
99.6633
21
-93.6528
0
LINE
8
Black
10
99.6633
20
-93.6528
11
99.6539
21
-93.6662
0
LINE
8
Black
10
99.6539
20
-93.6662
11
99.6458
21
-93.6803
0
LINE
8
Black
10
99.6458
20
-93.6803
11
99.6415
21
-93.6839
0
LINE
8
Black
10
99.6415
20
-93.6839
11
99.6384
21
-93.6884
0
LINE
8
Black
10
99.6384
20
-93.6884
11
97.575
21
-95.7518
0
LINE
8
Black
10
97.575
20
-95.7518
11
97.575
21
-97.9
0
LINE
8
Black
10
97.575
20
-97.9
11
97.574
21
-97.9054
0
LINE
8
Black
10
97.574
20
-97.9054
11
97.5745
21
-97.9109
0
LINE
8
Black
10
97.5745
20
-97.9109
11
97.5703
21
-97.9267
0
LINE
8
Black
10
97.5703
20
-97.9267
11
97.5675
21
-97.9428
0
LINE
8
Black
10
97.5675
20
-97.9428
11
97.5647
21
-97.9475
0
LINE
8
Black
10
97.5647
20
-97.9475
11
97.5633
21
-97.9528
0
LINE
8
Black
10
97.5633
20
-97.9528
11
97.5539
21
-97.9662
0
LINE
8
Black
10
97.5539
20
-97.9662
11
97.5458
21
-97.9803
0
LINE
8
Black
10
97.5458
20
-97.9803
11
97.5415
21
-97.9839
0
LINE
8
Black
10
97.5415
20
-97.9839
11
97.5384
21
-97.9884
0
LINE
8
Black
10
97.5384
20
-97.9884
11
96.8884
21
-98.6384
0
LINE
8
Black
10
96.8884
20
-98.6384
11
96.8839
21
-98.6415
0
LINE
8
Black
10
96.8839
20
-98.6415
11
96.8803
21
-98.6458
0
LINE
8
Black
10
96.8803
20
-98.6458
11
96.8662
21
-98.6539
0
LINE
8
Black
10
96.8662
20
-98.6539
11
96.8528
21
-98.6633
0
LINE
8
Black
10
96.8528
20
-98.6633
11
96.8475
21
-98.6647
0
LINE
8
Black
10
96.8475
20
-98.6647
11
96.8428
21
-98.6675
0
LINE
8
Black
10
96.8428
20
-98.6675
11
96.8267
21
-98.6703
0
LINE
8
Black
10
96.8267
20
-98.6703
11
96.8109
21
-98.6745
0
LINE
8
Black
10
96.8109
20
-98.6745
11
96.8054
21
-98.674
0
LINE
8
Black
10
96.8054
20
-98.674
11
96.8
21
-98.675
0
LINE
8
Black
10
96.8
20
-98.675
11
93.8
21
-98.675
0
LINE
8
Black
10
93.8
20
-98.675
11
93.7946
21
-98.674
0
LINE
8
Black
10
93.7946
20
-98.674
11
93.7891
21
-98.6745
0
LINE
8
Black
10
93.7891
20
-98.6745
11
93.7733
21
-98.6703
0
LINE
8
Black
10
93.7733
20
-98.6703
11
93.7572
21
-98.6675
0
LINE
8
Black
10
93.7572
20
-98.6675
11
93.7525
21
-98.6647
0
LINE
8
Black
10
93.7525
20
-98.6647
11
93.7472
21
-98.6633
0
LINE
8
Black
10
93.7472
20
-98.6633
11
93.7338
21
-98.6539
0
LINE
8
Black
10
93.7338
20
-98.6539
11
93.7197
21
-98.6458
0
LINE
8
Black
10
93.7197
20
-98.6458
11
93.7161
21
-98.6415
0
LINE
8
Black
10
93.7161
20
-98.6415
11
93.7116
21
-98.6384
0
LINE
8
Black
10
93.7116
20
-98.6384
11
93.0482
21
-97.975
0
LINE
8
Black
10
93.0482
20
-97.975
11
92.7018
21
-97.975
0
LINE
8
Black
10
92.7018
20
-97.975
11
92.375
21
-98.3018
0
LINE
8
Black
10
92.375
20
-98.3018
11
92.375
21
-99.3482
0
LINE
8
Black
10
92.375
20
-99.3482
11
93.2415
21
-100.215
0
LINE
8
Black
10
93.2415
20
-100.215
11
93.2454
21
-100.212
0
LINE
8
Black
10
93.2454
20
-100.212
11
93.35
21
-100.194
0
LINE
8
Black
10
93.35
20
-100.194
11
93.4546
21
-100.212
0
LINE
8
Black
10
93.4546
20
-100.212
11
93.4585
21
-100.215
0
LINE
8
Black
10
93.4585
20
-100.215
11
94.3116
21
-99.3616
0
LINE
8
Black
10
94.3116
20
-99.3616
11
94.3161
21
-99.3585
0
LINE
8
Black
10
94.3161
20
-99.3585
11
94.3197
21
-99.3542
0
LINE
8
Black
10
94.3197
20
-99.3542
11
94.3338
21
-99.3461
0
LINE
8
Black
10
94.3338
20
-99.3461
11
94.3472
21
-99.3367
0
LINE
8
Black
10
94.3472
20
-99.3367
11
94.3525
21
-99.3353
0
LINE
8
Black
10
94.3525
20
-99.3353
11
94.3572
21
-99.3325
0
LINE
8
Black
10
94.3572
20
-99.3325
11
94.3733
21
-99.3297
0
LINE
8
Black
10
94.3733
20
-99.3297
11
94.3891
21
-99.3255
0
LINE
8
Black
10
94.3891
20
-99.3255
11
94.3946
21
-99.326
0
LINE
8
Black
10
94.3946
20
-99.326
11
94.4
21
-99.325
0
LINE
8
Black
10
94.4
20
-99.325
11
100.998
21
-99.325
0
LINE
8
Black
10
100.998
20
-99.325
11
101.168
21
-99.1555
0
LINE
8
Black
10
101.168
20
-99.1555
11
101.149
21
-99.1031
0
LINE
8
Black
10
101.149
20
-99.1031
11
101.149
21
-98.9969
0
LINE
8
Black
10
101.149
20
-98.9969
11
101.185
21
-98.897
0
LINE
8
Black
10
101.185
20
-98.897
11
101.253
21
-98.8156
0
LINE
8
Black
10
101.253
20
-98.8156
11
101.345
21
-98.7625
0
LINE
8
Black
10
101.345
20
-98.7625
11
101.45
21
-98.744
0
LINE
8
Black
10
101.45
20
-98.744
11
101.555
21
-98.7625
0
LINE
8
Black
10
101.555
20
-98.7625
11
101.647
21
-98.8156
0
LINE
8
Black
10
101.647
20
-98.8156
11
101.715
21
-98.897
0
LINE
8
Black
10
101.715
20
-98.897
11
101.751
21
-98.9969
0
LINE
8
Black
10
101.751
20
-98.9969
11
101.751
21
-99.1031
0
LINE
8
Black
10
101.751
20
-99.1031
11
101.715
21
-99.203
0
LINE
8
Black
10
101.715
20
-99.203
11
101.647
21
-99.2844
0
LINE
8
Black
10
101.647
20
-99.2844
11
101.555
21
-99.3375
0
LINE
8
Black
10
101.555
20
-99.3375
11
101.45
21
-99.356
0
LINE
8
Black
10
101.45
20
-99.356
11
101.345
21
-99.3375
0
LINE
8
Black
10
101.345
20
-99.3375
11
101.341
21
-99.3353
0
LINE
8
Black
10
101.341
20
-99.3353
11
100.875
21
-99.8018
0
LINE
8
Black
10
100.875
20
-99.8018
11
100.875
21
-106.45
0
LINE
8
Black
10
100.875
20
-106.45
11
100.874
21
-106.455
0
LINE
8
Black
10
100.874
20
-106.455
11
100.875
21
-106.461
0
LINE
8
Black
10
100.875
20
-106.461
11
100.87
21
-106.477
0
LINE
8
Black
10
100.87
20
-106.477
11
100.867
21
-106.493
0
LINE
8
Black
10
100.867
20
-106.493
11
100.865
21
-106.498
0
LINE
8
Black
10
100.865
20
-106.498
11
100.863
21
-106.503
0
LINE
8
Black
10
100.863
20
-106.503
11
100.854
21
-106.516
0
LINE
8
Black
10
100.854
20
-106.516
11
100.846
21
-106.53
0
LINE
8
Black
10
100.846
20
-106.53
11
100.842
21
-106.534
0
LINE
8
Black
10
100.842
20
-106.534
11
100.838
21
-106.538
0
LINE
8
Black
10
100.838
20
-106.538
11
100.682
21
-106.695
0
LINE
8
Black
10
100.682
20
-106.695
11
100.701
21
-106.747
0
LINE
8
Black
10
100.701
20
-106.747
11
100.701
21
-106.853
0
LINE
8
Black
10
100.701
20
-106.853
11
100.665
21
-106.953
0
LINE
8
Black
10
100.665
20
-106.953
11
100.597
21
-107.034
0
LINE
8
Black
10
100.597
20
-107.034
11
100.505
21
-107.088
0
LINE
8
Black
10
100.505
20
-107.088
11
100.4
21
-107.106
0
LINE
8
Black
10
100.4
20
-107.106
11
100.295
21
-107.088
0
LINE
8
Black
10
100.295
20
-107.088
11
100.203
21
-107.034
0
LINE
8
Black
10
100.203
20
-107.034
11
100.135
21
-106.953
0
LINE
8
Black
10
100.135
20
-106.953
11
100.099
21
-106.853
0
LINE
8
Black
10
100.099
20
-106.853
11
100.099
21
-106.747
0
LINE
8
Black
10
100.099
20
-106.747
11
100.135
21
-106.647
0
LINE
8
Black
10
100.135
20
-106.647
11
100.203
21
-106.566
0
LINE
8
Black
10
100.203
20
-106.566
11
100.295
21
-106.512
0
LINE
8
Black
10
100.295
20
-106.512
11
100.4
21
-106.494
0
LINE
8
Black
10
100.4
20
-106.494
11
100.505
21
-106.512
0
LINE
8
Black
10
100.505
20
-106.512
11
100.509
21
-106.515
0
LINE
8
Black
10
100.509
20
-106.515
11
100.625
21
-106.398
0
LINE
8
Black
10
100.625
20
-106.398
11
100.625
21
-99.75
0
LINE
8
Black
10
100.625
20
-99.75
11
100.626
21
-99.7446
0
LINE
8
Black
10
100.626
20
-99.7446
11
100.625
21
-99.7391
0
LINE
8
Black
10
100.625
20
-99.7391
11
100.63
21
-99.7233
0
LINE
8
Black
10
100.63
20
-99.7233
11
100.633
21
-99.7072
0
LINE
8
Black
10
100.633
20
-99.7072
11
100.635
21
-99.7025
0
LINE
8
Black
10
100.635
20
-99.7025
11
100.637
21
-99.6972
0
LINE
8
Black
10
100.637
20
-99.6972
11
100.646
21
-99.6838
0
LINE
8
Black
10
100.646
20
-99.6838
11
100.654
21
-99.6697
0
LINE
8
Black
10
100.654
20
-99.6697
11
100.658
21
-99.6661
0
LINE
8
Black
10
100.658
20
-99.6661
11
100.662
21
-99.6616
0
LINE
8
Black
10
100.662
20
-99.6616
11
100.748
21
-99.575
0
LINE
8
Black
10
100.748
20
-99.575
11
94.4518
21
-99.575
0
LINE
8
Black
10
94.4518
20
-99.575
11
93.6323
21
-100.395
0
LINE
8
Black
10
93.6323
20
-100.395
11
93.6513
21
-100.447
0
LINE
8
Black
10
93.6513
20
-100.447
11
93.6513
21
-100.553
0
LINE
8
Black
10
93.6513
20
-100.553
11
93.615
21
-100.653
0
LINE
8
Black
10
93.615
20
-100.653
11
93.5467
21
-100.734
0
LINE
8
Black
10
93.5467
20
-100.734
11
93.4546
21
-100.788
0
LINE
8
Black
10
93.4546
20
-100.788
11
93.35
21
-100.806
0
LINE
8
Black
10
93.35
20
-100.806
11
93.2454
21
-100.788
0
LINE
8
Black
10
93.2454
20
-100.788
11
93.1533
21
-100.734
0
LINE
8
Black
10
93.1533
20
-100.734
11
93.085
21
-100.653
0
LINE
8
Black
10
93.085
20
-100.653
11
93.0487
21
-100.553
0
LINE
8
Black
10
93.0487
20
-100.553
11
93.0487
21
-100.447
0
LINE
8
Black
10
93.0487
20
-100.447
11
93.0677
21
-100.395
0
LINE
8
Black
10
93.0677
20
-100.395
11
92.1616
21
-99.4884
0
LINE
8
Black
10
92.1616
20
-99.4884
11
92.1585
21
-99.4839
0
LINE
8
Black
10
92.1585
20
-99.4839
11
92.1542
21
-99.4803
0
LINE
8
Black
10
92.1542
20
-99.4803
11
92.1461
21
-99.4662
0
LINE
8
Black
10
92.1461
20
-99.4662
11
92.1367
21
-99.4528
0
LINE
8
Black
10
92.1367
20
-99.4528
11
92.1353
21
-99.4475
0
LINE
8
Black
10
92.1353
20
-99.4475
11
92.1325
21
-99.4428
0
LINE
8
Black
10
92.1325
20
-99.4428
11
92.1297
21
-99.4267
0
LINE
8
Black
10
92.1297
20
-99.4267
11
92.1255
21
-99.4109
0
LINE
8
Black
10
92.1255
20
-99.4109
11
92.126
21
-99.4054
0
LINE
8
Black
10
92.126
20
-99.4054
11
92.125
21
-99.4
0
LINE
8
Black
10
92.125
20
-99.4
11
92.125
21
-98.25
0
LINE
8
Black
10
92.125
20
-98.25
11
92.126
21
-98.2446
0
LINE
8
Black
10
92.126
20
-98.2446
11
92.1255
21
-98.2391
0
LINE
8
Black
10
92.1255
20
-98.2391
11
92.1297
21
-98.2233
0
LINE
8
Black
10
92.1297
20
-98.2233
11
92.1325
21
-98.2072
0
LINE
8
Black
10
92.1325
20
-98.2072
11
92.1353
21
-98.2025
0
LINE
8
Black
10
92.1353
20
-98.2025
11
92.1367
21
-98.1972
0
LINE
8
Black
10
92.1367
20
-98.1972
11
92.1461
21
-98.1838
0
LINE
8
Black
10
92.1461
20
-98.1838
11
92.1542
21
-98.1697
0
LINE
8
Black
10
92.1542
20
-98.1697
11
92.1585
21
-98.1661
0
LINE
8
Black
10
92.1585
20
-98.1661
11
92.1616
21
-98.1616
0
LINE
8
Black
10
92.1616
20
-98.1616
11
92.5616
21
-97.7616
0
LINE
8
Black
10
92.5616
20
-97.7616
11
92.5661
21
-97.7585
0
LINE
8
Black
10
92.5661
20
-97.7585
11
92.5697
21
-97.7542
0
LINE
8
Black
10
92.5697
20
-97.7542
11
92.5838
21
-97.7461
0
LINE
8
Black
10
92.5838
20
-97.7461
11
92.5972
21
-97.7367
0
LINE
8
Black
10
92.5972
20
-97.7367
11
92.6025
21
-97.7353
0
LINE
8
Black
10
92.6025
20
-97.7353
11
92.6072
21
-97.7325
0
LINE
8
Black
10
92.6072
20
-97.7325
11
92.6233
21
-97.7297
0
LINE
8
Black
10
92.6233
20
-97.7297
11
92.6391
21
-97.7255
0
LINE
8
Black
10
92.6391
20
-97.7255
11
92.6446
21
-97.726
0
LINE
8
Black
10
92.6446
20
-97.726
11
92.65
21
-97.725
0
LINE
8
Black
10
92.65
20
-97.725
11
93.1
21
-97.725
0
LINE
8
Black
10
93.1
20
-97.725
11
93.1054
21
-97.726
0
LINE
8
Black
10
93.1054
20
-97.726
11
93.1109
21
-97.7255
0
LINE
8
Black
10
93.1109
20
-97.7255
11
93.1267
21
-97.7297
0
LINE
8
Black
10
93.1267
20
-97.7297
11
93.1428
21
-97.7325
0
LINE
8
Black
10
93.1428
20
-97.7325
11
93.1475
21
-97.7353
0
LINE
8
Black
10
93.1475
20
-97.7353
11
93.1528
21
-97.7367
0
LINE
8
Black
10
93.1528
20
-97.7367
11
93.1662
21
-97.7461
0
LINE
8
Black
10
93.1662
20
-97.7461
11
93.1803
21
-97.7542
0
LINE
8
Black
10
93.1803
20
-97.7542
11
93.1839
21
-97.7585
0
LINE
8
Black
10
93.1839
20
-97.7585
11
93.1884
21
-97.7616
0
LINE
8
Black
10
93.1884
20
-97.7616
11
93.8518
21
-98.425
0
LINE
8
Black
10
93.8518
20
-98.425
11
96.7482
21
-98.425
0
LINE
8
Black
10
96.7482
20
-98.425
11
97.325
21
-97.8482
0
LINE
8
Black
10
97.325
20
-97.8482
11
97.325
21
-95.7
0
LINE
8
Black
10
97.325
20
-95.7
11
97.326
21
-95.6946
0
LINE
8
Black
10
97.326
20
-95.6946
11
97.3255
21
-95.6891
0
LINE
8
Black
10
97.3255
20
-95.6891
11
97.3297
21
-95.6733
0
LINE
8
Black
10
97.3297
20
-95.6733
11
97.3325
21
-95.6572
0
LINE
8
Black
10
97.3325
20
-95.6572
11
97.3353
21
-95.6525
0
LINE
8
Black
10
97.3353
20
-95.6525
11
97.3367
21
-95.6472
0
LINE
8
Black
10
97.3367
20
-95.6472
11
97.3461
21
-95.6338
0
LINE
8
Black
10
97.3461
20
-95.6338
11
97.3542
21
-95.6197
0
LINE
8
Black
10
97.3542
20
-95.6197
11
97.3585
21
-95.6161
0
LINE
8
Black
10
97.3585
20
-95.6161
11
97.3616
21
-95.6116
0
LINE
8
Black
10
97.3616
20
-95.6116
11
99.425
21
-93.5482
0
LINE
8
Black
10
99.425
20
-93.5482
11
99.425
21
-93.4758
0
LINE
8
Black
10
99.425
20
-93.4758
11
99.3533
21
-93.4344
0
LINE
8
Black
10
99.3533
20
-93.4344
11
99.285
21
-93.353
0
LINE
8
Black
10
99.285
20
-93.353
11
99.2487
21
-93.2531
0
LINE
8
Black
10
99.2487
20
-93.2531
11
99.2487
21
-93.1469
0
LINE
8
Black
10
99.2487
20
-93.1469
11
99.285
21
-93.047
0
LINE
8
Black
10
99.285
20
-93.047
11
99.3533
21
-92.9656
0
LINE
8
Black
10
99.3533
20
-92.9656
11
99.4454
21
-92.9125
0
LINE
8
Black
10
99.4454
20
-92.9125
11
99.55
21
-92.894
0
LINE
8
Black
10
99.55
20
-92.894
11
99.6546
21
-92.9125
0
LINE
8
Black
10
100.205
20
-103.012
11
100.297
21
-103.066
0
LINE
8
Black
10
100.297
20
-103.066
11
100.365
21
-103.147
0
LINE
8
Black
10
100.365
20
-103.147
11
100.401
21
-103.247
0
LINE
8
Black
10
100.401
20
-103.247
11
100.401
21
-103.353
0
LINE
8
Black
10
100.401
20
-103.353
11
100.365
21
-103.453
0
LINE
8
Black
10
100.365
20
-103.453
11
100.297
21
-103.534
0
LINE
8
Black
10
100.297
20
-103.534
11
100.22
21
-103.579
0
LINE
8
Black
10
100.22
20
-103.579
11
100.217
21
-103.593
0
LINE
8
Black
10
100.217
20
-103.593
11
100.215
21
-103.598
0
LINE
8
Black
10
100.215
20
-103.598
11
100.213
21
-103.603
0
LINE
8
Black
10
100.213
20
-103.603
11
100.204
21
-103.616
0
LINE
8
Black
10
100.204
20
-103.616
11
100.196
21
-103.63
0
LINE
8
Black
10
100.196
20
-103.63
11
100.192
21
-103.634
0
LINE
8
Black
10
100.192
20
-103.634
11
100.188
21
-103.638
0
LINE
8
Black
10
100.188
20
-103.638
11
99.7884
21
-104.038
0
LINE
8
Black
10
99.7884
20
-104.038
11
99.7839
21
-104.042
0
LINE
8
Black
10
99.7839
20
-104.042
11
99.7803
21
-104.046
0
LINE
8
Black
10
99.7803
20
-104.046
11
99.7662
21
-104.054
0
LINE
8
Black
10
99.7662
20
-104.054
11
99.7528
21
-104.063
0
LINE
8
Black
10
99.7528
20
-104.063
11
99.7475
21
-104.065
0
LINE
8
Black
10
99.7475
20
-104.065
11
99.7428
21
-104.067
0
LINE
8
Black
10
99.7428
20
-104.067
11
99.7267
21
-104.07
0
LINE
8
Black
10
99.7267
20
-104.07
11
99.7109
21
-104.075
0
LINE
8
Black
10
99.7109
20
-104.075
11
99.7054
21
-104.074
0
LINE
8
Black
10
99.7054
20
-104.074
11
99.7
21
-104.075
0
LINE
8
Black
10
99.7
20
-104.075
11
96.7518
21
-104.075
0
LINE
8
Black
10
96.7518
20
-104.075
11
95.7823
21
-105.045
0
LINE
8
Black
10
95.7823
20
-105.045
11
95.8013
21
-105.097
0
LINE
8
Black
10
95.8013
20
-105.097
11
95.8013
21
-105.203
0
LINE
8
Black
10
95.8013
20
-105.203
11
95.765
21
-105.303
0
LINE
8
Black
10
95.765
20
-105.303
11
95.6967
21
-105.384
0
LINE
8
Black
10
95.6967
20
-105.384
11
95.6046
21
-105.438
0
LINE
8
Black
10
95.6046
20
-105.438
11
95.5
21
-105.456
0
LINE
8
Black
10
95.5
20
-105.456
11
95.3954
21
-105.438
0
LINE
8
Black
10
95.3954
20
-105.438
11
95.3033
21
-105.384
0
LINE
8
Black
10
95.3033
20
-105.384
11
95.235
21
-105.303
0
LINE
8
Black
10
95.235
20
-105.303
11
95.1987
21
-105.203
0
LINE
8
Black
10
95.1987
20
-105.203
11
95.1987
21
-105.097
0
LINE
8
Black
10
95.1987
20
-105.097
11
95.235
21
-104.997
0
LINE
8
Black
10
95.235
20
-104.997
11
95.3033
21
-104.916
0
LINE
8
Black
10
95.3033
20
-104.916
11
95.3954
21
-104.862
0
LINE
8
Black
10
95.3954
20
-104.862
11
95.5
21
-104.844
0
LINE
8
Black
10
95.5
20
-104.844
11
95.6046
21
-104.862
0
LINE
8
Black
10
95.6046
20
-104.862
11
95.6085
21
-104.865
0
LINE
8
Black
10
95.6085
20
-104.865
11
96.6116
21
-103.862
0
LINE
8
Black
10
96.6116
20
-103.862
11
96.6161
21
-103.858
0
LINE
8
Black
10
96.6161
20
-103.858
11
96.6197
21
-103.854
0
LINE
8
Black
10
96.6197
20
-103.854
11
96.6338
21
-103.846
0
LINE
8
Black
10
96.6338
20
-103.846
11
96.6472
21
-103.837
0
LINE
8
Black
10
96.6472
20
-103.837
11
96.6525
21
-103.835
0
LINE
8
Black
10
96.6525
20
-103.835
11
96.6572
21
-103.833
0
LINE
8
Black
10
96.6572
20
-103.833
11
96.6733
21
-103.83
0
LINE
8
Black
10
96.6733
20
-103.83
11
96.6891
21
-103.825
0
LINE
8
Black
10
96.6891
20
-103.825
11
96.6946
21
-103.826
0
LINE
8
Black
10
96.6946
20
-103.826
11
96.7
21
-103.825
0
LINE
8
Black
10
96.7
20
-103.825
11
99.6482
21
-103.825
0
LINE
8
Black
10
99.6482
20
-103.825
11
99.9258
21
-103.547
0
LINE
8
Black
10
99.9258
20
-103.547
11
99.9033
21
-103.534
0
LINE
8
Black
10
99.9033
20
-103.534
11
99.835
21
-103.453
0
LINE
8
Black
10
99.835
20
-103.453
11
99.7987
21
-103.353
0
LINE
8
Black
10
99.7987
20
-103.353
11
99.7987
21
-103.247
0
LINE
8
Black
10
99.7987
20
-103.247
11
99.835
21
-103.147
0
LINE
8
Black
10
99.835
20
-103.147
11
99.9033
21
-103.066
0
LINE
8
Black
10
99.9033
20
-103.066
11
99.9954
21
-103.012
0
LINE
8
Black
10
99.9954
20
-103.012
11
100.1
21
-102.994
0
LINE
8
Black
10
100.1
20
-102.994
11
100.205
21
-103.012
0
LINE
8
Black
10
99.4046
20
-103.012
11
99.4967
21
-103.066
0
LINE
8
Black
10
99.4967
20
-103.066
11
99.565
21
-103.147
0
LINE
8
Black
10
99.565
20
-103.147
11
99.6013
21
-103.247
0
LINE
8
Black
10
99.6013
20
-103.247
11
99.6013
21
-103.353
0
LINE
8
Black
10
99.6013
20
-103.353
11
99.565
21
-103.453
0
LINE
8
Black
10
99.565
20
-103.453
11
99.4967
21
-103.534
0
LINE
8
Black
10
99.4967
20
-103.534
11
99.4046
21
-103.588
0
LINE
8
Black
10
99.4046
20
-103.588
11
99.3
21
-103.606
0
LINE
8
Black
10
99.3
20
-103.606
11
99.1954
21
-103.588
0
LINE
8
Black
10
99.1954
20
-103.588
11
99.1033
21
-103.534
0
LINE
8
Black
10
99.1033
20
-103.534
11
99.035
21
-103.453
0
LINE
8
Black
10
99.035
20
-103.453
11
99.0248
21
-103.425
0
LINE
8
Black
10
99.0248
20
-103.425
11
96.1018
21
-103.425
0
LINE
8
Black
10
96.1018
20
-103.425
11
95.1323
21
-104.395
0
LINE
8
Black
10
95.1323
20
-104.395
11
95.1513
21
-104.447
0
LINE
8
Black
10
95.1513
20
-104.447
11
95.1513
21
-104.553
0
LINE
8
Black
10
95.1513
20
-104.553
11
95.115
21
-104.653
0
LINE
8
Black
10
95.115
20
-104.653
11
95.0467
21
-104.734
0
LINE
8
Black
10
95.0467
20
-104.734
11
94.9546
21
-104.788
0
LINE
8
Black
10
94.9546
20
-104.788
11
94.85
21
-104.806
0
LINE
8
Black
10
94.85
20
-104.806
11
94.7454
21
-104.788
0
LINE
8
Black
10
94.7454
20
-104.788
11
94.6533
21
-104.734
0
LINE
8
Black
10
94.6533
20
-104.734
11
94.585
21
-104.653
0
LINE
8
Black
10
94.585
20
-104.653
11
94.5487
21
-104.553
0
LINE
8
Black
10
94.5487
20
-104.553
11
94.5487
21
-104.447
0
LINE
8
Black
10
94.5487
20
-104.447
11
94.585
21
-104.347
0
LINE
8
Black
10
94.585
20
-104.347
11
94.6533
21
-104.266
0
LINE
8
Black
10
94.6533
20
-104.266
11
94.7454
21
-104.212
0
LINE
8
Black
10
94.7454
20
-104.212
11
94.85
21
-104.194
0
LINE
8
Black
10
94.85
20
-104.194
11
94.9546
21
-104.212
0
LINE
8
Black
10
94.9546
20
-104.212
11
94.9585
21
-104.215
0
LINE
8
Black
10
94.9585
20
-104.215
11
95.9616
21
-103.212
0
LINE
8
Black
10
95.9616
20
-103.212
11
95.9661
21
-103.208
0
LINE
8
Black
10
95.9661
20
-103.208
11
95.9697
21
-103.204
0
LINE
8
Black
10
95.9697
20
-103.204
11
95.9838
21
-103.196
0
LINE
8
Black
10
95.9838
20
-103.196
11
95.9972
21
-103.187
0
LINE
8
Black
10
95.9972
20
-103.187
11
96.0025
21
-103.185
0
LINE
8
Black
10
96.0025
20
-103.185
11
96.0072
21
-103.183
0
LINE
8
Black
10
96.0072
20
-103.183
11
96.0233
21
-103.18
0
LINE
8
Black
10
96.0233
20
-103.18
11
96.0391
21
-103.175
0
LINE
8
Black
10
96.0391
20
-103.175
11
96.0446
21
-103.176
0
LINE
8
Black
10
96.0446
20
-103.176
11
96.05
21
-103.175
0
LINE
8
Black
10
96.05
20
-103.175
11
99.0248
21
-103.175
0
LINE
8
Black
10
99.0248
20
-103.175
11
99.035
21
-103.147
0
LINE
8
Black
10
99.035
20
-103.147
11
99.1033
21
-103.066
0
LINE
8
Black
10
99.1033
20
-103.066
11
99.1954
21
-103.012
0
LINE
8
Black
10
99.1954
20
-103.012
11
99.3
21
-102.994
0
LINE
8
Black
10
99.3
20
-102.994
11
99.4046
21
-103.012
0
LINE
8
Black
10
102.605
20
-97.2125
11
102.697
21
-97.2656
0
LINE
8
Black
10
102.697
20
-97.2656
11
102.765
21
-97.347
0
LINE
8
Black
10
102.765
20
-97.347
11
102.801
21
-97.4469
0
LINE
8
Black
10
102.801
20
-97.4469
11
102.801
21
-97.5531
0
LINE
8
Black
10
102.801
20
-97.5531
11
102.765
21
-97.653
0
LINE
8
Black
10
102.765
20
-97.653
11
102.697
21
-97.7344
0
LINE
8
Black
10
102.697
20
-97.7344
11
102.605
21
-97.7875
0
LINE
8
Black
10
102.605
20
-97.7875
11
102.5
21
-97.806
0
LINE
8
Black
10
102.5
20
-97.806
11
102.395
21
-97.7875
0
LINE
8
Black
10
102.395
20
-97.7875
11
102.303
21
-97.7344
0
LINE
8
Black
10
102.303
20
-97.7344
11
102.235
21
-97.653
0
LINE
8
Black
10
102.235
20
-97.653
11
102.225
21
-97.625
0
LINE
8
Black
10
102.225
20
-97.625
11
99.4018
21
-97.625
0
LINE
8
Black
10
99.4018
20
-97.625
11
98.7323
21
-98.2945
0
LINE
8
Black
10
98.7323
20
-98.2945
11
98.7513
21
-98.3469
0
LINE
8
Black
10
98.7513
20
-98.3469
11
98.7513
21
-98.4531
0
LINE
8
Black
10
98.7513
20
-98.4531
11
98.715
21
-98.553
0
LINE
8
Black
10
98.715
20
-98.553
11
98.6467
21
-98.6344
0
LINE
8
Black
10
98.6467
20
-98.6344
11
98.5546
21
-98.6875
0
LINE
8
Black
10
98.5546
20
-98.6875
11
98.45
21
-98.706
0
LINE
8
Black
10
98.45
20
-98.706
11
98.3454
21
-98.6875
0
LINE
8
Black
10
98.3454
20
-98.6875
11
98.2533
21
-98.6344
0
LINE
8
Black
10
98.2533
20
-98.6344
11
98.185
21
-98.553
0
LINE
8
Black
10
98.185
20
-98.553
11
98.1487
21
-98.4531
0
LINE
8
Black
10
98.1487
20
-98.4531
11
98.1487
21
-98.3469
0
LINE
8
Black
10
98.1487
20
-98.3469
11
98.185
21
-98.247
0
LINE
8
Black
10
98.185
20
-98.247
11
98.2533
21
-98.1656
0
LINE
8
Black
10
98.2533
20
-98.1656
11
98.3454
21
-98.1125
0
LINE
8
Black
10
98.3454
20
-98.1125
11
98.45
21
-98.094
0
LINE
8
Black
10
98.45
20
-98.094
11
98.5546
21
-98.1125
0
LINE
8
Black
10
98.5546
20
-98.1125
11
98.5585
21
-98.1147
0
LINE
8
Black
10
98.5585
20
-98.1147
11
99.2616
21
-97.4116
0
LINE
8
Black
10
99.2616
20
-97.4116
11
99.2661
21
-97.4085
0
LINE
8
Black
10
99.2661
20
-97.4085
11
99.2697
21
-97.4042
0
LINE
8
Black
10
99.2697
20
-97.4042
11
99.2838
21
-97.3961
0
LINE
8
Black
10
99.2838
20
-97.3961
11
99.2972
21
-97.3867
0
LINE
8
Black
10
99.2972
20
-97.3867
11
99.3025
21
-97.3853
0
LINE
8
Black
10
99.3025
20
-97.3853
11
99.3072
21
-97.3825
0
LINE
8
Black
10
99.3072
20
-97.3825
11
99.3233
21
-97.3797
0
LINE
8
Black
10
99.3233
20
-97.3797
11
99.3391
21
-97.3755
0
LINE
8
Black
10
99.3391
20
-97.3755
11
99.3446
21
-97.376
0
LINE
8
Black
10
99.3446
20
-97.376
11
99.35
21
-97.375
0
LINE
8
Black
10
99.35
20
-97.375
11
102.225
21
-97.375
0
LINE
8
Black
10
102.225
20
-97.375
11
102.235
21
-97.347
0
LINE
8
Black
10
102.235
20
-97.347
11
102.303
21
-97.2656
0
LINE
8
Black
10
102.303
20
-97.2656
11
102.395
21
-97.2125
0
LINE
8
Black
10
102.395
20
-97.2125
11
102.5
21
-97.194
0
LINE
8
Black
10
102.5
20
-97.194
11
102.605
21
-97.2125
0
LINE
8
Black
10
98.7546
20
-96.4125
11
98.8467
21
-96.4656
0
LINE
8
Black
10
98.8467
20
-96.4656
11
98.915
21
-96.547
0
LINE
8
Black
10
98.915
20
-96.547
11
98.9513
21
-96.6469
0
LINE
8
Black
10
98.9513
20
-96.6469
11
98.9513
21
-96.7531
0
LINE
8
Black
10
98.9513
20
-96.7531
11
98.9434
21
-96.775
0
LINE
8
Black
10
98.9434
20
-96.775
11
107.104
21
-96.775
0
LINE
8
Black
10
107.104
20
-96.775
11
107.153
21
-96.7156
0
LINE
8
Black
10
107.153
20
-96.7156
11
107.245
21
-96.6625
0
LINE
8
Black
10
107.245
20
-96.6625
11
107.35
21
-96.644
0
LINE
8
Black
10
107.35
20
-96.644
11
107.455
21
-96.6625
0
LINE
8
Black
10
107.455
20
-96.6625
11
107.547
21
-96.7156
0
LINE
8
Black
10
107.547
20
-96.7156
11
107.615
21
-96.797
0
LINE
8
Black
10
107.615
20
-96.797
11
107.651
21
-96.8969
0
LINE
8
Black
10
107.651
20
-96.8969
11
107.651
21
-97.0031
0
LINE
8
Black
10
107.651
20
-97.0031
11
107.615
21
-97.103
0
LINE
8
Black
10
107.615
20
-97.103
11
107.547
21
-97.1844
0
LINE
8
Black
10
107.547
20
-97.1844
11
107.455
21
-97.2375
0
LINE
8
Black
10
107.455
20
-97.2375
11
107.35
21
-97.256
0
LINE
8
Black
10
107.35
20
-97.256
11
107.245
21
-97.2375
0
LINE
8
Black
10
107.245
20
-97.2375
11
107.153
21
-97.1844
0
LINE
8
Black
10
107.153
20
-97.1844
11
107.085
21
-97.103
0
LINE
8
Black
10
107.085
20
-97.103
11
107.057
21
-97.025
0
LINE
8
Black
10
107.057
20
-97.025
11
98.85
21
-97.025
0
LINE
8
Black
10
98.85
20
-97.025
11
98.8446
21
-97.024
0
LINE
8
Black
10
98.8446
20
-97.024
11
98.8391
21
-97.0245
0
LINE
8
Black
10
98.8391
20
-97.0245
11
98.8233
21
-97.0203
0
LINE
8
Black
10
98.8233
20
-97.0203
11
98.8072
21
-97.0175
0
LINE
8
Black
10
98.8072
20
-97.0175
11
98.8025
21
-97.0147
0
LINE
8
Black
10
98.8025
20
-97.0147
11
98.7972
21
-97.0133
0
LINE
8
Black
10
98.7972
20
-97.0133
11
98.7838
21
-97.0039
0
LINE
8
Black
10
98.7838
20
-97.0039
11
98.7697
21
-96.9958
0
LINE
8
Black
10
98.7697
20
-96.9958
11
98.7661
21
-96.9915
0
LINE
8
Black
10
98.7661
20
-96.9915
11
98.7616
21
-96.9884
0
LINE
8
Black
10
98.7616
20
-96.9884
11
98.7585
21
-96.9853
0
LINE
8
Black
10
98.7585
20
-96.9853
11
98.7546
21
-96.9875
0
LINE
8
Black
10
98.7546
20
-96.9875
11
98.65
21
-97.006
0
LINE
8
Black
10
98.65
20
-97.006
11
98.5454
21
-96.9875
0
LINE
8
Black
10
98.5454
20
-96.9875
11
98.4533
21
-96.9344
0
LINE
8
Black
10
98.4533
20
-96.9344
11
98.385
21
-96.853
0
LINE
8
Black
10
98.385
20
-96.853
11
98.3487
21
-96.7531
0
LINE
8
Black
10
98.3487
20
-96.7531
11
98.3487
21
-96.6469
0
LINE
8
Black
10
98.3487
20
-96.6469
11
98.385
21
-96.547
0
LINE
8
Black
10
98.385
20
-96.547
11
98.4533
21
-96.4656
0
LINE
8
Black
10
98.4533
20
-96.4656
11
98.5454
21
-96.4125
0
LINE
8
Black
10
98.5454
20
-96.4125
11
98.65
21
-96.394
0
LINE
8
Black
10
98.65
20
-96.394
11
98.7546
21
-96.4125
0
LINE
8
Black
10
83.6
20
-107.625
11
83.525
21
-107.625
0
LINE
8
Black
10
83.525
20
-107.625
11
83.525
21
-107.799
0
LINE
8
Black
10
83.525
20
-107.799
11
83.5967
21
-107.841
0
LINE
8
Black
10
83.5967
20
-107.841
11
83.665
21
-107.922
0
LINE
8
Black
10
83.665
20
-107.922
11
83.7013
21
-108.022
0
LINE
8
Black
10
83.7013
20
-108.022
11
83.7013
21
-108.128
0
LINE
8
Black
10
83.7013
20
-108.128
11
83.665
21
-108.228
0
LINE
8
Black
10
83.665
20
-108.228
11
83.5967
21
-108.309
0
LINE
8
Black
10
83.5967
20
-108.309
11
83.5046
21
-108.363
0
LINE
8
Black
10
83.5046
20
-108.363
11
83.4
21
-108.381
0
LINE
8
Black
10
83.4
20
-108.381
11
83.2954
21
-108.363
0
LINE
8
Black
10
83.2954
20
-108.363
11
83.2033
21
-108.309
0
LINE
8
Black
10
83.2033
20
-108.309
11
83.135
21
-108.228
0
LINE
8
Black
10
83.135
20
-108.228
11
83.0987
21
-108.128
0
LINE
8
Black
10
83.0987
20
-108.128
11
83.0987
21
-108.022
0
LINE
8
Black
10
83.0987
20
-108.022
11
83.135
21
-107.922
0
LINE
8
Black
10
83.135
20
-107.922
11
83.2033
21
-107.841
0
LINE
8
Black
10
83.2033
20
-107.841
11
83.2954
21
-107.787
0
LINE
8
Black
10
83.2954
20
-107.787
11
83.325
21
-107.782
0
LINE
8
Black
10
83.325
20
-107.782
11
83.325
21
-107.625
0
LINE
8
Black
10
83.325
20
-107.625
11
83.25
21
-107.625
0
LINE
8
Black
10
83.25
20
-107.625
11
83.25
21
-107.275
0
LINE
8
Black
10
83.25
20
-107.275
11
83.6
21
-107.275
0
LINE
8
Black
10
83.6
20
-107.275
11
83.6
21
-107.625
0
LINE
8
Black
10
119.529
20
-105.076
11
119.534
21
-105.075
0
LINE
8
Black
10
119.534
20
-105.075
11
119.546
21
-105.079
0
LINE
8
Black
10
119.546
20
-105.079
11
119.559
21
-105.081
0
LINE
8
Black
10
119.559
20
-105.081
11
119.563
21
-105.083
0
LINE
8
Black
10
119.563
20
-105.083
11
119.567
21
-105.084
0
LINE
8
Black
10
119.567
20
-105.084
11
119.578
21
-105.092
0
LINE
8
Black
10
119.578
20
-105.092
11
119.589
21
-105.098
0
LINE
8
Black
10
119.589
20
-105.098
11
119.592
21
-105.102
0
LINE
8
Black
10
119.592
20
-105.102
11
119.596
21
-105.104
0
LINE
8
Black
10
119.596
20
-105.104
11
119.896
21
-105.404
0
LINE
8
Black
10
119.896
20
-105.404
11
119.898
21
-105.408
0
LINE
8
Black
10
119.898
20
-105.408
11
119.902
21
-105.411
0
LINE
8
Black
10
119.902
20
-105.411
11
119.908
21
-105.422
0
LINE
8
Black
10
119.908
20
-105.422
11
119.916
21
-105.433
0
LINE
8
Black
10
119.916
20
-105.433
11
119.917
21
-105.437
0
LINE
8
Black
10
119.917
20
-105.437
11
119.919
21
-105.441
0
LINE
8
Black
10
119.919
20
-105.441
11
119.921
21
-105.454
0
LINE
8
Black
10
119.921
20
-105.454
11
119.925
21
-105.466
0
LINE
8
Black
10
119.925
20
-105.466
11
119.924
21
-105.471
0
LINE
8
Black
10
119.924
20
-105.471
11
119.925
21
-105.475
0
LINE
8
Black
10
119.925
20
-105.475
11
119.925
21
-107.624
0
LINE
8
Black
10
119.925
20
-107.624
11
119.945
21
-107.612
0
LINE
8
Black
10
119.945
20
-107.612
11
120.05
21
-107.594
0
LINE
8
Black
10
120.05
20
-107.594
11
120.155
21
-107.612
0
LINE
8
Black
10
120.155
20
-107.612
11
120.247
21
-107.666
0
LINE
8
Black
10
120.247
20
-107.666
11
120.315
21
-107.747
0
LINE
8
Black
10
120.315
20
-107.747
11
120.351
21
-107.847
0
LINE
8
Black
10
120.351
20
-107.847
11
120.351
21
-107.953
0
LINE
8
Black
10
120.351
20
-107.953
11
120.315
21
-108.053
0
LINE
8
Black
10
120.315
20
-108.053
11
120.247
21
-108.134
0
LINE
8
Black
10
120.247
20
-108.134
11
120.155
21
-108.188
0
LINE
8
Black
10
120.155
20
-108.188
11
120.05
21
-108.206
0
LINE
8
Black
10
120.05
20
-108.206
11
119.945
21
-108.188
0
LINE
8
Black
10
119.945
20
-108.188
11
119.853
21
-108.134
0
LINE
8
Black
10
119.853
20
-108.134
11
119.785
21
-108.053
0
LINE
8
Black
10
119.785
20
-108.053
11
119.749
21
-107.953
0
LINE
8
Black
10
119.749
20
-107.953
11
119.749
21
-107.847
0
LINE
8
Black
10
119.749
20
-107.847
11
119.777
21
-107.769
0
LINE
8
Black
10
119.777
20
-107.769
11
119.754
21
-107.746
0
LINE
8
Black
10
119.754
20
-107.746
11
119.752
21
-107.742
0
LINE
8
Black
10
119.752
20
-107.742
11
119.748
21
-107.739
0
LINE
8
Black
10
119.748
20
-107.739
11
119.742
21
-107.728
0
LINE
8
Black
10
119.742
20
-107.728
11
119.734
21
-107.717
0
LINE
8
Black
10
119.734
20
-107.717
11
119.733
21
-107.713
0
LINE
8
Black
10
119.733
20
-107.713
11
119.731
21
-107.709
0
LINE
8
Black
10
119.731
20
-107.709
11
119.729
21
-107.696
0
LINE
8
Black
10
119.729
20
-107.696
11
119.725
21
-107.684
0
LINE
8
Black
10
119.725
20
-107.684
11
119.726
21
-107.679
0
LINE
8
Black
10
119.726
20
-107.679
11
119.725
21
-107.675
0
LINE
8
Black
10
119.725
20
-107.675
11
119.725
21
-105.516
0
LINE
8
Black
10
119.725
20
-105.516
11
119.484
21
-105.275
0
LINE
8
Black
10
119.484
20
-105.275
11
118.75
21
-105.275
0
LINE
8
Black
10
118.75
20
-105.275
11
118.746
21
-105.274
0
LINE
8
Black
10
118.746
20
-105.274
11
118.741
21
-105.275
0
LINE
8
Black
10
118.741
20
-105.275
11
118.729
21
-105.271
0
LINE
8
Black
10
118.729
20
-105.271
11
118.716
21
-105.269
0
LINE
8
Black
10
118.716
20
-105.269
11
118.712
21
-105.267
0
LINE
8
Black
10
118.712
20
-105.267
11
118.708
21
-105.266
0
LINE
8
Black
10
118.708
20
-105.266
11
118.697
21
-105.258
0
LINE
8
Black
10
118.697
20
-105.258
11
118.686
21
-105.252
0
LINE
8
Black
10
118.686
20
-105.252
11
118.683
21
-105.248
0
LINE
8
Black
10
118.683
20
-105.248
11
118.679
21
-105.246
0
LINE
8
Black
10
118.679
20
-105.246
11
118.504
21
-105.071
0
LINE
8
Black
10
118.504
20
-105.071
11
118.502
21
-105.067
0
LINE
8
Black
10
118.502
20
-105.067
11
118.498
21
-105.064
0
LINE
8
Black
10
118.498
20
-105.064
11
118.492
21
-105.053
0
LINE
8
Black
10
118.492
20
-105.053
11
118.484
21
-105.042
0
LINE
8
Black
10
118.484
20
-105.042
11
118.483
21
-105.038
0
LINE
8
Black
10
118.483
20
-105.038
11
118.481
21
-105.034
0
LINE
8
Black
10
118.481
20
-105.034
11
118.479
21
-105.021
0
LINE
8
Black
10
118.479
20
-105.021
11
118.475
21
-105.009
0
LINE
8
Black
10
118.475
20
-105.009
11
118.476
21
-105.004
0
LINE
8
Black
10
118.476
20
-105.004
11
118.475
21
-105
0
LINE
8
Black
10
118.475
20
-105
11
118.475
21
-103.991
0
LINE
8
Black
10
118.475
20
-103.991
11
118.234
21
-103.75
0
LINE
8
Black
10
118.234
20
-103.75
11
116.866
21
-103.75
0
LINE
8
Black
10
116.866
20
-103.75
11
116.648
21
-103.969
0
LINE
8
Black
10
116.648
20
-103.969
11
116.676
21
-104.047
0
LINE
8
Black
10
116.676
20
-104.047
11
116.676
21
-104.153
0
LINE
8
Black
10
116.676
20
-104.153
11
116.64
21
-104.253
0
LINE
8
Black
10
116.64
20
-104.253
11
116.572
21
-104.334
0
LINE
8
Black
10
116.572
20
-104.334
11
116.48
21
-104.388
0
LINE
8
Black
10
116.48
20
-104.388
11
116.375
21
-104.406
0
LINE
8
Black
10
116.375
20
-104.406
11
116.27
21
-104.388
0
LINE
8
Black
10
116.27
20
-104.388
11
116.178
21
-104.334
0
LINE
8
Black
10
116.178
20
-104.334
11
116.11
21
-104.253
0
LINE
8
Black
10
116.11
20
-104.253
11
116.074
21
-104.153
0
LINE
8
Black
10
116.074
20
-104.153
11
116.074
21
-104.047
0
LINE
8
Black
10
116.074
20
-104.047
11
116.11
21
-103.947
0
LINE
8
Black
10
116.11
20
-103.947
11
116.178
21
-103.866
0
LINE
8
Black
10
116.178
20
-103.866
11
116.27
21
-103.812
0
LINE
8
Black
10
116.27
20
-103.812
11
116.375
21
-103.794
0
LINE
8
Black
10
116.375
20
-103.794
11
116.48
21
-103.812
0
LINE
8
Black
10
116.48
20
-103.812
11
116.506
21
-103.828
0
LINE
8
Black
10
116.506
20
-103.828
11
116.754
21
-103.579
0
LINE
8
Black
10
116.754
20
-103.579
11
116.758
21
-103.577
0
LINE
8
Black
10
116.758
20
-103.577
11
116.761
21
-103.573
0
LINE
8
Black
10
116.761
20
-103.573
11
116.772
21
-103.567
0
LINE
8
Black
10
116.772
20
-103.567
11
116.783
21
-103.559
0
LINE
8
Black
10
116.783
20
-103.559
11
116.787
21
-103.558
0
LINE
8
Black
10
116.787
20
-103.558
11
116.791
21
-103.556
0
LINE
8
Black
10
116.791
20
-103.556
11
116.804
21
-103.554
0
LINE
8
Black
10
116.804
20
-103.554
11
116.816
21
-103.55
0
LINE
8
Black
10
116.816
20
-103.55
11
116.821
21
-103.551
0
LINE
8
Black
10
116.821
20
-103.551
11
116.825
21
-103.55
0
LINE
8
Black
10
116.825
20
-103.55
11
118.275
21
-103.55
0
LINE
8
Black
10
118.275
20
-103.55
11
118.279
21
-103.551
0
LINE
8
Black
10
118.279
20
-103.551
11
118.284
21
-103.55
0
LINE
8
Black
10
118.284
20
-103.55
11
118.296
21
-103.554
0
LINE
8
Black
10
118.296
20
-103.554
11
118.309
21
-103.556
0
LINE
8
Black
10
118.309
20
-103.556
11
118.313
21
-103.558
0
LINE
8
Black
10
118.313
20
-103.558
11
118.317
21
-103.559
0
LINE
8
Black
10
118.317
20
-103.559
11
118.328
21
-103.567
0
LINE
8
Black
10
118.328
20
-103.567
11
118.339
21
-103.573
0
LINE
8
Black
10
118.339
20
-103.573
11
118.342
21
-103.577
0
LINE
8
Black
10
118.342
20
-103.577
11
118.346
21
-103.579
0
LINE
8
Black
10
118.346
20
-103.579
11
118.646
21
-103.879
0
LINE
8
Black
10
118.646
20
-103.879
11
118.648
21
-103.883
0
LINE
8
Black
10
118.648
20
-103.883
11
118.652
21
-103.886
0
LINE
8
Black
10
118.652
20
-103.886
11
118.658
21
-103.897
0
LINE
8
Black
10
118.658
20
-103.897
11
118.666
21
-103.908
0
LINE
8
Black
10
118.666
20
-103.908
11
118.667
21
-103.912
0
LINE
8
Black
10
118.667
20
-103.912
11
118.669
21
-103.916
0
LINE
8
Black
10
118.669
20
-103.916
11
118.671
21
-103.929
0
LINE
8
Black
10
118.671
20
-103.929
11
118.675
21
-103.941
0
LINE
8
Black
10
118.675
20
-103.941
11
118.674
21
-103.946
0
LINE
8
Black
10
118.674
20
-103.946
11
118.675
21
-103.95
0
LINE
8
Black
10
118.675
20
-103.95
11
118.675
21
-104.959
0
LINE
8
Black
10
118.675
20
-104.959
11
118.791
21
-105.075
0
LINE
8
Black
10
118.791
20
-105.075
11
119.5
21
-105.075
0
LINE
8
Black
10
119.5
20
-105.075
11
119.525
21
-105.075
0
LINE
8
Black
10
119.525
20
-105.075
11
119.529
21
-105.076
0
LINE
8
Black
10
82.95
20
-107.625
11
82.6
21
-107.625
0
LINE
8
Black
10
82.6
20
-107.625
11
82.6
21
-107.55
0
LINE
8
Black
10
82.6
20
-107.55
11
82.5664
21
-107.55
0
LINE
8
Black
10
82.5664
20
-107.55
11
82.5228
21
-107.594
0
LINE
8
Black
10
82.5228
20
-107.594
11
82.5513
21
-107.672
0
LINE
8
Black
10
82.5513
20
-107.672
11
82.5513
21
-107.778
0
LINE
8
Black
10
82.5513
20
-107.778
11
82.515
21
-107.878
0
LINE
8
Black
10
82.515
20
-107.878
11
82.4467
21
-107.959
0
LINE
8
Black
10
82.4467
20
-107.959
11
82.3546
21
-108.013
0
LINE
8
Black
10
82.3546
20
-108.013
11
82.25
21
-108.031
0
LINE
8
Black
10
82.25
20
-108.031
11
82.1454
21
-108.013
0
LINE
8
Black
10
82.1454
20
-108.013
11
82.0533
21
-107.959
0
LINE
8
Black
10
82.0533
20
-107.959
11
81.985
21
-107.878
0
LINE
8
Black
10
81.985
20
-107.878
11
81.9487
21
-107.778
0
LINE
8
Black
10
81.9487
20
-107.778
11
81.9487
21
-107.672
0
LINE
8
Black
10
81.9487
20
-107.672
11
81.985
21
-107.572
0
LINE
8
Black
10
81.985
20
-107.572
11
82.0533
21
-107.491
0
LINE
8
Black
10
82.0533
20
-107.491
11
82.1454
21
-107.437
0
LINE
8
Black
10
82.1454
20
-107.437
11
82.25
21
-107.419
0
LINE
8
Black
10
82.25
20
-107.419
11
82.3546
21
-107.437
0
LINE
8
Black
10
82.3546
20
-107.437
11
82.3809
21
-107.453
0
LINE
8
Black
10
82.3809
20
-107.453
11
82.4543
21
-107.379
0
LINE
8
Black
10
82.4543
20
-107.379
11
82.4579
21
-107.377
0
LINE
8
Black
10
82.4579
20
-107.377
11
82.4607
21
-107.373
0
LINE
8
Black
10
82.4607
20
-107.373
11
82.472
21
-107.367
0
LINE
8
Black
10
82.472
20
-107.367
11
82.4827
21
-107.359
0
LINE
8
Black
10
82.4827
20
-107.359
11
82.487
21
-107.358
0
LINE
8
Black
10
82.487
20
-107.358
11
82.4908
21
-107.356
0
LINE
8
Black
10
82.4908
20
-107.356
11
82.5037
21
-107.354
0
LINE
8
Black
10
82.5037
20
-107.354
11
82.5163
21
-107.35
0
LINE
8
Black
10
82.5163
20
-107.35
11
82.5207
21
-107.351
0
LINE
8
Black
10
82.5207
20
-107.351
11
82.525
21
-107.35
0
LINE
8
Black
10
82.525
20
-107.35
11
82.6
21
-107.35
0
LINE
8
Black
10
82.6
20
-107.35
11
82.6
21
-107.275
0
LINE
8
Black
10
82.6
20
-107.275
11
82.95
21
-107.275
0
LINE
8
Black
10
82.95
20
-107.275
11
82.95
21
-107.625
0
LINE
8
Black
10
115.104
20
-105.226
11
115.109
21
-105.225
0
LINE
8
Black
10
115.109
20
-105.225
11
115.121
21
-105.229
0
LINE
8
Black
10
115.121
20
-105.229
11
115.134
21
-105.231
0
LINE
8
Black
10
115.134
20
-105.231
11
115.138
21
-105.233
0
LINE
8
Black
10
115.138
20
-105.233
11
115.142
21
-105.234
0
LINE
8
Black
10
115.142
20
-105.234
11
115.153
21
-105.242
0
LINE
8
Black
10
115.153
20
-105.242
11
115.164
21
-105.248
0
LINE
8
Black
10
115.164
20
-105.248
11
115.167
21
-105.252
0
LINE
8
Black
10
115.167
20
-105.252
11
115.171
21
-105.254
0
LINE
8
Black
10
115.171
20
-105.254
11
115.746
21
-105.829
0
LINE
8
Black
10
115.746
20
-105.829
11
115.748
21
-105.833
0
LINE
8
Black
10
115.748
20
-105.833
11
115.752
21
-105.836
0
LINE
8
Black
10
115.752
20
-105.836
11
115.758
21
-105.847
0
LINE
8
Black
10
115.758
20
-105.847
11
115.766
21
-105.858
0
LINE
8
Black
10
115.766
20
-105.858
11
115.767
21
-105.862
0
LINE
8
Black
10
115.767
20
-105.862
11
115.769
21
-105.866
0
LINE
8
Black
10
115.769
20
-105.866
11
115.771
21
-105.879
0
LINE
8
Black
10
115.771
20
-105.879
11
115.775
21
-105.891
0
LINE
8
Black
10
115.775
20
-105.891
11
115.774
21
-105.896
0
LINE
8
Black
10
115.774
20
-105.896
11
115.775
21
-105.9
0
LINE
8
Black
10
115.775
20
-105.9
11
115.775
21
-106.134
0
LINE
8
Black
10
115.775
20
-106.134
11
116.166
21
-106.525
0
LINE
8
Black
10
116.166
20
-106.525
11
117.85
21
-106.525
0
LINE
8
Black
10
117.85
20
-106.525
11
117.854
21
-106.526
0
LINE
8
Black
10
117.854
20
-106.526
11
117.859
21
-106.525
0
LINE
8
Black
10
117.859
20
-106.525
11
117.871
21
-106.529
0
LINE
8
Black
10
117.871
20
-106.529
11
117.884
21
-106.531
0
LINE
8
Black
10
117.884
20
-106.531
11
117.888
21
-106.533
0
LINE
8
Black
10
117.888
20
-106.533
11
117.892
21
-106.534
0
LINE
8
Black
10
117.892
20
-106.534
11
117.903
21
-106.542
0
LINE
8
Black
10
117.903
20
-106.542
11
117.914
21
-106.548
0
LINE
8
Black
10
117.914
20
-106.548
11
117.917
21
-106.552
0
LINE
8
Black
10
117.917
20
-106.552
11
117.921
21
-106.554
0
LINE
8
Black
10
117.921
20
-106.554
11
118.179
21
-106.813
0
LINE
8
Black
10
118.179
20
-106.813
11
118.182
21
-106.816
0
LINE
8
Black
10
118.182
20
-106.816
11
118.185
21
-106.819
0
LINE
8
Black
10
118.185
20
-106.819
11
118.192
21
-106.83
0
LINE
8
Black
10
118.192
20
-106.83
11
118.199
21
-106.841
0
LINE
8
Black
10
118.199
20
-106.841
11
118.2
21
-106.845
0
LINE
8
Black
10
118.2
20
-106.845
11
118.202
21
-106.849
0
LINE
8
Black
10
118.202
20
-106.849
11
118.205
21
-106.862
0
LINE
8
Black
10
118.205
20
-106.862
11
118.207
21
-106.871
0
LINE
8
Black
10
118.207
20
-106.871
11
118.708
21
-106.871
0
LINE
8
Black
10
118.708
20
-106.871
11
118.708
21
-107.771
0
LINE
8
Black
10
118.708
20
-107.771
11
117.508
21
-107.771
0
LINE
8
Black
10
117.508
20
-107.771
11
117.508
21
-106.871
0
LINE
8
Black
10
117.508
20
-106.871
11
117.955
21
-106.871
0
LINE
8
Black
10
117.955
20
-106.871
11
117.809
21
-106.725
0
LINE
8
Black
10
117.809
20
-106.725
11
116.125
21
-106.725
0
LINE
8
Black
10
116.125
20
-106.725
11
116.121
21
-106.724
0
LINE
8
Black
10
116.121
20
-106.724
11
116.116
21
-106.725
0
LINE
8
Black
10
116.116
20
-106.725
11
116.104
21
-106.721
0
LINE
8
Black
10
116.104
20
-106.721
11
116.091
21
-106.719
0
LINE
8
Black
10
116.091
20
-106.719
11
116.087
21
-106.717
0
LINE
8
Black
10
116.087
20
-106.717
11
116.083
21
-106.716
0
LINE
8
Black
10
116.083
20
-106.716
11
116.072
21
-106.708
0
LINE
8
Black
10
116.072
20
-106.708
11
116.061
21
-106.702
0
LINE
8
Black
10
116.061
20
-106.702
11
116.058
21
-106.698
0
LINE
8
Black
10
116.058
20
-106.698
11
116.054
21
-106.696
0
LINE
8
Black
10
116.054
20
-106.696
11
115.604
21
-106.246
0
LINE
8
Black
10
115.604
20
-106.246
11
115.602
21
-106.242
0
LINE
8
Black
10
115.602
20
-106.242
11
115.598
21
-106.239
0
LINE
8
Black
10
115.598
20
-106.239
11
115.592
21
-106.228
0
LINE
8
Black
10
115.592
20
-106.228
11
115.584
21
-106.217
0
LINE
8
Black
10
115.584
20
-106.217
11
115.583
21
-106.213
0
LINE
8
Black
10
115.583
20
-106.213
11
115.581
21
-106.209
0
LINE
8
Black
10
115.581
20
-106.209
11
115.579
21
-106.196
0
LINE
8
Black
10
115.579
20
-106.196
11
115.575
21
-106.184
0
LINE
8
Black
10
115.575
20
-106.184
11
115.576
21
-106.179
0
LINE
8
Black
10
115.576
20
-106.179
11
115.575
21
-106.175
0
LINE
8
Black
10
115.575
20
-106.175
11
115.575
21
-105.941
0
LINE
8
Black
10
115.575
20
-105.941
11
115.059
21
-105.425
0
LINE
8
Black
10
115.059
20
-105.425
11
113.891
21
-105.425
0
LINE
8
Black
10
113.891
20
-105.425
11
113.398
21
-105.919
0
LINE
8
Black
10
113.398
20
-105.919
11
113.426
21
-105.997
0
LINE
8
Black
10
113.426
20
-105.997
11
113.426
21
-106.103
0
LINE
8
Black
10
113.426
20
-106.103
11
113.39
21
-106.203
0
LINE
8
Black
10
113.39
20
-106.203
11
113.322
21
-106.284
0
LINE
8
Black
10
113.322
20
-106.284
11
113.23
21
-106.338
0
LINE
8
Black
10
113.23
20
-106.338
11
113.125
21
-106.356
0
LINE
8
Black
10
113.125
20
-106.356
11
113.02
21
-106.338
0
LINE
8
Black
10
113.02
20
-106.338
11
112.928
21
-106.284
0
LINE
8
Black
10
112.928
20
-106.284
11
112.86
21
-106.203
0
LINE
8
Black
10
112.86
20
-106.203
11
112.824
21
-106.103
0
LINE
8
Black
10
112.824
20
-106.103
11
112.824
21
-105.997
0
LINE
8
Black
10
112.824
20
-105.997
11
112.86
21
-105.897
0
LINE
8
Black
10
112.86
20
-105.897
11
112.928
21
-105.816
0
LINE
8
Black
10
112.928
20
-105.816
11
113.02
21
-105.762
0
LINE
8
Black
10
113.02
20
-105.762
11
113.125
21
-105.744
0
LINE
8
Black
10
113.125
20
-105.744
11
113.23
21
-105.762
0
LINE
8
Black
10
113.23
20
-105.762
11
113.256
21
-105.778
0
LINE
8
Black
10
113.256
20
-105.778
11
113.779
21
-105.254
0
LINE
8
Black
10
113.779
20
-105.254
11
113.783
21
-105.252
0
LINE
8
Black
10
113.783
20
-105.252
11
113.786
21
-105.248
0
LINE
8
Black
10
113.786
20
-105.248
11
113.797
21
-105.242
0
LINE
8
Black
10
113.797
20
-105.242
11
113.808
21
-105.234
0
LINE
8
Black
10
113.808
20
-105.234
11
113.812
21
-105.233
0
LINE
8
Black
10
113.812
20
-105.233
11
113.816
21
-105.231
0
LINE
8
Black
10
113.816
20
-105.231
11
113.829
21
-105.229
0
LINE
8
Black
10
113.829
20
-105.229
11
113.841
21
-105.225
0
LINE
8
Black
10
113.841
20
-105.225
11
113.846
21
-105.226
0
LINE
8
Black
10
113.846
20
-105.226
11
113.85
21
-105.225
0
LINE
8
Black
10
113.85
20
-105.225
11
115.1
21
-105.225
0
LINE
8
Black
10
115.1
20
-105.225
11
115.104
21
-105.226
0
LINE
8
Black
10
114.929
20
-105.576
11
114.934
21
-105.575
0
LINE
8
Black
10
114.934
20
-105.575
11
114.946
21
-105.579
0
LINE
8
Black
10
114.946
20
-105.579
11
114.959
21
-105.581
0
LINE
8
Black
10
114.959
20
-105.581
11
114.963
21
-105.583
0
LINE
8
Black
10
114.963
20
-105.583
11
114.967
21
-105.584
0
LINE
8
Black
10
114.967
20
-105.584
11
114.978
21
-105.592
0
LINE
8
Black
10
114.978
20
-105.592
11
114.989
21
-105.598
0
LINE
8
Black
10
114.989
20
-105.598
11
114.992
21
-105.602
0
LINE
8
Black
10
114.992
20
-105.602
11
114.996
21
-105.604
0
LINE
8
Black
10
114.996
20
-105.604
11
115.379
21
-105.988
0
LINE
8
Black
10
115.379
20
-105.988
11
115.382
21
-105.991
0
LINE
8
Black
10
115.382
20
-105.991
11
115.385
21
-105.994
0
LINE
8
Black
10
115.385
20
-105.994
11
115.391
21
-106.005
0
LINE
8
Black
10
115.391
20
-106.005
11
115.399
21
-106.016
0
LINE
8
Black
10
115.399
20
-106.016
11
115.4
21
-106.02
0
LINE
8
Black
10
115.4
20
-106.02
11
115.402
21
-106.024
0
LINE
8
Black
10
115.402
20
-106.024
11
115.405
21
-106.037
0
LINE
8
Black
10
115.405
20
-106.037
11
115.408
21
-106.05
0
LINE
8
Black
10
115.408
20
-106.05
11
115.408
21
-106.054
0
LINE
8
Black
10
115.408
20
-106.054
11
115.408
21
-106.058
0
LINE
8
Black
10
115.408
20
-106.058
11
115.408
21
-106.871
0
LINE
8
Black
10
115.408
20
-106.871
11
115.908
21
-106.871
0
LINE
8
Black
10
115.908
20
-106.871
11
115.908
21
-107.771
0
LINE
8
Black
10
115.908
20
-107.771
11
114.708
21
-107.771
0
LINE
8
Black
10
114.708
20
-107.771
11
114.708
21
-106.871
0
LINE
8
Black
10
114.708
20
-106.871
11
115.208
21
-106.871
0
LINE
8
Black
10
115.208
20
-106.871
11
115.208
21
-106.1
0
LINE
8
Black
10
115.208
20
-106.1
11
114.884
21
-105.775
0
LINE
8
Black
10
114.884
20
-105.775
11
114.316
21
-105.775
0
LINE
8
Black
10
114.316
20
-105.775
11
114.148
21
-105.944
0
LINE
8
Black
10
114.148
20
-105.944
11
114.176
21
-106.022
0
LINE
8
Black
10
114.176
20
-106.022
11
114.176
21
-106.128
0
LINE
8
Black
10
114.176
20
-106.128
11
114.14
21
-106.228
0
LINE
8
Black
10
114.14
20
-106.228
11
114.072
21
-106.309
0
LINE
8
Black
10
114.072
20
-106.309
11
113.98
21
-106.363
0
LINE
8
Black
10
113.98
20
-106.363
11
113.875
21
-106.381
0
LINE
8
Black
10
113.875
20
-106.381
11
113.77
21
-106.363
0
LINE
8
Black
10
113.77
20
-106.363
11
113.678
21
-106.309
0
LINE
8
Black
10
113.678
20
-106.309
11
113.61
21
-106.228
0
LINE
8
Black
10
113.61
20
-106.228
11
113.574
21
-106.128
0
LINE
8
Black
10
113.574
20
-106.128
11
113.574
21
-106.022
0
LINE
8
Black
10
113.574
20
-106.022
11
113.61
21
-105.922
0
LINE
8
Black
10
113.61
20
-105.922
11
113.678
21
-105.841
0
LINE
8
Black
10
113.678
20
-105.841
11
113.77
21
-105.787
0
LINE
8
Black
10
113.77
20
-105.787
11
113.875
21
-105.769
0
LINE
8
Black
10
113.875
20
-105.769
11
113.98
21
-105.787
0
LINE
8
Black
10
113.98
20
-105.787
11
114.006
21
-105.803
0
LINE
8
Black
10
114.006
20
-105.803
11
114.204
21
-105.604
0
LINE
8
Black
10
114.204
20
-105.604
11
114.208
21
-105.602
0
LINE
8
Black
10
114.208
20
-105.602
11
114.211
21
-105.598
0
LINE
8
Black
10
114.211
20
-105.598
11
114.222
21
-105.592
0
LINE
8
Black
10
114.222
20
-105.592
11
114.233
21
-105.584
0
LINE
8
Black
10
114.233
20
-105.584
11
114.237
21
-105.583
0
LINE
8
Black
10
114.237
20
-105.583
11
114.241
21
-105.581
0
LINE
8
Black
10
114.241
20
-105.581
11
114.254
21
-105.579
0
LINE
8
Black
10
114.254
20
-105.579
11
114.266
21
-105.575
0
LINE
8
Black
10
114.266
20
-105.575
11
114.271
21
-105.576
0
LINE
8
Black
10
114.271
20
-105.576
11
114.275
21
-105.575
0
LINE
8
Black
10
114.275
20
-105.575
11
114.925
21
-105.575
0
LINE
8
Black
10
114.925
20
-105.575
11
114.929
21
-105.576
0
LINE
8
Black
10
106.505
20
-107.112
11
106.597
21
-107.166
0
LINE
8
Black
10
106.597
20
-107.166
11
106.665
21
-107.247
0
LINE
8
Black
10
106.665
20
-107.247
11
106.701
21
-107.347
0
LINE
8
Black
10
106.701
20
-107.347
11
106.701
21
-107.453
0
LINE
8
Black
10
106.701
20
-107.453
11
106.665
21
-107.553
0
LINE
8
Black
10
106.665
20
-107.553
11
106.597
21
-107.634
0
LINE
8
Black
10
106.597
20
-107.634
11
106.505
21
-107.688
0
LINE
8
Black
10
106.505
20
-107.688
11
106.4
21
-107.706
0
LINE
8
Black
10
106.4
20
-107.706
11
106.295
21
-107.688
0
LINE
8
Black
10
106.295
20
-107.688
11
106.203
21
-107.634
0
LINE
8
Black
10
106.203
20
-107.634
11
106.135
21
-107.553
0
LINE
8
Black
10
106.135
20
-107.553
11
106.099
21
-107.453
0
LINE
8
Black
10
106.099
20
-107.453
11
106.099
21
-107.347
0
LINE
8
Black
10
106.099
20
-107.347
11
106.135
21
-107.247
0
LINE
8
Black
10
106.135
20
-107.247
11
106.203
21
-107.166
0
LINE
8
Black
10
106.203
20
-107.166
11
106.295
21
-107.112
0
LINE
8
Black
10
106.295
20
-107.112
11
106.4
21
-107.094
0
LINE
8
Black
10
106.4
20
-107.094
11
106.505
21
-107.112
0
LINE
8
Black
10
84.25
20
-107.625
11
83.9
21
-107.625
0
LINE
8
Black
10
83.9
20
-107.625
11
83.9
21
-107.275
0
LINE
8
Black
10
83.9
20
-107.275
11
84.25
21
-107.275
0
LINE
8
Black
10
84.25
20
-107.275
11
84.25
21
-107.625
0
LINE
8
Black
10
92.7046
20
-106.112
11
92.7967
21
-106.166
0
LINE
8
Black
10
92.7967
20
-106.166
11
92.865
21
-106.247
0
LINE
8
Black
10
92.865
20
-106.247
11
92.9013
21
-106.347
0
LINE
8
Black
10
92.9013
20
-106.347
11
92.9013
21
-106.453
0
LINE
8
Black
10
92.9013
20
-106.453
11
92.865
21
-106.553
0
LINE
8
Black
10
92.865
20
-106.553
11
92.8233
21
-106.603
0
LINE
8
Black
10
92.8233
20
-106.603
11
92.8207
21
-106.632
0
LINE
8
Black
10
92.8207
20
-106.632
11
92.8024
21
-106.672
0
LINE
8
Black
10
92.8024
20
-106.672
11
92.7717
21
-106.702
0
LINE
8
Black
10
92.7717
20
-106.702
11
92.7324
21
-106.721
0
LINE
8
Black
10
92.7324
20
-106.721
11
92.6891
21
-106.725
0
LINE
8
Black
10
92.6891
20
-106.725
11
92.6472
21
-106.713
0
LINE
8
Black
10
92.6472
20
-106.713
11
92.6293
21
-106.701
0
LINE
8
Black
10
92.6293
20
-106.701
11
92.6
21
-106.706
0
LINE
8
Black
10
92.6
20
-106.706
11
92.4954
21
-106.688
0
LINE
8
Black
10
92.4954
20
-106.688
11
92.4033
21
-106.634
0
LINE
8
Black
10
92.4033
20
-106.634
11
92.335
21
-106.553
0
LINE
8
Black
10
92.335
20
-106.553
11
92.2987
21
-106.453
0
LINE
8
Black
10
92.2987
20
-106.453
11
92.2987
21
-106.347
0
LINE
8
Black
10
92.2987
20
-106.347
11
92.335
21
-106.247
0
LINE
8
Black
10
92.335
20
-106.247
11
92.4033
21
-106.166
0
LINE
8
Black
10
92.4033
20
-106.166
11
92.4954
21
-106.112
0
LINE
8
Black
10
92.4954
20
-106.112
11
92.6
21
-106.094
0
LINE
8
Black
10
92.6
20
-106.094
11
92.7046
21
-106.112
0
LINE
8
Black
10
129.59
20
-101.86
11
130.043
21
-102.122
0
LINE
8
Black
10
130.043
20
-102.122
11
130.379
21
-102.522
0
LINE
8
Black
10
130.379
20
-102.522
11
130.558
21
-103.014
0
LINE
8
Black
10
130.558
20
-103.014
11
130.558
21
-103.536
0
LINE
8
Black
10
130.558
20
-103.536
11
130.379
21
-104.028
0
LINE
8
Black
10
130.379
20
-104.028
11
130.043
21
-104.428
0
LINE
8
Black
10
130.043
20
-104.428
11
129.59
21
-104.69
0
LINE
8
Black
10
129.59
20
-104.69
11
129.075
21
-104.781
0
LINE
8
Black
10
129.075
20
-104.781
11
128.56
21
-104.69
0
LINE
8
Black
10
128.56
20
-104.69
11
128.107
21
-104.428
0
LINE
8
Black
10
128.107
20
-104.428
11
127.771
21
-104.028
0
LINE
8
Black
10
127.771
20
-104.028
11
127.592
21
-103.536
0
LINE
8
Black
10
127.592
20
-103.536
11
127.592
21
-103.014
0
LINE
8
Black
10
127.592
20
-103.014
11
127.771
21
-102.522
0
LINE
8
Black
10
127.771
20
-102.522
11
128.107
21
-102.122
0
LINE
8
Black
10
128.107
20
-102.122
11
128.56
21
-101.86
0
LINE
8
Black
10
128.56
20
-101.86
11
129.075
21
-101.769
0
LINE
8
Black
10
129.075
20
-101.769
11
129.59
21
-101.86
0
LINE
8
Black
10
83.8043
20
-101.201
11
83.8087
21
-101.2
0
LINE
8
Black
10
83.8087
20
-101.2
11
83.8213
21
-101.204
0
LINE
8
Black
10
83.8213
20
-101.204
11
83.8342
21
-101.206
0
LINE
8
Black
10
83.8342
20
-101.206
11
83.838
21
-101.208
0
LINE
8
Black
10
83.838
20
-101.208
11
83.8423
21
-101.209
0
LINE
8
Black
10
83.8423
20
-101.209
11
83.853
21
-101.217
0
LINE
8
Black
10
83.853
20
-101.217
11
83.8643
21
-101.223
0
LINE
8
Black
10
83.8643
20
-101.223
11
83.8671
21
-101.227
0
LINE
8
Black
10
83.8671
20
-101.227
11
83.8707
21
-101.229
0
LINE
8
Black
10
83.8707
20
-101.229
11
84.1457
21
-101.504
0
LINE
8
Black
10
84.1457
20
-101.504
11
84.1482
21
-101.508
0
LINE
8
Black
10
84.1482
20
-101.508
11
84.1516
21
-101.511
0
LINE
8
Black
10
84.1516
20
-101.511
11
84.1581
21
-101.522
0
LINE
8
Black
10
84.1581
20
-101.522
11
84.1656
21
-101.533
0
LINE
8
Black
10
84.1656
20
-101.533
11
84.1668
21
-101.537
0
LINE
8
Black
10
84.1668
20
-101.537
11
84.169
21
-101.541
0
LINE
8
Black
10
84.169
20
-101.541
11
84.1706
21
-101.55
0
LINE
8
Black
10
84.1706
20
-101.55
11
84.25
21
-101.55
0
LINE
8
Black
10
84.25
20
-101.55
11
84.25
21
-101.9
0
LINE
8
Black
10
84.25
20
-101.9
11
83.9
21
-101.9
0
LINE
8
Black
10
83.9
20
-101.9
11
83.9
21
-101.55
0
LINE
8
Black
10
83.9
20
-101.55
11
83.9086
21
-101.55
0
LINE
8
Black
10
83.9086
20
-101.55
11
83.7586
21
-101.4
0
LINE
8
Black
10
83.7586
20
-101.4
11
83.0914
21
-101.4
0
LINE
8
Black
10
83.0914
20
-101.4
11
82.9414
21
-101.55
0
LINE
8
Black
10
82.9414
20
-101.55
11
82.95
21
-101.55
0
LINE
8
Black
10
82.95
20
-101.55
11
82.95
21
-101.9
0
LINE
8
Black
10
82.95
20
-101.9
11
82.6
21
-101.9
0
LINE
8
Black
10
82.6
20
-101.9
11
82.6
21
-101.825
0
LINE
8
Black
10
82.6
20
-101.825
11
82.4164
21
-101.825
0
LINE
8
Black
10
82.4164
20
-101.825
11
81.75
21
-102.491
0
LINE
8
Black
10
81.75
20
-102.491
11
81.75
21
-103.059
0
LINE
8
Black
10
81.75
20
-103.059
11
82.1191
21
-103.428
0
LINE
8
Black
10
82.1191
20
-103.428
11
82.1454
21
-103.412
0
LINE
8
Black
10
82.1454
20
-103.412
11
82.25
21
-103.394
0
LINE
8
Black
10
82.25
20
-103.394
11
82.3546
21
-103.412
0
LINE
8
Black
10
82.3546
20
-103.412
11
82.4467
21
-103.466
0
LINE
8
Black
10
82.4467
20
-103.466
11
82.515
21
-103.547
0
LINE
8
Black
10
82.515
20
-103.547
11
82.5513
21
-103.647
0
LINE
8
Black
10
82.5513
20
-103.647
11
82.5513
21
-103.753
0
LINE
8
Black
10
82.5513
20
-103.753
11
82.5228
21
-103.831
0
LINE
8
Black
10
82.5228
20
-103.831
11
82.7914
21
-104.1
0
LINE
8
Black
10
82.7914
20
-104.1
11
85.6086
21
-104.1
0
LINE
8
Black
10
85.6086
20
-104.1
11
85.8272
21
-103.881
0
LINE
8
Black
10
85.8272
20
-103.881
11
85.7987
21
-103.803
0
LINE
8
Black
10
85.7987
20
-103.803
11
85.7987
21
-103.697
0
LINE
8
Black
10
85.7987
20
-103.697
11
85.835
21
-103.597
0
LINE
8
Black
10
85.835
20
-103.597
11
85.9033
21
-103.516
0
LINE
8
Black
10
85.9033
20
-103.516
11
85.9954
21
-103.462
0
LINE
8
Black
10
85.9954
20
-103.462
11
86.1
21
-103.444
0
LINE
8
Black
10
86.1
20
-103.444
11
86.2046
21
-103.462
0
LINE
8
Black
10
86.2046
20
-103.462
11
86.2967
21
-103.516
0
LINE
8
Black
10
86.2967
20
-103.516
11
86.365
21
-103.597
0
LINE
8
Black
10
86.365
20
-103.597
11
86.4013
21
-103.697
0
LINE
8
Black
10
86.4013
20
-103.697
11
86.4013
21
-103.803
0
LINE
8
Black
10
86.4013
20
-103.803
11
86.365
21
-103.903
0
LINE
8
Black
10
86.365
20
-103.903
11
86.2967
21
-103.984
0
LINE
8
Black
10
86.2967
20
-103.984
11
86.2046
21
-104.038
0
LINE
8
Black
10
86.2046
20
-104.038
11
86.1
21
-104.056
0
LINE
8
Black
10
86.1
20
-104.056
11
85.9954
21
-104.038
0
LINE
8
Black
10
85.9954
20
-104.038
11
85.9691
21
-104.022
0
LINE
8
Black
10
85.9691
20
-104.022
11
85.7207
21
-104.271
0
LINE
8
Black
10
85.7207
20
-104.271
11
85.7171
21
-104.273
0
LINE
8
Black
10
85.7171
20
-104.273
11
85.7143
21
-104.277
0
LINE
8
Black
10
85.7143
20
-104.277
11
85.703
21
-104.283
0
LINE
8
Black
10
85.703
20
-104.283
11
85.6923
21
-104.291
0
LINE
8
Black
10
85.6923
20
-104.291
11
85.688
21
-104.292
0
LINE
8
Black
10
85.688
20
-104.292
11
85.6842
21
-104.294
0
LINE
8
Black
10
85.6842
20
-104.294
11
85.6713
21
-104.296
0
LINE
8
Black
10
85.6713
20
-104.296
11
85.6587
21
-104.3
0
LINE
8
Black
10
85.6587
20
-104.3
11
85.6543
21
-104.299
0
LINE
8
Black
10
85.6543
20
-104.299
11
85.65
21
-104.3
0
LINE
8
Black
10
85.65
20
-104.3
11
82.75
21
-104.3
0
LINE
8
Black
10
82.75
20
-104.3
11
82.7457
21
-104.299
0
LINE
8
Black
10
82.7457
20
-104.299
11
82.7413
21
-104.3
0
LINE
8
Black
10
82.7413
20
-104.3
11
82.7287
21
-104.296
0
LINE
8
Black
10
82.7287
20
-104.296
11
82.7158
21
-104.294
0
LINE
8
Black
10
82.7158
20
-104.294
11
82.712
21
-104.292
0
LINE
8
Black
10
82.712
20
-104.292
11
82.7077
21
-104.291
0
LINE
8
Black
10
82.7077
20
-104.291
11
82.697
21
-104.283
0
LINE
8
Black
10
82.697
20
-104.283
11
82.6857
21
-104.277
0
LINE
8
Black
10
82.6857
20
-104.277
11
82.6829
21
-104.273
0
LINE
8
Black
10
82.6829
20
-104.273
11
82.6793
21
-104.271
0
LINE
8
Black
10
82.6793
20
-104.271
11
82.3809
21
-103.972
0
LINE
8
Black
10
82.3809
20
-103.972
11
82.3546
21
-103.988
0
LINE
8
Black
10
82.3546
20
-103.988
11
82.25
21
-104.006
0
LINE
8
Black
10
82.25
20
-104.006
11
82.1454
21
-103.988
0
LINE
8
Black
10
82.1454
20
-103.988
11
82.0533
21
-103.934
0
LINE
8
Black
10
82.0533
20
-103.934
11
81.985
21
-103.853
0
LINE
8
Black
10
81.985
20
-103.853
11
81.9487
21
-103.753
0
LINE
8
Black
10
81.9487
20
-103.753
11
81.9487
21
-103.647
0
LINE
8
Black
10
81.9487
20
-103.647
11
81.9772
21
-103.569
0
LINE
8
Black
10
81.9772
20
-103.569
11
81.5793
21
-103.171
0
LINE
8
Black
10
81.5793
20
-103.171
11
81.5768
21
-103.167
0
LINE
8
Black
10
81.5768
20
-103.167
11
81.5734
21
-103.164
0
LINE
8
Black
10
81.5734
20
-103.164
11
81.5669
21
-103.153
0
LINE
8
Black
10
81.5669
20
-103.153
11
81.5594
21
-103.142
0
LINE
8
Black
10
81.5594
20
-103.142
11
81.5582
21
-103.138
0
LINE
8
Black
10
81.5582
20
-103.138
11
81.556
21
-103.134
0
LINE
8
Black
10
81.556
20
-103.134
11
81.5538
21
-103.121
0
LINE
8
Black
10
81.5538
20
-103.121
11
81.5504
21
-103.109
0
LINE
8
Black
10
81.5504
20
-103.109
11
81.5508
21
-103.104
0
LINE
8
Black
10
81.5508
20
-103.104
11
81.55
21
-103.1
0
LINE
8
Black
10
81.55
20
-103.1
11
81.55
21
-102.45
0
LINE
8
Black
10
81.55
20
-102.45
11
81.5508
21
-102.446
0
LINE
8
Black
10
81.5508
20
-102.446
11
81.5504
21
-102.441
0
LINE
8
Black
10
81.5504
20
-102.441
11
81.5538
21
-102.429
0
LINE
8
Black
10
81.5538
20
-102.429
11
81.556
21
-102.416
0
LINE
8
Black
10
81.556
20
-102.416
11
81.5582
21
-102.412
0
LINE
8
Black
10
81.5582
20
-102.412
11
81.5594
21
-102.408
0
LINE
8
Black
10
81.5594
20
-102.408
11
81.5669
21
-102.397
0
LINE
8
Black
10
81.5669
20
-102.397
11
81.5734
21
-102.386
0
LINE
8
Black
10
81.5734
20
-102.386
11
81.5768
21
-102.383
0
LINE
8
Black
10
81.5768
20
-102.383
11
81.5793
21
-102.379
0
LINE
8
Black
10
81.5793
20
-102.379
11
82.3043
21
-101.654
0
LINE
8
Black
10
82.3043
20
-101.654
11
82.3079
21
-101.652
0
LINE
8
Black
10
82.3079
20
-101.652
11
82.3107
21
-101.648
0
LINE
8
Black
10
82.3107
20
-101.648
11
82.322
21
-101.642
0
LINE
8
Black
10
82.322
20
-101.642
11
82.3327
21
-101.634
0
LINE
8
Black
10
82.3327
20
-101.634
11
82.337
21
-101.633
0
LINE
8
Black
10
82.337
20
-101.633
11
82.3408
21
-101.631
0
LINE
8
Black
10
82.3408
20
-101.631
11
82.3537
21
-101.629
0
LINE
8
Black
10
82.3537
20
-101.629
11
82.3663
21
-101.625
0
LINE
8
Black
10
82.3663
20
-101.625
11
82.3707
21
-101.626
0
LINE
8
Black
10
82.3707
20
-101.626
11
82.375
21
-101.625
0
LINE
8
Black
10
82.375
20
-101.625
11
82.6
21
-101.625
0
LINE
8
Black
10
82.6
20
-101.625
11
82.6
21
-101.55
0
LINE
8
Black
10
82.6
20
-101.55
11
82.6794
21
-101.55
0
LINE
8
Black
10
82.6794
20
-101.55
11
82.681
21
-101.541
0
LINE
8
Black
10
82.681
20
-101.541
11
82.6832
21
-101.537
0
LINE
8
Black
10
82.6832
20
-101.537
11
82.6844
21
-101.533
0
LINE
8
Black
10
82.6844
20
-101.533
11
82.6919
21
-101.522
0
LINE
8
Black
10
82.6919
20
-101.522
11
82.6984
21
-101.511
0
LINE
8
Black
10
82.6984
20
-101.511
11
82.7018
21
-101.508
0
LINE
8
Black
10
82.7018
20
-101.508
11
82.7043
21
-101.504
0
LINE
8
Black
10
82.7043
20
-101.504
11
82.9793
21
-101.229
0
LINE
8
Black
10
82.9793
20
-101.229
11
82.9829
21
-101.227
0
LINE
8
Black
10
82.9829
20
-101.227
11
82.9857
21
-101.223
0
LINE
8
Black
10
82.9857
20
-101.223
11
82.997
21
-101.217
0
LINE
8
Black
10
82.997
20
-101.217
11
83.0077
21
-101.209
0
LINE
8
Black
10
83.0077
20
-101.209
11
83.012
21
-101.208
0
LINE
8
Black
10
83.012
20
-101.208
11
83.0158
21
-101.206
0
LINE
8
Black
10
83.0158
20
-101.206
11
83.0287
21
-101.204
0
LINE
8
Black
10
83.0287
20
-101.204
11
83.0413
21
-101.2
0
LINE
8
Black
10
83.0413
20
-101.2
11
83.0457
21
-101.201
0
LINE
8
Black
10
83.0457
20
-101.201
11
83.05
21
-101.2
0
LINE
8
Black
10
83.05
20
-101.2
11
83.8
21
-101.2
0
LINE
8
Black
10
83.8
20
-101.2
11
83.8043
21
-101.201
0
LINE
8
Black
10
83.6
20
-101.9
11
83.525
21
-101.9
0
LINE
8
Black
10
83.525
20
-101.9
11
83.525
21
-102.375
0
LINE
8
Black
10
83.525
20
-102.375
11
83.5242
21
-102.379
0
LINE
8
Black
10
83.5242
20
-102.379
11
83.5246
21
-102.384
0
LINE
8
Black
10
83.5246
20
-102.384
11
83.5212
21
-102.396
0
LINE
8
Black
10
83.5212
20
-102.396
11
83.519
21
-102.409
0
LINE
8
Black
10
83.519
20
-102.409
11
83.5168
21
-102.413
0
LINE
8
Black
10
83.5168
20
-102.413
11
83.5156
21
-102.417
0
LINE
8
Black
10
83.5156
20
-102.417
11
83.5081
21
-102.428
0
LINE
8
Black
10
83.5081
20
-102.428
11
83.5016
21
-102.439
0
LINE
8
Black
10
83.5016
20
-102.439
11
83.4982
21
-102.442
0
LINE
8
Black
10
83.4982
20
-102.442
11
83.4957
21
-102.446
0
LINE
8
Black
10
83.4957
20
-102.446
11
82.9414
21
-103
0
LINE
8
Black
10
82.9414
20
-103
11
82.95
21
-103
0
LINE
8
Black
10
82.95
20
-103
11
82.95
21
-103.35
0
LINE
8
Black
10
82.95
20
-103.35
11
82.9414
21
-103.35
0
LINE
8
Black
10
82.9414
20
-103.35
11
83.0914
21
-103.5
0
LINE
8
Black
10
83.0914
20
-103.5
11
85.0339
21
-103.5
0
LINE
8
Black
10
85.0339
20
-103.5
11
85.035
21
-103.497
0
LINE
8
Black
10
85.035
20
-103.497
11
85.1033
21
-103.416
0
LINE
8
Black
10
85.1033
20
-103.416
11
85.1954
21
-103.362
0
LINE
8
Black
10
85.1954
20
-103.362
11
85.3
21
-103.344
0
LINE
8
Black
10
85.3
20
-103.344
11
85.4046
21
-103.362
0
LINE
8
Black
10
85.4046
20
-103.362
11
85.4967
21
-103.416
0
LINE
8
Black
10
85.4967
20
-103.416
11
85.565
21
-103.497
0
LINE
8
Black
10
85.565
20
-103.497
11
85.6013
21
-103.597
0
LINE
8
Black
10
85.6013
20
-103.597
11
85.6013
21
-103.703
0
LINE
8
Black
10
85.6013
20
-103.703
11
85.565
21
-103.803
0
LINE
8
Black
10
85.565
20
-103.803
11
85.4967
21
-103.884
0
LINE
8
Black
10
85.4967
20
-103.884
11
85.4046
21
-103.938
0
LINE
8
Black
10
85.4046
20
-103.938
11
85.3
21
-103.956
0
LINE
8
Black
10
85.3
20
-103.956
11
85.1954
21
-103.938
0
LINE
8
Black
10
85.1954
20
-103.938
11
85.1033
21
-103.884
0
LINE
8
Black
10
85.1033
20
-103.884
11
85.035
21
-103.803
0
LINE
8
Black
10
85.035
20
-103.803
11
84.9987
21
-103.703
0
LINE
8
Black
10
84.9987
20
-103.703
11
84.9987
21
-103.7
0
LINE
8
Black
10
84.9987
20
-103.7
11
83.05
21
-103.7
0
LINE
8
Black
10
83.05
20
-103.7
11
83.0457
21
-103.699
0
LINE
8
Black
10
83.0457
20
-103.699
11
83.0413
21
-103.7
0
LINE
8
Black
10
83.0413
20
-103.7
11
83.0287
21
-103.696
0
LINE
8
Black
10
83.0287
20
-103.696
11
83.0158
21
-103.694
0
LINE
8
Black
10
83.0158
20
-103.694
11
83.012
21
-103.692
0
LINE
8
Black
10
83.012
20
-103.692
11
83.0077
21
-103.691
0
LINE
8
Black
10
83.0077
20
-103.691
11
82.997
21
-103.683
0
LINE
8
Black
10
82.997
20
-103.683
11
82.9857
21
-103.677
0
LINE
8
Black
10
82.9857
20
-103.677
11
82.9829
21
-103.673
0
LINE
8
Black
10
82.9829
20
-103.673
11
82.9793
21
-103.671
0
LINE
8
Black
10
82.9793
20
-103.671
11
82.7043
21
-103.396
0
LINE
8
Black
10
82.7043
20
-103.396
11
82.7018
21
-103.392
0
LINE
8
Black
10
82.7018
20
-103.392
11
82.6984
21
-103.389
0
LINE
8
Black
10
82.6984
20
-103.389
11
82.6919
21
-103.378
0
LINE
8
Black
10
82.6919
20
-103.378
11
82.6844
21
-103.367
0
LINE
8
Black
10
82.6844
20
-103.367
11
82.6832
21
-103.363
0
LINE
8
Black
10
82.6832
20
-103.363
11
82.681
21
-103.359
0
LINE
8
Black
10
82.681
20
-103.359
11
82.6794
21
-103.35
0
LINE
8
Black
10
82.6794
20
-103.35
11
82.6
21
-103.35
0
LINE
8
Black
10
82.6
20
-103.35
11
82.6
21
-103.141
0
LINE
8
Black
10
82.6
20
-103.141
11
82.3809
21
-102.922
0
LINE
8
Black
10
82.3809
20
-102.922
11
82.3546
21
-102.938
0
LINE
8
Black
10
82.3546
20
-102.938
11
82.25
21
-102.956
0
LINE
8
Black
10
82.25
20
-102.956
11
82.1454
21
-102.938
0
LINE
8
Black
10
82.1454
20
-102.938
11
82.0533
21
-102.884
0
LINE
8
Black
10
82.0533
20
-102.884
11
81.985
21
-102.803
0
LINE
8
Black
10
81.985
20
-102.803
11
81.9487
21
-102.703
0
LINE
8
Black
10
81.9487
20
-102.703
11
81.9487
21
-102.597
0
LINE
8
Black
10
81.9487
20
-102.597
11
81.985
21
-102.497
0
LINE
8
Black
10
81.985
20
-102.497
11
82.0533
21
-102.416
0
LINE
8
Black
10
82.0533
20
-102.416
11
82.1454
21
-102.362
0
LINE
8
Black
10
82.1454
20
-102.362
11
82.25
21
-102.344
0
LINE
8
Black
10
82.25
20
-102.344
11
82.3546
21
-102.362
0
LINE
8
Black
10
82.3546
20
-102.362
11
82.4467
21
-102.416
0
LINE
8
Black
10
82.4467
20
-102.416
11
82.515
21
-102.497
0
LINE
8
Black
10
82.515
20
-102.497
11
82.5513
21
-102.597
0
LINE
8
Black
10
82.5513
20
-102.597
11
82.5513
21
-102.703
0
LINE
8
Black
10
82.5513
20
-102.703
11
82.5228
21
-102.781
0
LINE
8
Black
10
82.5228
20
-102.781
11
82.7004
21
-102.959
0
LINE
8
Black
10
82.7004
20
-102.959
11
82.7018
21
-102.958
0
LINE
8
Black
10
82.7018
20
-102.958
11
82.7043
21
-102.954
0
LINE
8
Black
10
82.7043
20
-102.954
11
83.325
21
-102.334
0
LINE
8
Black
10
83.325
20
-102.334
11
83.325
21
-101.9
0
LINE
8
Black
10
83.325
20
-101.9
11
83.25
21
-101.9
0
LINE
8
Black
10
83.25
20
-101.9
11
83.25
21
-101.55
0
LINE
8
Black
10
83.25
20
-101.55
11
83.6
21
-101.55
0
LINE
8
Black
10
83.6
20
-101.55
11
83.6
21
-101.9
0
LINE
8
Black
10
84.9546
20
-102.212
11
85.0467
21
-102.266
0
LINE
8
Black
10
85.0467
20
-102.266
11
85.115
21
-102.347
0
LINE
8
Black
10
85.115
20
-102.347
11
85.1513
21
-102.447
0
LINE
8
Black
10
85.1513
20
-102.447
11
85.1513
21
-102.553
0
LINE
8
Black
10
85.1513
20
-102.553
11
85.115
21
-102.653
0
LINE
8
Black
10
85.115
20
-102.653
11
85.0467
21
-102.734
0
LINE
8
Black
10
85.0467
20
-102.734
11
84.9546
21
-102.788
0
LINE
8
Black
10
84.9546
20
-102.788
11
84.85
21
-102.806
0
LINE
8
Black
10
84.85
20
-102.806
11
84.825
21
-102.802
0
LINE
8
Black
10
84.825
20
-102.802
11
84.825
21
-103
0
LINE
8
Black
10
84.825
20
-103
11
84.9
21
-103
0
LINE
8
Black
10
84.9
20
-103
11
84.9
21
-103.35
0
LINE
8
Black
10
84.9
20
-103.35
11
84.55
21
-103.35
0
LINE
8
Black
10
84.55
20
-103.35
11
84.55
21
-103
0
LINE
8
Black
10
84.55
20
-103
11
84.625
21
-103
0
LINE
8
Black
10
84.625
20
-103
11
84.625
21
-102.701
0
LINE
8
Black
10
84.625
20
-102.701
11
84.585
21
-102.653
0
LINE
8
Black
10
84.585
20
-102.653
11
84.5487
21
-102.553
0
LINE
8
Black
10
84.5487
20
-102.553
11
84.5487
21
-102.447
0
LINE
8
Black
10
84.5487
20
-102.447
11
84.585
21
-102.347
0
LINE
8
Black
10
84.585
20
-102.347
11
84.6533
21
-102.266
0
LINE
8
Black
10
84.6533
20
-102.266
11
84.7454
21
-102.212
0
LINE
8
Black
10
84.7454
20
-102.212
11
84.85
21
-102.194
0
LINE
8
Black
10
84.85
20
-102.194
11
84.9546
21
-102.212
0
LINE
8
Black
10
84.2046
20
-102.212
11
84.2967
21
-102.266
0
LINE
8
Black
10
84.2967
20
-102.266
11
84.365
21
-102.347
0
LINE
8
Black
10
84.365
20
-102.347
11
84.4013
21
-102.447
0
LINE
8
Black
10
84.4013
20
-102.447
11
84.4013
21
-102.553
0
LINE
8
Black
10
84.4013
20
-102.553
11
84.365
21
-102.653
0
LINE
8
Black
10
84.365
20
-102.653
11
84.2967
21
-102.734
0
LINE
8
Black
10
84.2967
20
-102.734
11
84.2046
21
-102.788
0
LINE
8
Black
10
84.2046
20
-102.788
11
84.175
21
-102.793
0
LINE
8
Black
10
84.175
20
-102.793
11
84.175
21
-103
0
LINE
8
Black
10
84.175
20
-103
11
84.25
21
-103
0
LINE
8
Black
10
84.25
20
-103
11
84.25
21
-103.35
0
LINE
8
Black
10
84.25
20
-103.35
11
83.9
21
-103.35
0
LINE
8
Black
10
83.9
20
-103.35
11
83.9
21
-103
0
LINE
8
Black
10
83.9
20
-103
11
83.975
21
-103
0
LINE
8
Black
10
83.975
20
-103
11
83.975
21
-102.776
0
LINE
8
Black
10
83.975
20
-102.776
11
83.9033
21
-102.734
0
LINE
8
Black
10
83.9033
20
-102.734
11
83.835
21
-102.653
0
LINE
8
Black
10
83.835
20
-102.653
11
83.7987
21
-102.553
0
LINE
8
Black
10
83.7987
20
-102.553
11
83.7987
21
-102.447
0
LINE
8
Black
10
83.7987
20
-102.447
11
83.835
21
-102.347
0
LINE
8
Black
10
83.835
20
-102.347
11
83.9033
21
-102.266
0
LINE
8
Black
10
83.9033
20
-102.266
11
83.9954
21
-102.212
0
LINE
8
Black
10
83.9954
20
-102.212
11
84.1
21
-102.194
0
LINE
8
Black
10
84.1
20
-102.194
11
84.2046
21
-102.212
0
LINE
8
Black
10
83.6
20
-103.35
11
83.25
21
-103.35
0
LINE
8
Black
10
83.25
20
-103.35
11
83.25
21
-103
0
LINE
8
Black
10
83.25
20
-103
11
83.6
21
-103
0
LINE
8
Black
10
83.6
20
-103
11
83.6
21
-103.35
0
LINE
8
Black
10
84.9
20
-101.9
11
84.55
21
-101.9
0
LINE
8
Black
10
84.55
20
-101.9
11
84.55
21
-101.55
0
LINE
8
Black
10
84.55
20
-101.55
11
84.9
21
-101.55
0
LINE
8
Black
10
84.9
20
-101.55
11
84.9
21
-101.9
0
LINE
8
Black
10
125.555
20
-97.1125
11
125.647
21
-97.1656
0
LINE
8
Black
10
125.647
20
-97.1656
11
125.715
21
-97.247
0
LINE
8
Black
10
125.715
20
-97.247
11
125.751
21
-97.3469
0
LINE
8
Black
10
125.751
20
-97.3469
11
125.751
21
-97.4531
0
LINE
8
Black
10
125.751
20
-97.4531
11
125.723
21
-97.5314
0
LINE
8
Black
10
125.723
20
-97.5314
11
125.816
21
-97.625
0
LINE
8
Black
10
125.816
20
-97.625
11
127.225
21
-97.625
0
LINE
8
Black
10
127.225
20
-97.625
11
127.225
21
-97.425
0
LINE
8
Black
10
127.225
20
-97.425
11
127.725
21
-97.425
0
LINE
8
Black
10
127.725
20
-97.425
11
127.725
21
-97.625
0
LINE
8
Black
10
127.725
20
-97.625
11
128.025
21
-97.625
0
LINE
8
Black
10
128.025
20
-97.625
11
128.025
21
-97.425
0
LINE
8
Black
10
128.025
20
-97.425
11
128.525
21
-97.425
0
LINE
8
Black
10
128.525
20
-97.425
11
128.525
21
-97.625
0
LINE
8
Black
10
128.525
20
-97.625
11
128.825
21
-97.625
0
LINE
8
Black
10
128.825
20
-97.625
11
128.825
21
-97.425
0
LINE
8
Black
10
128.825
20
-97.425
11
129.325
21
-97.425
0
LINE
8
Black
10
129.325
20
-97.425
11
129.325
21
-98.025
0
LINE
8
Black
10
129.325
20
-98.025
11
129.2
21
-98.025
0
LINE
8
Black
10
129.2
20
-98.025
11
129.2
21
-98.15
0
LINE
8
Black
10
129.2
20
-98.15
11
129.45
21
-98.15
0
LINE
8
Black
10
129.45
20
-98.15
11
129.454
21
-98.1508
0
LINE
8
Black
10
129.454
20
-98.1508
11
129.459
21
-98.1504
0
LINE
8
Black
10
129.459
20
-98.1504
11
129.471
21
-98.1538
0
LINE
8
Black
10
129.471
20
-98.1538
11
129.484
21
-98.156
0
LINE
8
Black
10
129.484
20
-98.156
11
129.488
21
-98.1582
0
LINE
8
Black
10
129.488
20
-98.1582
11
129.492
21
-98.1594
0
LINE
8
Black
10
129.492
20
-98.1594
11
129.503
21
-98.1669
0
LINE
8
Black
10
129.503
20
-98.1669
11
129.514
21
-98.1734
0
LINE
8
Black
10
129.514
20
-98.1734
11
129.517
21
-98.1768
0
LINE
8
Black
10
129.517
20
-98.1768
11
129.521
21
-98.1793
0
LINE
8
Black
10
129.521
20
-98.1793
11
129.866
21
-98.525
0
LINE
8
Black
10
129.866
20
-98.525
11
130.125
21
-98.525
0
LINE
8
Black
10
130.125
20
-98.525
11
130.125
21
-98.725
0
LINE
8
Black
10
130.125
20
-98.725
11
130.425
21
-98.725
0
LINE
8
Black
10
130.425
20
-98.725
11
130.425
21
-98.525
0
LINE
8
Black
10
130.425
20
-98.525
11
130.925
21
-98.525
0
LINE
8
Black
10
130.925
20
-98.525
11
130.925
21
-99.125
0
LINE
8
Black
10
130.925
20
-99.125
11
130.775
21
-99.125
0
LINE
8
Black
10
130.775
20
-99.125
11
130.775
21
-99.825
0
LINE
8
Black
10
130.775
20
-99.825
11
130.774
21
-99.8293
0
LINE
8
Black
10
130.774
20
-99.8293
11
130.775
21
-99.8337
0
LINE
8
Black
10
130.775
20
-99.8337
11
130.771
21
-99.8463
0
LINE
8
Black
10
130.771
20
-99.8463
11
130.769
21
-99.8592
0
LINE
8
Black
10
130.769
20
-99.8592
11
130.767
21
-99.863
0
LINE
8
Black
10
130.767
20
-99.863
11
130.766
21
-99.8673
0
LINE
8
Black
10
130.766
20
-99.8673
11
130.758
21
-99.878
0
LINE
8
Black
10
130.758
20
-99.878
11
130.752
21
-99.8893
0
LINE
8
Black
10
130.752
20
-99.8893
11
130.748
21
-99.8921
0
LINE
8
Black
10
130.748
20
-99.8921
11
130.746
21
-99.8957
0
LINE
8
Black
10
130.746
20
-99.8957
11
130.623
21
-100.019
0
LINE
8
Black
10
130.623
20
-100.019
11
130.651
21
-100.097
0
LINE
8
Black
10
130.651
20
-100.097
11
130.651
21
-100.203
0
LINE
8
Black
10
130.651
20
-100.203
11
130.615
21
-100.303
0
LINE
8
Black
10
130.615
20
-100.303
11
130.547
21
-100.384
0
LINE
8
Black
10
130.547
20
-100.384
11
130.455
21
-100.438
0
LINE
8
Black
10
130.455
20
-100.438
11
130.35
21
-100.456
0
LINE
8
Black
10
130.35
20
-100.456
11
130.245
21
-100.438
0
LINE
8
Black
10
130.245
20
-100.438
11
130.153
21
-100.384
0
LINE
8
Black
10
130.153
20
-100.384
11
130.085
21
-100.303
0
LINE
8
Black
10
130.085
20
-100.303
11
130.049
21
-100.203
0
LINE
8
Black
10
130.049
20
-100.203
11
130.049
21
-100.097
0
LINE
8
Black
10
130.049
20
-100.097
11
130.085
21
-99.997
0
LINE
8
Black
10
130.085
20
-99.997
11
130.153
21
-99.9156
0
LINE
8
Black
10
130.153
20
-99.9156
11
130.245
21
-99.8625
0
LINE
8
Black
10
130.245
20
-99.8625
11
130.35
21
-99.844
0
LINE
8
Black
10
130.35
20
-99.844
11
130.455
21
-99.8625
0
LINE
8
Black
10
130.455
20
-99.8625
11
130.481
21
-99.8777
0
LINE
8
Black
10
130.481
20
-99.8777
11
130.575
21
-99.7836
0
LINE
8
Black
10
130.575
20
-99.7836
11
130.575
21
-99.125
0
LINE
8
Black
10
130.575
20
-99.125
11
130.425
21
-99.125
0
LINE
8
Black
10
130.425
20
-99.125
11
130.425
21
-98.925
0
LINE
8
Black
10
130.425
20
-98.925
11
130.125
21
-98.925
0
LINE
8
Black
10
130.125
20
-98.925
11
130.125
21
-99.125
0
LINE
8
Black
10
130.125
20
-99.125
11
129.625
21
-99.125
0
LINE
8
Black
10
129.625
20
-99.125
11
129.625
21
-98.5664
0
LINE
8
Black
10
129.625
20
-98.5664
11
129.409
21
-98.35
0
LINE
8
Black
10
129.409
20
-98.35
11
129.1
21
-98.35
0
LINE
8
Black
10
129.1
20
-98.35
11
129.091
21
-98.3485
0
LINE
8
Black
10
129.091
20
-98.3485
11
129.083
21
-98.3485
0
LINE
8
Black
10
129.083
20
-98.3485
11
129.074
21
-98.3455
0
LINE
8
Black
10
129.074
20
-98.3455
11
129.066
21
-98.344
0
LINE
8
Black
10
129.066
20
-98.344
11
129.058
21
-98.3396
0
LINE
8
Black
10
129.058
20
-98.3396
11
129.05
21
-98.3366
0
LINE
8
Black
10
129.05
20
-98.3366
11
129.043
21
-98.331
0
LINE
8
Black
10
129.043
20
-98.331
11
129.036
21
-98.3266
0
LINE
8
Black
10
129.036
20
-98.3266
11
129.03
21
-98.3199
0
LINE
8
Black
10
129.03
20
-98.3199
11
129.023
21
-98.3143
0
LINE
8
Black
10
129.023
20
-98.3143
11
129.019
21
-98.3067
0
LINE
8
Black
10
129.019
20
-98.3067
11
129.013
21
-98.3
0
LINE
8
Black
10
129.013
20
-98.3
11
129.01
21
-98.2918
0
LINE
8
Black
10
129.01
20
-98.2918
11
129.006
21
-98.2842
0
LINE
8
Black
10
129.006
20
-98.2842
11
129.005
21
-98.2756
0
LINE
8
Black
10
129.005
20
-98.2756
11
129.002
21
-98.2674
0
LINE
8
Black
10
129.002
20
-98.2674
11
129.002
21
-98.2586
0
LINE
8
Black
10
129.002
20
-98.2586
11
129
21
-98.25
0
LINE
8
Black
10
129
20
-98.25
11
129
21
-98.025
0
LINE
8
Black
10
129
20
-98.025
11
128.825
21
-98.025
0
LINE
8
Black
10
128.825
20
-98.025
11
128.825
21
-97.825
0
LINE
8
Black
10
128.825
20
-97.825
11
128.525
21
-97.825
0
LINE
8
Black
10
128.525
20
-97.825
11
128.525
21
-98.025
0
LINE
8
Black
10
128.525
20
-98.025
11
128.025
21
-98.025
0
LINE
8
Black
10
128.025
20
-98.025
11
128.025
21
-97.825
0
LINE
8
Black
10
128.025
20
-97.825
11
127.725
21
-97.825
0
LINE
8
Black
10
127.725
20
-97.825
11
127.725
21
-98.025
0
LINE
8
Black
10
127.725
20
-98.025
11
127.225
21
-98.025
0
LINE
8
Black
10
127.225
20
-98.025
11
127.225
21
-97.825
0
LINE
8
Black
10
127.225
20
-97.825
11
125.775
21
-97.825
0
LINE
8
Black
10
125.775
20
-97.825
11
125.771
21
-97.8242
0
LINE
8
Black
10
125.771
20
-97.8242
11
125.766
21
-97.8246
0
LINE
8
Black
10
125.766
20
-97.8246
11
125.754
21
-97.8212
0
LINE
8
Black
10
125.754
20
-97.8212
11
125.741
21
-97.819
0
LINE
8
Black
10
125.741
20
-97.819
11
125.737
21
-97.8168
0
LINE
8
Black
10
125.737
20
-97.8168
11
125.733
21
-97.8156
0
LINE
8
Black
10
125.733
20
-97.8156
11
125.722
21
-97.8081
0
LINE
8
Black
10
125.722
20
-97.8081
11
125.711
21
-97.8016
0
LINE
8
Black
10
125.711
20
-97.8016
11
125.708
21
-97.7982
0
LINE
8
Black
10
125.708
20
-97.7982
11
125.704
21
-97.7957
0
LINE
8
Black
10
125.704
20
-97.7957
11
125.581
21
-97.6723
0
LINE
8
Black
10
125.581
20
-97.6723
11
125.555
21
-97.6875
0
LINE
8
Black
10
125.555
20
-97.6875
11
125.45
21
-97.706
0
LINE
8
Black
10
125.45
20
-97.706
11
125.345
21
-97.6875
0
LINE
8
Black
10
125.345
20
-97.6875
11
125.253
21
-97.6344
0
LINE
8
Black
10
125.253
20
-97.6344
11
125.185
21
-97.553
0
LINE
8
Black
10
125.185
20
-97.553
11
125.149
21
-97.4531
0
LINE
8
Black
10
125.149
20
-97.4531
11
125.149
21
-97.3469
0
LINE
8
Black
10
125.149
20
-97.3469
11
125.185
21
-97.247
0
LINE
8
Black
10
125.185
20
-97.247
11
125.253
21
-97.1656
0
LINE
8
Black
10
125.253
20
-97.1656
11
125.345
21
-97.1125
0
LINE
8
Black
10
125.345
20
-97.1125
11
125.45
21
-97.094
0
LINE
8
Black
10
125.45
20
-97.094
11
125.555
21
-97.1125
0
LINE
8
Black
10
127.725
20
-98.725
11
128.025
21
-98.725
0
LINE
8
Black
10
128.025
20
-98.725
11
128.025
21
-98.525
0
LINE
8
Black
10
128.025
20
-98.525
11
128.525
21
-98.525
0
LINE
8
Black
10
128.525
20
-98.525
11
128.525
21
-98.725
0
LINE
8
Black
10
128.525
20
-98.725
11
128.825
21
-98.725
0
LINE
8
Black
10
128.825
20
-98.725
11
128.825
21
-98.525
0
LINE
8
Black
10
128.825
20
-98.525
11
129.325
21
-98.525
0
LINE
8
Black
10
129.325
20
-98.525
11
129.325
21
-99.125
0
LINE
8
Black
10
129.325
20
-99.125
11
128.825
21
-99.125
0
LINE
8
Black
10
128.825
20
-99.125
11
128.825
21
-98.925
0
LINE
8
Black
10
128.825
20
-98.925
11
128.525
21
-98.925
0
LINE
8
Black
10
128.525
20
-98.925
11
128.525
21
-99.125
0
LINE
8
Black
10
128.525
20
-99.125
11
128.025
21
-99.125
0
LINE
8
Black
10
128.025
20
-99.125
11
128.025
21
-98.925
0
LINE
8
Black
10
128.025
20
-98.925
11
127.725
21
-98.925
0
LINE
8
Black
10
127.725
20
-98.925
11
127.725
21
-99.125
0
LINE
8
Black
10
127.725
20
-99.125
11
127.225
21
-99.125
0
LINE
8
Black
10
127.225
20
-99.125
11
127.225
21
-98.925
0
LINE
8
Black
10
127.225
20
-98.925
11
125.775
21
-98.925
0
LINE
8
Black
10
125.775
20
-98.925
11
125.801
21
-98.9969
0
LINE
8
Black
10
125.801
20
-98.9969
11
125.801
21
-99.1031
0
LINE
8
Black
10
125.801
20
-99.1031
11
125.765
21
-99.203
0
LINE
8
Black
10
125.765
20
-99.203
11
125.697
21
-99.2844
0
LINE
8
Black
10
125.697
20
-99.2844
11
125.605
21
-99.3375
0
LINE
8
Black
10
125.605
20
-99.3375
11
125.5
21
-99.356
0
LINE
8
Black
10
125.5
20
-99.356
11
125.395
21
-99.3375
0
LINE
8
Black
10
125.395
20
-99.3375
11
125.303
21
-99.2844
0
LINE
8
Black
10
125.303
20
-99.2844
11
125.235
21
-99.203
0
LINE
8
Black
10
125.235
20
-99.203
11
125.199
21
-99.1031
0
LINE
8
Black
10
125.199
20
-99.1031
11
125.199
21
-98.9969
0
LINE
8
Black
10
125.199
20
-98.9969
11
125.235
21
-98.897
0
LINE
8
Black
10
125.235
20
-98.897
11
125.303
21
-98.8156
0
LINE
8
Black
10
125.303
20
-98.8156
11
125.395
21
-98.7625
0
LINE
8
Black
10
125.395
20
-98.7625
11
125.5
21
-98.744
0
LINE
8
Black
10
125.5
20
-98.744
11
125.605
21
-98.7625
0
LINE
8
Black
10
125.605
20
-98.7625
11
125.631
21
-98.7777
0
LINE
8
Black
10
125.631
20
-98.7777
11
125.654
21
-98.7543
0
LINE
8
Black
10
125.654
20
-98.7543
11
125.658
21
-98.7518
0
LINE
8
Black
10
125.658
20
-98.7518
11
125.661
21
-98.7484
0
LINE
8
Black
10
125.661
20
-98.7484
11
125.672
21
-98.7419
0
LINE
8
Black
10
125.672
20
-98.7419
11
125.683
21
-98.7344
0
LINE
8
Black
10
125.683
20
-98.7344
11
125.687
21
-98.7332
0
LINE
8
Black
10
125.687
20
-98.7332
11
125.691
21
-98.731
0
LINE
8
Black
10
125.691
20
-98.731
11
125.704
21
-98.7288
0
LINE
8
Black
10
125.704
20
-98.7288
11
125.716
21
-98.7254
0
LINE
8
Black
10
125.716
20
-98.7254
11
125.721
21
-98.7258
0
LINE
8
Black
10
125.721
20
-98.7258
11
125.725
21
-98.725
0
LINE
8
Black
10
125.725
20
-98.725
11
127.225
21
-98.725
0
LINE
8
Black
10
127.225
20
-98.725
11
127.225
21
-98.525
0
LINE
8
Black
10
127.225
20
-98.525
11
127.725
21
-98.525
0
LINE
8
Black
10
127.725
20
-98.525
11
127.725
21
-98.725
0
LINE
8
Black
10
84.2
20
-98.345
11
84.15
21
-98.345
0
LINE
8
Black
10
84.15
20
-98.345
11
84.15
21
-98.5
0
LINE
8
Black
10
84.15
20
-98.5
11
84.1492
21
-98.5043
0
LINE
8
Black
10
84.1492
20
-98.5043
11
84.1496
21
-98.5087
0
LINE
8
Black
10
84.1496
20
-98.5087
11
84.1462
21
-98.5213
0
LINE
8
Black
10
84.1462
20
-98.5213
11
84.144
21
-98.5342
0
LINE
8
Black
10
84.144
20
-98.5342
11
84.1418
21
-98.538
0
LINE
8
Black
10
84.1418
20
-98.538
11
84.1406
21
-98.5423
0
LINE
8
Black
10
84.1406
20
-98.5423
11
84.1331
21
-98.553
0
LINE
8
Black
10
84.1331
20
-98.553
11
84.1266
21
-98.5643
0
LINE
8
Black
10
84.1266
20
-98.5643
11
84.1232
21
-98.5671
0
LINE
8
Black
10
84.1232
20
-98.5671
11
84.1207
21
-98.5707
0
LINE
8
Black
10
84.1207
20
-98.5707
11
83.9207
21
-98.7707
0
LINE
8
Black
10
83.9207
20
-98.7707
11
83.9171
21
-98.7732
0
LINE
8
Black
10
83.9171
20
-98.7732
11
83.9143
21
-98.7766
0
LINE
8
Black
10
83.9143
20
-98.7766
11
83.903
21
-98.7831
0
LINE
8
Black
10
83.903
20
-98.7831
11
83.8923
21
-98.7906
0
LINE
8
Black
10
83.8923
20
-98.7906
11
83.888
21
-98.7918
0
LINE
8
Black
10
83.888
20
-98.7918
11
83.8842
21
-98.794
0
LINE
8
Black
10
83.8842
20
-98.794
11
83.8713
21
-98.7962
0
LINE
8
Black
10
83.8713
20
-98.7962
11
83.8587
21
-98.7996
0
LINE
8
Black
10
83.8587
20
-98.7996
11
83.8543
21
-98.7992
0
LINE
8
Black
10
83.8543
20
-98.7992
11
83.85
21
-98.8
0
LINE
8
Black
10
83.85
20
-98.8
11
83.1343
21
-98.8
0
LINE
8
Black
10
83.1343
20
-98.8
11
83.115
21
-98.853
0
LINE
8
Black
10
83.115
20
-98.853
11
83.0467
21
-98.9344
0
LINE
8
Black
10
83.0467
20
-98.9344
11
82.9546
21
-98.9875
0
LINE
8
Black
10
82.9546
20
-98.9875
11
82.85
21
-99.006
0
LINE
8
Black
10
82.85
20
-99.006
11
82.7454
21
-98.9875
0
LINE
8
Black
10
82.7454
20
-98.9875
11
82.6533
21
-98.9344
0
LINE
8
Black
10
82.6533
20
-98.9344
11
82.585
21
-98.853
0
LINE
8
Black
10
82.585
20
-98.853
11
82.5487
21
-98.7531
0
LINE
8
Black
10
82.5487
20
-98.7531
11
82.5487
21
-98.6469
0
LINE
8
Black
10
82.5487
20
-98.6469
11
82.585
21
-98.547
0
LINE
8
Black
10
82.585
20
-98.547
11
82.6533
21
-98.4656
0
LINE
8
Black
10
82.6533
20
-98.4656
11
82.7454
21
-98.4125
0
LINE
8
Black
10
82.7454
20
-98.4125
11
82.85
21
-98.394
0
LINE
8
Black
10
82.85
20
-98.394
11
82.9546
21
-98.4125
0
LINE
8
Black
10
82.9546
20
-98.4125
11
83.0467
21
-98.4656
0
LINE
8
Black
10
83.0467
20
-98.4656
11
83.115
21
-98.547
0
LINE
8
Black
10
83.115
20
-98.547
11
83.1343
21
-98.6
0
LINE
8
Black
10
83.1343
20
-98.6
11
83.8086
21
-98.6
0
LINE
8
Black
10
83.8086
20
-98.6
11
83.95
21
-98.4586
0
LINE
8
Black
10
83.95
20
-98.4586
11
83.95
21
-98.345
0
LINE
8
Black
10
83.95
20
-98.345
11
83.9
21
-98.345
0
LINE
8
Black
10
83.9
20
-98.345
11
83.9
21
-97.895
0
LINE
8
Black
10
83.9
20
-97.895
11
84.2
21
-97.895
0
LINE
8
Black
10
84.2
20
-97.895
11
84.2
21
-98.345
0
LINE
8
Black
10
84.895
20
-97.95
11
84.77
21
-97.95
0
LINE
8
Black
10
84.77
20
-97.95
11
84.77
21
-98.2214
0
LINE
8
Black
10
84.77
20
-98.2214
11
84.8467
21
-98.2656
0
LINE
8
Black
10
84.8467
20
-98.2656
11
84.915
21
-98.347
0
LINE
8
Black
10
84.915
20
-98.347
11
84.9513
21
-98.4469
0
LINE
8
Black
10
84.9513
20
-98.4469
11
84.9513
21
-98.5531
0
LINE
8
Black
10
84.9513
20
-98.5531
11
84.915
21
-98.653
0
LINE
8
Black
10
84.915
20
-98.653
11
84.8467
21
-98.7344
0
LINE
8
Black
10
84.8467
20
-98.7344
11
84.7546
21
-98.7875
0
LINE
8
Black
10
84.7546
20
-98.7875
11
84.65
21
-98.806
0
LINE
8
Black
10
84.65
20
-98.806
11
84.5454
21
-98.7875
0
LINE
8
Black
10
84.5454
20
-98.7875
11
84.4533
21
-98.7344
0
LINE
8
Black
10
84.4533
20
-98.7344
11
84.385
21
-98.653
0
LINE
8
Black
10
84.385
20
-98.653
11
84.3487
21
-98.5531
0
LINE
8
Black
10
84.3487
20
-98.5531
11
84.3487
21
-98.4469
0
LINE
8
Black
10
84.3487
20
-98.4469
11
84.385
21
-98.347
0
LINE
8
Black
10
84.385
20
-98.347
11
84.4533
21
-98.2656
0
LINE
8
Black
10
84.4533
20
-98.2656
11
84.5454
21
-98.2125
0
LINE
8
Black
10
84.5454
20
-98.2125
11
84.57
21
-98.2081
0
LINE
8
Black
10
84.57
20
-98.2081
11
84.57
21
-97.95
0
LINE
8
Black
10
84.57
20
-97.95
11
84.445
21
-97.95
0
LINE
8
Black
10
84.445
20
-97.95
11
84.445
21
-97.65
0
LINE
8
Black
10
84.445
20
-97.65
11
84.895
21
-97.65
0
LINE
8
Black
10
84.895
20
-97.65
11
84.895
21
-97.95
0
LINE
8
Black
10
83.6
20
-98.345
11
83.3
21
-98.345
0
LINE
8
Black
10
83.3
20
-98.345
11
83.3
21
-97.895
0
LINE
8
Black
10
83.3
20
-97.895
11
83.6
21
-97.895
0
LINE
8
Black
10
83.6
20
-97.895
11
83.6
21
-98.345
0
LINE
8
Black
10
116.45
20
-91.9336
11
116.771
21
-92.2543
0
LINE
8
Black
10
116.771
20
-92.2543
11
116.773
21
-92.2579
0
LINE
8
Black
10
116.773
20
-92.2579
11
116.777
21
-92.2607
0
LINE
8
Black
10
116.777
20
-92.2607
11
116.783
21
-92.272
0
LINE
8
Black
10
116.783
20
-92.272
11
116.791
21
-92.2827
0
LINE
8
Black
10
116.791
20
-92.2827
11
116.792
21
-92.287
0
LINE
8
Black
10
116.792
20
-92.287
11
116.794
21
-92.2908
0
LINE
8
Black
10
116.794
20
-92.2908
11
116.796
21
-92.3037
0
LINE
8
Black
10
116.796
20
-92.3037
11
116.8
21
-92.3163
0
LINE
8
Black
10
116.8
20
-92.3163
11
116.799
21
-92.3207
0
LINE
8
Black
10
116.799
20
-92.3207
11
116.8
21
-92.325
0
LINE
8
Black
10
116.8
20
-92.325
11
116.8
21
-96.4086
0
LINE
8
Black
10
116.8
20
-96.4086
11
117.869
21
-97.4777
0
LINE
8
Black
10
117.869
20
-97.4777
11
117.895
21
-97.4625
0
LINE
8
Black
10
117.895
20
-97.4625
11
118
21
-97.444
0
LINE
8
Black
10
118
20
-97.444
11
118.105
21
-97.4625
0
LINE
8
Black
10
118.105
20
-97.4625
11
118.197
21
-97.5156
0
LINE
8
Black
10
118.197
20
-97.5156
11
118.265
21
-97.597
0
LINE
8
Black
10
118.265
20
-97.597
11
118.301
21
-97.6969
0
LINE
8
Black
10
118.301
20
-97.6969
11
118.301
21
-97.8031
0
LINE
8
Black
10
118.301
20
-97.8031
11
118.265
21
-97.903
0
LINE
8
Black
10
118.265
20
-97.903
11
118.197
21
-97.9844
0
LINE
8
Black
10
118.197
20
-97.9844
11
118.105
21
-98.0375
0
LINE
8
Black
10
118.105
20
-98.0375
11
118
21
-98.056
0
LINE
8
Black
10
118
20
-98.056
11
117.895
21
-98.0375
0
LINE
8
Black
10
117.895
20
-98.0375
11
117.803
21
-97.9844
0
LINE
8
Black
10
117.803
20
-97.9844
11
117.735
21
-97.903
0
LINE
8
Black
10
117.735
20
-97.903
11
117.699
21
-97.8031
0
LINE
8
Black
10
117.699
20
-97.8031
11
117.699
21
-97.6969
0
LINE
8
Black
10
117.699
20
-97.6969
11
117.727
21
-97.6186
0
LINE
8
Black
10
117.727
20
-97.6186
11
116.629
21
-96.5207
0
LINE
8
Black
10
116.629
20
-96.5207
11
116.627
21
-96.5171
0
LINE
8
Black
10
116.627
20
-96.5171
11
116.623
21
-96.5143
0
LINE
8
Black
10
116.623
20
-96.5143
11
116.617
21
-96.503
0
LINE
8
Black
10
116.617
20
-96.503
11
116.609
21
-96.4923
0
LINE
8
Black
10
116.609
20
-96.4923
11
116.608
21
-96.488
0
LINE
8
Black
10
116.608
20
-96.488
11
116.606
21
-96.4842
0
LINE
8
Black
10
116.606
20
-96.4842
11
116.604
21
-96.4713
0
LINE
8
Black
10
116.604
20
-96.4713
11
116.6
21
-96.4587
0
LINE
8
Black
10
116.6
20
-96.4587
11
116.601
21
-96.4543
0
LINE
8
Black
10
116.601
20
-96.4543
11
116.6
21
-96.45
0
LINE
8
Black
10
116.6
20
-96.45
11
116.6
21
-92.3664
0
LINE
8
Black
10
116.6
20
-92.3664
11
116.244
21
-92.01
0
LINE
8
Black
10
116.244
20
-92.01
11
114.05
21
-92.01
0
LINE
8
Black
10
114.05
20
-92.01
11
114.05
21
-91.25
0
LINE
8
Black
10
114.05
20
-91.25
11
116.45
21
-91.25
0
LINE
8
Black
10
116.45
20
-91.25
11
116.45
21
-91.9336
0
LINE
8
Black
10
129.405
20
-96.1125
11
129.497
21
-96.1656
0
LINE
8
Black
10
129.497
20
-96.1656
11
129.565
21
-96.247
0
LINE
8
Black
10
129.565
20
-96.247
11
129.601
21
-96.3469
0
LINE
8
Black
10
129.601
20
-96.3469
11
129.601
21
-96.4531
0
LINE
8
Black
10
129.601
20
-96.4531
11
129.573
21
-96.5314
0
LINE
8
Black
10
129.573
20
-96.5314
11
129.946
21
-96.9043
0
LINE
8
Black
10
129.946
20
-96.9043
11
129.948
21
-96.9079
0
LINE
8
Black
10
129.948
20
-96.9079
11
129.952
21
-96.9107
0
LINE
8
Black
10
129.952
20
-96.9107
11
129.958
21
-96.922
0
LINE
8
Black
10
129.958
20
-96.922
11
129.966
21
-96.9327
0
LINE
8
Black
10
129.966
20
-96.9327
11
129.967
21
-96.937
0
LINE
8
Black
10
129.967
20
-96.937
11
129.969
21
-96.9408
0
LINE
8
Black
10
129.969
20
-96.9408
11
129.971
21
-96.9537
0
LINE
8
Black
10
129.971
20
-96.9537
11
129.975
21
-96.9663
0
LINE
8
Black
10
129.975
20
-96.9663
11
129.974
21
-96.9707
0
LINE
8
Black
10
129.974
20
-96.9707
11
129.975
21
-96.975
0
LINE
8
Black
10
129.975
20
-96.975
11
129.975
21
-97.425
0
LINE
8
Black
10
129.975
20
-97.425
11
130.125
21
-97.425
0
LINE
8
Black
10
130.125
20
-97.425
11
130.125
21
-98.025
0
LINE
8
Black
10
130.125
20
-98.025
11
129.625
21
-98.025
0
LINE
8
Black
10
129.625
20
-98.025
11
129.625
21
-97.425
0
LINE
8
Black
10
129.625
20
-97.425
11
129.775
21
-97.425
0
LINE
8
Black
10
129.775
20
-97.425
11
129.775
21
-97.0164
0
LINE
8
Black
10
129.775
20
-97.0164
11
129.431
21
-96.6723
0
LINE
8
Black
10
129.431
20
-96.6723
11
129.405
21
-96.6875
0
LINE
8
Black
10
129.405
20
-96.6875
11
129.3
21
-96.706
0
LINE
8
Black
10
129.3
20
-96.706
11
129.195
21
-96.6875
0
LINE
8
Black
10
129.195
20
-96.6875
11
129.103
21
-96.6344
0
LINE
8
Black
10
129.103
20
-96.6344
11
129.035
21
-96.553
0
LINE
8
Black
10
129.035
20
-96.553
11
128.999
21
-96.4531
0
LINE
8
Black
10
128.999
20
-96.4531
11
128.999
21
-96.3469
0
LINE
8
Black
10
128.999
20
-96.3469
11
129.035
21
-96.247
0
LINE
8
Black
10
129.035
20
-96.247
11
129.103
21
-96.1656
0
LINE
8
Black
10
129.103
20
-96.1656
11
129.195
21
-96.1125
0
LINE
8
Black
10
129.195
20
-96.1125
11
129.3
21
-96.094
0
LINE
8
Black
10
129.3
20
-96.094
11
129.405
21
-96.1125
0
LINE
8
Black
10
129.554
20
-95.7508
11
129.559
21
-95.7504
0
LINE
8
Black
10
129.559
20
-95.7504
11
129.571
21
-95.7538
0
LINE
8
Black
10
129.571
20
-95.7538
11
129.584
21
-95.756
0
LINE
8
Black
10
129.584
20
-95.756
11
129.588
21
-95.7582
0
LINE
8
Black
10
129.588
20
-95.7582
11
129.592
21
-95.7594
0
LINE
8
Black
10
129.592
20
-95.7594
11
129.603
21
-95.7669
0
LINE
8
Black
10
129.603
20
-95.7669
11
129.614
21
-95.7734
0
LINE
8
Black
10
129.614
20
-95.7734
11
129.617
21
-95.7768
0
LINE
8
Black
10
129.617
20
-95.7768
11
129.621
21
-95.7793
0
LINE
8
Black
10
129.621
20
-95.7793
11
130.746
21
-96.9043
0
LINE
8
Black
10
130.746
20
-96.9043
11
130.748
21
-96.9079
0
LINE
8
Black
10
130.748
20
-96.9079
11
130.752
21
-96.9107
0
LINE
8
Black
10
130.752
20
-96.9107
11
130.758
21
-96.922
0
LINE
8
Black
10
130.758
20
-96.922
11
130.766
21
-96.9327
0
LINE
8
Black
10
130.766
20
-96.9327
11
130.767
21
-96.937
0
LINE
8
Black
10
130.767
20
-96.937
11
130.769
21
-96.9408
0
LINE
8
Black
10
130.769
20
-96.9408
11
130.771
21
-96.9537
0
LINE
8
Black
10
130.771
20
-96.9537
11
130.775
21
-96.9663
0
LINE
8
Black
10
130.775
20
-96.9663
11
130.774
21
-96.9707
0
LINE
8
Black
10
130.774
20
-96.9707
11
130.775
21
-96.975
0
LINE
8
Black
10
130.775
20
-96.975
11
130.775
21
-97.425
0
LINE
8
Black
10
130.775
20
-97.425
11
130.925
21
-97.425
0
LINE
8
Black
10
130.925
20
-97.425
11
130.925
21
-98.025
0
LINE
8
Black
10
130.925
20
-98.025
11
130.425
21
-98.025
0
LINE
8
Black
10
130.425
20
-98.025
11
130.425
21
-97.425
0
LINE
8
Black
10
130.425
20
-97.425
11
130.575
21
-97.425
0
LINE
8
Black
10
130.575
20
-97.425
11
130.575
21
-97.0164
0
LINE
8
Black
10
130.575
20
-97.0164
11
129.509
21
-95.95
0
LINE
8
Black
10
129.509
20
-95.95
11
128.591
21
-95.95
0
LINE
8
Black
10
128.591
20
-95.95
11
128.273
21
-96.2686
0
LINE
8
Black
10
128.273
20
-96.2686
11
128.301
21
-96.3469
0
LINE
8
Black
10
128.301
20
-96.3469
11
128.301
21
-96.4531
0
LINE
8
Black
10
128.301
20
-96.4531
11
128.265
21
-96.553
0
LINE
8
Black
10
128.265
20
-96.553
11
128.197
21
-96.6344
0
LINE
8
Black
10
128.197
20
-96.6344
11
128.105
21
-96.6875
0
LINE
8
Black
10
128.105
20
-96.6875
11
128
21
-96.706
0
LINE
8
Black
10
128
20
-96.706
11
127.895
21
-96.6875
0
LINE
8
Black
10
127.895
20
-96.6875
11
127.803
21
-96.6344
0
LINE
8
Black
10
127.803
20
-96.6344
11
127.735
21
-96.553
0
LINE
8
Black
10
127.735
20
-96.553
11
127.699
21
-96.4531
0
LINE
8
Black
10
127.699
20
-96.4531
11
127.699
21
-96.3469
0
LINE
8
Black
10
127.699
20
-96.3469
11
127.735
21
-96.247
0
LINE
8
Black
10
127.735
20
-96.247
11
127.803
21
-96.1656
0
LINE
8
Black
10
127.803
20
-96.1656
11
127.895
21
-96.1125
0
LINE
8
Black
10
127.895
20
-96.1125
11
128
21
-96.094
0
LINE
8
Black
10
128
20
-96.094
11
128.105
21
-96.1125
0
LINE
8
Black
10
128.105
20
-96.1125
11
128.131
21
-96.1277
0
LINE
8
Black
10
128.131
20
-96.1277
11
128.479
21
-95.7793
0
LINE
8
Black
10
128.479
20
-95.7793
11
128.483
21
-95.7768
0
LINE
8
Black
10
128.483
20
-95.7768
11
128.486
21
-95.7734
0
LINE
8
Black
10
128.486
20
-95.7734
11
128.497
21
-95.7669
0
LINE
8
Black
10
128.497
20
-95.7669
11
128.508
21
-95.7594
0
LINE
8
Black
10
128.508
20
-95.7594
11
128.512
21
-95.7582
0
LINE
8
Black
10
128.512
20
-95.7582
11
128.516
21
-95.756
0
LINE
8
Black
10
128.516
20
-95.756
11
128.529
21
-95.7538
0
LINE
8
Black
10
128.529
20
-95.7538
11
128.541
21
-95.7504
0
LINE
8
Black
10
128.541
20
-95.7504
11
128.546
21
-95.7508
0
LINE
8
Black
10
128.546
20
-95.7508
11
128.55
21
-95.75
0
LINE
8
Black
10
128.55
20
-95.75
11
129.55
21
-95.75
0
LINE
8
Black
10
129.55
20
-95.75
11
129.554
21
-95.7508
0
LINE
8
Black
10
84.895
20
-96.75
11
84.4914
21
-96.75
0
LINE
8
Black
10
84.4914
20
-96.75
11
84.2207
21
-97.0207
0
LINE
8
Black
10
84.2207
20
-97.0207
11
84.2171
21
-97.0232
0
LINE
8
Black
10
84.2171
20
-97.0232
11
84.2143
21
-97.0266
0
LINE
8
Black
10
84.2143
20
-97.0266
11
84.203
21
-97.0331
0
LINE
8
Black
10
84.203
20
-97.0331
11
84.1923
21
-97.0406
0
LINE
8
Black
10
84.1923
20
-97.0406
11
84.188
21
-97.0418
0
LINE
8
Black
10
84.188
20
-97.0418
11
84.1842
21
-97.044
0
LINE
8
Black
10
84.1842
20
-97.044
11
84.1713
21
-97.0462
0
LINE
8
Black
10
84.1713
20
-97.0462
11
84.1587
21
-97.0496
0
LINE
8
Black
10
84.1587
20
-97.0496
11
84.1543
21
-97.0492
0
LINE
8
Black
10
84.1543
20
-97.0492
11
84.15
21
-97.05
0
LINE
8
Black
10
84.15
20
-97.05
11
83.7843
21
-97.05
0
LINE
8
Black
10
83.7843
20
-97.05
11
83.765
21
-97.103
0
LINE
8
Black
10
83.765
20
-97.103
11
83.6967
21
-97.1844
0
LINE
8
Black
10
83.6967
20
-97.1844
11
83.6046
21
-97.2375
0
LINE
8
Black
10
83.6046
20
-97.2375
11
83.5
21
-97.256
0
LINE
8
Black
10
83.5
20
-97.256
11
83.3954
21
-97.2375
0
LINE
8
Black
10
83.3954
20
-97.2375
11
83.3691
21
-97.2223
0
LINE
8
Black
10
83.3691
20
-97.2223
11
83.3207
21
-97.2707
0
LINE
8
Black
10
83.3207
20
-97.2707
11
83.3171
21
-97.2732
0
LINE
8
Black
10
83.3171
20
-97.2732
11
83.3143
21
-97.2766
0
LINE
8
Black
10
83.3143
20
-97.2766
11
83.303
21
-97.2831
0
LINE
8
Black
10
83.303
20
-97.2831
11
83.2923
21
-97.2906
0
LINE
8
Black
10
83.2923
20
-97.2906
11
83.288
21
-97.2918
0
LINE
8
Black
10
83.288
20
-97.2918
11
83.2842
21
-97.294
0
LINE
8
Black
10
83.2842
20
-97.294
11
83.2713
21
-97.2962
0
LINE
8
Black
10
83.2713
20
-97.2962
11
83.2587
21
-97.2996
0
LINE
8
Black
10
83.2587
20
-97.2996
11
83.2543
21
-97.2992
0
LINE
8
Black
10
83.2543
20
-97.2992
11
83.25
21
-97.3
0
LINE
8
Black
10
83.25
20
-97.3
11
83.055
21
-97.3
0
LINE
8
Black
10
83.055
20
-97.3
11
83.055
21
-97.35
0
LINE
8
Black
10
83.055
20
-97.35
11
82.93
21
-97.35
0
LINE
8
Black
10
82.93
20
-97.35
11
82.93
21
-97.65
0
LINE
8
Black
10
82.93
20
-97.65
11
83.055
21
-97.65
0
LINE
8
Black
10
83.055
20
-97.65
11
83.055
21
-97.95
0
LINE
8
Black
10
83.055
20
-97.95
11
82.605
21
-97.95
0
LINE
8
Black
10
82.605
20
-97.95
11
82.605
21
-97.65
0
LINE
8
Black
10
82.605
20
-97.65
11
82.73
21
-97.65
0
LINE
8
Black
10
82.73
20
-97.65
11
82.73
21
-97.35
0
LINE
8
Black
10
82.73
20
-97.35
11
82.605
21
-97.35
0
LINE
8
Black
10
82.605
20
-97.35
11
82.605
21
-97.05
0
LINE
8
Black
10
82.605
20
-97.05
11
83.055
21
-97.05
0
LINE
8
Black
10
83.055
20
-97.05
11
83.055
21
-97.1
0
LINE
8
Black
10
83.055
20
-97.1
11
83.2086
21
-97.1
0
LINE
8
Black
10
83.2086
20
-97.1
11
83.2272
21
-97.0814
0
LINE
8
Black
10
83.2272
20
-97.0814
11
83.1987
21
-97.0031
0
LINE
8
Black
10
83.1987
20
-97.0031
11
83.1987
21
-96.8969
0
LINE
8
Black
10
83.1987
20
-96.8969
11
83.235
21
-96.797
0
LINE
8
Black
10
83.235
20
-96.797
11
83.3033
21
-96.7156
0
LINE
8
Black
10
83.3033
20
-96.7156
11
83.3954
21
-96.6625
0
LINE
8
Black
10
83.3954
20
-96.6625
11
83.5
21
-96.644
0
LINE
8
Black
10
83.5
20
-96.644
11
83.6046
21
-96.6625
0
LINE
8
Black
10
83.6046
20
-96.6625
11
83.6967
21
-96.7156
0
LINE
8
Black
10
83.6967
20
-96.7156
11
83.765
21
-96.797
0
LINE
8
Black
10
83.765
20
-96.797
11
83.7843
21
-96.85
0
LINE
8
Black
10
83.7843
20
-96.85
11
84.1086
21
-96.85
0
LINE
8
Black
10
84.1086
20
-96.85
11
84.4293
21
-96.5293
0
LINE
8
Black
10
84.4293
20
-96.5293
11
84.4329
21
-96.5268
0
LINE
8
Black
10
84.4329
20
-96.5268
11
84.4357
21
-96.5234
0
LINE
8
Black
10
84.4357
20
-96.5234
11
84.445
21
-96.518
0
LINE
8
Black
10
84.445
20
-96.518
11
84.445
21
-96.45
0
LINE
8
Black
10
84.445
20
-96.45
11
84.895
21
-96.45
0
LINE
8
Black
10
84.895
20
-96.45
11
84.895
21
-96.75
0
LINE
8
Black
10
85.2546
20
-95.0625
11
85.3467
21
-95.1156
0
LINE
8
Black
10
85.3467
20
-95.1156
11
85.415
21
-95.197
0
LINE
8
Black
10
85.415
20
-95.197
11
85.4513
21
-95.2969
0
LINE
8
Black
10
85.4513
20
-95.2969
11
85.4513
21
-95.4031
0
LINE
8
Black
10
85.4513
20
-95.4031
11
85.415
21
-95.503
0
LINE
8
Black
10
85.415
20
-95.503
11
85.3467
21
-95.5844
0
LINE
8
Black
10
85.3467
20
-95.5844
11
85.3
21
-95.6113
0
LINE
8
Black
10
85.3
20
-95.6113
11
85.3
21
-97
0
LINE
8
Black
10
85.3
20
-97
11
85.2992
21
-97.0043
0
LINE
8
Black
10
85.2992
20
-97.0043
11
85.2996
21
-97.0087
0
LINE
8
Black
10
85.2996
20
-97.0087
11
85.2962
21
-97.0213
0
LINE
8
Black
10
85.2962
20
-97.0213
11
85.294
21
-97.0342
0
LINE
8
Black
10
85.294
20
-97.0342
11
85.2918
21
-97.038
0
LINE
8
Black
10
85.2918
20
-97.038
11
85.2906
21
-97.0423
0
LINE
8
Black
10
85.2906
20
-97.0423
11
85.2831
21
-97.053
0
LINE
8
Black
10
85.2831
20
-97.053
11
85.2766
21
-97.0643
0
LINE
8
Black
10
85.2766
20
-97.0643
11
85.2732
21
-97.0671
0
LINE
8
Black
10
85.2732
20
-97.0671
11
85.2707
21
-97.0707
0
LINE
8
Black
10
85.2707
20
-97.0707
11
85.0707
21
-97.2707
0
LINE
8
Black
10
85.0707
20
-97.2707
11
85.0671
21
-97.2732
0
LINE
8
Black
10
85.0671
20
-97.2732
11
85.0643
21
-97.2766
0
LINE
8
Black
10
85.0643
20
-97.2766
11
85.053
21
-97.2831
0
LINE
8
Black
10
85.053
20
-97.2831
11
85.0423
21
-97.2906
0
LINE
8
Black
10
85.0423
20
-97.2906
11
85.038
21
-97.2918
0
LINE
8
Black
10
85.038
20
-97.2918
11
85.0342
21
-97.294
0
LINE
8
Black
10
85.0342
20
-97.294
11
85.0213
21
-97.2962
0
LINE
8
Black
10
85.0213
20
-97.2962
11
85.0087
21
-97.2996
0
LINE
8
Black
10
85.0087
20
-97.2996
11
85.0043
21
-97.2992
0
LINE
8
Black
10
85.0043
20
-97.2992
11
85
21
-97.3
0
LINE
8
Black
10
85
20
-97.3
11
84.895
21
-97.3
0
LINE
8
Black
10
84.895
20
-97.3
11
84.895
21
-97.35
0
LINE
8
Black
10
84.895
20
-97.35
11
84.445
21
-97.35
0
LINE
8
Black
10
84.445
20
-97.35
11
84.445
21
-97.05
0
LINE
8
Black
10
84.445
20
-97.05
11
84.895
21
-97.05
0
LINE
8
Black
10
84.895
20
-97.05
11
84.895
21
-97.1
0
LINE
8
Black
10
84.895
20
-97.1
11
84.9586
21
-97.1
0
LINE
8
Black
10
84.9586
20
-97.1
11
85.1
21
-96.9586
0
LINE
8
Black
10
85.1
20
-96.9586
11
85.1
21
-95.6471
0
LINE
8
Black
10
85.1
20
-95.6471
11
85.0454
21
-95.6375
0
LINE
8
Black
10
85.0454
20
-95.6375
11
84.9533
21
-95.5844
0
LINE
8
Black
10
84.9533
20
-95.5844
11
84.885
21
-95.503
0
LINE
8
Black
10
84.885
20
-95.503
11
84.8487
21
-95.4031
0
LINE
8
Black
10
84.8487
20
-95.4031
11
84.8487
21
-95.2969
0
LINE
8
Black
10
84.8487
20
-95.2969
11
84.885
21
-95.197
0
LINE
8
Black
10
84.885
20
-95.197
11
84.9533
21
-95.1156
0
LINE
8
Black
10
84.9533
20
-95.1156
11
85.0454
21
-95.0625
0
LINE
8
Black
10
85.0454
20
-95.0625
11
85.15
21
-95.044
0
LINE
8
Black
10
85.15
20
-95.044
11
85.2546
21
-95.0625
0
LINE
8
Black
10
83.6
20
-96.505
11
83.3
21
-96.505
0
LINE
8
Black
10
83.3
20
-96.505
11
83.3
21
-96.38
0
LINE
8
Black
10
83.3
20
-96.38
11
83.1914
21
-96.38
0
LINE
8
Black
10
83.1914
20
-96.38
11
83.055
21
-96.5164
0
LINE
8
Black
10
83.055
20
-96.5164
11
83.055
21
-96.75
0
LINE
8
Black
10
83.055
20
-96.75
11
82.605
21
-96.75
0
LINE
8
Black
10
82.605
20
-96.75
11
82.605
21
-96.7
0
LINE
8
Black
10
82.605
20
-96.7
11
82.3696
21
-96.7
0
LINE
8
Black
10
82.3696
20
-96.7
11
82.3046
21
-96.7375
0
LINE
8
Black
10
82.3046
20
-96.7375
11
82.2
21
-96.756
0
LINE
8
Black
10
82.2
20
-96.756
11
82.0954
21
-96.7375
0
LINE
8
Black
10
82.0954
20
-96.7375
11
82.0033
21
-96.6844
0
LINE
8
Black
10
82.0033
20
-96.6844
11
81.935
21
-96.603
0
LINE
8
Black
10
81.935
20
-96.603
11
81.8987
21
-96.5031
0
LINE
8
Black
10
81.8987
20
-96.5031
11
81.8987
21
-96.3969
0
LINE
8
Black
10
81.8987
20
-96.3969
11
81.935
21
-96.297
0
LINE
8
Black
10
81.935
20
-96.297
11
82.0033
21
-96.2156
0
LINE
8
Black
10
82.0033
20
-96.2156
11
82.0954
21
-96.1625
0
LINE
8
Black
10
82.0954
20
-96.1625
11
82.2
21
-96.144
0
LINE
8
Black
10
82.2
20
-96.144
11
82.3046
21
-96.1625
0
LINE
8
Black
10
82.3046
20
-96.1625
11
82.3967
21
-96.2156
0
LINE
8
Black
10
82.3967
20
-96.2156
11
82.465
21
-96.297
0
LINE
8
Black
10
82.465
20
-96.297
11
82.5013
21
-96.3969
0
LINE
8
Black
10
82.5013
20
-96.3969
11
82.5013
21
-96.5
0
LINE
8
Black
10
82.5013
20
-96.5
11
82.605
21
-96.5
0
LINE
8
Black
10
82.605
20
-96.5
11
82.605
21
-96.45
0
LINE
8
Black
10
82.605
20
-96.45
11
82.8386
21
-96.45
0
LINE
8
Black
10
82.8386
20
-96.45
11
83.0793
21
-96.2093
0
LINE
8
Black
10
83.0793
20
-96.2093
11
83.0829
21
-96.2068
0
LINE
8
Black
10
83.0829
20
-96.2068
11
83.0857
21
-96.2034
0
LINE
8
Black
10
83.0857
20
-96.2034
11
83.097
21
-96.1969
0
LINE
8
Black
10
83.097
20
-96.1969
11
83.1077
21
-96.1894
0
LINE
8
Black
10
83.1077
20
-96.1894
11
83.112
21
-96.1882
0
LINE
8
Black
10
83.112
20
-96.1882
11
83.1158
21
-96.186
0
LINE
8
Black
10
83.1158
20
-96.186
11
83.1287
21
-96.1838
0
LINE
8
Black
10
83.1287
20
-96.1838
11
83.1413
21
-96.1804
0
LINE
8
Black
10
83.1413
20
-96.1804
11
83.1457
21
-96.1808
0
LINE
8
Black
10
83.1457
20
-96.1808
11
83.15
21
-96.18
0
LINE
8
Black
10
83.15
20
-96.18
11
83.3
21
-96.18
0
LINE
8
Black
10
83.3
20
-96.18
11
83.3
21
-96.055
0
LINE
8
Black
10
83.3
20
-96.055
11
83.6
21
-96.055
0
LINE
8
Black
10
83.6
20
-96.055
11
83.6
21
-96.505
0
LINE
8
Black
10
82.4546
20
-95.0625
11
82.5196
21
-95.1
0
LINE
8
Black
10
82.5196
20
-95.1
11
83.3
21
-95.1
0
LINE
8
Black
10
83.3
20
-95.1
11
83.3043
21
-95.1008
0
LINE
8
Black
10
83.3043
20
-95.1008
11
83.3087
21
-95.1004
0
LINE
8
Black
10
83.3087
20
-95.1004
11
83.3213
21
-95.1038
0
LINE
8
Black
10
83.3213
20
-95.1038
11
83.3342
21
-95.106
0
LINE
8
Black
10
83.3342
20
-95.106
11
83.338
21
-95.1082
0
LINE
8
Black
10
83.338
20
-95.1082
11
83.3423
21
-95.1094
0
LINE
8
Black
10
83.3423
20
-95.1094
11
83.353
21
-95.1169
0
LINE
8
Black
10
83.353
20
-95.1169
11
83.3643
21
-95.1234
0
LINE
8
Black
10
83.3643
20
-95.1234
11
83.3671
21
-95.1268
0
LINE
8
Black
10
83.3671
20
-95.1268
11
83.3707
21
-95.1293
0
LINE
8
Black
10
83.3707
20
-95.1293
11
84.1207
21
-95.8793
0
LINE
8
Black
10
84.1207
20
-95.8793
11
84.1232
21
-95.8829
0
LINE
8
Black
10
84.1232
20
-95.8829
11
84.1266
21
-95.8857
0
LINE
8
Black
10
84.1266
20
-95.8857
11
84.1331
21
-95.897
0
LINE
8
Black
10
84.1331
20
-95.897
11
84.1406
21
-95.9077
0
LINE
8
Black
10
84.1406
20
-95.9077
11
84.1418
21
-95.912
0
LINE
8
Black
10
84.1418
20
-95.912
11
84.144
21
-95.9158
0
LINE
8
Black
10
84.144
20
-95.9158
11
84.1462
21
-95.9287
0
LINE
8
Black
10
84.1462
20
-95.9287
11
84.1496
21
-95.9413
0
LINE
8
Black
10
84.1496
20
-95.9413
11
84.1492
21
-95.9457
0
LINE
8
Black
10
84.1492
20
-95.9457
11
84.15
21
-95.95
0
LINE
8
Black
10
84.15
20
-95.95
11
84.15
21
-96.055
0
LINE
8
Black
10
84.15
20
-96.055
11
84.2
21
-96.055
0
LINE
8
Black
10
84.2
20
-96.055
11
84.2
21
-96.505
0
LINE
8
Black
10
84.2
20
-96.505
11
83.9
21
-96.505
0
LINE
8
Black
10
83.9
20
-96.505
11
83.9
21
-96.055
0
LINE
8
Black
10
83.9
20
-96.055
11
83.95
21
-96.055
0
LINE
8
Black
10
83.95
20
-96.055
11
83.95
21
-95.9914
0
LINE
8
Black
10
83.95
20
-95.9914
11
83.2586
21
-95.3
0
LINE
8
Black
10
83.2586
20
-95.3
11
82.6513
21
-95.3
0
LINE
8
Black
10
82.6513
20
-95.3
11
82.6513
21
-95.4031
0
LINE
8
Black
10
82.6513
20
-95.4031
11
82.615
21
-95.503
0
LINE
8
Black
10
82.615
20
-95.503
11
82.5467
21
-95.5844
0
LINE
8
Black
10
82.5467
20
-95.5844
11
82.4546
21
-95.6375
0
LINE
8
Black
10
82.4546
20
-95.6375
11
82.35
21
-95.656
0
LINE
8
Black
10
82.35
20
-95.656
11
82.2454
21
-95.6375
0
LINE
8
Black
10
82.2454
20
-95.6375
11
82.1533
21
-95.5844
0
LINE
8
Black
10
82.1533
20
-95.5844
11
82.085
21
-95.503
0
LINE
8
Black
10
82.085
20
-95.503
11
82.0487
21
-95.4031
0
LINE
8
Black
10
82.0487
20
-95.4031
11
82.0487
21
-95.2969
0
LINE
8
Black
10
82.0487
20
-95.2969
11
82.085
21
-95.197
0
LINE
8
Black
10
82.085
20
-95.197
11
82.1533
21
-95.1156
0
LINE
8
Black
10
82.1533
20
-95.1156
11
82.2454
21
-95.0625
0
LINE
8
Black
10
82.2454
20
-95.0625
11
82.35
21
-95.044
0
LINE
8
Black
10
82.35
20
-95.044
11
82.4546
21
-95.0625
0
LINE
8
Black
10
120.35
20
-95.82
11
117.95
21
-95.82
0
LINE
8
Black
10
117.95
20
-95.82
11
117.95
21
-95.06
0
LINE
8
Black
10
117.95
20
-95.06
11
120.35
21
-95.06
0
LINE
8
Black
10
120.35
20
-95.06
11
120.35
21
-95.82
0
LINE
8
Black
10
116.45
20
-95.82
11
114.05
21
-95.82
0
LINE
8
Black
10
114.05
20
-95.82
11
114.05
21
-95.06
0
LINE
8
Black
10
114.05
20
-95.06
11
116.45
21
-95.06
0
LINE
8
Black
10
116.45
20
-95.06
11
116.45
21
-95.82
0
LINE
8
Black
10
129.59
20
-91.8601
11
130.043
21
-92.1215
0
LINE
8
Black
10
130.043
20
-92.1215
11
130.379
21
-92.5221
0
LINE
8
Black
10
130.379
20
-92.5221
11
130.558
21
-93.0135
0
LINE
8
Black
10
130.558
20
-93.0135
11
130.558
21
-93.5365
0
LINE
8
Black
10
130.558
20
-93.5365
11
130.379
21
-94.0279
0
LINE
8
Black
10
130.379
20
-94.0279
11
130.043
21
-94.4285
0
LINE
8
Black
10
130.043
20
-94.4285
11
129.59
21
-94.6899
0
LINE
8
Black
10
129.59
20
-94.6899
11
129.075
21
-94.7807
0
LINE
8
Black
10
129.075
20
-94.7807
11
128.56
21
-94.6899
0
LINE
8
Black
10
128.56
20
-94.6899
11
128.107
21
-94.4285
0
LINE
8
Black
10
128.107
20
-94.4285
11
127.771
21
-94.0279
0
LINE
8
Black
10
127.771
20
-94.0279
11
127.592
21
-93.5365
0
LINE
8
Black
10
127.592
20
-93.5365
11
127.592
21
-93.0135
0
LINE
8
Black
10
127.592
20
-93.0135
11
127.771
21
-92.5221
0
LINE
8
Black
10
127.771
20
-92.5221
11
128.107
21
-92.1215
0
LINE
8
Black
10
128.107
20
-92.1215
11
128.56
21
-91.8601
0
LINE
8
Black
10
128.56
20
-91.8601
11
129.075
21
-91.7693
0
LINE
8
Black
10
129.075
20
-91.7693
11
129.59
21
-91.8601
0
LINE
8
Black
10
116.45
20
-94.55
11
114.05
21
-94.55
0
LINE
8
Black
10
114.05
20
-94.55
11
114.05
21
-93.79
0
LINE
8
Black
10
114.05
20
-93.79
11
116.45
21
-93.79
0
LINE
8
Black
10
116.45
20
-93.79
11
116.45
21
-94.55
0
LINE
8
Black
10
120.35
20
-94.55
11
117.95
21
-94.55
0
LINE
8
Black
10
117.95
20
-94.55
11
117.95
21
-93.79
0
LINE
8
Black
10
117.95
20
-93.79
11
120.35
21
-93.79
0
LINE
8
Black
10
120.35
20
-93.79
11
120.35
21
-94.55
0
LINE
8
Black
10
107.153
20
-93.2867
11
107.188
21
-93.3116
0
LINE
8
Black
10
107.188
20
-93.3116
11
107.291
21
-93.4147
0
LINE
8
Black
10
107.291
20
-93.4147
11
107.295
21
-93.4125
0
LINE
8
Black
10
107.295
20
-93.4125
11
107.4
21
-93.394
0
LINE
8
Black
10
107.4
20
-93.394
11
107.505
21
-93.4125
0
LINE
8
Black
10
107.505
20
-93.4125
11
107.597
21
-93.4656
0
LINE
8
Black
10
107.597
20
-93.4656
11
107.665
21
-93.547
0
LINE
8
Black
10
107.665
20
-93.547
11
107.701
21
-93.6469
0
LINE
8
Black
10
107.701
20
-93.6469
11
107.701
21
-93.7531
0
LINE
8
Black
10
107.701
20
-93.7531
11
107.665
21
-93.853
0
LINE
8
Black
10
107.665
20
-93.853
11
107.597
21
-93.9344
0
LINE
8
Black
10
107.597
20
-93.9344
11
107.505
21
-93.9875
0
LINE
8
Black
10
107.505
20
-93.9875
11
107.4
21
-94.006
0
LINE
8
Black
10
107.4
20
-94.006
11
107.295
21
-93.9875
0
LINE
8
Black
10
107.295
20
-93.9875
11
107.203
21
-93.9344
0
LINE
8
Black
10
107.203
20
-93.9344
11
107.135
21
-93.853
0
LINE
8
Black
10
107.135
20
-93.853
11
107.099
21
-93.7531
0
LINE
8
Black
10
107.099
20
-93.7531
11
107.099
21
-93.6469
0
LINE
8
Black
10
107.099
20
-93.6469
11
107.118
21
-93.5945
0
LINE
8
Black
10
107.118
20
-93.5945
11
107.012
21
-93.4884
0
LINE
8
Black
10
107.012
20
-93.4884
11
106.987
21
-93.4528
0
LINE
8
Black
10
106.987
20
-93.4528
11
106.975
21
-93.4109
0
LINE
8
Black
10
106.975
20
-93.4109
11
106.979
21
-93.3676
0
LINE
8
Black
10
106.979
20
-93.3676
11
106.998
21
-93.3283
0
LINE
8
Black
10
106.998
20
-93.3283
11
107.028
21
-93.2976
0
LINE
8
Black
10
107.028
20
-93.2976
11
107.068
21
-93.2793
0
LINE
8
Black
10
107.068
20
-93.2793
11
107.111
21
-93.2755
0
LINE
8
Black
10
107.111
20
-93.2755
11
107.153
21
-93.2867
0
LINE
8
Black
10
116.45
20
-93.28
11
114.05
21
-93.28
0
LINE
8
Black
10
114.05
20
-93.28
11
114.05
21
-93
0
LINE
8
Black
10
114.05
20
-93
11
114.009
21
-93
0
LINE
8
Black
10
114.009
20
-93
11
113.99
21
-93.053
0
LINE
8
Black
10
113.99
20
-93.053
11
113.922
21
-93.1344
0
LINE
8
Black
10
113.922
20
-93.1344
11
113.83
21
-93.1875
0
LINE
8
Black
10
113.83
20
-93.1875
11
113.725
21
-93.206
0
LINE
8
Black
10
113.725
20
-93.206
11
113.62
21
-93.1875
0
LINE
8
Black
10
113.62
20
-93.1875
11
113.528
21
-93.1344
0
LINE
8
Black
10
113.528
20
-93.1344
11
113.46
21
-93.053
0
LINE
8
Black
10
113.46
20
-93.053
11
113.424
21
-92.9531
0
LINE
8
Black
10
113.424
20
-92.9531
11
113.424
21
-92.8469
0
LINE
8
Black
10
113.424
20
-92.8469
11
113.46
21
-92.747
0
LINE
8
Black
10
113.46
20
-92.747
11
113.528
21
-92.6656
0
LINE
8
Black
10
113.528
20
-92.6656
11
113.62
21
-92.6125
0
LINE
8
Black
10
113.62
20
-92.6125
11
113.725
21
-92.594
0
LINE
8
Black
10
113.725
20
-92.594
11
113.83
21
-92.6125
0
LINE
8
Black
10
113.83
20
-92.6125
11
113.922
21
-92.6656
0
LINE
8
Black
10
113.922
20
-92.6656
11
113.99
21
-92.747
0
LINE
8
Black
10
113.99
20
-92.747
11
114.009
21
-92.8
0
LINE
8
Black
10
114.009
20
-92.8
11
114.05
21
-92.8
0
LINE
8
Black
10
114.05
20
-92.8
11
114.05
21
-92.52
0
LINE
8
Black
10
114.05
20
-92.52
11
116.45
21
-92.52
0
LINE
8
Black
10
116.45
20
-92.52
11
116.45
21
-93.28
0
LINE
8
Black
10
120.35
20
-92.8
11
120.516
21
-92.8
0
LINE
8
Black
10
120.516
20
-92.8
11
120.535
21
-92.747
0
LINE
8
Black
10
120.535
20
-92.747
11
120.603
21
-92.6656
0
LINE
8
Black
10
120.603
20
-92.6656
11
120.695
21
-92.6125
0
LINE
8
Black
10
120.695
20
-92.6125
11
120.8
21
-92.594
0
LINE
8
Black
10
120.8
20
-92.594
11
120.905
21
-92.6125
0
LINE
8
Black
10
120.905
20
-92.6125
11
120.997
21
-92.6656
0
LINE
8
Black
10
120.997
20
-92.6656
11
121.065
21
-92.747
0
LINE
8
Black
10
121.065
20
-92.747
11
121.101
21
-92.8469
0
LINE
8
Black
10
121.101
20
-92.8469
11
121.101
21
-92.9531
0
LINE
8
Black
10
121.101
20
-92.9531
11
121.065
21
-93.053
0
LINE
8
Black
10
121.065
20
-93.053
11
120.997
21
-93.1344
0
LINE
8
Black
10
120.997
20
-93.1344
11
120.905
21
-93.1875
0
LINE
8
Black
10
120.905
20
-93.1875
11
120.8
21
-93.206
0
LINE
8
Black
10
120.8
20
-93.206
11
120.695
21
-93.1875
0
LINE
8
Black
10
120.695
20
-93.1875
11
120.603
21
-93.1344
0
LINE
8
Black
10
120.603
20
-93.1344
11
120.535
21
-93.053
0
LINE
8
Black
10
120.535
20
-93.053
11
120.516
21
-93
0
LINE
8
Black
10
120.516
20
-93
11
120.35
21
-93
0
LINE
8
Black
10
120.35
20
-93
11
120.35
21
-93.28
0
LINE
8
Black
10
120.35
20
-93.28
11
117.95
21
-93.28
0
LINE
8
Black
10
117.95
20
-93.28
11
117.95
21
-92.52
0
LINE
8
Black
10
117.95
20
-92.52
11
120.35
21
-92.52
0
LINE
8
Black
10
120.35
20
-92.52
11
120.35
21
-92.8
0
LINE
8
Black
10
93.8046
20
-92.3125
11
93.8967
21
-92.3656
0
LINE
8
Black
10
93.8967
20
-92.3656
11
93.965
21
-92.447
0
LINE
8
Black
10
93.965
20
-92.447
11
94.0013
21
-92.5469
0
LINE
8
Black
10
94.0013
20
-92.5469
11
94.0013
21
-92.6531
0
LINE
8
Black
10
94.0013
20
-92.6531
11
93.965
21
-92.753
0
LINE
8
Black
10
93.965
20
-92.753
11
93.8967
21
-92.8344
0
LINE
8
Black
10
93.8967
20
-92.8344
11
93.8046
21
-92.8875
0
LINE
8
Black
10
93.8046
20
-92.8875
11
93.7
21
-92.906
0
LINE
8
Black
10
93.7
20
-92.906
11
93.5954
21
-92.8875
0
LINE
8
Black
10
93.5954
20
-92.8875
11
93.5033
21
-92.8344
0
LINE
8
Black
10
93.5033
20
-92.8344
11
93.435
21
-92.753
0
LINE
8
Black
10
93.435
20
-92.753
11
93.4248
21
-92.725
0
LINE
8
Black
10
93.4248
20
-92.725
11
93.3518
21
-92.725
0
LINE
8
Black
10
93.3518
20
-92.725
11
93.2884
21
-92.7884
0
LINE
8
Black
10
93.2884
20
-92.7884
11
93.2528
21
-92.8133
0
LINE
8
Black
10
93.2528
20
-92.8133
11
93.2109
21
-92.8245
0
LINE
8
Black
10
93.2109
20
-92.8245
11
93.1676
21
-92.8207
0
LINE
8
Black
10
93.1676
20
-92.8207
11
93.1283
21
-92.8024
0
LINE
8
Black
10
93.1283
20
-92.8024
11
93.0976
21
-92.7717
0
LINE
8
Black
10
93.0976
20
-92.7717
11
93.0793
21
-92.7324
0
LINE
8
Black
10
93.0793
20
-92.7324
11
93.0755
21
-92.6891
0
LINE
8
Black
10
93.0755
20
-92.6891
11
93.0867
21
-92.6472
0
LINE
8
Black
10
93.0867
20
-92.6472
11
93.1116
21
-92.6116
0
LINE
8
Black
10
93.1116
20
-92.6116
11
93.2116
21
-92.5116
0
LINE
8
Black
10
93.2116
20
-92.5116
11
93.2161
21
-92.5085
0
LINE
8
Black
10
93.2161
20
-92.5085
11
93.2197
21
-92.5042
0
LINE
8
Black
10
93.2197
20
-92.5042
11
93.2338
21
-92.4961
0
LINE
8
Black
10
93.2338
20
-92.4961
11
93.2472
21
-92.4867
0
LINE
8
Black
10
93.2472
20
-92.4867
11
93.2525
21
-92.4853
0
LINE
8
Black
10
93.2525
20
-92.4853
11
93.2572
21
-92.4825
0
LINE
8
Black
10
93.2572
20
-92.4825
11
93.2733
21
-92.4797
0
LINE
8
Black
10
93.2733
20
-92.4797
11
93.2891
21
-92.4755
0
LINE
8
Black
10
93.2891
20
-92.4755
11
93.2946
21
-92.476
0
LINE
8
Black
10
93.2946
20
-92.476
11
93.3
21
-92.475
0
LINE
8
Black
10
93.3
20
-92.475
11
93.4248
21
-92.475
0
LINE
8
Black
10
93.4248
20
-92.475
11
93.435
21
-92.447
0
LINE
8
Black
10
93.435
20
-92.447
11
93.5033
21
-92.3656
0
LINE
8
Black
10
93.5033
20
-92.3656
11
93.5954
21
-92.3125
0
LINE
8
Black
10
93.5954
20
-92.3125
11
93.7
21
-92.294
0
LINE
8
Black
10
93.7
20
-92.294
11
93.8046
21
-92.3125
0
LINE
8
Black
10
83.6
20
-91.845
11
83.55
21
-91.845
0
LINE
8
Black
10
83.55
20
-91.845
11
83.55
21
-91.9586
0
LINE
8
Black
10
83.55
20
-91.9586
11
84.1914
21
-92.6
0
LINE
8
Black
10
84.1914
20
-92.6
11
84.9487
21
-92.6
0
LINE
8
Black
10
84.9487
20
-92.6
11
84.9487
21
-92.4969
0
LINE
8
Black
10
84.9487
20
-92.4969
11
84.985
21
-92.397
0
LINE
8
Black
10
84.985
20
-92.397
11
85.0533
21
-92.3156
0
LINE
8
Black
10
85.0533
20
-92.3156
11
85.1454
21
-92.2625
0
LINE
8
Black
10
85.1454
20
-92.2625
11
85.25
21
-92.244
0
LINE
8
Black
10
85.25
20
-92.244
11
85.3546
21
-92.2625
0
LINE
8
Black
10
85.3546
20
-92.2625
11
85.4467
21
-92.3156
0
LINE
8
Black
10
85.4467
20
-92.3156
11
85.515
21
-92.397
0
LINE
8
Black
10
85.515
20
-92.397
11
85.5513
21
-92.4969
0
LINE
8
Black
10
85.5513
20
-92.4969
11
85.5513
21
-92.6031
0
LINE
8
Black
10
85.5513
20
-92.6031
11
85.515
21
-92.703
0
LINE
8
Black
10
85.515
20
-92.703
11
85.4467
21
-92.7844
0
LINE
8
Black
10
85.4467
20
-92.7844
11
85.3546
21
-92.8375
0
LINE
8
Black
10
85.3546
20
-92.8375
11
85.25
21
-92.856
0
LINE
8
Black
10
85.25
20
-92.856
11
85.1454
21
-92.8375
0
LINE
8
Black
10
85.1454
20
-92.8375
11
85.0804
21
-92.8
0
LINE
8
Black
10
85.0804
20
-92.8
11
84.15
21
-92.8
0
LINE
8
Black
10
84.15
20
-92.8
11
84.1457
21
-92.7992
0
LINE
8
Black
10
84.1457
20
-92.7992
11
84.1413
21
-92.7996
0
LINE
8
Black
10
84.1413
20
-92.7996
11
84.1287
21
-92.7962
0
LINE
8
Black
10
84.1287
20
-92.7962
11
84.1158
21
-92.794
0
LINE
8
Black
10
84.1158
20
-92.794
11
84.112
21
-92.7918
0
LINE
8
Black
10
84.112
20
-92.7918
11
84.1077
21
-92.7906
0
LINE
8
Black
10
84.1077
20
-92.7906
11
84.097
21
-92.7831
0
LINE
8
Black
10
84.097
20
-92.7831
11
84.0857
21
-92.7766
0
LINE
8
Black
10
84.0857
20
-92.7766
11
84.0829
21
-92.7732
0
LINE
8
Black
10
84.0829
20
-92.7732
11
84.0793
21
-92.7707
0
LINE
8
Black
10
84.0793
20
-92.7707
11
83.3793
21
-92.0707
0
LINE
8
Black
10
83.3793
20
-92.0707
11
83.3768
21
-92.0671
0
LINE
8
Black
10
83.3768
20
-92.0671
11
83.3734
21
-92.0643
0
LINE
8
Black
10
83.3734
20
-92.0643
11
83.3669
21
-92.053
0
LINE
8
Black
10
83.3669
20
-92.053
11
83.3594
21
-92.0423
0
LINE
8
Black
10
83.3594
20
-92.0423
11
83.3582
21
-92.038
0
LINE
8
Black
10
83.3582
20
-92.038
11
83.356
21
-92.0342
0
LINE
8
Black
10
83.356
20
-92.0342
11
83.3538
21
-92.0213
0
LINE
8
Black
10
83.3538
20
-92.0213
11
83.3504
21
-92.0087
0
LINE
8
Black
10
83.3504
20
-92.0087
11
83.3508
21
-92.0043
0
LINE
8
Black
10
83.3508
20
-92.0043
11
83.35
21
-92
0
LINE
8
Black
10
83.35
20
-92
11
83.35
21
-91.845
0
LINE
8
Black
10
83.35
20
-91.845
11
83.3
21
-91.845
0
LINE
8
Black
10
83.3
20
-91.845
11
83.3
21
-91.395
0
LINE
8
Black
10
83.3
20
-91.395
11
83.6
21
-91.395
0
LINE
8
Black
10
83.6
20
-91.395
11
83.6
21
-91.845
0
LINE
8
Black
10
120.35
20
-90.74
11
117.95
21
-90.74
0
LINE
8
Black
10
117.95
20
-90.74
11
117.95
21
-90.46
0
LINE
8
Black
10
117.95
20
-90.46
11
117.856
21
-90.46
0
LINE
8
Black
10
117.856
20
-90.46
11
117.8
21
-90.5164
0
LINE
8
Black
10
117.8
20
-90.5164
11
117.8
21
-92.075
0
LINE
8
Black
10
117.8
20
-92.075
11
117.799
21
-92.0793
0
LINE
8
Black
10
117.799
20
-92.0793
11
117.8
21
-92.0837
0
LINE
8
Black
10
117.8
20
-92.0837
11
117.796
21
-92.0963
0
LINE
8
Black
10
117.796
20
-92.0963
11
117.794
21
-92.1092
0
LINE
8
Black
10
117.794
20
-92.1092
11
117.792
21
-92.113
0
LINE
8
Black
10
117.792
20
-92.113
11
117.791
21
-92.1173
0
LINE
8
Black
10
117.791
20
-92.1173
11
117.783
21
-92.128
0
LINE
8
Black
10
117.783
20
-92.128
11
117.777
21
-92.1393
0
LINE
8
Black
10
117.777
20
-92.1393
11
117.773
21
-92.1421
0
LINE
8
Black
10
117.773
20
-92.1421
11
117.771
21
-92.1457
0
LINE
8
Black
10
117.771
20
-92.1457
11
117.598
21
-92.3186
0
LINE
8
Black
10
117.598
20
-92.3186
11
117.626
21
-92.3969
0
LINE
8
Black
10
117.626
20
-92.3969
11
117.626
21
-92.5031
0
LINE
8
Black
10
117.626
20
-92.5031
11
117.59
21
-92.603
0
LINE
8
Black
10
117.59
20
-92.603
11
117.522
21
-92.6844
0
LINE
8
Black
10
117.522
20
-92.6844
11
117.43
21
-92.7375
0
LINE
8
Black
10
117.43
20
-92.7375
11
117.325
21
-92.756
0
LINE
8
Black
10
117.325
20
-92.756
11
117.22
21
-92.7375
0
LINE
8
Black
10
117.22
20
-92.7375
11
117.128
21
-92.6844
0
LINE
8
Black
10
117.128
20
-92.6844
11
117.06
21
-92.603
0
LINE
8
Black
10
117.06
20
-92.603
11
117.024
21
-92.5031
0
LINE
8
Black
10
117.024
20
-92.5031
11
117.024
21
-92.3969
0
LINE
8
Black
10
117.024
20
-92.3969
11
117.06
21
-92.297
0
LINE
8
Black
10
117.06
20
-92.297
11
117.128
21
-92.2156
0
LINE
8
Black
10
117.128
20
-92.2156
11
117.22
21
-92.1625
0
LINE
8
Black
10
117.22
20
-92.1625
11
117.325
21
-92.144
0
LINE
8
Black
10
117.325
20
-92.144
11
117.43
21
-92.1625
0
LINE
8
Black
10
117.43
20
-92.1625
11
117.456
21
-92.1777
0
LINE
8
Black
10
117.456
20
-92.1777
11
117.6
21
-92.0336
0
LINE
8
Black
10
117.6
20
-92.0336
11
117.6
21
-90.475
0
LINE
8
Black
10
117.6
20
-90.475
11
117.601
21
-90.4707
0
LINE
8
Black
10
117.601
20
-90.4707
11
117.6
21
-90.4663
0
LINE
8
Black
10
117.6
20
-90.4663
11
117.604
21
-90.4537
0
LINE
8
Black
10
117.604
20
-90.4537
11
117.606
21
-90.4408
0
LINE
8
Black
10
117.606
20
-90.4408
11
117.608
21
-90.437
0
LINE
8
Black
10
117.608
20
-90.437
11
117.609
21
-90.4327
0
LINE
8
Black
10
117.609
20
-90.4327
11
117.617
21
-90.422
0
LINE
8
Black
10
117.617
20
-90.422
11
117.623
21
-90.4107
0
LINE
8
Black
10
117.623
20
-90.4107
11
117.627
21
-90.4079
0
LINE
8
Black
10
117.627
20
-90.4079
11
117.629
21
-90.4043
0
LINE
8
Black
10
117.629
20
-90.4043
11
117.744
21
-90.2893
0
LINE
8
Black
10
117.744
20
-90.2893
11
117.748
21
-90.2868
0
LINE
8
Black
10
117.748
20
-90.2868
11
117.751
21
-90.2834
0
LINE
8
Black
10
117.751
20
-90.2834
11
117.762
21
-90.2769
0
LINE
8
Black
10
117.762
20
-90.2769
11
117.773
21
-90.2694
0
LINE
8
Black
10
117.773
20
-90.2694
11
117.777
21
-90.2682
0
LINE
8
Black
10
117.777
20
-90.2682
11
117.781
21
-90.266
0
LINE
8
Black
10
117.781
20
-90.266
11
117.794
21
-90.2638
0
LINE
8
Black
10
117.794
20
-90.2638
11
117.806
21
-90.2604
0
LINE
8
Black
10
117.806
20
-90.2604
11
117.811
21
-90.2608
0
LINE
8
Black
10
117.811
20
-90.2608
11
117.815
21
-90.26
0
LINE
8
Black
10
117.815
20
-90.26
11
117.95
21
-90.26
0
LINE
8
Black
10
117.95
20
-90.26
11
117.95
21
-89.98
0
LINE
8
Black
10
117.95
20
-89.98
11
120.35
21
-89.98
0
LINE
8
Black
10
120.35
20
-89.98
11
120.35
21
-90.74
0
LINE
8
Black
10
116.45
20
-90.74
11
114.05
21
-90.74
0
LINE
8
Black
10
114.05
20
-90.74
11
114.05
21
-90.46
0
LINE
8
Black
10
114.05
20
-90.46
11
113.181
21
-90.46
0
LINE
8
Black
10
113.181
20
-90.46
11
112.85
21
-90.7914
0
LINE
8
Black
10
112.85
20
-90.7914
11
112.85
21
-92.1367
0
LINE
8
Black
10
112.85
20
-92.1367
11
112.855
21
-92.1375
0
LINE
8
Black
10
112.855
20
-92.1375
11
112.947
21
-92.1906
0
LINE
8
Black
10
112.947
20
-92.1906
11
113.015
21
-92.272
0
LINE
8
Black
10
113.015
20
-92.272
11
113.051
21
-92.3719
0
LINE
8
Black
10
113.051
20
-92.3719
11
113.051
21
-92.4781
0
LINE
8
Black
10
113.051
20
-92.4781
11
113.015
21
-92.578
0
LINE
8
Black
10
113.015
20
-92.578
11
112.947
21
-92.6594
0
LINE
8
Black
10
112.947
20
-92.6594
11
112.855
21
-92.7125
0
LINE
8
Black
10
112.855
20
-92.7125
11
112.75
21
-92.731
0
LINE
8
Black
10
112.75
20
-92.731
11
112.645
21
-92.7125
0
LINE
8
Black
10
112.645
20
-92.7125
11
112.553
21
-92.6594
0
LINE
8
Black
10
112.553
20
-92.6594
11
112.485
21
-92.578
0
LINE
8
Black
10
112.485
20
-92.578
11
112.449
21
-92.4781
0
LINE
8
Black
10
112.449
20
-92.4781
11
112.449
21
-92.3719
0
LINE
8
Black
10
112.449
20
-92.3719
11
112.485
21
-92.272
0
LINE
8
Black
10
112.485
20
-92.272
11
112.553
21
-92.1906
0
LINE
8
Black
10
112.553
20
-92.1906
11
112.645
21
-92.1375
0
LINE
8
Black
10
112.645
20
-92.1375
11
112.65
21
-92.1367
0
LINE
8
Black
10
112.65
20
-92.1367
11
112.65
21
-90.75
0
LINE
8
Black
10
112.65
20
-90.75
11
112.651
21
-90.7457
0
LINE
8
Black
10
112.651
20
-90.7457
11
112.65
21
-90.7413
0
LINE
8
Black
10
112.65
20
-90.7413
11
112.654
21
-90.7287
0
LINE
8
Black
10
112.654
20
-90.7287
11
112.656
21
-90.7158
0
LINE
8
Black
10
112.656
20
-90.7158
11
112.658
21
-90.712
0
LINE
8
Black
10
112.658
20
-90.712
11
112.659
21
-90.7077
0
LINE
8
Black
10
112.659
20
-90.7077
11
112.667
21
-90.697
0
LINE
8
Black
10
112.667
20
-90.697
11
112.673
21
-90.6857
0
LINE
8
Black
10
112.673
20
-90.6857
11
112.677
21
-90.6829
0
LINE
8
Black
10
112.677
20
-90.6829
11
112.679
21
-90.6793
0
LINE
8
Black
10
112.679
20
-90.6793
11
113.069
21
-90.2893
0
LINE
8
Black
10
113.069
20
-90.2893
11
113.073
21
-90.2868
0
LINE
8
Black
10
113.073
20
-90.2868
11
113.076
21
-90.2834
0
LINE
8
Black
10
113.076
20
-90.2834
11
113.087
21
-90.2769
0
LINE
8
Black
10
113.087
20
-90.2769
11
113.098
21
-90.2694
0
LINE
8
Black
10
113.098
20
-90.2694
11
113.102
21
-90.2682
0
LINE
8
Black
10
113.102
20
-90.2682
11
113.106
21
-90.266
0
LINE
8
Black
10
113.106
20
-90.266
11
113.119
21
-90.2638
0
LINE
8
Black
10
113.119
20
-90.2638
11
113.131
21
-90.2604
0
LINE
8
Black
10
113.131
20
-90.2604
11
113.136
21
-90.2608
0
LINE
8
Black
10
113.136
20
-90.2608
11
113.14
21
-90.26
0
LINE
8
Black
10
113.14
20
-90.26
11
114.05
21
-90.26
0
LINE
8
Black
10
114.05
20
-90.26
11
114.05
21
-89.98
0
LINE
8
Black
10
114.05
20
-89.98
11
116.45
21
-89.98
0
LINE
8
Black
10
116.45
20
-89.98
11
116.45
21
-90.74
0
LINE
8
Black
10
83.055
20
-90.85
11
82.605
21
-90.85
0
LINE
8
Black
10
82.605
20
-90.85
11
82.605
21
-90.8
0
LINE
8
Black
10
82.605
20
-90.8
11
82.5914
21
-90.8
0
LINE
8
Black
10
82.5914
20
-90.8
11
82.45
21
-90.9414
0
LINE
8
Black
10
82.45
20
-90.9414
11
82.45
21
-92.1117
0
LINE
8
Black
10
82.45
20
-92.1117
11
82.4546
21
-92.1125
0
LINE
8
Black
10
82.4546
20
-92.1125
11
82.5467
21
-92.1656
0
LINE
8
Black
10
82.5467
20
-92.1656
11
82.615
21
-92.247
0
LINE
8
Black
10
82.615
20
-92.247
11
82.6513
21
-92.3469
0
LINE
8
Black
10
82.6513
20
-92.3469
11
82.6513
21
-92.4531
0
LINE
8
Black
10
82.6513
20
-92.4531
11
82.615
21
-92.553
0
LINE
8
Black
10
82.615
20
-92.553
11
82.5467
21
-92.6344
0
LINE
8
Black
10
82.5467
20
-92.6344
11
82.4546
21
-92.6875
0
LINE
8
Black
10
82.4546
20
-92.6875
11
82.35
21
-92.706
0
LINE
8
Black
10
82.35
20
-92.706
11
82.2454
21
-92.6875
0
LINE
8
Black
10
82.2454
20
-92.6875
11
82.1533
21
-92.6344
0
LINE
8
Black
10
82.1533
20
-92.6344
11
82.085
21
-92.553
0
LINE
8
Black
10
82.085
20
-92.553
11
82.0487
21
-92.4531
0
LINE
8
Black
10
82.0487
20
-92.4531
11
82.0487
21
-92.3469
0
LINE
8
Black
10
82.0487
20
-92.3469
11
82.085
21
-92.247
0
LINE
8
Black
10
82.085
20
-92.247
11
82.1533
21
-92.1656
0
LINE
8
Black
10
82.1533
20
-92.1656
11
82.2454
21
-92.1125
0
LINE
8
Black
10
82.2454
20
-92.1125
11
82.25
21
-92.1117
0
LINE
8
Black
10
82.25
20
-92.1117
11
82.25
21
-90.9
0
LINE
8
Black
10
82.25
20
-90.9
11
82.2508
21
-90.8957
0
LINE
8
Black
10
82.2508
20
-90.8957
11
82.2504
21
-90.8913
0
LINE
8
Black
10
82.2504
20
-90.8913
11
82.2538
21
-90.8787
0
LINE
8
Black
10
82.2538
20
-90.8787
11
82.256
21
-90.8658
0
LINE
8
Black
10
82.256
20
-90.8658
11
82.2582
21
-90.862
0
LINE
8
Black
10
82.2582
20
-90.862
11
82.2594
21
-90.8577
0
LINE
8
Black
10
82.2594
20
-90.8577
11
82.2669
21
-90.847
0
LINE
8
Black
10
82.2669
20
-90.847
11
82.2734
21
-90.8357
0
LINE
8
Black
10
82.2734
20
-90.8357
11
82.2768
21
-90.8329
0
LINE
8
Black
10
82.2768
20
-90.8329
11
82.2793
21
-90.8293
0
LINE
8
Black
10
82.2793
20
-90.8293
11
82.4793
21
-90.6293
0
LINE
8
Black
10
82.4793
20
-90.6293
11
82.4829
21
-90.6268
0
LINE
8
Black
10
82.4829
20
-90.6268
11
82.4857
21
-90.6234
0
LINE
8
Black
10
82.4857
20
-90.6234
11
82.497
21
-90.6169
0
LINE
8
Black
10
82.497
20
-90.6169
11
82.5077
21
-90.6094
0
LINE
8
Black
10
82.5077
20
-90.6094
11
82.512
21
-90.6082
0
LINE
8
Black
10
82.512
20
-90.6082
11
82.5158
21
-90.606
0
LINE
8
Black
10
82.5158
20
-90.606
11
82.5287
21
-90.6038
0
LINE
8
Black
10
82.5287
20
-90.6038
11
82.5413
21
-90.6004
0
LINE
8
Black
10
82.5413
20
-90.6004
11
82.5457
21
-90.6008
0
LINE
8
Black
10
82.5457
20
-90.6008
11
82.55
21
-90.6
0
LINE
8
Black
10
82.55
20
-90.6
11
82.605
21
-90.6
0
LINE
8
Black
10
82.605
20
-90.6
11
82.605
21
-90.55
0
LINE
8
Black
10
82.605
20
-90.55
11
83.055
21
-90.55
0
LINE
8
Black
10
83.055
20
-90.55
11
83.055
21
-90.85
0
LINE
8
Black
10
120.35
20
-92.01
11
117.95
21
-92.01
0
LINE
8
Black
10
117.95
20
-92.01
11
117.95
21
-91.25
0
LINE
8
Black
10
117.95
20
-91.25
11
120.35
21
-91.25
0
LINE
8
Black
10
120.35
20
-91.25
11
120.35
21
-92.01
0
LINE
8
Black
10
85.4546
20
-91.1625
11
85.5467
21
-91.2156
0
LINE
8
Black
10
85.5467
20
-91.2156
11
85.615
21
-91.297
0
LINE
8
Black
10
85.615
20
-91.297
11
85.6513
21
-91.3969
0
LINE
8
Black
10
85.6513
20
-91.3969
11
85.6513
21
-91.5031
0
LINE
8
Black
10
85.6513
20
-91.5031
11
85.615
21
-91.603
0
LINE
8
Black
10
85.615
20
-91.603
11
85.5467
21
-91.6844
0
LINE
8
Black
10
85.5467
20
-91.6844
11
85.4546
21
-91.7375
0
LINE
8
Black
10
85.4546
20
-91.7375
11
85.35
21
-91.756
0
LINE
8
Black
10
85.35
20
-91.756
11
85.2454
21
-91.7375
0
LINE
8
Black
10
85.2454
20
-91.7375
11
85.1533
21
-91.6844
0
LINE
8
Black
10
85.1533
20
-91.6844
11
85.085
21
-91.603
0
LINE
8
Black
10
85.085
20
-91.603
11
85.0487
21
-91.5031
0
LINE
8
Black
10
85.0487
20
-91.5031
11
85.0487
21
-91.4
0
LINE
8
Black
10
85.0487
20
-91.4
11
84.895
21
-91.4
0
LINE
8
Black
10
84.895
20
-91.4
11
84.895
21
-91.45
0
LINE
8
Black
10
84.895
20
-91.45
11
84.6614
21
-91.45
0
LINE
8
Black
10
84.6614
20
-91.45
11
84.4207
21
-91.6907
0
LINE
8
Black
10
84.4207
20
-91.6907
11
84.4171
21
-91.6932
0
LINE
8
Black
10
84.4171
20
-91.6932
11
84.4143
21
-91.6966
0
LINE
8
Black
10
84.4143
20
-91.6966
11
84.403
21
-91.7031
0
LINE
8
Black
10
84.403
20
-91.7031
11
84.3923
21
-91.7106
0
LINE
8
Black
10
84.3923
20
-91.7106
11
84.388
21
-91.7118
0
LINE
8
Black
10
84.388
20
-91.7118
11
84.3842
21
-91.714
0
LINE
8
Black
10
84.3842
20
-91.714
11
84.3713
21
-91.7162
0
LINE
8
Black
10
84.3713
20
-91.7162
11
84.3587
21
-91.7196
0
LINE
8
Black
10
84.3587
20
-91.7196
11
84.3543
21
-91.7192
0
LINE
8
Black
10
84.3543
20
-91.7192
11
84.35
21
-91.72
0
LINE
8
Black
10
84.35
20
-91.72
11
84.2
21
-91.72
0
LINE
8
Black
10
84.2
20
-91.72
11
84.2
21
-91.845
0
LINE
8
Black
10
84.2
20
-91.845
11
83.9
21
-91.845
0
LINE
8
Black
10
83.9
20
-91.845
11
83.9
21
-91.395
0
LINE
8
Black
10
83.9
20
-91.395
11
84.2
21
-91.395
0
LINE
8
Black
10
84.2
20
-91.395
11
84.2
21
-91.52
0
LINE
8
Black
10
84.2
20
-91.52
11
84.3086
21
-91.52
0
LINE
8
Black
10
84.3086
20
-91.52
11
84.445
21
-91.3836
0
LINE
8
Black
10
84.445
20
-91.3836
11
84.445
21
-91.15
0
LINE
8
Black
10
84.445
20
-91.15
11
84.895
21
-91.15
0
LINE
8
Black
10
84.895
20
-91.15
11
84.895
21
-91.2
0
LINE
8
Black
10
84.895
20
-91.2
11
85.1804
21
-91.2
0
LINE
8
Black
10
85.1804
20
-91.2
11
85.2454
21
-91.1625
0
LINE
8
Black
10
85.2454
20
-91.1625
11
85.35
21
-91.144
0
LINE
8
Black
10
85.35
20
-91.144
11
85.4546
21
-91.1625
0
LINE
8
Black
10
84.895
20
-90.25
11
84.77
21
-90.25
0
LINE
8
Black
10
84.77
20
-90.25
11
84.77
21
-90.55
0
LINE
8
Black
10
84.77
20
-90.55
11
84.895
21
-90.55
0
LINE
8
Black
10
84.895
20
-90.55
11
84.895
21
-90.85
0
LINE
8
Black
10
84.895
20
-90.85
11
84.445
21
-90.85
0
LINE
8
Black
10
84.445
20
-90.85
11
84.445
21
-90.8
0
LINE
8
Black
10
84.445
20
-90.8
11
84.2343
21
-90.8
0
LINE
8
Black
10
84.2343
20
-90.8
11
84.2513
21
-90.8469
0
LINE
8
Black
10
84.2513
20
-90.8469
11
84.2513
21
-90.9531
0
LINE
8
Black
10
84.2513
20
-90.9531
11
84.215
21
-91.053
0
LINE
8
Black
10
84.215
20
-91.053
11
84.1467
21
-91.1344
0
LINE
8
Black
10
84.1467
20
-91.1344
11
84.0546
21
-91.1875
0
LINE
8
Black
10
84.0546
20
-91.1875
11
83.95
21
-91.206
0
LINE
8
Black
10
83.95
20
-91.206
11
83.8454
21
-91.1875
0
LINE
8
Black
10
83.8454
20
-91.1875
11
83.7533
21
-91.1344
0
LINE
8
Black
10
83.7533
20
-91.1344
11
83.685
21
-91.053
0
LINE
8
Black
10
83.685
20
-91.053
11
83.6657
21
-91
0
LINE
8
Black
10
83.6657
20
-91
11
83.4414
21
-91
0
LINE
8
Black
10
83.4414
20
-91
11
83.0707
21
-91.3707
0
LINE
8
Black
10
83.0707
20
-91.3707
11
83.0671
21
-91.3732
0
LINE
8
Black
10
83.0671
20
-91.3732
11
83.0643
21
-91.3766
0
LINE
8
Black
10
83.0643
20
-91.3766
11
83.055
21
-91.382
0
LINE
8
Black
10
83.055
20
-91.382
11
83.055
21
-91.45
0
LINE
8
Black
10
83.055
20
-91.45
11
82.605
21
-91.45
0
LINE
8
Black
10
82.605
20
-91.45
11
82.605
21
-91.15
0
LINE
8
Black
10
82.605
20
-91.15
11
83.0086
21
-91.15
0
LINE
8
Black
10
83.0086
20
-91.15
11
83.3293
21
-90.8293
0
LINE
8
Black
10
83.3293
20
-90.8293
11
83.3329
21
-90.8268
0
LINE
8
Black
10
83.3329
20
-90.8268
11
83.3357
21
-90.8234
0
LINE
8
Black
10
83.3357
20
-90.8234
11
83.347
21
-90.8169
0
LINE
8
Black
10
83.347
20
-90.8169
11
83.3577
21
-90.8094
0
LINE
8
Black
10
83.3577
20
-90.8094
11
83.362
21
-90.8082
0
LINE
8
Black
10
83.362
20
-90.8082
11
83.3658
21
-90.806
0
LINE
8
Black
10
83.3658
20
-90.806
11
83.3787
21
-90.8038
0
LINE
8
Black
10
83.3787
20
-90.8038
11
83.3913
21
-90.8004
0
LINE
8
Black
10
83.3913
20
-90.8004
11
83.3957
21
-90.8008
0
LINE
8
Black
10
83.3957
20
-90.8008
11
83.4
21
-90.8
0
LINE
8
Black
10
83.4
20
-90.8
11
83.6657
21
-90.8
0
LINE
8
Black
10
83.6657
20
-90.8
11
83.685
21
-90.747
0
LINE
8
Black
10
83.685
20
-90.747
11
83.7533
21
-90.6656
0
LINE
8
Black
10
83.7533
20
-90.6656
11
83.8454
21
-90.6125
0
LINE
8
Black
10
83.8454
20
-90.6125
11
83.95
21
-90.594
0
LINE
8
Black
10
83.95
20
-90.594
11
84.0546
21
-90.6125
0
LINE
8
Black
10
84.0546
20
-90.6125
11
84.0813
21
-90.6279
0
LINE
8
Black
10
84.0813
20
-90.6279
11
84.0829
21
-90.6268
0
LINE
8
Black
10
84.0829
20
-90.6268
11
84.0857
21
-90.6234
0
LINE
8
Black
10
84.0857
20
-90.6234
11
84.097
21
-90.6169
0
LINE
8
Black
10
84.097
20
-90.6169
11
84.1077
21
-90.6094
0
LINE
8
Black
10
84.1077
20
-90.6094
11
84.112
21
-90.6082
0
LINE
8
Black
10
84.112
20
-90.6082
11
84.1158
21
-90.606
0
LINE
8
Black
10
84.1158
20
-90.606
11
84.1287
21
-90.6038
0
LINE
8
Black
10
84.1287
20
-90.6038
11
84.1413
21
-90.6004
0
LINE
8
Black
10
84.1413
20
-90.6004
11
84.1457
21
-90.6008
0
LINE
8
Black
10
84.1457
20
-90.6008
11
84.15
21
-90.6
0
LINE
8
Black
10
84.15
20
-90.6
11
84.445
21
-90.6
0
LINE
8
Black
10
84.445
20
-90.6
11
84.445
21
-90.55
0
LINE
8
Black
10
84.445
20
-90.55
11
84.57
21
-90.55
0
LINE
8
Black
10
84.57
20
-90.55
11
84.57
21
-90.25
0
LINE
8
Black
10
84.57
20
-90.25
11
84.445
21
-90.25
0
LINE
8
Black
10
84.445
20
-90.25
11
84.445
21
-89.95
0
LINE
8
Black
10
84.445
20
-89.95
11
84.895
21
-89.95
0
LINE
8
Black
10
84.895
20
-89.95
11
84.895
21
-90.25
0
LINE
8
Black
10
82.9546
20
-88.9125
11
83.0467
21
-88.9656
0
LINE
8
Black
10
83.0467
20
-88.9656
11
83.115
21
-89.047
0
LINE
8
Black
10
83.115
20
-89.047
11
83.1513
21
-89.1469
0
LINE
8
Black
10
83.1513
20
-89.1469
11
83.1513
21
-89.2531
0
LINE
8
Black
10
83.1513
20
-89.2531
11
83.115
21
-89.353
0
LINE
8
Black
10
83.115
20
-89.353
11
83.0467
21
-89.4344
0
LINE
8
Black
10
83.0467
20
-89.4344
11
82.9546
21
-89.4875
0
LINE
8
Black
10
82.9546
20
-89.4875
11
82.93
21
-89.4919
0
LINE
8
Black
10
82.93
20
-89.4919
11
82.93
21
-89.95
0
LINE
8
Black
10
82.93
20
-89.95
11
83.055
21
-89.95
0
LINE
8
Black
10
83.055
20
-89.95
11
83.055
21
-90.25
0
LINE
8
Black
10
83.055
20
-90.25
11
82.605
21
-90.25
0
LINE
8
Black
10
82.605
20
-90.25
11
82.605
21
-89.95
0
LINE
8
Black
10
82.605
20
-89.95
11
82.73
21
-89.95
0
LINE
8
Black
10
82.73
20
-89.95
11
82.73
21
-89.4786
0
LINE
8
Black
10
82.73
20
-89.4786
11
82.6533
21
-89.4344
0
LINE
8
Black
10
82.6533
20
-89.4344
11
82.585
21
-89.353
0
LINE
8
Black
10
82.585
20
-89.353
11
82.5487
21
-89.2531
0
LINE
8
Black
10
82.5487
20
-89.2531
11
82.5487
21
-89.1469
0
LINE
8
Black
10
82.5487
20
-89.1469
11
82.585
21
-89.047
0
LINE
8
Black
10
82.585
20
-89.047
11
82.6533
21
-88.9656
0
LINE
8
Black
10
82.6533
20
-88.9656
11
82.7454
21
-88.9125
0
LINE
8
Black
10
82.7454
20
-88.9125
11
82.85
21
-88.894
0
LINE
8
Black
10
82.85
20
-88.894
11
82.9546
21
-88.9125
0
LINE
8
Black
10
84.2
20
-90.005
11
83.9
21
-90.005
0
LINE
8
Black
10
83.9
20
-90.005
11
83.9
21
-89.555
0
LINE
8
Black
10
83.9
20
-89.555
11
84.2
21
-89.555
0
LINE
8
Black
10
84.2
20
-89.555
11
84.2
21
-90.005
0
LINE
8
Black
10
84.8046
20
-89.0125
11
84.8967
21
-89.0656
0
LINE
8
Black
10
84.8967
20
-89.0656
11
84.965
21
-89.147
0
LINE
8
Black
10
84.965
20
-89.147
11
85.0013
21
-89.2469
0
LINE
8
Black
10
85.0013
20
-89.2469
11
85.0013
21
-89.3531
0
LINE
8
Black
10
85.0013
20
-89.3531
11
84.965
21
-89.453
0
LINE
8
Black
10
84.965
20
-89.453
11
84.8967
21
-89.5344
0
LINE
8
Black
10
84.8967
20
-89.5344
11
84.8046
21
-89.5875
0
LINE
8
Black
10
84.8046
20
-89.5875
11
84.7
21
-89.606
0
LINE
8
Black
10
84.7
20
-89.606
11
84.5954
21
-89.5875
0
LINE
8
Black
10
84.5954
20
-89.5875
11
84.5033
21
-89.5344
0
LINE
8
Black
10
84.5033
20
-89.5344
11
84.435
21
-89.453
0
LINE
8
Black
10
84.435
20
-89.453
11
84.4157
21
-89.4
0
LINE
8
Black
10
84.4157
20
-89.4
11
83.7414
21
-89.4
0
LINE
8
Black
10
83.7414
20
-89.4
11
83.5864
21
-89.555
0
LINE
8
Black
10
83.5864
20
-89.555
11
83.6
21
-89.555
0
LINE
8
Black
10
83.6
20
-89.555
11
83.6
21
-90.005
0
LINE
8
Black
10
83.6
20
-90.005
11
83.3
21
-90.005
0
LINE
8
Black
10
83.3
20
-90.005
11
83.3
21
-89.555
0
LINE
8
Black
10
83.3
20
-89.555
11
83.35
21
-89.555
0
LINE
8
Black
10
83.35
20
-89.555
11
83.35
21
-89.55
0
LINE
8
Black
10
83.35
20
-89.55
11
83.3508
21
-89.5457
0
LINE
8
Black
10
83.3508
20
-89.5457
11
83.3504
21
-89.5413
0
LINE
8
Black
10
83.3504
20
-89.5413
11
83.3538
21
-89.5287
0
LINE
8
Black
10
83.3538
20
-89.5287
11
83.356
21
-89.5158
0
LINE
8
Black
10
83.356
20
-89.5158
11
83.3582
21
-89.512
0
LINE
8
Black
10
83.3582
20
-89.512
11
83.3594
21
-89.5077
0
LINE
8
Black
10
83.3594
20
-89.5077
11
83.3669
21
-89.497
0
LINE
8
Black
10
83.3669
20
-89.497
11
83.3734
21
-89.4857
0
LINE
8
Black
10
83.3734
20
-89.4857
11
83.3768
21
-89.4829
0
LINE
8
Black
10
83.3768
20
-89.4829
11
83.3793
21
-89.4793
0
LINE
8
Black
10
83.3793
20
-89.4793
11
83.6293
21
-89.2293
0
LINE
8
Black
10
83.6293
20
-89.2293
11
83.6329
21
-89.2268
0
LINE
8
Black
10
83.6329
20
-89.2268
11
83.6357
21
-89.2234
0
LINE
8
Black
10
83.6357
20
-89.2234
11
83.647
21
-89.2169
0
LINE
8
Black
10
83.647
20
-89.2169
11
83.6577
21
-89.2094
0
LINE
8
Black
10
83.6577
20
-89.2094
11
83.662
21
-89.2082
0
LINE
8
Black
10
83.662
20
-89.2082
11
83.6658
21
-89.206
0
LINE
8
Black
10
83.6658
20
-89.206
11
83.6787
21
-89.2038
0
LINE
8
Black
10
83.6787
20
-89.2038
11
83.6913
21
-89.2004
0
LINE
8
Black
10
83.6913
20
-89.2004
11
83.6957
21
-89.2008
0
LINE
8
Black
10
83.6957
20
-89.2008
11
83.7
21
-89.2
0
LINE
8
Black
10
83.7
20
-89.2
11
84.4157
21
-89.2
0
LINE
8
Black
10
84.4157
20
-89.2
11
84.435
21
-89.147
0
LINE
8
Black
10
84.435
20
-89.147
11
84.5033
21
-89.0656
0
LINE
8
Black
10
84.5033
20
-89.0656
11
84.5954
21
-89.0125
0
LINE
8
Black
10
84.5954
20
-89.0125
11
84.7
21
-88.994
0
LINE
8
Black
10
84.7
20
-88.994
11
84.8046
21
-89.0125
0
CIRCLE
8
Black
10
92.6
20
-106.4
40
0.1524
0
CIRCLE
8
Black
10
93.7
20
-92.6
40
0.1524
0
CIRCLE
8
Black
10
107.4
20
-93.7
40
0.1524
0
CIRCLE
8
Black
10
106.4
20
-107.4
40
0.1524
0
CIRCLE
8
Black
10
99.25
20
-108.75
40
0.1524
0
CIRCLE
8
Black
10
91.25
20
-99.25
40
0.1524
0
CIRCLE
8
Black
10
100.75
20
-91.25
40
0.1524
0
CIRCLE
8
Black
10
107.4
20
-95.05
40
0.1524
0
CIRCLE
8
Black
10
108.75
20
-100.75
40
0.1524
0
CIRCLE
8
Black
10
107.35
20
-96.95
40
0.1524
0
CIRCLE
8
Black
10
98.65
20
-96.7
40
0.1524
0
CIRCLE
8
Black
10
98.45
20
-98.4
40
0.1524
0
CIRCLE
8
Black
10
102.5
20
-97.5
40
0.1524
0
CIRCLE
8
Black
10
99.3
20
-103.3
40
0.1524
0
CIRCLE
8
Black
10
94.85
20
-104.5
40
0.1524
0
CIRCLE
8
Black
10
95.5
20
-105.15
40
0.1524
0
CIRCLE
8
Black
10
100.1
20
-103.3
40
0.1524
0
CIRCLE
8
Black
10
129.3
20
-96.4
40
0.1524
0
CIRCLE
8
Black
10
128
20
-96.4
40
0.1524
0
CIRCLE
8
Black
10
92.9
20
-98.5
40
0.1524
0
CIRCLE
8
Black
10
100.45
20
-93.2
40
0.1524
0
CIRCLE
8
Black
10
101.45
20
-99.95
40
0.1524
0
CIRCLE
8
Black
10
99.6
20
-106.8
40
0.1524
0
CIRCLE
8
Black
10
101.45
20
-99.05
40
0.1524
0
CIRCLE
8
Black
10
93.35
20
-100.5
40
0.1524
0
CIRCLE
8
Black
10
99.55
20
-93.2
40
0.1524
0
CIRCLE
8
Black
10
100.4
20
-106.8
40
0.1524
0
CIRCLE
8
Black
10
114.625
20
-106.25
40
0.1524
0
CIRCLE
8
Black
10
113.875
20
-106.075
40
0.1524
0
CIRCLE
8
Black
10
113.125
20
-106.05
40
0.1524
0
CIRCLE
8
Black
10
82.85
20
-89.2
40
0.1524
0
CIRCLE
8
Black
10
84.7
20
-89.3
40
0.1524
0
CIRCLE
8
Black
10
84.65
20
-98.5
40
0.1524
0
CIRCLE
8
Black
10
82.85
20
-98.7
40
0.1524
0
CIRCLE
8
Black
10
113.725
20
-92.9
40
0.1524
0
CIRCLE
8
Black
10
112.75
20
-92.425
40
0.1524
0
CIRCLE
8
Black
10
117.325
20
-92.45
40
0.1524
0
CIRCLE
8
Black
10
120.8
20
-92.9
40
0.1524
0
CIRCLE
8
Black
10
118
20
-97.75
40
0.1524
0
CIRCLE
8
Black
10
84.9
20
-108.225
40
0.1524
0
CIRCLE
8
Black
10
82.45
20
-106.725
40
0.1524
0
CIRCLE
8
Black
10
83.1
20
-109.525
40
0.1524
0
CIRCLE
8
Black
10
85.35
20
-91.45
40
0.1524
0
CIRCLE
8
Black
10
83.95
20
-90.9
40
0.1524
0
CIRCLE
8
Black
10
85.25
20
-92.55
40
0.1524
0
CIRCLE
8
Black
10
82.35
20
-92.4
40
0.1524
0
CIRCLE
8
Black
10
82.35
20
-95.35
40
0.1524
0
CIRCLE
8
Black
10
83.5
20
-96.95
40
0.1524
0
CIRCLE
8
Black
10
85.15
20
-95.35
40
0.1524
0
CIRCLE
8
Black
10
82.2
20
-96.45
40
0.1524
0
CIRCLE
8
Black
10
125.45
20
-97.4
40
0.1524
0
CIRCLE
8
Black
10
130.35
20
-100.15
40
0.1524
0
CIRCLE
8
Black
10
125.5
20
-99.05
40
0.1524
0
CIRCLE
8
Black
10
120.05
20
-107.9
40
0.1524
0
CIRCLE
8
Black
10
116.375
20
-104.1
40
0.1524
0
CIRCLE
8
Black
10
118.025
20
-104.2
40
0.1524
0
CIRCLE
8
Black
10
119.3
20
-109.625
40
0.1524
0
CIRCLE
8
Black
10
84.85
20
-102.5
40
0.1524
0
CIRCLE
8
Black
10
85.3
20
-103.65
40
0.1524
0
CIRCLE
8
Black
10
82.25
20
-102.65
40
0.1524
0
CIRCLE
8
Black
10
84.1
20
-102.5
40
0.1524
0
CIRCLE
8
Black
10
86.1
20
-103.75
40
0.1524
0
CIRCLE
8
Black
10
82.25
20
-103.7
40
0.1524
0
CIRCLE
8
Black
10
82.25
20
-107.725
40
0.1524
0
CIRCLE
8
Black
10
83.4
20
-108.075
40
0.1524
0
CIRCLE
8
Black
10
80.55
20
-107.525
40
0.1524
  0
ENDSEC
  0
EOF
