  0
SECTION
  2
HEADER
  9
$ACADVER
  1
AC1009
  9
$DWGCODEPAGE
  3
mac-roman
  9
$INSBASE
 10
0.0
 20
0.0
 30
0.0
  9
$EXTMIN
 10
79.9987
 20
-112.128125
 30
0.0
  9
$EXTMAX
 10
131.8339228725033
 20
-88.27187499999998
 30
0.0
  9
$LIMMIN
 10
0.0
 20
0.0
  9
$LIMMAX
 10
12.0
 20
9.0
  9
$ORTHOMODE
 70
     0
  9
$REGENMODE
 70
     1
  9
$FILLMODE
 70
     1
  9
$QTEXTMODE
 70
     0
  9
$MIRRTEXT
 70
     1
  9
$DRAGMODE
 70
     2
  9
$LTSCALE
 40
1.0
  9
$OSMODE
 70
    37
  9
$ATTMODE
 70
     1
  9
$TEXTSIZE
 40
0.2
  9
$TRACEWID
 40
0.05
  9
$TEXTSTYLE
  7
STANDARD
  9
$CLAYER
  8
OULINE
  9
$CELTYPE
  6
BYLAYER
  9
$CECOLOR
 62
   256
  9
$DIMSCALE
 40
1.0
  9
$DIMASZ
 40
0.18
  9
$DIMEXO
 40
0.0625
  9
$DIMDLI
 40
0.38
  9
$DIMRND
 40
0.0
  9
$DIMDLE
 40
0.0
  9
$DIMEXE
 40
0.18
  9
$DIMTP
 40
0.0
  9
$DIMTM
 40
0.0
  9
$DIMTXT
 40
0.18
  9
$DIMCEN
 40
0.09
  9
$DIMTSZ
 40
0.0
  9
$DIMTOL
 70
     0
  9
$DIMLIM
 70
     0
  9
$DIMTIH
 70
     1
  9
$DIMTOH
 70
     1
  9
$DIMSE1
 70
     0
  9
$DIMSE2
 70
     0
  9
$DIMTAD
 70
     0
  9
$DIMZIN
 70
     0
  9
$DIMBLK
  1

  9
$DIMASO
 70
     1
  9
$DIMSHO
 70
     1
  9
$DIMPOST
  1

  9
$DIMAPOST
  1

  9
$DIMALT
 70
     0
  9
$DIMALTD
 70
     2
  9
$DIMALTF
 40
25.4
  9
$DIMLFAC
 40
1.0
  9
$DIMTOFL
 70
     0
  9
$DIMTVP
 40
0.0
  9
$DIMTIX
 70
     0
  9
$DIMSOXD
 70
     0
  9
$DIMSAH
 70
     0
  9
$DIMBLK1
  1

  9
$DIMBLK2
  1

  9
$DIMSTYLE
  2
STANDARD
  9
$DIMCLRD
 70
     0
  9
$DIMCLRE
 70
     0
  9
$DIMCLRT
 70
     0
  9
$DIMTFAC
 40
1.0
  9
$DIMGAP
 40
0.09
  9
$LUNITS
 70
     2
  9
$LUPREC
 70
     4
  9
$SKETCHINC
 40
0.1
  9
$FILLETRAD
 40
0.5
  9
$AUNITS
 70
     0
  9
$AUPREC
 70
     0
  9
$MENU
  1
.
  9
$ELEVATION
 40
0.0
  9
$PELEVATION
 40
0.0
  9
$THICKNESS
 40
0.0
  9
$LIMCHECK
 70
     0
  9
$CHAMFERA
 40
0.0
  9
$CHAMFERB
 40
0.0
  9
$SKPOLY
 70
     0
  9
$TDCREATE
 40
2457753.00412037
  9
$TDUPDATE
 40
2457753.004131944
  9
$TDINDWG
 40
0.0000000116
  9
$TDUSRTIMER
 40
0.0000000116
  9
$USRTIMER
 70
     1
  9
$ANGBASE
 50
0.0
  9
$ANGDIR
 70
     0
  9
$PDMODE
 70
     0
  9
$PDSIZE
 40
0.0
  9
$PLINEWID
 40
0.0
  9
$COORDS
 70
     1
  9
$SPLFRAME
 70
     0
  9
$SPLINETYPE
 70
     6
  9
$SPLINESEGS
 70
     8
  9
$ATTDIA
 70
     0
  9
$ATTREQ
 70
     1
  9
$HANDLING
 70
     1
  9
$HANDSEED
  5
F8
  9
$SURFTAB1
 70
     6
  9
$SURFTAB2
 70
     6
  9
$SURFTYPE
 70
     6
  9
$SURFU
 70
     6
  9
$SURFV
 70
     6
  9
$UCSNAME
  2

  9
$UCSORG
 10
0.0
 20
0.0
 30
0.0
  9
$UCSXDIR
 10
1.0
 20
0.0
 30
0.0
  9
$UCSYDIR
 10
0.0
 20
1.0
 30
0.0
  9
$PUCSNAME
  2

  9
$PUCSORG
 10
0.0
 20
0.0
 30
0.0
  9
$PUCSXDIR
 10
1.0
 20
0.0
 30
0.0
  9
$PUCSYDIR
 10
0.0
 20
1.0
 30
0.0
  9
$USERI1
 70
     0
  9
$USERI2
 70
     0
  9
$USERI3
 70
     0
  9
$USERI4
 70
     0
  9
$USERI5
 70
     0
  9
$USERR1
 40
0.0
  9
$USERR2
 40
0.0
  9
$USERR3
 40
0.0
  9
$USERR4
 40
0.0
  9
$USERR5
 40
0.0
  9
$WORLDVIEW
 70
     1
  9
$SHADEDGE
 70
     3
  9
$SHADEDIF
 70
    70
  9
$TILEMODE
 70
     1
  9
$MAXACTVP
 70
    64
  9
$PLIMCHECK
 70
     0
  9
$PEXTMIN
 10
1.000000000000000E+20
 20
1.000000000000000E+20
 30
1.000000000000000E+20
  9
$PEXTMAX
 10
-1.000000000000000E+20
 20
-1.000000000000000E+20
 30
-1.000000000000000E+20
  9
$PLIMMIN
 10
0.0
 20
0.0
  9
$PLIMMAX
 10
12.0
 20
9.0
  9
$UNITMODE
 70
     0
  9
$VISRETAIN
 70
     1
  9
$PLINEGEN
 70
     0
  9
$PSLTSCALE
 70
     1
  0
ENDSEC
  0
SECTION
  2
TABLES
  0
TABLE
  2
VPORT
 70
     1
  0
VPORT
  2
*ACTIVE
 70
     0
 10
0.0
 20
0.0
 11
1.0
 21
1.0
 12
105.9163114362517
 22
-100.2
 13
0.0
 23
0.0
 14
0.5
 24
0.5
 15
0.5
 25
0.5
 16
0.0
 26
0.0
 36
1.0
 17
0.0
 27
0.0
 37
0.0
 40
24.33337500000002
 41
2.172815210793955
 42
50.0
 43
0.0
 44
0.0
 50
0.0
 51
0.0
 71
     0
 72
   100
 73
     1
 74
     3
 75
     0
 76
     0
 77
     0
 78
     0
  0
ENDTAB
  0
TABLE
  2
LTYPE
 70
     1
  0
LTYPE
  2
CONTINUOUS
 70
     0
  3
Solid line
 72
    65
 73
     0
 40
0.0
  0
ENDTAB
  0
TABLE
  2
LAYER
 70
     2
  0
LAYER
  2
0
 70
     0
 62
     7
  6
CONTINUOUS
  0
LAYER
  2
OULINE
 70
     0
 62
   230
  6
CONTINUOUS
  0
ENDTAB
  0
TABLE
  2
STYLE
 70
     1
  0
STYLE
  2
STANDARD
 70
     0
 40
0.0
 41
1.0
 50
0.0
 71
     0
 42
0.2
  3
txt
  4

  0
ENDTAB
  0
TABLE
  2
VIEW
 70
     0
  0
ENDTAB
  0
TABLE
  2
UCS
 70
     0
  0
ENDTAB
  0
TABLE
  2
APPID
 70
     1
  0
APPID
  2
ACAD
 70
     0
  0
ENDTAB
  0
TABLE
  2
DIMSTYLE
 70
     1
  0
DIMSTYLE
  2
STANDARD
 70
     0
  3

  4

  5

  6

  7

 40
1.0
 41
0.18
 42
0.0625
 43
0.38
 44
0.18
 45
0.0
 46
0.0
 47
0.0
 48
0.0
140
0.18
141
0.09
142
0.0
143
25.4
144
1.0
145
0.0
146
1.0
147
0.09
 71
     0
 72
     0
 73
     1
 74
     1
 75
     0
 76
     0
 77
     0
 78
     0
170
     0
171
     2
172
     0
173
     0
174
     0
175
     0
176
     0
177
     0
178
     0
  0
ENDTAB
  0
ENDSEC
  0
SECTION
  2
BLOCKS
  0
BLOCK
  8
0
  2
$MODEL_SPACE
 70
     0
 10
0.0
 20
0.0
 30
0.0
  3
$MODEL_SPACE
  1

  0
ENDBLK
  5
21
  8
0
  0
BLOCK
 67
     1
  8
0
  2
$PAPER_SPACE
 70
     0
 10
0.0
 20
0.0
 30
0.0
  3
$PAPER_SPACE
  1

  0
ENDBLK
  5
1D
 67
     1
  8
0
  0
ENDSEC
  0
SECTION
  2
ENTITIES
  0
ARC
  5
6F
  8
OULINE
 10
122.1000000000004
 20
-92.81703694267532
 30
0.0
 40
0.4531249999996402
 50
314.9817471240373
 51
0.0000000000197659
  0
LINE
  5
70
  8
OULINE
 10
122.553125
 20
-92.81703694267516
 30
0.0
 11
122.5531250000192
 21
-89.70312499999997
 31
0.0
  0
ARC
  5
71
  8
OULINE
 10
122.1000000000191
 20
-89.70312500000006
 30
0.0
 40
0.4531250000000426
 50
0.0000000000107814
 51
89.99999999999281
  0
LINE
  5
72
  8
OULINE
 10
122.1000000000192
 20
-89.25
 30
0.0
 11
112.3000000000192
 21
-89.24999999999999
 31
0.0
  0
ARC
  5
73
  8
OULINE
 10
112.3000000000192
 20
-89.70312500000003
 30
0.0
 40
0.4531250000000426
 50
90.0000000000054
 51
179.9999999999928
  0
LINE
  5
74
  8
OULINE
 10
111.8468750000192
 20
-89.70312499999997
 30
0.0
 11
111.846875
 21
-92.81703694267517
 31
0.0
  0
ARC
  5
75
  8
OULINE
 10
112.2999999999999
 20
-92.81703694267517
 30
0.0
 40
0.4531249999999574
 50
180.0
 51
225.0182528759449
  0
LINE
  5
76
  8
OULINE
 10
111.9796943292239
 20
-93.13754675983164
 30
0.0
 11
112.4805362595443
 21
-93.63806968255318
 31
0.0
  0
ARC
  5
77
  8
OULINE
 10
112.1999750000001
 20
-93.91880975743182
 30
0.0
 40
0.3968999999998819
 50
359.9999999999959
 51
45.01825287594895
  0
LINE
  5
78
  8
OULINE
 10
112.596875
 20
-93.91880975743184
 30
0.0
 11
112.596875
 21
-98.21309999999997
 31
0.0
  0
ARC
  5
79
  8
OULINE
 10
112.1999750000001
 20
-98.21310000000005
 30
0.0
 40
0.3968999999999454
 50
269.9999999999918
 51
0.0000000000123087
  0
LINE
  5
7A
  8
OULINE
 10
112.199975
 20
-98.60999999999999
 30
0.0
 11
111.3969406105432
 21
-98.61
 31
0.0
  0
ARC
  5
7B
  8
OULINE
 10
111.3969406105432
 20
-98.21309999999995
 30
0.0
 40
0.3969000000000449
 50
179.9986978527897
 51
270.000000000002
  0
LINE
  5
7C
  8
OULINE
 10
111.0000406106457
 20
-98.21309097975043
 30
0.0
 11
111.0000479338526
 21
-97.89086254932448
 31
0.0
  0
ARC
  5
7D
  8
OULINE
 10
110.6031479339553
 20
-97.89085352907489
 30
0.0
 40
0.396899999999872
 50
359.9986978527794
 51
22.49869785279151
  0
LINE
  5
7E
  8
OULINE
 10
110.9698391722142
 20
-97.73897480843236
 30
0.0
 11
109.3556638245165
 21
-93.84176027758564
 31
0.0
  0
ARC
  5
7F
  8
OULINE
 10
108.9889725862569
 20
-93.99363899822853
 30
0.0
 40
0.396900000000573
 50
22.49869785280703
 51
44.99869785277601
  0
LINE
  5
80
  8
OULINE
 10
109.2696296459174
 20
-93.71299469512735
 30
0.0
 11
106.2869266469677
 21
-90.73015611876859
 31
0.0
  0
ARC
  5
81
  8
OULINE
 10
106.0062695873073
 20
-91.01080042186993
 30
0.0
 40
0.3969000000005866
 50
44.99869785280357
 51
67.49869785276671
  0
LINE
  5
82
  8
OULINE
 10
106.1581649751981
 20
-90.64411608741047
 30
0.0
 11
102.2610238183163
 21
-89.02976359929117
 31
0.0
  0
ARC
  5
83
  8
OULINE
 10
102.109128430426
 20
-89.39644793374947
 30
0.0
 40
0.3968999999993076
 50
67.49869785277245
 51
89.99869785280812
  0
LINE
  5
84
  8
OULINE
 10
102.1091374506754
 20
-88.99954793385267
 30
0.0
 11
97.89086254932442
 21
-88.99945206614737
 31
0.0
  0
ARC
  5
85
  8
OULINE
 10
97.89085352907486
 20
-89.39635206604441
 30
0.0
 40
0.3968999999995451
 50
89.99869785278352
 51
112.4986978527947
  0
LINE
  5
86
  8
OULINE
 10
97.73897480843243
 20
-89.02966082778578
 30
0.0
 11
93.84176027758564
 21
-90.64383617548353
 31
0.0
  0
ARC
  5
87
  8
OULINE
 10
93.99363899822794
 20
-91.01052741374225
 30
0.0
 40
0.3968999999995699
 50
112.4986978527737
 51
134.9986978528021
  0
LINE
  5
88
  8
OULINE
 10
93.71299469512732
 20
-90.72987035408255
 30
0.0
 11
90.73015611876856
 21
-93.7125733530323
 31
0.0
  0
ARC
  5
89
  8
OULINE
 10
91.01080042186875
 20
-93.99323041269196
 30
0.0
 40
0.3968999999992401
 50
134.998697852763
 51
157.4986978528044
  0
LINE
  5
8A
  8
OULINE
 10
90.64411608741044
 20
-93.84133502480195
 30
0.0
 11
89.10104048483834
 21
-97.5664096186224
 31
0.0
  0
ARC
  5
8B
  8
OULINE
 10
88.73435615037936
 20
-97.414514230732
 30
0.0
 40
0.3969000000000031
 50
270.0000000000041
 51
337.4986978527874
  0
LINE
  5
8C
  8
OULINE
 10
88.73435615037938
 20
-97.81141423073198
 30
0.0
 11
87.12189999999997
 21
-97.81141423073203
 31
0.0
  0
ARC
  5
8D
  8
OULINE
 10
87.12190000000001
 20
-97.414514230732
 30
0.0
 40
0.3969000000000307
 50
180.0000000000062
 51
269.9999999999939
  0
LINE
  5
8E
  8
OULINE
 10
86.725
 20
-97.41451423073204
 30
0.0
 11
86.725
 21
-94.7
 31
0.0
  0
ARC
  5
8F
  8
OULINE
 10
86.475
 20
-94.69999999999999
 30
0.0
 40
0.25
 50
359.9999999999968
 51
90.0
  0
LINE
  5
90
  8
OULINE
 10
86.475
 20
-94.44999999999999
 30
0.0
 11
85.12619999999997
 21
-94.44999999999999
 31
0.0
  0
ARC
  5
91
  8
OULINE
 10
85.12620000000003
 20
-94.05309999999994
 30
0.0
 40
0.3969000000000449
 50
180.0000000000041
 51
269.9999999999918
  0
LINE
  5
92
  8
OULINE
 10
84.72929999999998
 20
-94.05309999999997
 30
0.0
 11
84.72930000000001
 21
-93.975025
 31
0.0
  0
ARC
  5
93
  8
OULINE
 10
85.12619999999997
 20
-93.97502499999997
 30
0.0
 40
0.3968999999999596
 50
89.99999999999591
 51
180.0000000000041
  0
LINE
  5
94
  8
OULINE
 10
85.1262
 20
-93.57812500000001
 30
0.0
 11
86.47499999999998
 21
-93.578125
 31
0.0
  0
ARC
  5
95
  8
OULINE
 10
86.47500000000002
 20
-93.25000000000003
 30
0.0
 40
0.3281249999999716
 50
269.9999999999926
 51
0.0000000000074443
  0
LINE
  5
96
  8
OULINE
 10
86.80312500000001
 20
-93.24999999999999
 30
0.0
 11
86.803125
 21
-88.6
 31
0.0
  0
ARC
  5
97
  8
OULINE
 10
86.47500000000001
 20
-88.59999999999998
 30
0.0
 40
0.3281249999999858
 50
359.9999999999975
 51
90.00000000000247
  0
LINE
  5
98
  8
OULINE
 10
86.475
 20
-88.27187499999998
 30
0.0
 11
81.025
 21
-88.271875
 31
0.0
  0
ARC
  5
99
  8
OULINE
 10
81.02499999999998
 20
-88.59999999999998
 30
0.0
 40
0.3281249999999858
 50
89.99999999999504
 51
180.0
  0
LINE
  5
9A
  8
OULINE
 10
80.69687499999999
 20
-88.59999999999998
 30
0.0
 11
80.696875
 21
-93.25
 31
0.0
  0
ARC
  5
9B
  8
OULINE
 10
81.02499999999995
 20
-93.25000000000007
 30
0.0
 40
0.3281249999999432
 50
179.9999999999876
 51
270.0000000000099
  0
LINE
  5
9C
  8
OULINE
 10
81.025
 20
-93.57812499999999
 30
0.0
 11
82.45309999999998
 21
-93.578125
 31
0.0
  0
ARC
  5
9D
  8
OULINE
 10
82.45309999999999
 20
-93.97502499999999
 30
0.0
 40
0.396899999999988
 50
359.9999999999959
 51
90.00000000000203
  0
LINE
  5
9E
  8
OULINE
 10
82.85
 20
-93.97502500000002
 30
0.0
 11
82.85000000000001
 21
-94.05309999999996
 31
0.0
  0
ARC
  5
9F
  8
OULINE
 10
82.45309999999998
 20
-94.05309999999996
 30
0.0
 40
0.3969000000000307
 50
270.0000000000041
 51
0.0
  0
LINE
  5
A0
  8
OULINE
 10
82.4531
 20
-94.44999999999997
 30
0.0
 11
80.65
 21
-94.45
 31
0.0
  0
ARC
  5
A1
  8
OULINE
 10
80.65000000000005
 20
-94.70000000000002
 30
0.0
 40
0.2500000000000142
 50
90.00000000000978
 51
179.9999999999967
  0
LINE
  5
A2
  8
OULINE
 10
80.40000000000002
 20
-94.7
 30
0.0
 11
80.4
 21
-99.3
 31
0.0
  0
ARC
  5
A3
  8
OULINE
 10
80.64999999999995
 20
-99.30000000000003
 30
0.0
 40
0.2499999999999432
 50
179.9999999999935
 51
270.000000000013
  0
LINE
  5
A4
  8
OULINE
 10
80.65
 20
-99.54999999999998
 30
0.0
 11
82.453125
 21
-99.55
 31
0.0
  0
ARC
  5
A5
  8
OULINE
 10
82.453125
 20
-99.94687499999996
 30
0.0
 40
0.3968749999999659
 50
359.999999999998
 51
90.0
  0
LINE
  5
A6
  8
OULINE
 10
82.85
 20
-99.94687499999998
 30
0.0
 11
82.85
 21
-100.453125
 31
0.0
  0
ARC
  5
A7
  8
OULINE
 10
82.45312499999999
 20
-100.453125
 30
0.0
 40
0.3968750000000085
 50
270.000000000002
 51
0.0
  0
LINE
  5
A8
  8
OULINE
 10
82.453125
 20
-100.85
 30
0.0
 11
81.025
 21
-100.85
 31
0.0
  0
ARC
  5
A9
  8
OULINE
 10
81.025
 20
-101.1
 30
0.0
 40
0.2499999999999858
 50
90.0
 51
180.0000000000032
  0
LINE
  5
AA
  8
OULINE
 10
80.775
 20
-101.1
 30
0.0
 11
80.775
 21
-104.6
 31
0.0
  0
ARC
  5
AB
  8
OULINE
 10
81.02499999999993
 20
-104.6000000000001
 30
0.0
 40
0.2499999999999289
 50
179.9999999999804
 51
270.0000000000163
  0
LINE
  5
AC
  8
OULINE
 10
81.025
 20
-104.85
 30
0.0
 11
84.6031
 21
-104.85
 31
0.0
  0
ARC
  5
AD
  8
OULINE
 10
84.60310000000001
 20
-105.2469
 30
0.0
 40
0.3969000000000023
 50
0.0
 51
90.00000000000203
  0
LINE
  5
AE
  8
OULINE
 10
85.0
 20
-105.2469
 30
0.0
 11
85.00000000000001
 21
-105.6781
 31
0.0
  0
ARC
  5
AF
  8
OULINE
 10
84.60309999999998
 20
-105.6781
 30
0.0
 40
0.3969000000000307
 50
270.0000000000041
 51
0.0000000000020515
  0
LINE
  5
B0
  8
OULINE
 10
84.60310000000001
 20
-106.075
 30
0.0
 11
80.2487
 21
-106.075
 31
0.0
  0
ARC
  5
B1
  8
OULINE
 10
80.24870000000001
 20
-106.325
 30
0.0
 40
0.2500000000000142
 50
90.00000000000325
 51
179.9999999999967
  0
LINE
  5
B2
  8
OULINE
 10
79.9987
 20
-106.325
 30
0.0
 11
79.9987
 21
-109.831
 31
0.0
  0
ARC
  5
B3
  8
OULINE
 10
80.24869999999996
 20
-109.831
 30
0.0
 40
0.2499999999999574
 50
180.0
 51
270.0000000000098
  0
LINE
  5
B4
  8
OULINE
 10
80.2487
 20
-110.081
 30
0.0
 11
86.475
 21
-110.081
 31
0.0
  0
ARC
  5
B5
  8
OULINE
 10
86.47500000000005
 20
-109.8310000000001
 30
0.0
 40
0.2499999999999432
 50
269.999999999987
 51
0.0000000000130276
  0
LINE
  5
B6
  8
OULINE
 10
86.725
 20
-109.831
 30
0.0
 11
86.725
 21
-101.1
 31
0.0
  0
ARC
  5
B7
  8
OULINE
 10
86.47499999999998
 20
-101.1
 30
0.0
 40
0.2500000000000142
 50
0.0
 51
89.99999999999675
  0
LINE
  5
B8
  8
OULINE
 10
86.475
 20
-100.85
 30
0.0
 11
85.12617499999998
 21
-100.85
 31
0.0
  0
ARC
  5
B9
  8
OULINE
 10
85.12617499999999
 20
-100.453125
 30
0.0
 40
0.3968750000000085
 50
180.0000000000021
 51
269.999999999998
  0
LINE
  5
BA
  8
OULINE
 10
84.7293
 20
-100.453125
 30
0.0
 11
84.7293
 21
-99.946875
 31
0.0
  0
ARC
  5
BB
  8
OULINE
 10
85.12617499999995
 20
-99.94687499999992
 30
0.0
 40
0.3968749999999517
 50
89.9999999999959
 51
180.0000000000123
  0
LINE
  5
BC
  8
OULINE
 10
85.12617499999998
 20
-99.54999999999998
 30
0.0
 11
88.6026011953249
 21
-99.55
 31
0.0
  0
ARC
  5
BD
  8
OULINE
 10
88.6026011953249
 20
-99.94689999999997
 30
0.0
 40
0.3968999999999738
 50
359.9986978527794
 51
90.0
  0
LINE
  5
BE
  8
OULINE
 10
88.9995011952224
 20
-99.94690902024956
 30
0.0
 11
88.99945206614737
 21
-102.1086374506755
 31
0.0
  0
ARC
  5
BF
  8
OULINE
 10
89.3963520660449
 20
-102.1086464709251
 30
0.0
 40
0.3969000000000283
 50
179.9986978527856
 51
202.4986978527886
  0
LINE
  5
C0
  8
OULINE
 10
89.02966082778579
 20
-102.2605251915677
 30
0.0
 11
90.64383617548353
 21
-106.1577397224144
 31
0.0
  0
ARC
  5
C1
  8
OULINE
 10
91.01052741374302
 20
-106.0058610017716
 30
0.0
 40
0.3969000000004855
 50
202.4986978528034
 51
224.9986978527717
  0
LINE
  5
C2
  8
OULINE
 10
90.72987035408252
 20
-106.2865053048727
 30
0.0
 11
93.7125733530323
 21
-109.2693438812314
 31
0.0
  0
ARC
  5
C3
  8
OULINE
 10
93.99323041269203
 20
-108.9886995781311
 30
0.0
 40
0.3968999999993707
 50
224.9986978527673
 51
247.4986978527984
  0
LINE
  5
C4
  8
OULINE
 10
93.84133502480194
 20
-109.3553839125896
 30
0.0
 11
97.73847618168371
 21
-110.9697364007088
 31
0.0
  0
ARC
  5
C5
  8
OULINE
 10
97.89037156957406
 20
-110.6030520662501
 30
0.0
 40
0.396899999999745
 50
247.4986978527808
 51
269.9986978527917
  0
LINE
  5
C6
  8
OULINE
 10
97.89036254932455
 20
-110.9999520661474
 30
0.0
 11
102.1086374506756
 21
-111.0000479338527
 31
0.0
  0
ARC
  5
C7
  8
OULINE
 10
102.108646470925
 20
-110.6031479339548
 30
0.0
 40
0.3969000000003978
 50
269.9986978527958
 51
292.4986978527758
  0
LINE
  5
C8
  8
OULINE
 10
102.2605251915677
 20
-110.9698391722143
 30
0.0
 11
106.1577397224144
 21
-109.3556638245165
 31
0.0
  0
ARC
  5
C9
  8
OULINE
 10
106.0058610017717
 20
-108.9889725862572
 30
0.0
 40
0.3969000000002157
 50
292.4986978527951
 51
314.9986978527847
  0
LINE
  5
CA
  8
OULINE
 10
106.2865053048727
 20
-109.2696296459175
 30
0.0
 11
109.2693438812314
 21
-106.2869266469677
 31
0.0
  0
ARC
  5
CB
  8
OULINE
 10
108.9886995781303
 20
-106.0062695873075
 30
0.0
 40
0.3969000000003655
 50
314.9986978528007
 51
337.4986978527808
  0
LINE
  5
CC
  8
OULINE
 10
109.3553839125896
 20
-106.1581649751981
 30
0.0
 11
110.9697364007088
 21
-102.2610238183163
 31
0.0
  0
ARC
  5
CD
  8
OULINE
 10
110.6030520662491
 20
-102.1091284304258
 30
0.0
 40
0.3969000000007216
 50
337.4986978528104
 51
359.9986978527671
  0
ARC
  5
CE
  8
OULINE
 10
60059.89782566959
 20
-103.471581690628
 30
0.0
 40
59948.89788908541
 50
179.997542234705
 51
179.9986978525457
  0
ARC
  5
CF
  8
OULINE
 10
111.3968917390476
 20
-100.9000249996058
 30
0.0
 40
0.3969000000000172
 50
89.99999998659375
 51
179.9975422348057
  0
LINE
  5
D0
  8
OULINE
 10
111.3968917391405
 20
-100.5031249996058
 30
0.0
 11
115.3631
 21
-100.503125
 31
0.0
  0
ARC
  5
D1
  8
OULINE
 10
115.3631124996456
 20
-100.9000125
 30
0.0
 40
0.39688750019681
 50
269.998195516525
 51
90.00180448347702
  0
ARC
  5
D2
  8
OULINE
 10
112.8240000006293
 20
-129041.8729826554
 30
0.0
 40
128940.5761076554
 50
89.99887173054344
 51
90.00000000000028
  0
ARC
  5
D3
  8
OULINE
 10
112.8240000000001
 20
-101.7500000000001
 30
0.0
 40
0.4531250000000568
 50
90.00000000000719
 51
179.9999999999928
  0
LINE
  5
D4
  8
OULINE
 10
112.370875
 20
-101.75
 30
0.0
 11
112.370875
 21
-111.675
 31
0.0
  0
ARC
  5
D5
  8
OULINE
 10
112.824
 20
-111.675
 30
0.0
 40
0.4531249999999574
 50
179.9999999999946
 51
270.0000000000054
  0
LINE
  5
D6
  8
OULINE
 10
112.824
 20
-112.128125
 30
0.0
 11
120.7
 21
-112.128125
 31
0.0
  0
ARC
  5
D7
  8
OULINE
 10
120.7000000000001
 20
-111.675
 30
0.0
 40
0.4531249999999716
 50
269.9999999999928
 51
0.0000000000035938
  0
LINE
  5
D8
  8
OULINE
 10
121.153125
 20
-111.675
 30
0.0
 11
121.153125
 21
-101.75
 31
0.0
  0
ARC
  5
D9
  8
OULINE
 10
120.7
 20
-101.75
 30
0.0
 40
0.4531250000000284
 50
0.0000000000071876
 51
89.9999999999946
  0
LINE
  5
DA
  8
OULINE
 10
120.7
 20
-101.296875
 30
0.0
 11
118.9369
 21
-101.296875
 31
0.0
  0
ARC
  5
DB
  8
OULINE
 10
118.9368875003544
 20
-100.8999875
 30
0.0
 40
0.3968875001968526
 50
89.99819551652504
 51
270.001804483477
  0
ARC
  5
DC
  8
OULINE
 10
121.3499999994113
 20
116360.5289937064
 30
0.0
 40
116461.0321187064
 50
269.9988128179615
 51
270.0000000000003
  0
LINE
  5
DD
  8
OULINE
 10
121.35
 20
-100.503125
 30
0.0
 11
122.199975
 21
-100.503125
 31
0.0
  0
ARC
  5
DE
  8
OULINE
 10
122.199975
 20
-100.900025
 30
0.0
 40
0.3969000000000023
 50
359.999999999998
 51
90.00000000000203
  0
LINE
  5
DF
  8
OULINE
 10
122.596875
 20
-100.900025
 30
0.0
 11
122.596875
 21
-101.325
 31
0.0
  0
ARC
  5
E0
  8
OULINE
 10
123.0999999999999
 20
-101.3250000000001
 30
0.0
 40
0.5031249999998693
 50
179.9999999999822
 51
270.0000000000211
  0
LINE
  5
E1
  8
OULINE
 10
123.1
 20
-101.828125
 30
0.0
 11
126.0692416050472
 21
-101.828125
 31
0.0
  0
ARC
  5
E2
  8
OULINE
 10
126.0692416050471
 20
-102.075
 30
0.0
 40
0.2468750000000313
 50
0.0000000000032981
 51
89.9999999999901
  0
LINE
  5
E3
  8
OULINE
 10
126.3161166050472
 20
-102.075
 30
0.0
 11
126.3161166050471
 21
-103.2747781336059
 31
0.0
  0
ARC
  5
E4
  8
OULINE
 10
129.0750197387752
 20
-103.2747781335987
 30
0.0
 40
2.758903133728097
 50
180.0000000001499
 51
0.0000000003482478
  0
LINE
  5
E5
  8
OULINE
 10
131.8339228725033
 20
-103.2747781335819
 30
0.0
 11
131.8339228725033
 21
-93.27507813359942
 31
0.0
  0
ARC
  5
E6
  8
OULINE
 10
129.0750197387752
 20
-93.2750781335987
 30
0.0
 40
2.758903133728069
 50
359.9999999999849
 51
180.00000000018
  0
LINE
  5
E7
  8
OULINE
 10
126.3161166050471
 20
-93.27507813360737
 30
0.0
 11
126.3161166050471
 21
-95.0
 31
0.0
  0
ARC
  5
E8
  8
OULINE
 10
126.069241605047
 20
-94.99999999999993
 30
0.0
 40
0.2468750000000739
 50
270.0000000000198
 51
359.9999999999835
  0
LINE
  5
E9
  8
OULINE
 10
126.0692416050471
 20
-95.24687499999999
 30
0.0
 11
123.1
 21
-95.24687499999999
 31
0.0
  0
ARC
  5
EA
  8
OULINE
 10
123.1000000000001
 20
-95.75000000000013
 30
0.0
 40
0.5031250000001393
 50
90.00000000002105
 51
179.9999999999822
  0
LINE
  5
EB
  8
OULINE
 10
122.596875
 20
-95.74999999999997
 30
0.0
 11
122.596875
 21
-96.5131
 31
0.0
  0
ARC
  5
EC
  8
OULINE
 10
122.199975
 20
-96.51309999999998
 30
0.0
 40
0.3969000000000023
 50
269.999999999998
 51
359.999999999998
  0
ARC
  5
ED
  8
OULINE
 10
122.2000000007874
 20
-96.51309999999998
 30
0.0
 40
0.3969000007873973
 50
180.0000000000021
 51
269.9963909307131
  0
ARC
  5
EE
  8
OULINE
 10
-138820.7692612026
 20
-93.8773593775585
 30
0.0
 40
138942.5723862026
 50
359.9989130990526
 51
359.9999999999997
  0
ARC
  5
EF
  8
OULINE
 10
122.0999999999999
 20
-93.87735937839663
 30
0.0
 40
0.2968749999998579
 50
134.981747124048
 51
180.0000000000082
  0
LINE
  5
F0
  8
OULINE
 10
121.890144560526
 20
-93.6673701878459
 30
0.0
 11
122.4203056707761
 21
-93.13754675983165
 31
0.0
  0
ENDSEC
  0
EOF
