  0
SECTION
  2
HEADER
  9
$ACADVER
  1
AC1009
  9
$DWGCODEPAGE
  3
mac-roman
  9
$INSBASE
 10
0.0
 20
0.0
 30
0.0
  9
$EXTMIN
 10
74.04999999999997
 20
-112.128125
 30
0.0
  9
$EXTMAX
 10
131.8339228725033
 20
-88.99995208422033
 30
0.0
  9
$LIMMIN
 10
0.0
 20
0.0
  9
$LIMMAX
 10
12.0
 20
9.0
  9
$ORTHOMODE
 70
     0
  9
$REGENMODE
 70
     1
  9
$FILLMODE
 70
     1
  9
$QTEXTMODE
 70
     0
  9
$MIRRTEXT
 70
     1
  9
$DRAGMODE
 70
     2
  9
$LTSCALE
 40
1.0
  9
$OSMODE
 70
    37
  9
$ATTMODE
 70
     1
  9
$TEXTSIZE
 40
0.2
  9
$TRACEWID
 40
0.05
  9
$TEXTSTYLE
  7
STANDARD
  9
$CLAYER
  8
OULINE
  9
$CELTYPE
  6
BYLAYER
  9
$CECOLOR
 62
   256
  9
$DIMSCALE
 40
1.0
  9
$DIMASZ
 40
0.18
  9
$DIMEXO
 40
0.0625
  9
$DIMDLI
 40
0.38
  9
$DIMRND
 40
0.0
  9
$DIMDLE
 40
0.0
  9
$DIMEXE
 40
0.18
  9
$DIMTP
 40
0.0
  9
$DIMTM
 40
0.0
  9
$DIMTXT
 40
0.18
  9
$DIMCEN
 40
0.09
  9
$DIMTSZ
 40
0.0
  9
$DIMTOL
 70
     0
  9
$DIMLIM
 70
     0
  9
$DIMTIH
 70
     1
  9
$DIMTOH
 70
     1
  9
$DIMSE1
 70
     0
  9
$DIMSE2
 70
     0
  9
$DIMTAD
 70
     0
  9
$DIMZIN
 70
     0
  9
$DIMBLK
  1

  9
$DIMASO
 70
     1
  9
$DIMSHO
 70
     1
  9
$DIMPOST
  1

  9
$DIMAPOST
  1

  9
$DIMALT
 70
     0
  9
$DIMALTD
 70
     2
  9
$DIMALTF
 40
25.4
  9
$DIMLFAC
 40
1.0
  9
$DIMTOFL
 70
     0
  9
$DIMTVP
 40
0.0
  9
$DIMTIX
 70
     0
  9
$DIMSOXD
 70
     0
  9
$DIMSAH
 70
     0
  9
$DIMBLK1
  1

  9
$DIMBLK2
  1

  9
$DIMSTYLE
  2
STANDARD
  9
$DIMCLRD
 70
     0
  9
$DIMCLRE
 70
     0
  9
$DIMCLRT
 70
     0
  9
$DIMTFAC
 40
1.0
  9
$DIMGAP
 40
0.09
  9
$LUNITS
 70
     2
  9
$LUPREC
 70
     4
  9
$SKETCHINC
 40
0.1
  9
$FILLETRAD
 40
0.5
  9
$AUNITS
 70
     0
  9
$AUPREC
 70
     0
  9
$MENU
  1
.
  9
$ELEVATION
 40
0.0
  9
$PELEVATION
 40
0.0
  9
$THICKNESS
 40
0.0
  9
$LIMCHECK
 70
     0
  9
$CHAMFERA
 40
0.0
  9
$CHAMFERB
 40
0.0
  9
$SKPOLY
 70
     0
  9
$TDCREATE
 40
2457753.883460648
  9
$TDUPDATE
 40
2457753.883530092
  9
$TDINDWG
 40
0.0000000116
  9
$TDUSRTIMER
 40
0.0000000116
  9
$USRTIMER
 70
     1
  9
$ANGBASE
 50
0.0
  9
$ANGDIR
 70
     0
  9
$PDMODE
 70
     0
  9
$PDSIZE
 40
0.0
  9
$PLINEWID
 40
0.0
  9
$COORDS
 70
     1
  9
$SPLFRAME
 70
     0
  9
$SPLINETYPE
 70
     6
  9
$SPLINESEGS
 70
     8
  9
$ATTDIA
 70
     0
  9
$ATTREQ
 70
     1
  9
$HANDLING
 70
     1
  9
$HANDSEED
  5
14A
  9
$SURFTAB1
 70
     6
  9
$SURFTAB2
 70
     6
  9
$SURFTYPE
 70
     6
  9
$SURFU
 70
     6
  9
$SURFV
 70
     6
  9
$UCSNAME
  2

  9
$UCSORG
 10
0.0
 20
0.0
 30
0.0
  9
$UCSXDIR
 10
1.0
 20
0.0
 30
0.0
  9
$UCSYDIR
 10
0.0
 20
1.0
 30
0.0
  9
$PUCSNAME
  2

  9
$PUCSORG
 10
0.0
 20
0.0
 30
0.0
  9
$PUCSXDIR
 10
1.0
 20
0.0
 30
0.0
  9
$PUCSYDIR
 10
0.0
 20
1.0
 30
0.0
  9
$USERI1
 70
     0
  9
$USERI2
 70
     0
  9
$USERI3
 70
     0
  9
$USERI4
 70
     0
  9
$USERI5
 70
     0
  9
$USERR1
 40
0.0
  9
$USERR2
 40
0.0
  9
$USERR3
 40
0.0
  9
$USERR4
 40
0.0
  9
$USERR5
 40
0.0
  9
$WORLDVIEW
 70
     1
  9
$SHADEDGE
 70
     3
  9
$SHADEDIF
 70
    70
  9
$TILEMODE
 70
     1
  9
$MAXACTVP
 70
    64
  9
$PLIMCHECK
 70
     0
  9
$PEXTMIN
 10
1.000000000000000E+20
 20
1.000000000000000E+20
 30
1.000000000000000E+20
  9
$PEXTMAX
 10
-1.000000000000000E+20
 20
-1.000000000000000E+20
 30
-1.000000000000000E+20
  9
$PLIMMIN
 10
0.0
 20
0.0
  9
$PLIMMAX
 10
12.0
 20
9.0
  9
$UNITMODE
 70
     0
  9
$VISRETAIN
 70
     1
  9
$PLINEGEN
 70
     0
  9
$PSLTSCALE
 70
     1
  0
ENDSEC
  0
SECTION
  2
TABLES
  0
TABLE
  2
VPORT
 70
     1
  0
VPORT
  2
*ACTIVE
 70
     0
 10
0.0
 20
0.0
 11
1.0
 21
1.0
 12
102.9419614362516
 22
-100.5640385421102
 13
0.0
 23
0.0
 14
0.5
 24
0.5
 15
0.5
 25
0.5
 16
0.0
 26
0.0
 36
1.0
 17
0.0
 27
0.0
 37
0.0
 40
23.59073637409525
 41
2.498421430993329
 42
50.0
 43
0.0
 44
0.0
 50
0.0
 51
0.0
 71
     0
 72
   100
 73
     1
 74
     3
 75
     0
 76
     0
 77
     0
 78
     0
  0
ENDTAB
  0
TABLE
  2
LTYPE
 70
     1
  0
LTYPE
  2
CONTINUOUS
 70
     0
  3
Solid line
 72
    65
 73
     0
 40
0.0
  0
ENDTAB
  0
TABLE
  2
LAYER
 70
     2
  0
LAYER
  2
0
 70
     0
 62
     7
  6
CONTINUOUS
  0
LAYER
  2
OULINE
 70
     0
 62
   230
  6
CONTINUOUS
  0
ENDTAB
  0
TABLE
  2
STYLE
 70
     1
  0
STYLE
  2
STANDARD
 70
     0
 40
0.0
 41
1.0
 50
0.0
 71
     0
 42
0.2
  3
txt
  4

  0
ENDTAB
  0
TABLE
  2
VIEW
 70
     0
  0
ENDTAB
  0
TABLE
  2
UCS
 70
     0
  0
ENDTAB
  0
TABLE
  2
APPID
 70
     1
  0
APPID
  2
ACAD
 70
     0
  0
ENDTAB
  0
TABLE
  2
DIMSTYLE
 70
     1
  0
DIMSTYLE
  2
STANDARD
 70
     0
  3

  4

  5

  6

  7

 40
1.0
 41
0.18
 42
0.0625
 43
0.38
 44
0.18
 45
0.0
 46
0.0
 47
0.0
 48
0.0
140
0.18
141
0.09
142
0.0
143
25.4
144
1.0
145
0.0
146
1.0
147
0.09
 71
     0
 72
     0
 73
     1
 74
     1
 75
     0
 76
     0
 77
     0
 78
     0
170
     0
171
     2
172
     0
173
     0
174
     0
175
     0
176
     0
177
     0
178
     0
  0
ENDTAB
  0
ENDSEC
  0
SECTION
  2
BLOCKS
  0
BLOCK
  8
0
  2
$MODEL_SPACE
 70
     0
 10
0.0
 20
0.0
 30
0.0
  3
$MODEL_SPACE
  1

  0
ENDBLK
  5
21
  8
0
  0
BLOCK
 67
     1
  8
0
  2
$PAPER_SPACE
 70
     0
 10
0.0
 20
0.0
 30
0.0
  3
$PAPER_SPACE
  1

  0
ENDBLK
  5
1D
 67
     1
  8
0
  0
ENDSEC
  0
SECTION
  2
ENTITIES
  0
LINE
  5
6F
  8
OULINE
 10
111.0000406106457
 20
-98.21309097975043
 30
0.0
 11
111.0000479270407
 21
-97.89116228422824
 31
0.0
  0
ARC
  5
70
  8
OULINE
 10
110.6031479271432
 20
-97.89115326397874
 30
0.0
 40
0.3968999999999753
 50
359.9986978527917
 51
22.4986978527917
  0
LINE
  5
71
  8
OULINE
 10
110.9698391654022
 20
-97.73927454333617
 30
0.0
 11
109.355701876715
 21
-93.84215190097525
 31
0.0
  0
ARC
  5
72
  8
OULINE
 10
108.9890106384558
 20
-93.99403062161787
 30
0.0
 40
0.3969000000000942
 50
22.49869785279189
 51
44.99869785278762
  0
LINE
  5
73
  8
OULINE
 10
109.2696676981159
 20
-93.71338631851695
 30
0.0
 11
106.2870350253081
 21
-90.73061807149666
 31
0.0
  0
ARC
  5
74
  8
OULINE
 10
106.0063779656481
 20
-91.01126237459741
 30
0.0
 40
0.396899999999885
 50
44.99869785278037
 51
67.49869785278032
  0
LINE
  5
75
  8
OULINE
 10
106.1582733535385
 20
-90.64457804013855
 30
0.0
 11
102.2612240834125
 21
-89.03026361520631
 31
0.0
  0
ARC
  5
76
  8
OULINE
 10
102.1093286955221
 20
-89.39694794966522
 30
0.0
 40
0.396899999999943
 50
67.49869785278615
 51
89.99869785279172
  0
LINE
  5
77
  8
OULINE
 10
102.1093377157716
 20
-89.00004794976778
 30
0.0
 11
97.89116227286463
 21
-88.99995208432283
 31
0.0
  0
ARC
  5
78
  8
OULINE
 10
97.89115325261511
 20
-89.39685208422037
 30
0.0
 40
0.3969000000000463
 50
89.99869785278966
 51
112.4986978527897
  0
LINE
  5
79
  8
OULINE
 10
97.73927453197253
 20
-89.03016084596125
 30
0.0
 11
93.84215188961156
 21
-90.64429813464854
 31
0.0
  0
ARC
  5
7A
  8
OULINE
 10
93.9940306102541
 20
-91.01098937290757
 30
0.0
 40
0.3968999999999535
 50
112.4986978527879
 51
134.9986978527876
  0
LINE
  5
7B
  8
OULINE
 10
93.71338630715329
 20
-90.73033231324753
 30
0.0
 11
90.73061806013301
 21
-93.7129649860554
 31
0.0
  0
ARC
  5
7C
  8
OULINE
 10
91.0112623632339
 20
-93.99362204571548
 30
0.0
 40
0.3969000000000348
 50
134.9986978527905
 51
157.4986978527871
  0
LINE
  5
7D
  8
OULINE
 10
90.64457802877489
 20
-93.84172665782506
 30
0.0
 11
89.03026360384266
 21
-97.73877592795105
 31
0.0
  0
ARC
  5
7E
  8
OULINE
 10
89.39694793830165
 20
-97.89067131584144
 30
0.0
 40
0.3969000000000141
 50
157.4986978527909
 51
179.9986978527897
  0
LINE
  5
7F
  8
OULINE
 10
89.00004793840414
 20
-97.89066229559192
 30
0.0
 11
89.00002764861783
 21
-98.78343318241784
 31
0.0
  0
ARC
  5
80
  8
OULINE
 10
88.60312764872033
 20
-98.7834241621683
 30
0.0
 40
0.3969000000000023
 50
270.0
 51
359.9986978527876
  0
LINE
  5
81
  8
OULINE
 10
88.60312764872033
 20
-99.1803241621683
 30
0.0
 11
87.88498788784392
 21
-99.1803241621683
 31
0.0
  0
ARC
  5
82
  8
OULINE
 10
87.88498788784389
 20
-98.7834241621683
 30
0.0
 40
0.3968999999999914
 50
202.4999999999937
 51
270.0000000000041
  0
LINE
  5
83
  8
OULINE
 10
87.51830010139015
 20
-98.93531121647396
 30
0.0
 11
87.22348940861401
 21
-98.22357524364116
 31
0.0
  0
ARC
  5
84
  8
OULINE
 10
86.85680162215988
 20
-98.37546229794711
 30
0.0
 40
0.3969000000004677
 50
22.50000000000966
 51
44.99999999998405
  0
LINE
  5
85
  8
OULINE
 10
87.13745230361322
 20
-98.09481161649391
 30
0.0
 11
86.40518838350609
 21
-97.36254769638678
 31
0.0
  0
ARC
  5
86
  8
OULINE
 10
86.12453770205335
 20
-97.6431983778394
 30
0.0
 40
0.3968999999996271
 50
44.99999999998695
 51
67.50000000000907
  0
LINE
  5
87
  8
OULINE
 10
86.27642475635885
 20
-97.27651059138599
 30
0.0
 11
85.48927908943554
 21
-96.95046418058314
 31
0.0
  0
ARC
  5
88
  8
OULINE
 10
85.64115657665542
 20
-96.58379949111776
 30
0.0
 40
0.39687499999996
 50
180.5321857374564
 51
247.5000000000003
  0
LINE
  5
89
  8
OULINE
 10
85.24429869657908
 20
-96.58748576922316
 30
0.0
 11
85.23900750831334
 21
-96.01784623086824
 31
0.0
  0
ARC
  5
8A
  8
OULINE
 10
85.63586538838963
 20
-96.01415995276275
 30
0.0
 40
0.3968749999999037
 50
112.4999999999918
 51
180.5321857374688
  0
LINE
  5
8B
  8
OULINE
 10
85.48398790116983
 20
-95.6474952632974
 30
0.0
 11
86.33971565582894
 21
-95.29304122161852
 31
0.0
  0
ARC
  5
8C
  8
OULINE
 10
86.18782860152253
 20
-94.92635343516372
 30
0.0
 40
0.3969000000012643
 50
292.5000000000353
 51
314.9999999999623
  0
LINE
  5
8D
  8
OULINE
 10
86.46847928297618
 20
-95.20700411661774
 30
0.0
 11
87.25700411661772
 21
-94.4184792829762
 31
0.0
  0
ARC
  5
8E
  8
OULINE
 10
86.97635343516443
 20
-94.137828601523
 30
0.0
 40
0.396900000000431
 50
315.0000000000101
 51
337.4999999999879
  0
LINE
  5
8F
  8
OULINE
 10
87.34304122161852
 20
-94.28971565582896
 30
0.0
 11
87.76978778645372
 21
-93.25945831130767
 31
0.0
  0
ARC
  5
90
  8
OULINE
 10
87.40310000000026
 20
-93.107571257002
 30
0.0
 40
0.3968999999997342
 50
337.4999999999887
 51
0.0000000000061544
  0
LINE
  5
91
  8
OULINE
 10
87.8
 20
-93.10757125700195
 30
0.0
 11
87.8
 21
-91.99242874299806
 31
0.0
  0
ARC
  5
92
  8
OULINE
 10
87.40310000000112
 20
-91.99242874299784
 30
0.0
 40
0.3968999999988796
 50
359.9999999999692
 51
22.50000000003301
  0
LINE
  5
93
  8
OULINE
 10
87.76978778645372
 20
-91.84054168869235
 30
0.0
 11
87.3430412216185
 21
-90.81028434417107
 31
0.0
  0
ARC
  5
94
  8
OULINE
 10
86.97635343516538
 20
-90.96217139847637
 30
0.0
 40
0.3968999999992909
 50
22.49999999998011
 51
45.00000000002031
  0
LINE
  5
95
  8
OULINE
 10
87.25700411661772
 20
-90.68152071702383
 30
0.0
 11
86.4684792829762
 21
-89.89299588338228
 31
0.0
  0
ARC
  5
96
  8
OULINE
 10
86.18782860152356
 20
-90.17364656483477
 30
0.0
 40
0.3968999999994663
 50
44.99999999998405
 51
67.50000000001715
  0
LINE
  5
97
  8
OULINE
 10
86.33971565582895
 20
-89.80695877838149
 30
0.0
 11
85.30945831130762
 21
-89.38021221354629
 31
0.0
  0
ARC
  5
98
  8
OULINE
 10
85.15757125700225
 20
-89.74689999999829
 30
0.0
 40
0.3968999999982808
 50
67.4999999999484
 51
90.00000000004924
  0
LINE
  5
99
  8
OULINE
 10
85.1575712570019
 20
-89.35000000000001
 30
0.0
 11
84.04242874299806
 21
-89.35000000000001
 31
0.0
  0
ARC
  5
9A
  8
OULINE
 10
84.04242874299793
 20
-89.74689999999929
 30
0.0
 40
0.3968999999992775
 50
89.99999999998154
 51
112.5000000000232
  0
LINE
  5
9B
  8
OULINE
 10
83.89054168869235
 20
-89.38021221354629
 30
0.0
 11
82.86028434417105
 21
-89.80695877838149
 31
0.0
  0
ARC
  5
9C
  8
OULINE
 10
83.01217139847668
 20
-90.17364656483511
 30
0.0
 40
0.3968999999998755
 50
112.4999999999962
 51
135.0000000000072
  0
LINE
  5
9D
  8
OULINE
 10
82.7315207170238
 20
-89.89299588338228
 30
0.0
 11
81.94299588338227
 21
-90.68152071702383
 31
0.0
  0
ARC
  5
9E
  8
OULINE
 10
82.22364656483579
 20
-90.96217139847715
 30
0.0
 40
0.3969000000006822
 50
135.0000000000203
 51
157.4999999999789
  0
LINE
  5
9F
  8
OULINE
 10
81.85695877838148
 20
-90.81028434417105
 30
0.0
 11
81.43021221354627
 21
-91.84054168869235
 31
0.0
  0
ARC
  5
A0
  8
OULINE
 10
81.7968999999997
 20
-91.99242874299802
 30
0.0
 40
0.3968999999997025
 50
157.499999999989
 51
180.0000000000062
  0
LINE
  5
A1
  8
OULINE
 10
81.39999999999999
 20
-91.99242874299806
 30
0.0
 11
81.39999999999999
 21
-93.10757125700195
 31
0.0
  0
ARC
  5
A2
  8
OULINE
 10
81.79689999999954
 20
-93.10757125700201
 30
0.0
 40
0.3968999999995475
 50
179.9999999999918
 51
202.5000000000177
  0
LINE
  5
A3
  8
OULINE
 10
81.43021221354627
 20
-93.25945831130765
 30
0.0
 11
81.85695877838147
 21
-94.28971565582896
 31
0.0
  0
ARC
  5
A4
  8
OULINE
 10
82.22364656483543
 20
-94.1378286015231
 30
0.0
 40
0.3969000000002775
 50
202.5000000000077
 51
224.9999999999942
  0
LINE
  5
A5
  8
OULINE
 10
81.94299588338227
 20
-94.41847928297621
 30
0.0
 11
82.73152071702381
 21
-95.20700411661774
 31
0.0
  0
ARC
  5
A6
  8
OULINE
 10
83.01217139847671
 20
-94.9263534351649
 30
0.0
 40
0.3968999999998984
 50
224.9999999999942
 51
247.5000000000008
  0
LINE
  5
A7
  8
OULINE
 10
82.86028434417105
 20
-95.29304122161854
 30
0.0
 11
83.73951870341988
 21
-95.6572320177238
 31
0.0
  0
ARC
  5
A8
  8
OULINE
 10
83.58764121619993
 20
-96.02389670718921
 30
0.0
 40
0.3968750000000135
 50
4.666162701580856
 51
67.49999999999243
  0
LINE
  5
A9
  8
OULINE
 10
83.98320081513849
 20
-95.99161096246206
 30
0.0
 11
84.02973432772431
 21
-96.56173185424291
 31
0.0
  0
ARC
  5
AA
  8
OULINE
 10
83.63417472878571
 20
-96.59401759896998
 30
0.0
 40
0.3968750000000645
 50
292.500000000009
 51
4.666162701572008
  0
LINE
  5
AB
  8
OULINE
 10
83.78605221600569
 20
-96.96068228843544
 30
0.0
 11
83.02357524364118
 21
-97.27651059138601
 31
0.0
  0
ARC
  5
AC
  8
OULINE
 10
83.1754622979465
 20
-97.64319837783914
 30
0.0
 40
0.3968999999992963
 50
112.499999999982
 51
135.0000000000203
  0
LINE
  5
AD
  8
OULINE
 10
82.89481161649395
 20
-97.3625476963868
 30
0.0
 11
82.16254769638678
 21
-98.09481161649391
 31
0.0
  0
ARC
  5
AE
  8
OULINE
 10
82.4431983778407
 20
-98.37546229794748
 30
0.0
 40
0.3969000000011343
 50
135.0000000000362
 51
157.4999999999725
  0
LINE
  5
AF
  8
OULINE
 10
82.076510591386
 20
-98.22357524364116
 30
0.0
 11
81.77444669040302
 21
-98.95282201009759
 31
0.0
  0
ARC
  5
B0
  8
OULINE
 10
81.4077589039493
 20
-98.80093495579193
 30
0.0
 40
0.3968999999999783
 50
273.8670289225175
 51
337.5000000000055
  0
LINE
  5
B1
  8
OULINE
 10
81.43452629962542
 20
-99.19693131502859
 30
0.0
 11
80.73437951541338
 21
-99.24425777540436
 31
0.0
  0
ARC
  5
B2
  8
OULINE
 10
80.70761211973732
 20
-98.84826141616759
 30
0.0
 40
0.396900000000076
 50
202.5000000000111
 51
273.8670289225083
  0
LINE
  5
B3
  8
OULINE
 10
80.34092433328355
 20
-99.00014847047339
 30
0.0
 11
79.99304122161848
 21
-98.16028434417102
 31
0.0
  0
ARC
  5
B4
  8
OULINE
 10
79.62635343516465
 20
-98.31217139847678
 30
0.0
 40
0.3969000000001213
 50
22.50000000000151
 51
44.9999999999942
  0
LINE
  5
B5
  8
OULINE
 10
79.9070041166177
 20
-98.03152071702378
 30
0.0
 11
79.11847928297617
 21
-97.24299588338228
 31
0.0
  0
ARC
  5
B6
  8
OULINE
 10
78.83782860152337
 20
-97.52364656483492
 30
0.0
 40
0.3968999999996874
 50
44.99999999998405
 51
67.50000000000382
  0
LINE
  5
B7
  8
OULINE
 10
78.98971565582893
 20
-97.15695877838148
 30
0.0
 11
77.95945831130763
 21
-96.73021221354625
 31
0.0
  0
ARC
  5
B8
  8
OULINE
 10
77.80757125700211
 20
-97.0968999999992
 30
0.0
 40
0.3968999999992017
 50
67.49999999998127
 51
90.00000000002461
  0
LINE
  5
B9
  8
OULINE
 10
77.80757125700194
 20
-96.69999999999999
 30
0.0
 11
76.69242874299805
 21
-96.7
 31
0.0
  0
ARC
  5
BA
  8
OULINE
 10
76.6924287429982
 20
-97.09690000000076
 30
0.0
 40
0.3969000000007554
 50
90.00000000002257
 51
112.4999999999814
  0
LINE
  5
BB
  8
OULINE
 10
76.54054168869233
 20
-96.73021221354628
 30
0.0
 11
75.51028434417103
 21
-97.1569587783815
 31
0.0
  0
ARC
  5
BC
  8
OULINE
 10
75.66217139847714
 20
-97.5236465648358
 30
0.0
 40
0.3969000000006906
 50
112.500000000023
 51
134.9999999999812
  0
LINE
  5
BD
  8
OULINE
 10
75.3815207170238
 20
-97.24299588338228
 30
0.0
 11
74.59299588338224
 21
-98.03152071702382
 31
0.0
  0
ARC
  5
BE
  8
OULINE
 10
74.87364656483406
 20
-98.31217139847595
 30
0.0
 40
0.3968999999986323
 50
134.9999999999681
 51
157.5000000000404
  0
LINE
  5
BF
  8
OULINE
 10
74.50695877838149
 20
-98.16028434417103
 30
0.0
 11
74.08021221354625
 21
-99.19054168869233
 31
0.0
  0
ARC
  5
C0
  8
OULINE
 10
74.44689999999937
 20
-99.34242874299791
 30
0.0
 40
0.3968999999993942
 50
157.4999999999839
 51
180.0000000000205
  0
LINE
  5
C1
  8
OULINE
 10
74.04999999999998
 20
-99.34242874299805
 30
0.0
 11
74.04999999999997
 21
-100.4575712570019
 31
0.0
  0
ARC
  5
C2
  8
OULINE
 10
74.44690000000016
 20
-100.4575712570019
 30
0.0
 40
0.396900000000187
 50
180.0000000000082
 51
202.5000000000002
  0
LINE
  5
C3
  8
OULINE
 10
74.08021221354625
 20
-100.6094583113077
 30
0.0
 11
74.50695877838147
 21
-101.639715655829
 31
0.0
  0
ARC
  5
C4
  8
OULINE
 10
74.87364656483496
 20
-101.4878286015233
 30
0.0
 40
0.3968999999997333
 50
202.5000000000003
 51
225.0000000000159
  0
LINE
  5
C5
  8
OULINE
 10
74.59299588338227
 20
-101.7684792829762
 30
0.0
 11
75.38152071702379
 21
-102.5570041166177
 31
0.0
  0
ARC
  5
C6
  8
OULINE
 10
75.66217139847689
 20
-102.2763534351645
 30
0.0
 40
0.3969000000002903
 50
225.0000000000101
 51
247.499999999993
  0
LINE
  5
C7
  8
OULINE
 10
75.51028434417103
 20
-102.6430412216185
 30
0.0
 11
76.54054168869234
 21
-103.0697877864537
 31
0.0
  0
ARC
  5
C8
  8
OULINE
 10
76.69242874299792
 20
-102.7031000000006
 30
0.0
 40
0.3968999999993548
 50
247.4999999999815
 51
270.0000000000185
  0
LINE
  5
C9
  8
OULINE
 10
76.69242874299805
 20
-103.1
 30
0.0
 11
77.80757125700192
 21
-103.1
 31
0.0
  0
ARC
  5
CA
  8
OULINE
 10
77.807571257002
 20
-102.7031000000002
 30
0.0
 40
0.3968999999997607
 50
269.9999999999897
 51
292.5000000000079
  0
LINE
  5
CB
  8
OULINE
 10
77.95945831130766
 20
-103.0697877864537
 30
0.0
 11
78.98971565582895
 21
-102.6430412216185
 31
0.0
  0
ARC
  5
CC
  8
OULINE
 10
78.83782860152272
 20
-102.276353435164
 30
0.0
 40
0.3969000000008916
 50
292.5000000000288
 51
314.9999999999739
  0
LINE
  5
CD
  8
OULINE
 10
79.11847928297617
 20
-102.5570041166177
 30
0.0
 11
79.90700411661771
 21
-101.7684792829762
 31
0.0
  0
ARC
  5
CE
  8
OULINE
 10
79.62635343516487
 20
-101.4878286015233
 30
0.0
 40
0.3968999999998582
 50
315.0
 51
337.5000000000057
  0
LINE
  5
CF
  8
OULINE
 10
79.99304122161848
 20
-101.6397156558289
 30
0.0
 11
80.35000942638499
 21
-100.7779181745457
 31
0.0
  0
ARC
  5
D0
  8
OULINE
 10
80.71669721283872
 20
-100.9298052288514
 30
0.0
 40
0.3969000000000076
 50
90.78442952922167
 51
157.5000000000006
  0
LINE
  5
D1
  8
OULINE
 10
80.71126347310059
 20
-100.5329424257665
 30
0.0
 11
81.41108924251725
 21
-100.5233605978313
 31
0.0
  0
ARC
  5
D2
  8
OULINE
 10
81.41652298225534
 20
-100.9202234009162
 30
0.0
 40
0.3968999999999885
 50
22.50000000000021
 51
90.78442952921553
  0
LINE
  5
D3
  8
OULINE
 10
81.78321076870908
 20
-100.7683363466105
 30
0.0
 11
82.07651059138601
 21
-101.4764247563588
 31
0.0
  0
ARC
  5
D4
  8
OULINE
 10
82.44319837783964
 20
-101.3245377020532
 30
0.0
 40
0.3968999999998755
 50
202.4999999999962
 51
225.0000000000014
  0
LINE
  5
D5
  8
OULINE
 10
82.1625476963868
 20
-101.6051883835061
 30
0.0
 11
82.89481161649393
 21
-102.3374523036132
 31
0.0
  0
ARC
  5
D6
  8
OULINE
 10
83.17546229794726
 20
-102.0568016221596
 30
0.0
 40
0.3969000000007224
 50
225.0000000000232
 51
247.4999999999839
  0
LINE
  5
D7
  8
OULINE
 10
83.02357524364118
 20
-102.423489408614
 30
0.0
 11
83.75071614556467
 21
-102.7246810319469
 31
0.0
  0
ARC
  5
D8
  8
OULINE
 10
83.598829091259
 20
-103.0913688184006
 30
0.0
 40
0.3968999999999389
 50
3.393069206726559
 51
67.50000000000313
  0
LINE
  5
D9
  8
OULINE
 10
83.99503332342579
 20
-103.0678780454656
 30
0.0
 11
84.03654014351525
 21
-103.7679477208523
 31
0.0
  0
ARC
  5
DA
  8
OULINE
 10
83.64033591134842
 20
-103.7914384937874
 30
0.0
 40
0.396900000000001
 50
292.5000000000021
 51
3.39306920673836
  0
LINE
  5
DB
  8
OULINE
 10
83.79222296565413
 20
-104.1581262802411
 30
0.0
 11
83.02357524364116
 21
-104.476510591386
 31
0.0
  0
ARC
  5
DC
  8
OULINE
 10
83.17546229794681
 20
-104.8431983778397
 30
0.0
 40
0.3968999999998941
 50
112.4999999999973
 51
135.0000000000014
  0
LINE
  5
DD
  8
OULINE
 10
82.89481161649393
 20
-104.5625476963868
 30
0.0
 11
82.1625476963868
 21
-105.2948116164939
 31
0.0
  0
ARC
  5
DE
  8
OULINE
 10
82.44319837783975
 20
-105.5754622979469
 30
0.0
 40
0.3968999999999888
 50
135.0000000000043
 51
157.5000000000055
  0
LINE
  5
DF
  8
OULINE
 10
82.07651059138601
 20
-105.4235752436412
 30
0.0
 11
81.68021221354627
 21
-106.3803241621683
 31
0.0
  0
ARC
  5
E0
  8
OULINE
 10
82.04689999999914
 20
-106.5322112164738
 30
0.0
 40
0.3968999999991469
 50
157.4999999999735
 51
180.0000000000246
  0
LINE
  5
E1
  8
OULINE
 10
81.64999999999999
 20
-106.532211216474
 30
0.0
 11
81.64999999999999
 21
-107.5677887835261
 31
0.0
  0
ARC
  5
E2
  8
OULINE
 10
82.04689999999995
 20
-107.5677887835261
 30
0.0
 40
0.3968999999999596
 50
179.999999999998
 51
202.499999999998
  0
LINE
  5
E3
  8
OULINE
 10
81.68021221354626
 20
-107.7196758378317
 30
0.0
 11
82.076510591386
 21
-108.6764247563588
 31
0.0
  0
ARC
  5
E4
  8
OULINE
 10
82.44319837783966
 20
-108.5245377020532
 30
0.0
 40
0.3968999999999149
 50
202.4999999999939
 51
224.9999999999986
  0
LINE
  5
E5
  8
OULINE
 10
82.16254769638678
 20
-108.8051883835061
 30
0.0
 11
82.89481161649391
 21
-109.5374523036132
 31
0.0
  0
ARC
  5
E6
  8
OULINE
 10
83.17546229794672
 20
-109.2568016221605
 30
0.0
 40
0.3968999999997376
 50
224.9999999999884
 51
247.5000000000088
  0
LINE
  5
E7
  8
OULINE
 10
83.02357524364118
 20
-109.623489408614
 30
0.0
 11
83.9803241621683
 21
-110.0197877864537
 31
0.0
  0
ARC
  5
E8
  8
OULINE
 10
84.1322112164739
 20
-109.6531000000004
 30
0.0
 40
0.3968999999995889
 50
247.4999999999911
 51
270.0000000000143
  0
LINE
  5
E9
  8
OULINE
 10
84.132211216474
 20
-110.05
 30
0.0
 11
85.16778878352599
 21
-110.05
 31
0.0
  0
ARC
  5
EA
  8
OULINE
 10
85.16778878352602
 20
-109.6531000000002
 30
0.0
 40
0.3968999999998744
 50
269.9999999999959
 51
292.5000000000072
  0
LINE
  5
EB
  8
OULINE
 10
85.31967583783172
 20
-110.0197877864537
 30
0.0
 11
86.27642475635884
 21
-109.623489408614
 31
0.0
  0
ARC
  5
EC
  8
OULINE
 10
86.12453770205374
 20
-109.2568016221612
 30
0.0
 40
0.3968999999989204
 50
292.499999999969
 51
315.000000000029
  0
LINE
  5
ED
  8
OULINE
 10
86.40518838350607
 20
-109.5374523036132
 30
0.0
 11
87.13745230361322
 21
-108.8051883835061
 31
0.0
  0
ARC
  5
EE
  8
OULINE
 10
86.85680162216086
 20
-108.5245377020536
 30
0.0
 40
0.3968999999992854
 50
314.999999999984
 51
337.5000000000263
  0
LINE
  5
EF
  8
OULINE
 10
87.223489408614
 20
-108.6764247563589
 30
0.0
 11
87.61978778645371
 21
-107.7196758378317
 31
0.0
  0
ARC
  5
F0
  8
OULINE
 10
87.25309999999965
 20
-107.567788783526
 30
0.0
 40
0.3969000000003423
 50
337.5000000000072
 51
359.9999999999897
  0
LINE
  5
F1
  8
OULINE
 10
87.64999999999999
 20
-107.567788783526
 30
0.0
 11
87.64999999999999
 21
-106.532211216474
 31
0.0
  0
ARC
  5
F2
  8
OULINE
 10
87.25310000000054
 20
-106.5322112164739
 30
0.0
 40
0.396899999999448
 50
359.9999999999857
 51
22.50000000001488
  0
LINE
  5
F3
  8
OULINE
 10
87.61978778645373
 20
-106.3803241621683
 30
0.0
 11
87.223489408614
 21
-105.4235752436412
 31
0.0
  0
ARC
  5
F4
  8
OULINE
 10
86.85680162215957
 20
-105.5754622979474
 30
0.0
 40
0.396900000000825
 50
22.50000000002161
 51
44.99999999997825
  0
LINE
  5
F5
  8
OULINE
 10
87.1374523036132
 20
-105.2948116164939
 30
0.0
 11
86.40518838350607
 21
-104.5625476963868
 31
0.0
  0
ARC
  5
F6
  8
OULINE
 10
86.1245377020528
 20
-104.8431983778402
 30
0.0
 40
0.3969000000005113
 50
45.00000000000725
 51
67.49999999997708
  0
LINE
  5
F7
  8
OULINE
 10
86.27642475635884
 20
-104.476510591386
 30
0.0
 11
85.50777703434586
 21
-104.1581262802411
 31
0.0
  0
ARC
  5
F8
  8
OULINE
 10
85.65966408865158
 20
-103.7914384937873
 30
0.0
 40
0.3969000000000131
 50
176.6069307932597
 51
247.4999999999986
  0
LINE
  5
F9
  8
OULINE
 10
85.26345985648473
 20
-103.7679477208522
 30
0.0
 11
85.30496667657422
 21
-103.0678780454656
 31
0.0
  0
ARC
  5
FA
  8
OULINE
 10
85.70117090874099
 20
-103.0913688184006
 30
0.0
 40
0.3968999999999268
 50
112.4999999999931
 51
176.6069307932692
  0
LINE
  5
FB
  8
OULINE
 10
85.54928385443536
 20
-102.7246810319469
 30
0.0
 11
86.27642475635886
 21
-102.423489408614
 31
0.0
  0
ARC
  5
FC
  8
OULINE
 10
86.12453770205317
 20
-102.0568016221603
 30
0.0
 40
0.3968999999999497
 50
292.5000000000006
 51
315.0000000000015
  0
LINE
  5
FD
  8
OULINE
 10
86.40518838350609
 20
-102.3374523036132
 30
0.0
 11
87.13745230361323
 21
-101.6051883835061
 31
0.0
  0
ARC
  5
FE
  8
OULINE
 10
86.8568016221612
 20
-101.3245377020538
 30
0.0
 40
0.3968999999989036
 50
314.9999999999724
 51
337.5000000000367
  0
LINE
  5
FF
  8
OULINE
 10
87.22348940861401
 20
-101.4764247563588
 30
0.0
 11
87.51830010140087
 21
-100.7646887835002
 31
0.0
  0
ARC
  5
100
  8
OULINE
 10
87.88498788785458
 20
-100.916575837806
 30
0.0
 40
0.3969000000000023
 50
90.00000000557175
 51
157.4999999999933
  0
LINE
  5
101
  8
OULINE
 10
87.88498788781598
 20
-100.5196758378059
 30
0.0
 11
88.60308366923738
 21
-100.5196758377361
 31
0.0
  0
ARC
  5
102
  8
OULINE
 10
88.60308366927597
 20
-100.9165758377361
 30
0.0
 40
0.3969000000000008
 50
359.9984950201382
 51
90.00000000557175
  0
LINE
  5
103
  8
OULINE
 10
88.99998366913906
 20
-100.9165862630504
 30
0.0
 11
88.99995235246313
 21
-102.1088370081766
 31
0.0
  0
ARC
  5
104
  8
OULINE
 10
89.3968523523261
 20
-102.1088474334909
 30
0.0
 40
0.3968999999999173
 50
179.9984950201423
 51
202.4986978527929
  0
LINE
  5
105
  8
OULINE
 10
89.03016111406711
 20
-102.2607261541334
 30
0.0
 11
90.6442981232849
 21
-106.1578481217519
 31
0.0
  0
ARC
  5
106
  8
OULINE
 10
91.01098936154389
 20
-106.0059694011094
 30
0.0
 40
0.3968999999998832
 50
202.4986978527816
 51
224.9986978527861
  0
LINE
  5
107
  8
OULINE
 10
90.73033230188389
 20
-106.2866137042102
 30
0.0
 11
93.71296497469176
 21
-109.2693819512305
 31
0.0
  0
ARC
  5
108
  8
OULINE
 10
93.99362203435177
 20
-108.9887376481297
 30
0.0
 40
0.3968999999998894
 50
224.9986978527833
 51
247.4986978527895
  0
LINE
  5
109
  8
OULINE
 10
93.84172664646142
 20
-109.3554219825886
 30
0.0
 11
97.7387759165874
 21
-110.9697364075208
 31
0.0
  0
ARC
  5
10A
  8
OULINE
 10
97.89067130447779
 20
-110.6030520730619
 30
0.0
 40
0.3968999999999714
 50
247.4986978527877
 51
269.9986978527917
  0
LINE
  5
10B
  8
OULINE
 10
97.89066228422828
 20
-110.9999520729594
 30
0.0
 11
102.1088377271352
 21
-111.0000479384043
 31
0.0
  0
ARC
  5
10C
  8
OULINE
 10
102.1088467473848
 20
-110.6031479385069
 30
0.0
 40
0.3968999999999119
 50
269.9986978527814
 51
292.498697852791
  0
LINE
  5
10D
  8
OULINE
 10
102.2607254680273
 20
-110.9698391767659
 30
0.0
 11
106.1578481103883
 21
-109.3557018880786
 31
0.0
  0
ARC
  5
10E
  8
OULINE
 10
106.0059693897458
 20
-108.9890106498196
 30
0.0
 40
0.3968999999999032
 50
292.4986978527808
 51
314.9986978527833
  0
LINE
  5
10F
  8
OULINE
 10
106.2866136928466
 20
-109.2696677094796
 30
0.0
 11
109.2693819398668
 21
-106.2870350366717
 31
0.0
  0
ARC
  5
110
  8
OULINE
 10
108.988737636766
 20
-106.0063779770117
 30
0.0
 40
0.3968999999999452
 50
314.9986978527789
 51
337.4986978527862
  0
LINE
  5
111
  8
OULINE
 10
109.355421971225
 20
-106.158273364902
 30
0.0
 11
110.9697363961572
 21
-102.2612240947761
 31
0.0
  0
ARC
  5
112
  8
OULINE
 10
110.6030520616982
 20
-102.1093287068857
 30
0.0
 40
0.3969000000000283
 50
337.4986978527909
 51
359.9986978527855
  0
ARC
  5
113
  8
OULINE
 10
60079.73421273897
 20
-103.4722325322731
 30
0.0
 40
59968.73427616447
 50
179.9975424258496
 51
179.9986978527861
  0
ARC
  5
114
  8
OULINE
 10
111.3968917390476
 20
-100.9000249996058
 30
0.0
 40
0.3969000000000172
 50
89.99999998659375
 51
179.9975422348057
  0
LINE
  5
115
  8
OULINE
 10
111.3968917391405
 20
-100.5031249996058
 30
0.0
 11
115.3631
 21
-100.503125
 31
0.0
  0
ARC
  5
116
  8
OULINE
 10
115.3631124996456
 20
-100.9000125000003
 30
0.0
 40
0.3968875001971226
 50
269.9981955134293
 51
90.00180448347702
  0
ARC
  5
117
  8
OULINE
 10
112.8240029066801
 20
-129041.5355349015
 30
0.0
 40
128940.2386599015
 50
89.998871728882
 51
90.00000000129161
  0
ARC
  5
118
  8
OULINE
 10
112.8240000000001
 20
-101.7500000000001
 30
0.0
 40
0.4531250000000853
 50
90.00000000136205
 51
179.999999999991
  0
LINE
  5
119
  8
OULINE
 10
112.370875
 20
-101.75
 30
0.0
 11
112.370875
 21
-111.675
 31
0.0
  0
ARC
  5
11A
  8
OULINE
 10
112.824
 20
-111.675
 30
0.0
 40
0.4531249999999574
 50
179.9999999999946
 51
270.0000000000054
  0
LINE
  5
11B
  8
OULINE
 10
112.824
 20
-112.128125
 30
0.0
 11
120.7
 21
-112.128125
 31
0.0
  0
ARC
  5
11C
  8
OULINE
 10
120.7000000000001
 20
-111.675
 30
0.0
 40
0.4531249999999716
 50
269.9999999999928
 51
0.0000000000035938
  0
LINE
  5
11D
  8
OULINE
 10
121.1531250000001
 20
-111.675
 30
0.0
 11
121.153125
 21
-101.7499999999999
 31
0.0
  0
ARC
  5
11E
  8
OULINE
 10
120.7
 20
-101.75
 30
0.0
 40
0.4531250000000284
 50
0.0000000000071876
 51
89.9999999999946
  0
LINE
  5
11F
  8
OULINE
 10
120.7
 20
-101.296875
 30
0.0
 11
118.9369
 21
-101.296875
 31
0.0
  0
ARC
  5
120
  8
OULINE
 10
118.9368875003544
 20
-100.8999875000004
 30
0.0
 40
0.3968875001963978
 50
89.99819551454942
 51
270.001804483475
  0
ARC
  5
121
  8
OULINE
 10
121.3500000433996
 20
116360.5346868271
 30
0.0
 40
116461.0378118271
 50
269.9988128179979
 51
269.9999999999786
  0
LINE
  5
122
  8
OULINE
 10
121.3499999999071
 20
-100.5031250000029
 30
0.0
 11
122.199975
 21
-100.503125
 31
0.0
  0
ARC
  5
123
  8
OULINE
 10
122.199975
 20
-100.900025
 30
0.0
 40
0.3969000000000023
 50
359.999999999998
 51
90.00000000000203
  0
LINE
  5
124
  8
OULINE
 10
122.596875
 20
-100.900025
 30
0.0
 11
122.596875
 21
-101.3249999999999
 31
0.0
  0
ARC
  5
125
  8
OULINE
 10
123.0999999999999
 20
-101.3250000000001
 30
0.0
 40
0.5031249999998693
 50
179.9999999999822
 51
270.0000000000211
  0
LINE
  5
126
  8
OULINE
 10
123.1000000000001
 20
-101.828125
 30
0.0
 11
126.0692416050471
 21
-101.828125
 31
0.0
  0
ARC
  5
127
  8
OULINE
 10
126.0692416050471
 20
-102.075
 30
0.0
 40
0.2468750000000313
 50
0.0000000000032981
 51
89.9999999999901
  0
LINE
  5
128
  8
OULINE
 10
126.3161166050471
 20
-102.075
 30
0.0
 11
126.3161166050471
 21
-103.2747781336059
 31
0.0
  0
ARC
  5
129
  8
OULINE
 10
129.0750197387752
 20
-103.2747781335987
 30
0.0
 40
2.758903133728097
 50
180.0000000001499
 51
0.0000000003482478
  0
LINE
  5
12A
  8
OULINE
 10
131.8339228725033
 20
-103.2747781335819
 30
0.0
 11
131.8339228725033
 21
-93.27507813359942
 31
0.0
  0
ARC
  5
12B
  8
OULINE
 10
129.0750197387752
 20
-93.2750781335987
 30
0.0
 40
2.758903133728069
 50
359.9999999999849
 51
180.00000000018
  0
LINE
  5
12C
  8
OULINE
 10
126.3161166050471
 20
-93.27507813360737
 30
0.0
 11
126.3161166050471
 21
-95.0
 31
0.0
  0
ARC
  5
12D
  8
OULINE
 10
126.069241605047
 20
-94.99999999999993
 30
0.0
 40
0.2468750000000739
 50
270.0000000000198
 51
359.9999999999835
  0
LINE
  5
12E
  8
OULINE
 10
126.0692416050471
 20
-95.246875
 30
0.0
 11
123.0999999999999
 21
-95.24687499999999
 31
0.0
  0
ARC
  5
12F
  8
OULINE
 10
123.1000000000001
 20
-95.75000000000013
 30
0.0
 40
0.5031250000001393
 50
90.00000000002105
 51
179.9999999999822
  0
LINE
  5
130
  8
OULINE
 10
122.596875
 20
-95.74999999999997
 30
0.0
 11
122.596875
 21
-96.5131
 31
0.0
  0
ARC
  5
131
  8
OULINE
 10
122.199975
 20
-96.51309999999998
 30
0.0
 40
0.3969000000000023
 50
270.0
 51
359.999999999998
  0
ARC
  5
132
  8
OULINE
 10
122.2000000007874
 20
-96.51310000000957
 30
0.0
 40
0.3969000007778257
 50
180.0000000028905
 51
269.9963909307089
  0
ARC
  5
133
  8
OULINE
 10
-138820.0760167399
 20
-93.87736588343978
 30
0.0
 40
138941.87914174
 50
359.9989130963123
 51
0.0000000026825126
  0
ARC
  5
134
  8
OULINE
 10
122.0999999999578
 20
-93.87735937835456
 30
0.0
 40
0.2968749999403701
 50
134.9817471240483
 51
180.0000000019829
  0
LINE
  5
135
  8
OULINE
 10
121.890144560526
 20
-93.6673701878459
 30
0.0
 11
122.4203056707761
 21
-93.13754675983165
 31
0.0
  0
ARC
  5
136
  8
OULINE
 10
122.1000000000004
 20
-92.81703694267532
 30
0.0
 40
0.4531249999996402
 50
314.9817471240373
 51
0.0000000000197659
  0
LINE
  5
137
  8
OULINE
 10
122.5531250000001
 20
-92.81703694267516
 30
0.0
 11
122.5531250000191
 21
-89.70312499999997
 31
0.0
  0
ARC
  5
138
  8
OULINE
 10
122.1000000000191
 20
-89.70312500000006
 30
0.0
 40
0.4531250000000426
 50
0.0000000000107814
 51
89.99999999999281
  0
LINE
  5
139
  8
OULINE
 10
122.1000000000192
 20
-89.25000000000001
 30
0.0
 11
112.3000000000192
 21
-89.24999999999999
 31
0.0
  0
ARC
  5
13A
  8
OULINE
 10
112.3000000000192
 20
-89.70312500000003
 30
0.0
 40
0.4531250000000426
 50
90.0000000000054
 51
179.9999999999928
  0
LINE
  5
13B
  8
OULINE
 10
111.8468750000192
 20
-89.70312499999997
 30
0.0
 11
111.8468749999999
 21
-92.81703694267517
 31
0.0
  0
ARC
  5
13C
  8
OULINE
 10
112.2999999999999
 20
-92.81703694267517
 30
0.0
 40
0.4531249999999574
 50
180.0
 51
225.0182528759449
  0
LINE
  5
13D
  8
OULINE
 10
111.9796943292238
 20
-93.13754675983164
 30
0.0
 11
112.4805362595443
 21
-93.63806968255318
 31
0.0
  0
ARC
  5
13E
  8
OULINE
 10
112.1999750000001
 20
-93.91880975743182
 30
0.0
 40
0.3968999999998819
 50
359.9999999999959
 51
45.01825287594895
  0
LINE
  5
13F
  8
OULINE
 10
112.596875
 20
-93.91880975743184
 30
0.0
 11
112.596875
 21
-98.21309999999997
 31
0.0
  0
ARC
  5
140
  8
OULINE
 10
112.1999750000001
 20
-98.21310000000005
 30
0.0
 40
0.3968999999999454
 50
269.9999999999918
 51
0.0000000000123087
  0
LINE
  5
141
  8
OULINE
 10
112.199975
 20
-98.61
 30
0.0
 11
111.3969406105432
 21
-98.61
 31
0.0
  0
ARC
  5
142
  8
OULINE
 10
111.3969406105432
 20
-98.21309999999994
 30
0.0
 40
0.3969000000000591
 50
179.9986978527917
 51
270.000000000002
  0
ENDSEC
  0
EOF
