%
M48
M72
T01C0.01600
T02C0.06350
%
T01
X31600Y21500
X27700Y28100
X23800Y28100
X31800Y32400
X31800Y36300
X38100Y43600
X45200Y43500
X58900Y43500
X65600Y43500
X54100Y26200
X82100Y17700
X82100Y14700
X82100Y11700
X82100Y8700
X82100Y5700
X89100Y5700
X89100Y8700
X89100Y11700
X89100Y14700
X89100Y17700
X105600Y12900
X112300Y12900
X126000Y12900
X133100Y12800
X139400Y20100
X139400Y24000
X143500Y28300
X147400Y28300
X139600Y34900
X158400Y25400
X161200Y28400
X165100Y28400
X117100Y30200
X103100Y52700
X100100Y52700
X97100Y52700
X94100Y52700
X91100Y52700
X91100Y59700
X94100Y59700
X97100Y59700
X100100Y59700
X103100Y59700
X105600Y68900
X112300Y68900
X126000Y68900
X133100Y68800
X139400Y76100
X139400Y80000
X143500Y84300
X147400Y84300
X139600Y90900
X158400Y81400
X161200Y84400
X165100Y84400
X117100Y86200
X89100Y94700
X89100Y97700
X89100Y100700
X89100Y103700
X89100Y106700
X82100Y106700
X82100Y103700
X82100Y100700
X82100Y97700
X82100Y94700
X65600Y99500
X58900Y99500
X45200Y99500
X38100Y99600
X31800Y92300
X31800Y88400
X27700Y84100
X23800Y84100
X31600Y77500
X12800Y87000
X10000Y84000
X6100Y84000
X54100Y82200
X12800Y31000
X10000Y28000
X6100Y28000
T02
X25300Y9000
X77100Y28000
X94100Y28400
X145900Y9400
X145900Y47400
X145900Y65400
X94100Y84400
X77100Y84000
X25300Y65000
X25300Y47000
X25300Y103000
X145900Y103400
M30
