G75*
%MOIN*%
%OFA0B0*%
%FSLAX25Y25*%
%IPPOS*%
%LPD*%
%AMOC8*
5,1,8,0,0,1.08239X$1,22.5*
%
%ADD10R,0.02244X0.01339*%
%ADD11R,0.01339X0.02244*%
%ADD12R,0.06902X0.03162*%
%ADD13R,0.07887X0.05524*%
%ADD14R,0.04934X0.02769*%
%ADD15C,0.01421*%
%ADD16R,0.05131X0.04737*%
%ADD17C,0.03975*%
D10*
X0152447Y0045341D03*
X0152447Y0047703D03*
X0152447Y0050065D03*
X0159494Y0050065D03*
X0159494Y0047703D03*
X0159494Y0045341D03*
D11*
X0157152Y0044179D03*
X0154789Y0044179D03*
X0154789Y0051226D03*
X0157152Y0051226D03*
D12*
X0041010Y0049671D03*
X0041010Y0053608D03*
X0041010Y0057545D03*
X0041010Y0061482D03*
X0020931Y0061482D03*
X0020931Y0057545D03*
X0020931Y0053608D03*
X0020931Y0049671D03*
X0020931Y0045734D03*
X0020931Y0041797D03*
X0020931Y0037860D03*
X0020931Y0033923D03*
X0041010Y0033923D03*
X0041010Y0037860D03*
X0041010Y0041797D03*
X0041010Y0045734D03*
D13*
X0031069Y0028805D03*
X0010990Y0028805D03*
X0010990Y0066600D03*
X0031069Y0066600D03*
D14*
X0047703Y0065419D03*
X0047703Y0069159D03*
X0056364Y0069159D03*
X0056364Y0065419D03*
X0056364Y0061679D03*
X0047703Y0061679D03*
D15*
X0050632Y0039125D02*
X0050632Y0035809D01*
X0047316Y0035809D01*
X0047316Y0039125D01*
X0050632Y0039125D01*
X0050632Y0037229D02*
X0047316Y0037229D01*
X0047316Y0038649D02*
X0050632Y0038649D01*
X0057538Y0039125D02*
X0057538Y0035809D01*
X0054222Y0035809D01*
X0054222Y0039125D01*
X0057538Y0039125D01*
X0057538Y0037229D02*
X0054222Y0037229D01*
X0054222Y0038649D02*
X0057538Y0038649D01*
D16*
X0055774Y0032348D03*
X0049081Y0032348D03*
D17*
X0023293Y0028018D03*
X0041010Y0029199D03*
X0046522Y0041797D03*
X0054002Y0041797D03*
X0055970Y0053608D03*
X0046522Y0053608D03*
X0050852Y0059120D03*
X0052821Y0066207D03*
X0059907Y0068569D03*
X0035498Y0061482D03*
X0029199Y0063844D03*
X0023687Y0066994D03*
X0026443Y0041797D03*
X0148884Y0045341D03*
X0148884Y0050065D03*
X0163451Y0052821D03*
X0163451Y0044159D03*
X0155970Y0039435D03*
M02*
