G75*
%MOIN*%
%OFA0B0*%
%FSLAX25Y25*%
%IPPOS*%
%LPD*%
%AMOC8*
5,1,8,0,0,1.08239X$1,22.5*
%
%ADD10R,0.03937X0.04331*%
%ADD11C,0.01280*%
%ADD12C,0.03175*%
D10*
X0153215Y0044356D03*
X0158726Y0044356D03*
X0158726Y0051049D03*
X0153215Y0051049D03*
D11*
X0006823Y0070079D02*
X0006823Y0025720D01*
X0061417Y0025720D01*
X0061417Y0042083D01*
X0062378Y0043043D01*
X0141295Y0043043D01*
X0142256Y0042083D01*
X0146807Y0037531D01*
X0148634Y0037531D01*
X0142904Y0043261D01*
X0058050Y0043261D01*
X0058050Y0039755D01*
X0056832Y0038537D01*
X0051320Y0038537D01*
X0043612Y0030828D01*
X0044037Y0029801D01*
X0044037Y0028597D01*
X0043576Y0027484D01*
X0042725Y0026633D01*
X0041612Y0026172D01*
X0040408Y0026172D01*
X0039295Y0026633D01*
X0038444Y0027484D01*
X0037983Y0028597D01*
X0037983Y0029801D01*
X0038444Y0030914D01*
X0038930Y0031400D01*
X0038930Y0032029D01*
X0040148Y0033247D01*
X0045438Y0038537D01*
X0033456Y0038537D01*
X0032237Y0039755D01*
X0032237Y0044085D01*
X0029125Y0047198D01*
X0027907Y0048416D01*
X0027907Y0061103D01*
X0027735Y0061174D01*
X0027735Y0044539D01*
X0028158Y0044364D01*
X0029009Y0043512D01*
X0029470Y0042399D01*
X0029470Y0041195D01*
X0029009Y0040082D01*
X0028158Y0039231D01*
X0027045Y0038770D01*
X0025841Y0038770D01*
X0024728Y0039231D01*
X0023877Y0040082D01*
X0023416Y0041195D01*
X0023416Y0042399D01*
X0023576Y0042786D01*
X0023576Y0066281D01*
X0024794Y0067499D01*
X0026763Y0069467D01*
X0038328Y0069467D01*
X0039546Y0068249D01*
X0039546Y0068249D01*
X0041871Y0065924D01*
X0057828Y0065924D01*
X0057828Y0066367D01*
X0057341Y0066854D01*
X0056880Y0067967D01*
X0056880Y0069171D01*
X0057256Y0070079D01*
X0006823Y0070079D01*
X0006823Y0069947D02*
X0057202Y0069947D01*
X0054396Y0070079D02*
X0054396Y0065924D01*
X0051443Y0065924D02*
X0051443Y0070079D01*
X0048490Y0070079D02*
X0048490Y0065924D01*
X0045537Y0065924D02*
X0045537Y0070079D01*
X0042585Y0070079D02*
X0042585Y0065924D01*
X0040801Y0066994D02*
X0057283Y0066994D01*
X0057348Y0066847D02*
X0057348Y0065924D01*
X0059907Y0063844D02*
X0041010Y0063844D01*
X0037467Y0067388D01*
X0027624Y0067388D01*
X0025656Y0065419D01*
X0025656Y0042585D01*
X0026443Y0041797D01*
X0023737Y0040419D02*
X0006823Y0040419D01*
X0006823Y0043372D02*
X0023576Y0043372D01*
X0027821Y0044503D02*
X0027821Y0061139D01*
X0027735Y0061089D02*
X0027907Y0061089D01*
X0023576Y0061089D02*
X0006823Y0061089D01*
X0006823Y0064041D02*
X0023576Y0064041D01*
X0024289Y0066994D02*
X0006823Y0066994D01*
X0007152Y0070079D02*
X0007152Y0025720D01*
X0010104Y0025720D02*
X0010104Y0070079D01*
X0013057Y0070079D02*
X0013057Y0025720D01*
X0016010Y0025720D02*
X0016010Y0070079D01*
X0018963Y0070079D02*
X0018963Y0025720D01*
X0021915Y0025720D02*
X0021915Y0070079D01*
X0024868Y0070079D02*
X0024868Y0067573D01*
X0027821Y0069467D02*
X0027821Y0070079D01*
X0030774Y0070079D02*
X0030774Y0069467D01*
X0033726Y0069467D02*
X0033726Y0070079D01*
X0036679Y0070079D02*
X0036679Y0069467D01*
X0039632Y0070079D02*
X0039632Y0068163D01*
X0036679Y0065026D02*
X0034317Y0065026D01*
X0032348Y0063057D01*
X0032348Y0050459D01*
X0037073Y0045734D01*
X0047309Y0045734D01*
X0050065Y0042978D01*
X0050065Y0040222D01*
X0041010Y0031167D01*
X0041010Y0029199D01*
X0044037Y0028608D02*
X0061417Y0028608D01*
X0060301Y0025720D02*
X0060301Y0043261D01*
X0063254Y0043261D02*
X0063254Y0043043D01*
X0066207Y0043043D02*
X0066207Y0043261D01*
X0069159Y0043261D02*
X0069159Y0043043D01*
X0072112Y0043043D02*
X0072112Y0043261D01*
X0075065Y0043261D02*
X0075065Y0043043D01*
X0078018Y0043043D02*
X0078018Y0043261D01*
X0080970Y0043261D02*
X0080970Y0043043D01*
X0083923Y0043043D02*
X0083923Y0043261D01*
X0086876Y0043261D02*
X0086876Y0043043D01*
X0089829Y0043043D02*
X0089829Y0043261D01*
X0092781Y0043261D02*
X0092781Y0043043D01*
X0095734Y0043043D02*
X0095734Y0043261D01*
X0098687Y0043261D02*
X0098687Y0043043D01*
X0101640Y0043043D02*
X0101640Y0043261D01*
X0104593Y0043261D02*
X0104593Y0043043D01*
X0107545Y0043043D02*
X0107545Y0043261D01*
X0110498Y0043261D02*
X0110498Y0043043D01*
X0113451Y0043043D02*
X0113451Y0043261D01*
X0116404Y0043261D02*
X0116404Y0043043D01*
X0119356Y0043043D02*
X0119356Y0043261D01*
X0122309Y0043261D02*
X0122309Y0043043D01*
X0125262Y0043043D02*
X0125262Y0043261D01*
X0128215Y0043261D02*
X0128215Y0043043D01*
X0131167Y0043043D02*
X0131167Y0043261D01*
X0134120Y0043261D02*
X0134120Y0043043D01*
X0137073Y0043043D02*
X0137073Y0043261D01*
X0140026Y0043261D02*
X0140026Y0043043D01*
X0142978Y0043187D02*
X0142978Y0041360D01*
X0143919Y0040419D02*
X0145746Y0040419D01*
X0145931Y0040234D02*
X0145931Y0038408D01*
X0149671Y0039435D02*
X0143766Y0045341D01*
X0054789Y0045341D01*
X0046522Y0053608D01*
X0049549Y0053522D02*
X0049549Y0054210D01*
X0049088Y0055323D01*
X0048236Y0056175D01*
X0047124Y0056635D01*
X0045920Y0056635D01*
X0044807Y0056175D01*
X0043955Y0055323D01*
X0043494Y0054210D01*
X0043494Y0053006D01*
X0043955Y0051894D01*
X0044807Y0051042D01*
X0045920Y0050581D01*
X0046608Y0050581D01*
X0053928Y0043261D01*
X0055970Y0043261D01*
X0055970Y0040616D01*
X0052144Y0040616D01*
X0052144Y0043840D01*
X0050926Y0045058D01*
X0049389Y0046596D01*
X0048170Y0047814D01*
X0037934Y0047814D01*
X0034428Y0051320D01*
X0034428Y0062196D01*
X0035178Y0062946D01*
X0035818Y0062946D01*
X0039361Y0059403D01*
X0047629Y0059403D01*
X0047825Y0059206D01*
X0047825Y0058518D01*
X0048286Y0057405D01*
X0049138Y0056554D01*
X0050250Y0056093D01*
X0051455Y0056093D01*
X0052567Y0056554D01*
X0053419Y0057405D01*
X0053880Y0058518D01*
X0053880Y0059722D01*
X0053419Y0060835D01*
X0052567Y0061686D01*
X0052377Y0061765D01*
X0055970Y0061765D01*
X0055970Y0056635D01*
X0055368Y0056635D01*
X0054256Y0056175D01*
X0053404Y0055323D01*
X0052943Y0054210D01*
X0052943Y0053006D01*
X0053404Y0051894D01*
X0054256Y0051042D01*
X0055368Y0050581D01*
X0055970Y0050581D01*
X0055970Y0047420D01*
X0055651Y0047420D01*
X0049549Y0053522D01*
X0050065Y0053608D02*
X0050065Y0054789D01*
X0047703Y0057152D01*
X0043766Y0057152D01*
X0042978Y0056364D01*
X0042978Y0049671D01*
X0046915Y0049671D01*
X0054002Y0042585D01*
X0054002Y0041797D01*
X0054396Y0040616D02*
X0054396Y0043261D01*
X0053817Y0043372D02*
X0052144Y0043372D01*
X0051443Y0044541D02*
X0051443Y0045746D01*
X0050864Y0046325D02*
X0049659Y0046325D01*
X0049389Y0046596D02*
X0049389Y0046596D01*
X0048490Y0047494D02*
X0048490Y0048699D01*
X0047911Y0049278D02*
X0036470Y0049278D01*
X0036679Y0049069D02*
X0036679Y0062085D01*
X0035498Y0061482D02*
X0034711Y0060695D01*
X0034428Y0061089D02*
X0037675Y0061089D01*
X0035498Y0061482D02*
X0039829Y0057152D01*
X0043766Y0057152D01*
X0045537Y0056477D02*
X0045537Y0059403D01*
X0042585Y0059403D02*
X0042585Y0047814D01*
X0045537Y0047814D02*
X0045537Y0050739D01*
X0043816Y0052230D02*
X0034428Y0052230D01*
X0029986Y0049278D02*
X0029986Y0064238D01*
X0029199Y0063844D01*
X0036679Y0065026D02*
X0040222Y0061482D01*
X0048490Y0061482D01*
X0050852Y0059120D01*
X0047983Y0058136D02*
X0034428Y0058136D01*
X0034428Y0055183D02*
X0043897Y0055183D01*
X0048490Y0055921D02*
X0048490Y0057201D01*
X0049146Y0055183D02*
X0053346Y0055183D01*
X0054396Y0056233D02*
X0054396Y0061765D01*
X0053165Y0061089D02*
X0055970Y0061089D01*
X0059907Y0063844D02*
X0059907Y0068569D01*
X0039632Y0059403D02*
X0039632Y0047814D01*
X0032237Y0043372D02*
X0029067Y0043372D01*
X0030774Y0045549D02*
X0030774Y0025720D01*
X0033726Y0025720D02*
X0033726Y0038537D01*
X0036679Y0038537D02*
X0036679Y0025720D01*
X0039632Y0025720D02*
X0039632Y0026493D01*
X0037983Y0028608D02*
X0006823Y0028608D01*
X0006823Y0031561D02*
X0038930Y0031561D01*
X0039632Y0032730D02*
X0039632Y0038537D01*
X0042585Y0038537D02*
X0042585Y0035683D01*
X0041415Y0034514D02*
X0006823Y0034514D01*
X0006823Y0037467D02*
X0044368Y0037467D01*
X0048490Y0035707D02*
X0048490Y0025720D01*
X0045537Y0025720D02*
X0045537Y0032754D01*
X0044344Y0031561D02*
X0061417Y0031561D01*
X0061417Y0034514D02*
X0047297Y0034514D01*
X0050250Y0037467D02*
X0061417Y0037467D01*
X0057348Y0039053D02*
X0057348Y0025720D01*
X0054396Y0025720D02*
X0054396Y0038537D01*
X0051443Y0038537D02*
X0051443Y0025720D01*
X0042585Y0025720D02*
X0042585Y0026575D01*
X0027821Y0025720D02*
X0027821Y0039091D01*
X0024868Y0039173D02*
X0024868Y0025720D01*
X0029149Y0040419D02*
X0032237Y0040419D01*
X0037467Y0041797D02*
X0029986Y0049278D01*
X0027907Y0049278D02*
X0027735Y0049278D01*
X0023576Y0049278D02*
X0006823Y0049278D01*
X0006823Y0052230D02*
X0023576Y0052230D01*
X0027735Y0052230D02*
X0027907Y0052230D01*
X0027907Y0055183D02*
X0027735Y0055183D01*
X0023576Y0055183D02*
X0006823Y0055183D01*
X0006823Y0058136D02*
X0023576Y0058136D01*
X0027735Y0058136D02*
X0027907Y0058136D01*
X0027735Y0046325D02*
X0029998Y0046325D01*
X0023576Y0046325D02*
X0006823Y0046325D01*
X0037467Y0041797D02*
X0046522Y0041797D01*
X0058050Y0040419D02*
X0061417Y0040419D01*
X0055970Y0047703D02*
X0050065Y0053608D01*
X0050840Y0052230D02*
X0053265Y0052230D01*
X0054396Y0050984D02*
X0054396Y0048675D01*
X0053793Y0049278D02*
X0055970Y0049278D01*
X0055970Y0047703D02*
X0145734Y0047703D01*
X0148096Y0045341D01*
X0148884Y0045341D01*
X0149868Y0044356D01*
X0153215Y0044356D01*
X0158726Y0044356D01*
X0162135Y0043372D02*
X0165354Y0043372D01*
X0163451Y0044159D02*
X0163451Y0048096D01*
X0160695Y0050852D01*
X0158923Y0050852D01*
X0158726Y0051049D01*
X0153215Y0051049D01*
X0152230Y0050065D01*
X0148884Y0050065D01*
X0150606Y0050705D02*
X0150606Y0048757D01*
X0150704Y0048521D01*
X0150884Y0048341D01*
X0151119Y0048244D01*
X0152870Y0048244D01*
X0152870Y0050705D01*
X0150606Y0050705D01*
X0150606Y0051394D02*
X0152870Y0051394D01*
X0152870Y0050705D01*
X0153559Y0050705D01*
X0153559Y0051394D01*
X0155823Y0051394D01*
X0155823Y0053104D01*
X0156118Y0053104D01*
X0156118Y0051394D01*
X0158382Y0051394D01*
X0158382Y0050705D01*
X0156118Y0050705D01*
X0156118Y0048757D01*
X0156216Y0048521D01*
X0156395Y0048341D01*
X0156631Y0048244D01*
X0158382Y0048244D01*
X0158382Y0050705D01*
X0159071Y0050705D01*
X0161286Y0050705D01*
X0160884Y0051106D01*
X0160765Y0051394D01*
X0159071Y0051394D01*
X0159071Y0050705D01*
X0159071Y0048244D01*
X0160822Y0048244D01*
X0161057Y0048341D01*
X0161237Y0048521D01*
X0161335Y0048757D01*
X0161335Y0050656D01*
X0161736Y0050255D01*
X0162849Y0049794D01*
X0164053Y0049794D01*
X0165166Y0050255D01*
X0165354Y0050443D01*
X0165354Y0041689D01*
X0161197Y0037531D01*
X0158348Y0037531D01*
X0158537Y0037720D01*
X0158998Y0038833D01*
X0158998Y0040037D01*
X0158702Y0040751D01*
X0161291Y0040751D01*
X0162135Y0041595D01*
X0162135Y0047118D01*
X0161291Y0047961D01*
X0156161Y0047961D01*
X0155970Y0047770D01*
X0155779Y0047961D01*
X0150650Y0047961D01*
X0150596Y0047908D01*
X0149486Y0048368D01*
X0148282Y0048368D01*
X0148090Y0048288D01*
X0147814Y0048564D01*
X0146596Y0049782D01*
X0145941Y0049782D01*
X0149007Y0053104D01*
X0150606Y0053104D01*
X0150606Y0051394D01*
X0150606Y0052230D02*
X0148201Y0052230D01*
X0148884Y0052970D02*
X0148884Y0048368D01*
X0150606Y0049278D02*
X0147100Y0049278D01*
X0143372Y0050065D02*
X0059514Y0050065D01*
X0055970Y0053608D01*
X0051443Y0051628D02*
X0051443Y0056093D01*
X0053721Y0058136D02*
X0055970Y0058136D01*
X0143372Y0050065D02*
X0148096Y0055183D01*
X0161089Y0055183D01*
X0163451Y0052821D01*
X0160695Y0051394D02*
X0160695Y0050705D01*
X0161335Y0049278D02*
X0165354Y0049278D01*
X0163648Y0049794D02*
X0163648Y0039982D01*
X0164085Y0040419D02*
X0158839Y0040419D01*
X0160695Y0040751D02*
X0160695Y0037531D01*
X0155970Y0039435D02*
X0149671Y0039435D01*
X0162135Y0046325D02*
X0165354Y0046325D01*
X0160695Y0047961D02*
X0160695Y0048244D01*
X0159071Y0049278D02*
X0158382Y0049278D01*
X0157742Y0048244D02*
X0157742Y0047961D01*
X0155823Y0048757D02*
X0155823Y0050705D01*
X0153559Y0050705D01*
X0153559Y0048244D01*
X0155310Y0048244D01*
X0155545Y0048341D01*
X0155725Y0048521D01*
X0155823Y0048757D01*
X0155823Y0049278D02*
X0156118Y0049278D01*
X0154789Y0048244D02*
X0154789Y0047961D01*
X0153559Y0049278D02*
X0152870Y0049278D01*
X0152624Y0050459D02*
X0153215Y0051049D01*
X0152624Y0051640D01*
X0151837Y0051394D02*
X0151837Y0050705D01*
X0154789Y0050705D02*
X0154789Y0051394D01*
X0155823Y0052230D02*
X0156118Y0052230D01*
X0157742Y0051394D02*
X0157742Y0050705D01*
X0151837Y0048244D02*
X0151837Y0047961D01*
D12*
X0148884Y0050065D03*
X0148884Y0045341D03*
X0155970Y0039435D03*
X0163451Y0044159D03*
X0163451Y0052821D03*
X0059907Y0068569D03*
X0052821Y0066207D03*
X0050852Y0059120D03*
X0046522Y0053608D03*
X0055970Y0053608D03*
X0035498Y0061482D03*
X0029199Y0063844D03*
X0023687Y0066994D03*
X0026443Y0041797D03*
X0046522Y0041797D03*
X0054002Y0041797D03*
X0041010Y0029199D03*
X0023293Y0028018D03*
M02*
