G75*
%MOIN*%
%OFA0B0*%
%FSLAX25Y25*%
%IPPOS*%
%LPD*%
%AMOC8*
5,1,8,0,0,1.08239X$1,22.5*
%
%ADD10R,0.01260X0.02165*%
%ADD11R,0.02165X0.01260*%
%ADD12R,0.06102X0.02362*%
%ADD13R,0.07087X0.04724*%
%ADD14R,0.04134X0.01969*%
%ADD15C,0.01181*%
%ADD16R,0.04331X0.03937*%
%ADD17C,0.01280*%
%ADD18C,0.03175*%
D10*
X0154789Y0044159D03*
X0157152Y0044159D03*
X0157152Y0051246D03*
X0154789Y0051246D03*
D11*
X0152427Y0050065D03*
X0152427Y0047703D03*
X0152427Y0045341D03*
X0159514Y0045341D03*
X0159514Y0047703D03*
X0159514Y0050065D03*
D12*
X0041010Y0049671D03*
X0041010Y0053608D03*
X0041010Y0057545D03*
X0041010Y0061482D03*
X0020931Y0061482D03*
X0020931Y0057545D03*
X0020931Y0053608D03*
X0020931Y0049671D03*
X0020931Y0045734D03*
X0020931Y0041797D03*
X0020931Y0037860D03*
X0020931Y0033923D03*
X0041010Y0033923D03*
X0041010Y0037860D03*
X0041010Y0041797D03*
X0041010Y0045734D03*
D13*
X0031069Y0028805D03*
X0010990Y0028805D03*
X0010990Y0066600D03*
X0031069Y0066600D03*
D14*
X0047703Y0065419D03*
X0047703Y0069159D03*
X0056364Y0069159D03*
X0056364Y0065419D03*
X0056364Y0061679D03*
X0047703Y0061679D03*
D15*
X0050352Y0038845D02*
X0050352Y0036089D01*
X0047596Y0036089D01*
X0047596Y0038845D01*
X0050352Y0038845D01*
X0050352Y0037269D02*
X0047596Y0037269D01*
X0047596Y0038449D02*
X0050352Y0038449D01*
X0057258Y0038845D02*
X0057258Y0036089D01*
X0054502Y0036089D01*
X0054502Y0038845D01*
X0057258Y0038845D01*
X0057258Y0037269D02*
X0054502Y0037269D01*
X0054502Y0038449D02*
X0057258Y0038449D01*
D16*
X0055774Y0032348D03*
X0049081Y0032348D03*
D17*
X0015973Y0025847D02*
X0015847Y0025720D01*
X0026212Y0025720D01*
X0026086Y0025847D01*
X0026086Y0031764D01*
X0026929Y0032607D01*
X0035209Y0032607D01*
X0036052Y0031764D01*
X0036052Y0025847D01*
X0035926Y0025720D01*
X0061417Y0025720D01*
X0061417Y0042083D01*
X0062378Y0043043D01*
X0141295Y0043043D01*
X0142256Y0042083D01*
X0146807Y0037531D01*
X0153593Y0037531D01*
X0153404Y0037720D01*
X0152943Y0038833D01*
X0152943Y0040037D01*
X0153404Y0041150D01*
X0153891Y0041637D01*
X0153563Y0041637D01*
X0153120Y0042080D01*
X0152747Y0042080D01*
X0151566Y0043261D01*
X0151085Y0043261D01*
X0150599Y0042774D01*
X0149486Y0042313D01*
X0148282Y0042313D01*
X0147169Y0042774D01*
X0146318Y0043626D01*
X0145857Y0044738D01*
X0145857Y0045943D01*
X0146318Y0047055D01*
X0147169Y0047907D01*
X0148282Y0048368D01*
X0149486Y0048368D01*
X0150599Y0047907D01*
X0150705Y0047801D01*
X0150705Y0048460D01*
X0150802Y0048695D01*
X0150982Y0048875D01*
X0151003Y0048884D01*
X0150982Y0048893D01*
X0150802Y0049073D01*
X0150705Y0049308D01*
X0150705Y0050065D01*
X0152427Y0050065D01*
X0152427Y0050065D01*
X0150705Y0050065D01*
X0150705Y0050822D01*
X0150802Y0051057D01*
X0150982Y0051237D01*
X0151217Y0051335D01*
X0152427Y0051335D01*
X0152427Y0050065D01*
X0152427Y0050065D01*
X0148884Y0050065D01*
X0144159Y0045341D01*
X0055183Y0045341D01*
X0054470Y0045623D02*
X0053671Y0044824D01*
X0054604Y0044824D01*
X0055717Y0044364D01*
X0056568Y0043512D01*
X0057029Y0042399D01*
X0057029Y0041711D01*
X0057865Y0040875D01*
X0058099Y0040875D01*
X0059288Y0039685D01*
X0059288Y0035248D01*
X0059166Y0035126D01*
X0059379Y0034913D01*
X0059379Y0029784D01*
X0058535Y0028940D01*
X0053012Y0028940D01*
X0052427Y0029525D01*
X0051842Y0028940D01*
X0048613Y0028940D01*
X0046792Y0027119D01*
X0043211Y0027119D01*
X0042725Y0026633D01*
X0041612Y0026172D01*
X0040408Y0026172D01*
X0039295Y0026633D01*
X0038444Y0027484D01*
X0037983Y0028597D01*
X0037983Y0029801D01*
X0038444Y0030914D01*
X0039295Y0031765D01*
X0040109Y0032102D01*
X0037831Y0032102D01*
X0037596Y0032200D01*
X0037416Y0032380D01*
X0037319Y0032615D01*
X0037319Y0033923D01*
X0041010Y0033923D01*
X0041010Y0033923D01*
X0044701Y0033923D01*
X0044701Y0032615D01*
X0044603Y0032380D01*
X0044423Y0032200D01*
X0044188Y0032102D01*
X0041910Y0032102D01*
X0042725Y0031765D01*
X0043211Y0031278D01*
X0045070Y0031278D01*
X0045476Y0031684D01*
X0045476Y0034913D01*
X0045688Y0035126D01*
X0045566Y0035248D01*
X0045566Y0037934D01*
X0044701Y0038799D01*
X0044701Y0037860D01*
X0041010Y0037860D01*
X0041010Y0036039D01*
X0044188Y0036039D01*
X0044423Y0036137D01*
X0044603Y0036317D01*
X0044701Y0036552D01*
X0044701Y0037860D01*
X0041010Y0037860D01*
X0041010Y0037860D01*
X0041010Y0037860D01*
X0041010Y0036039D01*
X0037831Y0036039D01*
X0037596Y0036137D01*
X0037416Y0036317D01*
X0037319Y0036552D01*
X0037319Y0037860D01*
X0041010Y0037860D01*
X0041010Y0037860D01*
X0037319Y0037860D01*
X0037319Y0039169D01*
X0037334Y0039205D01*
X0036519Y0040020D01*
X0036519Y0043575D01*
X0036599Y0043655D01*
X0028866Y0043655D01*
X0029009Y0043512D01*
X0029470Y0042399D01*
X0029470Y0041195D01*
X0029009Y0040082D01*
X0028158Y0039231D01*
X0027045Y0038770D01*
X0025841Y0038770D01*
X0024728Y0039231D01*
X0024681Y0039278D01*
X0024607Y0039205D01*
X0024622Y0039169D01*
X0024622Y0037860D01*
X0020931Y0037860D01*
X0020931Y0037860D01*
X0020931Y0036039D01*
X0017753Y0036039D01*
X0017518Y0036137D01*
X0017338Y0036317D01*
X0017240Y0036552D01*
X0017240Y0037860D01*
X0020931Y0037860D01*
X0020931Y0037860D01*
X0020931Y0036039D01*
X0024110Y0036039D01*
X0024345Y0036137D01*
X0024525Y0036317D01*
X0024622Y0036552D01*
X0024622Y0037860D01*
X0020931Y0037860D01*
X0020931Y0037860D01*
X0017240Y0037860D01*
X0017240Y0039169D01*
X0017255Y0039205D01*
X0016440Y0040020D01*
X0016440Y0043575D01*
X0016631Y0043766D01*
X0016440Y0043957D01*
X0016440Y0047512D01*
X0016631Y0047703D01*
X0016440Y0047894D01*
X0016440Y0051449D01*
X0016631Y0051640D01*
X0016440Y0051831D01*
X0016440Y0055386D01*
X0016631Y0055577D01*
X0016440Y0055768D01*
X0016440Y0059323D01*
X0016631Y0059514D01*
X0016440Y0059705D01*
X0016440Y0063260D01*
X0017284Y0064103D01*
X0024579Y0064103D01*
X0025120Y0063562D01*
X0026166Y0063562D01*
X0026086Y0063642D01*
X0026086Y0069559D01*
X0026606Y0070079D01*
X0015453Y0070079D01*
X0015973Y0069559D01*
X0015973Y0063642D01*
X0015130Y0062798D01*
X0006850Y0062798D01*
X0006823Y0062826D01*
X0006823Y0032579D01*
X0006850Y0032607D01*
X0015130Y0032607D01*
X0015973Y0031764D01*
X0015973Y0025847D01*
X0016010Y0025720D02*
X0016010Y0070079D01*
X0015585Y0069947D02*
X0026474Y0069947D01*
X0024868Y0070079D02*
X0024868Y0063814D01*
X0024640Y0064041D02*
X0026086Y0064041D01*
X0029199Y0063844D02*
X0030380Y0065026D01*
X0039829Y0065026D01*
X0043963Y0069159D01*
X0047703Y0069159D01*
X0051209Y0069947D02*
X0052857Y0069947D01*
X0052857Y0070079D02*
X0052857Y0067579D01*
X0053701Y0066735D01*
X0053742Y0066735D01*
X0053657Y0066531D01*
X0053657Y0065419D01*
X0053657Y0064308D01*
X0053742Y0064103D01*
X0053701Y0064103D01*
X0052857Y0063260D01*
X0052857Y0061396D01*
X0052567Y0061686D01*
X0051455Y0062147D01*
X0051209Y0062147D01*
X0051209Y0063260D01*
X0050920Y0063549D01*
X0051209Y0063839D01*
X0051209Y0067000D01*
X0050920Y0067289D01*
X0051209Y0067579D01*
X0051209Y0070079D01*
X0052857Y0070079D01*
X0051443Y0070079D02*
X0051443Y0062147D01*
X0051209Y0064041D02*
X0053639Y0064041D01*
X0053657Y0065419D02*
X0056364Y0065419D01*
X0056364Y0065419D01*
X0053608Y0065419D01*
X0052821Y0066207D01*
X0052427Y0066600D01*
X0053442Y0066994D02*
X0051209Y0066994D01*
X0053657Y0065419D02*
X0056364Y0065419D01*
X0056364Y0065419D01*
X0059071Y0065419D01*
X0059071Y0064308D01*
X0058986Y0064103D01*
X0059027Y0064103D01*
X0059871Y0063260D01*
X0059871Y0060098D01*
X0059027Y0059255D01*
X0058444Y0059255D01*
X0058444Y0058652D01*
X0057226Y0057434D01*
X0056427Y0056635D01*
X0056573Y0056635D01*
X0057685Y0056175D01*
X0058537Y0055323D01*
X0058998Y0054210D01*
X0058998Y0053006D01*
X0058641Y0052144D01*
X0139755Y0052144D01*
X0139973Y0052362D01*
X0062378Y0052362D01*
X0061417Y0053323D01*
X0061417Y0065918D01*
X0060510Y0065542D01*
X0059305Y0065542D01*
X0059071Y0065639D01*
X0059071Y0065419D01*
X0056364Y0065419D01*
X0057348Y0065419D02*
X0057348Y0065419D01*
X0059089Y0064041D02*
X0061417Y0064041D01*
X0060301Y0065542D02*
X0060301Y0052144D01*
X0058676Y0052230D02*
X0139841Y0052230D01*
X0137073Y0052144D02*
X0137073Y0052362D01*
X0134120Y0052362D02*
X0134120Y0052144D01*
X0131167Y0052144D02*
X0131167Y0052362D01*
X0128215Y0052362D02*
X0128215Y0052144D01*
X0125262Y0052144D02*
X0125262Y0052362D01*
X0122309Y0052362D02*
X0122309Y0052144D01*
X0119356Y0052144D02*
X0119356Y0052362D01*
X0116404Y0052362D02*
X0116404Y0052144D01*
X0113451Y0052144D02*
X0113451Y0052362D01*
X0110498Y0052362D02*
X0110498Y0052144D01*
X0107545Y0052144D02*
X0107545Y0052362D01*
X0104593Y0052362D02*
X0104593Y0052144D01*
X0101640Y0052144D02*
X0101640Y0052362D01*
X0098687Y0052362D02*
X0098687Y0052144D01*
X0095734Y0052144D02*
X0095734Y0052362D01*
X0092781Y0052362D02*
X0092781Y0052144D01*
X0089829Y0052144D02*
X0089829Y0052362D01*
X0086876Y0052362D02*
X0086876Y0052144D01*
X0083923Y0052144D02*
X0083923Y0052362D01*
X0080970Y0052362D02*
X0080970Y0052144D01*
X0078018Y0052144D02*
X0078018Y0052362D01*
X0075065Y0052362D02*
X0075065Y0052144D01*
X0072112Y0052144D02*
X0072112Y0052362D01*
X0069159Y0052362D02*
X0069159Y0052144D01*
X0066207Y0052144D02*
X0066207Y0052362D01*
X0063254Y0052362D02*
X0063254Y0052144D01*
X0061417Y0055183D02*
X0058595Y0055183D01*
X0057348Y0056314D02*
X0057348Y0057557D01*
X0057927Y0058136D02*
X0061417Y0058136D01*
X0056364Y0059514D02*
X0056364Y0061679D01*
X0056364Y0059514D02*
X0052427Y0055577D01*
X0049278Y0055577D01*
X0047309Y0057545D01*
X0041010Y0057545D01*
X0042978Y0057545D01*
X0043372Y0057152D01*
X0041010Y0057545D02*
X0020931Y0057545D01*
X0016440Y0058136D02*
X0006823Y0058136D01*
X0006823Y0055183D02*
X0016440Y0055183D01*
X0020931Y0053608D02*
X0041010Y0053608D01*
X0046522Y0053608D01*
X0050459Y0052427D02*
X0054789Y0052427D01*
X0055970Y0053608D01*
X0050459Y0052427D02*
X0047703Y0049671D01*
X0041010Y0049671D01*
X0020931Y0049671D01*
X0016440Y0049278D02*
X0006823Y0049278D01*
X0006823Y0052230D02*
X0016440Y0052230D01*
X0016440Y0046325D02*
X0006823Y0046325D01*
X0006823Y0043372D02*
X0016440Y0043372D01*
X0020931Y0041797D02*
X0026443Y0041797D01*
X0029149Y0040419D02*
X0036519Y0040419D01*
X0036679Y0039860D02*
X0036679Y0025720D01*
X0039632Y0025720D02*
X0039632Y0026493D01*
X0037983Y0028608D02*
X0036052Y0028608D01*
X0041010Y0029199D02*
X0045931Y0029199D01*
X0049081Y0032348D01*
X0045352Y0031561D02*
X0042929Y0031561D01*
X0042585Y0031823D02*
X0042585Y0032102D01*
X0042585Y0033923D02*
X0042585Y0033923D01*
X0041010Y0033923D02*
X0044701Y0033923D01*
X0044701Y0035232D01*
X0044603Y0035467D01*
X0044423Y0035647D01*
X0044188Y0035744D01*
X0041010Y0035744D01*
X0041010Y0033923D01*
X0041010Y0033923D01*
X0041010Y0033923D01*
X0037319Y0033923D01*
X0037319Y0035232D01*
X0037416Y0035467D01*
X0037596Y0035647D01*
X0037831Y0035744D01*
X0041010Y0035744D01*
X0041010Y0033923D01*
X0041010Y0034514D02*
X0041010Y0034514D01*
X0039632Y0033923D02*
X0039632Y0033923D01*
X0037319Y0034514D02*
X0024622Y0034514D01*
X0024622Y0033923D02*
X0024622Y0035232D01*
X0024525Y0035467D01*
X0024345Y0035647D01*
X0024110Y0035744D01*
X0020931Y0035744D01*
X0017753Y0035744D01*
X0017518Y0035647D01*
X0017338Y0035467D01*
X0017240Y0035232D01*
X0017240Y0033923D01*
X0017240Y0032615D01*
X0017338Y0032380D01*
X0017518Y0032200D01*
X0017753Y0032102D01*
X0020931Y0032102D01*
X0020931Y0033923D01*
X0020931Y0033923D01*
X0017240Y0033923D01*
X0020931Y0033923D01*
X0020931Y0033923D01*
X0020931Y0032102D01*
X0024110Y0032102D01*
X0024345Y0032200D01*
X0024525Y0032380D01*
X0024622Y0032615D01*
X0024622Y0033923D01*
X0020931Y0033923D01*
X0020931Y0033923D01*
X0020931Y0035744D01*
X0020931Y0033923D01*
X0020931Y0033923D01*
X0024622Y0033923D01*
X0021915Y0033923D02*
X0021915Y0033923D01*
X0020931Y0034514D02*
X0020931Y0034514D01*
X0018963Y0033923D02*
X0018963Y0033923D01*
X0017240Y0034514D02*
X0006823Y0034514D01*
X0007152Y0032607D02*
X0007152Y0062798D01*
X0010104Y0062798D02*
X0010104Y0032607D01*
X0013057Y0032607D02*
X0013057Y0062798D01*
X0015973Y0064041D02*
X0017222Y0064041D01*
X0018963Y0064103D02*
X0018963Y0070079D01*
X0021915Y0070079D02*
X0021915Y0064103D01*
X0020931Y0061482D02*
X0026443Y0061482D01*
X0027624Y0060301D01*
X0034317Y0060301D01*
X0035498Y0061482D01*
X0041010Y0061482D01*
X0041404Y0061876D01*
X0042978Y0061876D01*
X0042978Y0062663D01*
X0045734Y0065419D01*
X0047703Y0065419D01*
X0054396Y0065419D02*
X0054396Y0065419D01*
X0058923Y0069159D02*
X0059907Y0068569D01*
X0058923Y0069159D02*
X0056364Y0069159D01*
X0059871Y0061089D02*
X0061417Y0061089D01*
X0050852Y0059120D02*
X0048293Y0061679D01*
X0047703Y0061679D01*
X0026086Y0066994D02*
X0015973Y0066994D01*
X0016440Y0061089D02*
X0006823Y0061089D01*
X0020931Y0045734D02*
X0041010Y0045734D01*
X0047703Y0045734D01*
X0052033Y0050065D01*
X0140616Y0050065D01*
X0147309Y0056758D01*
X0157939Y0056758D01*
X0159514Y0055183D01*
X0159514Y0050065D01*
X0157152Y0051246D02*
X0157152Y0054002D01*
X0156758Y0054396D01*
X0148490Y0054396D01*
X0141797Y0047703D01*
X0053608Y0047703D01*
X0047703Y0041797D01*
X0046522Y0041797D01*
X0046522Y0039919D01*
X0048974Y0037467D01*
X0045566Y0037467D02*
X0044701Y0037467D01*
X0045537Y0037963D02*
X0045537Y0034975D01*
X0045476Y0034514D02*
X0044701Y0034514D01*
X0042585Y0035744D02*
X0042585Y0036039D01*
X0041010Y0037467D02*
X0041010Y0037467D01*
X0039632Y0037860D02*
X0039632Y0037860D01*
X0037319Y0037467D02*
X0024622Y0037467D01*
X0021915Y0037860D02*
X0021915Y0037860D01*
X0020931Y0037467D02*
X0020931Y0037467D01*
X0021915Y0036039D02*
X0021915Y0035744D01*
X0018963Y0035744D02*
X0018963Y0036039D01*
X0017240Y0037467D02*
X0006823Y0037467D01*
X0006823Y0040419D02*
X0016440Y0040419D01*
X0018963Y0037860D02*
X0018963Y0037860D01*
X0024868Y0039173D02*
X0024868Y0025720D01*
X0021915Y0025720D02*
X0021915Y0032102D01*
X0018963Y0032102D02*
X0018963Y0025720D01*
X0015973Y0028608D02*
X0026086Y0028608D01*
X0026086Y0031561D02*
X0015973Y0031561D01*
X0027821Y0032607D02*
X0027821Y0039091D01*
X0029067Y0043372D02*
X0036519Y0043372D01*
X0033726Y0043655D02*
X0033726Y0032607D01*
X0036052Y0031561D02*
X0039091Y0031561D01*
X0039632Y0031905D02*
X0039632Y0032102D01*
X0039632Y0035744D02*
X0039632Y0036039D01*
X0042585Y0037860D02*
X0042585Y0037860D01*
X0041010Y0041797D02*
X0046522Y0041797D01*
X0054002Y0041797D02*
X0055880Y0039919D01*
X0055880Y0037467D01*
X0055880Y0032455D01*
X0055774Y0032348D01*
X0059379Y0031561D02*
X0061417Y0031561D01*
X0061417Y0034514D02*
X0059379Y0034514D01*
X0059288Y0037467D02*
X0061417Y0037467D01*
X0061417Y0040419D02*
X0058554Y0040419D01*
X0057348Y0041392D02*
X0057348Y0045623D01*
X0054470Y0045623D02*
X0142659Y0045623D01*
X0143877Y0046841D01*
X0143877Y0046841D01*
X0149352Y0052316D01*
X0152720Y0052316D01*
X0152720Y0051335D01*
X0152427Y0051335D01*
X0152427Y0050065D01*
X0152427Y0047703D01*
X0152427Y0050065D01*
X0152427Y0050065D01*
X0152427Y0048795D01*
X0152427Y0047703D01*
X0152427Y0047703D01*
X0154150Y0047703D01*
X0154150Y0048460D01*
X0154052Y0048695D01*
X0154024Y0048724D01*
X0156991Y0048724D01*
X0156991Y0046682D01*
X0154835Y0046682D01*
X0154150Y0047367D01*
X0154150Y0047703D01*
X0152427Y0047703D01*
X0152427Y0047703D01*
X0152427Y0049278D02*
X0152427Y0049278D01*
X0151837Y0050065D02*
X0151837Y0050065D01*
X0151837Y0051335D02*
X0151837Y0052316D01*
X0152720Y0052230D02*
X0149266Y0052230D01*
X0148884Y0051848D02*
X0148884Y0048368D01*
X0150717Y0049278D02*
X0146313Y0049278D01*
X0145931Y0048896D02*
X0145931Y0046122D01*
X0146015Y0046325D02*
X0143360Y0046325D01*
X0142978Y0045943D02*
X0142978Y0041360D01*
X0143919Y0040419D02*
X0153102Y0040419D01*
X0155970Y0039435D02*
X0157152Y0040616D01*
X0157152Y0044159D01*
X0159231Y0044071D02*
X0159514Y0044071D01*
X0160724Y0044071D01*
X0160959Y0044168D01*
X0161139Y0044348D01*
X0161236Y0044583D01*
X0161236Y0045340D01*
X0159514Y0045340D01*
X0159514Y0044071D01*
X0159514Y0045340D01*
X0159514Y0045340D01*
X0159514Y0045341D01*
X0161236Y0045341D01*
X0161236Y0045623D01*
X0162344Y0045623D01*
X0164312Y0047592D01*
X0165354Y0048634D01*
X0165354Y0041689D01*
X0161197Y0037531D01*
X0158348Y0037531D01*
X0158537Y0037720D01*
X0158998Y0038833D01*
X0158998Y0039521D01*
X0159231Y0039755D01*
X0159231Y0044071D01*
X0159231Y0043372D02*
X0165354Y0043372D01*
X0163451Y0044159D02*
X0162270Y0045341D01*
X0159514Y0045341D01*
X0160695Y0045340D02*
X0160695Y0045341D01*
X0163045Y0046325D02*
X0165354Y0046325D01*
X0163648Y0046927D02*
X0163648Y0039982D01*
X0164085Y0040419D02*
X0159231Y0040419D01*
X0160695Y0037531D02*
X0160695Y0044071D01*
X0154789Y0044159D02*
X0153608Y0044159D01*
X0152427Y0045341D01*
X0148884Y0045341D01*
X0145931Y0044559D02*
X0145931Y0038408D01*
X0148884Y0037531D02*
X0148884Y0042313D01*
X0146571Y0043372D02*
X0056626Y0043372D01*
X0054396Y0044824D02*
X0054396Y0045549D01*
X0060301Y0045623D02*
X0060301Y0025720D01*
X0057348Y0025720D02*
X0057348Y0028940D01*
X0054396Y0028940D02*
X0054396Y0025720D01*
X0051443Y0025720D02*
X0051443Y0028940D01*
X0048490Y0028817D02*
X0048490Y0025720D01*
X0045537Y0025720D02*
X0045537Y0027119D01*
X0042585Y0026575D02*
X0042585Y0025720D01*
X0048281Y0028608D02*
X0061417Y0028608D01*
X0063254Y0043043D02*
X0063254Y0045623D01*
X0066207Y0045623D02*
X0066207Y0043043D01*
X0069159Y0043043D02*
X0069159Y0045623D01*
X0072112Y0045623D02*
X0072112Y0043043D01*
X0075065Y0043043D02*
X0075065Y0045623D01*
X0078018Y0045623D02*
X0078018Y0043043D01*
X0080970Y0043043D02*
X0080970Y0045623D01*
X0083923Y0045623D02*
X0083923Y0043043D01*
X0086876Y0043043D02*
X0086876Y0045623D01*
X0089829Y0045623D02*
X0089829Y0043043D01*
X0092781Y0043043D02*
X0092781Y0045623D01*
X0095734Y0045623D02*
X0095734Y0043043D01*
X0098687Y0043043D02*
X0098687Y0045623D01*
X0101640Y0045623D02*
X0101640Y0043043D01*
X0104593Y0043043D02*
X0104593Y0045623D01*
X0107545Y0045623D02*
X0107545Y0043043D01*
X0110498Y0043043D02*
X0110498Y0045623D01*
X0113451Y0045623D02*
X0113451Y0043043D01*
X0116404Y0043043D02*
X0116404Y0045623D01*
X0119356Y0045623D02*
X0119356Y0043043D01*
X0122309Y0043043D02*
X0122309Y0045623D01*
X0125262Y0045623D02*
X0125262Y0043043D01*
X0128215Y0043043D02*
X0128215Y0045623D01*
X0131167Y0045623D02*
X0131167Y0043043D01*
X0134120Y0043043D02*
X0134120Y0045623D01*
X0137073Y0045623D02*
X0137073Y0043043D01*
X0140026Y0043043D02*
X0140026Y0045623D01*
X0151837Y0042990D02*
X0151837Y0037531D01*
X0154789Y0046727D02*
X0154789Y0048724D01*
X0159514Y0047703D02*
X0161482Y0047703D01*
X0163451Y0049671D01*
X0163451Y0052821D01*
X0030774Y0043655D02*
X0030774Y0032607D01*
D18*
X0023293Y0028018D03*
X0041010Y0029199D03*
X0046522Y0041797D03*
X0054002Y0041797D03*
X0055970Y0053608D03*
X0046522Y0053608D03*
X0050852Y0059120D03*
X0052821Y0066207D03*
X0059907Y0068569D03*
X0035498Y0061482D03*
X0029199Y0063844D03*
X0023687Y0066994D03*
X0026443Y0041797D03*
X0148884Y0045341D03*
X0148884Y0050065D03*
X0163451Y0052821D03*
X0163451Y0044159D03*
X0155970Y0039435D03*
M02*
