  0
SECTION
  2
HEADER
  9
$ANGBASE
  50
0.0
  9
$ANGDIR
  70
  1
  9
$MEASUREMENT
  70
0
  0
ENDSEC
  0
SECTION
  2
TABLES
  0
TABLE
  2
LTYPE
  70
1
  0
LTYPE
  2
CONTINUOUS
  70
0
  3
Solid line
  72
65
  73
0
  40
0.0
  0
ENDTAB
  0
TABLE
  2
STYLE
  70
4
  0
STYLE
  2
KICAD
  70
0
  40
0
  41
1
  42
1
  50
0
  71
0
  3
isocp.shx
  0
STYLE
  2
KICADB
  70
0
  40
0
  41
1
  42
1
  50
0
  71
0
  3
isocp.shx
  0
STYLE
  2
KICADI
  70
0
  40
0
  41
1
  42
1
  50
15
  71
0
  3
isocp.shx
  0
STYLE
  2
KICADBI
  70
0
  40
0
  41
1
  42
1
  50
15
  71
0
  3
isocp.shx
  0
ENDTAB
  0
TABLE
  2
LAYER
  70
30
  0
LAYER
  2
BLACK
  70
0
  62
7
  6
CONTINUOUS
  0
LAYER
  2
GRAY1
  70
0
  62
251
  6
CONTINUOUS
  0
LAYER
  2
GRAY2
  70
0
  62
8
  6
CONTINUOUS
  0
LAYER
  2
GRAY3
  70
0
  62
9
  6
CONTINUOUS
  0
LAYER
  2
WHITE
  70
0
  62
7
  6
CONTINUOUS
  0
LAYER
  2
LYELLOW
  70
0
  62
51
  6
CONTINUOUS
  0
LAYER
  2
BLUE1
  70
0
  62
178
  6
CONTINUOUS
  0
LAYER
  2
GREEN1
  70
0
  62
98
  6
CONTINUOUS
  0
LAYER
  2
CYAN1
  70
0
  62
138
  6
CONTINUOUS
  0
LAYER
  2
RED1
  70
0
  62
18
  6
CONTINUOUS
  0
LAYER
  2
MAGENTA1
  70
0
  62
228
  6
CONTINUOUS
  0
LAYER
  2
BROWN1
  70
0
  62
58
  6
CONTINUOUS
  0
LAYER
  2
BLUE2
  70
0
  62
5
  6
CONTINUOUS
  0
LAYER
  2
GREEN2
  70
0
  62
3
  6
CONTINUOUS
  0
LAYER
  2
CYAN2
  70
0
  62
4
  6
CONTINUOUS
  0
LAYER
  2
RED2
  70
0
  62
1
  6
CONTINUOUS
  0
LAYER
  2
MAGENTA2
  70
0
  62
6
  6
CONTINUOUS
  0
LAYER
  2
BROWN2
  70
0
  62
54
  6
CONTINUOUS
  0
LAYER
  2
BLUE3
  70
0
  62
171
  6
CONTINUOUS
  0
LAYER
  2
GREEN3
  70
0
  62
91
  6
CONTINUOUS
  0
LAYER
  2
CYAN3
  70
0
  62
131
  6
CONTINUOUS
  0
LAYER
  2
RED3
  70
0
  62
11
  6
CONTINUOUS
  0
LAYER
  2
MAGENTA3
  70
0
  62
221
  6
CONTINUOUS
  0
LAYER
  2
YELLOW3
  70
0
  62
2
  6
CONTINUOUS
  0
LAYER
  2
BLUE4
  70
0
  62
5
  6
CONTINUOUS
  0
LAYER
  2
GREEN4
  70
0
  62
3
  6
CONTINUOUS
  0
LAYER
  2
CYAN4
  70
0
  62
4
  6
CONTINUOUS
  0
LAYER
  2
RED4
  70
0
  62
1
  6
CONTINUOUS
  0
LAYER
  2
MAGENTA4
  70
0
  62
6
  6
CONTINUOUS
  0
LAYER
  2
YELLOW4
  70
0
  62
2
  6
CONTINUOUS
  0
ENDTAB
  0
ENDSEC
  0
SECTION
  2
ENTITIES
0
LINE
8
Black
10
185.013
20
-123.159
11
185.019
21
-123.16
0
LINE
8
Black
10
185.019
20
-123.16
11
185.025
21
-123.163
0
LINE
8
Black
10
185.025
20
-123.163
11
185.032
21
-123.164
0
LINE
8
Black
10
185.032
20
-123.164
11
185.037
21
-123.168
0
LINE
8
Black
10
185.037
20
-123.168
11
185.043
21
-123.171
0
LINE
8
Black
10
185.043
20
-123.171
11
185.048
21
-123.175
0
LINE
8
Black
10
185.048
20
-123.175
11
185.053
21
-123.179
0
LINE
8
Black
10
185.053
20
-123.179
11
186.821
21
-124.947
0
LINE
8
Black
10
186.821
20
-124.947
11
186.825
21
-124.952
0
LINE
8
Black
10
186.825
20
-124.952
11
186.829
21
-124.957
0
LINE
8
Black
10
186.829
20
-124.957
11
186.832
21
-124.963
0
LINE
8
Black
10
186.832
20
-124.963
11
186.836
21
-124.968
0
LINE
8
Black
10
186.836
20
-124.968
11
186.837
21
-124.975
0
LINE
8
Black
10
186.837
20
-124.975
11
186.84
21
-124.981
0
LINE
8
Black
10
186.84
20
-124.981
11
186.841
21
-124.987
0
LINE
8
Black
10
186.841
20
-124.987
11
186.842
21
-124.993
0
LINE
8
Black
10
186.842
20
-124.993
11
186.842
21
-125
0
LINE
8
Black
10
186.842
20
-125
11
186.842
21
-125.007
0
LINE
8
Black
10
186.842
20
-125.007
11
186.841
21
-125.013
0
LINE
8
Black
10
186.841
20
-125.013
11
186.84
21
-125.019
0
LINE
8
Black
10
186.84
20
-125.019
11
186.837
21
-125.025
0
LINE
8
Black
10
186.837
20
-125.025
11
186.836
21
-125.032
0
LINE
8
Black
10
186.836
20
-125.032
11
186.832
21
-125.037
0
LINE
8
Black
10
186.832
20
-125.037
11
186.829
21
-125.043
0
LINE
8
Black
10
186.829
20
-125.043
11
186.825
21
-125.048
0
LINE
8
Black
10
186.825
20
-125.048
11
186.821
21
-125.053
0
LINE
8
Black
10
186.821
20
-125.053
11
185.053
21
-126.821
0
LINE
8
Black
10
185.053
20
-126.821
11
185.048
21
-126.825
0
LINE
8
Black
10
185.048
20
-126.825
11
185.043
21
-126.829
0
LINE
8
Black
10
185.043
20
-126.829
11
185.037
21
-126.832
0
LINE
8
Black
10
185.037
20
-126.832
11
185.032
21
-126.836
0
LINE
8
Black
10
185.032
20
-126.836
11
185.025
21
-126.837
0
LINE
8
Black
10
185.025
20
-126.837
11
185.019
21
-126.84
0
LINE
8
Black
10
185.019
20
-126.84
11
185.013
21
-126.841
0
LINE
8
Black
10
185.013
20
-126.841
11
185.007
21
-126.842
0
LINE
8
Black
10
185.007
20
-126.842
11
185
21
-126.842
0
LINE
8
Black
10
185
20
-126.842
11
184.993
21
-126.842
0
LINE
8
Black
10
184.993
20
-126.842
11
184.987
21
-126.841
0
LINE
8
Black
10
184.987
20
-126.841
11
184.981
21
-126.84
0
LINE
8
Black
10
184.981
20
-126.84
11
184.975
21
-126.837
0
LINE
8
Black
10
184.975
20
-126.837
11
184.968
21
-126.836
0
LINE
8
Black
10
184.968
20
-126.836
11
184.963
21
-126.832
0
LINE
8
Black
10
184.963
20
-126.832
11
184.957
21
-126.829
0
LINE
8
Black
10
184.957
20
-126.829
11
184.952
21
-126.825
0
LINE
8
Black
10
184.952
20
-126.825
11
184.947
21
-126.821
0
LINE
8
Black
10
184.947
20
-126.821
11
183.179
21
-125.053
0
LINE
8
Black
10
183.179
20
-125.053
11
183.175
21
-125.048
0
LINE
8
Black
10
183.175
20
-125.048
11
183.171
21
-125.043
0
LINE
8
Black
10
183.171
20
-125.043
11
183.168
21
-125.037
0
LINE
8
Black
10
183.168
20
-125.037
11
183.164
21
-125.032
0
LINE
8
Black
10
183.164
20
-125.032
11
183.163
21
-125.025
0
LINE
8
Black
10
183.163
20
-125.025
11
183.16
21
-125.019
0
LINE
8
Black
10
183.16
20
-125.019
11
183.159
21
-125.013
0
LINE
8
Black
10
183.159
20
-125.013
11
183.158
21
-125.007
0
LINE
8
Black
10
183.158
20
-125.007
11
183.158
21
-125
0
LINE
8
Black
10
183.158
20
-125
11
183.158
21
-124.993
0
LINE
8
Black
10
183.158
20
-124.993
11
183.159
21
-124.987
0
LINE
8
Black
10
183.159
20
-124.987
11
183.16
21
-124.981
0
LINE
8
Black
10
183.16
20
-124.981
11
183.163
21
-124.975
0
LINE
8
Black
10
183.163
20
-124.975
11
183.164
21
-124.968
0
LINE
8
Black
10
183.164
20
-124.968
11
183.168
21
-124.963
0
LINE
8
Black
10
183.168
20
-124.963
11
183.171
21
-124.957
0
LINE
8
Black
10
183.171
20
-124.957
11
183.175
21
-124.952
0
LINE
8
Black
10
183.175
20
-124.952
11
183.179
21
-124.947
0
LINE
8
Black
10
183.179
20
-124.947
11
184.947
21
-123.179
0
LINE
8
Black
10
184.947
20
-123.179
11
184.952
21
-123.175
0
LINE
8
Black
10
184.952
20
-123.175
11
184.957
21
-123.171
0
LINE
8
Black
10
184.957
20
-123.171
11
184.963
21
-123.168
0
LINE
8
Black
10
184.963
20
-123.168
11
184.968
21
-123.164
0
LINE
8
Black
10
184.968
20
-123.164
11
184.975
21
-123.163
0
LINE
8
Black
10
184.975
20
-123.163
11
184.981
21
-123.16
0
LINE
8
Black
10
184.981
20
-123.16
11
184.987
21
-123.159
0
LINE
8
Black
10
184.987
20
-123.159
11
184.993
21
-123.158
0
LINE
8
Black
10
184.993
20
-123.158
11
185
21
-123.158
0
LINE
8
Black
10
185
20
-123.158
11
185.007
21
-123.158
0
LINE
8
Black
10
185.007
20
-123.158
11
185.013
21
-123.159
0
LINE
8
Black
10
183.338
20
-125
11
185
21
-126.662
0
LINE
8
Black
10
185
20
-126.662
11
186.662
21
-125
0
LINE
8
Black
10
186.662
20
-125
11
185
21
-123.338
0
LINE
8
Black
10
185
20
-123.338
11
183.338
21
-125
0
LINE
8
Black
10
184.471
20
-126.717
11
184.434
21
-126.748
0
LINE
8
Black
10
184.434
20
-126.748
11
184.388
21
-126.765
0
LINE
8
Black
10
184.388
20
-126.765
11
184.339
21
-126.765
0
LINE
8
Black
10
184.339
20
-126.765
11
184.293
21
-126.748
0
LINE
8
Black
10
184.293
20
-126.748
11
184.256
21
-126.717
0
LINE
8
Black
10
184.256
20
-126.717
11
184.231
21
-126.674
0
LINE
8
Black
10
184.231
20
-126.674
11
184.223
21
-126.626
0
LINE
8
Black
10
184.223
20
-126.626
11
184.231
21
-126.578
0
LINE
8
Black
10
184.231
20
-126.578
11
184.256
21
-126.536
0
LINE
8
Black
10
184.256
20
-126.536
11
184.293
21
-126.504
0
LINE
8
Black
10
184.293
20
-126.504
11
184.339
21
-126.488
0
LINE
8
Black
10
184.339
20
-126.488
11
184.388
21
-126.488
0
LINE
8
Black
10
184.388
20
-126.488
11
184.434
21
-126.504
0
LINE
8
Black
10
184.434
20
-126.504
11
184.471
21
-126.536
0
LINE
8
Black
10
184.471
20
-126.536
11
184.496
21
-126.578
0
LINE
8
Black
10
184.496
20
-126.578
11
184.504
21
-126.626
0
LINE
8
Black
10
184.504
20
-126.626
11
184.496
21
-126.674
0
LINE
8
Black
10
184.496
20
-126.674
11
184.471
21
-126.717
0
LINE
8
Black
10
184.364
20
-126.626
11
184.364
21
-126.626
0
LINE
8
Black
10
184.364
20
-126.626
11
184.364
21
-126.626
0
LINE
8
Black
10
184.364
20
-126.626
11
184.363
21
-126.626
0
LINE
8
Black
10
184.363
20
-126.626
11
184.363
21
-126.626
0
LINE
8
Black
10
184.363
20
-126.626
11
184.363
21
-126.626
0
LINE
8
Black
10
184.363
20
-126.626
11
184.363
21
-126.626
0
LINE
8
Black
10
184.363
20
-126.626
11
184.363
21
-126.626
0
LINE
8
Black
10
184.363
20
-126.626
11
184.363
21
-126.627
0
LINE
8
Black
10
184.363
20
-126.627
11
184.363
21
-126.627
0
LINE
8
Black
10
184.363
20
-126.627
11
184.363
21
-126.627
0
LINE
8
Black
10
184.363
20
-126.627
11
184.363
21
-126.627
0
LINE
8
Black
10
184.363
20
-126.627
11
184.364
21
-126.627
0
LINE
8
Black
10
184.364
20
-126.627
11
184.364
21
-126.627
0
LINE
8
Black
10
184.364
20
-126.627
11
184.364
21
-126.627
0
LINE
8
Black
10
184.364
20
-126.627
11
184.364
21
-126.627
0
LINE
8
Black
10
184.364
20
-126.627
11
184.364
21
-126.626
0
LINE
8
Black
10
184.364
20
-126.626
11
184.364
21
-126.626
0
LINE
8
Black
10
184.364
20
-126.626
11
184.364
21
-126.626
0
LINE
8
Black
10
145.836
20
-117.072
11
145.858
21
-117.085
0
LINE
8
Black
10
145.858
20
-117.085
11
145.875
21
-117.105
0
LINE
8
Black
10
145.875
20
-117.105
11
145.884
21
-117.129
0
LINE
8
Black
10
145.884
20
-117.129
11
145.884
21
-117.155
0
LINE
8
Black
10
145.884
20
-117.155
11
145.875
21
-117.18
0
LINE
8
Black
10
145.875
20
-117.18
11
145.858
21
-117.2
0
LINE
8
Black
10
145.858
20
-117.2
11
145.836
21
-117.213
0
LINE
8
Black
10
145.836
20
-117.213
11
145.81
21
-117.217
0
LINE
8
Black
10
145.81
20
-117.217
11
145.755
21
-117.217
0
LINE
8
Black
10
145.755
20
-117.217
11
145.682
21
-117.241
0
LINE
8
Black
10
145.682
20
-117.241
11
145.539
21
-117.385
0
LINE
8
Black
10
145.539
20
-117.385
11
145.515
21
-117.457
0
LINE
8
Black
10
145.515
20
-117.457
11
145.515
21
-117.5
0
LINE
8
Black
10
145.515
20
-117.5
11
145.539
21
-117.573
0
LINE
8
Black
10
145.539
20
-117.573
11
145.585
21
-117.619
0
LINE
8
Black
10
145.585
20
-117.619
11
145.693
21
-117.673
0
LINE
8
Black
10
145.693
20
-117.673
11
146.484
21
-117.673
0
LINE
8
Black
10
146.484
20
-117.673
11
146.493
21
-117.675
0
LINE
8
Black
10
146.493
20
-117.675
11
146.503
21
-117.676
0
LINE
8
Black
10
146.503
20
-117.676
11
146.506
21
-117.677
0
LINE
8
Black
10
146.506
20
-117.677
11
146.509
21
-117.678
0
LINE
8
Black
10
146.509
20
-117.678
11
146.518
21
-117.683
0
LINE
8
Black
10
146.518
20
-117.683
11
146.527
21
-117.687
0
LINE
8
Black
10
146.527
20
-117.687
11
146.529
21
-117.689
0
LINE
8
Black
10
146.529
20
-117.689
11
146.532
21
-117.691
0
LINE
8
Black
10
146.532
20
-117.691
11
146.538
21
-117.698
0
LINE
8
Black
10
146.538
20
-117.698
11
146.545
21
-117.705
0
LINE
8
Black
10
146.545
20
-117.705
11
146.546
21
-117.708
0
LINE
8
Black
10
146.546
20
-117.708
11
146.549
21
-117.711
0
LINE
8
Black
10
146.549
20
-117.711
11
146.552
21
-117.72
0
LINE
8
Black
10
146.552
20
-117.72
11
146.556
21
-117.729
0
LINE
8
Black
10
146.556
20
-117.729
11
146.556
21
-117.732
0
LINE
8
Black
10
146.556
20
-117.732
11
146.557
21
-117.735
0
LINE
8
Black
10
146.557
20
-117.735
11
146.557
21
-117.745
0
LINE
8
Black
10
146.557
20
-117.745
11
146.558
21
-117.755
0
LINE
8
Black
10
146.558
20
-117.755
11
146.557
21
-117.758
0
LINE
8
Black
10
146.557
20
-117.758
11
146.557
21
-117.761
0
LINE
8
Black
10
146.557
20
-117.761
11
146.554
21
-117.77
0
LINE
8
Black
10
146.554
20
-117.77
11
146.552
21
-117.78
0
LINE
8
Black
10
146.552
20
-117.78
11
146.55
21
-117.783
0
LINE
8
Black
10
146.55
20
-117.783
11
146.549
21
-117.786
0
LINE
8
Black
10
146.549
20
-117.786
11
146.542
21
-117.793
0
LINE
8
Black
10
146.542
20
-117.793
11
146.537
21
-117.801
0
LINE
8
Black
10
146.537
20
-117.801
11
146.099
21
-118.239
0
LINE
8
Black
10
146.099
20
-118.239
11
146.078
21
-118.254
0
LINE
8
Black
10
146.078
20
-118.254
11
146.052
21
-118.261
0
LINE
8
Black
10
146.052
20
-118.261
11
146.026
21
-118.258
0
LINE
8
Black
10
146.026
20
-118.258
11
146.003
21
-118.247
0
LINE
8
Black
10
146.003
20
-118.247
11
145.984
21
-118.229
0
LINE
8
Black
10
145.984
20
-118.229
11
145.973
21
-118.205
0
LINE
8
Black
10
145.973
20
-118.205
11
145.971
21
-118.179
0
LINE
8
Black
10
145.971
20
-118.179
11
145.978
21
-118.154
0
LINE
8
Black
10
145.978
20
-118.154
11
145.993
21
-118.133
0
LINE
8
Black
10
145.993
20
-118.133
11
146.303
21
-117.823
0
LINE
8
Black
10
146.303
20
-117.823
11
145.675
21
-117.823
0
LINE
8
Black
10
145.675
20
-117.823
11
145.671
21
-117.823
0
LINE
8
Black
10
145.671
20
-117.823
11
145.667
21
-117.823
0
LINE
8
Black
10
145.667
20
-117.823
11
145.658
21
-117.82
0
LINE
8
Black
10
145.658
20
-117.82
11
145.65
21
-117.819
0
LINE
8
Black
10
145.65
20
-117.819
11
145.646
21
-117.817
0
LINE
8
Black
10
145.646
20
-117.817
11
145.642
21
-117.815
0
LINE
8
Black
10
145.642
20
-117.815
11
145.507
21
-117.748
0
LINE
8
Black
10
145.507
20
-117.748
11
145.498
21
-117.741
0
LINE
8
Black
10
145.498
20
-117.741
11
145.488
21
-117.734
0
LINE
8
Black
10
145.488
20
-117.734
11
145.42
21
-117.667
0
LINE
8
Black
10
145.42
20
-117.667
11
145.418
21
-117.663
0
LINE
8
Black
10
145.418
20
-117.663
11
145.415
21
-117.66
0
LINE
8
Black
10
145.415
20
-117.66
11
145.411
21
-117.652
0
LINE
8
Black
10
145.411
20
-117.652
11
145.405
21
-117.645
0
LINE
8
Black
10
145.405
20
-117.645
11
145.404
21
-117.641
0
LINE
8
Black
10
145.404
20
-117.641
11
145.402
21
-117.637
0
LINE
8
Black
10
145.402
20
-117.637
11
145.369
21
-117.536
0
LINE
8
Black
10
145.369
20
-117.536
11
145.367
21
-117.524
0
LINE
8
Black
10
145.367
20
-117.524
11
145.365
21
-117.513
0
LINE
8
Black
10
145.365
20
-117.513
11
145.365
21
-117.445
0
LINE
8
Black
10
145.365
20
-117.445
11
145.367
21
-117.433
0
LINE
8
Black
10
145.367
20
-117.433
11
145.369
21
-117.421
0
LINE
8
Black
10
145.369
20
-117.421
11
145.402
21
-117.32
0
LINE
8
Black
10
145.402
20
-117.32
11
145.404
21
-117.317
0
LINE
8
Black
10
145.404
20
-117.317
11
145.405
21
-117.312
0
LINE
8
Black
10
145.405
20
-117.312
11
145.411
21
-117.305
0
LINE
8
Black
10
145.411
20
-117.305
11
145.415
21
-117.298
0
LINE
8
Black
10
145.415
20
-117.298
11
145.418
21
-117.295
0
LINE
8
Black
10
145.418
20
-117.295
11
145.42
21
-117.291
0
LINE
8
Black
10
145.42
20
-117.291
11
145.589
21
-117.123
0
LINE
8
Black
10
145.589
20
-117.123
11
145.592
21
-117.12
0
LINE
8
Black
10
145.592
20
-117.12
11
145.595
21
-117.117
0
LINE
8
Black
10
145.595
20
-117.117
11
145.603
21
-117.113
0
LINE
8
Black
10
145.603
20
-117.113
11
145.61
21
-117.108
0
LINE
8
Black
10
145.61
20
-117.108
11
145.614
21
-117.107
0
LINE
8
Black
10
145.614
20
-117.107
11
145.618
21
-117.105
0
LINE
8
Black
10
145.618
20
-117.105
11
145.719
21
-117.071
0
LINE
8
Black
10
145.719
20
-117.071
11
145.731
21
-117.069
0
LINE
8
Black
10
145.731
20
-117.069
11
145.743
21
-117.067
0
LINE
8
Black
10
145.743
20
-117.067
11
145.81
21
-117.067
0
LINE
8
Black
10
145.81
20
-117.067
11
145.836
21
-117.072
0
LINE
8
Black
10
146.416
20
-116.327
11
146.423
21
-116.327
0
LINE
8
Black
10
146.423
20
-116.327
11
146.429
21
-116.328
0
LINE
8
Black
10
146.429
20
-116.328
11
146.436
21
-116.329
0
LINE
8
Black
10
146.436
20
-116.329
11
146.442
21
-116.332
0
LINE
8
Black
10
146.442
20
-116.332
11
146.448
21
-116.333
0
LINE
8
Black
10
146.448
20
-116.333
11
146.453
21
-116.337
0
LINE
8
Black
10
146.453
20
-116.337
11
146.459
21
-116.34
0
LINE
8
Black
10
146.459
20
-116.34
11
146.464
21
-116.345
0
LINE
8
Black
10
146.464
20
-116.345
11
146.469
21
-116.348
0
LINE
8
Black
10
146.469
20
-116.348
11
147.176
21
-117.055
0
LINE
8
Black
10
147.176
20
-117.055
11
147.18
21
-117.061
0
LINE
8
Black
10
147.18
20
-117.061
11
147.185
21
-117.065
0
LINE
8
Black
10
147.185
20
-117.065
11
147.188
21
-117.071
0
LINE
8
Black
10
147.188
20
-117.071
11
147.191
21
-117.077
0
LINE
8
Black
10
147.191
20
-117.077
11
147.193
21
-117.083
0
LINE
8
Black
10
147.193
20
-117.083
11
147.196
21
-117.089
0
LINE
8
Black
10
147.196
20
-117.089
11
147.196
21
-117.096
0
LINE
8
Black
10
147.196
20
-117.096
11
147.198
21
-117.102
0
LINE
8
Black
10
147.198
20
-117.102
11
147.198
21
-117.108
0
LINE
8
Black
10
147.198
20
-117.108
11
147.198
21
-117.115
0
LINE
8
Black
10
147.198
20
-117.115
11
147.196
21
-117.121
0
LINE
8
Black
10
147.196
20
-117.121
11
147.196
21
-117.128
0
LINE
8
Black
10
147.196
20
-117.128
11
147.193
21
-117.134
0
LINE
8
Black
10
147.193
20
-117.134
11
147.191
21
-117.14
0
LINE
8
Black
10
147.191
20
-117.14
11
147.188
21
-117.146
0
LINE
8
Black
10
147.188
20
-117.146
11
147.185
21
-117.152
0
LINE
8
Black
10
147.185
20
-117.152
11
147.18
21
-117.156
0
LINE
8
Black
10
147.18
20
-117.156
11
147.176
21
-117.162
0
LINE
8
Black
10
147.176
20
-117.162
11
147.008
21
-117.33
0
LINE
8
Black
10
147.008
20
-117.33
11
146.998
21
-117.337
0
LINE
8
Black
10
146.998
20
-117.337
11
146.989
21
-117.344
0
LINE
8
Black
10
146.989
20
-117.344
11
146.854
21
-117.411
0
LINE
8
Black
10
146.854
20
-117.411
11
146.85
21
-117.413
0
LINE
8
Black
10
146.85
20
-117.413
11
146.846
21
-117.415
0
LINE
8
Black
10
146.846
20
-117.415
11
146.837
21
-117.416
0
LINE
8
Black
10
146.837
20
-117.416
11
146.829
21
-117.419
0
LINE
8
Black
10
146.829
20
-117.419
11
146.825
21
-117.418
0
LINE
8
Black
10
146.825
20
-117.418
11
146.82
21
-117.419
0
LINE
8
Black
10
146.82
20
-117.419
11
146.686
21
-117.419
0
LINE
8
Black
10
146.686
20
-117.419
11
146.674
21
-117.417
0
LINE
8
Black
10
146.674
20
-117.417
11
146.662
21
-117.415
0
LINE
8
Black
10
146.662
20
-117.415
11
146.561
21
-117.382
0
LINE
8
Black
10
146.561
20
-117.382
11
146.554
21
-117.378
0
LINE
8
Black
10
146.554
20
-117.378
11
146.546
21
-117.375
0
LINE
8
Black
10
146.546
20
-117.375
11
146.378
21
-117.274
0
LINE
8
Black
10
146.378
20
-117.274
11
146.371
21
-117.268
0
LINE
8
Black
10
146.371
20
-117.268
11
146.363
21
-117.263
0
LINE
8
Black
10
146.363
20
-117.263
11
146.262
21
-117.162
0
LINE
8
Black
10
146.262
20
-117.162
11
146.257
21
-117.154
0
LINE
8
Black
10
146.257
20
-117.154
11
146.251
21
-117.147
0
LINE
8
Black
10
146.251
20
-117.147
11
146.15
21
-116.979
0
LINE
8
Black
10
146.15
20
-116.979
11
146.147
21
-116.971
0
LINE
8
Black
10
146.147
20
-116.971
11
146.143
21
-116.964
0
LINE
8
Black
10
146.143
20
-116.964
11
146.109
21
-116.863
0
LINE
8
Black
10
146.109
20
-116.863
11
146.108
21
-116.851
0
LINE
8
Black
10
146.108
20
-116.851
11
146.106
21
-116.839
0
LINE
8
Black
10
146.106
20
-116.839
11
146.106
21
-116.704
0
LINE
8
Black
10
146.106
20
-116.704
11
146.106
21
-116.7
0
LINE
8
Black
10
146.106
20
-116.7
11
146.106
21
-116.696
0
LINE
8
Black
10
146.106
20
-116.696
11
146.109
21
-116.687
0
LINE
8
Black
10
146.109
20
-116.687
11
146.11
21
-116.679
0
LINE
8
Black
10
146.11
20
-116.679
11
146.112
21
-116.675
0
LINE
8
Black
10
146.112
20
-116.675
11
146.113
21
-116.671
0
LINE
8
Black
10
146.113
20
-116.671
11
146.181
21
-116.536
0
LINE
8
Black
10
146.181
20
-116.536
11
146.188
21
-116.527
0
LINE
8
Black
10
146.188
20
-116.527
11
146.195
21
-116.517
0
LINE
8
Black
10
146.195
20
-116.517
11
146.363
21
-116.348
0
LINE
8
Black
10
146.363
20
-116.348
11
146.369
21
-116.345
0
LINE
8
Black
10
146.369
20
-116.345
11
146.373
21
-116.34
0
LINE
8
Black
10
146.373
20
-116.34
11
146.379
21
-116.337
0
LINE
8
Black
10
146.379
20
-116.337
11
146.385
21
-116.333
0
LINE
8
Black
10
146.385
20
-116.333
11
146.391
21
-116.332
0
LINE
8
Black
10
146.391
20
-116.332
11
146.397
21
-116.329
0
LINE
8
Black
10
146.397
20
-116.329
11
146.403
21
-116.328
0
LINE
8
Black
10
146.403
20
-116.328
11
146.41
21
-116.327
0
LINE
8
Black
10
146.41
20
-116.327
11
146.416
21
-116.327
0
LINE
8
Black
10
146.31
20
-116.614
11
146.256
21
-116.722
0
LINE
8
Black
10
146.256
20
-116.722
11
146.256
21
-116.827
0
LINE
8
Black
10
146.256
20
-116.827
11
146.283
21
-116.909
0
LINE
8
Black
10
146.283
20
-116.909
11
146.375
21
-117.062
0
LINE
8
Black
10
146.375
20
-117.062
11
146.463
21
-117.15
0
LINE
8
Black
10
146.463
20
-117.15
11
146.616
21
-117.242
0
LINE
8
Black
10
146.616
20
-117.242
11
146.698
21
-117.269
0
LINE
8
Black
10
146.698
20
-117.269
11
146.803
21
-117.269
0
LINE
8
Black
10
146.803
20
-117.269
11
146.911
21
-117.215
0
LINE
8
Black
10
146.911
20
-117.215
11
147.017
21
-117.108
0
LINE
8
Black
10
147.017
20
-117.108
11
146.416
21
-116.507
0
LINE
8
Black
10
146.416
20
-116.507
11
146.31
21
-116.614
0
LINE
8
Black
10
147.154
20
-110.806
11
147.161
21
-110.806
0
LINE
8
Black
10
147.161
20
-110.806
11
147.167
21
-110.809
0
LINE
8
Black
10
147.167
20
-110.809
11
147.173
21
-110.811
0
LINE
8
Black
10
147.173
20
-110.811
11
147.178
21
-110.814
0
LINE
8
Black
10
147.178
20
-110.814
11
147.184
21
-110.817
0
LINE
8
Black
10
147.184
20
-110.817
11
147.189
21
-110.822
0
LINE
8
Black
10
147.189
20
-110.822
11
147.194
21
-110.826
0
LINE
8
Black
10
147.194
20
-110.826
11
149.174
21
-112.806
0
LINE
8
Black
10
149.174
20
-112.806
11
149.178
21
-112.811
0
LINE
8
Black
10
149.178
20
-112.811
11
149.183
21
-112.816
0
LINE
8
Black
10
149.183
20
-112.816
11
149.186
21
-112.822
0
LINE
8
Black
10
149.186
20
-112.822
11
149.189
21
-112.827
0
LINE
8
Black
10
149.189
20
-112.827
11
149.191
21
-112.833
0
LINE
8
Black
10
149.191
20
-112.833
11
149.194
21
-112.839
0
LINE
8
Black
10
149.194
20
-112.839
11
149.194
21
-112.846
0
LINE
8
Black
10
149.194
20
-112.846
11
149.196
21
-112.852
0
LINE
8
Black
10
149.196
20
-112.852
11
149.195
21
-112.859
0
LINE
8
Black
10
149.195
20
-112.859
11
149.196
21
-112.865
0
LINE
8
Black
10
149.196
20
-112.865
11
149.194
21
-112.871
0
LINE
8
Black
10
149.194
20
-112.871
11
149.194
21
-112.878
0
LINE
8
Black
10
149.194
20
-112.878
11
149.191
21
-112.884
0
LINE
8
Black
10
149.191
20
-112.884
11
149.189
21
-112.89
0
LINE
8
Black
10
149.189
20
-112.89
11
149.186
21
-112.896
0
LINE
8
Black
10
149.186
20
-112.896
11
149.183
21
-112.902
0
LINE
8
Black
10
149.183
20
-112.902
11
149.178
21
-112.906
0
LINE
8
Black
10
149.178
20
-112.906
11
149.174
21
-112.912
0
LINE
8
Black
10
149.174
20
-112.912
11
146.912
21
-115.174
0
LINE
8
Black
10
146.912
20
-115.174
11
146.906
21
-115.178
0
LINE
8
Black
10
146.906
20
-115.178
11
146.902
21
-115.183
0
LINE
8
Black
10
146.902
20
-115.183
11
146.896
21
-115.186
0
LINE
8
Black
10
146.896
20
-115.186
11
146.89
21
-115.189
0
LINE
8
Black
10
146.89
20
-115.189
11
146.884
21
-115.191
0
LINE
8
Black
10
146.884
20
-115.191
11
146.878
21
-115.194
0
LINE
8
Black
10
146.878
20
-115.194
11
146.871
21
-115.194
0
LINE
8
Black
10
146.871
20
-115.194
11
146.865
21
-115.196
0
LINE
8
Black
10
146.865
20
-115.196
11
146.859
21
-115.195
0
LINE
8
Black
10
146.859
20
-115.195
11
146.852
21
-115.196
0
LINE
8
Black
10
146.852
20
-115.196
11
146.846
21
-115.194
0
LINE
8
Black
10
146.846
20
-115.194
11
146.839
21
-115.194
0
LINE
8
Black
10
146.839
20
-115.194
11
146.833
21
-115.191
0
LINE
8
Black
10
146.833
20
-115.191
11
146.827
21
-115.189
0
LINE
8
Black
10
146.827
20
-115.189
11
146.822
21
-115.186
0
LINE
8
Black
10
146.822
20
-115.186
11
146.816
21
-115.183
0
LINE
8
Black
10
146.816
20
-115.183
11
146.811
21
-115.178
0
LINE
8
Black
10
146.811
20
-115.178
11
146.806
21
-115.174
0
LINE
8
Black
10
146.806
20
-115.174
11
144.826
21
-113.194
0
LINE
8
Black
10
144.826
20
-113.194
11
144.822
21
-113.189
0
LINE
8
Black
10
144.822
20
-113.189
11
144.817
21
-113.184
0
LINE
8
Black
10
144.817
20
-113.184
11
144.814
21
-113.178
0
LINE
8
Black
10
144.814
20
-113.178
11
144.811
21
-113.173
0
LINE
8
Black
10
144.811
20
-113.173
11
144.809
21
-113.167
0
LINE
8
Black
10
144.809
20
-113.167
11
144.806
21
-113.161
0
LINE
8
Black
10
144.806
20
-113.161
11
144.806
21
-113.154
0
LINE
8
Black
10
144.806
20
-113.154
11
144.804
21
-113.148
0
LINE
8
Black
10
144.804
20
-113.148
11
144.805
21
-113.141
0
LINE
8
Black
10
144.805
20
-113.141
11
144.804
21
-113.135
0
LINE
8
Black
10
144.804
20
-113.135
11
144.806
21
-113.129
0
LINE
8
Black
10
144.806
20
-113.129
11
144.806
21
-113.122
0
LINE
8
Black
10
144.806
20
-113.122
11
144.809
21
-113.116
0
LINE
8
Black
10
144.809
20
-113.116
11
144.811
21
-113.11
0
LINE
8
Black
10
144.811
20
-113.11
11
144.814
21
-113.104
0
LINE
8
Black
10
144.814
20
-113.104
11
144.817
21
-113.098
0
LINE
8
Black
10
144.817
20
-113.098
11
144.822
21
-113.094
0
LINE
8
Black
10
144.822
20
-113.094
11
144.826
21
-113.088
0
LINE
8
Black
10
144.826
20
-113.088
11
147.088
21
-110.826
0
LINE
8
Black
10
147.088
20
-110.826
11
147.094
21
-110.822
0
LINE
8
Black
10
147.094
20
-110.822
11
147.098
21
-110.817
0
LINE
8
Black
10
147.098
20
-110.817
11
147.104
21
-110.814
0
LINE
8
Black
10
147.104
20
-110.814
11
147.11
21
-110.811
0
LINE
8
Black
10
147.11
20
-110.811
11
147.116
21
-110.809
0
LINE
8
Black
10
147.116
20
-110.809
11
147.122
21
-110.806
0
LINE
8
Black
10
147.122
20
-110.806
11
147.129
21
-110.806
0
LINE
8
Black
10
147.129
20
-110.806
11
147.135
21
-110.804
0
LINE
8
Black
10
147.135
20
-110.804
11
147.141
21
-110.805
0
LINE
8
Black
10
147.141
20
-110.805
11
147.148
21
-110.804
0
LINE
8
Black
10
147.148
20
-110.804
11
147.154
21
-110.806
0
LINE
8
Black
10
144.985
20
-113.141
11
146.859
21
-115.015
0
LINE
8
Black
10
146.859
20
-115.015
11
149.015
21
-112.859
0
LINE
8
Black
10
149.015
20
-112.859
11
147.141
21
-110.985
0
LINE
8
Black
10
147.141
20
-110.985
11
144.985
21
-113.141
0
LINE
8
Black
10
147.608
20
-113.51
11
147.397
21
-113.687
0
LINE
8
Black
10
147.397
20
-113.687
11
147.138
21
-113.781
0
LINE
8
Black
10
147.138
20
-113.781
11
146.862
21
-113.781
0
LINE
8
Black
10
146.862
20
-113.781
11
146.603
21
-113.687
0
LINE
8
Black
10
146.603
20
-113.687
11
146.392
21
-113.51
0
LINE
8
Black
10
146.392
20
-113.51
11
146.254
21
-113.271
0
LINE
8
Black
10
146.254
20
-113.271
11
146.207
21
-113
0
LINE
8
Black
10
146.207
20
-113
11
146.254
21
-112.729
0
LINE
8
Black
10
146.254
20
-112.729
11
146.392
21
-112.49
0
LINE
8
Black
10
146.392
20
-112.49
11
146.603
21
-112.313
0
LINE
8
Black
10
146.603
20
-112.313
11
146.862
21
-112.219
0
LINE
8
Black
10
146.862
20
-112.219
11
147.138
21
-112.219
0
LINE
8
Black
10
147.138
20
-112.219
11
147.397
21
-112.313
0
LINE
8
Black
10
147.397
20
-112.313
11
147.608
21
-112.49
0
LINE
8
Black
10
147.608
20
-112.49
11
147.746
21
-112.729
0
LINE
8
Black
10
147.746
20
-112.729
11
147.793
21
-113
0
LINE
8
Black
10
147.793
20
-113
11
147.746
21
-113.271
0
LINE
8
Black
10
147.746
20
-113.271
11
147.608
21
-113.51
0
LINE
8
Black
10
147.493
20
-112.586
11
147.322
21
-112.443
0
LINE
8
Black
10
147.322
20
-112.443
11
147.112
21
-112.366
0
LINE
8
Black
10
147.112
20
-112.366
11
146.888
21
-112.366
0
LINE
8
Black
10
146.888
20
-112.366
11
146.678
21
-112.443
0
LINE
8
Black
10
146.678
20
-112.443
11
146.507
21
-112.586
0
LINE
8
Black
10
146.507
20
-112.586
11
146.395
21
-112.78
0
LINE
8
Black
10
146.395
20
-112.78
11
146.357
21
-113
0
LINE
8
Black
10
146.357
20
-113
11
146.395
21
-113.22
0
LINE
8
Black
10
146.395
20
-113.22
11
146.507
21
-113.414
0
LINE
8
Black
10
146.507
20
-113.414
11
146.678
21
-113.557
0
LINE
8
Black
10
146.678
20
-113.557
11
146.888
21
-113.634
0
LINE
8
Black
10
146.888
20
-113.634
11
147.112
21
-113.634
0
LINE
8
Black
10
147.112
20
-113.634
11
147.322
21
-113.557
0
LINE
8
Black
10
147.322
20
-113.557
11
147.493
21
-113.414
0
LINE
8
Black
10
147.493
20
-113.414
11
147.605
21
-113.22
0
LINE
8
Black
10
147.605
20
-113.22
11
147.643
21
-113
0
LINE
8
Black
10
147.643
20
-113
11
147.605
21
-112.78
0
LINE
8
Black
10
147.605
20
-112.78
11
147.493
21
-112.586
0
LINE
8
Black
10
147.817
20
-110.485
11
147.839
21
-110.5
0
LINE
8
Black
10
147.839
20
-110.5
11
148.475
21
-111.136
0
LINE
8
Black
10
148.475
20
-111.136
11
148.49
21
-111.157
0
LINE
8
Black
10
148.49
20
-111.157
11
148.497
21
-111.183
0
LINE
8
Black
10
148.497
20
-111.183
11
148.494
21
-111.209
0
LINE
8
Black
10
148.494
20
-111.209
11
148.483
21
-111.232
0
LINE
8
Black
10
148.483
20
-111.232
11
148.465
21
-111.251
0
LINE
8
Black
10
148.465
20
-111.251
11
148.441
21
-111.262
0
LINE
8
Black
10
148.441
20
-111.262
11
148.415
21
-111.264
0
LINE
8
Black
10
148.415
20
-111.264
11
148.39
21
-111.257
0
LINE
8
Black
10
148.39
20
-111.257
11
148.369
21
-111.242
0
LINE
8
Black
10
148.369
20
-111.242
11
147.733
21
-110.606
0
LINE
8
Black
10
147.733
20
-110.606
11
147.718
21
-110.584
0
LINE
8
Black
10
147.718
20
-110.584
11
147.711
21
-110.559
0
LINE
8
Black
10
147.711
20
-110.559
11
147.713
21
-110.533
0
LINE
8
Black
10
147.713
20
-110.533
11
147.724
21
-110.51
0
LINE
8
Black
10
147.724
20
-110.51
11
147.743
21
-110.491
0
LINE
8
Black
10
147.743
20
-110.491
11
147.766
21
-110.48
0
LINE
8
Black
10
147.766
20
-110.48
11
147.792
21
-110.478
0
LINE
8
Black
10
147.792
20
-110.478
11
147.817
21
-110.485
0
LINE
8
Black
10
135.013
20
-73.1592
11
135.019
21
-73.1598
0
LINE
8
Black
10
135.019
20
-73.1598
11
135.025
21
-73.1626
0
LINE
8
Black
10
135.025
20
-73.1626
11
135.032
21
-73.1643
0
LINE
8
Black
10
135.032
20
-73.1643
11
135.037
21
-73.168
0
LINE
8
Black
10
135.037
20
-73.168
11
135.043
21
-73.1708
0
LINE
8
Black
10
135.043
20
-73.1708
11
135.048
21
-73.1754
0
LINE
8
Black
10
135.048
20
-73.1754
11
135.053
21
-73.1792
0
LINE
8
Black
10
135.053
20
-73.1792
11
136.821
21
-74.947
0
LINE
8
Black
10
136.821
20
-74.947
11
136.825
21
-74.9523
0
LINE
8
Black
10
136.825
20
-74.9523
11
136.829
21
-74.957
0
LINE
8
Black
10
136.829
20
-74.957
11
136.832
21
-74.9629
0
LINE
8
Black
10
136.832
20
-74.9629
11
136.836
21
-74.9683
0
LINE
8
Black
10
136.836
20
-74.9683
11
136.837
21
-74.9746
0
LINE
8
Black
10
136.837
20
-74.9746
11
136.84
21
-74.9806
0
LINE
8
Black
10
136.84
20
-74.9806
11
136.841
21
-74.9871
0
LINE
8
Black
10
136.841
20
-74.9871
11
136.842
21
-74.9935
0
LINE
8
Black
10
136.842
20
-74.9935
11
136.842
21
-75
0
LINE
8
Black
10
136.842
20
-75
11
136.842
21
-75.0065
0
LINE
8
Black
10
136.842
20
-75.0065
11
136.841
21
-75.0129
0
LINE
8
Black
10
136.841
20
-75.0129
11
136.84
21
-75.0194
0
LINE
8
Black
10
136.84
20
-75.0194
11
136.837
21
-75.0254
0
LINE
8
Black
10
136.837
20
-75.0254
11
136.836
21
-75.0317
0
LINE
8
Black
10
136.836
20
-75.0317
11
136.832
21
-75.0371
0
LINE
8
Black
10
136.832
20
-75.0371
11
136.829
21
-75.043
0
LINE
8
Black
10
136.829
20
-75.043
11
136.825
21
-75.0477
0
LINE
8
Black
10
136.825
20
-75.0477
11
136.821
21
-75.053
0
LINE
8
Black
10
136.821
20
-75.053
11
135.053
21
-76.8208
0
LINE
8
Black
10
135.053
20
-76.8208
11
135.048
21
-76.8246
0
LINE
8
Black
10
135.048
20
-76.8246
11
135.043
21
-76.8292
0
LINE
8
Black
10
135.043
20
-76.8292
11
135.037
21
-76.832
0
LINE
8
Black
10
135.037
20
-76.832
11
135.032
21
-76.8357
0
LINE
8
Black
10
135.032
20
-76.8357
11
135.025
21
-76.8374
0
LINE
8
Black
10
135.025
20
-76.8374
11
135.019
21
-76.8402
0
LINE
8
Black
10
135.019
20
-76.8402
11
135.013
21
-76.8408
0
LINE
8
Black
10
135.013
20
-76.8408
11
135.007
21
-76.8425
0
LINE
8
Black
10
135.007
20
-76.8425
11
135
21
-76.8419
0
LINE
8
Black
10
135
20
-76.8419
11
134.993
21
-76.8425
0
LINE
8
Black
10
134.993
20
-76.8425
11
134.987
21
-76.8408
0
LINE
8
Black
10
134.987
20
-76.8408
11
134.981
21
-76.8402
0
LINE
8
Black
10
134.981
20
-76.8402
11
134.975
21
-76.8374
0
LINE
8
Black
10
134.975
20
-76.8374
11
134.968
21
-76.8357
0
LINE
8
Black
10
134.968
20
-76.8357
11
134.963
21
-76.832
0
LINE
8
Black
10
134.963
20
-76.832
11
134.957
21
-76.8292
0
LINE
8
Black
10
134.957
20
-76.8292
11
134.952
21
-76.8246
0
LINE
8
Black
10
134.952
20
-76.8246
11
134.947
21
-76.8208
0
LINE
8
Black
10
134.947
20
-76.8208
11
133.179
21
-75.053
0
LINE
8
Black
10
133.179
20
-75.053
11
133.175
21
-75.0477
0
LINE
8
Black
10
133.175
20
-75.0477
11
133.171
21
-75.043
0
LINE
8
Black
10
133.171
20
-75.043
11
133.168
21
-75.0371
0
LINE
8
Black
10
133.168
20
-75.0371
11
133.164
21
-75.0317
0
LINE
8
Black
10
133.164
20
-75.0317
11
133.163
21
-75.0254
0
LINE
8
Black
10
133.163
20
-75.0254
11
133.16
21
-75.0194
0
LINE
8
Black
10
133.16
20
-75.0194
11
133.159
21
-75.0129
0
LINE
8
Black
10
133.159
20
-75.0129
11
133.158
21
-75.0065
0
LINE
8
Black
10
133.158
20
-75.0065
11
133.158
21
-75
0
LINE
8
Black
10
133.158
20
-75
11
133.158
21
-74.9935
0
LINE
8
Black
10
133.158
20
-74.9935
11
133.159
21
-74.9871
0
LINE
8
Black
10
133.159
20
-74.9871
11
133.16
21
-74.9806
0
LINE
8
Black
10
133.16
20
-74.9806
11
133.163
21
-74.9746
0
LINE
8
Black
10
133.163
20
-74.9746
11
133.164
21
-74.9683
0
LINE
8
Black
10
133.164
20
-74.9683
11
133.168
21
-74.9629
0
LINE
8
Black
10
133.168
20
-74.9629
11
133.171
21
-74.957
0
LINE
8
Black
10
133.171
20
-74.957
11
133.175
21
-74.9523
0
LINE
8
Black
10
133.175
20
-74.9523
11
133.179
21
-74.947
0
LINE
8
Black
10
133.179
20
-74.947
11
134.947
21
-73.1792
0
LINE
8
Black
10
134.947
20
-73.1792
11
134.952
21
-73.1754
0
LINE
8
Black
10
134.952
20
-73.1754
11
134.957
21
-73.1708
0
LINE
8
Black
10
134.957
20
-73.1708
11
134.963
21
-73.168
0
LINE
8
Black
10
134.963
20
-73.168
11
134.968
21
-73.1643
0
LINE
8
Black
10
134.968
20
-73.1643
11
134.975
21
-73.1626
0
LINE
8
Black
10
134.975
20
-73.1626
11
134.981
21
-73.1598
0
LINE
8
Black
10
134.981
20
-73.1598
11
134.987
21
-73.1592
0
LINE
8
Black
10
134.987
20
-73.1592
11
134.993
21
-73.1575
0
LINE
8
Black
10
134.993
20
-73.1575
11
135
21
-73.1581
0
LINE
8
Black
10
135
20
-73.1581
11
135.007
21
-73.1575
0
LINE
8
Black
10
135.007
20
-73.1575
11
135.013
21
-73.1592
0
LINE
8
Black
10
133.338
20
-75
11
135
21
-76.6617
0
LINE
8
Black
10
135
20
-76.6617
11
136.662
21
-75
0
LINE
8
Black
10
136.662
20
-75
11
135
21
-73.3383
0
LINE
8
Black
10
135
20
-73.3383
11
133.338
21
-75
0
LINE
8
Black
10
135.744
20
-73.4641
11
135.707
21
-73.4955
0
LINE
8
Black
10
135.707
20
-73.4955
11
135.661
21
-73.5122
0
LINE
8
Black
10
135.661
20
-73.5122
11
135.612
21
-73.5122
0
LINE
8
Black
10
135.612
20
-73.5122
11
135.566
21
-73.4955
0
LINE
8
Black
10
135.566
20
-73.4955
11
135.529
21
-73.4641
0
LINE
8
Black
10
135.529
20
-73.4641
11
135.504
21
-73.4218
0
LINE
8
Black
10
135.504
20
-73.4218
11
135.496
21
-73.3737
0
LINE
8
Black
10
135.496
20
-73.3737
11
135.504
21
-73.3255
0
LINE
8
Black
10
135.504
20
-73.3255
11
135.529
21
-73.2832
0
LINE
8
Black
10
135.529
20
-73.2832
11
135.566
21
-73.2518
0
LINE
8
Black
10
135.566
20
-73.2518
11
135.612
21
-73.2351
0
LINE
8
Black
10
135.612
20
-73.2351
11
135.661
21
-73.2351
0
LINE
8
Black
10
135.661
20
-73.2351
11
135.707
21
-73.2518
0
LINE
8
Black
10
135.707
20
-73.2518
11
135.744
21
-73.2832
0
LINE
8
Black
10
135.744
20
-73.2832
11
135.769
21
-73.3255
0
LINE
8
Black
10
135.769
20
-73.3255
11
135.777
21
-73.3737
0
LINE
8
Black
10
135.777
20
-73.3737
11
135.769
21
-73.4218
0
LINE
8
Black
10
135.769
20
-73.4218
11
135.744
21
-73.4641
0
LINE
8
Black
10
135.637
20
-73.3732
11
135.637
21
-73.373
0
LINE
8
Black
10
135.637
20
-73.373
11
135.637
21
-73.373
0
LINE
8
Black
10
135.637
20
-73.373
11
135.636
21
-73.373
0
LINE
8
Black
10
135.636
20
-73.373
11
135.636
21
-73.373
0
LINE
8
Black
10
135.636
20
-73.373
11
135.636
21
-73.3732
0
LINE
8
Black
10
135.636
20
-73.3732
11
135.636
21
-73.3734
0
LINE
8
Black
10
135.636
20
-73.3734
11
135.636
21
-73.3737
0
LINE
8
Black
10
135.636
20
-73.3737
11
135.636
21
-73.3739
0
LINE
8
Black
10
135.636
20
-73.3739
11
135.636
21
-73.3741
0
LINE
8
Black
10
135.636
20
-73.3741
11
135.636
21
-73.3743
0
LINE
8
Black
10
135.636
20
-73.3743
11
135.636
21
-73.3744
0
LINE
8
Black
10
135.636
20
-73.3744
11
135.637
21
-73.3744
0
LINE
8
Black
10
135.637
20
-73.3744
11
135.637
21
-73.3743
0
LINE
8
Black
10
135.637
20
-73.3743
11
135.637
21
-73.3741
0
LINE
8
Black
10
135.637
20
-73.3741
11
135.637
21
-73.3739
0
LINE
8
Black
10
135.637
20
-73.3739
11
135.637
21
-73.3737
0
LINE
8
Black
10
135.637
20
-73.3737
11
135.637
21
-73.3734
0
LINE
8
Black
10
135.637
20
-73.3734
11
135.637
21
-73.3732
0
CIRCLE
8
Black
10
159.951
20
-82.6729
40
0.4955
0
CIRCLE
8
Black
10
158.935
20
-77.5929
40
0.4955
0
CIRCLE
8
Black
10
160.967
20
-77.5929
40
0.4955
  0
ENDSEC
  0
EOF
