  0
SECTION
  2
HEADER
  9
$ANGBASE
  50
0.0
  9
$ANGDIR
  70
  1
  9
$MEASUREMENT
  70
0
  0
ENDSEC
  0
SECTION
  2
TABLES
  0
TABLE
  2
LTYPE
  70
1
  0
LTYPE
  2
CONTINUOUS
  70
0
  3
Solid line
  72
65
  73
0
  40
0.0
  0
ENDTAB
  0
TABLE
  2
STYLE
  70
4
  0
STYLE
  2
KICAD
  70
0
  40
0
  41
1
  42
1
  50
0
  71
0
  3
isocp.shx
  0
STYLE
  2
KICADB
  70
0
  40
0
  41
1
  42
1
  50
0
  71
0
  3
isocp.shx
  0
STYLE
  2
KICADI
  70
0
  40
0
  41
1
  42
1
  50
15
  71
0
  3
isocp.shx
  0
STYLE
  2
KICADBI
  70
0
  40
0
  41
1
  42
1
  50
15
  71
0
  3
isocp.shx
  0
ENDTAB
  0
TABLE
  2
LAYER
  70
30
  0
LAYER
  2
BLACK
  70
0
  62
7
  6
CONTINUOUS
  0
LAYER
  2
GRAY1
  70
0
  62
251
  6
CONTINUOUS
  0
LAYER
  2
GRAY2
  70
0
  62
8
  6
CONTINUOUS
  0
LAYER
  2
GRAY3
  70
0
  62
9
  6
CONTINUOUS
  0
LAYER
  2
WHITE
  70
0
  62
7
  6
CONTINUOUS
  0
LAYER
  2
LYELLOW
  70
0
  62
51
  6
CONTINUOUS
  0
LAYER
  2
BLUE1
  70
0
  62
178
  6
CONTINUOUS
  0
LAYER
  2
GREEN1
  70
0
  62
98
  6
CONTINUOUS
  0
LAYER
  2
CYAN1
  70
0
  62
138
  6
CONTINUOUS
  0
LAYER
  2
RED1
  70
0
  62
18
  6
CONTINUOUS
  0
LAYER
  2
MAGENTA1
  70
0
  62
228
  6
CONTINUOUS
  0
LAYER
  2
BROWN1
  70
0
  62
58
  6
CONTINUOUS
  0
LAYER
  2
BLUE2
  70
0
  62
5
  6
CONTINUOUS
  0
LAYER
  2
GREEN2
  70
0
  62
3
  6
CONTINUOUS
  0
LAYER
  2
CYAN2
  70
0
  62
4
  6
CONTINUOUS
  0
LAYER
  2
RED2
  70
0
  62
1
  6
CONTINUOUS
  0
LAYER
  2
MAGENTA2
  70
0
  62
6
  6
CONTINUOUS
  0
LAYER
  2
BROWN2
  70
0
  62
54
  6
CONTINUOUS
  0
LAYER
  2
BLUE3
  70
0
  62
171
  6
CONTINUOUS
  0
LAYER
  2
GREEN3
  70
0
  62
91
  6
CONTINUOUS
  0
LAYER
  2
CYAN3
  70
0
  62
131
  6
CONTINUOUS
  0
LAYER
  2
RED3
  70
0
  62
11
  6
CONTINUOUS
  0
LAYER
  2
MAGENTA3
  70
0
  62
221
  6
CONTINUOUS
  0
LAYER
  2
YELLOW3
  70
0
  62
2
  6
CONTINUOUS
  0
LAYER
  2
BLUE4
  70
0
  62
5
  6
CONTINUOUS
  0
LAYER
  2
GREEN4
  70
0
  62
3
  6
CONTINUOUS
  0
LAYER
  2
CYAN4
  70
0
  62
4
  6
CONTINUOUS
  0
LAYER
  2
RED4
  70
0
  62
1
  6
CONTINUOUS
  0
LAYER
  2
MAGENTA4
  70
0
  62
6
  6
CONTINUOUS
  0
LAYER
  2
YELLOW4
  70
0
  62
2
  6
CONTINUOUS
  0
ENDTAB
  0
ENDSEC
  0
SECTION
  2
ENTITIES
0
LINE
8
Black
10
184.953
20
-124.917
11
185.044
21
-124.969
0
LINE
8
Black
10
185.044
20
-124.969
11
185.111
21
-125.049
0
LINE
8
Black
10
185.111
20
-125.049
11
185.147
21
-125.148
0
LINE
8
Black
10
185.147
20
-125.148
11
185.147
21
-125.252
0
LINE
8
Black
10
185.147
20
-125.252
11
185.111
21
-125.351
0
LINE
8
Black
10
185.111
20
-125.351
11
185.044
21
-125.431
0
LINE
8
Black
10
185.044
20
-125.431
11
184.975
21
-125.47
0
LINE
8
Black
10
184.975
20
-125.47
11
184.975
21
-125.574
0
LINE
8
Black
10
184.975
20
-125.574
11
184.974
21
-125.58
0
LINE
8
Black
10
184.974
20
-125.58
11
184.975
21
-125.585
0
LINE
8
Black
10
184.975
20
-125.585
11
184.97
21
-125.601
0
LINE
8
Black
10
184.97
20
-125.601
11
184.967
21
-125.617
0
LINE
8
Black
10
184.967
20
-125.617
11
184.965
21
-125.622
0
LINE
8
Black
10
184.965
20
-125.622
11
184.963
21
-125.627
0
LINE
8
Black
10
184.963
20
-125.627
11
184.954
21
-125.64
0
LINE
8
Black
10
184.954
20
-125.64
11
184.946
21
-125.655
0
LINE
8
Black
10
184.946
20
-125.655
11
184.942
21
-125.658
0
LINE
8
Black
10
184.942
20
-125.658
11
184.938
21
-125.663
0
LINE
8
Black
10
184.938
20
-125.663
11
184.809
21
-125.792
0
LINE
8
Black
10
184.809
20
-125.792
11
184.827
21
-125.81
0
LINE
8
Black
10
184.827
20
-125.81
11
184.756
21
-125.88
0
LINE
8
Black
10
184.756
20
-125.88
11
184.826
21
-125.95
0
LINE
8
Black
10
184.826
20
-125.95
11
185.033
21
-125.95
0
LINE
8
Black
10
185.033
20
-125.95
11
185.173
21
-125.81
0
LINE
8
Black
10
185.173
20
-125.81
11
185.491
21
-126.128
0
LINE
8
Black
10
185.491
20
-126.128
11
185.279
21
-126.34
0
LINE
8
Black
10
185.279
20
-126.34
11
185.139
21
-126.2
0
LINE
8
Black
10
185.139
20
-126.2
11
184.774
21
-126.2
0
LINE
8
Black
10
184.774
20
-126.2
11
184.768
21
-126.199
0
LINE
8
Black
10
184.768
20
-126.199
11
184.763
21
-126.199
0
LINE
8
Black
10
184.763
20
-126.199
11
184.747
21
-126.195
0
LINE
8
Black
10
184.747
20
-126.195
11
184.731
21
-126.192
0
LINE
8
Black
10
184.731
20
-126.192
11
184.726
21
-126.19
0
LINE
8
Black
10
184.726
20
-126.19
11
184.721
21
-126.188
0
LINE
8
Black
10
184.721
20
-126.188
11
184.708
21
-126.179
0
LINE
8
Black
10
184.708
20
-126.179
11
184.693
21
-126.171
0
LINE
8
Black
10
184.693
20
-126.171
11
184.69
21
-126.166
0
LINE
8
Black
10
184.69
20
-126.166
11
184.685
21
-126.163
0
LINE
8
Black
10
184.685
20
-126.163
11
184.579
21
-126.057
0
LINE
8
Black
10
184.579
20
-126.057
11
184.509
21
-126.128
0
LINE
8
Black
10
184.509
20
-126.128
11
184.296
21
-125.916
0
LINE
8
Black
10
184.296
20
-125.916
11
184.615
21
-125.598
0
LINE
8
Black
10
184.615
20
-125.598
11
184.632
21
-125.615
0
LINE
8
Black
10
184.632
20
-125.615
11
184.725
21
-125.522
0
LINE
8
Black
10
184.725
20
-125.522
11
184.725
21
-125.47
0
LINE
8
Black
10
184.725
20
-125.47
11
184.656
21
-125.431
0
LINE
8
Black
10
184.656
20
-125.431
11
184.589
21
-125.351
0
LINE
8
Black
10
184.589
20
-125.351
11
184.553
21
-125.252
0
LINE
8
Black
10
184.553
20
-125.252
11
184.553
21
-125.148
0
LINE
8
Black
10
184.553
20
-125.148
11
184.589
21
-125.049
0
LINE
8
Black
10
184.589
20
-125.049
11
184.656
21
-124.969
0
LINE
8
Black
10
184.656
20
-124.969
11
184.747
21
-124.917
0
LINE
8
Black
10
184.747
20
-124.917
11
184.85
21
-124.899
0
LINE
8
Black
10
184.85
20
-124.899
11
184.953
21
-124.917
0
LINE
8
Black
10
186.34
20
-125.279
11
186.194
21
-125.425
0
LINE
8
Black
10
186.194
20
-125.425
11
186.38
21
-125.425
0
LINE
8
Black
10
186.38
20
-125.425
11
186.389
21
-125.399
0
LINE
8
Black
10
186.389
20
-125.399
11
186.456
21
-125.319
0
LINE
8
Black
10
186.456
20
-125.319
11
186.547
21
-125.267
0
LINE
8
Black
10
186.547
20
-125.267
11
186.65
21
-125.249
0
LINE
8
Black
10
186.65
20
-125.249
11
186.753
21
-125.267
0
LINE
8
Black
10
186.753
20
-125.267
11
186.844
21
-125.319
0
LINE
8
Black
10
186.844
20
-125.319
11
186.911
21
-125.399
0
LINE
8
Black
10
186.911
20
-125.399
11
186.947
21
-125.498
0
LINE
8
Black
10
186.947
20
-125.498
11
186.947
21
-125.602
0
LINE
8
Black
10
186.947
20
-125.602
11
186.911
21
-125.701
0
LINE
8
Black
10
186.911
20
-125.701
11
186.844
21
-125.781
0
LINE
8
Black
10
186.844
20
-125.781
11
186.753
21
-125.833
0
LINE
8
Black
10
186.753
20
-125.833
11
186.65
21
-125.851
0
LINE
8
Black
10
186.65
20
-125.851
11
186.547
21
-125.833
0
LINE
8
Black
10
186.547
20
-125.833
11
186.456
21
-125.781
0
LINE
8
Black
10
186.456
20
-125.781
11
186.389
21
-125.701
0
LINE
8
Black
10
186.389
20
-125.701
11
186.38
21
-125.675
0
LINE
8
Black
10
186.38
20
-125.675
11
185.887
21
-125.675
0
LINE
8
Black
10
185.887
20
-125.675
11
185.916
21
-125.704
0
LINE
8
Black
10
185.916
20
-125.704
11
185.704
21
-125.916
0
LINE
8
Black
10
185.704
20
-125.916
11
185.385
21
-125.598
0
LINE
8
Black
10
185.385
20
-125.598
11
185.598
21
-125.385
0
LINE
8
Black
10
185.598
20
-125.385
11
185.668
21
-125.456
0
LINE
8
Black
10
185.668
20
-125.456
11
185.88
21
-125.244
0
LINE
8
Black
10
185.88
20
-125.244
11
185.81
21
-125.173
0
LINE
8
Black
10
185.81
20
-125.173
11
186.022
21
-124.961
0
LINE
8
Black
10
186.022
20
-124.961
11
186.34
21
-125.279
0
LINE
8
Black
10
186.053
20
-125.425
11
186.061
21
-125.425
0
LINE
8
Black
10
186.061
20
-125.425
11
186.057
21
-125.421
0
LINE
8
Black
10
186.057
20
-125.421
11
186.053
21
-125.425
0
LINE
8
Black
10
183.288
20
-125.738
11
183.284
21
-125.742
0
LINE
8
Black
10
183.284
20
-125.742
11
183.28
21
-125.746
0
LINE
8
Black
10
183.28
20
-125.746
11
183.266
21
-125.754
0
LINE
8
Black
10
183.266
20
-125.754
11
183.253
21
-125.763
0
LINE
8
Black
10
183.253
20
-125.763
11
183.248
21
-125.765
0
LINE
8
Black
10
183.248
20
-125.765
11
183.243
21
-125.767
0
LINE
8
Black
10
183.243
20
-125.767
11
183.227
21
-125.77
0
LINE
8
Black
10
183.227
20
-125.77
11
183.211
21
-125.775
0
LINE
8
Black
10
183.211
20
-125.775
11
183.205
21
-125.774
0
LINE
8
Black
10
183.205
20
-125.774
11
183.2
21
-125.775
0
LINE
8
Black
10
183.2
20
-125.775
11
182.65
21
-125.775
0
LINE
8
Black
10
182.65
20
-125.775
11
182.645
21
-125.774
0
LINE
8
Black
10
182.645
20
-125.774
11
182.639
21
-125.775
0
LINE
8
Black
10
182.639
20
-125.775
11
182.623
21
-125.77
0
LINE
8
Black
10
182.623
20
-125.77
11
182.607
21
-125.767
0
LINE
8
Black
10
182.607
20
-125.767
11
182.602
21
-125.765
0
LINE
8
Black
10
182.602
20
-125.765
11
182.597
21
-125.763
0
LINE
8
Black
10
182.597
20
-125.763
11
182.584
21
-125.754
0
LINE
8
Black
10
182.584
20
-125.754
11
182.57
21
-125.746
0
LINE
8
Black
10
182.57
20
-125.746
11
182.566
21
-125.742
0
LINE
8
Black
10
182.566
20
-125.742
11
182.562
21
-125.738
0
LINE
8
Black
10
182.562
20
-125.738
11
182.162
21
-125.338
0
LINE
8
Black
10
182.162
20
-125.338
11
182.158
21
-125.334
0
LINE
8
Black
10
182.158
20
-125.334
11
182.154
21
-125.33
0
LINE
8
Black
10
182.154
20
-125.33
11
182.146
21
-125.316
0
LINE
8
Black
10
182.146
20
-125.316
11
182.137
21
-125.303
0
LINE
8
Black
10
182.137
20
-125.303
11
182.135
21
-125.298
0
LINE
8
Black
10
182.135
20
-125.298
11
182.133
21
-125.293
0
LINE
8
Black
10
182.133
20
-125.293
11
182.13
21
-125.277
0
LINE
8
Black
10
182.13
20
-125.277
11
182.125
21
-125.261
0
LINE
8
Black
10
182.125
20
-125.261
11
182.126
21
-125.255
0
LINE
8
Black
10
182.126
20
-125.255
11
182.125
21
-125.25
0
LINE
8
Black
10
182.125
20
-125.25
11
182.125
21
-124.75
0
LINE
8
Black
10
182.125
20
-124.75
11
182.126
21
-124.745
0
LINE
8
Black
10
182.126
20
-124.745
11
182.125
21
-124.739
0
LINE
8
Black
10
182.125
20
-124.739
11
182.13
21
-124.723
0
LINE
8
Black
10
182.13
20
-124.723
11
182.133
21
-124.707
0
LINE
8
Black
10
182.133
20
-124.707
11
182.135
21
-124.702
0
LINE
8
Black
10
182.135
20
-124.702
11
182.137
21
-124.697
0
LINE
8
Black
10
182.137
20
-124.697
11
182.146
21
-124.684
0
LINE
8
Black
10
182.146
20
-124.684
11
182.154
21
-124.67
0
LINE
8
Black
10
182.154
20
-124.67
11
182.158
21
-124.666
0
LINE
8
Black
10
182.158
20
-124.666
11
182.162
21
-124.662
0
LINE
8
Black
10
182.162
20
-124.662
11
182.762
21
-124.062
0
LINE
8
Black
10
182.762
20
-124.062
11
182.766
21
-124.058
0
LINE
8
Black
10
182.766
20
-124.058
11
182.77
21
-124.054
0
LINE
8
Black
10
182.77
20
-124.054
11
182.784
21
-124.046
0
LINE
8
Black
10
182.784
20
-124.046
11
182.797
21
-124.037
0
LINE
8
Black
10
182.797
20
-124.037
11
182.802
21
-124.035
0
LINE
8
Black
10
182.802
20
-124.035
11
182.807
21
-124.033
0
LINE
8
Black
10
182.807
20
-124.033
11
182.823
21
-124.03
0
LINE
8
Black
10
182.823
20
-124.03
11
182.839
21
-124.025
0
LINE
8
Black
10
182.839
20
-124.025
11
182.845
21
-124.026
0
LINE
8
Black
10
182.845
20
-124.026
11
182.848
21
-124.025
0
LINE
8
Black
10
182.848
20
-124.025
11
166.348
21
-107.525
0
LINE
8
Black
10
166.348
20
-107.525
11
165.352
21
-107.525
0
LINE
8
Black
10
165.352
20
-107.525
11
165.338
21
-107.538
0
LINE
8
Black
10
165.338
20
-107.538
11
165.334
21
-107.542
0
LINE
8
Black
10
165.334
20
-107.542
11
165.33
21
-107.546
0
LINE
8
Black
10
165.33
20
-107.546
11
165.316
21
-107.554
0
LINE
8
Black
10
165.316
20
-107.554
11
165.303
21
-107.563
0
LINE
8
Black
10
165.303
20
-107.563
11
165.298
21
-107.565
0
LINE
8
Black
10
165.298
20
-107.565
11
165.293
21
-107.567
0
LINE
8
Black
10
165.293
20
-107.567
11
165.277
21
-107.57
0
LINE
8
Black
10
165.277
20
-107.57
11
165.261
21
-107.575
0
LINE
8
Black
10
165.261
20
-107.575
11
165.255
21
-107.574
0
LINE
8
Black
10
165.255
20
-107.574
11
165.25
21
-107.575
0
LINE
8
Black
10
165.25
20
-107.575
11
164.4
21
-107.575
0
LINE
8
Black
10
164.4
20
-107.575
11
164.395
21
-107.574
0
LINE
8
Black
10
164.395
20
-107.574
11
164.389
21
-107.575
0
LINE
8
Black
10
164.389
20
-107.575
11
164.373
21
-107.57
0
LINE
8
Black
10
164.373
20
-107.57
11
164.357
21
-107.567
0
LINE
8
Black
10
164.357
20
-107.567
11
164.352
21
-107.565
0
LINE
8
Black
10
164.352
20
-107.565
11
164.347
21
-107.563
0
LINE
8
Black
10
164.347
20
-107.563
11
164.334
21
-107.554
0
LINE
8
Black
10
164.334
20
-107.554
11
164.32
21
-107.546
0
LINE
8
Black
10
164.32
20
-107.546
11
164.316
21
-107.542
0
LINE
8
Black
10
164.316
20
-107.542
11
164.312
21
-107.538
0
LINE
8
Black
10
164.312
20
-107.538
11
164.062
21
-107.288
0
LINE
8
Black
10
164.062
20
-107.288
11
164.062
21
-107.288
0
LINE
8
Black
10
164.062
20
-107.288
11
163.562
21
-106.788
0
LINE
8
Black
10
163.562
20
-106.788
11
162.848
21
-106.075
0
LINE
8
Black
10
162.848
20
-106.075
11
161.6
21
-106.075
0
LINE
8
Black
10
161.6
20
-106.075
11
161.595
21
-106.074
0
LINE
8
Black
10
161.595
20
-106.074
11
161.589
21
-106.075
0
LINE
8
Black
10
161.589
20
-106.075
11
161.573
21
-106.07
0
LINE
8
Black
10
161.573
20
-106.07
11
161.557
21
-106.067
0
LINE
8
Black
10
161.557
20
-106.067
11
161.552
21
-106.065
0
LINE
8
Black
10
161.552
20
-106.065
11
161.547
21
-106.063
0
LINE
8
Black
10
161.547
20
-106.063
11
161.534
21
-106.054
0
LINE
8
Black
10
161.534
20
-106.054
11
161.52
21
-106.046
0
LINE
8
Black
10
161.52
20
-106.046
11
161.516
21
-106.042
0
LINE
8
Black
10
161.516
20
-106.042
11
161.512
21
-106.038
0
LINE
8
Black
10
161.512
20
-106.038
11
161.105
21
-105.632
0
LINE
8
Black
10
161.105
20
-105.632
11
161.103
21
-105.633
0
LINE
8
Black
10
161.103
20
-105.633
11
161
21
-105.651
0
LINE
8
Black
10
161
20
-105.651
11
160.897
21
-105.633
0
LINE
8
Black
10
160.897
20
-105.633
11
160.806
21
-105.581
0
LINE
8
Black
10
160.806
20
-105.581
11
160.739
21
-105.501
0
LINE
8
Black
10
160.739
20
-105.501
11
160.703
21
-105.402
0
LINE
8
Black
10
160.703
20
-105.402
11
160.703
21
-105.298
0
LINE
8
Black
10
160.703
20
-105.298
11
160.739
21
-105.199
0
LINE
8
Black
10
160.739
20
-105.199
11
160.806
21
-105.119
0
LINE
8
Black
10
160.806
20
-105.119
11
160.897
21
-105.067
0
LINE
8
Black
10
160.897
20
-105.067
11
161
21
-105.049
0
LINE
8
Black
10
161
20
-105.049
11
161.063
21
-105.06
0
LINE
8
Black
10
161.063
20
-105.06
11
161.775
21
-104.348
0
LINE
8
Black
10
161.775
20
-104.348
11
161.775
21
-102.775
0
LINE
8
Black
10
161.775
20
-102.775
11
160.4
21
-102.775
0
LINE
8
Black
10
160.4
20
-102.775
11
160.395
21
-102.774
0
LINE
8
Black
10
160.395
20
-102.774
11
160.389
21
-102.775
0
LINE
8
Black
10
160.389
20
-102.775
11
160.373
21
-102.77
0
LINE
8
Black
10
160.373
20
-102.77
11
160.357
21
-102.767
0
LINE
8
Black
10
160.357
20
-102.767
11
160.352
21
-102.765
0
LINE
8
Black
10
160.352
20
-102.765
11
160.347
21
-102.763
0
LINE
8
Black
10
160.347
20
-102.763
11
160.334
21
-102.754
0
LINE
8
Black
10
160.334
20
-102.754
11
160.32
21
-102.746
0
LINE
8
Black
10
160.32
20
-102.746
11
160.316
21
-102.742
0
LINE
8
Black
10
160.316
20
-102.742
11
160.312
21
-102.738
0
LINE
8
Black
10
160.312
20
-102.738
11
159.512
21
-101.938
0
LINE
8
Black
10
159.512
20
-101.938
11
159.508
21
-101.934
0
LINE
8
Black
10
159.508
20
-101.934
11
159.504
21
-101.93
0
LINE
8
Black
10
159.504
20
-101.93
11
159.496
21
-101.916
0
LINE
8
Black
10
159.496
20
-101.916
11
159.487
21
-101.903
0
LINE
8
Black
10
159.487
20
-101.903
11
159.485
21
-101.898
0
LINE
8
Black
10
159.485
20
-101.898
11
159.483
21
-101.893
0
LINE
8
Black
10
159.483
20
-101.893
11
159.48
21
-101.877
0
LINE
8
Black
10
159.48
20
-101.877
11
159.475
21
-101.861
0
LINE
8
Black
10
159.475
20
-101.861
11
159.476
21
-101.855
0
LINE
8
Black
10
159.476
20
-101.855
11
159.475
21
-101.85
0
LINE
8
Black
10
159.475
20
-101.85
11
159.475
21
-100.95
0
LINE
8
Black
10
159.475
20
-100.95
11
159.476
21
-100.945
0
LINE
8
Black
10
159.476
20
-100.945
11
159.475
21
-100.939
0
LINE
8
Black
10
159.475
20
-100.939
11
159.48
21
-100.923
0
LINE
8
Black
10
159.48
20
-100.923
11
159.483
21
-100.907
0
LINE
8
Black
10
159.483
20
-100.907
11
159.485
21
-100.902
0
LINE
8
Black
10
159.485
20
-100.902
11
159.487
21
-100.897
0
LINE
8
Black
10
159.487
20
-100.897
11
159.496
21
-100.884
0
LINE
8
Black
10
159.496
20
-100.884
11
159.504
21
-100.87
0
LINE
8
Black
10
159.504
20
-100.87
11
159.508
21
-100.866
0
LINE
8
Black
10
159.508
20
-100.866
11
159.512
21
-100.862
0
LINE
8
Black
10
159.512
20
-100.862
11
161.112
21
-99.2616
0
LINE
8
Black
10
161.112
20
-99.2616
11
161.116
21
-99.2585
0
LINE
8
Black
10
161.116
20
-99.2585
11
161.119
21
-99.2551
0
LINE
8
Black
10
161.119
20
-99.2551
11
161.139
21
-99.1994
0
LINE
8
Black
10
161.139
20
-99.1994
11
161.206
21
-99.1193
0
LINE
8
Black
10
161.206
20
-99.1193
11
161.297
21
-99.067
0
LINE
8
Black
10
161.297
20
-99.067
11
161.4
21
-99.0489
0
LINE
8
Black
10
161.4
20
-99.0489
11
161.503
21
-99.067
0
LINE
8
Black
10
161.503
20
-99.067
11
161.594
21
-99.1193
0
LINE
8
Black
10
161.594
20
-99.1193
11
161.661
21
-99.1994
0
LINE
8
Black
10
161.661
20
-99.1994
11
161.697
21
-99.2977
0
LINE
8
Black
10
161.697
20
-99.2977
11
161.697
21
-99.4023
0
LINE
8
Black
10
161.697
20
-99.4023
11
161.661
21
-99.5006
0
LINE
8
Black
10
161.661
20
-99.5006
11
161.594
21
-99.5807
0
LINE
8
Black
10
161.594
20
-99.5807
11
161.503
21
-99.633
0
LINE
8
Black
10
161.503
20
-99.633
11
161.4
21
-99.6511
0
LINE
8
Black
10
161.4
20
-99.6511
11
161.297
21
-99.633
0
LINE
8
Black
10
161.297
20
-99.633
11
161.206
21
-99.5807
0
LINE
8
Black
10
161.206
20
-99.5807
11
161.179
21
-99.5479
0
LINE
8
Black
10
161.179
20
-99.5479
11
159.725
21
-101.002
0
LINE
8
Black
10
159.725
20
-101.002
11
159.725
21
-101.798
0
LINE
8
Black
10
159.725
20
-101.798
11
160.452
21
-102.525
0
LINE
8
Black
10
160.452
20
-102.525
11
161.848
21
-102.525
0
LINE
8
Black
10
161.848
20
-102.525
11
163.562
21
-100.812
0
LINE
8
Black
10
163.562
20
-100.812
11
163.562
21
-100.812
0
LINE
8
Black
10
163.562
20
-100.812
11
163.662
21
-100.712
0
LINE
8
Black
10
163.662
20
-100.712
11
163.666
21
-100.708
0
LINE
8
Black
10
163.666
20
-100.708
11
163.67
21
-100.704
0
LINE
8
Black
10
163.67
20
-100.704
11
163.684
21
-100.696
0
LINE
8
Black
10
163.684
20
-100.696
11
163.697
21
-100.687
0
LINE
8
Black
10
163.697
20
-100.687
11
163.702
21
-100.685
0
LINE
8
Black
10
163.702
20
-100.685
11
163.707
21
-100.683
0
LINE
8
Black
10
163.707
20
-100.683
11
163.723
21
-100.68
0
LINE
8
Black
10
163.723
20
-100.68
11
163.739
21
-100.675
0
LINE
8
Black
10
163.739
20
-100.675
11
163.745
21
-100.676
0
LINE
8
Black
10
163.745
20
-100.676
11
163.75
21
-100.675
0
LINE
8
Black
10
163.75
20
-100.675
11
166.648
21
-100.675
0
LINE
8
Black
10
166.648
20
-100.675
11
167.371
21
-99.9518
0
LINE
8
Black
10
167.371
20
-99.9518
11
167.353
21
-99.9023
0
LINE
8
Black
10
167.353
20
-99.9023
11
167.353
21
-99.7977
0
LINE
8
Black
10
167.353
20
-99.7977
11
167.389
21
-99.6994
0
LINE
8
Black
10
167.389
20
-99.6994
11
167.456
21
-99.6193
0
LINE
8
Black
10
167.456
20
-99.6193
11
167.547
21
-99.567
0
LINE
8
Black
10
167.547
20
-99.567
11
167.65
21
-99.5489
0
LINE
8
Black
10
167.65
20
-99.5489
11
167.753
21
-99.567
0
LINE
8
Black
10
167.753
20
-99.567
11
167.844
21
-99.6193
0
LINE
8
Black
10
167.844
20
-99.6193
11
167.911
21
-99.6994
0
LINE
8
Black
10
167.911
20
-99.6994
11
167.947
21
-99.7977
0
LINE
8
Black
10
167.947
20
-99.7977
11
167.947
21
-99.9023
0
LINE
8
Black
10
167.947
20
-99.9023
11
167.911
21
-100.001
0
LINE
8
Black
10
167.911
20
-100.001
11
167.844
21
-100.081
0
LINE
8
Black
10
167.844
20
-100.081
11
167.753
21
-100.133
0
LINE
8
Black
10
167.753
20
-100.133
11
167.65
21
-100.151
0
LINE
8
Black
10
167.65
20
-100.151
11
167.547
21
-100.133
0
LINE
8
Black
10
167.547
20
-100.133
11
167.545
21
-100.132
0
LINE
8
Black
10
167.545
20
-100.132
11
166.788
21
-100.888
0
LINE
8
Black
10
166.788
20
-100.888
11
166.784
21
-100.892
0
LINE
8
Black
10
166.784
20
-100.892
11
166.78
21
-100.896
0
LINE
8
Black
10
166.78
20
-100.896
11
166.766
21
-100.904
0
LINE
8
Black
10
166.766
20
-100.904
11
166.753
21
-100.913
0
LINE
8
Black
10
166.753
20
-100.913
11
166.748
21
-100.915
0
LINE
8
Black
10
166.748
20
-100.915
11
166.743
21
-100.917
0
LINE
8
Black
10
166.743
20
-100.917
11
166.727
21
-100.92
0
LINE
8
Black
10
166.727
20
-100.92
11
166.711
21
-100.925
0
LINE
8
Black
10
166.711
20
-100.925
11
166.705
21
-100.924
0
LINE
8
Black
10
166.705
20
-100.924
11
166.7
21
-100.925
0
LINE
8
Black
10
166.7
20
-100.925
11
163.802
21
-100.925
0
LINE
8
Black
10
163.802
20
-100.925
11
163.738
21
-100.988
0
LINE
8
Black
10
163.738
20
-100.988
11
163.738
21
-100.988
0
LINE
8
Black
10
163.738
20
-100.988
11
162.025
21
-102.702
0
LINE
8
Black
10
162.025
20
-102.702
11
162.025
21
-104.4
0
LINE
8
Black
10
162.025
20
-104.4
11
162.024
21
-104.405
0
LINE
8
Black
10
162.024
20
-104.405
11
162.025
21
-104.411
0
LINE
8
Black
10
162.025
20
-104.411
11
162.02
21
-104.427
0
LINE
8
Black
10
162.02
20
-104.427
11
162.017
21
-104.443
0
LINE
8
Black
10
162.017
20
-104.443
11
162.015
21
-104.448
0
LINE
8
Black
10
162.015
20
-104.448
11
162.013
21
-104.453
0
LINE
8
Black
10
162.013
20
-104.453
11
162.004
21
-104.466
0
LINE
8
Black
10
162.004
20
-104.466
11
161.996
21
-104.48
0
LINE
8
Black
10
161.996
20
-104.48
11
161.992
21
-104.484
0
LINE
8
Black
10
161.992
20
-104.484
11
161.988
21
-104.488
0
LINE
8
Black
10
161.988
20
-104.488
11
161.265
21
-105.212
0
LINE
8
Black
10
161.265
20
-105.212
11
161.297
21
-105.298
0
LINE
8
Black
10
161.297
20
-105.298
11
161.297
21
-105.402
0
LINE
8
Black
10
161.297
20
-105.402
11
161.279
21
-105.452
0
LINE
8
Black
10
161.279
20
-105.452
11
161.652
21
-105.825
0
LINE
8
Black
10
161.652
20
-105.825
11
162.9
21
-105.825
0
LINE
8
Black
10
162.9
20
-105.825
11
162.905
21
-105.826
0
LINE
8
Black
10
162.905
20
-105.826
11
162.911
21
-105.825
0
LINE
8
Black
10
162.911
20
-105.825
11
162.927
21
-105.83
0
LINE
8
Black
10
162.927
20
-105.83
11
162.943
21
-105.833
0
LINE
8
Black
10
162.943
20
-105.833
11
162.948
21
-105.835
0
LINE
8
Black
10
162.948
20
-105.835
11
162.953
21
-105.837
0
LINE
8
Black
10
162.953
20
-105.837
11
162.966
21
-105.846
0
LINE
8
Black
10
162.966
20
-105.846
11
162.98
21
-105.854
0
LINE
8
Black
10
162.98
20
-105.854
11
162.984
21
-105.858
0
LINE
8
Black
10
162.984
20
-105.858
11
162.988
21
-105.862
0
LINE
8
Black
10
162.988
20
-105.862
11
163.738
21
-106.612
0
LINE
8
Black
10
163.738
20
-106.612
11
164.238
21
-107.112
0
LINE
8
Black
10
164.238
20
-107.112
11
164.238
21
-107.112
0
LINE
8
Black
10
164.238
20
-107.112
11
164.452
21
-107.325
0
LINE
8
Black
10
164.452
20
-107.325
11
165.198
21
-107.325
0
LINE
8
Black
10
165.198
20
-107.325
11
165.212
21
-107.312
0
LINE
8
Black
10
165.212
20
-107.312
11
165.216
21
-107.308
0
LINE
8
Black
10
165.216
20
-107.308
11
165.22
21
-107.304
0
LINE
8
Black
10
165.22
20
-107.304
11
165.234
21
-107.296
0
LINE
8
Black
10
165.234
20
-107.296
11
165.247
21
-107.287
0
LINE
8
Black
10
165.247
20
-107.287
11
165.252
21
-107.285
0
LINE
8
Black
10
165.252
20
-107.285
11
165.257
21
-107.283
0
LINE
8
Black
10
165.257
20
-107.283
11
165.273
21
-107.28
0
LINE
8
Black
10
165.273
20
-107.28
11
165.289
21
-107.275
0
LINE
8
Black
10
165.289
20
-107.275
11
165.295
21
-107.276
0
LINE
8
Black
10
165.295
20
-107.276
11
165.3
21
-107.275
0
LINE
8
Black
10
165.3
20
-107.275
11
166.4
21
-107.275
0
LINE
8
Black
10
166.4
20
-107.275
11
166.405
21
-107.276
0
LINE
8
Black
10
166.405
20
-107.276
11
166.411
21
-107.275
0
LINE
8
Black
10
166.411
20
-107.275
11
166.427
21
-107.28
0
LINE
8
Black
10
166.427
20
-107.28
11
166.443
21
-107.283
0
LINE
8
Black
10
166.443
20
-107.283
11
166.448
21
-107.285
0
LINE
8
Black
10
166.448
20
-107.285
11
166.453
21
-107.287
0
LINE
8
Black
10
166.453
20
-107.287
11
166.466
21
-107.296
0
LINE
8
Black
10
166.466
20
-107.296
11
166.48
21
-107.304
0
LINE
8
Black
10
166.48
20
-107.304
11
166.484
21
-107.308
0
LINE
8
Black
10
166.484
20
-107.308
11
166.488
21
-107.312
0
LINE
8
Black
10
166.488
20
-107.312
11
183.238
21
-124.062
0
LINE
8
Black
10
183.238
20
-124.062
11
183.338
21
-124.162
0
LINE
8
Black
10
183.338
20
-124.162
11
183.338
21
-124.162
0
LINE
8
Black
10
183.338
20
-124.162
11
183.438
21
-124.262
0
LINE
8
Black
10
183.438
20
-124.262
11
183.463
21
-124.297
0
LINE
8
Black
10
183.463
20
-124.297
11
183.475
21
-124.339
0
LINE
8
Black
10
183.475
20
-124.339
11
183.471
21
-124.382
0
LINE
8
Black
10
183.471
20
-124.382
11
183.452
21
-124.422
0
LINE
8
Black
10
183.452
20
-124.422
11
183.422
21
-124.452
0
LINE
8
Black
10
183.422
20
-124.452
11
183.382
21
-124.471
0
LINE
8
Black
10
183.382
20
-124.471
11
183.339
21
-124.475
0
LINE
8
Black
10
183.339
20
-124.475
11
183.297
21
-124.463
0
LINE
8
Black
10
183.297
20
-124.463
11
183.262
21
-124.438
0
LINE
8
Black
10
183.262
20
-124.438
11
183.162
21
-124.338
0
LINE
8
Black
10
183.162
20
-124.338
11
183.162
21
-124.338
0
LINE
8
Black
10
183.162
20
-124.338
11
183.098
21
-124.275
0
LINE
8
Black
10
183.098
20
-124.275
11
182.902
21
-124.275
0
LINE
8
Black
10
182.902
20
-124.275
11
182.375
21
-124.802
0
LINE
8
Black
10
182.375
20
-124.802
11
182.375
21
-125.198
0
LINE
8
Black
10
182.375
20
-125.198
11
182.702
21
-125.525
0
LINE
8
Black
10
182.702
20
-125.525
11
183.148
21
-125.525
0
LINE
8
Black
10
183.148
20
-125.525
11
183.323
21
-125.35
0
LINE
8
Black
10
183.323
20
-125.35
11
183.328
21
-125.347
0
LINE
8
Black
10
183.328
20
-125.347
11
183.331
21
-125.343
0
LINE
8
Black
10
183.331
20
-125.343
11
183.345
21
-125.334
0
LINE
8
Black
10
183.345
20
-125.334
11
183.359
21
-125.325
0
LINE
8
Black
10
183.359
20
-125.325
11
183.364
21
-125.324
0
LINE
8
Black
10
183.364
20
-125.324
11
183.369
21
-125.321
0
LINE
8
Black
10
183.369
20
-125.321
11
183.385
21
-125.318
0
LINE
8
Black
10
183.385
20
-125.318
11
183.401
21
-125.314
0
LINE
8
Black
10
183.401
20
-125.314
11
183.406
21
-125.314
0
LINE
8
Black
10
183.406
20
-125.314
11
183.412
21
-125.313
0
LINE
8
Black
10
183.412
20
-125.313
11
184.05
21
-125.313
0
LINE
8
Black
10
184.05
20
-125.313
11
184.19
21
-125.173
0
LINE
8
Black
10
184.19
20
-125.173
11
184.402
21
-125.385
0
LINE
8
Black
10
184.402
20
-125.385
11
184.084
21
-125.704
0
LINE
8
Black
10
184.084
20
-125.704
11
183.944
21
-125.563
0
LINE
8
Black
10
183.944
20
-125.563
11
183.938
21
-125.563
0
LINE
8
Black
10
183.938
20
-125.563
11
183.463
21
-125.563
0
LINE
8
Black
10
183.463
20
-125.563
11
183.288
21
-125.738
0
LINE
8
Black
10
183.872
20
-124.509
11
184.19
21
-124.827
0
LINE
8
Black
10
184.19
20
-124.827
11
183.978
21
-125.039
0
LINE
8
Black
10
183.978
20
-125.039
11
183.838
21
-124.899
0
LINE
8
Black
10
183.838
20
-124.899
11
183.324
21
-124.899
0
LINE
8
Black
10
183.324
20
-124.899
11
183.303
21
-124.913
0
LINE
8
Black
10
183.303
20
-124.913
11
183.261
21
-124.925
0
LINE
8
Black
10
183.261
20
-124.925
11
183.218
21
-124.921
0
LINE
8
Black
10
183.218
20
-124.921
11
183.18
21
-124.903
0
LINE
8
Black
10
183.18
20
-124.903
11
183.197
21
-124.948
0
LINE
8
Black
10
183.197
20
-124.948
11
183.197
21
-125.052
0
LINE
8
Black
10
183.197
20
-125.052
11
183.161
21
-125.151
0
LINE
8
Black
10
183.161
20
-125.151
11
183.094
21
-125.231
0
LINE
8
Black
10
183.094
20
-125.231
11
183.003
21
-125.283
0
LINE
8
Black
10
183.003
20
-125.283
11
182.9
21
-125.301
0
LINE
8
Black
10
182.9
20
-125.301
11
182.797
21
-125.283
0
LINE
8
Black
10
182.797
20
-125.283
11
182.706
21
-125.231
0
LINE
8
Black
10
182.706
20
-125.231
11
182.639
21
-125.151
0
LINE
8
Black
10
182.639
20
-125.151
11
182.603
21
-125.052
0
LINE
8
Black
10
182.603
20
-125.052
11
182.603
21
-124.948
0
LINE
8
Black
10
182.603
20
-124.948
11
182.639
21
-124.849
0
LINE
8
Black
10
182.639
20
-124.849
11
182.706
21
-124.769
0
LINE
8
Black
10
182.706
20
-124.769
11
182.797
21
-124.717
0
LINE
8
Black
10
182.797
20
-124.717
11
182.9
21
-124.699
0
LINE
8
Black
10
182.9
20
-124.699
11
183.003
21
-124.717
0
LINE
8
Black
10
183.003
20
-124.717
11
183.005
21
-124.718
0
LINE
8
Black
10
183.005
20
-124.718
11
183.038
21
-124.685
0
LINE
8
Black
10
183.038
20
-124.685
11
183.042
21
-124.682
0
LINE
8
Black
10
183.042
20
-124.682
11
183.046
21
-124.678
0
LINE
8
Black
10
183.046
20
-124.678
11
183.06
21
-124.67
0
LINE
8
Black
10
183.06
20
-124.67
11
183.073
21
-124.66
0
LINE
8
Black
10
183.073
20
-124.66
11
183.079
21
-124.659
0
LINE
8
Black
10
183.079
20
-124.659
11
183.084
21
-124.656
0
LINE
8
Black
10
183.084
20
-124.656
11
183.1
21
-124.653
0
LINE
8
Black
10
183.1
20
-124.653
11
183.115
21
-124.649
0
LINE
8
Black
10
183.115
20
-124.649
11
183.121
21
-124.65
0
LINE
8
Black
10
183.121
20
-124.65
11
183.126
21
-124.649
0
LINE
8
Black
10
183.126
20
-124.649
11
183.276
21
-124.649
0
LINE
8
Black
10
183.276
20
-124.649
11
183.732
21
-124.649
0
LINE
8
Black
10
183.732
20
-124.649
11
183.872
21
-124.509
0
LINE
8
Black
10
186.128
20
-124.509
11
185.81
21
-124.827
0
LINE
8
Black
10
185.81
20
-124.827
11
185.598
21
-124.615
0
LINE
8
Black
10
185.598
20
-124.615
11
185.916
21
-124.296
0
LINE
8
Black
10
185.916
20
-124.296
11
186.128
21
-124.509
0
LINE
8
Black
10
164.225
20
-104.798
11
164.225
21
-103.75
0
LINE
8
Black
10
164.225
20
-103.75
11
164.226
21
-103.745
0
LINE
8
Black
10
164.226
20
-103.745
11
164.225
21
-103.739
0
LINE
8
Black
10
164.225
20
-103.739
11
164.23
21
-103.723
0
LINE
8
Black
10
164.23
20
-103.723
11
164.233
21
-103.707
0
LINE
8
Black
10
164.233
20
-103.707
11
164.235
21
-103.702
0
LINE
8
Black
10
164.235
20
-103.702
11
164.237
21
-103.697
0
LINE
8
Black
10
164.237
20
-103.697
11
164.246
21
-103.684
0
LINE
8
Black
10
164.246
20
-103.684
11
164.254
21
-103.67
0
LINE
8
Black
10
164.254
20
-103.67
11
164.258
21
-103.666
0
LINE
8
Black
10
164.258
20
-103.666
11
164.262
21
-103.662
0
LINE
8
Black
10
164.262
20
-103.662
11
166.262
21
-101.662
0
LINE
8
Black
10
166.262
20
-101.662
11
166.266
21
-101.658
0
LINE
8
Black
10
166.266
20
-101.658
11
166.27
21
-101.654
0
LINE
8
Black
10
166.27
20
-101.654
11
166.284
21
-101.646
0
LINE
8
Black
10
166.284
20
-101.646
11
166.297
21
-101.637
0
LINE
8
Black
10
166.297
20
-101.637
11
166.302
21
-101.635
0
LINE
8
Black
10
166.302
20
-101.635
11
166.307
21
-101.633
0
LINE
8
Black
10
166.307
20
-101.633
11
166.323
21
-101.63
0
LINE
8
Black
10
166.323
20
-101.63
11
166.339
21
-101.625
0
LINE
8
Black
10
166.339
20
-101.625
11
166.345
21
-101.626
0
LINE
8
Black
10
166.345
20
-101.626
11
166.35
21
-101.625
0
LINE
8
Black
10
166.35
20
-101.625
11
167.398
21
-101.625
0
LINE
8
Black
10
167.398
20
-101.625
11
169.325
21
-99.6982
0
LINE
8
Black
10
169.325
20
-99.6982
11
169.325
21
-99.65
0
LINE
8
Black
10
169.325
20
-99.65
11
169.325
21
-99.6
0
LINE
8
Black
10
169.325
20
-99.6
11
169.325
21
-99.2518
0
LINE
8
Black
10
169.325
20
-99.2518
11
168.948
21
-98.875
0
LINE
8
Black
10
168.948
20
-98.875
11
167.902
21
-98.875
0
LINE
8
Black
10
167.902
20
-98.875
11
166.528
21
-100.248
0
LINE
8
Black
10
166.528
20
-100.248
11
166.524
21
-100.252
0
LINE
8
Black
10
166.524
20
-100.252
11
166.52
21
-100.256
0
LINE
8
Black
10
166.52
20
-100.256
11
166.506
21
-100.264
0
LINE
8
Black
10
166.506
20
-100.264
11
166.493
21
-100.273
0
LINE
8
Black
10
166.493
20
-100.273
11
166.488
21
-100.275
0
LINE
8
Black
10
166.488
20
-100.275
11
166.483
21
-100.277
0
LINE
8
Black
10
166.483
20
-100.277
11
166.467
21
-100.28
0
LINE
8
Black
10
166.467
20
-100.28
11
166.451
21
-100.285
0
LINE
8
Black
10
166.451
20
-100.285
11
166.445
21
-100.284
0
LINE
8
Black
10
166.445
20
-100.284
11
166.44
21
-100.285
0
LINE
8
Black
10
166.44
20
-100.285
11
166.15
21
-100.285
0
LINE
8
Black
10
166.15
20
-100.285
11
166.141
21
-100.311
0
LINE
8
Black
10
166.141
20
-100.311
11
166.074
21
-100.391
0
LINE
8
Black
10
166.074
20
-100.391
11
165.983
21
-100.443
0
LINE
8
Black
10
165.983
20
-100.443
11
165.88
21
-100.461
0
LINE
8
Black
10
165.88
20
-100.461
11
165.777
21
-100.443
0
LINE
8
Black
10
165.777
20
-100.443
11
165.686
21
-100.391
0
LINE
8
Black
10
165.686
20
-100.391
11
165.619
21
-100.311
0
LINE
8
Black
10
165.619
20
-100.311
11
165.61
21
-100.285
0
LINE
8
Black
10
165.61
20
-100.285
11
163.792
21
-100.285
0
LINE
8
Black
10
163.792
20
-100.285
11
161.788
21
-102.288
0
LINE
8
Black
10
161.788
20
-102.288
11
161.784
21
-102.292
0
LINE
8
Black
10
161.784
20
-102.292
11
161.78
21
-102.296
0
LINE
8
Black
10
161.78
20
-102.296
11
161.766
21
-102.304
0
LINE
8
Black
10
161.766
20
-102.304
11
161.753
21
-102.313
0
LINE
8
Black
10
161.753
20
-102.313
11
161.748
21
-102.315
0
LINE
8
Black
10
161.748
20
-102.315
11
161.743
21
-102.317
0
LINE
8
Black
10
161.743
20
-102.317
11
161.727
21
-102.32
0
LINE
8
Black
10
161.727
20
-102.32
11
161.711
21
-102.325
0
LINE
8
Black
10
161.711
20
-102.325
11
161.705
21
-102.324
0
LINE
8
Black
10
161.705
20
-102.324
11
161.7
21
-102.325
0
LINE
8
Black
10
161.7
20
-102.325
11
160.55
21
-102.325
0
LINE
8
Black
10
160.55
20
-102.325
11
160.545
21
-102.324
0
LINE
8
Black
10
160.545
20
-102.324
11
160.539
21
-102.325
0
LINE
8
Black
10
160.539
20
-102.325
11
160.523
21
-102.32
0
LINE
8
Black
10
160.523
20
-102.32
11
160.507
21
-102.317
0
LINE
8
Black
10
160.507
20
-102.317
11
160.502
21
-102.315
0
LINE
8
Black
10
160.502
20
-102.315
11
160.497
21
-102.313
0
LINE
8
Black
10
160.497
20
-102.313
11
160.484
21
-102.304
0
LINE
8
Black
10
160.484
20
-102.304
11
160.47
21
-102.296
0
LINE
8
Black
10
160.47
20
-102.296
11
160.466
21
-102.292
0
LINE
8
Black
10
160.466
20
-102.292
11
160.462
21
-102.288
0
LINE
8
Black
10
160.462
20
-102.288
11
159.962
21
-101.788
0
LINE
8
Black
10
159.962
20
-101.788
11
159.958
21
-101.784
0
LINE
8
Black
10
159.958
20
-101.784
11
159.954
21
-101.78
0
LINE
8
Black
10
159.954
20
-101.78
11
159.946
21
-101.766
0
LINE
8
Black
10
159.946
20
-101.766
11
159.937
21
-101.753
0
LINE
8
Black
10
159.937
20
-101.753
11
159.935
21
-101.748
0
LINE
8
Black
10
159.935
20
-101.748
11
159.933
21
-101.743
0
LINE
8
Black
10
159.933
20
-101.743
11
159.93
21
-101.727
0
LINE
8
Black
10
159.93
20
-101.727
11
159.925
21
-101.711
0
LINE
8
Black
10
159.925
20
-101.711
11
159.926
21
-101.705
0
LINE
8
Black
10
159.926
20
-101.705
11
159.925
21
-101.7
0
LINE
8
Black
10
159.925
20
-101.7
11
159.925
21
-101.2
0
LINE
8
Black
10
159.925
20
-101.2
11
159.926
21
-101.195
0
LINE
8
Black
10
159.926
20
-101.195
11
159.925
21
-101.189
0
LINE
8
Black
10
159.925
20
-101.189
11
159.93
21
-101.173
0
LINE
8
Black
10
159.93
20
-101.173
11
159.933
21
-101.157
0
LINE
8
Black
10
159.933
20
-101.157
11
159.935
21
-101.152
0
LINE
8
Black
10
159.935
20
-101.152
11
159.937
21
-101.147
0
LINE
8
Black
10
159.937
20
-101.147
11
159.946
21
-101.134
0
LINE
8
Black
10
159.946
20
-101.134
11
159.954
21
-101.12
0
LINE
8
Black
10
159.954
20
-101.12
11
159.958
21
-101.116
0
LINE
8
Black
10
159.958
20
-101.116
11
159.962
21
-101.112
0
LINE
8
Black
10
159.962
20
-101.112
11
161.012
21
-100.062
0
LINE
8
Black
10
161.012
20
-100.062
11
161.016
21
-100.058
0
LINE
8
Black
10
161.016
20
-100.058
11
161.02
21
-100.054
0
LINE
8
Black
10
161.02
20
-100.054
11
161.034
21
-100.046
0
LINE
8
Black
10
161.034
20
-100.046
11
161.047
21
-100.037
0
LINE
8
Black
10
161.047
20
-100.037
11
161.052
21
-100.035
0
LINE
8
Black
10
161.052
20
-100.035
11
161.057
21
-100.033
0
LINE
8
Black
10
161.057
20
-100.033
11
161.073
21
-100.03
0
LINE
8
Black
10
161.073
20
-100.03
11
161.089
21
-100.025
0
LINE
8
Black
10
161.089
20
-100.025
11
161.095
21
-100.026
0
LINE
8
Black
10
161.095
20
-100.026
11
161.1
21
-100.025
0
LINE
8
Black
10
161.1
20
-100.025
11
161.13
21
-100.025
0
LINE
8
Black
10
161.13
20
-100.025
11
161.139
21
-99.9994
0
LINE
8
Black
10
161.139
20
-99.9994
11
161.206
21
-99.9193
0
LINE
8
Black
10
161.206
20
-99.9193
11
161.297
21
-99.867
0
LINE
8
Black
10
161.297
20
-99.867
11
161.4
21
-99.8489
0
LINE
8
Black
10
161.4
20
-99.8489
11
161.503
21
-99.867
0
LINE
8
Black
10
161.503
20
-99.867
11
161.594
21
-99.9193
0
LINE
8
Black
10
161.594
20
-99.9193
11
161.661
21
-99.9994
0
LINE
8
Black
10
161.661
20
-99.9994
11
161.697
21
-100.098
0
LINE
8
Black
10
161.697
20
-100.098
11
161.697
21
-100.202
0
LINE
8
Black
10
161.697
20
-100.202
11
161.661
21
-100.301
0
LINE
8
Black
10
161.661
20
-100.301
11
161.594
21
-100.381
0
LINE
8
Black
10
161.594
20
-100.381
11
161.503
21
-100.433
0
LINE
8
Black
10
161.503
20
-100.433
11
161.4
21
-100.451
0
LINE
8
Black
10
161.4
20
-100.451
11
161.297
21
-100.433
0
LINE
8
Black
10
161.297
20
-100.433
11
161.206
21
-100.381
0
LINE
8
Black
10
161.206
20
-100.381
11
161.139
21
-100.301
0
LINE
8
Black
10
161.139
20
-100.301
11
161.136
21
-100.291
0
LINE
8
Black
10
161.136
20
-100.291
11
160.175
21
-101.252
0
LINE
8
Black
10
160.175
20
-101.252
11
160.175
21
-101.648
0
LINE
8
Black
10
160.175
20
-101.648
11
160.602
21
-102.075
0
LINE
8
Black
10
160.602
20
-102.075
11
161.648
21
-102.075
0
LINE
8
Black
10
161.648
20
-102.075
11
163.652
21
-100.072
0
LINE
8
Black
10
163.652
20
-100.072
11
163.656
21
-100.068
0
LINE
8
Black
10
163.656
20
-100.068
11
163.66
21
-100.064
0
LINE
8
Black
10
163.66
20
-100.064
11
163.674
21
-100.056
0
LINE
8
Black
10
163.674
20
-100.056
11
163.687
21
-100.047
0
LINE
8
Black
10
163.687
20
-100.047
11
163.692
21
-100.045
0
LINE
8
Black
10
163.692
20
-100.045
11
163.697
21
-100.043
0
LINE
8
Black
10
163.697
20
-100.043
11
163.713
21
-100.04
0
LINE
8
Black
10
163.713
20
-100.04
11
163.729
21
-100.035
0
LINE
8
Black
10
163.729
20
-100.035
11
163.735
21
-100.036
0
LINE
8
Black
10
163.735
20
-100.036
11
163.74
21
-100.035
0
LINE
8
Black
10
163.74
20
-100.035
11
165.61
21
-100.035
0
LINE
8
Black
10
165.61
20
-100.035
11
165.619
21
-100.009
0
LINE
8
Black
10
165.619
20
-100.009
11
165.686
21
-99.9293
0
LINE
8
Black
10
165.686
20
-99.9293
11
165.777
21
-99.877
0
LINE
8
Black
10
165.777
20
-99.877
11
165.88
21
-99.8589
0
LINE
8
Black
10
165.88
20
-99.8589
11
165.983
21
-99.877
0
LINE
8
Black
10
165.983
20
-99.877
11
166.074
21
-99.9293
0
LINE
8
Black
10
166.074
20
-99.9293
11
166.141
21
-100.009
0
LINE
8
Black
10
166.141
20
-100.009
11
166.15
21
-100.035
0
LINE
8
Black
10
166.15
20
-100.035
11
166.388
21
-100.035
0
LINE
8
Black
10
166.388
20
-100.035
11
167.762
21
-98.6616
0
LINE
8
Black
10
167.762
20
-98.6616
11
167.766
21
-98.6585
0
LINE
8
Black
10
167.766
20
-98.6585
11
167.77
21
-98.6542
0
LINE
8
Black
10
167.77
20
-98.6542
11
167.784
21
-98.6461
0
LINE
8
Black
10
167.784
20
-98.6461
11
167.797
21
-98.6367
0
LINE
8
Black
10
167.797
20
-98.6367
11
167.802
21
-98.6353
0
LINE
8
Black
10
167.802
20
-98.6353
11
167.807
21
-98.6325
0
LINE
8
Black
10
167.807
20
-98.6325
11
167.823
21
-98.6297
0
LINE
8
Black
10
167.823
20
-98.6297
11
167.839
21
-98.6255
0
LINE
8
Black
10
167.839
20
-98.6255
11
167.845
21
-98.626
0
LINE
8
Black
10
167.845
20
-98.626
11
167.85
21
-98.625
0
LINE
8
Black
10
167.85
20
-98.625
11
169
21
-98.625
0
LINE
8
Black
10
169
20
-98.625
11
169.005
21
-98.626
0
LINE
8
Black
10
169.005
20
-98.626
11
169.011
21
-98.6255
0
LINE
8
Black
10
169.011
20
-98.6255
11
169.027
21
-98.6297
0
LINE
8
Black
10
169.027
20
-98.6297
11
169.043
21
-98.6325
0
LINE
8
Black
10
169.043
20
-98.6325
11
169.048
21
-98.6353
0
LINE
8
Black
10
169.048
20
-98.6353
11
169.053
21
-98.6367
0
LINE
8
Black
10
169.053
20
-98.6367
11
169.066
21
-98.6461
0
LINE
8
Black
10
169.066
20
-98.6461
11
169.08
21
-98.6542
0
LINE
8
Black
10
169.08
20
-98.6542
11
169.084
21
-98.6585
0
LINE
8
Black
10
169.084
20
-98.6585
11
169.088
21
-98.6616
0
LINE
8
Black
10
169.088
20
-98.6616
11
169.538
21
-99.1116
0
LINE
8
Black
10
169.538
20
-99.1116
11
169.542
21
-99.1161
0
LINE
8
Black
10
169.542
20
-99.1161
11
169.546
21
-99.1197
0
LINE
8
Black
10
169.546
20
-99.1197
11
169.554
21
-99.1338
0
LINE
8
Black
10
169.554
20
-99.1338
11
169.563
21
-99.1472
0
LINE
8
Black
10
169.563
20
-99.1472
11
169.565
21
-99.1525
0
LINE
8
Black
10
169.565
20
-99.1525
11
169.567
21
-99.1572
0
LINE
8
Black
10
169.567
20
-99.1572
11
169.57
21
-99.1733
0
LINE
8
Black
10
169.57
20
-99.1733
11
169.575
21
-99.1891
0
LINE
8
Black
10
169.575
20
-99.1891
11
169.574
21
-99.1946
0
LINE
8
Black
10
169.574
20
-99.1946
11
169.575
21
-99.2
0
LINE
8
Black
10
169.575
20
-99.2
11
169.575
21
-99.6
0
LINE
8
Black
10
169.575
20
-99.6
11
169.575
21
-99.65
0
LINE
8
Black
10
169.575
20
-99.65
11
169.575
21
-99.75
0
LINE
8
Black
10
169.575
20
-99.75
11
169.574
21
-99.7554
0
LINE
8
Black
10
169.574
20
-99.7554
11
169.575
21
-99.7609
0
LINE
8
Black
10
169.575
20
-99.7609
11
169.57
21
-99.7767
0
LINE
8
Black
10
169.57
20
-99.7767
11
169.567
21
-99.7928
0
LINE
8
Black
10
169.567
20
-99.7928
11
169.565
21
-99.7975
0
LINE
8
Black
10
169.565
20
-99.7975
11
169.563
21
-99.8028
0
LINE
8
Black
10
169.563
20
-99.8028
11
169.554
21
-99.8162
0
LINE
8
Black
10
169.554
20
-99.8162
11
169.546
21
-99.8303
0
LINE
8
Black
10
169.546
20
-99.8303
11
169.542
21
-99.8339
0
LINE
8
Black
10
169.542
20
-99.8339
11
169.538
21
-99.8384
0
LINE
8
Black
10
169.538
20
-99.8384
11
167.538
21
-101.838
0
LINE
8
Black
10
167.538
20
-101.838
11
167.534
21
-101.842
0
LINE
8
Black
10
167.534
20
-101.842
11
167.53
21
-101.846
0
LINE
8
Black
10
167.53
20
-101.846
11
167.516
21
-101.854
0
LINE
8
Black
10
167.516
20
-101.854
11
167.503
21
-101.863
0
LINE
8
Black
10
167.503
20
-101.863
11
167.498
21
-101.865
0
LINE
8
Black
10
167.498
20
-101.865
11
167.493
21
-101.867
0
LINE
8
Black
10
167.493
20
-101.867
11
167.477
21
-101.87
0
LINE
8
Black
10
167.477
20
-101.87
11
167.461
21
-101.875
0
LINE
8
Black
10
167.461
20
-101.875
11
167.455
21
-101.874
0
LINE
8
Black
10
167.455
20
-101.874
11
167.45
21
-101.875
0
LINE
8
Black
10
167.45
20
-101.875
11
166.402
21
-101.875
0
LINE
8
Black
10
166.402
20
-101.875
11
164.475
21
-103.802
0
LINE
8
Black
10
164.475
20
-103.802
11
164.475
21
-104.85
0
LINE
8
Black
10
164.475
20
-104.85
11
164.474
21
-104.855
0
LINE
8
Black
10
164.474
20
-104.855
11
164.475
21
-104.861
0
LINE
8
Black
10
164.475
20
-104.861
11
164.47
21
-104.877
0
LINE
8
Black
10
164.47
20
-104.877
11
164.467
21
-104.893
0
LINE
8
Black
10
164.467
20
-104.893
11
164.465
21
-104.898
0
LINE
8
Black
10
164.465
20
-104.898
11
164.463
21
-104.903
0
LINE
8
Black
10
164.463
20
-104.903
11
164.454
21
-104.916
0
LINE
8
Black
10
164.454
20
-104.916
11
164.446
21
-104.93
0
LINE
8
Black
10
164.446
20
-104.93
11
164.442
21
-104.934
0
LINE
8
Black
10
164.442
20
-104.934
11
164.438
21
-104.938
0
LINE
8
Black
10
164.438
20
-104.938
11
163.938
21
-105.438
0
LINE
8
Black
10
163.938
20
-105.438
11
163.934
21
-105.442
0
LINE
8
Black
10
163.934
20
-105.442
11
163.93
21
-105.446
0
LINE
8
Black
10
163.93
20
-105.446
11
163.916
21
-105.454
0
LINE
8
Black
10
163.916
20
-105.454
11
163.903
21
-105.463
0
LINE
8
Black
10
163.903
20
-105.463
11
163.898
21
-105.465
0
LINE
8
Black
10
163.898
20
-105.465
11
163.893
21
-105.467
0
LINE
8
Black
10
163.893
20
-105.467
11
163.877
21
-105.47
0
LINE
8
Black
10
163.877
20
-105.47
11
163.861
21
-105.475
0
LINE
8
Black
10
163.861
20
-105.475
11
163.855
21
-105.474
0
LINE
8
Black
10
163.855
20
-105.474
11
163.85
21
-105.475
0
LINE
8
Black
10
163.85
20
-105.475
11
163.425
21
-105.475
0
LINE
8
Black
10
163.425
20
-105.475
11
163.425
21
-105.648
0
LINE
8
Black
10
163.425
20
-105.648
11
164.438
21
-106.662
0
LINE
8
Black
10
164.438
20
-106.662
11
164.438
21
-106.662
0
LINE
8
Black
10
164.438
20
-106.662
11
164.652
21
-106.875
0
LINE
8
Black
10
164.652
20
-106.875
11
165.048
21
-106.875
0
LINE
8
Black
10
165.048
20
-106.875
11
165.062
21
-106.862
0
LINE
8
Black
10
165.062
20
-106.862
11
165.066
21
-106.858
0
LINE
8
Black
10
165.066
20
-106.858
11
165.07
21
-106.854
0
LINE
8
Black
10
165.07
20
-106.854
11
165.084
21
-106.846
0
LINE
8
Black
10
165.084
20
-106.846
11
165.097
21
-106.837
0
LINE
8
Black
10
165.097
20
-106.837
11
165.102
21
-106.835
0
LINE
8
Black
10
165.102
20
-106.835
11
165.107
21
-106.833
0
LINE
8
Black
10
165.107
20
-106.833
11
165.123
21
-106.83
0
LINE
8
Black
10
165.123
20
-106.83
11
165.139
21
-106.825
0
LINE
8
Black
10
165.139
20
-106.825
11
165.145
21
-106.826
0
LINE
8
Black
10
165.145
20
-106.826
11
165.15
21
-106.825
0
LINE
8
Black
10
165.15
20
-106.825
11
166.6
21
-106.825
0
LINE
8
Black
10
166.6
20
-106.825
11
166.605
21
-106.826
0
LINE
8
Black
10
166.605
20
-106.826
11
166.611
21
-106.825
0
LINE
8
Black
10
166.611
20
-106.825
11
166.627
21
-106.83
0
LINE
8
Black
10
166.627
20
-106.83
11
166.643
21
-106.833
0
LINE
8
Black
10
166.643
20
-106.833
11
166.648
21
-106.835
0
LINE
8
Black
10
166.648
20
-106.835
11
166.653
21
-106.837
0
LINE
8
Black
10
166.653
20
-106.837
11
166.666
21
-106.846
0
LINE
8
Black
10
166.666
20
-106.846
11
166.68
21
-106.854
0
LINE
8
Black
10
166.68
20
-106.854
11
166.684
21
-106.858
0
LINE
8
Black
10
166.684
20
-106.858
11
166.688
21
-106.862
0
LINE
8
Black
10
166.688
20
-106.862
11
183.638
21
-123.812
0
LINE
8
Black
10
183.638
20
-123.812
11
183.902
21
-124.075
0
LINE
8
Black
10
183.902
20
-124.075
11
184.2
21
-124.075
0
LINE
8
Black
10
184.2
20
-124.075
11
184.205
21
-124.076
0
LINE
8
Black
10
184.205
20
-124.076
11
184.211
21
-124.075
0
LINE
8
Black
10
184.211
20
-124.075
11
184.227
21
-124.08
0
LINE
8
Black
10
184.227
20
-124.08
11
184.243
21
-124.083
0
LINE
8
Black
10
184.243
20
-124.083
11
184.248
21
-124.085
0
LINE
8
Black
10
184.248
20
-124.085
11
184.253
21
-124.087
0
LINE
8
Black
10
184.253
20
-124.087
11
184.266
21
-124.096
0
LINE
8
Black
10
184.266
20
-124.096
11
184.278
21
-124.103
0
LINE
8
Black
10
184.278
20
-124.103
11
184.296
21
-124.084
0
LINE
8
Black
10
184.296
20
-124.084
11
184.615
21
-124.402
0
LINE
8
Black
10
184.615
20
-124.402
11
184.402
21
-124.615
0
LINE
8
Black
10
184.402
20
-124.615
11
184.113
21
-124.325
0
LINE
8
Black
10
184.113
20
-124.325
11
183.85
21
-124.325
0
LINE
8
Black
10
183.85
20
-124.325
11
183.845
21
-124.324
0
LINE
8
Black
10
183.845
20
-124.324
11
183.839
21
-124.325
0
LINE
8
Black
10
183.839
20
-124.325
11
183.823
21
-124.32
0
LINE
8
Black
10
183.823
20
-124.32
11
183.807
21
-124.317
0
LINE
8
Black
10
183.807
20
-124.317
11
183.802
21
-124.315
0
LINE
8
Black
10
183.802
20
-124.315
11
183.797
21
-124.313
0
LINE
8
Black
10
183.797
20
-124.313
11
183.784
21
-124.304
0
LINE
8
Black
10
183.784
20
-124.304
11
183.77
21
-124.296
0
LINE
8
Black
10
183.77
20
-124.296
11
183.766
21
-124.292
0
LINE
8
Black
10
183.766
20
-124.292
11
183.762
21
-124.288
0
LINE
8
Black
10
183.762
20
-124.288
11
183.462
21
-123.988
0
LINE
8
Black
10
183.462
20
-123.988
11
166.548
21
-107.075
0
LINE
8
Black
10
166.548
20
-107.075
11
165.202
21
-107.075
0
LINE
8
Black
10
165.202
20
-107.075
11
165.188
21
-107.088
0
LINE
8
Black
10
165.188
20
-107.088
11
165.184
21
-107.092
0
LINE
8
Black
10
165.184
20
-107.092
11
165.18
21
-107.096
0
LINE
8
Black
10
165.18
20
-107.096
11
165.166
21
-107.104
0
LINE
8
Black
10
165.166
20
-107.104
11
165.153
21
-107.113
0
LINE
8
Black
10
165.153
20
-107.113
11
165.148
21
-107.115
0
LINE
8
Black
10
165.148
20
-107.115
11
165.143
21
-107.117
0
LINE
8
Black
10
165.143
20
-107.117
11
165.127
21
-107.12
0
LINE
8
Black
10
165.127
20
-107.12
11
165.111
21
-107.125
0
LINE
8
Black
10
165.111
20
-107.125
11
165.105
21
-107.124
0
LINE
8
Black
10
165.105
20
-107.124
11
165.1
21
-107.125
0
LINE
8
Black
10
165.1
20
-107.125
11
164.6
21
-107.125
0
LINE
8
Black
10
164.6
20
-107.125
11
164.595
21
-107.124
0
LINE
8
Black
10
164.595
20
-107.124
11
164.589
21
-107.125
0
LINE
8
Black
10
164.589
20
-107.125
11
164.573
21
-107.12
0
LINE
8
Black
10
164.573
20
-107.12
11
164.557
21
-107.117
0
LINE
8
Black
10
164.557
20
-107.117
11
164.552
21
-107.115
0
LINE
8
Black
10
164.552
20
-107.115
11
164.547
21
-107.113
0
LINE
8
Black
10
164.547
20
-107.113
11
164.534
21
-107.104
0
LINE
8
Black
10
164.534
20
-107.104
11
164.52
21
-107.096
0
LINE
8
Black
10
164.52
20
-107.096
11
164.516
21
-107.092
0
LINE
8
Black
10
164.516
20
-107.092
11
164.512
21
-107.088
0
LINE
8
Black
10
164.512
20
-107.088
11
164.262
21
-106.838
0
LINE
8
Black
10
164.262
20
-106.838
11
164.262
21
-106.838
0
LINE
8
Black
10
164.262
20
-106.838
11
163.212
21
-105.788
0
LINE
8
Black
10
163.212
20
-105.788
11
163.208
21
-105.784
0
LINE
8
Black
10
163.208
20
-105.784
11
163.204
21
-105.78
0
LINE
8
Black
10
163.204
20
-105.78
11
163.196
21
-105.766
0
LINE
8
Black
10
163.196
20
-105.766
11
163.187
21
-105.753
0
LINE
8
Black
10
163.187
20
-105.753
11
163.185
21
-105.748
0
LINE
8
Black
10
163.185
20
-105.748
11
163.183
21
-105.743
0
LINE
8
Black
10
163.183
20
-105.743
11
163.18
21
-105.727
0
LINE
8
Black
10
163.18
20
-105.727
11
163.175
21
-105.711
0
LINE
8
Black
10
163.175
20
-105.711
11
163.176
21
-105.705
0
LINE
8
Black
10
163.176
20
-105.705
11
163.175
21
-105.7
0
LINE
8
Black
10
163.175
20
-105.7
11
163.175
21
-105.475
0
LINE
8
Black
10
163.175
20
-105.475
11
162.27
21
-105.475
0
LINE
8
Black
10
162.27
20
-105.475
11
162.261
21
-105.501
0
LINE
8
Black
10
162.261
20
-105.501
11
162.194
21
-105.581
0
LINE
8
Black
10
162.194
20
-105.581
11
162.103
21
-105.633
0
LINE
8
Black
10
162.103
20
-105.633
11
162
21
-105.651
0
LINE
8
Black
10
162
20
-105.651
11
161.897
21
-105.633
0
LINE
8
Black
10
161.897
20
-105.633
11
161.806
21
-105.581
0
LINE
8
Black
10
161.806
20
-105.581
11
161.739
21
-105.501
0
LINE
8
Black
10
161.739
20
-105.501
11
161.703
21
-105.402
0
LINE
8
Black
10
161.703
20
-105.402
11
161.703
21
-105.298
0
LINE
8
Black
10
161.703
20
-105.298
11
161.739
21
-105.199
0
LINE
8
Black
10
161.739
20
-105.199
11
161.806
21
-105.119
0
LINE
8
Black
10
161.806
20
-105.119
11
161.897
21
-105.067
0
LINE
8
Black
10
161.897
20
-105.067
11
162
21
-105.049
0
LINE
8
Black
10
162
20
-105.049
11
162.103
21
-105.067
0
LINE
8
Black
10
162.103
20
-105.067
11
162.194
21
-105.119
0
LINE
8
Black
10
162.194
20
-105.119
11
162.261
21
-105.199
0
LINE
8
Black
10
162.261
20
-105.199
11
162.27
21
-105.225
0
LINE
8
Black
10
162.27
20
-105.225
11
163.3
21
-105.225
0
LINE
8
Black
10
163.3
20
-105.225
11
163.798
21
-105.225
0
LINE
8
Black
10
163.798
20
-105.225
11
164.225
21
-104.798
0
LINE
8
Black
10
166.553
20
-104.617
11
166.644
21
-104.669
0
LINE
8
Black
10
166.644
20
-104.669
11
166.711
21
-104.749
0
LINE
8
Black
10
166.711
20
-104.749
11
166.747
21
-104.848
0
LINE
8
Black
10
166.747
20
-104.848
11
166.747
21
-104.952
0
LINE
8
Black
10
166.747
20
-104.952
11
166.711
21
-105.051
0
LINE
8
Black
10
166.711
20
-105.051
11
166.644
21
-105.131
0
LINE
8
Black
10
166.644
20
-105.131
11
166.575
21
-105.17
0
LINE
8
Black
10
166.575
20
-105.17
11
166.575
21
-105.398
0
LINE
8
Black
10
166.575
20
-105.398
11
167.388
21
-106.212
0
LINE
8
Black
10
167.388
20
-106.212
11
167.388
21
-106.212
0
LINE
8
Black
10
167.388
20
-106.212
11
184.352
21
-123.175
0
LINE
8
Black
10
184.352
20
-123.175
11
184.8
21
-123.175
0
LINE
8
Black
10
184.8
20
-123.175
11
184.805
21
-123.176
0
LINE
8
Black
10
184.805
20
-123.176
11
184.811
21
-123.175
0
LINE
8
Black
10
184.811
20
-123.175
11
184.827
21
-123.18
0
LINE
8
Black
10
184.827
20
-123.18
11
184.843
21
-123.183
0
LINE
8
Black
10
184.843
20
-123.183
11
184.848
21
-123.185
0
LINE
8
Black
10
184.848
20
-123.185
11
184.853
21
-123.187
0
LINE
8
Black
10
184.853
20
-123.187
11
184.866
21
-123.196
0
LINE
8
Black
10
184.866
20
-123.196
11
184.88
21
-123.204
0
LINE
8
Black
10
184.88
20
-123.204
11
184.884
21
-123.208
0
LINE
8
Black
10
184.884
20
-123.208
11
184.888
21
-123.212
0
LINE
8
Black
10
184.888
20
-123.212
11
185.527
21
-123.85
0
LINE
8
Black
10
185.527
20
-123.85
11
185.53
21
-123.855
0
LINE
8
Black
10
185.53
20
-123.855
11
185.534
21
-123.858
0
LINE
8
Black
10
185.534
20
-123.858
11
185.542
21
-123.872
0
LINE
8
Black
10
185.542
20
-123.872
11
185.552
21
-123.886
0
LINE
8
Black
10
185.552
20
-123.886
11
185.553
21
-123.891
0
LINE
8
Black
10
185.553
20
-123.891
11
185.556
21
-123.896
0
LINE
8
Black
10
185.556
20
-123.896
11
185.559
21
-123.912
0
LINE
8
Black
10
185.559
20
-123.912
11
185.563
21
-123.928
0
LINE
8
Black
10
185.563
20
-123.928
11
185.562
21
-123.933
0
LINE
8
Black
10
185.562
20
-123.933
11
185.563
21
-123.938
0
LINE
8
Black
10
185.563
20
-123.938
11
185.563
21
-123.944
0
LINE
8
Black
10
185.563
20
-123.944
11
185.704
21
-124.084
0
LINE
8
Black
10
185.704
20
-124.084
11
185.385
21
-124.402
0
LINE
8
Black
10
185.385
20
-124.402
11
185.173
21
-124.19
0
LINE
8
Black
10
185.173
20
-124.19
11
185.313
21
-124.05
0
LINE
8
Black
10
185.313
20
-124.05
11
185.313
21
-123.99
0
LINE
8
Black
10
185.313
20
-123.99
11
184.748
21
-123.425
0
LINE
8
Black
10
184.748
20
-123.425
11
184.3
21
-123.425
0
LINE
8
Black
10
184.3
20
-123.425
11
184.295
21
-123.424
0
LINE
8
Black
10
184.295
20
-123.424
11
184.289
21
-123.425
0
LINE
8
Black
10
184.289
20
-123.425
11
184.273
21
-123.42
0
LINE
8
Black
10
184.273
20
-123.42
11
184.257
21
-123.417
0
LINE
8
Black
10
184.257
20
-123.417
11
184.252
21
-123.415
0
LINE
8
Black
10
184.252
20
-123.415
11
184.247
21
-123.413
0
LINE
8
Black
10
184.247
20
-123.413
11
184.234
21
-123.404
0
LINE
8
Black
10
184.234
20
-123.404
11
184.22
21
-123.396
0
LINE
8
Black
10
184.22
20
-123.396
11
184.216
21
-123.392
0
LINE
8
Black
10
184.216
20
-123.392
11
184.212
21
-123.388
0
LINE
8
Black
10
184.212
20
-123.388
11
184.195
21
-123.372
0
LINE
8
Black
10
184.195
20
-123.372
11
167.212
21
-106.388
0
LINE
8
Black
10
167.212
20
-106.388
11
167.212
21
-106.388
0
LINE
8
Black
10
167.212
20
-106.388
11
166.362
21
-105.538
0
LINE
8
Black
10
166.362
20
-105.538
11
166.358
21
-105.534
0
LINE
8
Black
10
166.358
20
-105.534
11
166.354
21
-105.53
0
LINE
8
Black
10
166.354
20
-105.53
11
166.346
21
-105.516
0
LINE
8
Black
10
166.346
20
-105.516
11
166.337
21
-105.503
0
LINE
8
Black
10
166.337
20
-105.503
11
166.335
21
-105.498
0
LINE
8
Black
10
166.335
20
-105.498
11
166.333
21
-105.493
0
LINE
8
Black
10
166.333
20
-105.493
11
166.33
21
-105.477
0
LINE
8
Black
10
166.33
20
-105.477
11
166.325
21
-105.461
0
LINE
8
Black
10
166.325
20
-105.461
11
166.326
21
-105.455
0
LINE
8
Black
10
166.326
20
-105.455
11
166.325
21
-105.45
0
LINE
8
Black
10
166.325
20
-105.45
11
166.325
21
-105.17
0
LINE
8
Black
10
166.325
20
-105.17
11
166.256
21
-105.131
0
LINE
8
Black
10
166.256
20
-105.131
11
166.189
21
-105.051
0
LINE
8
Black
10
166.189
20
-105.051
11
166.153
21
-104.952
0
LINE
8
Black
10
166.153
20
-104.952
11
166.153
21
-104.848
0
LINE
8
Black
10
166.153
20
-104.848
11
166.189
21
-104.749
0
LINE
8
Black
10
166.189
20
-104.749
11
166.256
21
-104.669
0
LINE
8
Black
10
166.256
20
-104.669
11
166.347
21
-104.617
0
LINE
8
Black
10
166.347
20
-104.617
11
166.45
21
-104.599
0
LINE
8
Black
10
166.45
20
-104.599
11
166.553
21
-104.617
0
LINE
8
Black
10
166.005
20
-105.526
11
166.011
21
-105.525
0
LINE
8
Black
10
166.011
20
-105.525
11
166.027
21
-105.53
0
LINE
8
Black
10
166.027
20
-105.53
11
166.043
21
-105.533
0
LINE
8
Black
10
166.043
20
-105.533
11
166.048
21
-105.535
0
LINE
8
Black
10
166.048
20
-105.535
11
166.053
21
-105.537
0
LINE
8
Black
10
166.053
20
-105.537
11
166.066
21
-105.546
0
LINE
8
Black
10
166.066
20
-105.546
11
166.08
21
-105.554
0
LINE
8
Black
10
166.08
20
-105.554
11
166.084
21
-105.558
0
LINE
8
Black
10
166.084
20
-105.558
11
166.088
21
-105.562
0
LINE
8
Black
10
166.088
20
-105.562
11
167.088
21
-106.562
0
LINE
8
Black
10
167.088
20
-106.562
11
167.088
21
-106.562
0
LINE
8
Black
10
167.088
20
-106.562
11
183.988
21
-123.462
0
LINE
8
Black
10
183.988
20
-123.462
11
184.152
21
-123.625
0
LINE
8
Black
10
184.152
20
-123.625
11
184.599
21
-123.625
0
LINE
8
Black
10
184.599
20
-123.625
11
184.604
21
-123.626
0
LINE
8
Black
10
184.604
20
-123.626
11
184.609
21
-123.625
0
LINE
8
Black
10
184.609
20
-123.625
11
184.625
21
-123.63
0
LINE
8
Black
10
184.625
20
-123.63
11
184.641
21
-123.633
0
LINE
8
Black
10
184.641
20
-123.633
11
184.646
21
-123.635
0
LINE
8
Black
10
184.646
20
-123.635
11
184.651
21
-123.637
0
LINE
8
Black
10
184.651
20
-123.637
11
184.665
21
-123.646
0
LINE
8
Black
10
184.665
20
-123.646
11
184.679
21
-123.654
0
LINE
8
Black
10
184.679
20
-123.654
11
184.682
21
-123.658
0
LINE
8
Black
10
184.682
20
-123.658
11
184.687
21
-123.662
0
LINE
8
Black
10
184.687
20
-123.662
11
184.703
21
-123.678
0
LINE
8
Black
10
184.703
20
-123.678
11
184.721
21
-123.66
0
LINE
8
Black
10
184.721
20
-123.66
11
185.039
21
-123.978
0
LINE
8
Black
10
185.039
20
-123.978
11
184.827
21
-124.19
0
LINE
8
Black
10
184.827
20
-124.19
11
184.511
21
-123.875
0
LINE
8
Black
10
184.511
20
-123.875
11
184.1
21
-123.875
0
LINE
8
Black
10
184.1
20
-123.875
11
184.095
21
-123.874
0
LINE
8
Black
10
184.095
20
-123.874
11
184.089
21
-123.875
0
LINE
8
Black
10
184.089
20
-123.875
11
184.073
21
-123.87
0
LINE
8
Black
10
184.073
20
-123.87
11
184.057
21
-123.867
0
LINE
8
Black
10
184.057
20
-123.867
11
184.052
21
-123.865
0
LINE
8
Black
10
184.052
20
-123.865
11
184.047
21
-123.863
0
LINE
8
Black
10
184.047
20
-123.863
11
184.034
21
-123.854
0
LINE
8
Black
10
184.034
20
-123.854
11
184.02
21
-123.846
0
LINE
8
Black
10
184.02
20
-123.846
11
184.016
21
-123.842
0
LINE
8
Black
10
184.016
20
-123.842
11
184.012
21
-123.838
0
LINE
8
Black
10
184.012
20
-123.838
11
183.812
21
-123.638
0
LINE
8
Black
10
183.812
20
-123.638
11
166.912
21
-106.738
0
LINE
8
Black
10
166.912
20
-106.738
11
166.912
21
-106.738
0
LINE
8
Black
10
166.912
20
-106.738
11
165.948
21
-105.775
0
LINE
8
Black
10
165.948
20
-105.775
11
165.702
21
-105.775
0
LINE
8
Black
10
165.702
20
-105.775
11
165.179
21
-106.298
0
LINE
8
Black
10
165.179
20
-106.298
11
165.197
21
-106.348
0
LINE
8
Black
10
165.197
20
-106.348
11
165.197
21
-106.452
0
LINE
8
Black
10
165.197
20
-106.452
11
165.161
21
-106.551
0
LINE
8
Black
10
165.161
20
-106.551
11
165.094
21
-106.631
0
LINE
8
Black
10
165.094
20
-106.631
11
165.003
21
-106.683
0
LINE
8
Black
10
165.003
20
-106.683
11
164.9
21
-106.701
0
LINE
8
Black
10
164.9
20
-106.701
11
164.797
21
-106.683
0
LINE
8
Black
10
164.797
20
-106.683
11
164.706
21
-106.631
0
LINE
8
Black
10
164.706
20
-106.631
11
164.639
21
-106.551
0
LINE
8
Black
10
164.639
20
-106.551
11
164.603
21
-106.452
0
LINE
8
Black
10
164.603
20
-106.452
11
164.603
21
-106.348
0
LINE
8
Black
10
164.603
20
-106.348
11
164.639
21
-106.249
0
LINE
8
Black
10
164.639
20
-106.249
11
164.706
21
-106.169
0
LINE
8
Black
10
164.706
20
-106.169
11
164.797
21
-106.117
0
LINE
8
Black
10
164.797
20
-106.117
11
164.9
21
-106.099
0
LINE
8
Black
10
164.9
20
-106.099
11
165.003
21
-106.117
0
LINE
8
Black
10
165.003
20
-106.117
11
165.005
21
-106.118
0
LINE
8
Black
10
165.005
20
-106.118
11
165.562
21
-105.562
0
LINE
8
Black
10
165.562
20
-105.562
11
165.566
21
-105.558
0
LINE
8
Black
10
165.566
20
-105.558
11
165.57
21
-105.554
0
LINE
8
Black
10
165.57
20
-105.554
11
165.584
21
-105.546
0
LINE
8
Black
10
165.584
20
-105.546
11
165.597
21
-105.537
0
LINE
8
Black
10
165.597
20
-105.537
11
165.602
21
-105.535
0
LINE
8
Black
10
165.602
20
-105.535
11
165.607
21
-105.533
0
LINE
8
Black
10
165.607
20
-105.533
11
165.623
21
-105.53
0
LINE
8
Black
10
165.623
20
-105.53
11
165.639
21
-105.525
0
LINE
8
Black
10
165.639
20
-105.525
11
165.645
21
-105.526
0
LINE
8
Black
10
165.645
20
-105.526
11
165.65
21
-105.525
0
LINE
8
Black
10
165.65
20
-105.525
11
166
21
-105.525
0
LINE
8
Black
10
166
20
-105.525
11
166.005
21
-105.526
0
LINE
8
Black
10
144.303
20
-113.217
11
144.394
21
-113.269
0
LINE
8
Black
10
144.394
20
-113.269
11
144.461
21
-113.349
0
LINE
8
Black
10
144.461
20
-113.349
11
144.497
21
-113.448
0
LINE
8
Black
10
144.497
20
-113.448
11
144.497
21
-113.552
0
LINE
8
Black
10
144.497
20
-113.552
11
144.461
21
-113.651
0
LINE
8
Black
10
144.461
20
-113.651
11
144.394
21
-113.731
0
LINE
8
Black
10
144.394
20
-113.731
11
144.371
21
-113.744
0
LINE
8
Black
10
144.371
20
-113.744
11
145.602
21
-114.975
0
LINE
8
Black
10
145.602
20
-114.975
11
145.874
21
-114.975
0
LINE
8
Black
10
145.874
20
-114.975
11
146.01
21
-114.838
0
LINE
8
Black
10
146.01
20
-114.838
11
145.78
21
-114.609
0
LINE
8
Black
10
145.78
20
-114.609
11
146.629
21
-113.76
0
LINE
8
Black
10
146.629
20
-113.76
11
147.265
21
-114.397
0
LINE
8
Black
10
147.265
20
-114.397
11
146.417
21
-115.245
0
LINE
8
Black
10
146.417
20
-115.245
11
146.187
21
-115.015
0
LINE
8
Black
10
146.187
20
-115.015
11
146.014
21
-115.188
0
LINE
8
Black
10
146.014
20
-115.188
11
146.009
21
-115.192
0
LINE
8
Black
10
146.009
20
-115.192
11
146.006
21
-115.196
0
LINE
8
Black
10
146.006
20
-115.196
11
145.992
21
-115.204
0
LINE
8
Black
10
145.992
20
-115.204
11
145.978
21
-115.213
0
LINE
8
Black
10
145.978
20
-115.213
11
145.973
21
-115.215
0
LINE
8
Black
10
145.973
20
-115.215
11
145.968
21
-115.217
0
LINE
8
Black
10
145.968
20
-115.217
11
145.952
21
-115.22
0
LINE
8
Black
10
145.952
20
-115.22
11
145.936
21
-115.225
0
LINE
8
Black
10
145.936
20
-115.225
11
145.931
21
-115.224
0
LINE
8
Black
10
145.931
20
-115.224
11
145.925
21
-115.225
0
LINE
8
Black
10
145.925
20
-115.225
11
145.55
21
-115.225
0
LINE
8
Black
10
145.55
20
-115.225
11
145.545
21
-115.224
0
LINE
8
Black
10
145.545
20
-115.224
11
145.539
21
-115.225
0
LINE
8
Black
10
145.539
20
-115.225
11
145.523
21
-115.22
0
LINE
8
Black
10
145.523
20
-115.22
11
145.507
21
-115.217
0
LINE
8
Black
10
145.507
20
-115.217
11
145.502
21
-115.215
0
LINE
8
Black
10
145.502
20
-115.215
11
145.497
21
-115.213
0
LINE
8
Black
10
145.497
20
-115.213
11
145.484
21
-115.204
0
LINE
8
Black
10
145.484
20
-115.204
11
145.47
21
-115.196
0
LINE
8
Black
10
145.47
20
-115.196
11
145.466
21
-115.192
0
LINE
8
Black
10
145.466
20
-115.192
11
145.462
21
-115.188
0
LINE
8
Black
10
145.462
20
-115.188
11
144.112
21
-113.838
0
LINE
8
Black
10
144.112
20
-113.838
11
144.108
21
-113.834
0
LINE
8
Black
10
144.108
20
-113.834
11
144.104
21
-113.83
0
LINE
8
Black
10
144.104
20
-113.83
11
144.096
21
-113.816
0
LINE
8
Black
10
144.096
20
-113.816
11
144.087
21
-113.803
0
LINE
8
Black
10
144.087
20
-113.803
11
144.085
21
-113.798
0
LINE
8
Black
10
144.085
20
-113.798
11
144.083
21
-113.793
0
LINE
8
Black
10
144.083
20
-113.793
11
144.08
21
-113.777
0
LINE
8
Black
10
144.08
20
-113.777
11
144.079
21
-113.772
0
LINE
8
Black
10
144.079
20
-113.772
11
144.006
21
-113.731
0
LINE
8
Black
10
144.006
20
-113.731
11
143.939
21
-113.651
0
LINE
8
Black
10
143.939
20
-113.651
11
143.903
21
-113.552
0
LINE
8
Black
10
143.903
20
-113.552
11
143.903
21
-113.448
0
LINE
8
Black
10
143.903
20
-113.448
11
143.939
21
-113.349
0
LINE
8
Black
10
143.939
20
-113.349
11
144.006
21
-113.269
0
LINE
8
Black
10
144.006
20
-113.269
11
144.097
21
-113.217
0
LINE
8
Black
10
144.097
20
-113.217
11
144.2
21
-113.199
0
LINE
8
Black
10
144.2
20
-113.199
11
144.303
21
-113.217
0
LINE
8
Black
10
144.926
20
-112.776
11
144.931
21
-112.775
0
LINE
8
Black
10
144.931
20
-112.775
11
144.947
21
-112.78
0
LINE
8
Black
10
144.947
20
-112.78
11
144.963
21
-112.783
0
LINE
8
Black
10
144.963
20
-112.783
11
144.968
21
-112.785
0
LINE
8
Black
10
144.968
20
-112.785
11
144.973
21
-112.787
0
LINE
8
Black
10
144.973
20
-112.787
11
144.986
21
-112.796
0
LINE
8
Black
10
144.986
20
-112.796
11
145
21
-112.804
0
LINE
8
Black
10
145
20
-112.804
11
145.004
21
-112.808
0
LINE
8
Black
10
145.004
20
-112.808
11
145.008
21
-112.812
0
LINE
8
Black
10
145.008
20
-112.812
11
145.268
21
-113.071
0
LINE
8
Black
10
145.268
20
-113.071
11
145.603
21
-112.735
0
LINE
8
Black
10
145.603
20
-112.735
11
146.24
21
-113.371
0
LINE
8
Black
10
146.24
20
-113.371
11
145.391
21
-114.22
0
LINE
8
Black
10
145.391
20
-114.22
11
144.755
21
-113.583
0
LINE
8
Black
10
144.755
20
-113.583
11
145.091
21
-113.247
0
LINE
8
Black
10
145.091
20
-113.247
11
144.868
21
-113.025
0
LINE
8
Black
10
144.868
20
-113.025
11
144.2
21
-113.025
0
LINE
8
Black
10
144.2
20
-113.025
11
143.92
21
-113.025
0
LINE
8
Black
10
143.92
20
-113.025
11
143.911
21
-113.051
0
LINE
8
Black
10
143.911
20
-113.051
11
143.844
21
-113.131
0
LINE
8
Black
10
143.844
20
-113.131
11
143.753
21
-113.183
0
LINE
8
Black
10
143.753
20
-113.183
11
143.65
21
-113.201
0
LINE
8
Black
10
143.65
20
-113.201
11
143.547
21
-113.183
0
LINE
8
Black
10
143.547
20
-113.183
11
143.456
21
-113.131
0
LINE
8
Black
10
143.456
20
-113.131
11
143.389
21
-113.051
0
LINE
8
Black
10
143.389
20
-113.051
11
143.353
21
-112.952
0
LINE
8
Black
10
143.353
20
-112.952
11
143.353
21
-112.848
0
LINE
8
Black
10
143.353
20
-112.848
11
143.389
21
-112.749
0
LINE
8
Black
10
143.389
20
-112.749
11
143.456
21
-112.669
0
LINE
8
Black
10
143.456
20
-112.669
11
143.547
21
-112.617
0
LINE
8
Black
10
143.547
20
-112.617
11
143.65
21
-112.599
0
LINE
8
Black
10
143.65
20
-112.599
11
143.753
21
-112.617
0
LINE
8
Black
10
143.753
20
-112.617
11
143.844
21
-112.669
0
LINE
8
Black
10
143.844
20
-112.669
11
143.911
21
-112.749
0
LINE
8
Black
10
143.911
20
-112.749
11
143.92
21
-112.775
0
LINE
8
Black
10
143.92
20
-112.775
11
144.2
21
-112.775
0
LINE
8
Black
10
144.2
20
-112.775
11
144.92
21
-112.775
0
LINE
8
Black
10
144.92
20
-112.775
11
144.926
21
-112.776
0
LINE
8
Black
10
153.737
20
-106.775
11
153.837
21
-106.859
0
LINE
8
Black
10
153.837
20
-106.859
11
153.902
21
-106.972
0
LINE
8
Black
10
153.902
20
-106.972
11
153.925
21
-107.1
0
LINE
8
Black
10
153.925
20
-107.1
11
153.925
21
-107.15
0
LINE
8
Black
10
153.925
20
-107.15
11
153.922
21
-107.166
0
LINE
8
Black
10
153.922
20
-107.166
11
153.924
21
-107.183
0
LINE
8
Black
10
153.924
20
-107.183
11
153.911
21
-107.23
0
LINE
8
Black
10
153.911
20
-107.23
11
153.902
21
-107.278
0
LINE
8
Black
10
153.902
20
-107.278
11
153.894
21
-107.293
0
LINE
8
Black
10
153.894
20
-107.293
11
153.89
21
-107.308
0
LINE
8
Black
10
153.89
20
-107.308
11
153.862
21
-107.349
0
LINE
8
Black
10
153.862
20
-107.349
11
153.837
21
-107.391
0
LINE
8
Black
10
153.837
20
-107.391
11
153.825
21
-107.402
0
LINE
8
Black
10
153.825
20
-107.402
11
153.815
21
-107.415
0
LINE
8
Black
10
153.815
20
-107.415
11
149.425
21
-111.805
0
LINE
8
Black
10
149.425
20
-111.805
11
149.425
21
-111.975
0
LINE
8
Black
10
149.425
20
-111.975
11
149.422
21
-111.992
0
LINE
8
Black
10
149.422
20
-111.992
11
149.424
21
-112.008
0
LINE
8
Black
10
149.424
20
-112.008
11
149.411
21
-112.055
0
LINE
8
Black
10
149.411
20
-112.055
11
149.402
21
-112.104
0
LINE
8
Black
10
149.402
20
-112.104
11
149.394
21
-112.118
0
LINE
8
Black
10
149.394
20
-112.118
11
149.39
21
-112.134
0
LINE
8
Black
10
149.39
20
-112.134
11
149.362
21
-112.174
0
LINE
8
Black
10
149.362
20
-112.174
11
149.337
21
-112.216
0
LINE
8
Black
10
149.337
20
-112.216
11
149.325
21
-112.227
0
LINE
8
Black
10
149.325
20
-112.227
11
149.315
21
-112.24
0
LINE
8
Black
10
149.315
20
-112.24
11
149.192
21
-112.364
0
LINE
8
Black
10
149.192
20
-112.364
11
149.245
21
-112.417
0
LINE
8
Black
10
149.245
20
-112.417
11
149.137
21
-112.525
0
LINE
8
Black
10
149.137
20
-112.525
11
149.43
21
-112.525
0
LINE
8
Black
10
149.43
20
-112.525
11
149.439
21
-112.499
0
LINE
8
Black
10
149.439
20
-112.499
11
149.506
21
-112.419
0
LINE
8
Black
10
149.506
20
-112.419
11
149.597
21
-112.367
0
LINE
8
Black
10
149.597
20
-112.367
11
149.7
21
-112.349
0
LINE
8
Black
10
149.7
20
-112.349
11
149.803
21
-112.367
0
LINE
8
Black
10
149.803
20
-112.367
11
149.894
21
-112.419
0
LINE
8
Black
10
149.894
20
-112.419
11
149.961
21
-112.499
0
LINE
8
Black
10
149.961
20
-112.499
11
149.997
21
-112.598
0
LINE
8
Black
10
149.997
20
-112.598
11
149.997
21
-112.702
0
LINE
8
Black
10
149.997
20
-112.702
11
149.961
21
-112.801
0
LINE
8
Black
10
149.961
20
-112.801
11
149.894
21
-112.881
0
LINE
8
Black
10
149.894
20
-112.881
11
149.803
21
-112.933
0
LINE
8
Black
10
149.803
20
-112.933
11
149.7
21
-112.951
0
LINE
8
Black
10
149.7
20
-112.951
11
149.597
21
-112.933
0
LINE
8
Black
10
149.597
20
-112.933
11
149.506
21
-112.881
0
LINE
8
Black
10
149.506
20
-112.881
11
149.439
21
-112.801
0
LINE
8
Black
10
149.439
20
-112.801
11
149.43
21
-112.775
0
LINE
8
Black
10
149.43
20
-112.775
11
148.887
21
-112.775
0
LINE
8
Black
10
148.887
20
-112.775
11
148.397
21
-113.265
0
LINE
8
Black
10
148.397
20
-113.265
11
147.76
21
-112.629
0
LINE
8
Black
10
147.76
20
-112.629
11
148.609
21
-111.78
0
LINE
8
Black
10
148.609
20
-111.78
11
148.662
21
-111.833
0
LINE
8
Black
10
148.662
20
-111.833
11
148.675
21
-111.82
0
LINE
8
Black
10
148.675
20
-111.82
11
148.675
21
-111.65
0
LINE
8
Black
10
148.675
20
-111.65
11
148.678
21
-111.634
0
LINE
8
Black
10
148.678
20
-111.634
11
148.676
21
-111.617
0
LINE
8
Black
10
148.676
20
-111.617
11
148.689
21
-111.57
0
LINE
8
Black
10
148.689
20
-111.57
11
148.698
21
-111.522
0
LINE
8
Black
10
148.698
20
-111.522
11
148.706
21
-111.507
0
LINE
8
Black
10
148.706
20
-111.507
11
148.71
21
-111.492
0
LINE
8
Black
10
148.71
20
-111.492
11
148.738
21
-111.451
0
LINE
8
Black
10
148.738
20
-111.451
11
148.763
21
-111.409
0
LINE
8
Black
10
148.763
20
-111.409
11
148.775
21
-111.398
0
LINE
8
Black
10
148.775
20
-111.398
11
148.785
21
-111.385
0
LINE
8
Black
10
148.785
20
-111.385
11
153.198
21
-106.972
0
LINE
8
Black
10
153.198
20
-106.972
11
153.198
21
-106.972
0
LINE
8
Black
10
153.198
20
-106.972
11
153.263
21
-106.859
0
LINE
8
Black
10
153.263
20
-106.859
11
153.362
21
-106.775
0
LINE
8
Black
10
153.362
20
-106.775
11
153.485
21
-106.731
0
LINE
8
Black
10
153.485
20
-106.731
11
153.615
21
-106.731
0
LINE
8
Black
10
153.615
20
-106.731
11
153.737
21
-106.775
0
LINE
8
Black
10
148.22
20
-111.391
11
147.371
21
-112.24
0
LINE
8
Black
10
147.371
20
-112.24
11
146.956
21
-111.825
0
LINE
8
Black
10
146.956
20
-111.825
11
144.6
21
-111.825
0
LINE
8
Black
10
144.6
20
-111.825
11
144.595
21
-111.824
0
LINE
8
Black
10
144.595
20
-111.824
11
144.589
21
-111.825
0
LINE
8
Black
10
144.589
20
-111.825
11
144.573
21
-111.82
0
LINE
8
Black
10
144.573
20
-111.82
11
144.557
21
-111.817
0
LINE
8
Black
10
144.557
20
-111.817
11
144.552
21
-111.815
0
LINE
8
Black
10
144.552
20
-111.815
11
144.547
21
-111.813
0
LINE
8
Black
10
144.547
20
-111.813
11
144.534
21
-111.804
0
LINE
8
Black
10
144.534
20
-111.804
11
144.52
21
-111.796
0
LINE
8
Black
10
144.52
20
-111.796
11
144.516
21
-111.792
0
LINE
8
Black
10
144.516
20
-111.792
11
144.512
21
-111.788
0
LINE
8
Black
10
144.512
20
-111.788
11
144.405
21
-111.682
0
LINE
8
Black
10
144.405
20
-111.682
11
144.403
21
-111.683
0
LINE
8
Black
10
144.403
20
-111.683
11
144.3
21
-111.701
0
LINE
8
Black
10
144.3
20
-111.701
11
144.197
21
-111.683
0
LINE
8
Black
10
144.197
20
-111.683
11
144.106
21
-111.631
0
LINE
8
Black
10
144.106
20
-111.631
11
144.039
21
-111.551
0
LINE
8
Black
10
144.039
20
-111.551
11
144.003
21
-111.452
0
LINE
8
Black
10
144.003
20
-111.452
11
144.003
21
-111.348
0
LINE
8
Black
10
144.003
20
-111.348
11
144.039
21
-111.249
0
LINE
8
Black
10
144.039
20
-111.249
11
144.106
21
-111.169
0
LINE
8
Black
10
144.106
20
-111.169
11
144.197
21
-111.117
0
LINE
8
Black
10
144.197
20
-111.117
11
144.3
21
-111.099
0
LINE
8
Black
10
144.3
20
-111.099
11
144.403
21
-111.117
0
LINE
8
Black
10
144.403
20
-111.117
11
144.494
21
-111.169
0
LINE
8
Black
10
144.494
20
-111.169
11
144.561
21
-111.249
0
LINE
8
Black
10
144.561
20
-111.249
11
144.597
21
-111.348
0
LINE
8
Black
10
144.597
20
-111.348
11
144.597
21
-111.452
0
LINE
8
Black
10
144.597
20
-111.452
11
144.579
21
-111.502
0
LINE
8
Black
10
144.579
20
-111.502
11
144.652
21
-111.575
0
LINE
8
Black
10
144.652
20
-111.575
11
146.763
21
-111.575
0
LINE
8
Black
10
146.763
20
-111.575
11
147.583
21
-110.755
0
LINE
8
Black
10
147.583
20
-110.755
11
148.22
21
-111.391
0
LINE
8
Black
10
148.005
20
-109.526
11
148.011
21
-109.525
0
LINE
8
Black
10
148.011
20
-109.525
11
148.027
21
-109.53
0
LINE
8
Black
10
148.027
20
-109.53
11
148.043
21
-109.533
0
LINE
8
Black
10
148.043
20
-109.533
11
148.048
21
-109.535
0
LINE
8
Black
10
148.048
20
-109.535
11
148.053
21
-109.537
0
LINE
8
Black
10
148.053
20
-109.537
11
148.066
21
-109.546
0
LINE
8
Black
10
148.066
20
-109.546
11
148.08
21
-109.554
0
LINE
8
Black
10
148.08
20
-109.554
11
148.084
21
-109.558
0
LINE
8
Black
10
148.084
20
-109.558
11
148.088
21
-109.562
0
LINE
8
Black
10
148.088
20
-109.562
11
148.652
21
-110.125
0
LINE
8
Black
10
148.652
20
-110.125
11
148.698
21
-110.125
0
LINE
8
Black
10
148.698
20
-110.125
11
149.262
21
-109.562
0
LINE
8
Black
10
149.262
20
-109.562
11
149.297
21
-109.537
0
LINE
8
Black
10
149.297
20
-109.537
11
149.339
21
-109.525
0
LINE
8
Black
10
149.339
20
-109.525
11
149.382
21
-109.529
0
LINE
8
Black
10
149.382
20
-109.529
11
149.422
21
-109.548
0
LINE
8
Black
10
149.422
20
-109.548
11
149.452
21
-109.578
0
LINE
8
Black
10
149.452
20
-109.578
11
149.471
21
-109.618
0
LINE
8
Black
10
149.471
20
-109.618
11
149.475
21
-109.661
0
LINE
8
Black
10
149.475
20
-109.661
11
149.463
21
-109.703
0
LINE
8
Black
10
149.463
20
-109.703
11
149.438
21
-109.738
0
LINE
8
Black
10
149.438
20
-109.738
11
148.838
21
-110.338
0
LINE
8
Black
10
148.838
20
-110.338
11
148.834
21
-110.342
0
LINE
8
Black
10
148.834
20
-110.342
11
148.83
21
-110.346
0
LINE
8
Black
10
148.83
20
-110.346
11
148.816
21
-110.354
0
LINE
8
Black
10
148.816
20
-110.354
11
148.803
21
-110.363
0
LINE
8
Black
10
148.803
20
-110.363
11
148.798
21
-110.365
0
LINE
8
Black
10
148.798
20
-110.365
11
148.793
21
-110.367
0
LINE
8
Black
10
148.793
20
-110.367
11
148.777
21
-110.37
0
LINE
8
Black
10
148.777
20
-110.37
11
148.761
21
-110.375
0
LINE
8
Black
10
148.761
20
-110.375
11
148.755
21
-110.374
0
LINE
8
Black
10
148.755
20
-110.374
11
148.75
21
-110.375
0
LINE
8
Black
10
148.75
20
-110.375
11
148.6
21
-110.375
0
LINE
8
Black
10
148.6
20
-110.375
11
148.595
21
-110.374
0
LINE
8
Black
10
148.595
20
-110.374
11
148.589
21
-110.375
0
LINE
8
Black
10
148.589
20
-110.375
11
148.573
21
-110.37
0
LINE
8
Black
10
148.573
20
-110.37
11
148.557
21
-110.367
0
LINE
8
Black
10
148.557
20
-110.367
11
148.552
21
-110.365
0
LINE
8
Black
10
148.552
20
-110.365
11
148.547
21
-110.363
0
LINE
8
Black
10
148.547
20
-110.363
11
148.534
21
-110.354
0
LINE
8
Black
10
148.534
20
-110.354
11
148.52
21
-110.346
0
LINE
8
Black
10
148.52
20
-110.346
11
148.516
21
-110.342
0
LINE
8
Black
10
148.516
20
-110.342
11
148.512
21
-110.338
0
LINE
8
Black
10
148.512
20
-110.338
11
147.948
21
-109.775
0
LINE
8
Black
10
147.948
20
-109.775
11
146.752
21
-109.775
0
LINE
8
Black
10
146.752
20
-109.775
11
145.388
21
-111.138
0
LINE
8
Black
10
145.388
20
-111.138
11
145.384
21
-111.142
0
LINE
8
Black
10
145.384
20
-111.142
11
145.38
21
-111.146
0
LINE
8
Black
10
145.38
20
-111.146
11
145.366
21
-111.154
0
LINE
8
Black
10
145.366
20
-111.154
11
145.353
21
-111.163
0
LINE
8
Black
10
145.353
20
-111.163
11
145.348
21
-111.165
0
LINE
8
Black
10
145.348
20
-111.165
11
145.343
21
-111.167
0
LINE
8
Black
10
145.343
20
-111.167
11
145.327
21
-111.17
0
LINE
8
Black
10
145.327
20
-111.17
11
145.321
21
-111.172
0
LINE
8
Black
10
145.321
20
-111.172
11
145.311
21
-111.201
0
LINE
8
Black
10
145.311
20
-111.201
11
145.244
21
-111.281
0
LINE
8
Black
10
145.244
20
-111.281
11
145.153
21
-111.333
0
LINE
8
Black
10
145.153
20
-111.333
11
145.05
21
-111.351
0
LINE
8
Black
10
145.05
20
-111.351
11
144.947
21
-111.333
0
LINE
8
Black
10
144.947
20
-111.333
11
144.856
21
-111.281
0
LINE
8
Black
10
144.856
20
-111.281
11
144.789
21
-111.201
0
LINE
8
Black
10
144.789
20
-111.201
11
144.753
21
-111.102
0
LINE
8
Black
10
144.753
20
-111.102
11
144.753
21
-110.998
0
LINE
8
Black
10
144.753
20
-110.998
11
144.789
21
-110.899
0
LINE
8
Black
10
144.789
20
-110.899
11
144.856
21
-110.819
0
LINE
8
Black
10
144.856
20
-110.819
11
144.947
21
-110.767
0
LINE
8
Black
10
144.947
20
-110.767
11
145.05
21
-110.749
0
LINE
8
Black
10
145.05
20
-110.749
11
145.153
21
-110.767
0
LINE
8
Black
10
145.153
20
-110.767
11
145.244
21
-110.819
0
LINE
8
Black
10
145.244
20
-110.819
11
145.294
21
-110.879
0
LINE
8
Black
10
145.294
20
-110.879
11
146.612
21
-109.562
0
LINE
8
Black
10
146.612
20
-109.562
11
146.616
21
-109.558
0
LINE
8
Black
10
146.616
20
-109.558
11
146.62
21
-109.554
0
LINE
8
Black
10
146.62
20
-109.554
11
146.634
21
-109.546
0
LINE
8
Black
10
146.634
20
-109.546
11
146.647
21
-109.537
0
LINE
8
Black
10
146.647
20
-109.537
11
146.652
21
-109.535
0
LINE
8
Black
10
146.652
20
-109.535
11
146.657
21
-109.533
0
LINE
8
Black
10
146.657
20
-109.533
11
146.673
21
-109.53
0
LINE
8
Black
10
146.673
20
-109.53
11
146.689
21
-109.525
0
LINE
8
Black
10
146.689
20
-109.525
11
146.695
21
-109.526
0
LINE
8
Black
10
146.695
20
-109.526
11
146.7
21
-109.525
0
LINE
8
Black
10
146.7
20
-109.525
11
148
21
-109.525
0
LINE
8
Black
10
148
20
-109.525
11
148.005
21
-109.526
0
LINE
8
Black
10
150.232
20
-109.329
11
150.272
21
-109.348
0
LINE
8
Black
10
150.272
20
-109.348
11
150.302
21
-109.378
0
LINE
8
Black
10
150.302
20
-109.378
11
150.321
21
-109.418
0
LINE
8
Black
10
150.321
20
-109.418
11
150.325
21
-109.461
0
LINE
8
Black
10
150.325
20
-109.461
11
150.313
21
-109.503
0
LINE
8
Black
10
150.313
20
-109.503
11
150.288
21
-109.538
0
LINE
8
Black
10
150.288
20
-109.538
11
148.938
21
-110.888
0
LINE
8
Black
10
148.938
20
-110.888
11
148.934
21
-110.892
0
LINE
8
Black
10
148.934
20
-110.892
11
148.93
21
-110.896
0
LINE
8
Black
10
148.93
20
-110.896
11
148.916
21
-110.904
0
LINE
8
Black
10
148.916
20
-110.904
11
148.903
21
-110.913
0
LINE
8
Black
10
148.903
20
-110.913
11
148.898
21
-110.915
0
LINE
8
Black
10
148.898
20
-110.915
11
148.893
21
-110.917
0
LINE
8
Black
10
148.893
20
-110.917
11
148.877
21
-110.92
0
LINE
8
Black
10
148.877
20
-110.92
11
148.861
21
-110.925
0
LINE
8
Black
10
148.861
20
-110.925
11
148.855
21
-110.924
0
LINE
8
Black
10
148.855
20
-110.924
11
148.85
21
-110.925
0
LINE
8
Black
10
148.85
20
-110.925
11
148.1
21
-110.925
0
LINE
8
Black
10
148.1
20
-110.925
11
148.095
21
-110.924
0
LINE
8
Black
10
148.095
20
-110.924
11
148.089
21
-110.925
0
LINE
8
Black
10
148.089
20
-110.925
11
148.073
21
-110.92
0
LINE
8
Black
10
148.073
20
-110.92
11
148.057
21
-110.917
0
LINE
8
Black
10
148.057
20
-110.917
11
148.052
21
-110.915
0
LINE
8
Black
10
148.052
20
-110.915
11
148.047
21
-110.913
0
LINE
8
Black
10
148.047
20
-110.913
11
148.034
21
-110.904
0
LINE
8
Black
10
148.034
20
-110.904
11
148.02
21
-110.896
0
LINE
8
Black
10
148.02
20
-110.896
11
148.016
21
-110.892
0
LINE
8
Black
10
148.016
20
-110.892
11
148.012
21
-110.888
0
LINE
8
Black
10
148.012
20
-110.888
11
147.618
21
-110.495
0
LINE
8
Black
10
147.618
20
-110.495
11
147.553
21
-110.533
0
LINE
8
Black
10
147.553
20
-110.533
11
147.45
21
-110.551
0
LINE
8
Black
10
147.45
20
-110.551
11
147.347
21
-110.533
0
LINE
8
Black
10
147.347
20
-110.533
11
147.256
21
-110.481
0
LINE
8
Black
10
147.256
20
-110.481
11
147.189
21
-110.401
0
LINE
8
Black
10
147.189
20
-110.401
11
147.153
21
-110.302
0
LINE
8
Black
10
147.153
20
-110.302
11
147.153
21
-110.198
0
LINE
8
Black
10
147.153
20
-110.198
11
147.189
21
-110.099
0
LINE
8
Black
10
147.189
20
-110.099
11
147.256
21
-110.019
0
LINE
8
Black
10
147.256
20
-110.019
11
147.347
21
-109.967
0
LINE
8
Black
10
147.347
20
-109.967
11
147.45
21
-109.949
0
LINE
8
Black
10
147.45
20
-109.949
11
147.553
21
-109.967
0
LINE
8
Black
10
147.553
20
-109.967
11
147.644
21
-110.019
0
LINE
8
Black
10
147.644
20
-110.019
11
147.711
21
-110.099
0
LINE
8
Black
10
147.711
20
-110.099
11
147.747
21
-110.198
0
LINE
8
Black
10
147.747
20
-110.198
11
147.747
21
-110.27
0
LINE
8
Black
10
147.747
20
-110.27
11
148.152
21
-110.675
0
LINE
8
Black
10
148.152
20
-110.675
11
148.798
21
-110.675
0
LINE
8
Black
10
148.798
20
-110.675
11
150.112
21
-109.362
0
LINE
8
Black
10
150.112
20
-109.362
11
150.147
21
-109.337
0
LINE
8
Black
10
150.147
20
-109.337
11
150.189
21
-109.325
0
LINE
8
Black
10
150.189
20
-109.325
11
150.232
21
-109.329
0
LINE
8
Black
10
160.103
20
-107.417
11
160.194
21
-107.469
0
LINE
8
Black
10
160.194
20
-107.469
11
160.261
21
-107.549
0
LINE
8
Black
10
160.261
20
-107.549
11
160.297
21
-107.648
0
LINE
8
Black
10
160.297
20
-107.648
11
160.297
21
-107.752
0
LINE
8
Black
10
160.297
20
-107.752
11
160.261
21
-107.851
0
LINE
8
Black
10
160.261
20
-107.851
11
160.194
21
-107.931
0
LINE
8
Black
10
160.194
20
-107.931
11
160.103
21
-107.983
0
LINE
8
Black
10
160.103
20
-107.983
11
160
21
-108.001
0
LINE
8
Black
10
160
20
-108.001
11
159.897
21
-107.983
0
LINE
8
Black
10
159.897
20
-107.983
11
159.806
21
-107.931
0
LINE
8
Black
10
159.806
20
-107.931
11
159.739
21
-107.851
0
LINE
8
Black
10
159.739
20
-107.851
11
159.703
21
-107.752
0
LINE
8
Black
10
159.703
20
-107.752
11
159.703
21
-107.648
0
LINE
8
Black
10
159.703
20
-107.648
11
159.739
21
-107.549
0
LINE
8
Black
10
159.739
20
-107.549
11
159.806
21
-107.469
0
LINE
8
Black
10
159.806
20
-107.469
11
159.897
21
-107.417
0
LINE
8
Black
10
159.897
20
-107.417
11
160
21
-107.399
0
LINE
8
Black
10
160
20
-107.399
11
160.103
21
-107.417
0
LINE
8
Black
10
168.903
20
-99.117
11
168.994
21
-99.1693
0
LINE
8
Black
10
168.994
20
-99.1693
11
169.061
21
-99.2494
0
LINE
8
Black
10
169.061
20
-99.2494
11
169.097
21
-99.3477
0
LINE
8
Black
10
169.097
20
-99.3477
11
169.097
21
-99.4523
0
LINE
8
Black
10
169.097
20
-99.4523
11
169.061
21
-99.5506
0
LINE
8
Black
10
169.061
20
-99.5506
11
168.994
21
-99.6307
0
LINE
8
Black
10
168.994
20
-99.6307
11
168.903
21
-99.683
0
LINE
8
Black
10
168.903
20
-99.683
11
168.891
21
-99.6852
0
LINE
8
Black
10
168.891
20
-99.6852
11
168.888
21
-99.6884
0
LINE
8
Black
10
168.888
20
-99.6884
11
167.788
21
-100.788
0
LINE
8
Black
10
167.788
20
-100.788
11
167.788
21
-100.788
0
LINE
8
Black
10
167.788
20
-100.788
11
167.238
21
-101.338
0
LINE
8
Black
10
167.238
20
-101.338
11
167.234
21
-101.342
0
LINE
8
Black
10
167.234
20
-101.342
11
167.23
21
-101.346
0
LINE
8
Black
10
167.23
20
-101.346
11
167.216
21
-101.354
0
LINE
8
Black
10
167.216
20
-101.354
11
167.203
21
-101.363
0
LINE
8
Black
10
167.203
20
-101.363
11
167.198
21
-101.365
0
LINE
8
Black
10
167.198
20
-101.365
11
167.193
21
-101.367
0
LINE
8
Black
10
167.193
20
-101.367
11
167.177
21
-101.37
0
LINE
8
Black
10
167.177
20
-101.37
11
167.161
21
-101.375
0
LINE
8
Black
10
167.161
20
-101.375
11
167.155
21
-101.374
0
LINE
8
Black
10
167.155
20
-101.374
11
167.15
21
-101.375
0
LINE
8
Black
10
167.15
20
-101.375
11
165.682
21
-101.375
0
LINE
8
Black
10
165.682
20
-101.375
11
164.425
21
-102.631
0
LINE
8
Black
10
164.425
20
-102.631
11
164.474
21
-102.659
0
LINE
8
Black
10
164.474
20
-102.659
11
164.541
21
-102.739
0
LINE
8
Black
10
164.541
20
-102.739
11
164.577
21
-102.838
0
LINE
8
Black
10
164.577
20
-102.838
11
164.577
21
-102.942
0
LINE
8
Black
10
164.577
20
-102.942
11
164.541
21
-103.041
0
LINE
8
Black
10
164.541
20
-103.041
11
164.474
21
-103.121
0
LINE
8
Black
10
164.474
20
-103.121
11
164.383
21
-103.173
0
LINE
8
Black
10
164.383
20
-103.173
11
164.28
21
-103.191
0
LINE
8
Black
10
164.28
20
-103.191
11
164.177
21
-103.173
0
LINE
8
Black
10
164.177
20
-103.173
11
164.086
21
-103.121
0
LINE
8
Black
10
164.086
20
-103.121
11
164.019
21
-103.041
0
LINE
8
Black
10
164.019
20
-103.041
11
163.983
21
-102.942
0
LINE
8
Black
10
163.983
20
-102.942
11
163.983
21
-102.838
0
LINE
8
Black
10
163.983
20
-102.838
11
164.019
21
-102.739
0
LINE
8
Black
10
164.019
20
-102.739
11
164.086
21
-102.659
0
LINE
8
Black
10
164.086
20
-102.659
11
164.155
21
-102.62
0
LINE
8
Black
10
164.155
20
-102.62
11
164.155
21
-102.6
0
LINE
8
Black
10
164.155
20
-102.6
11
164.156
21
-102.595
0
LINE
8
Black
10
164.156
20
-102.595
11
164.155
21
-102.589
0
LINE
8
Black
10
164.155
20
-102.589
11
164.16
21
-102.573
0
LINE
8
Black
10
164.16
20
-102.573
11
164.163
21
-102.557
0
LINE
8
Black
10
164.163
20
-102.557
11
164.165
21
-102.552
0
LINE
8
Black
10
164.165
20
-102.552
11
164.167
21
-102.547
0
LINE
8
Black
10
164.167
20
-102.547
11
164.176
21
-102.534
0
LINE
8
Black
10
164.176
20
-102.534
11
164.184
21
-102.52
0
LINE
8
Black
10
164.184
20
-102.52
11
164.188
21
-102.516
0
LINE
8
Black
10
164.188
20
-102.516
11
164.192
21
-102.512
0
LINE
8
Black
10
164.192
20
-102.512
11
165.542
21
-101.162
0
LINE
8
Black
10
165.542
20
-101.162
11
165.546
21
-101.158
0
LINE
8
Black
10
165.546
20
-101.158
11
165.55
21
-101.154
0
LINE
8
Black
10
165.55
20
-101.154
11
165.564
21
-101.146
0
LINE
8
Black
10
165.564
20
-101.146
11
165.577
21
-101.137
0
LINE
8
Black
10
165.577
20
-101.137
11
165.582
21
-101.135
0
LINE
8
Black
10
165.582
20
-101.135
11
165.587
21
-101.133
0
LINE
8
Black
10
165.587
20
-101.133
11
165.603
21
-101.13
0
LINE
8
Black
10
165.603
20
-101.13
11
165.619
21
-101.125
0
LINE
8
Black
10
165.619
20
-101.125
11
165.625
21
-101.126
0
LINE
8
Black
10
165.625
20
-101.126
11
165.63
21
-101.125
0
LINE
8
Black
10
165.63
20
-101.125
11
167.098
21
-101.125
0
LINE
8
Black
10
167.098
20
-101.125
11
167.612
21
-100.612
0
LINE
8
Black
10
167.612
20
-100.612
11
167.612
21
-100.612
0
LINE
8
Black
10
167.612
20
-100.612
11
168.6
21
-99.6231
0
LINE
8
Black
10
168.6
20
-99.6231
11
168.539
21
-99.5506
0
LINE
8
Black
10
168.539
20
-99.5506
11
168.503
21
-99.4523
0
LINE
8
Black
10
168.503
20
-99.4523
11
168.503
21
-99.3477
0
LINE
8
Black
10
168.503
20
-99.3477
11
168.539
21
-99.2494
0
LINE
8
Black
10
168.539
20
-99.2494
11
168.606
21
-99.1693
0
LINE
8
Black
10
168.606
20
-99.1693
11
168.697
21
-99.117
0
LINE
8
Black
10
168.697
20
-99.117
11
168.8
21
-99.0989
0
LINE
8
Black
10
168.8
20
-99.0989
11
168.903
21
-99.117
0
LINE
8
Black
10
164.253
20
-96.067
11
164.344
21
-96.1193
0
LINE
8
Black
10
164.344
20
-96.1193
11
164.411
21
-96.1994
0
LINE
8
Black
10
164.411
20
-96.1994
11
164.447
21
-96.2977
0
LINE
8
Black
10
164.447
20
-96.2977
11
164.447
21
-96.4023
0
LINE
8
Black
10
164.447
20
-96.4023
11
164.411
21
-96.5006
0
LINE
8
Black
10
164.411
20
-96.5006
11
164.344
21
-96.5807
0
LINE
8
Black
10
164.344
20
-96.5807
11
164.253
21
-96.633
0
LINE
8
Black
10
164.253
20
-96.633
11
164.15
21
-96.6511
0
LINE
8
Black
10
164.15
20
-96.6511
11
164.047
21
-96.633
0
LINE
8
Black
10
164.047
20
-96.633
11
164.045
21
-96.6318
0
LINE
8
Black
10
164.045
20
-96.6318
11
163.675
21
-97.0018
0
LINE
8
Black
10
163.675
20
-97.0018
11
163.675
21
-97.95
0
LINE
8
Black
10
163.675
20
-97.95
11
163.674
21
-97.9554
0
LINE
8
Black
10
163.674
20
-97.9554
11
163.675
21
-97.9609
0
LINE
8
Black
10
163.675
20
-97.9609
11
163.67
21
-97.9767
0
LINE
8
Black
10
163.67
20
-97.9767
11
163.667
21
-97.9928
0
LINE
8
Black
10
163.667
20
-97.9928
11
163.665
21
-97.9975
0
LINE
8
Black
10
163.665
20
-97.9975
11
163.663
21
-98.0028
0
LINE
8
Black
10
163.663
20
-98.0028
11
163.654
21
-98.0162
0
LINE
8
Black
10
163.654
20
-98.0162
11
163.646
21
-98.0303
0
LINE
8
Black
10
163.646
20
-98.0303
11
163.642
21
-98.0339
0
LINE
8
Black
10
163.642
20
-98.0339
11
163.638
21
-98.0384
0
LINE
8
Black
10
163.638
20
-98.0384
11
162.625
21
-99.0518
0
LINE
8
Black
10
162.625
20
-99.0518
11
162.625
21
-100.75
0
LINE
8
Black
10
162.625
20
-100.75
11
162.624
21
-100.755
0
LINE
8
Black
10
162.624
20
-100.755
11
162.625
21
-100.761
0
LINE
8
Black
10
162.625
20
-100.761
11
162.62
21
-100.777
0
LINE
8
Black
10
162.62
20
-100.777
11
162.617
21
-100.793
0
LINE
8
Black
10
162.617
20
-100.793
11
162.615
21
-100.798
0
LINE
8
Black
10
162.615
20
-100.798
11
162.613
21
-100.803
0
LINE
8
Black
10
162.613
20
-100.803
11
162.604
21
-100.816
0
LINE
8
Black
10
162.604
20
-100.816
11
162.596
21
-100.83
0
LINE
8
Black
10
162.596
20
-100.83
11
162.592
21
-100.834
0
LINE
8
Black
10
162.592
20
-100.834
11
162.588
21
-100.838
0
LINE
8
Black
10
162.588
20
-100.838
11
161.588
21
-101.838
0
LINE
8
Black
10
161.588
20
-101.838
11
161.584
21
-101.842
0
LINE
8
Black
10
161.584
20
-101.842
11
161.58
21
-101.846
0
LINE
8
Black
10
161.58
20
-101.846
11
161.566
21
-101.854
0
LINE
8
Black
10
161.566
20
-101.854
11
161.553
21
-101.863
0
LINE
8
Black
10
161.553
20
-101.863
11
161.548
21
-101.865
0
LINE
8
Black
10
161.548
20
-101.865
11
161.543
21
-101.867
0
LINE
8
Black
10
161.543
20
-101.867
11
161.527
21
-101.87
0
LINE
8
Black
10
161.527
20
-101.87
11
161.511
21
-101.875
0
LINE
8
Black
10
161.511
20
-101.875
11
161.505
21
-101.874
0
LINE
8
Black
10
161.505
20
-101.874
11
161.5
21
-101.875
0
LINE
8
Black
10
161.5
20
-101.875
11
161
21
-101.875
0
LINE
8
Black
10
161
20
-101.875
11
160.995
21
-101.874
0
LINE
8
Black
10
160.995
20
-101.874
11
160.989
21
-101.875
0
LINE
8
Black
10
160.989
20
-101.875
11
160.973
21
-101.87
0
LINE
8
Black
10
160.973
20
-101.87
11
160.957
21
-101.867
0
LINE
8
Black
10
160.957
20
-101.867
11
160.952
21
-101.865
0
LINE
8
Black
10
160.952
20
-101.865
11
160.947
21
-101.863
0
LINE
8
Black
10
160.947
20
-101.863
11
160.934
21
-101.854
0
LINE
8
Black
10
160.934
20
-101.854
11
160.92
21
-101.846
0
LINE
8
Black
10
160.92
20
-101.846
11
160.916
21
-101.842
0
LINE
8
Black
10
160.916
20
-101.842
11
160.912
21
-101.838
0
LINE
8
Black
10
160.912
20
-101.838
11
160.805
21
-101.732
0
LINE
8
Black
10
160.805
20
-101.732
11
160.803
21
-101.733
0
LINE
8
Black
10
160.803
20
-101.733
11
160.7
21
-101.751
0
LINE
8
Black
10
160.7
20
-101.751
11
160.597
21
-101.733
0
LINE
8
Black
10
160.597
20
-101.733
11
160.506
21
-101.681
0
LINE
8
Black
10
160.506
20
-101.681
11
160.439
21
-101.601
0
LINE
8
Black
10
160.439
20
-101.601
11
160.403
21
-101.502
0
LINE
8
Black
10
160.403
20
-101.502
11
160.403
21
-101.398
0
LINE
8
Black
10
160.403
20
-101.398
11
160.439
21
-101.299
0
LINE
8
Black
10
160.439
20
-101.299
11
160.506
21
-101.219
0
LINE
8
Black
10
160.506
20
-101.219
11
160.597
21
-101.167
0
LINE
8
Black
10
160.597
20
-101.167
11
160.7
21
-101.149
0
LINE
8
Black
10
160.7
20
-101.149
11
160.803
21
-101.167
0
LINE
8
Black
10
160.803
20
-101.167
11
160.894
21
-101.219
0
LINE
8
Black
10
160.894
20
-101.219
11
160.961
21
-101.299
0
LINE
8
Black
10
160.961
20
-101.299
11
160.997
21
-101.398
0
LINE
8
Black
10
160.997
20
-101.398
11
160.997
21
-101.502
0
LINE
8
Black
10
160.997
20
-101.502
11
160.979
21
-101.552
0
LINE
8
Black
10
160.979
20
-101.552
11
161.052
21
-101.625
0
LINE
8
Black
10
161.052
20
-101.625
11
161.448
21
-101.625
0
LINE
8
Black
10
161.448
20
-101.625
11
162.375
21
-100.698
0
LINE
8
Black
10
162.375
20
-100.698
11
162.375
21
-99
0
LINE
8
Black
10
162.375
20
-99
11
162.376
21
-98.9946
0
LINE
8
Black
10
162.376
20
-98.9946
11
162.375
21
-98.9891
0
LINE
8
Black
10
162.375
20
-98.9891
11
162.38
21
-98.9733
0
LINE
8
Black
10
162.38
20
-98.9733
11
162.383
21
-98.9572
0
LINE
8
Black
10
162.383
20
-98.9572
11
162.385
21
-98.9525
0
LINE
8
Black
10
162.385
20
-98.9525
11
162.387
21
-98.9472
0
LINE
8
Black
10
162.387
20
-98.9472
11
162.396
21
-98.9338
0
LINE
8
Black
10
162.396
20
-98.9338
11
162.404
21
-98.9197
0
LINE
8
Black
10
162.404
20
-98.9197
11
162.408
21
-98.9161
0
LINE
8
Black
10
162.408
20
-98.9161
11
162.412
21
-98.9116
0
LINE
8
Black
10
162.412
20
-98.9116
11
163.425
21
-97.8982
0
LINE
8
Black
10
163.425
20
-97.8982
11
163.425
21
-96.95
0
LINE
8
Black
10
163.425
20
-96.95
11
163.426
21
-96.9446
0
LINE
8
Black
10
163.426
20
-96.9446
11
163.425
21
-96.9391
0
LINE
8
Black
10
163.425
20
-96.9391
11
163.43
21
-96.9233
0
LINE
8
Black
10
163.43
20
-96.9233
11
163.433
21
-96.9072
0
LINE
8
Black
10
163.433
20
-96.9072
11
163.435
21
-96.9025
0
LINE
8
Black
10
163.435
20
-96.9025
11
163.437
21
-96.8972
0
LINE
8
Black
10
163.437
20
-96.8972
11
163.446
21
-96.8838
0
LINE
8
Black
10
163.446
20
-96.8838
11
163.454
21
-96.8697
0
LINE
8
Black
10
163.454
20
-96.8697
11
163.458
21
-96.8661
0
LINE
8
Black
10
163.458
20
-96.8661
11
163.462
21
-96.8616
0
LINE
8
Black
10
163.462
20
-96.8616
11
163.871
21
-96.4518
0
LINE
8
Black
10
163.871
20
-96.4518
11
163.853
21
-96.4023
0
LINE
8
Black
10
163.853
20
-96.4023
11
163.853
21
-96.2977
0
LINE
8
Black
10
163.853
20
-96.2977
11
163.889
21
-96.1994
0
LINE
8
Black
10
163.889
20
-96.1994
11
163.956
21
-96.1193
0
LINE
8
Black
10
163.956
20
-96.1193
11
164.047
21
-96.067
0
LINE
8
Black
10
164.047
20
-96.067
11
164.15
21
-96.0489
0
LINE
8
Black
10
164.15
20
-96.0489
11
164.253
21
-96.067
0
LINE
8
Black
10
163.703
20
-95.467
11
163.794
21
-95.5193
0
LINE
8
Black
10
163.794
20
-95.5193
11
163.861
21
-95.5994
0
LINE
8
Black
10
163.861
20
-95.5994
11
163.897
21
-95.6977
0
LINE
8
Black
10
163.897
20
-95.6977
11
163.897
21
-95.8023
0
LINE
8
Black
10
163.897
20
-95.8023
11
163.861
21
-95.9006
0
LINE
8
Black
10
163.861
20
-95.9006
11
163.794
21
-95.9807
0
LINE
8
Black
10
163.794
20
-95.9807
11
163.703
21
-96.033
0
LINE
8
Black
10
163.703
20
-96.033
11
163.6
21
-96.0511
0
LINE
8
Black
10
163.6
20
-96.0511
11
163.497
21
-96.033
0
LINE
8
Black
10
163.497
20
-96.033
11
163.495
21
-96.0318
0
LINE
8
Black
10
163.495
20
-96.0318
11
163.225
21
-96.3018
0
LINE
8
Black
10
163.225
20
-96.3018
11
163.225
21
-97.75
0
LINE
8
Black
10
163.225
20
-97.75
11
163.224
21
-97.7554
0
LINE
8
Black
10
163.224
20
-97.7554
11
163.225
21
-97.7609
0
LINE
8
Black
10
163.225
20
-97.7609
11
163.22
21
-97.7767
0
LINE
8
Black
10
163.22
20
-97.7767
11
163.217
21
-97.7928
0
LINE
8
Black
10
163.217
20
-97.7928
11
163.215
21
-97.7975
0
LINE
8
Black
10
163.215
20
-97.7975
11
163.213
21
-97.8028
0
LINE
8
Black
10
163.213
20
-97.8028
11
163.204
21
-97.8162
0
LINE
8
Black
10
163.204
20
-97.8162
11
163.196
21
-97.8303
0
LINE
8
Black
10
163.196
20
-97.8303
11
163.192
21
-97.8339
0
LINE
8
Black
10
163.192
20
-97.8339
11
163.188
21
-97.8384
0
LINE
8
Black
10
163.188
20
-97.8384
11
162.175
21
-98.8518
0
LINE
8
Black
10
162.175
20
-98.8518
11
162.175
21
-100.4
0
LINE
8
Black
10
162.175
20
-100.4
11
162.174
21
-100.405
0
LINE
8
Black
10
162.174
20
-100.405
11
162.175
21
-100.411
0
LINE
8
Black
10
162.175
20
-100.411
11
162.17
21
-100.427
0
LINE
8
Black
10
162.17
20
-100.427
11
162.167
21
-100.443
0
LINE
8
Black
10
162.167
20
-100.443
11
162.165
21
-100.448
0
LINE
8
Black
10
162.165
20
-100.448
11
162.163
21
-100.453
0
LINE
8
Black
10
162.163
20
-100.453
11
162.154
21
-100.466
0
LINE
8
Black
10
162.154
20
-100.466
11
162.146
21
-100.48
0
LINE
8
Black
10
162.146
20
-100.48
11
162.142
21
-100.484
0
LINE
8
Black
10
162.142
20
-100.484
11
162.138
21
-100.488
0
LINE
8
Black
10
162.138
20
-100.488
11
161.697
21
-100.93
0
LINE
8
Black
10
161.697
20
-100.93
11
161.697
21
-101.002
0
LINE
8
Black
10
161.697
20
-101.002
11
161.661
21
-101.101
0
LINE
8
Black
10
161.661
20
-101.101
11
161.594
21
-101.181
0
LINE
8
Black
10
161.594
20
-101.181
11
161.503
21
-101.233
0
LINE
8
Black
10
161.503
20
-101.233
11
161.4
21
-101.251
0
LINE
8
Black
10
161.4
20
-101.251
11
161.297
21
-101.233
0
LINE
8
Black
10
161.297
20
-101.233
11
161.206
21
-101.181
0
LINE
8
Black
10
161.206
20
-101.181
11
161.139
21
-101.101
0
LINE
8
Black
10
161.139
20
-101.101
11
161.103
21
-101.002
0
LINE
8
Black
10
161.103
20
-101.002
11
161.103
21
-100.898
0
LINE
8
Black
10
161.103
20
-100.898
11
161.139
21
-100.799
0
LINE
8
Black
10
161.139
20
-100.799
11
161.206
21
-100.719
0
LINE
8
Black
10
161.206
20
-100.719
11
161.297
21
-100.667
0
LINE
8
Black
10
161.297
20
-100.667
11
161.4
21
-100.649
0
LINE
8
Black
10
161.4
20
-100.649
11
161.503
21
-100.667
0
LINE
8
Black
10
161.503
20
-100.667
11
161.568
21
-100.705
0
LINE
8
Black
10
161.568
20
-100.705
11
161.925
21
-100.348
0
LINE
8
Black
10
161.925
20
-100.348
11
161.925
21
-98.8
0
LINE
8
Black
10
161.925
20
-98.8
11
161.926
21
-98.7946
0
LINE
8
Black
10
161.926
20
-98.7946
11
161.925
21
-98.7891
0
LINE
8
Black
10
161.925
20
-98.7891
11
161.93
21
-98.7733
0
LINE
8
Black
10
161.93
20
-98.7733
11
161.933
21
-98.7572
0
LINE
8
Black
10
161.933
20
-98.7572
11
161.935
21
-98.7525
0
LINE
8
Black
10
161.935
20
-98.7525
11
161.937
21
-98.7472
0
LINE
8
Black
10
161.937
20
-98.7472
11
161.946
21
-98.7338
0
LINE
8
Black
10
161.946
20
-98.7338
11
161.954
21
-98.7197
0
LINE
8
Black
10
161.954
20
-98.7197
11
161.958
21
-98.7161
0
LINE
8
Black
10
161.958
20
-98.7161
11
161.962
21
-98.7116
0
LINE
8
Black
10
161.962
20
-98.7116
11
162.975
21
-97.6982
0
LINE
8
Black
10
162.975
20
-97.6982
11
162.975
21
-96.25
0
LINE
8
Black
10
162.975
20
-96.25
11
162.976
21
-96.2446
0
LINE
8
Black
10
162.976
20
-96.2446
11
162.975
21
-96.2391
0
LINE
8
Black
10
162.975
20
-96.2391
11
162.98
21
-96.2233
0
LINE
8
Black
10
162.98
20
-96.2233
11
162.983
21
-96.2072
0
LINE
8
Black
10
162.983
20
-96.2072
11
162.985
21
-96.2025
0
LINE
8
Black
10
162.985
20
-96.2025
11
162.987
21
-96.1972
0
LINE
8
Black
10
162.987
20
-96.1972
11
162.996
21
-96.1838
0
LINE
8
Black
10
162.996
20
-96.1838
11
163.004
21
-96.1697
0
LINE
8
Black
10
163.004
20
-96.1697
11
163.008
21
-96.1661
0
LINE
8
Black
10
163.008
20
-96.1661
11
163.012
21
-96.1616
0
LINE
8
Black
10
163.012
20
-96.1616
11
163.321
21
-95.8518
0
LINE
8
Black
10
163.321
20
-95.8518
11
163.303
21
-95.8023
0
LINE
8
Black
10
163.303
20
-95.8023
11
163.303
21
-95.6977
0
LINE
8
Black
10
163.303
20
-95.6977
11
163.339
21
-95.5994
0
LINE
8
Black
10
163.339
20
-95.5994
11
163.406
21
-95.5193
0
LINE
8
Black
10
163.406
20
-95.5193
11
163.497
21
-95.467
0
LINE
8
Black
10
163.497
20
-95.467
11
163.6
21
-95.4489
0
LINE
8
Black
10
163.6
20
-95.4489
11
163.703
21
-95.467
0
LINE
8
Black
10
152.353
20
-99.717
11
152.444
21
-99.7693
0
LINE
8
Black
10
152.444
20
-99.7693
11
152.511
21
-99.8494
0
LINE
8
Black
10
152.511
20
-99.8494
11
152.547
21
-99.9477
0
LINE
8
Black
10
152.547
20
-99.9477
11
152.547
21
-100.052
0
LINE
8
Black
10
152.547
20
-100.052
11
152.511
21
-100.151
0
LINE
8
Black
10
152.511
20
-100.151
11
152.444
21
-100.231
0
LINE
8
Black
10
152.444
20
-100.231
11
152.353
21
-100.283
0
LINE
8
Black
10
152.353
20
-100.283
11
152.25
21
-100.301
0
LINE
8
Black
10
152.25
20
-100.301
11
152.147
21
-100.283
0
LINE
8
Black
10
152.147
20
-100.283
11
152.056
21
-100.231
0
LINE
8
Black
10
152.056
20
-100.231
11
151.989
21
-100.151
0
LINE
8
Black
10
151.989
20
-100.151
11
151.953
21
-100.052
0
LINE
8
Black
10
151.953
20
-100.052
11
151.953
21
-99.9477
0
LINE
8
Black
10
151.953
20
-99.9477
11
151.989
21
-99.8494
0
LINE
8
Black
10
151.989
20
-99.8494
11
152.056
21
-99.7693
0
LINE
8
Black
10
152.056
20
-99.7693
11
152.147
21
-99.717
0
LINE
8
Black
10
152.147
20
-99.717
11
152.25
21
-99.6989
0
LINE
8
Black
10
152.25
20
-99.6989
11
152.353
21
-99.717
0
LINE
8
Black
10
160.867
20
-85.8957
11
160.957
21
-85.948
0
LINE
8
Black
10
160.957
20
-85.948
11
161.024
21
-86.0281
0
LINE
8
Black
10
161.024
20
-86.0281
11
161.06
21
-86.1264
0
LINE
8
Black
10
161.06
20
-86.1264
11
161.06
21
-86.2309
0
LINE
8
Black
10
161.06
20
-86.2309
11
161.024
21
-86.3292
0
LINE
8
Black
10
161.024
20
-86.3292
11
160.957
21
-86.4093
0
LINE
8
Black
10
160.957
20
-86.4093
11
160.889
21
-86.4489
0
LINE
8
Black
10
160.889
20
-86.4489
11
160.889
21
-88.0171
0
LINE
8
Black
10
160.889
20
-88.0171
11
160.889
21
-88.45
0
LINE
8
Black
10
160.889
20
-88.45
11
160.889
21
-88.5121
0
LINE
8
Black
10
160.889
20
-88.5121
11
160.881
21
-88.5548
0
LINE
8
Black
10
160.881
20
-88.5548
11
160.859
21
-88.5924
0
LINE
8
Black
10
160.859
20
-88.5924
11
160.826
21
-88.6203
0
LINE
8
Black
10
160.826
20
-88.6203
11
160.785
21
-88.6352
0
LINE
8
Black
10
160.785
20
-88.6352
11
160.755
21
-88.6352
0
LINE
8
Black
10
160.755
20
-88.6352
11
160.525
21
-88.8655
0
LINE
8
Black
10
160.525
20
-88.8655
11
160.525
21
-94.85
0
LINE
8
Black
10
160.525
20
-94.85
11
160.525
21
-97.3482
0
LINE
8
Black
10
160.525
20
-97.3482
11
160.688
21
-97.5116
0
LINE
8
Black
10
160.688
20
-97.5116
11
160.688
21
-97.5116
0
LINE
8
Black
10
160.688
20
-97.5116
11
161.395
21
-98.2182
0
LINE
8
Black
10
161.395
20
-98.2182
11
161.397
21
-98.217
0
LINE
8
Black
10
161.397
20
-98.217
11
161.5
21
-98.1989
0
LINE
8
Black
10
161.5
20
-98.1989
11
161.603
21
-98.217
0
LINE
8
Black
10
161.603
20
-98.217
11
161.694
21
-98.2693
0
LINE
8
Black
10
161.694
20
-98.2693
11
161.761
21
-98.3494
0
LINE
8
Black
10
161.761
20
-98.3494
11
161.797
21
-98.4477
0
LINE
8
Black
10
161.797
20
-98.4477
11
161.797
21
-98.5523
0
LINE
8
Black
10
161.797
20
-98.5523
11
161.761
21
-98.6506
0
LINE
8
Black
10
161.761
20
-98.6506
11
161.694
21
-98.7307
0
LINE
8
Black
10
161.694
20
-98.7307
11
161.603
21
-98.783
0
LINE
8
Black
10
161.603
20
-98.783
11
161.5
21
-98.8011
0
LINE
8
Black
10
161.5
20
-98.8011
11
161.397
21
-98.783
0
LINE
8
Black
10
161.397
20
-98.783
11
161.306
21
-98.7307
0
LINE
8
Black
10
161.306
20
-98.7307
11
161.239
21
-98.6506
0
LINE
8
Black
10
161.239
20
-98.6506
11
161.203
21
-98.5523
0
LINE
8
Black
10
161.203
20
-98.5523
11
161.203
21
-98.4477
0
LINE
8
Black
10
161.203
20
-98.4477
11
161.221
21
-98.3982
0
LINE
8
Black
10
161.221
20
-98.3982
11
160.512
21
-97.6884
0
LINE
8
Black
10
160.512
20
-97.6884
11
160.512
21
-97.6884
0
LINE
8
Black
10
160.512
20
-97.6884
11
160.312
21
-97.4884
0
LINE
8
Black
10
160.312
20
-97.4884
11
160.308
21
-97.4839
0
LINE
8
Black
10
160.308
20
-97.4839
11
160.304
21
-97.4803
0
LINE
8
Black
10
160.304
20
-97.4803
11
160.296
21
-97.4662
0
LINE
8
Black
10
160.296
20
-97.4662
11
160.287
21
-97.4528
0
LINE
8
Black
10
160.287
20
-97.4528
11
160.285
21
-97.4475
0
LINE
8
Black
10
160.285
20
-97.4475
11
160.283
21
-97.4428
0
LINE
8
Black
10
160.283
20
-97.4428
11
160.28
21
-97.4267
0
LINE
8
Black
10
160.28
20
-97.4267
11
160.275
21
-97.4109
0
LINE
8
Black
10
160.275
20
-97.4109
11
160.276
21
-97.4054
0
LINE
8
Black
10
160.276
20
-97.4054
11
160.275
21
-97.4
0
LINE
8
Black
10
160.275
20
-97.4
11
160.275
21
-94.85
0
LINE
8
Black
10
160.275
20
-94.85
11
160.275
21
-88.8137
0
LINE
8
Black
10
160.275
20
-88.8137
11
160.276
21
-88.8083
0
LINE
8
Black
10
160.276
20
-88.8083
11
160.275
21
-88.8028
0
LINE
8
Black
10
160.275
20
-88.8028
11
160.28
21
-88.787
0
LINE
8
Black
10
160.28
20
-88.787
11
160.283
21
-88.7709
0
LINE
8
Black
10
160.283
20
-88.7709
11
160.285
21
-88.7662
0
LINE
8
Black
10
160.285
20
-88.7662
11
160.287
21
-88.7609
0
LINE
8
Black
10
160.287
20
-88.7609
11
160.296
21
-88.7475
0
LINE
8
Black
10
160.296
20
-88.7475
11
160.304
21
-88.7333
0
LINE
8
Black
10
160.304
20
-88.7333
11
160.308
21
-88.7298
0
LINE
8
Black
10
160.308
20
-88.7298
11
160.312
21
-88.7253
0
LINE
8
Black
10
160.312
20
-88.7253
11
160.639
21
-88.3982
0
LINE
8
Black
10
160.639
20
-88.3982
11
160.639
21
-88.0171
0
LINE
8
Black
10
160.639
20
-88.0171
11
160.639
21
-86.4489
0
LINE
8
Black
10
160.639
20
-86.4489
11
160.57
21
-86.4093
0
LINE
8
Black
10
160.57
20
-86.4093
11
160.503
21
-86.3292
0
LINE
8
Black
10
160.503
20
-86.3292
11
160.467
21
-86.2309
0
LINE
8
Black
10
160.467
20
-86.2309
11
160.467
21
-86.1264
0
LINE
8
Black
10
160.467
20
-86.1264
11
160.503
21
-86.0281
0
LINE
8
Black
10
160.503
20
-86.0281
11
160.57
21
-85.948
0
LINE
8
Black
10
160.57
20
-85.948
11
160.661
21
-85.8957
0
LINE
8
Black
10
160.661
20
-85.8957
11
160.764
21
-85.8775
0
LINE
8
Black
10
160.764
20
-85.8775
11
160.867
21
-85.8957
0
LINE
8
Black
10
158.553
20
-85.717
11
158.644
21
-85.7693
0
LINE
8
Black
10
158.644
20
-85.7693
11
158.711
21
-85.8494
0
LINE
8
Black
10
158.711
20
-85.8494
11
158.747
21
-85.9477
0
LINE
8
Black
10
158.747
20
-85.9477
11
158.747
21
-86.0523
0
LINE
8
Black
10
158.747
20
-86.0523
11
158.711
21
-86.1506
0
LINE
8
Black
10
158.711
20
-86.1506
11
158.644
21
-86.2307
0
LINE
8
Black
10
158.644
20
-86.2307
11
158.553
21
-86.283
0
LINE
8
Black
10
158.553
20
-86.283
11
158.525
21
-86.2879
0
LINE
8
Black
10
158.525
20
-86.2879
11
158.525
21
-88.9982
0
LINE
8
Black
10
158.525
20
-88.9982
11
159.138
21
-89.6116
0
LINE
8
Black
10
159.138
20
-89.6116
11
159.142
21
-89.6161
0
LINE
8
Black
10
159.142
20
-89.6161
11
159.146
21
-89.6197
0
LINE
8
Black
10
159.146
20
-89.6197
11
159.154
21
-89.6338
0
LINE
8
Black
10
159.154
20
-89.6338
11
159.163
21
-89.6472
0
LINE
8
Black
10
159.163
20
-89.6472
11
159.165
21
-89.6525
0
LINE
8
Black
10
159.165
20
-89.6525
11
159.167
21
-89.6572
0
LINE
8
Black
10
159.167
20
-89.6572
11
159.17
21
-89.6733
0
LINE
8
Black
10
159.17
20
-89.6733
11
159.175
21
-89.6891
0
LINE
8
Black
10
159.175
20
-89.6891
11
159.174
21
-89.6946
0
LINE
8
Black
10
159.174
20
-89.6946
11
159.175
21
-89.7
0
LINE
8
Black
10
159.175
20
-89.7
11
159.175
21
-94.85
0
LINE
8
Black
10
159.175
20
-94.85
11
159.174
21
-94.8554
0
LINE
8
Black
10
159.174
20
-94.8554
11
159.175
21
-94.8609
0
LINE
8
Black
10
159.175
20
-94.8609
11
159.17
21
-94.8767
0
LINE
8
Black
10
159.17
20
-94.8767
11
159.167
21
-94.8928
0
LINE
8
Black
10
159.167
20
-94.8928
11
159.165
21
-94.8975
0
LINE
8
Black
10
159.165
20
-94.8975
11
159.163
21
-94.9028
0
LINE
8
Black
10
159.163
20
-94.9028
11
159.154
21
-94.9162
0
LINE
8
Black
10
159.154
20
-94.9162
11
159.146
21
-94.9303
0
LINE
8
Black
10
159.146
20
-94.9303
11
159.142
21
-94.9339
0
LINE
8
Black
10
159.142
20
-94.9339
11
159.138
21
-94.9384
0
LINE
8
Black
10
159.138
20
-94.9384
11
158.113
21
-95.9634
0
LINE
8
Black
10
158.113
20
-95.9634
11
158.113
21
-95.9634
0
LINE
8
Black
10
158.113
20
-95.9634
11
158.088
21
-95.9884
0
LINE
8
Black
10
158.088
20
-95.9884
11
158.053
21
-96.0133
0
LINE
8
Black
10
158.053
20
-96.0133
11
158.011
21
-96.0245
0
LINE
8
Black
10
158.011
20
-96.0245
11
157.968
21
-96.0207
0
LINE
8
Black
10
157.968
20
-96.0207
11
157.928
21
-96.0024
0
LINE
8
Black
10
157.928
20
-96.0024
11
157.926
21
-96
0
LINE
8
Black
10
157.926
20
-96
11
156.127
21
-96
0
LINE
8
Black
10
156.127
20
-96
11
154.529
21
-97.5982
0
LINE
8
Black
10
154.529
20
-97.5982
11
154.547
21
-97.6477
0
LINE
8
Black
10
154.547
20
-97.6477
11
154.547
21
-97.7523
0
LINE
8
Black
10
154.547
20
-97.7523
11
154.511
21
-97.8506
0
LINE
8
Black
10
154.511
20
-97.8506
11
154.444
21
-97.9307
0
LINE
8
Black
10
154.444
20
-97.9307
11
154.353
21
-97.983
0
LINE
8
Black
10
154.353
20
-97.983
11
154.25
21
-98.0011
0
LINE
8
Black
10
154.25
20
-98.0011
11
154.147
21
-97.983
0
LINE
8
Black
10
154.147
20
-97.983
11
154.056
21
-97.9307
0
LINE
8
Black
10
154.056
20
-97.9307
11
153.989
21
-97.8506
0
LINE
8
Black
10
153.989
20
-97.8506
11
153.953
21
-97.7523
0
LINE
8
Black
10
153.953
20
-97.7523
11
153.953
21
-97.6477
0
LINE
8
Black
10
153.953
20
-97.6477
11
153.989
21
-97.5494
0
LINE
8
Black
10
153.989
20
-97.5494
11
154.056
21
-97.4693
0
LINE
8
Black
10
154.056
20
-97.4693
11
154.147
21
-97.417
0
LINE
8
Black
10
154.147
20
-97.417
11
154.25
21
-97.3989
0
LINE
8
Black
10
154.25
20
-97.3989
11
154.353
21
-97.417
0
LINE
8
Black
10
154.353
20
-97.417
11
154.355
21
-97.4182
0
LINE
8
Black
10
154.355
20
-97.4182
11
155.987
21
-95.7866
0
LINE
8
Black
10
155.987
20
-95.7866
11
155.991
21
-95.7835
0
LINE
8
Black
10
155.991
20
-95.7835
11
155.995
21
-95.7792
0
LINE
8
Black
10
155.995
20
-95.7792
11
156.009
21
-95.7711
0
LINE
8
Black
10
156.009
20
-95.7711
11
156.022
21
-95.7617
0
LINE
8
Black
10
156.022
20
-95.7617
11
156.027
21
-95.7603
0
LINE
8
Black
10
156.027
20
-95.7603
11
156.032
21
-95.7575
0
LINE
8
Black
10
156.032
20
-95.7575
11
156.048
21
-95.7547
0
LINE
8
Black
10
156.048
20
-95.7547
11
156.064
21
-95.7505
0
LINE
8
Black
10
156.064
20
-95.7505
11
156.07
21
-95.751
0
LINE
8
Black
10
156.07
20
-95.751
11
156.075
21
-95.75
0
LINE
8
Black
10
156.075
20
-95.75
11
157.973
21
-95.75
0
LINE
8
Black
10
157.973
20
-95.75
11
158.925
21
-94.7982
0
LINE
8
Black
10
158.925
20
-94.7982
11
158.925
21
-89.7518
0
LINE
8
Black
10
158.925
20
-89.7518
11
158.312
21
-89.1384
0
LINE
8
Black
10
158.312
20
-89.1384
11
158.308
21
-89.1339
0
LINE
8
Black
10
158.308
20
-89.1339
11
158.304
21
-89.1303
0
LINE
8
Black
10
158.304
20
-89.1303
11
158.296
21
-89.1162
0
LINE
8
Black
10
158.296
20
-89.1162
11
158.287
21
-89.1028
0
LINE
8
Black
10
158.287
20
-89.1028
11
158.285
21
-89.0975
0
LINE
8
Black
10
158.285
20
-89.0975
11
158.283
21
-89.0928
0
LINE
8
Black
10
158.283
20
-89.0928
11
158.28
21
-89.0767
0
LINE
8
Black
10
158.28
20
-89.0767
11
158.275
21
-89.0609
0
LINE
8
Black
10
158.275
20
-89.0609
11
158.276
21
-89.0554
0
LINE
8
Black
10
158.276
20
-89.0554
11
158.275
21
-89.05
0
LINE
8
Black
10
158.275
20
-89.05
11
158.275
21
-86.2414
0
LINE
8
Black
10
158.275
20
-86.2414
11
158.256
21
-86.2307
0
LINE
8
Black
10
158.256
20
-86.2307
11
158.189
21
-86.1506
0
LINE
8
Black
10
158.189
20
-86.1506
11
158.153
21
-86.0523
0
LINE
8
Black
10
158.153
20
-86.0523
11
158.153
21
-85.9477
0
LINE
8
Black
10
158.153
20
-85.9477
11
158.189
21
-85.8494
0
LINE
8
Black
10
158.189
20
-85.8494
11
158.256
21
-85.7693
0
LINE
8
Black
10
158.256
20
-85.7693
11
158.347
21
-85.717
0
LINE
8
Black
10
158.347
20
-85.717
11
158.45
21
-85.6989
0
LINE
8
Black
10
158.45
20
-85.6989
11
158.553
21
-85.717
0
LINE
8
Black
10
161.453
20
-95.867
11
161.544
21
-95.9193
0
LINE
8
Black
10
161.544
20
-95.9193
11
161.611
21
-95.9994
0
LINE
8
Black
10
161.611
20
-95.9994
11
161.647
21
-96.0977
0
LINE
8
Black
10
161.647
20
-96.0977
11
161.647
21
-96.2023
0
LINE
8
Black
10
161.647
20
-96.2023
11
161.611
21
-96.3006
0
LINE
8
Black
10
161.611
20
-96.3006
11
161.544
21
-96.3807
0
LINE
8
Black
10
161.544
20
-96.3807
11
161.475
21
-96.4203
0
LINE
8
Black
10
161.475
20
-96.4203
11
161.475
21
-97.0482
0
LINE
8
Black
10
161.475
20
-97.0482
11
161.852
21
-97.425
0
LINE
8
Black
10
161.852
20
-97.425
11
162.18
21
-97.425
0
LINE
8
Black
10
162.18
20
-97.425
11
162.189
21
-97.3994
0
LINE
8
Black
10
162.189
20
-97.3994
11
162.256
21
-97.3193
0
LINE
8
Black
10
162.256
20
-97.3193
11
162.347
21
-97.267
0
LINE
8
Black
10
162.347
20
-97.267
11
162.45
21
-97.2489
0
LINE
8
Black
10
162.45
20
-97.2489
11
162.553
21
-97.267
0
LINE
8
Black
10
162.553
20
-97.267
11
162.644
21
-97.3193
0
LINE
8
Black
10
162.644
20
-97.3193
11
162.711
21
-97.3994
0
LINE
8
Black
10
162.711
20
-97.3994
11
162.747
21
-97.4977
0
LINE
8
Black
10
162.747
20
-97.4977
11
162.747
21
-97.6023
0
LINE
8
Black
10
162.747
20
-97.6023
11
162.711
21
-97.7006
0
LINE
8
Black
10
162.711
20
-97.7006
11
162.644
21
-97.7807
0
LINE
8
Black
10
162.644
20
-97.7807
11
162.553
21
-97.833
0
LINE
8
Black
10
162.553
20
-97.833
11
162.45
21
-97.8511
0
LINE
8
Black
10
162.45
20
-97.8511
11
162.347
21
-97.833
0
LINE
8
Black
10
162.347
20
-97.833
11
162.256
21
-97.7807
0
LINE
8
Black
10
162.256
20
-97.7807
11
162.189
21
-97.7006
0
LINE
8
Black
10
162.189
20
-97.7006
11
162.18
21
-97.675
0
LINE
8
Black
10
162.18
20
-97.675
11
161.8
21
-97.675
0
LINE
8
Black
10
161.8
20
-97.675
11
161.795
21
-97.674
0
LINE
8
Black
10
161.795
20
-97.674
11
161.789
21
-97.6745
0
LINE
8
Black
10
161.789
20
-97.6745
11
161.773
21
-97.6703
0
LINE
8
Black
10
161.773
20
-97.6703
11
161.757
21
-97.6675
0
LINE
8
Black
10
161.757
20
-97.6675
11
161.752
21
-97.6647
0
LINE
8
Black
10
161.752
20
-97.6647
11
161.747
21
-97.6633
0
LINE
8
Black
10
161.747
20
-97.6633
11
161.734
21
-97.6539
0
LINE
8
Black
10
161.734
20
-97.6539
11
161.72
21
-97.6458
0
LINE
8
Black
10
161.72
20
-97.6458
11
161.716
21
-97.6415
0
LINE
8
Black
10
161.716
20
-97.6415
11
161.712
21
-97.6384
0
LINE
8
Black
10
161.712
20
-97.6384
11
161.262
21
-97.1884
0
LINE
8
Black
10
161.262
20
-97.1884
11
161.258
21
-97.1839
0
LINE
8
Black
10
161.258
20
-97.1839
11
161.254
21
-97.1803
0
LINE
8
Black
10
161.254
20
-97.1803
11
161.246
21
-97.1662
0
LINE
8
Black
10
161.246
20
-97.1662
11
161.237
21
-97.1528
0
LINE
8
Black
10
161.237
20
-97.1528
11
161.235
21
-97.1475
0
LINE
8
Black
10
161.235
20
-97.1475
11
161.233
21
-97.1428
0
LINE
8
Black
10
161.233
20
-97.1428
11
161.23
21
-97.1267
0
LINE
8
Black
10
161.23
20
-97.1267
11
161.225
21
-97.1109
0
LINE
8
Black
10
161.225
20
-97.1109
11
161.226
21
-97.1054
0
LINE
8
Black
10
161.226
20
-97.1054
11
161.225
21
-97.1
0
LINE
8
Black
10
161.225
20
-97.1
11
161.225
21
-96.4203
0
LINE
8
Black
10
161.225
20
-96.4203
11
161.156
21
-96.3807
0
LINE
8
Black
10
161.156
20
-96.3807
11
161.089
21
-96.3006
0
LINE
8
Black
10
161.089
20
-96.3006
11
161.053
21
-96.2023
0
LINE
8
Black
10
161.053
20
-96.2023
11
161.053
21
-96.0977
0
LINE
8
Black
10
161.053
20
-96.0977
11
161.089
21
-95.9994
0
LINE
8
Black
10
161.089
20
-95.9994
11
161.156
21
-95.9193
0
LINE
8
Black
10
161.156
20
-95.9193
11
161.247
21
-95.867
0
LINE
8
Black
10
161.247
20
-95.867
11
161.35
21
-95.8489
0
LINE
8
Black
10
161.35
20
-95.8489
11
161.453
21
-95.867
0
LINE
8
Black
10
155.705
20
-92.276
11
155.711
21
-92.2755
0
LINE
8
Black
10
155.711
20
-92.2755
11
155.727
21
-92.2797
0
LINE
8
Black
10
155.727
20
-92.2797
11
155.743
21
-92.2825
0
LINE
8
Black
10
155.743
20
-92.2825
11
155.748
21
-92.2853
0
LINE
8
Black
10
155.748
20
-92.2853
11
155.753
21
-92.2867
0
LINE
8
Black
10
155.753
20
-92.2867
11
155.766
21
-92.2961
0
LINE
8
Black
10
155.766
20
-92.2961
11
155.78
21
-92.3042
0
LINE
8
Black
10
155.78
20
-92.3042
11
155.784
21
-92.3085
0
LINE
8
Black
10
155.784
20
-92.3085
11
155.788
21
-92.3116
0
LINE
8
Black
10
155.788
20
-92.3116
11
156.388
21
-92.9116
0
LINE
8
Black
10
156.388
20
-92.9116
11
156.392
21
-92.9161
0
LINE
8
Black
10
156.392
20
-92.9161
11
156.396
21
-92.9197
0
LINE
8
Black
10
156.396
20
-92.9197
11
156.404
21
-92.9338
0
LINE
8
Black
10
156.404
20
-92.9338
11
156.413
21
-92.9472
0
LINE
8
Black
10
156.413
20
-92.9472
11
156.415
21
-92.9525
0
LINE
8
Black
10
156.415
20
-92.9525
11
156.417
21
-92.9572
0
LINE
8
Black
10
156.417
20
-92.9572
11
156.42
21
-92.9733
0
LINE
8
Black
10
156.42
20
-92.9733
11
156.425
21
-92.9891
0
LINE
8
Black
10
156.425
20
-92.9891
11
156.424
21
-92.9946
0
LINE
8
Black
10
156.424
20
-92.9946
11
156.425
21
-93
0
LINE
8
Black
10
156.425
20
-93
11
156.425
21
-93.95
0
LINE
8
Black
10
156.425
20
-93.95
11
156.424
21
-93.9554
0
LINE
8
Black
10
156.424
20
-93.9554
11
156.425
21
-93.9609
0
LINE
8
Black
10
156.425
20
-93.9609
11
156.42
21
-93.9767
0
LINE
8
Black
10
156.42
20
-93.9767
11
156.417
21
-93.9928
0
LINE
8
Black
10
156.417
20
-93.9928
11
156.415
21
-93.9975
0
LINE
8
Black
10
156.415
20
-93.9975
11
156.413
21
-94.0028
0
LINE
8
Black
10
156.413
20
-94.0028
11
156.404
21
-94.0162
0
LINE
8
Black
10
156.404
20
-94.0162
11
156.396
21
-94.0303
0
LINE
8
Black
10
156.396
20
-94.0303
11
156.392
21
-94.0339
0
LINE
8
Black
10
156.392
20
-94.0339
11
156.388
21
-94.0384
0
LINE
8
Black
10
156.388
20
-94.0384
11
153.725
21
-96.7018
0
LINE
8
Black
10
153.725
20
-96.7018
11
153.725
21
-97.7
0
LINE
8
Black
10
153.725
20
-97.7
11
153.717
21
-97.7428
0
LINE
8
Black
10
153.717
20
-97.7428
11
153.696
21
-97.7803
0
LINE
8
Black
10
153.696
20
-97.7803
11
153.662
21
-97.8083
0
LINE
8
Black
10
153.662
20
-97.8083
11
153.622
21
-97.8231
0
LINE
8
Black
10
153.622
20
-97.8231
11
153.578
21
-97.8231
0
LINE
8
Black
10
153.578
20
-97.8231
11
153.537
21
-97.8083
0
LINE
8
Black
10
153.537
20
-97.8083
11
153.504
21
-97.7803
0
LINE
8
Black
10
153.504
20
-97.7803
11
153.483
21
-97.7428
0
LINE
8
Black
10
153.483
20
-97.7428
11
153.475
21
-97.7
0
LINE
8
Black
10
153.475
20
-97.7
11
153.475
21
-96.65
0
LINE
8
Black
10
153.475
20
-96.65
11
153.476
21
-96.6446
0
LINE
8
Black
10
153.476
20
-96.6446
11
153.475
21
-96.6391
0
LINE
8
Black
10
153.475
20
-96.6391
11
153.48
21
-96.6233
0
LINE
8
Black
10
153.48
20
-96.6233
11
153.483
21
-96.6072
0
LINE
8
Black
10
153.483
20
-96.6072
11
153.485
21
-96.6025
0
LINE
8
Black
10
153.485
20
-96.6025
11
153.487
21
-96.5972
0
LINE
8
Black
10
153.487
20
-96.5972
11
153.496
21
-96.5838
0
LINE
8
Black
10
153.496
20
-96.5838
11
153.504
21
-96.5697
0
LINE
8
Black
10
153.504
20
-96.5697
11
153.508
21
-96.5661
0
LINE
8
Black
10
153.508
20
-96.5661
11
153.512
21
-96.5616
0
LINE
8
Black
10
153.512
20
-96.5616
11
156.175
21
-93.8982
0
LINE
8
Black
10
156.175
20
-93.8982
11
156.175
21
-93.0518
0
LINE
8
Black
10
156.175
20
-93.0518
11
155.648
21
-92.525
0
LINE
8
Black
10
155.648
20
-92.525
11
154.7
21
-92.525
0
LINE
8
Black
10
154.7
20
-92.525
11
154.352
21
-92.525
0
LINE
8
Black
10
154.352
20
-92.525
11
154.088
21
-92.7884
0
LINE
8
Black
10
154.088
20
-92.7884
11
154.084
21
-92.7915
0
LINE
8
Black
10
154.084
20
-92.7915
11
154.08
21
-92.7958
0
LINE
8
Black
10
154.08
20
-92.7958
11
154.066
21
-92.8039
0
LINE
8
Black
10
154.066
20
-92.8039
11
154.053
21
-92.8133
0
LINE
8
Black
10
154.053
20
-92.8133
11
154.048
21
-92.8147
0
LINE
8
Black
10
154.048
20
-92.8147
11
154.043
21
-92.8175
0
LINE
8
Black
10
154.043
20
-92.8175
11
154.027
21
-92.8203
0
LINE
8
Black
10
154.027
20
-92.8203
11
154.011
21
-92.8245
0
LINE
8
Black
10
154.011
20
-92.8245
11
154.005
21
-92.824
0
LINE
8
Black
10
154.005
20
-92.824
11
154
21
-92.825
0
LINE
8
Black
10
154
20
-92.825
11
153.7
21
-92.825
0
LINE
8
Black
10
153.7
20
-92.825
11
153.695
21
-92.824
0
LINE
8
Black
10
153.695
20
-92.824
11
153.689
21
-92.8245
0
LINE
8
Black
10
153.689
20
-92.8245
11
153.673
21
-92.8203
0
LINE
8
Black
10
153.673
20
-92.8203
11
153.657
21
-92.8175
0
LINE
8
Black
10
153.657
20
-92.8175
11
153.652
21
-92.8147
0
LINE
8
Black
10
153.652
20
-92.8147
11
153.647
21
-92.8133
0
LINE
8
Black
10
153.647
20
-92.8133
11
153.634
21
-92.8039
0
LINE
8
Black
10
153.634
20
-92.8039
11
153.62
21
-92.7958
0
LINE
8
Black
10
153.62
20
-92.7958
11
153.616
21
-92.7915
0
LINE
8
Black
10
153.616
20
-92.7915
11
153.612
21
-92.7884
0
LINE
8
Black
10
153.612
20
-92.7884
11
137.412
21
-76.5884
0
LINE
8
Black
10
137.412
20
-76.5884
11
137.408
21
-76.5839
0
LINE
8
Black
10
137.408
20
-76.5839
11
137.404
21
-76.5803
0
LINE
8
Black
10
137.404
20
-76.5803
11
137.396
21
-76.5662
0
LINE
8
Black
10
137.396
20
-76.5662
11
137.387
21
-76.5528
0
LINE
8
Black
10
137.387
20
-76.5528
11
137.385
21
-76.5475
0
LINE
8
Black
10
137.385
20
-76.5475
11
137.383
21
-76.5428
0
LINE
8
Black
10
137.383
20
-76.5428
11
137.38
21
-76.5267
0
LINE
8
Black
10
137.38
20
-76.5267
11
137.375
21
-76.5109
0
LINE
8
Black
10
137.375
20
-76.5109
11
137.376
21
-76.5054
0
LINE
8
Black
10
137.376
20
-76.5054
11
137.375
21
-76.5
0
LINE
8
Black
10
137.375
20
-76.5
11
137.375
21
-75.75
0
LINE
8
Black
10
137.375
20
-75.75
11
137.376
21
-75.7446
0
LINE
8
Black
10
137.376
20
-75.7446
11
137.375
21
-75.7391
0
LINE
8
Black
10
137.375
20
-75.7391
11
137.38
21
-75.7233
0
LINE
8
Black
10
137.38
20
-75.7233
11
137.383
21
-75.7072
0
LINE
8
Black
10
137.383
20
-75.7072
11
137.385
21
-75.7025
0
LINE
8
Black
10
137.385
20
-75.7025
11
137.387
21
-75.6972
0
LINE
8
Black
10
137.387
20
-75.6972
11
137.396
21
-75.6838
0
LINE
8
Black
10
137.396
20
-75.6838
11
137.404
21
-75.6697
0
LINE
8
Black
10
137.404
20
-75.6697
11
137.408
21
-75.6661
0
LINE
8
Black
10
137.408
20
-75.6661
11
137.412
21
-75.6616
0
LINE
8
Black
10
137.412
20
-75.6616
11
137.675
21
-75.3982
0
LINE
8
Black
10
137.675
20
-75.3982
11
137.675
21
-75.1018
0
LINE
8
Black
10
137.675
20
-75.1018
11
137.26
21
-74.6866
0
LINE
8
Black
10
137.26
20
-74.6866
11
136.062
21
-74.6866
0
LINE
8
Black
10
136.062
20
-74.6866
11
135.95
21
-74.6866
0
LINE
8
Black
10
135.95
20
-74.6866
11
135.81
21
-74.8268
0
LINE
8
Black
10
135.81
20
-74.8268
11
135.598
21
-74.6146
0
LINE
8
Black
10
135.598
20
-74.6146
11
135.916
21
-74.2964
0
LINE
8
Black
10
135.916
20
-74.2964
11
136.056
21
-74.4366
0
LINE
8
Black
10
136.056
20
-74.4366
11
137.312
21
-74.4366
0
LINE
8
Black
10
137.312
20
-74.4366
11
137.317
21
-74.4375
0
LINE
8
Black
10
137.317
20
-74.4375
11
137.322
21
-74.4371
0
LINE
8
Black
10
137.322
20
-74.4371
11
137.338
21
-74.4413
0
LINE
8
Black
10
137.338
20
-74.4413
11
137.354
21
-74.4441
0
LINE
8
Black
10
137.354
20
-74.4441
11
137.359
21
-74.4469
0
LINE
8
Black
10
137.359
20
-74.4469
11
137.364
21
-74.4483
0
LINE
8
Black
10
137.364
20
-74.4483
11
137.378
21
-74.4577
0
LINE
8
Black
10
137.378
20
-74.4577
11
137.392
21
-74.4658
0
LINE
8
Black
10
137.392
20
-74.4658
11
137.395
21
-74.4701
0
LINE
8
Black
10
137.395
20
-74.4701
11
137.4
21
-74.4732
0
LINE
8
Black
10
137.4
20
-74.4732
11
137.888
21
-74.9616
0
LINE
8
Black
10
137.888
20
-74.9616
11
137.892
21
-74.9661
0
LINE
8
Black
10
137.892
20
-74.9661
11
137.896
21
-74.9697
0
LINE
8
Black
10
137.896
20
-74.9697
11
137.904
21
-74.9838
0
LINE
8
Black
10
137.904
20
-74.9838
11
137.913
21
-74.9972
0
LINE
8
Black
10
137.913
20
-74.9972
11
137.915
21
-75.0025
0
LINE
8
Black
10
137.915
20
-75.0025
11
137.917
21
-75.0072
0
LINE
8
Black
10
137.917
20
-75.0072
11
137.92
21
-75.0233
0
LINE
8
Black
10
137.92
20
-75.0233
11
137.925
21
-75.0391
0
LINE
8
Black
10
137.925
20
-75.0391
11
137.924
21
-75.0446
0
LINE
8
Black
10
137.924
20
-75.0446
11
137.925
21
-75.05
0
LINE
8
Black
10
137.925
20
-75.05
11
137.925
21
-75.45
0
LINE
8
Black
10
137.925
20
-75.45
11
137.924
21
-75.4554
0
LINE
8
Black
10
137.924
20
-75.4554
11
137.925
21
-75.4609
0
LINE
8
Black
10
137.925
20
-75.4609
11
137.92
21
-75.4767
0
LINE
8
Black
10
137.92
20
-75.4767
11
137.917
21
-75.4928
0
LINE
8
Black
10
137.917
20
-75.4928
11
137.915
21
-75.4975
0
LINE
8
Black
10
137.915
20
-75.4975
11
137.913
21
-75.5028
0
LINE
8
Black
10
137.913
20
-75.5028
11
137.904
21
-75.5162
0
LINE
8
Black
10
137.904
20
-75.5162
11
137.896
21
-75.5303
0
LINE
8
Black
10
137.896
20
-75.5303
11
137.892
21
-75.5339
0
LINE
8
Black
10
137.892
20
-75.5339
11
137.888
21
-75.5384
0
LINE
8
Black
10
137.888
20
-75.5384
11
137.625
21
-75.8018
0
LINE
8
Black
10
137.625
20
-75.8018
11
137.625
21
-76.4482
0
LINE
8
Black
10
137.625
20
-76.4482
11
153.752
21
-92.575
0
LINE
8
Black
10
153.752
20
-92.575
11
153.948
21
-92.575
0
LINE
8
Black
10
153.948
20
-92.575
11
154.212
21
-92.3116
0
LINE
8
Black
10
154.212
20
-92.3116
11
154.216
21
-92.3085
0
LINE
8
Black
10
154.216
20
-92.3085
11
154.22
21
-92.3042
0
LINE
8
Black
10
154.22
20
-92.3042
11
154.234
21
-92.2961
0
LINE
8
Black
10
154.234
20
-92.2961
11
154.247
21
-92.2867
0
LINE
8
Black
10
154.247
20
-92.2867
11
154.252
21
-92.2853
0
LINE
8
Black
10
154.252
20
-92.2853
11
154.257
21
-92.2825
0
LINE
8
Black
10
154.257
20
-92.2825
11
154.273
21
-92.2797
0
LINE
8
Black
10
154.273
20
-92.2797
11
154.289
21
-92.2755
0
LINE
8
Black
10
154.289
20
-92.2755
11
154.295
21
-92.276
0
LINE
8
Black
10
154.295
20
-92.276
11
154.3
21
-92.275
0
LINE
8
Black
10
154.3
20
-92.275
11
154.7
21
-92.275
0
LINE
8
Black
10
154.7
20
-92.275
11
155.7
21
-92.275
0
LINE
8
Black
10
155.7
20
-92.275
11
155.705
21
-92.276
0
LINE
8
Black
10
159.205
20
-83.5268
11
159.296
21
-83.5791
0
LINE
8
Black
10
159.296
20
-83.5791
11
159.363
21
-83.6593
0
LINE
8
Black
10
159.363
20
-83.6593
11
159.399
21
-83.7575
0
LINE
8
Black
10
159.399
20
-83.7575
11
159.399
21
-83.8621
0
LINE
8
Black
10
159.399
20
-83.8621
11
159.363
21
-83.9604
0
LINE
8
Black
10
159.363
20
-83.9604
11
159.296
21
-84.0405
0
LINE
8
Black
10
159.296
20
-84.0405
11
159.227
21
-84.0801
0
LINE
8
Black
10
159.227
20
-84.0801
11
159.227
21
-85.1723
0
LINE
8
Black
10
159.227
20
-85.1723
11
159.388
21
-85.3337
0
LINE
8
Black
10
159.388
20
-85.3337
11
159.392
21
-85.3382
0
LINE
8
Black
10
159.392
20
-85.3382
11
159.396
21
-85.3417
0
LINE
8
Black
10
159.396
20
-85.3417
11
159.404
21
-85.3559
0
LINE
8
Black
10
159.404
20
-85.3559
11
159.413
21
-85.3692
0
LINE
8
Black
10
159.413
20
-85.3692
11
159.415
21
-85.3745
0
LINE
8
Black
10
159.415
20
-85.3745
11
159.417
21
-85.3793
0
LINE
8
Black
10
159.417
20
-85.3793
11
159.42
21
-85.3954
0
LINE
8
Black
10
159.42
20
-85.3954
11
159.425
21
-85.4112
0
LINE
8
Black
10
159.425
20
-85.4112
11
159.424
21
-85.4166
0
LINE
8
Black
10
159.424
20
-85.4166
11
159.425
21
-85.4221
0
LINE
8
Black
10
159.425
20
-85.4221
11
159.425
21
-86.5982
0
LINE
8
Black
10
159.425
20
-86.5982
11
159.438
21
-86.6116
0
LINE
8
Black
10
159.438
20
-86.6116
11
159.438
21
-86.6116
0
LINE
8
Black
10
159.438
20
-86.6116
11
159.588
21
-86.7616
0
LINE
8
Black
10
159.588
20
-86.7616
11
160.038
21
-87.2116
0
LINE
8
Black
10
160.038
20
-87.2116
11
160.042
21
-87.2161
0
LINE
8
Black
10
160.042
20
-87.2161
11
160.046
21
-87.2197
0
LINE
8
Black
10
160.046
20
-87.2197
11
160.054
21
-87.2338
0
LINE
8
Black
10
160.054
20
-87.2338
11
160.063
21
-87.2472
0
LINE
8
Black
10
160.063
20
-87.2472
11
160.065
21
-87.2525
0
LINE
8
Black
10
160.065
20
-87.2525
11
160.067
21
-87.2572
0
LINE
8
Black
10
160.067
20
-87.2572
11
160.07
21
-87.2733
0
LINE
8
Black
10
160.07
20
-87.2733
11
160.075
21
-87.2891
0
LINE
8
Black
10
160.075
20
-87.2891
11
160.074
21
-87.2946
0
LINE
8
Black
10
160.074
20
-87.2946
11
160.075
21
-87.3
0
LINE
8
Black
10
160.075
20
-87.3
11
160.075
21
-90.15
0
LINE
8
Black
10
160.075
20
-90.15
11
160.075
21
-94.85
0
LINE
8
Black
10
160.075
20
-94.85
11
160.075
21
-95.35
0
LINE
8
Black
10
160.075
20
-95.35
11
160.074
21
-95.3554
0
LINE
8
Black
10
160.074
20
-95.3554
11
160.075
21
-95.3609
0
LINE
8
Black
10
160.075
20
-95.3609
11
160.07
21
-95.3767
0
LINE
8
Black
10
160.07
20
-95.3767
11
160.067
21
-95.3928
0
LINE
8
Black
10
160.067
20
-95.3928
11
160.065
21
-95.3975
0
LINE
8
Black
10
160.065
20
-95.3975
11
160.063
21
-95.4028
0
LINE
8
Black
10
160.063
20
-95.4028
11
160.054
21
-95.4162
0
LINE
8
Black
10
160.054
20
-95.4162
11
160.046
21
-95.4303
0
LINE
8
Black
10
160.046
20
-95.4303
11
160.042
21
-95.4339
0
LINE
8
Black
10
160.042
20
-95.4339
11
160.038
21
-95.4384
0
LINE
8
Black
10
160.038
20
-95.4384
11
159.838
21
-95.6384
0
LINE
8
Black
10
159.838
20
-95.6384
11
159.834
21
-95.6415
0
LINE
8
Black
10
159.834
20
-95.6415
11
159.83
21
-95.6458
0
LINE
8
Black
10
159.83
20
-95.6458
11
159.816
21
-95.6539
0
LINE
8
Black
10
159.816
20
-95.6539
11
159.803
21
-95.6633
0
LINE
8
Black
10
159.803
20
-95.6633
11
159.798
21
-95.6647
0
LINE
8
Black
10
159.798
20
-95.6647
11
159.793
21
-95.6675
0
LINE
8
Black
10
159.793
20
-95.6675
11
159.777
21
-95.6703
0
LINE
8
Black
10
159.777
20
-95.6703
11
159.761
21
-95.6745
0
LINE
8
Black
10
159.761
20
-95.6745
11
159.755
21
-95.674
0
LINE
8
Black
10
159.755
20
-95.674
11
159.75
21
-95.675
0
LINE
8
Black
10
159.75
20
-95.675
11
159.052
21
-95.675
0
LINE
8
Black
10
159.052
20
-95.675
11
158.821
21
-95.9061
0
LINE
8
Black
10
158.821
20
-95.9061
11
158.844
21
-95.9193
0
LINE
8
Black
10
158.844
20
-95.9193
11
158.911
21
-95.9994
0
LINE
8
Black
10
158.911
20
-95.9994
11
158.947
21
-96.0977
0
LINE
8
Black
10
158.947
20
-96.0977
11
158.947
21
-96.2023
0
LINE
8
Black
10
158.947
20
-96.2023
11
158.911
21
-96.3006
0
LINE
8
Black
10
158.911
20
-96.3006
11
158.844
21
-96.3807
0
LINE
8
Black
10
158.844
20
-96.3807
11
158.753
21
-96.433
0
LINE
8
Black
10
158.753
20
-96.433
11
158.65
21
-96.4511
0
LINE
8
Black
10
158.65
20
-96.4511
11
158.547
21
-96.433
0
LINE
8
Black
10
158.547
20
-96.433
11
158.456
21
-96.3807
0
LINE
8
Black
10
158.456
20
-96.3807
11
158.389
21
-96.3006
0
LINE
8
Black
10
158.389
20
-96.3006
11
158.353
21
-96.2023
0
LINE
8
Black
10
158.353
20
-96.2023
11
158.353
21
-96.0977
0
LINE
8
Black
10
158.353
20
-96.0977
11
158.389
21
-95.9994
0
LINE
8
Black
10
158.389
20
-95.9994
11
158.456
21
-95.9193
0
LINE
8
Black
10
158.456
20
-95.9193
11
158.529
21
-95.8777
0
LINE
8
Black
10
158.529
20
-95.8777
11
158.53
21
-95.8733
0
LINE
8
Black
10
158.53
20
-95.8733
11
158.533
21
-95.8572
0
LINE
8
Black
10
158.533
20
-95.8572
11
158.535
21
-95.8525
0
LINE
8
Black
10
158.535
20
-95.8525
11
158.537
21
-95.8472
0
LINE
8
Black
10
158.537
20
-95.8472
11
158.546
21
-95.8338
0
LINE
8
Black
10
158.546
20
-95.8338
11
158.554
21
-95.8197
0
LINE
8
Black
10
158.554
20
-95.8197
11
158.558
21
-95.8161
0
LINE
8
Black
10
158.558
20
-95.8161
11
158.562
21
-95.8116
0
LINE
8
Black
10
158.562
20
-95.8116
11
158.912
21
-95.4616
0
LINE
8
Black
10
158.912
20
-95.4616
11
158.916
21
-95.4585
0
LINE
8
Black
10
158.916
20
-95.4585
11
158.92
21
-95.4542
0
LINE
8
Black
10
158.92
20
-95.4542
11
158.934
21
-95.4461
0
LINE
8
Black
10
158.934
20
-95.4461
11
158.947
21
-95.4367
0
LINE
8
Black
10
158.947
20
-95.4367
11
158.952
21
-95.4353
0
LINE
8
Black
10
158.952
20
-95.4353
11
158.957
21
-95.4325
0
LINE
8
Black
10
158.957
20
-95.4325
11
158.973
21
-95.4297
0
LINE
8
Black
10
158.973
20
-95.4297
11
158.989
21
-95.4255
0
LINE
8
Black
10
158.989
20
-95.4255
11
158.995
21
-95.426
0
LINE
8
Black
10
158.995
20
-95.426
11
159
21
-95.425
0
LINE
8
Black
10
159
20
-95.425
11
159.698
21
-95.425
0
LINE
8
Black
10
159.698
20
-95.425
11
159.825
21
-95.2982
0
LINE
8
Black
10
159.825
20
-95.2982
11
159.825
21
-94.85
0
LINE
8
Black
10
159.825
20
-94.85
11
159.825
21
-90.15
0
LINE
8
Black
10
159.825
20
-90.15
11
159.825
21
-87.3518
0
LINE
8
Black
10
159.825
20
-87.3518
11
159.412
21
-86.9384
0
LINE
8
Black
10
159.412
20
-86.9384
11
159.262
21
-86.7884
0
LINE
8
Black
10
159.262
20
-86.7884
11
159.262
21
-86.7884
0
LINE
8
Black
10
159.262
20
-86.7884
11
159.212
21
-86.7384
0
LINE
8
Black
10
159.212
20
-86.7384
11
159.208
21
-86.7339
0
LINE
8
Black
10
159.208
20
-86.7339
11
159.204
21
-86.7303
0
LINE
8
Black
10
159.204
20
-86.7303
11
159.196
21
-86.7162
0
LINE
8
Black
10
159.196
20
-86.7162
11
159.187
21
-86.7028
0
LINE
8
Black
10
159.187
20
-86.7028
11
159.185
21
-86.6975
0
LINE
8
Black
10
159.185
20
-86.6975
11
159.183
21
-86.6928
0
LINE
8
Black
10
159.183
20
-86.6928
11
159.18
21
-86.6767
0
LINE
8
Black
10
159.18
20
-86.6767
11
159.175
21
-86.6609
0
LINE
8
Black
10
159.175
20
-86.6609
11
159.176
21
-86.6554
0
LINE
8
Black
10
159.176
20
-86.6554
11
159.175
21
-86.65
0
LINE
8
Black
10
159.175
20
-86.65
11
159.175
21
-85.4738
0
LINE
8
Black
10
159.175
20
-85.4738
11
159.014
21
-85.3124
0
LINE
8
Black
10
159.014
20
-85.3124
11
159.01
21
-85.3079
0
LINE
8
Black
10
159.01
20
-85.3079
11
159.006
21
-85.3044
0
LINE
8
Black
10
159.006
20
-85.3044
11
158.998
21
-85.2903
0
LINE
8
Black
10
158.998
20
-85.2903
11
158.989
21
-85.2769
0
LINE
8
Black
10
158.989
20
-85.2769
11
158.987
21
-85.2716
0
LINE
8
Black
10
158.987
20
-85.2716
11
158.985
21
-85.2668
0
LINE
8
Black
10
158.985
20
-85.2668
11
158.982
21
-85.2507
0
LINE
8
Black
10
158.982
20
-85.2507
11
158.977
21
-85.2349
0
LINE
8
Black
10
158.977
20
-85.2349
11
158.978
21
-85.2295
0
LINE
8
Black
10
158.978
20
-85.2295
11
158.977
21
-85.224
0
LINE
8
Black
10
158.977
20
-85.224
11
158.977
21
-84.0801
0
LINE
8
Black
10
158.977
20
-84.0801
11
158.908
21
-84.0405
0
LINE
8
Black
10
158.908
20
-84.0405
11
158.841
21
-83.9604
0
LINE
8
Black
10
158.841
20
-83.9604
11
158.832
21
-83.9348
0
LINE
8
Black
10
158.832
20
-83.9348
11
157.454
21
-83.9348
0
LINE
8
Black
10
157.454
20
-83.9348
11
157.454
21
-83.9682
0
LINE
8
Black
10
157.454
20
-83.9682
11
157.418
21
-84.0665
0
LINE
8
Black
10
157.418
20
-84.0665
11
157.351
21
-84.1466
0
LINE
8
Black
10
157.351
20
-84.1466
11
157.26
21
-84.1989
0
LINE
8
Black
10
157.26
20
-84.1989
11
157.157
21
-84.217
0
LINE
8
Black
10
157.157
20
-84.217
11
157.054
21
-84.1989
0
LINE
8
Black
10
157.054
20
-84.1989
11
156.964
21
-84.1466
0
LINE
8
Black
10
156.964
20
-84.1466
11
156.897
21
-84.0665
0
LINE
8
Black
10
156.897
20
-84.0665
11
156.861
21
-83.9682
0
LINE
8
Black
10
156.861
20
-83.9682
11
156.861
21
-83.8636
0
LINE
8
Black
10
156.861
20
-83.8636
11
156.897
21
-83.7653
0
LINE
8
Black
10
156.897
20
-83.7653
11
156.964
21
-83.6852
0
LINE
8
Black
10
156.964
20
-83.6852
11
157.054
21
-83.6329
0
LINE
8
Black
10
157.054
20
-83.6329
11
157.157
21
-83.6148
0
LINE
8
Black
10
157.157
20
-83.6148
11
157.26
21
-83.6329
0
LINE
8
Black
10
157.26
20
-83.6329
11
157.35
21
-83.6848
0
LINE
8
Black
10
157.35
20
-83.6848
11
158.832
21
-83.6848
0
LINE
8
Black
10
158.832
20
-83.6848
11
158.841
21
-83.6593
0
LINE
8
Black
10
158.841
20
-83.6593
11
158.908
21
-83.5791
0
LINE
8
Black
10
158.908
20
-83.5791
11
158.999
21
-83.5268
0
LINE
8
Black
10
158.999
20
-83.5268
11
159.102
21
-83.5087
0
LINE
8
Black
10
159.102
20
-83.5087
11
159.205
21
-83.5268
0
LINE
8
Black
10
155.505
20
-92.726
11
155.511
21
-92.7255
0
LINE
8
Black
10
155.511
20
-92.7255
11
155.527
21
-92.7297
0
LINE
8
Black
10
155.527
20
-92.7297
11
155.543
21
-92.7325
0
LINE
8
Black
10
155.543
20
-92.7325
11
155.548
21
-92.7353
0
LINE
8
Black
10
155.548
20
-92.7353
11
155.553
21
-92.7367
0
LINE
8
Black
10
155.553
20
-92.7367
11
155.566
21
-92.7461
0
LINE
8
Black
10
155.566
20
-92.7461
11
155.58
21
-92.7542
0
LINE
8
Black
10
155.58
20
-92.7542
11
155.584
21
-92.7585
0
LINE
8
Black
10
155.584
20
-92.7585
11
155.588
21
-92.7616
0
LINE
8
Black
10
155.588
20
-92.7616
11
155.938
21
-93.1116
0
LINE
8
Black
10
155.938
20
-93.1116
11
155.942
21
-93.1161
0
LINE
8
Black
10
155.942
20
-93.1161
11
155.946
21
-93.1197
0
LINE
8
Black
10
155.946
20
-93.1197
11
155.954
21
-93.1338
0
LINE
8
Black
10
155.954
20
-93.1338
11
155.963
21
-93.1472
0
LINE
8
Black
10
155.963
20
-93.1472
11
155.965
21
-93.1525
0
LINE
8
Black
10
155.965
20
-93.1525
11
155.967
21
-93.1572
0
LINE
8
Black
10
155.967
20
-93.1572
11
155.97
21
-93.1733
0
LINE
8
Black
10
155.97
20
-93.1733
11
155.975
21
-93.1891
0
LINE
8
Black
10
155.975
20
-93.1891
11
155.974
21
-93.1946
0
LINE
8
Black
10
155.974
20
-93.1946
11
155.975
21
-93.2
0
LINE
8
Black
10
155.975
20
-93.2
11
155.975
21
-93.75
0
LINE
8
Black
10
155.975
20
-93.75
11
155.974
21
-93.7554
0
LINE
8
Black
10
155.974
20
-93.7554
11
155.975
21
-93.7609
0
LINE
8
Black
10
155.975
20
-93.7609
11
155.97
21
-93.7767
0
LINE
8
Black
10
155.97
20
-93.7767
11
155.967
21
-93.7928
0
LINE
8
Black
10
155.967
20
-93.7928
11
155.965
21
-93.7975
0
LINE
8
Black
10
155.965
20
-93.7975
11
155.963
21
-93.8028
0
LINE
8
Black
10
155.963
20
-93.8028
11
155.954
21
-93.8162
0
LINE
8
Black
10
155.954
20
-93.8162
11
155.946
21
-93.8303
0
LINE
8
Black
10
155.946
20
-93.8303
11
155.942
21
-93.8339
0
LINE
8
Black
10
155.942
20
-93.8339
11
155.938
21
-93.8384
0
LINE
8
Black
10
155.938
20
-93.8384
11
153.588
21
-96.1884
0
LINE
8
Black
10
153.588
20
-96.1884
11
153.553
21
-96.2133
0
LINE
8
Black
10
153.553
20
-96.2133
11
153.511
21
-96.2245
0
LINE
8
Black
10
153.511
20
-96.2245
11
153.468
21
-96.2207
0
LINE
8
Black
10
153.468
20
-96.2207
11
153.428
21
-96.2024
0
LINE
8
Black
10
153.428
20
-96.2024
11
153.398
21
-96.1717
0
LINE
8
Black
10
153.398
20
-96.1717
11
153.379
21
-96.1324
0
LINE
8
Black
10
153.379
20
-96.1324
11
153.375
21
-96.0891
0
LINE
8
Black
10
153.375
20
-96.0891
11
153.387
21
-96.0472
0
LINE
8
Black
10
153.387
20
-96.0472
11
153.412
21
-96.0116
0
LINE
8
Black
10
153.412
20
-96.0116
11
155.725
21
-93.6982
0
LINE
8
Black
10
155.725
20
-93.6982
11
155.725
21
-93.2518
0
LINE
8
Black
10
155.725
20
-93.2518
11
155.448
21
-92.975
0
LINE
8
Black
10
155.448
20
-92.975
11
155.2
21
-92.975
0
LINE
8
Black
10
155.2
20
-92.975
11
154.552
21
-92.975
0
LINE
8
Black
10
154.552
20
-92.975
11
154.288
21
-93.2384
0
LINE
8
Black
10
154.288
20
-93.2384
11
154.284
21
-93.2415
0
LINE
8
Black
10
154.284
20
-93.2415
11
154.28
21
-93.2458
0
LINE
8
Black
10
154.28
20
-93.2458
11
154.266
21
-93.2539
0
LINE
8
Black
10
154.266
20
-93.2539
11
154.253
21
-93.2633
0
LINE
8
Black
10
154.253
20
-93.2633
11
154.248
21
-93.2647
0
LINE
8
Black
10
154.248
20
-93.2647
11
154.243
21
-93.2675
0
LINE
8
Black
10
154.243
20
-93.2675
11
154.227
21
-93.2703
0
LINE
8
Black
10
154.227
20
-93.2703
11
154.211
21
-93.2745
0
LINE
8
Black
10
154.211
20
-93.2745
11
154.205
21
-93.274
0
LINE
8
Black
10
154.205
20
-93.274
11
154.2
21
-93.275
0
LINE
8
Black
10
154.2
20
-93.275
11
153.5
21
-93.275
0
LINE
8
Black
10
153.5
20
-93.275
11
153.495
21
-93.274
0
LINE
8
Black
10
153.495
20
-93.274
11
153.489
21
-93.2745
0
LINE
8
Black
10
153.489
20
-93.2745
11
153.473
21
-93.2703
0
LINE
8
Black
10
153.473
20
-93.2703
11
153.457
21
-93.2675
0
LINE
8
Black
10
153.457
20
-93.2675
11
153.452
21
-93.2647
0
LINE
8
Black
10
153.452
20
-93.2647
11
153.447
21
-93.2633
0
LINE
8
Black
10
153.447
20
-93.2633
11
153.434
21
-93.2539
0
LINE
8
Black
10
153.434
20
-93.2539
11
153.42
21
-93.2458
0
LINE
8
Black
10
153.42
20
-93.2458
11
153.416
21
-93.2415
0
LINE
8
Black
10
153.416
20
-93.2415
11
153.412
21
-93.2384
0
LINE
8
Black
10
153.412
20
-93.2384
11
136.412
21
-76.2384
0
LINE
8
Black
10
136.412
20
-76.2384
11
136.148
21
-75.975
0
LINE
8
Black
10
136.148
20
-75.975
11
135.85
21
-75.975
0
LINE
8
Black
10
135.85
20
-75.975
11
135.845
21
-75.974
0
LINE
8
Black
10
135.845
20
-75.974
11
135.839
21
-75.9745
0
LINE
8
Black
10
135.839
20
-75.9745
11
135.823
21
-75.9703
0
LINE
8
Black
10
135.823
20
-75.9703
11
135.807
21
-75.9675
0
LINE
8
Black
10
135.807
20
-75.9675
11
135.802
21
-75.9647
0
LINE
8
Black
10
135.802
20
-75.9647
11
135.797
21
-75.9633
0
LINE
8
Black
10
135.797
20
-75.9633
11
135.784
21
-75.9539
0
LINE
8
Black
10
135.784
20
-75.9539
11
135.77
21
-75.9458
0
LINE
8
Black
10
135.77
20
-75.9458
11
135.766
21
-75.9415
0
LINE
8
Black
10
135.766
20
-75.9415
11
135.762
21
-75.9384
0
LINE
8
Black
10
135.762
20
-75.9384
11
135.721
21
-75.898
0
LINE
8
Black
10
135.721
20
-75.898
11
135.704
21
-75.9157
0
LINE
8
Black
10
135.704
20
-75.9157
11
135.385
21
-75.5975
0
LINE
8
Black
10
135.385
20
-75.5975
11
135.598
21
-75.3854
0
LINE
8
Black
10
135.598
20
-75.3854
11
135.916
21
-75.7036
0
LINE
8
Black
10
135.916
20
-75.7036
11
135.898
21
-75.7212
0
LINE
8
Black
10
135.898
20
-75.7212
11
135.902
21
-75.725
0
LINE
8
Black
10
135.902
20
-75.725
11
136.2
21
-75.725
0
LINE
8
Black
10
136.2
20
-75.725
11
136.205
21
-75.726
0
LINE
8
Black
10
136.205
20
-75.726
11
136.211
21
-75.7255
0
LINE
8
Black
10
136.211
20
-75.7255
11
136.227
21
-75.7297
0
LINE
8
Black
10
136.227
20
-75.7297
11
136.243
21
-75.7325
0
LINE
8
Black
10
136.243
20
-75.7325
11
136.248
21
-75.7353
0
LINE
8
Black
10
136.248
20
-75.7353
11
136.253
21
-75.7367
0
LINE
8
Black
10
136.253
20
-75.7367
11
136.266
21
-75.7461
0
LINE
8
Black
10
136.266
20
-75.7461
11
136.28
21
-75.7542
0
LINE
8
Black
10
136.28
20
-75.7542
11
136.284
21
-75.7585
0
LINE
8
Black
10
136.284
20
-75.7585
11
136.288
21
-75.7616
0
LINE
8
Black
10
136.288
20
-75.7616
11
136.588
21
-76.0616
0
LINE
8
Black
10
136.588
20
-76.0616
11
153.552
21
-93.025
0
LINE
8
Black
10
153.552
20
-93.025
11
154.148
21
-93.025
0
LINE
8
Black
10
154.148
20
-93.025
11
154.412
21
-92.7616
0
LINE
8
Black
10
154.412
20
-92.7616
11
154.416
21
-92.7585
0
LINE
8
Black
10
154.416
20
-92.7585
11
154.42
21
-92.7542
0
LINE
8
Black
10
154.42
20
-92.7542
11
154.434
21
-92.7461
0
LINE
8
Black
10
154.434
20
-92.7461
11
154.447
21
-92.7367
0
LINE
8
Black
10
154.447
20
-92.7367
11
154.452
21
-92.7353
0
LINE
8
Black
10
154.452
20
-92.7353
11
154.457
21
-92.7325
0
LINE
8
Black
10
154.457
20
-92.7325
11
154.473
21
-92.7297
0
LINE
8
Black
10
154.473
20
-92.7297
11
154.489
21
-92.7255
0
LINE
8
Black
10
154.489
20
-92.7255
11
154.495
21
-92.726
0
LINE
8
Black
10
154.495
20
-92.726
11
154.5
21
-92.725
0
LINE
8
Black
10
154.5
20
-92.725
11
155.2
21
-92.725
0
LINE
8
Black
10
155.2
20
-92.725
11
155.5
21
-92.725
0
LINE
8
Black
10
155.5
20
-92.725
11
155.505
21
-92.726
0
LINE
8
Black
10
134.827
20
-75.8096
11
134.687
21
-75.9498
0
LINE
8
Black
10
134.687
20
-75.9498
11
134.687
21
-76.0598
0
LINE
8
Black
10
134.687
20
-76.0598
11
135.252
21
-76.625
0
LINE
8
Black
10
135.252
20
-76.625
11
135.75
21
-76.625
0
LINE
8
Black
10
135.75
20
-76.625
11
135.755
21
-76.626
0
LINE
8
Black
10
135.755
20
-76.626
11
135.761
21
-76.6255
0
LINE
8
Black
10
135.761
20
-76.6255
11
135.777
21
-76.6297
0
LINE
8
Black
10
135.777
20
-76.6297
11
135.793
21
-76.6325
0
LINE
8
Black
10
135.793
20
-76.6325
11
135.798
21
-76.6353
0
LINE
8
Black
10
135.798
20
-76.6353
11
135.803
21
-76.6367
0
LINE
8
Black
10
135.803
20
-76.6367
11
135.816
21
-76.6461
0
LINE
8
Black
10
135.816
20
-76.6461
11
135.83
21
-76.6542
0
LINE
8
Black
10
135.83
20
-76.6542
11
135.834
21
-76.6585
0
LINE
8
Black
10
135.834
20
-76.6585
11
135.838
21
-76.6616
0
LINE
8
Black
10
135.838
20
-76.6616
11
135.888
21
-76.7116
0
LINE
8
Black
10
135.888
20
-76.7116
11
135.888
21
-76.7116
0
LINE
8
Black
10
135.888
20
-76.7116
11
152.738
21
-93.5616
0
LINE
8
Black
10
152.738
20
-93.5616
11
152.738
21
-93.5616
0
LINE
8
Black
10
152.738
20
-93.5616
11
153.588
21
-94.4116
0
LINE
8
Black
10
153.588
20
-94.4116
11
153.592
21
-94.4161
0
LINE
8
Black
10
153.592
20
-94.4161
11
153.596
21
-94.4197
0
LINE
8
Black
10
153.596
20
-94.4197
11
153.604
21
-94.4338
0
LINE
8
Black
10
153.604
20
-94.4338
11
153.613
21
-94.4472
0
LINE
8
Black
10
153.613
20
-94.4472
11
153.615
21
-94.4525
0
LINE
8
Black
10
153.615
20
-94.4525
11
153.617
21
-94.4572
0
LINE
8
Black
10
153.617
20
-94.4572
11
153.62
21
-94.4733
0
LINE
8
Black
10
153.62
20
-94.4733
11
153.625
21
-94.4891
0
LINE
8
Black
10
153.625
20
-94.4891
11
153.624
21
-94.4946
0
LINE
8
Black
10
153.624
20
-94.4946
11
153.625
21
-94.5
0
LINE
8
Black
10
153.625
20
-94.5
11
153.625
21
-94.9297
0
LINE
8
Black
10
153.625
20
-94.9297
11
153.694
21
-94.9693
0
LINE
8
Black
10
153.694
20
-94.9693
11
153.761
21
-95.0494
0
LINE
8
Black
10
153.761
20
-95.0494
11
153.797
21
-95.1477
0
LINE
8
Black
10
153.797
20
-95.1477
11
153.797
21
-95.2523
0
LINE
8
Black
10
153.797
20
-95.2523
11
153.761
21
-95.3506
0
LINE
8
Black
10
153.761
20
-95.3506
11
153.694
21
-95.4307
0
LINE
8
Black
10
153.694
20
-95.4307
11
153.603
21
-95.483
0
LINE
8
Black
10
153.603
20
-95.483
11
153.5
21
-95.5011
0
LINE
8
Black
10
153.5
20
-95.5011
11
153.397
21
-95.483
0
LINE
8
Black
10
153.397
20
-95.483
11
153.306
21
-95.4307
0
LINE
8
Black
10
153.306
20
-95.4307
11
153.239
21
-95.3506
0
LINE
8
Black
10
153.239
20
-95.3506
11
153.203
21
-95.2523
0
LINE
8
Black
10
153.203
20
-95.2523
11
153.203
21
-95.1477
0
LINE
8
Black
10
153.203
20
-95.1477
11
153.239
21
-95.0494
0
LINE
8
Black
10
153.239
20
-95.0494
11
153.306
21
-94.9693
0
LINE
8
Black
10
153.306
20
-94.9693
11
153.375
21
-94.9297
0
LINE
8
Black
10
153.375
20
-94.9297
11
153.375
21
-94.5518
0
LINE
8
Black
10
153.375
20
-94.5518
11
152.562
21
-93.7384
0
LINE
8
Black
10
152.562
20
-93.7384
11
152.562
21
-93.7384
0
LINE
8
Black
10
152.562
20
-93.7384
11
135.712
21
-76.8884
0
LINE
8
Black
10
135.712
20
-76.8884
11
135.712
21
-76.8884
0
LINE
8
Black
10
135.712
20
-76.8884
11
135.698
21
-76.875
0
LINE
8
Black
10
135.698
20
-76.875
11
135.2
21
-76.875
0
LINE
8
Black
10
135.2
20
-76.875
11
135.195
21
-76.874
0
LINE
8
Black
10
135.195
20
-76.874
11
135.189
21
-76.8745
0
LINE
8
Black
10
135.189
20
-76.8745
11
135.173
21
-76.8703
0
LINE
8
Black
10
135.173
20
-76.8703
11
135.157
21
-76.8675
0
LINE
8
Black
10
135.157
20
-76.8675
11
135.152
21
-76.8647
0
LINE
8
Black
10
135.152
20
-76.8647
11
135.147
21
-76.8633
0
LINE
8
Black
10
135.147
20
-76.8633
11
135.134
21
-76.8539
0
LINE
8
Black
10
135.134
20
-76.8539
11
135.12
21
-76.8458
0
LINE
8
Black
10
135.12
20
-76.8458
11
135.116
21
-76.8415
0
LINE
8
Black
10
135.116
20
-76.8415
11
135.112
21
-76.8384
0
LINE
8
Black
10
135.112
20
-76.8384
11
134.473
21
-76.2
0
LINE
8
Black
10
134.473
20
-76.2
11
134.47
21
-76.1955
0
LINE
8
Black
10
134.47
20
-76.1955
11
134.466
21
-76.1919
0
LINE
8
Black
10
134.466
20
-76.1919
11
134.458
21
-76.1778
0
LINE
8
Black
10
134.458
20
-76.1778
11
134.448
21
-76.1644
0
LINE
8
Black
10
134.448
20
-76.1644
11
134.447
21
-76.1591
0
LINE
8
Black
10
134.447
20
-76.1591
11
134.444
21
-76.1543
0
LINE
8
Black
10
134.444
20
-76.1543
11
134.441
21
-76.1383
0
LINE
8
Black
10
134.441
20
-76.1383
11
134.437
21
-76.1225
0
LINE
8
Black
10
134.437
20
-76.1225
11
134.438
21
-76.117
0
LINE
8
Black
10
134.438
20
-76.117
11
134.437
21
-76.1116
0
LINE
8
Black
10
134.437
20
-76.1116
11
134.437
21
-76.0559
0
LINE
8
Black
10
134.437
20
-76.0559
11
134.296
21
-75.9157
0
LINE
8
Black
10
134.296
20
-75.9157
11
134.615
21
-75.5975
0
LINE
8
Black
10
134.615
20
-75.5975
11
134.827
21
-75.8096
0
LINE
8
Black
10
165.403
20
-94.367
11
165.494
21
-94.4193
0
LINE
8
Black
10
165.494
20
-94.4193
11
165.561
21
-94.4994
0
LINE
8
Black
10
165.561
20
-94.4994
11
165.597
21
-94.5977
0
LINE
8
Black
10
165.597
20
-94.5977
11
165.597
21
-94.7023
0
LINE
8
Black
10
165.597
20
-94.7023
11
165.561
21
-94.8006
0
LINE
8
Black
10
165.561
20
-94.8006
11
165.494
21
-94.8807
0
LINE
8
Black
10
165.494
20
-94.8807
11
165.403
21
-94.933
0
LINE
8
Black
10
165.403
20
-94.933
11
165.3
21
-94.9511
0
LINE
8
Black
10
165.3
20
-94.9511
11
165.197
21
-94.933
0
LINE
8
Black
10
165.197
20
-94.933
11
165.106
21
-94.8807
0
LINE
8
Black
10
165.106
20
-94.8807
11
165.039
21
-94.8006
0
LINE
8
Black
10
165.039
20
-94.8006
11
165.003
21
-94.7023
0
LINE
8
Black
10
165.003
20
-94.7023
11
165.003
21
-94.5977
0
LINE
8
Black
10
165.003
20
-94.5977
11
165.039
21
-94.4994
0
LINE
8
Black
10
165.039
20
-94.4994
11
165.106
21
-94.4193
0
LINE
8
Black
10
165.106
20
-94.4193
11
165.197
21
-94.367
0
LINE
8
Black
10
165.197
20
-94.367
11
165.3
21
-94.3489
0
LINE
8
Black
10
165.3
20
-94.3489
11
165.403
21
-94.367
0
LINE
8
Black
10
135.491
20
-76.1278
11
135.474
21
-76.1455
0
LINE
8
Black
10
135.474
20
-76.1455
11
135.503
21
-76.175
0
LINE
8
Black
10
135.503
20
-76.175
11
135.95
21
-76.175
0
LINE
8
Black
10
135.95
20
-76.175
11
135.955
21
-76.176
0
LINE
8
Black
10
135.955
20
-76.176
11
135.961
21
-76.1755
0
LINE
8
Black
10
135.961
20
-76.1755
11
135.977
21
-76.1797
0
LINE
8
Black
10
135.977
20
-76.1797
11
135.993
21
-76.1825
0
LINE
8
Black
10
135.993
20
-76.1825
11
135.998
21
-76.1853
0
LINE
8
Black
10
135.998
20
-76.1853
11
136.003
21
-76.1867
0
LINE
8
Black
10
136.003
20
-76.1867
11
136.016
21
-76.1961
0
LINE
8
Black
10
136.016
20
-76.1961
11
136.03
21
-76.2042
0
LINE
8
Black
10
136.03
20
-76.2042
11
136.034
21
-76.2085
0
LINE
8
Black
10
136.034
20
-76.2085
11
136.038
21
-76.2116
0
LINE
8
Black
10
136.038
20
-76.2116
11
136.238
21
-76.4116
0
LINE
8
Black
10
136.238
20
-76.4116
11
136.238
21
-76.4116
0
LINE
8
Black
10
136.238
20
-76.4116
11
153.188
21
-93.3616
0
LINE
8
Black
10
153.188
20
-93.3616
11
153.902
21
-94.075
0
LINE
8
Black
10
153.902
20
-94.075
11
154.448
21
-94.075
0
LINE
8
Black
10
154.448
20
-94.075
11
154.921
21
-93.6018
0
LINE
8
Black
10
154.921
20
-93.6018
11
154.903
21
-93.5523
0
LINE
8
Black
10
154.903
20
-93.5523
11
154.903
21
-93.4477
0
LINE
8
Black
10
154.903
20
-93.4477
11
154.939
21
-93.3494
0
LINE
8
Black
10
154.939
20
-93.3494
11
155.006
21
-93.2693
0
LINE
8
Black
10
155.006
20
-93.2693
11
155.097
21
-93.217
0
LINE
8
Black
10
155.097
20
-93.217
11
155.2
21
-93.1989
0
LINE
8
Black
10
155.2
20
-93.1989
11
155.303
21
-93.217
0
LINE
8
Black
10
155.303
20
-93.217
11
155.394
21
-93.2693
0
LINE
8
Black
10
155.394
20
-93.2693
11
155.461
21
-93.3494
0
LINE
8
Black
10
155.461
20
-93.3494
11
155.497
21
-93.4477
0
LINE
8
Black
10
155.497
20
-93.4477
11
155.497
21
-93.5523
0
LINE
8
Black
10
155.497
20
-93.5523
11
155.461
21
-93.6506
0
LINE
8
Black
10
155.461
20
-93.6506
11
155.394
21
-93.7307
0
LINE
8
Black
10
155.394
20
-93.7307
11
155.303
21
-93.783
0
LINE
8
Black
10
155.303
20
-93.783
11
155.2
21
-93.8011
0
LINE
8
Black
10
155.2
20
-93.8011
11
155.097
21
-93.783
0
LINE
8
Black
10
155.097
20
-93.783
11
155.095
21
-93.7818
0
LINE
8
Black
10
155.095
20
-93.7818
11
154.588
21
-94.2884
0
LINE
8
Black
10
154.588
20
-94.2884
11
154.584
21
-94.2915
0
LINE
8
Black
10
154.584
20
-94.2915
11
154.58
21
-94.2958
0
LINE
8
Black
10
154.58
20
-94.2958
11
154.566
21
-94.3039
0
LINE
8
Black
10
154.566
20
-94.3039
11
154.553
21
-94.3133
0
LINE
8
Black
10
154.553
20
-94.3133
11
154.548
21
-94.3147
0
LINE
8
Black
10
154.548
20
-94.3147
11
154.543
21
-94.3175
0
LINE
8
Black
10
154.543
20
-94.3175
11
154.527
21
-94.3203
0
LINE
8
Black
10
154.527
20
-94.3203
11
154.511
21
-94.3245
0
LINE
8
Black
10
154.511
20
-94.3245
11
154.505
21
-94.324
0
LINE
8
Black
10
154.505
20
-94.324
11
154.5
21
-94.325
0
LINE
8
Black
10
154.5
20
-94.325
11
153.85
21
-94.325
0
LINE
8
Black
10
153.85
20
-94.325
11
153.845
21
-94.324
0
LINE
8
Black
10
153.845
20
-94.324
11
153.839
21
-94.3245
0
LINE
8
Black
10
153.839
20
-94.3245
11
153.823
21
-94.3203
0
LINE
8
Black
10
153.823
20
-94.3203
11
153.807
21
-94.3175
0
LINE
8
Black
10
153.807
20
-94.3175
11
153.802
21
-94.3147
0
LINE
8
Black
10
153.802
20
-94.3147
11
153.797
21
-94.3133
0
LINE
8
Black
10
153.797
20
-94.3133
11
153.784
21
-94.3039
0
LINE
8
Black
10
153.784
20
-94.3039
11
153.77
21
-94.2958
0
LINE
8
Black
10
153.77
20
-94.2958
11
153.766
21
-94.2915
0
LINE
8
Black
10
153.766
20
-94.2915
11
153.762
21
-94.2884
0
LINE
8
Black
10
153.762
20
-94.2884
11
153.012
21
-93.5384
0
LINE
8
Black
10
153.012
20
-93.5384
11
136.062
21
-76.5884
0
LINE
8
Black
10
136.062
20
-76.5884
11
136.062
21
-76.5884
0
LINE
8
Black
10
136.062
20
-76.5884
11
135.898
21
-76.425
0
LINE
8
Black
10
135.898
20
-76.425
11
135.451
21
-76.425
0
LINE
8
Black
10
135.451
20
-76.425
11
135.446
21
-76.424
0
LINE
8
Black
10
135.446
20
-76.424
11
135.441
21
-76.4245
0
LINE
8
Black
10
135.441
20
-76.4245
11
135.425
21
-76.4203
0
LINE
8
Black
10
135.425
20
-76.4203
11
135.409
21
-76.4175
0
LINE
8
Black
10
135.409
20
-76.4175
11
135.404
21
-76.4147
0
LINE
8
Black
10
135.404
20
-76.4147
11
135.399
21
-76.4133
0
LINE
8
Black
10
135.399
20
-76.4133
11
135.385
21
-76.4039
0
LINE
8
Black
10
135.385
20
-76.4039
11
135.371
21
-76.3958
0
LINE
8
Black
10
135.371
20
-76.3958
11
135.368
21
-76.3915
0
LINE
8
Black
10
135.368
20
-76.3915
11
135.363
21
-76.3884
0
LINE
8
Black
10
135.363
20
-76.3884
11
135.297
21
-76.3223
0
LINE
8
Black
10
135.297
20
-76.3223
11
135.279
21
-76.34
0
LINE
8
Black
10
135.279
20
-76.34
11
134.961
21
-76.0218
0
LINE
8
Black
10
134.961
20
-76.0218
11
135.173
21
-75.8096
0
LINE
8
Black
10
135.173
20
-75.8096
11
135.491
21
-76.1278
0
LINE
8
Black
10
159.2
20
-88.3685
11
159.233
21
-88.3964
0
LINE
8
Black
10
159.233
20
-88.3964
11
159.255
21
-88.434
0
LINE
8
Black
10
159.255
20
-88.434
11
159.262
21
-88.4767
0
LINE
8
Black
10
159.262
20
-88.4767
11
159.262
21
-88.5121
0
LINE
8
Black
10
159.262
20
-88.5121
11
159.255
21
-88.5548
0
LINE
8
Black
10
159.255
20
-88.5548
11
159.233
21
-88.5924
0
LINE
8
Black
10
159.233
20
-88.5924
11
159.2
21
-88.6203
0
LINE
8
Black
10
159.2
20
-88.6203
11
159.159
21
-88.6352
0
LINE
8
Black
10
159.159
20
-88.6352
11
159.116
21
-88.6352
0
LINE
8
Black
10
159.116
20
-88.6352
11
159.075
21
-88.6203
0
LINE
8
Black
10
159.075
20
-88.6203
11
159.042
21
-88.5924
0
LINE
8
Black
10
159.042
20
-88.5924
11
159.02
21
-88.5548
0
LINE
8
Black
10
159.02
20
-88.5548
11
159.012
21
-88.5121
0
LINE
8
Black
10
159.012
20
-88.5121
11
159.012
21
-88.4767
0
LINE
8
Black
10
159.012
20
-88.4767
11
159.02
21
-88.434
0
LINE
8
Black
10
159.02
20
-88.434
11
159.042
21
-88.3964
0
LINE
8
Black
10
159.042
20
-88.3964
11
159.075
21
-88.3685
0
LINE
8
Black
10
159.075
20
-88.3685
11
159.116
21
-88.3536
0
LINE
8
Black
10
159.116
20
-88.3536
11
159.159
21
-88.3536
0
LINE
8
Black
10
159.159
20
-88.3536
11
159.2
21
-88.3685
0
LINE
8
Black
10
159.235
20
-87.4492
11
159.268
21
-87.4772
0
LINE
8
Black
10
159.268
20
-87.4772
11
159.29
21
-87.5147
0
LINE
8
Black
10
159.29
20
-87.5147
11
159.298
21
-87.5575
0
LINE
8
Black
10
159.298
20
-87.5575
11
159.298
21
-87.8403
0
LINE
8
Black
10
159.298
20
-87.8403
11
159.29
21
-87.8831
0
LINE
8
Black
10
159.29
20
-87.8831
11
159.268
21
-87.9207
0
LINE
8
Black
10
159.268
20
-87.9207
11
159.235
21
-87.9486
0
LINE
8
Black
10
159.235
20
-87.9486
11
159.194
21
-87.9634
0
LINE
8
Black
10
159.194
20
-87.9634
11
159.151
21
-87.9634
0
LINE
8
Black
10
159.151
20
-87.9634
11
159.11
21
-87.9486
0
LINE
8
Black
10
159.11
20
-87.9486
11
159.077
21
-87.9207
0
LINE
8
Black
10
159.077
20
-87.9207
11
159.055
21
-87.8831
0
LINE
8
Black
10
159.055
20
-87.8831
11
159.048
21
-87.8403
0
LINE
8
Black
10
159.048
20
-87.8403
11
159.048
21
-87.5575
0
LINE
8
Black
10
159.048
20
-87.5575
11
159.055
21
-87.5147
0
LINE
8
Black
10
159.055
20
-87.5147
11
159.077
21
-87.4772
0
LINE
8
Black
10
159.077
20
-87.4772
11
159.11
21
-87.4492
0
LINE
8
Black
10
159.11
20
-87.4492
11
159.151
21
-87.4344
0
LINE
8
Black
10
159.151
20
-87.4344
11
159.194
21
-87.4344
0
LINE
8
Black
10
159.194
20
-87.4344
11
159.235
21
-87.4492
0
LINE
8
Black
10
161.326
20
-83.5268
11
161.417
21
-83.5791
0
LINE
8
Black
10
161.417
20
-83.5791
11
161.484
21
-83.6593
0
LINE
8
Black
10
161.484
20
-83.6593
11
161.52
21
-83.7575
0
LINE
8
Black
10
161.52
20
-83.7575
11
161.52
21
-83.8621
0
LINE
8
Black
10
161.52
20
-83.8621
11
161.484
21
-83.9604
0
LINE
8
Black
10
161.484
20
-83.9604
11
161.417
21
-84.0405
0
LINE
8
Black
10
161.417
20
-84.0405
11
161.326
21
-84.0928
0
LINE
8
Black
10
161.326
20
-84.0928
11
161.223
21
-84.111
0
LINE
8
Black
10
161.223
20
-84.111
11
161.12
21
-84.0928
0
LINE
8
Black
10
161.12
20
-84.0928
11
161.03
21
-84.0405
0
LINE
8
Black
10
161.03
20
-84.0405
11
160.963
21
-83.9604
0
LINE
8
Black
10
160.963
20
-83.9604
11
160.953
21
-83.9348
0
LINE
8
Black
10
160.953
20
-83.9348
11
160.568
21
-83.9348
0
LINE
8
Black
10
160.568
20
-83.9348
11
160.076
21
-84.4273
0
LINE
8
Black
10
160.076
20
-84.4273
11
160.076
21
-86.0851
0
LINE
8
Black
10
160.076
20
-86.0851
11
160.144
21
-86.1247
0
LINE
8
Black
10
160.144
20
-86.1247
11
160.211
21
-86.2048
0
LINE
8
Black
10
160.211
20
-86.2048
11
160.247
21
-86.3031
0
LINE
8
Black
10
160.247
20
-86.3031
11
160.247
21
-86.4077
0
LINE
8
Black
10
160.247
20
-86.4077
11
160.211
21
-86.506
0
LINE
8
Black
10
160.211
20
-86.506
11
160.144
21
-86.5861
0
LINE
8
Black
10
160.144
20
-86.5861
11
160.054
21
-86.6384
0
LINE
8
Black
10
160.054
20
-86.6384
11
159.951
21
-86.6566
0
LINE
8
Black
10
159.951
20
-86.6566
11
159.848
21
-86.6384
0
LINE
8
Black
10
159.848
20
-86.6384
11
159.757
21
-86.5861
0
LINE
8
Black
10
159.757
20
-86.5861
11
159.69
21
-86.506
0
LINE
8
Black
10
159.69
20
-86.506
11
159.654
21
-86.4077
0
LINE
8
Black
10
159.654
20
-86.4077
11
159.654
21
-86.3031
0
LINE
8
Black
10
159.654
20
-86.3031
11
159.69
21
-86.2048
0
LINE
8
Black
10
159.69
20
-86.2048
11
159.757
21
-86.1247
0
LINE
8
Black
10
159.757
20
-86.1247
11
159.826
21
-86.0851
0
LINE
8
Black
10
159.826
20
-86.0851
11
159.826
21
-84.3755
0
LINE
8
Black
10
159.826
20
-84.3755
11
159.826
21
-84.3701
0
LINE
8
Black
10
159.826
20
-84.3701
11
159.826
21
-84.3646
0
LINE
8
Black
10
159.826
20
-84.3646
11
159.83
21
-84.3489
0
LINE
8
Black
10
159.83
20
-84.3489
11
159.833
21
-84.3328
0
LINE
8
Black
10
159.833
20
-84.3328
11
159.836
21
-84.328
0
LINE
8
Black
10
159.836
20
-84.328
11
159.837
21
-84.3227
0
LINE
8
Black
10
159.837
20
-84.3227
11
159.847
21
-84.3093
0
LINE
8
Black
10
159.847
20
-84.3093
11
159.855
21
-84.2952
0
LINE
8
Black
10
159.855
20
-84.2952
11
159.859
21
-84.2916
0
LINE
8
Black
10
159.859
20
-84.2916
11
159.862
21
-84.2871
0
LINE
8
Black
10
159.862
20
-84.2871
11
160.428
21
-83.7214
0
LINE
8
Black
10
160.428
20
-83.7214
11
160.432
21
-83.7183
0
LINE
8
Black
10
160.432
20
-83.7183
11
160.436
21
-83.7141
0
LINE
8
Black
10
160.436
20
-83.7141
11
160.45
21
-83.7059
0
LINE
8
Black
10
160.45
20
-83.7059
11
160.463
21
-83.6965
0
LINE
8
Black
10
160.463
20
-83.6965
11
160.469
21
-83.6951
0
LINE
8
Black
10
160.469
20
-83.6951
11
160.473
21
-83.6924
0
LINE
8
Black
10
160.473
20
-83.6924
11
160.49
21
-83.6895
0
LINE
8
Black
10
160.49
20
-83.6895
11
160.505
21
-83.6853
0
LINE
8
Black
10
160.505
20
-83.6853
11
160.511
21
-83.6858
0
LINE
8
Black
10
160.511
20
-83.6858
11
160.516
21
-83.6848
0
LINE
8
Black
10
160.516
20
-83.6848
11
160.953
21
-83.6848
0
LINE
8
Black
10
160.953
20
-83.6848
11
160.963
21
-83.6593
0
LINE
8
Black
10
160.963
20
-83.6593
11
161.03
21
-83.5791
0
LINE
8
Black
10
161.03
20
-83.5791
11
161.12
21
-83.5268
0
LINE
8
Black
10
161.12
20
-83.5268
11
161.223
21
-83.5087
0
LINE
8
Black
10
161.223
20
-83.5087
11
161.326
21
-83.5268
0
LINE
8
Black
10
160.122
20
-82.2012
11
160.273
21
-82.2884
0
LINE
8
Black
10
160.273
20
-82.2884
11
160.385
21
-82.4219
0
LINE
8
Black
10
160.385
20
-82.4219
11
160.445
21
-82.5857
0
LINE
8
Black
10
160.445
20
-82.5857
11
160.445
21
-82.76
0
LINE
8
Black
10
160.445
20
-82.76
11
160.385
21
-82.9238
0
LINE
8
Black
10
160.385
20
-82.9238
11
160.273
21
-83.0574
0
LINE
8
Black
10
160.273
20
-83.0574
11
160.122
21
-83.1445
0
LINE
8
Black
10
160.122
20
-83.1445
11
159.951
21
-83.1748
0
LINE
8
Black
10
159.951
20
-83.1748
11
159.779
21
-83.1445
0
LINE
8
Black
10
159.779
20
-83.1445
11
159.628
21
-83.0574
0
LINE
8
Black
10
159.628
20
-83.0574
11
159.516
21
-82.9238
0
LINE
8
Black
10
159.516
20
-82.9238
11
159.456
21
-82.76
0
LINE
8
Black
10
159.456
20
-82.76
11
159.456
21
-82.5857
0
LINE
8
Black
10
159.456
20
-82.5857
11
159.516
21
-82.4219
0
LINE
8
Black
10
159.516
20
-82.4219
11
159.628
21
-82.2884
0
LINE
8
Black
10
159.628
20
-82.2884
11
159.779
21
-82.2012
0
LINE
8
Black
10
159.779
20
-82.2012
11
159.951
21
-82.171
0
LINE
8
Black
10
159.951
20
-82.171
11
160.122
21
-82.2012
0
LINE
8
Black
10
159.106
20
-77.1212
11
159.257
21
-77.2084
0
LINE
8
Black
10
159.257
20
-77.2084
11
159.369
21
-77.3419
0
LINE
8
Black
10
159.369
20
-77.3419
11
159.429
21
-77.5057
0
LINE
8
Black
10
159.429
20
-77.5057
11
159.429
21
-77.68
0
LINE
8
Black
10
159.429
20
-77.68
11
159.369
21
-77.8438
0
LINE
8
Black
10
159.369
20
-77.8438
11
159.257
21
-77.9774
0
LINE
8
Black
10
159.257
20
-77.9774
11
159.106
21
-78.0645
0
LINE
8
Black
10
159.106
20
-78.0645
11
158.935
21
-78.0948
0
LINE
8
Black
10
158.935
20
-78.0948
11
158.763
21
-78.0645
0
LINE
8
Black
10
158.763
20
-78.0645
11
158.612
21
-77.9774
0
LINE
8
Black
10
158.612
20
-77.9774
11
158.5
21
-77.8438
0
LINE
8
Black
10
158.5
20
-77.8438
11
158.44
21
-77.68
0
LINE
8
Black
10
158.44
20
-77.68
11
158.44
21
-77.5057
0
LINE
8
Black
10
158.44
20
-77.5057
11
158.5
21
-77.3419
0
LINE
8
Black
10
158.5
20
-77.3419
11
158.612
21
-77.2084
0
LINE
8
Black
10
158.612
20
-77.2084
11
158.763
21
-77.1212
0
LINE
8
Black
10
158.763
20
-77.1212
11
158.935
21
-77.091
0
LINE
8
Black
10
158.935
20
-77.091
11
159.106
21
-77.1212
0
LINE
8
Black
10
161.138
20
-77.1212
11
161.289
21
-77.2084
0
LINE
8
Black
10
161.289
20
-77.2084
11
161.401
21
-77.3419
0
LINE
8
Black
10
161.401
20
-77.3419
11
161.461
21
-77.5057
0
LINE
8
Black
10
161.461
20
-77.5057
11
161.461
21
-77.68
0
LINE
8
Black
10
161.461
20
-77.68
11
161.401
21
-77.8438
0
LINE
8
Black
10
161.401
20
-77.8438
11
161.289
21
-77.9774
0
LINE
8
Black
10
161.289
20
-77.9774
11
161.138
21
-78.0645
0
LINE
8
Black
10
161.138
20
-78.0645
11
160.967
21
-78.0948
0
LINE
8
Black
10
160.967
20
-78.0948
11
160.795
21
-78.0645
0
LINE
8
Black
10
160.795
20
-78.0645
11
160.644
21
-77.9774
0
LINE
8
Black
10
160.644
20
-77.9774
11
160.532
21
-77.8438
0
LINE
8
Black
10
160.532
20
-77.8438
11
160.472
21
-77.68
0
LINE
8
Black
10
160.472
20
-77.68
11
160.472
21
-77.5057
0
LINE
8
Black
10
160.472
20
-77.5057
11
160.532
21
-77.3419
0
LINE
8
Black
10
160.532
20
-77.3419
11
160.644
21
-77.2084
0
LINE
8
Black
10
160.644
20
-77.2084
11
160.795
21
-77.1212
0
LINE
8
Black
10
160.795
20
-77.1212
11
160.967
21
-77.091
0
LINE
8
Black
10
160.967
20
-77.091
11
161.138
21
-77.1212
0
LINE
8
Black
10
134.402
20
-75.3854
11
134.084
21
-75.7036
0
LINE
8
Black
10
134.084
20
-75.7036
11
133.872
21
-75.4914
0
LINE
8
Black
10
133.872
20
-75.4914
11
134.19
21
-75.1732
0
LINE
8
Black
10
134.19
20
-75.1732
11
134.402
21
-75.3854
0
LINE
8
Black
10
137.253
20
-74.967
11
137.344
21
-75.0193
0
LINE
8
Black
10
137.344
20
-75.0193
11
137.411
21
-75.0994
0
LINE
8
Black
10
137.411
20
-75.0994
11
137.447
21
-75.1977
0
LINE
8
Black
10
137.447
20
-75.1977
11
137.447
21
-75.3023
0
LINE
8
Black
10
137.447
20
-75.3023
11
137.411
21
-75.4006
0
LINE
8
Black
10
137.411
20
-75.4006
11
137.344
21
-75.4807
0
LINE
8
Black
10
137.344
20
-75.4807
11
137.253
21
-75.533
0
LINE
8
Black
10
137.253
20
-75.533
11
137.15
21
-75.5511
0
LINE
8
Black
10
137.15
20
-75.5511
11
137.047
21
-75.533
0
LINE
8
Black
10
137.047
20
-75.533
11
136.956
21
-75.4807
0
LINE
8
Black
10
136.956
20
-75.4807
11
136.889
21
-75.4006
0
LINE
8
Black
10
136.889
20
-75.4006
11
136.88
21
-75.375
0
LINE
8
Black
10
136.88
20
-75.375
11
136.244
21
-75.375
0
LINE
8
Black
10
136.244
20
-75.375
11
136.128
21
-75.4914
0
LINE
8
Black
10
136.128
20
-75.4914
11
135.81
21
-75.1732
0
LINE
8
Black
10
135.81
20
-75.1732
11
136.022
21
-74.9611
0
LINE
8
Black
10
136.022
20
-74.9611
11
136.186
21
-75.125
0
LINE
8
Black
10
136.186
20
-75.125
11
136.88
21
-75.125
0
LINE
8
Black
10
136.88
20
-75.125
11
136.889
21
-75.0994
0
LINE
8
Black
10
136.889
20
-75.0994
11
136.956
21
-75.0193
0
LINE
8
Black
10
136.956
20
-75.0193
11
137.047
21
-74.967
0
LINE
8
Black
10
137.047
20
-74.967
11
137.15
21
-74.9489
0
LINE
8
Black
10
137.15
20
-74.9489
11
137.253
21
-74.967
0
LINE
8
Black
10
135.039
20
-73.9782
11
135.021
21
-73.9959
0
LINE
8
Black
10
135.021
20
-73.9959
11
135.038
21
-74.0123
0
LINE
8
Black
10
135.038
20
-74.0123
11
135.351
21
-74.0123
0
LINE
8
Black
10
135.351
20
-74.0123
11
135.491
21
-73.8722
0
LINE
8
Black
10
135.491
20
-73.8722
11
135.704
21
-74.0843
0
LINE
8
Black
10
135.704
20
-74.0843
11
135.385
21
-74.4025
0
LINE
8
Black
10
135.385
20
-74.4025
11
135.368
21
-74.3848
0
LINE
8
Black
10
135.368
20
-74.3848
11
135.125
21
-74.6275
0
LINE
8
Black
10
135.125
20
-74.6275
11
135.125
21
-74.7297
0
LINE
8
Black
10
135.125
20
-74.7297
11
135.194
21
-74.7693
0
LINE
8
Black
10
135.194
20
-74.7693
11
135.261
21
-74.8494
0
LINE
8
Black
10
135.261
20
-74.8494
11
135.297
21
-74.9477
0
LINE
8
Black
10
135.297
20
-74.9477
11
135.297
21
-75.0523
0
LINE
8
Black
10
135.297
20
-75.0523
11
135.261
21
-75.1506
0
LINE
8
Black
10
135.261
20
-75.1506
11
135.194
21
-75.2307
0
LINE
8
Black
10
135.194
20
-75.2307
11
135.103
21
-75.283
0
LINE
8
Black
10
135.103
20
-75.283
11
135
21
-75.3011
0
LINE
8
Black
10
135
20
-75.3011
11
134.897
21
-75.283
0
LINE
8
Black
10
134.897
20
-75.283
11
134.806
21
-75.2307
0
LINE
8
Black
10
134.806
20
-75.2307
11
134.739
21
-75.1506
0
LINE
8
Black
10
134.739
20
-75.1506
11
134.703
21
-75.0523
0
LINE
8
Black
10
134.703
20
-75.0523
11
134.703
21
-74.9477
0
LINE
8
Black
10
134.703
20
-74.9477
11
134.739
21
-74.8494
0
LINE
8
Black
10
134.739
20
-74.8494
11
134.806
21
-74.7693
0
LINE
8
Black
10
134.806
20
-74.7693
11
134.875
21
-74.7297
0
LINE
8
Black
10
134.875
20
-74.7297
11
134.875
21
-74.5757
0
LINE
8
Black
10
134.875
20
-74.5757
11
134.876
21
-74.5703
0
LINE
8
Black
10
134.876
20
-74.5703
11
134.875
21
-74.5648
0
LINE
8
Black
10
134.875
20
-74.5648
11
134.88
21
-74.5491
0
LINE
8
Black
10
134.88
20
-74.5491
11
134.883
21
-74.533
0
LINE
8
Black
10
134.883
20
-74.533
11
134.885
21
-74.5282
0
LINE
8
Black
10
134.885
20
-74.5282
11
134.887
21
-74.5229
0
LINE
8
Black
10
134.887
20
-74.5229
11
134.896
21
-74.5095
0
LINE
8
Black
10
134.896
20
-74.5095
11
134.904
21
-74.4954
0
LINE
8
Black
10
134.904
20
-74.4954
11
134.908
21
-74.4919
0
LINE
8
Black
10
134.908
20
-74.4919
11
134.912
21
-74.4873
0
LINE
8
Black
10
134.912
20
-74.4873
11
135.137
21
-74.2623
0
LINE
8
Black
10
135.137
20
-74.2623
11
134.986
21
-74.2623
0
LINE
8
Black
10
134.986
20
-74.2623
11
134.98
21
-74.2614
0
LINE
8
Black
10
134.98
20
-74.2614
11
134.975
21
-74.2619
0
LINE
8
Black
10
134.975
20
-74.2619
11
134.959
21
-74.2576
0
LINE
8
Black
10
134.959
20
-74.2576
11
134.943
21
-74.2548
0
LINE
8
Black
10
134.943
20
-74.2548
11
134.938
21
-74.252
0
LINE
8
Black
10
134.938
20
-74.252
11
134.933
21
-74.2506
0
LINE
8
Black
10
134.933
20
-74.2506
11
134.92
21
-74.2413
0
LINE
8
Black
10
134.92
20
-74.2413
11
134.906
21
-74.2331
0
LINE
8
Black
10
134.906
20
-74.2331
11
134.902
21
-74.2289
0
LINE
8
Black
10
134.902
20
-74.2289
11
134.897
21
-74.2257
0
LINE
8
Black
10
134.897
20
-74.2257
11
134.844
21
-74.1727
0
LINE
8
Black
10
134.844
20
-74.1727
11
134.827
21
-74.1904
0
LINE
8
Black
10
134.827
20
-74.1904
11
134.509
21
-73.8722
0
LINE
8
Black
10
134.509
20
-73.8722
11
134.721
21
-73.66
0
LINE
8
Black
10
134.721
20
-73.66
11
135.039
21
-73.9782
0
LINE
8
Black
10
133.353
20
-74.067
11
133.444
21
-74.1193
0
LINE
8
Black
10
133.444
20
-74.1193
11
133.511
21
-74.1994
0
LINE
8
Black
10
133.511
20
-74.1994
11
133.547
21
-74.2977
0
LINE
8
Black
10
133.547
20
-74.2977
11
133.547
21
-74.4023
0
LINE
8
Black
10
133.547
20
-74.4023
11
133.529
21
-74.4518
0
LINE
8
Black
10
133.529
20
-74.4518
11
133.726
21
-74.6487
0
LINE
8
Black
10
133.726
20
-74.6487
11
133.732
21
-74.6487
0
LINE
8
Black
10
133.732
20
-74.6487
11
133.872
21
-74.5086
0
LINE
8
Black
10
133.872
20
-74.5086
11
133.943
21
-74.5793
0
LINE
8
Black
10
133.943
20
-74.5793
11
134.155
21
-74.3671
0
LINE
8
Black
10
134.155
20
-74.3671
11
134.084
21
-74.2964
0
LINE
8
Black
10
134.084
20
-74.2964
11
134.296
21
-74.0843
0
LINE
8
Black
10
134.296
20
-74.0843
11
134.615
21
-74.4025
0
LINE
8
Black
10
134.615
20
-74.4025
11
134.402
21
-74.6146
0
LINE
8
Black
10
134.402
20
-74.6146
11
134.332
21
-74.5439
0
LINE
8
Black
10
134.332
20
-74.5439
11
134.12
21
-74.756
0
LINE
8
Black
10
134.12
20
-74.756
11
134.19
21
-74.8268
0
LINE
8
Black
10
134.19
20
-74.8268
11
133.978
21
-75.0389
0
LINE
8
Black
10
133.978
20
-75.0389
11
133.838
21
-74.8987
0
LINE
8
Black
10
133.838
20
-74.8987
11
133.674
21
-74.8987
0
LINE
8
Black
10
133.674
20
-74.8987
11
133.668
21
-74.8978
0
LINE
8
Black
10
133.668
20
-74.8978
11
133.663
21
-74.8982
0
LINE
8
Black
10
133.663
20
-74.8982
11
133.647
21
-74.894
0
LINE
8
Black
10
133.647
20
-74.894
11
133.631
21
-74.8912
0
LINE
8
Black
10
133.631
20
-74.8912
11
133.626
21
-74.8884
0
LINE
8
Black
10
133.626
20
-74.8884
11
133.621
21
-74.887
0
LINE
8
Black
10
133.621
20
-74.887
11
133.608
21
-74.8776
0
LINE
8
Black
10
133.608
20
-74.8776
11
133.593
21
-74.8695
0
LINE
8
Black
10
133.593
20
-74.8695
11
133.59
21
-74.8653
0
LINE
8
Black
10
133.59
20
-74.8653
11
133.585
21
-74.8621
0
LINE
8
Black
10
133.585
20
-74.8621
11
133.355
21
-74.6318
0
LINE
8
Black
10
133.355
20
-74.6318
11
133.353
21
-74.633
0
LINE
8
Black
10
133.353
20
-74.633
11
133.25
21
-74.6511
0
LINE
8
Black
10
133.25
20
-74.6511
11
133.147
21
-74.633
0
LINE
8
Black
10
133.147
20
-74.633
11
133.056
21
-74.5807
0
LINE
8
Black
10
133.056
20
-74.5807
11
132.989
21
-74.5006
0
LINE
8
Black
10
132.989
20
-74.5006
11
132.953
21
-74.4023
0
LINE
8
Black
10
132.953
20
-74.4023
11
132.953
21
-74.2977
0
LINE
8
Black
10
132.953
20
-74.2977
11
132.989
21
-74.1994
0
LINE
8
Black
10
132.989
20
-74.1994
11
133.056
21
-74.1193
0
LINE
8
Black
10
133.056
20
-74.1193
11
133.147
21
-74.067
0
LINE
8
Black
10
133.147
20
-74.067
11
133.25
21
-74.0489
0
LINE
8
Black
10
133.25
20
-74.0489
11
133.353
21
-74.067
0
CIRCLE
8
Black
10
159.951
20
-82.6729
40
0.4955
0
CIRCLE
8
Black
10
158.935
20
-77.5929
40
0.4955
0
CIRCLE
8
Black
10
160.967
20
-77.5929
40
0.4955
0
CIRCLE
8
Black
10
154.25
20
-97.7
40
0.2
0
CIRCLE
8
Black
10
165.3
20
-94.65
40
0.2
0
CIRCLE
8
Black
10
152.25
20
-100
40
0.2
0
CIRCLE
8
Black
10
160
20
-107.7
40
0.2
0
CIRCLE
8
Black
10
158.45
20
-86
40
0.2
0
CIRCLE
8
Black
10
149.7
20
-112.65
40
0.2
0
CIRCLE
8
Black
10
137.15
20
-75.25
40
0.2
0
CIRCLE
8
Black
10
133.25
20
-74.35
40
0.2
0
CIRCLE
8
Black
10
186.65
20
-125.55
40
0.2
0
CIRCLE
8
Black
10
182.9
20
-125
40
0.2
0
CIRCLE
8
Black
10
135
20
-75
40
0.2
0
CIRCLE
8
Black
10
184.85
20
-125.2
40
0.2
0
CIRCLE
8
Black
10
158.65
20
-96.15
40
0.2
0
CIRCLE
8
Black
10
157.157
20
-83.9159
40
0.2
0
CIRCLE
8
Black
10
159.102
20
-83.8098
40
0.2
0
CIRCLE
8
Black
10
162.45
20
-97.55
40
0.2
0
CIRCLE
8
Black
10
161.35
20
-96.15
40
0.2
0
CIRCLE
8
Black
10
159.951
20
-86.3554
40
0.2
0
CIRCLE
8
Black
10
161.223
20
-83.8098
40
0.2
0
CIRCLE
8
Black
10
161.5
20
-98.5
40
0.2
0
CIRCLE
8
Black
10
160.764
20
-86.1786
40
0.2
0
CIRCLE
8
Black
10
145.05
20
-111.05
40
0.2
0
CIRCLE
8
Black
10
161
20
-105.35
40
0.2
0
CIRCLE
8
Black
10
167.65
20
-99.85
40
0.2
0
CIRCLE
8
Black
10
161.4
20
-99.35
40
0.2
0
CIRCLE
8
Black
10
147.45
20
-110.25
40
0.2
0
CIRCLE
8
Black
10
162
20
-105.35
40
0.2
0
CIRCLE
8
Black
10
165.88
20
-100.16
40
0.2
0
CIRCLE
8
Black
10
161.4
20
-100.15
40
0.2
0
CIRCLE
8
Black
10
164.9
20
-106.4
40
0.2
0
CIRCLE
8
Black
10
166.45
20
-104.9
40
0.2
0
CIRCLE
8
Black
10
155.2
20
-93.5
40
0.2
0
CIRCLE
8
Black
10
153.5
20
-95.2
40
0.2
0
CIRCLE
8
Black
10
160.7
20
-101.45
40
0.2
0
CIRCLE
8
Black
10
164.15
20
-96.35
40
0.2
0
CIRCLE
8
Black
10
161.4
20
-100.95
40
0.2
0
CIRCLE
8
Black
10
163.6
20
-95.75
40
0.2
0
CIRCLE
8
Black
10
168.8
20
-99.4
40
0.2
0
CIRCLE
8
Black
10
164.28
20
-102.89
40
0.2
0
CIRCLE
8
Black
10
144.2
20
-113.5
40
0.2
0
CIRCLE
8
Black
10
143.65
20
-112.9
40
0.2
0
CIRCLE
8
Black
10
144.3
20
-111.4
40
0.2
  0
ENDSEC
  0
EOF
