  0
SECTION
  2
HEADER
  9
$ANGBASE
  50
0.0
  9
$ANGDIR
  70
  1
  9
$MEASUREMENT
  70
0
  0
ENDSEC
  0
SECTION
  2
TABLES
  0
TABLE
  2
LTYPE
  70
1
  0
LTYPE
  2
CONTINUOUS
  70
0
  3
Solid line
  72
65
  73
0
  40
0.0
  0
ENDTAB
  0
TABLE
  2
STYLE
  70
4
  0
STYLE
  2
KICAD
  70
0
  40
0
  41
1
  42
1
  50
0
  71
0
  3
isocp.shx
  0
STYLE
  2
KICADB
  70
0
  40
0
  41
1
  42
1
  50
0
  71
0
  3
isocp.shx
  0
STYLE
  2
KICADI
  70
0
  40
0
  41
1
  42
1
  50
15
  71
0
  3
isocp.shx
  0
STYLE
  2
KICADBI
  70
0
  40
0
  41
1
  42
1
  50
15
  71
0
  3
isocp.shx
  0
ENDTAB
  0
TABLE
  2
LAYER
  70
30
  0
LAYER
  2
BLACK
  70
0
  62
7
  6
CONTINUOUS
  0
LAYER
  2
GRAY1
  70
0
  62
251
  6
CONTINUOUS
  0
LAYER
  2
GRAY2
  70
0
  62
8
  6
CONTINUOUS
  0
LAYER
  2
GRAY3
  70
0
  62
9
  6
CONTINUOUS
  0
LAYER
  2
WHITE
  70
0
  62
7
  6
CONTINUOUS
  0
LAYER
  2
LYELLOW
  70
0
  62
51
  6
CONTINUOUS
  0
LAYER
  2
BLUE1
  70
0
  62
178
  6
CONTINUOUS
  0
LAYER
  2
GREEN1
  70
0
  62
98
  6
CONTINUOUS
  0
LAYER
  2
CYAN1
  70
0
  62
138
  6
CONTINUOUS
  0
LAYER
  2
RED1
  70
0
  62
18
  6
CONTINUOUS
  0
LAYER
  2
MAGENTA1
  70
0
  62
228
  6
CONTINUOUS
  0
LAYER
  2
BROWN1
  70
0
  62
58
  6
CONTINUOUS
  0
LAYER
  2
BLUE2
  70
0
  62
5
  6
CONTINUOUS
  0
LAYER
  2
GREEN2
  70
0
  62
3
  6
CONTINUOUS
  0
LAYER
  2
CYAN2
  70
0
  62
4
  6
CONTINUOUS
  0
LAYER
  2
RED2
  70
0
  62
1
  6
CONTINUOUS
  0
LAYER
  2
MAGENTA2
  70
0
  62
6
  6
CONTINUOUS
  0
LAYER
  2
BROWN2
  70
0
  62
54
  6
CONTINUOUS
  0
LAYER
  2
BLUE3
  70
0
  62
171
  6
CONTINUOUS
  0
LAYER
  2
GREEN3
  70
0
  62
91
  6
CONTINUOUS
  0
LAYER
  2
CYAN3
  70
0
  62
131
  6
CONTINUOUS
  0
LAYER
  2
RED3
  70
0
  62
11
  6
CONTINUOUS
  0
LAYER
  2
MAGENTA3
  70
0
  62
221
  6
CONTINUOUS
  0
LAYER
  2
YELLOW3
  70
0
  62
2
  6
CONTINUOUS
  0
LAYER
  2
BLUE4
  70
0
  62
5
  6
CONTINUOUS
  0
LAYER
  2
GREEN4
  70
0
  62
3
  6
CONTINUOUS
  0
LAYER
  2
CYAN4
  70
0
  62
4
  6
CONTINUOUS
  0
LAYER
  2
RED4
  70
0
  62
1
  6
CONTINUOUS
  0
LAYER
  2
MAGENTA4
  70
0
  62
6
  6
CONTINUOUS
  0
LAYER
  2
YELLOW4
  70
0
  62
2
  6
CONTINUOUS
  0
ENDTAB
  0
ENDSEC
  0
SECTION
  2
ENTITIES
0
LINE
8
Black
10
185.013
20
-123.159
11
185.019
21
-123.16
0
LINE
8
Black
10
185.019
20
-123.16
11
185.025
21
-123.163
0
LINE
8
Black
10
185.025
20
-123.163
11
185.032
21
-123.164
0
LINE
8
Black
10
185.032
20
-123.164
11
185.037
21
-123.168
0
LINE
8
Black
10
185.037
20
-123.168
11
185.043
21
-123.171
0
LINE
8
Black
10
185.043
20
-123.171
11
185.048
21
-123.175
0
LINE
8
Black
10
185.048
20
-123.175
11
185.053
21
-123.179
0
LINE
8
Black
10
185.053
20
-123.179
11
186.821
21
-124.947
0
LINE
8
Black
10
186.821
20
-124.947
11
186.825
21
-124.952
0
LINE
8
Black
10
186.825
20
-124.952
11
186.829
21
-124.957
0
LINE
8
Black
10
186.829
20
-124.957
11
186.832
21
-124.963
0
LINE
8
Black
10
186.832
20
-124.963
11
186.836
21
-124.968
0
LINE
8
Black
10
186.836
20
-124.968
11
186.837
21
-124.975
0
LINE
8
Black
10
186.837
20
-124.975
11
186.84
21
-124.981
0
LINE
8
Black
10
186.84
20
-124.981
11
186.841
21
-124.987
0
LINE
8
Black
10
186.841
20
-124.987
11
186.842
21
-124.993
0
LINE
8
Black
10
186.842
20
-124.993
11
186.842
21
-125
0
LINE
8
Black
10
186.842
20
-125
11
186.842
21
-125.007
0
LINE
8
Black
10
186.842
20
-125.007
11
186.841
21
-125.013
0
LINE
8
Black
10
186.841
20
-125.013
11
186.84
21
-125.019
0
LINE
8
Black
10
186.84
20
-125.019
11
186.837
21
-125.025
0
LINE
8
Black
10
186.837
20
-125.025
11
186.836
21
-125.032
0
LINE
8
Black
10
186.836
20
-125.032
11
186.832
21
-125.037
0
LINE
8
Black
10
186.832
20
-125.037
11
186.829
21
-125.043
0
LINE
8
Black
10
186.829
20
-125.043
11
186.825
21
-125.048
0
LINE
8
Black
10
186.825
20
-125.048
11
186.821
21
-125.053
0
LINE
8
Black
10
186.821
20
-125.053
11
185.053
21
-126.821
0
LINE
8
Black
10
185.053
20
-126.821
11
185.048
21
-126.825
0
LINE
8
Black
10
185.048
20
-126.825
11
185.043
21
-126.829
0
LINE
8
Black
10
185.043
20
-126.829
11
185.037
21
-126.832
0
LINE
8
Black
10
185.037
20
-126.832
11
185.032
21
-126.836
0
LINE
8
Black
10
185.032
20
-126.836
11
185.025
21
-126.837
0
LINE
8
Black
10
185.025
20
-126.837
11
185.019
21
-126.84
0
LINE
8
Black
10
185.019
20
-126.84
11
185.013
21
-126.841
0
LINE
8
Black
10
185.013
20
-126.841
11
185.007
21
-126.842
0
LINE
8
Black
10
185.007
20
-126.842
11
185
21
-126.842
0
LINE
8
Black
10
185
20
-126.842
11
184.993
21
-126.842
0
LINE
8
Black
10
184.993
20
-126.842
11
184.987
21
-126.841
0
LINE
8
Black
10
184.987
20
-126.841
11
184.981
21
-126.84
0
LINE
8
Black
10
184.981
20
-126.84
11
184.975
21
-126.837
0
LINE
8
Black
10
184.975
20
-126.837
11
184.968
21
-126.836
0
LINE
8
Black
10
184.968
20
-126.836
11
184.963
21
-126.832
0
LINE
8
Black
10
184.963
20
-126.832
11
184.957
21
-126.829
0
LINE
8
Black
10
184.957
20
-126.829
11
184.952
21
-126.825
0
LINE
8
Black
10
184.952
20
-126.825
11
184.947
21
-126.821
0
LINE
8
Black
10
184.947
20
-126.821
11
183.179
21
-125.053
0
LINE
8
Black
10
183.179
20
-125.053
11
183.175
21
-125.048
0
LINE
8
Black
10
183.175
20
-125.048
11
183.171
21
-125.043
0
LINE
8
Black
10
183.171
20
-125.043
11
183.168
21
-125.037
0
LINE
8
Black
10
183.168
20
-125.037
11
183.164
21
-125.032
0
LINE
8
Black
10
183.164
20
-125.032
11
183.163
21
-125.025
0
LINE
8
Black
10
183.163
20
-125.025
11
183.16
21
-125.019
0
LINE
8
Black
10
183.16
20
-125.019
11
183.159
21
-125.013
0
LINE
8
Black
10
183.159
20
-125.013
11
183.158
21
-125.007
0
LINE
8
Black
10
183.158
20
-125.007
11
183.158
21
-125
0
LINE
8
Black
10
183.158
20
-125
11
183.158
21
-124.993
0
LINE
8
Black
10
183.158
20
-124.993
11
183.159
21
-124.987
0
LINE
8
Black
10
183.159
20
-124.987
11
183.16
21
-124.981
0
LINE
8
Black
10
183.16
20
-124.981
11
183.163
21
-124.975
0
LINE
8
Black
10
183.163
20
-124.975
11
183.164
21
-124.968
0
LINE
8
Black
10
183.164
20
-124.968
11
183.168
21
-124.963
0
LINE
8
Black
10
183.168
20
-124.963
11
183.171
21
-124.957
0
LINE
8
Black
10
183.171
20
-124.957
11
183.175
21
-124.952
0
LINE
8
Black
10
183.175
20
-124.952
11
183.179
21
-124.947
0
LINE
8
Black
10
183.179
20
-124.947
11
184.947
21
-123.179
0
LINE
8
Black
10
184.947
20
-123.179
11
184.952
21
-123.175
0
LINE
8
Black
10
184.952
20
-123.175
11
184.957
21
-123.171
0
LINE
8
Black
10
184.957
20
-123.171
11
184.963
21
-123.168
0
LINE
8
Black
10
184.963
20
-123.168
11
184.968
21
-123.164
0
LINE
8
Black
10
184.968
20
-123.164
11
184.975
21
-123.163
0
LINE
8
Black
10
184.975
20
-123.163
11
184.981
21
-123.16
0
LINE
8
Black
10
184.981
20
-123.16
11
184.987
21
-123.159
0
LINE
8
Black
10
184.987
20
-123.159
11
184.993
21
-123.158
0
LINE
8
Black
10
184.993
20
-123.158
11
185
21
-123.158
0
LINE
8
Black
10
185
20
-123.158
11
185.007
21
-123.158
0
LINE
8
Black
10
185.007
20
-123.158
11
185.013
21
-123.159
0
LINE
8
Black
10
183.338
20
-125
11
185
21
-126.662
0
LINE
8
Black
10
185
20
-126.662
11
186.662
21
-125
0
LINE
8
Black
10
186.662
20
-125
11
185
21
-123.338
0
LINE
8
Black
10
185
20
-123.338
11
183.338
21
-125
0
LINE
8
Black
10
184.471
20
-126.717
11
184.434
21
-126.748
0
LINE
8
Black
10
184.434
20
-126.748
11
184.388
21
-126.765
0
LINE
8
Black
10
184.388
20
-126.765
11
184.339
21
-126.765
0
LINE
8
Black
10
184.339
20
-126.765
11
184.293
21
-126.748
0
LINE
8
Black
10
184.293
20
-126.748
11
184.256
21
-126.717
0
LINE
8
Black
10
184.256
20
-126.717
11
184.231
21
-126.674
0
LINE
8
Black
10
184.231
20
-126.674
11
184.223
21
-126.626
0
LINE
8
Black
10
184.223
20
-126.626
11
184.231
21
-126.578
0
LINE
8
Black
10
184.231
20
-126.578
11
184.256
21
-126.536
0
LINE
8
Black
10
184.256
20
-126.536
11
184.293
21
-126.504
0
LINE
8
Black
10
184.293
20
-126.504
11
184.339
21
-126.488
0
LINE
8
Black
10
184.339
20
-126.488
11
184.388
21
-126.488
0
LINE
8
Black
10
184.388
20
-126.488
11
184.434
21
-126.504
0
LINE
8
Black
10
184.434
20
-126.504
11
184.471
21
-126.536
0
LINE
8
Black
10
184.471
20
-126.536
11
184.496
21
-126.578
0
LINE
8
Black
10
184.496
20
-126.578
11
184.504
21
-126.626
0
LINE
8
Black
10
184.504
20
-126.626
11
184.496
21
-126.674
0
LINE
8
Black
10
184.496
20
-126.674
11
184.471
21
-126.717
0
LINE
8
Black
10
184.364
20
-126.626
11
184.364
21
-126.626
0
LINE
8
Black
10
184.364
20
-126.626
11
184.364
21
-126.626
0
LINE
8
Black
10
184.364
20
-126.626
11
184.363
21
-126.626
0
LINE
8
Black
10
184.363
20
-126.626
11
184.363
21
-126.626
0
LINE
8
Black
10
184.363
20
-126.626
11
184.363
21
-126.626
0
LINE
8
Black
10
184.363
20
-126.626
11
184.363
21
-126.626
0
LINE
8
Black
10
184.363
20
-126.626
11
184.363
21
-126.626
0
LINE
8
Black
10
184.363
20
-126.626
11
184.363
21
-126.627
0
LINE
8
Black
10
184.363
20
-126.627
11
184.363
21
-126.627
0
LINE
8
Black
10
184.363
20
-126.627
11
184.363
21
-126.627
0
LINE
8
Black
10
184.363
20
-126.627
11
184.363
21
-126.627
0
LINE
8
Black
10
184.363
20
-126.627
11
184.364
21
-126.627
0
LINE
8
Black
10
184.364
20
-126.627
11
184.364
21
-126.627
0
LINE
8
Black
10
184.364
20
-126.627
11
184.364
21
-126.627
0
LINE
8
Black
10
184.364
20
-126.627
11
184.364
21
-126.627
0
LINE
8
Black
10
184.364
20
-126.627
11
184.364
21
-126.626
0
LINE
8
Black
10
184.364
20
-126.626
11
184.364
21
-126.626
0
LINE
8
Black
10
184.364
20
-126.626
11
184.364
21
-126.626
0
LINE
8
Black
10
185.541
20
-117.83
11
185.565
21
-117.841
0
LINE
8
Black
10
185.565
20
-117.841
11
185.583
21
-117.859
0
LINE
8
Black
10
185.583
20
-117.859
11
185.594
21
-117.883
0
LINE
8
Black
10
185.594
20
-117.883
11
185.596
21
-117.909
0
LINE
8
Black
10
185.596
20
-117.909
11
185.59
21
-117.934
0
LINE
8
Black
10
185.59
20
-117.934
11
185.575
21
-117.955
0
LINE
8
Black
10
185.575
20
-117.955
11
185.221
21
-118.309
0
LINE
8
Black
10
185.221
20
-118.309
11
185.216
21
-118.312
0
LINE
8
Black
10
185.216
20
-118.312
11
185.211
21
-118.317
0
LINE
8
Black
10
185.211
20
-118.317
11
185.205
21
-118.32
0
LINE
8
Black
10
185.205
20
-118.32
11
185.2
21
-118.324
0
LINE
8
Black
10
185.2
20
-118.324
11
185.193
21
-118.325
0
LINE
8
Black
10
185.193
20
-118.325
11
185.187
21
-118.328
0
LINE
8
Black
10
185.187
20
-118.328
11
185.181
21
-118.329
0
LINE
8
Black
10
185.181
20
-118.329
11
185.175
21
-118.33
0
LINE
8
Black
10
185.175
20
-118.33
11
185.168
21
-118.33
0
LINE
8
Black
10
185.168
20
-118.33
11
185.162
21
-118.33
0
LINE
8
Black
10
185.162
20
-118.33
11
185.155
21
-118.329
0
LINE
8
Black
10
185.155
20
-118.329
11
185.149
21
-118.328
0
LINE
8
Black
10
185.149
20
-118.328
11
185.143
21
-118.325
0
LINE
8
Black
10
185.143
20
-118.325
11
185.136
21
-118.324
0
LINE
8
Black
10
185.136
20
-118.324
11
185.131
21
-118.32
0
LINE
8
Black
10
185.131
20
-118.32
11
185.125
21
-118.317
0
LINE
8
Black
10
185.125
20
-118.317
11
185.12
21
-118.312
0
LINE
8
Black
10
185.12
20
-118.312
11
185.115
21
-118.309
0
LINE
8
Black
10
185.115
20
-118.309
11
184.761
21
-117.955
0
LINE
8
Black
10
184.761
20
-117.955
11
184.747
21
-117.934
0
LINE
8
Black
10
184.747
20
-117.934
11
184.74
21
-117.909
0
LINE
8
Black
10
184.74
20
-117.909
11
184.742
21
-117.883
0
LINE
8
Black
10
184.742
20
-117.883
11
184.753
21
-117.859
0
LINE
8
Black
10
184.753
20
-117.859
11
184.771
21
-117.841
0
LINE
8
Black
10
184.771
20
-117.841
11
184.795
21
-117.83
0
LINE
8
Black
10
184.795
20
-117.83
11
184.821
21
-117.827
0
LINE
8
Black
10
184.821
20
-117.827
11
184.846
21
-117.834
0
LINE
8
Black
10
184.846
20
-117.834
11
184.868
21
-117.849
0
LINE
8
Black
10
184.868
20
-117.849
11
185.168
21
-118.15
0
LINE
8
Black
10
185.168
20
-118.15
11
185.469
21
-117.849
0
LINE
8
Black
10
185.469
20
-117.849
11
185.49
21
-117.834
0
LINE
8
Black
10
185.49
20
-117.834
11
185.515
21
-117.827
0
LINE
8
Black
10
185.515
20
-117.827
11
185.541
21
-117.83
0
LINE
8
Black
10
184.827
20
-114.647
11
184.834
21
-114.648
0
LINE
8
Black
10
184.834
20
-114.648
11
184.84
21
-114.65
0
LINE
8
Black
10
184.84
20
-114.65
11
184.846
21
-114.652
0
LINE
8
Black
10
184.846
20
-114.652
11
184.852
21
-114.656
0
LINE
8
Black
10
184.852
20
-114.656
11
184.858
21
-114.659
0
LINE
8
Black
10
184.858
20
-114.659
11
184.862
21
-114.663
0
LINE
8
Black
10
184.862
20
-114.663
11
184.868
21
-114.667
0
LINE
8
Black
10
184.868
20
-114.667
11
186.635
21
-116.435
0
LINE
8
Black
10
186.635
20
-116.435
11
186.639
21
-116.44
0
LINE
8
Black
10
186.639
20
-116.44
11
186.644
21
-116.445
0
LINE
8
Black
10
186.644
20
-116.445
11
186.646
21
-116.451
0
LINE
8
Black
10
186.646
20
-116.451
11
186.65
21
-116.456
0
LINE
8
Black
10
186.65
20
-116.456
11
186.652
21
-116.462
0
LINE
8
Black
10
186.652
20
-116.462
11
186.655
21
-116.468
0
LINE
8
Black
10
186.655
20
-116.468
11
186.655
21
-116.475
0
LINE
8
Black
10
186.655
20
-116.475
11
186.657
21
-116.481
0
LINE
8
Black
10
186.657
20
-116.481
11
186.656
21
-116.488
0
LINE
8
Black
10
186.656
20
-116.488
11
186.657
21
-116.494
0
LINE
8
Black
10
186.657
20
-116.494
11
186.655
21
-116.501
0
LINE
8
Black
10
186.655
20
-116.501
11
186.655
21
-116.507
0
LINE
8
Black
10
186.655
20
-116.507
11
186.652
21
-116.513
0
LINE
8
Black
10
186.652
20
-116.513
11
186.65
21
-116.519
0
LINE
8
Black
10
186.65
20
-116.519
11
186.646
21
-116.525
0
LINE
8
Black
10
186.646
20
-116.525
11
186.644
21
-116.531
0
LINE
8
Black
10
186.644
20
-116.531
11
186.639
21
-116.535
0
LINE
8
Black
10
186.639
20
-116.535
11
186.635
21
-116.541
0
LINE
8
Black
10
186.635
20
-116.541
11
185.221
21
-117.955
0
LINE
8
Black
10
185.221
20
-117.955
11
185.216
21
-117.959
0
LINE
8
Black
10
185.216
20
-117.959
11
185.211
21
-117.963
0
LINE
8
Black
10
185.211
20
-117.963
11
185.205
21
-117.966
0
LINE
8
Black
10
185.205
20
-117.966
11
185.2
21
-117.97
0
LINE
8
Black
10
185.2
20
-117.97
11
185.193
21
-117.972
0
LINE
8
Black
10
185.193
20
-117.972
11
185.187
21
-117.974
0
LINE
8
Black
10
185.187
20
-117.974
11
185.181
21
-117.975
0
LINE
8
Black
10
185.181
20
-117.975
11
185.175
21
-117.977
0
LINE
8
Black
10
185.175
20
-117.977
11
185.168
21
-117.976
0
LINE
8
Black
10
185.168
20
-117.976
11
185.162
21
-117.977
0
LINE
8
Black
10
185.162
20
-117.977
11
185.155
21
-117.975
0
LINE
8
Black
10
185.155
20
-117.975
11
185.149
21
-117.974
0
LINE
8
Black
10
185.149
20
-117.974
11
185.143
21
-117.972
0
LINE
8
Black
10
185.143
20
-117.972
11
185.136
21
-117.97
0
LINE
8
Black
10
185.136
20
-117.97
11
185.131
21
-117.966
0
LINE
8
Black
10
185.131
20
-117.966
11
185.125
21
-117.963
0
LINE
8
Black
10
185.125
20
-117.963
11
185.12
21
-117.959
0
LINE
8
Black
10
185.12
20
-117.959
11
185.115
21
-117.955
0
LINE
8
Black
10
185.115
20
-117.955
11
183.347
21
-116.187
0
LINE
8
Black
10
183.347
20
-116.187
11
183.343
21
-116.182
0
LINE
8
Black
10
183.343
20
-116.182
11
183.339
21
-116.177
0
LINE
8
Black
10
183.339
20
-116.177
11
183.336
21
-116.171
0
LINE
8
Black
10
183.336
20
-116.171
11
183.332
21
-116.166
0
LINE
8
Black
10
183.332
20
-116.166
11
183.331
21
-116.16
0
LINE
8
Black
10
183.331
20
-116.16
11
183.328
21
-116.154
0
LINE
8
Black
10
183.328
20
-116.154
11
183.327
21
-116.147
0
LINE
8
Black
10
183.327
20
-116.147
11
183.326
21
-116.141
0
LINE
8
Black
10
183.326
20
-116.141
11
183.326
21
-116.134
0
LINE
8
Black
10
183.326
20
-116.134
11
183.326
21
-116.128
0
LINE
8
Black
10
183.326
20
-116.128
11
183.327
21
-116.121
0
LINE
8
Black
10
183.327
20
-116.121
11
183.328
21
-116.115
0
LINE
8
Black
10
183.328
20
-116.115
11
183.331
21
-116.109
0
LINE
8
Black
10
183.331
20
-116.109
11
183.332
21
-116.103
0
LINE
8
Black
10
183.332
20
-116.103
11
183.336
21
-116.097
0
LINE
8
Black
10
183.336
20
-116.097
11
183.339
21
-116.091
0
LINE
8
Black
10
183.339
20
-116.091
11
183.343
21
-116.087
0
LINE
8
Black
10
183.343
20
-116.087
11
183.347
21
-116.081
0
LINE
8
Black
10
183.347
20
-116.081
11
184.761
21
-114.667
0
LINE
8
Black
10
184.761
20
-114.667
11
184.767
21
-114.663
0
LINE
8
Black
10
184.767
20
-114.663
11
184.771
21
-114.659
0
LINE
8
Black
10
184.771
20
-114.659
11
184.777
21
-114.656
0
LINE
8
Black
10
184.777
20
-114.656
11
184.783
21
-114.652
0
LINE
8
Black
10
184.783
20
-114.652
11
184.789
21
-114.65
0
LINE
8
Black
10
184.789
20
-114.65
11
184.795
21
-114.648
0
LINE
8
Black
10
184.795
20
-114.648
11
184.802
21
-114.647
0
LINE
8
Black
10
184.802
20
-114.647
11
184.808
21
-114.645
0
LINE
8
Black
10
184.808
20
-114.645
11
184.814
21
-114.646
0
LINE
8
Black
10
184.814
20
-114.646
11
184.821
21
-114.645
0
LINE
8
Black
10
184.821
20
-114.645
11
184.827
21
-114.647
0
LINE
8
Black
10
183.506
20
-116.134
11
185.168
21
-117.796
0
LINE
8
Black
10
185.168
20
-117.796
11
186.476
21
-116.488
0
LINE
8
Black
10
186.476
20
-116.488
11
184.814
21
-114.826
0
LINE
8
Black
10
184.814
20
-114.826
11
183.506
21
-116.134
0
LINE
8
Black
10
183.459
20
-114.986
11
183.465
21
-114.987
0
LINE
8
Black
10
183.465
20
-114.987
11
183.471
21
-114.987
0
LINE
8
Black
10
183.471
20
-114.987
11
183.556
21
-115.004
0
LINE
8
Black
10
183.556
20
-115.004
11
183.565
21
-115.008
0
LINE
8
Black
10
183.565
20
-115.008
11
183.576
21
-115.012
0
LINE
8
Black
10
183.576
20
-115.012
11
183.66
21
-115.062
0
LINE
8
Black
10
183.66
20
-115.062
11
183.665
21
-115.067
0
LINE
8
Black
10
183.665
20
-115.067
11
183.672
21
-115.071
0
LINE
8
Black
10
183.672
20
-115.071
11
183.806
21
-115.206
0
LINE
8
Black
10
183.806
20
-115.206
11
183.809
21
-115.209
0
LINE
8
Black
10
183.809
20
-115.209
11
183.811
21
-115.212
0
LINE
8
Black
10
183.811
20
-115.212
11
183.815
21
-115.218
0
LINE
8
Black
10
183.815
20
-115.218
11
183.819
21
-115.224
0
LINE
8
Black
10
183.819
20
-115.224
11
183.82
21
-115.227
0
LINE
8
Black
10
183.82
20
-115.227
11
183.822
21
-115.231
0
LINE
8
Black
10
183.822
20
-115.231
11
183.838
21
-115.281
0
LINE
8
Black
10
183.838
20
-115.281
11
183.84
21
-115.291
0
LINE
8
Black
10
183.84
20
-115.291
11
183.842
21
-115.301
0
LINE
8
Black
10
183.842
20
-115.301
11
183.842
21
-115.335
0
LINE
8
Black
10
183.842
20
-115.335
11
183.84
21
-115.344
0
LINE
8
Black
10
183.84
20
-115.344
11
183.838
21
-115.354
0
LINE
8
Black
10
183.838
20
-115.354
11
183.822
21
-115.405
0
LINE
8
Black
10
183.822
20
-115.405
11
183.82
21
-115.408
0
LINE
8
Black
10
183.82
20
-115.408
11
183.819
21
-115.411
0
LINE
8
Black
10
183.819
20
-115.411
11
183.815
21
-115.417
0
LINE
8
Black
10
183.815
20
-115.417
11
183.811
21
-115.424
0
LINE
8
Black
10
183.811
20
-115.424
11
183.809
21
-115.426
0
LINE
8
Black
10
183.809
20
-115.426
11
183.806
21
-115.429
0
LINE
8
Black
10
183.806
20
-115.429
11
183.739
21
-115.497
0
LINE
8
Black
10
183.739
20
-115.497
11
183.736
21
-115.499
0
LINE
8
Black
10
183.736
20
-115.499
11
183.734
21
-115.501
0
LINE
8
Black
10
183.734
20
-115.501
11
183.727
21
-115.505
0
LINE
8
Black
10
183.727
20
-115.505
11
183.721
21
-115.509
0
LINE
8
Black
10
183.721
20
-115.509
11
183.718
21
-115.51
0
LINE
8
Black
10
183.718
20
-115.51
11
183.715
21
-115.512
0
LINE
8
Black
10
183.715
20
-115.512
11
183.664
21
-115.529
0
LINE
8
Black
10
183.664
20
-115.529
11
183.654
21
-115.53
0
LINE
8
Black
10
183.654
20
-115.53
11
183.644
21
-115.532
0
LINE
8
Black
10
183.644
20
-115.532
11
183.611
21
-115.532
0
LINE
8
Black
10
183.611
20
-115.532
11
183.601
21
-115.53
0
LINE
8
Black
10
183.601
20
-115.53
11
183.591
21
-115.529
0
LINE
8
Black
10
183.591
20
-115.529
11
183.54
21
-115.512
0
LINE
8
Black
10
183.54
20
-115.512
11
183.537
21
-115.51
0
LINE
8
Black
10
183.537
20
-115.51
11
183.534
21
-115.509
0
LINE
8
Black
10
183.534
20
-115.509
11
183.528
21
-115.505
0
LINE
8
Black
10
183.528
20
-115.505
11
183.521
21
-115.501
0
LINE
8
Black
10
183.521
20
-115.501
11
183.519
21
-115.499
0
LINE
8
Black
10
183.519
20
-115.499
11
183.516
21
-115.497
0
LINE
8
Black
10
183.516
20
-115.497
11
183.432
21
-115.412
0
LINE
8
Black
10
183.432
20
-115.412
11
183.43
21
-115.409
0
LINE
8
Black
10
183.43
20
-115.409
11
183.427
21
-115.407
0
LINE
8
Black
10
183.427
20
-115.407
11
183.424
21
-115.401
0
LINE
8
Black
10
183.424
20
-115.401
11
183.419
21
-115.395
0
LINE
8
Black
10
183.419
20
-115.395
11
183.418
21
-115.391
0
LINE
8
Black
10
183.418
20
-115.391
11
183.417
21
-115.388
0
LINE
8
Black
10
183.417
20
-115.388
11
183.4
21
-115.337
0
LINE
8
Black
10
183.4
20
-115.337
11
183.398
21
-115.328
0
LINE
8
Black
10
183.398
20
-115.328
11
183.397
21
-115.318
0
LINE
8
Black
10
183.397
20
-115.318
11
183.397
21
-115.284
0
LINE
8
Black
10
183.397
20
-115.284
11
183.398
21
-115.274
0
LINE
8
Black
10
183.398
20
-115.274
11
183.4
21
-115.264
0
LINE
8
Black
10
183.4
20
-115.264
11
183.417
21
-115.214
0
LINE
8
Black
10
183.417
20
-115.214
11
183.418
21
-115.211
0
LINE
8
Black
10
183.418
20
-115.211
11
183.419
21
-115.207
0
LINE
8
Black
10
183.419
20
-115.207
11
183.424
21
-115.201
0
LINE
8
Black
10
183.424
20
-115.201
11
183.427
21
-115.195
0
LINE
8
Black
10
183.427
20
-115.195
11
183.43
21
-115.192
0
LINE
8
Black
10
183.43
20
-115.192
11
183.432
21
-115.189
0
LINE
8
Black
10
183.432
20
-115.189
11
183.499
21
-115.122
0
LINE
8
Black
10
183.499
20
-115.122
11
183.501
21
-115.12
0
LINE
8
Black
10
183.501
20
-115.12
11
183.453
21
-115.111
0
LINE
8
Black
10
183.453
20
-115.111
11
183.436
21
-115.111
0
LINE
8
Black
10
183.436
20
-115.111
11
183.409
21
-115.12
0
LINE
8
Black
10
183.409
20
-115.12
11
183.352
21
-115.177
0
LINE
8
Black
10
183.352
20
-115.177
11
183.334
21
-115.189
0
LINE
8
Black
10
183.334
20
-115.189
11
183.313
21
-115.195
0
LINE
8
Black
10
183.313
20
-115.195
11
183.292
21
-115.193
0
LINE
8
Black
10
183.292
20
-115.193
11
183.272
21
-115.184
0
LINE
8
Black
10
183.272
20
-115.184
11
183.256
21
-115.168
0
LINE
8
Black
10
183.256
20
-115.168
11
183.247
21
-115.149
0
LINE
8
Black
10
183.247
20
-115.149
11
183.245
21
-115.127
0
LINE
8
Black
10
183.245
20
-115.127
11
183.251
21
-115.106
0
LINE
8
Black
10
183.251
20
-115.106
11
183.263
21
-115.088
0
LINE
8
Black
10
183.263
20
-115.088
11
183.331
21
-115.021
0
LINE
8
Black
10
183.331
20
-115.021
11
183.334
21
-115.019
0
LINE
8
Black
10
183.334
20
-115.019
11
183.336
21
-115.016
0
LINE
8
Black
10
183.336
20
-115.016
11
183.343
21
-115.013
0
LINE
8
Black
10
183.343
20
-115.013
11
183.349
21
-115.009
0
LINE
8
Black
10
183.349
20
-115.009
11
183.352
21
-115.008
0
LINE
8
Black
10
183.352
20
-115.008
11
183.355
21
-115.006
0
LINE
8
Black
10
183.355
20
-115.006
11
183.406
21
-114.989
0
LINE
8
Black
10
183.406
20
-114.989
11
183.416
21
-114.988
0
LINE
8
Black
10
183.416
20
-114.988
11
183.426
21
-114.986
0
LINE
8
Black
10
183.426
20
-114.986
11
183.459
21
-114.986
0
LINE
8
Black
10
183.604
20
-115.212
11
183.577
21
-115.221
0
LINE
8
Black
10
183.577
20
-115.221
11
183.531
21
-115.267
0
LINE
8
Black
10
183.531
20
-115.267
11
183.522
21
-115.294
0
LINE
8
Black
10
183.522
20
-115.294
11
183.522
21
-115.308
0
LINE
8
Black
10
183.522
20
-115.308
11
183.531
21
-115.334
0
LINE
8
Black
10
183.531
20
-115.334
11
183.594
21
-115.398
0
LINE
8
Black
10
183.594
20
-115.398
11
183.621
21
-115.407
0
LINE
8
Black
10
183.621
20
-115.407
11
183.634
21
-115.407
0
LINE
8
Black
10
183.634
20
-115.407
11
183.661
21
-115.398
0
LINE
8
Black
10
183.661
20
-115.398
11
183.708
21
-115.351
0
LINE
8
Black
10
183.708
20
-115.351
11
183.717
21
-115.324
0
LINE
8
Black
10
183.717
20
-115.324
11
183.717
21
-115.311
0
LINE
8
Black
10
183.717
20
-115.311
11
183.708
21
-115.284
0
LINE
8
Black
10
183.708
20
-115.284
11
183.644
21
-115.221
0
LINE
8
Black
10
183.644
20
-115.221
11
183.617
21
-115.212
0
LINE
8
Black
10
183.617
20
-115.212
11
183.604
21
-115.212
0
LINE
8
Black
10
147.154
20
-110.806
11
147.161
21
-110.806
0
LINE
8
Black
10
147.161
20
-110.806
11
147.167
21
-110.809
0
LINE
8
Black
10
147.167
20
-110.809
11
147.173
21
-110.811
0
LINE
8
Black
10
147.173
20
-110.811
11
147.178
21
-110.814
0
LINE
8
Black
10
147.178
20
-110.814
11
147.184
21
-110.817
0
LINE
8
Black
10
147.184
20
-110.817
11
147.189
21
-110.822
0
LINE
8
Black
10
147.189
20
-110.822
11
147.194
21
-110.826
0
LINE
8
Black
10
147.194
20
-110.826
11
149.174
21
-112.806
0
LINE
8
Black
10
149.174
20
-112.806
11
149.178
21
-112.811
0
LINE
8
Black
10
149.178
20
-112.811
11
149.183
21
-112.816
0
LINE
8
Black
10
149.183
20
-112.816
11
149.186
21
-112.822
0
LINE
8
Black
10
149.186
20
-112.822
11
149.189
21
-112.827
0
LINE
8
Black
10
149.189
20
-112.827
11
149.191
21
-112.833
0
LINE
8
Black
10
149.191
20
-112.833
11
149.194
21
-112.839
0
LINE
8
Black
10
149.194
20
-112.839
11
149.194
21
-112.846
0
LINE
8
Black
10
149.194
20
-112.846
11
149.196
21
-112.852
0
LINE
8
Black
10
149.196
20
-112.852
11
149.195
21
-112.859
0
LINE
8
Black
10
149.195
20
-112.859
11
149.196
21
-112.865
0
LINE
8
Black
10
149.196
20
-112.865
11
149.194
21
-112.871
0
LINE
8
Black
10
149.194
20
-112.871
11
149.194
21
-112.878
0
LINE
8
Black
10
149.194
20
-112.878
11
149.191
21
-112.884
0
LINE
8
Black
10
149.191
20
-112.884
11
149.189
21
-112.89
0
LINE
8
Black
10
149.189
20
-112.89
11
149.186
21
-112.896
0
LINE
8
Black
10
149.186
20
-112.896
11
149.183
21
-112.902
0
LINE
8
Black
10
149.183
20
-112.902
11
149.178
21
-112.906
0
LINE
8
Black
10
149.178
20
-112.906
11
149.174
21
-112.912
0
LINE
8
Black
10
149.174
20
-112.912
11
146.912
21
-115.174
0
LINE
8
Black
10
146.912
20
-115.174
11
146.906
21
-115.178
0
LINE
8
Black
10
146.906
20
-115.178
11
146.902
21
-115.183
0
LINE
8
Black
10
146.902
20
-115.183
11
146.896
21
-115.186
0
LINE
8
Black
10
146.896
20
-115.186
11
146.89
21
-115.189
0
LINE
8
Black
10
146.89
20
-115.189
11
146.884
21
-115.191
0
LINE
8
Black
10
146.884
20
-115.191
11
146.878
21
-115.194
0
LINE
8
Black
10
146.878
20
-115.194
11
146.871
21
-115.194
0
LINE
8
Black
10
146.871
20
-115.194
11
146.865
21
-115.196
0
LINE
8
Black
10
146.865
20
-115.196
11
146.859
21
-115.195
0
LINE
8
Black
10
146.859
20
-115.195
11
146.852
21
-115.196
0
LINE
8
Black
10
146.852
20
-115.196
11
146.846
21
-115.194
0
LINE
8
Black
10
146.846
20
-115.194
11
146.839
21
-115.194
0
LINE
8
Black
10
146.839
20
-115.194
11
146.833
21
-115.191
0
LINE
8
Black
10
146.833
20
-115.191
11
146.827
21
-115.189
0
LINE
8
Black
10
146.827
20
-115.189
11
146.822
21
-115.186
0
LINE
8
Black
10
146.822
20
-115.186
11
146.816
21
-115.183
0
LINE
8
Black
10
146.816
20
-115.183
11
146.811
21
-115.178
0
LINE
8
Black
10
146.811
20
-115.178
11
146.806
21
-115.174
0
LINE
8
Black
10
146.806
20
-115.174
11
144.826
21
-113.194
0
LINE
8
Black
10
144.826
20
-113.194
11
144.822
21
-113.189
0
LINE
8
Black
10
144.822
20
-113.189
11
144.817
21
-113.184
0
LINE
8
Black
10
144.817
20
-113.184
11
144.814
21
-113.178
0
LINE
8
Black
10
144.814
20
-113.178
11
144.811
21
-113.173
0
LINE
8
Black
10
144.811
20
-113.173
11
144.809
21
-113.167
0
LINE
8
Black
10
144.809
20
-113.167
11
144.806
21
-113.161
0
LINE
8
Black
10
144.806
20
-113.161
11
144.806
21
-113.154
0
LINE
8
Black
10
144.806
20
-113.154
11
144.804
21
-113.148
0
LINE
8
Black
10
144.804
20
-113.148
11
144.805
21
-113.141
0
LINE
8
Black
10
144.805
20
-113.141
11
144.804
21
-113.135
0
LINE
8
Black
10
144.804
20
-113.135
11
144.806
21
-113.129
0
LINE
8
Black
10
144.806
20
-113.129
11
144.806
21
-113.122
0
LINE
8
Black
10
144.806
20
-113.122
11
144.809
21
-113.116
0
LINE
8
Black
10
144.809
20
-113.116
11
144.811
21
-113.11
0
LINE
8
Black
10
144.811
20
-113.11
11
144.814
21
-113.104
0
LINE
8
Black
10
144.814
20
-113.104
11
144.817
21
-113.098
0
LINE
8
Black
10
144.817
20
-113.098
11
144.822
21
-113.094
0
LINE
8
Black
10
144.822
20
-113.094
11
144.826
21
-113.088
0
LINE
8
Black
10
144.826
20
-113.088
11
147.088
21
-110.826
0
LINE
8
Black
10
147.088
20
-110.826
11
147.094
21
-110.822
0
LINE
8
Black
10
147.094
20
-110.822
11
147.098
21
-110.817
0
LINE
8
Black
10
147.098
20
-110.817
11
147.104
21
-110.814
0
LINE
8
Black
10
147.104
20
-110.814
11
147.11
21
-110.811
0
LINE
8
Black
10
147.11
20
-110.811
11
147.116
21
-110.809
0
LINE
8
Black
10
147.116
20
-110.809
11
147.122
21
-110.806
0
LINE
8
Black
10
147.122
20
-110.806
11
147.129
21
-110.806
0
LINE
8
Black
10
147.129
20
-110.806
11
147.135
21
-110.804
0
LINE
8
Black
10
147.135
20
-110.804
11
147.141
21
-110.805
0
LINE
8
Black
10
147.141
20
-110.805
11
147.148
21
-110.804
0
LINE
8
Black
10
147.148
20
-110.804
11
147.154
21
-110.806
0
LINE
8
Black
10
144.985
20
-113.141
11
146.859
21
-115.015
0
LINE
8
Black
10
146.859
20
-115.015
11
149.015
21
-112.859
0
LINE
8
Black
10
149.015
20
-112.859
11
147.141
21
-110.985
0
LINE
8
Black
10
147.141
20
-110.985
11
144.985
21
-113.141
0
LINE
8
Black
10
147.608
20
-113.51
11
147.397
21
-113.687
0
LINE
8
Black
10
147.397
20
-113.687
11
147.138
21
-113.781
0
LINE
8
Black
10
147.138
20
-113.781
11
146.862
21
-113.781
0
LINE
8
Black
10
146.862
20
-113.781
11
146.603
21
-113.687
0
LINE
8
Black
10
146.603
20
-113.687
11
146.392
21
-113.51
0
LINE
8
Black
10
146.392
20
-113.51
11
146.254
21
-113.271
0
LINE
8
Black
10
146.254
20
-113.271
11
146.207
21
-113
0
LINE
8
Black
10
146.207
20
-113
11
146.254
21
-112.729
0
LINE
8
Black
10
146.254
20
-112.729
11
146.392
21
-112.49
0
LINE
8
Black
10
146.392
20
-112.49
11
146.603
21
-112.313
0
LINE
8
Black
10
146.603
20
-112.313
11
146.862
21
-112.219
0
LINE
8
Black
10
146.862
20
-112.219
11
147.138
21
-112.219
0
LINE
8
Black
10
147.138
20
-112.219
11
147.397
21
-112.313
0
LINE
8
Black
10
147.397
20
-112.313
11
147.608
21
-112.49
0
LINE
8
Black
10
147.608
20
-112.49
11
147.746
21
-112.729
0
LINE
8
Black
10
147.746
20
-112.729
11
147.793
21
-113
0
LINE
8
Black
10
147.793
20
-113
11
147.746
21
-113.271
0
LINE
8
Black
10
147.746
20
-113.271
11
147.608
21
-113.51
0
LINE
8
Black
10
147.493
20
-112.586
11
147.322
21
-112.443
0
LINE
8
Black
10
147.322
20
-112.443
11
147.112
21
-112.366
0
LINE
8
Black
10
147.112
20
-112.366
11
146.888
21
-112.366
0
LINE
8
Black
10
146.888
20
-112.366
11
146.678
21
-112.443
0
LINE
8
Black
10
146.678
20
-112.443
11
146.507
21
-112.586
0
LINE
8
Black
10
146.507
20
-112.586
11
146.395
21
-112.78
0
LINE
8
Black
10
146.395
20
-112.78
11
146.357
21
-113
0
LINE
8
Black
10
146.357
20
-113
11
146.395
21
-113.22
0
LINE
8
Black
10
146.395
20
-113.22
11
146.507
21
-113.414
0
LINE
8
Black
10
146.507
20
-113.414
11
146.678
21
-113.557
0
LINE
8
Black
10
146.678
20
-113.557
11
146.888
21
-113.634
0
LINE
8
Black
10
146.888
20
-113.634
11
147.112
21
-113.634
0
LINE
8
Black
10
147.112
20
-113.634
11
147.322
21
-113.557
0
LINE
8
Black
10
147.322
20
-113.557
11
147.493
21
-113.414
0
LINE
8
Black
10
147.493
20
-113.414
11
147.605
21
-113.22
0
LINE
8
Black
10
147.605
20
-113.22
11
147.643
21
-113
0
LINE
8
Black
10
147.643
20
-113
11
147.605
21
-112.78
0
LINE
8
Black
10
147.605
20
-112.78
11
147.493
21
-112.586
0
LINE
8
Black
10
183.856
20
-114.554
11
183.874
21
-114.566
0
LINE
8
Black
10
183.874
20
-114.566
11
184.16
21
-114.853
0
LINE
8
Black
10
184.16
20
-114.853
11
184.162
21
-114.856
0
LINE
8
Black
10
184.162
20
-114.856
11
184.165
21
-114.858
0
LINE
8
Black
10
184.165
20
-114.858
11
184.168
21
-114.864
0
LINE
8
Black
10
184.168
20
-114.864
11
184.172
21
-114.87
0
LINE
8
Black
10
184.172
20
-114.87
11
184.173
21
-114.874
0
LINE
8
Black
10
184.173
20
-114.874
11
184.175
21
-114.877
0
LINE
8
Black
10
184.175
20
-114.877
11
184.192
21
-114.928
0
LINE
8
Black
10
184.192
20
-114.928
11
184.193
21
-114.937
0
LINE
8
Black
10
184.193
20
-114.937
11
184.195
21
-114.947
0
LINE
8
Black
10
184.195
20
-114.947
11
184.195
21
-114.981
0
LINE
8
Black
10
184.195
20
-114.981
11
184.193
21
-114.991
0
LINE
8
Black
10
184.193
20
-114.991
11
184.192
21
-115.001
0
LINE
8
Black
10
184.192
20
-115.001
11
184.175
21
-115.051
0
LINE
8
Black
10
184.175
20
-115.051
11
184.173
21
-115.054
0
LINE
8
Black
10
184.173
20
-115.054
11
184.172
21
-115.058
0
LINE
8
Black
10
184.172
20
-115.058
11
184.168
21
-115.064
0
LINE
8
Black
10
184.168
20
-115.064
11
184.165
21
-115.07
0
LINE
8
Black
10
184.165
20
-115.07
11
184.162
21
-115.073
0
LINE
8
Black
10
184.162
20
-115.073
11
184.16
21
-115.076
0
LINE
8
Black
10
184.16
20
-115.076
11
184.093
21
-115.143
0
LINE
8
Black
10
184.093
20
-115.143
11
184.09
21
-115.145
0
LINE
8
Black
10
184.09
20
-115.145
11
184.087
21
-115.148
0
LINE
8
Black
10
184.087
20
-115.148
11
184.081
21
-115.151
0
LINE
8
Black
10
184.081
20
-115.151
11
184.075
21
-115.155
0
LINE
8
Black
10
184.075
20
-115.155
11
184.071
21
-115.156
0
LINE
8
Black
10
184.071
20
-115.156
11
184.068
21
-115.158
0
LINE
8
Black
10
184.068
20
-115.158
11
184.018
21
-115.175
0
LINE
8
Black
10
184.018
20
-115.175
11
184.008
21
-115.176
0
LINE
8
Black
10
184.008
20
-115.176
11
183.998
21
-115.178
0
LINE
8
Black
10
183.998
20
-115.178
11
183.964
21
-115.178
0
LINE
8
Black
10
183.964
20
-115.178
11
183.954
21
-115.176
0
LINE
8
Black
10
183.954
20
-115.176
11
183.945
21
-115.175
0
LINE
8
Black
10
183.945
20
-115.175
11
183.894
21
-115.158
0
LINE
8
Black
10
183.894
20
-115.158
11
183.891
21
-115.156
0
LINE
8
Black
10
183.891
20
-115.156
11
183.887
21
-115.155
0
LINE
8
Black
10
183.887
20
-115.155
11
183.881
21
-115.151
0
LINE
8
Black
10
183.881
20
-115.151
11
183.875
21
-115.148
0
LINE
8
Black
10
183.875
20
-115.148
11
183.873
21
-115.145
0
LINE
8
Black
10
183.873
20
-115.145
11
183.87
21
-115.143
0
LINE
8
Black
10
183.87
20
-115.143
11
183.583
21
-114.857
0
LINE
8
Black
10
183.583
20
-114.857
11
183.571
21
-114.839
0
LINE
8
Black
10
183.571
20
-114.839
11
183.565
21
-114.818
0
LINE
8
Black
10
183.565
20
-114.818
11
183.567
21
-114.796
0
LINE
8
Black
10
183.567
20
-114.796
11
183.576
21
-114.777
0
LINE
8
Black
10
183.576
20
-114.777
11
183.592
21
-114.761
0
LINE
8
Black
10
183.592
20
-114.761
11
183.611
21
-114.752
0
LINE
8
Black
10
183.611
20
-114.752
11
183.633
21
-114.75
0
LINE
8
Black
10
183.633
20
-114.75
11
183.654
21
-114.756
0
LINE
8
Black
10
183.654
20
-114.756
11
183.672
21
-114.768
0
LINE
8
Black
10
183.672
20
-114.768
11
183.948
21
-115.044
0
LINE
8
Black
10
183.948
20
-115.044
11
183.974
21
-115.053
0
LINE
8
Black
10
183.974
20
-115.053
11
183.988
21
-115.053
0
LINE
8
Black
10
183.988
20
-115.053
11
184.015
21
-115.044
0
LINE
8
Black
10
184.015
20
-115.044
11
184.061
21
-114.998
0
LINE
8
Black
10
184.061
20
-114.998
11
184.07
21
-114.971
0
LINE
8
Black
10
184.07
20
-114.971
11
184.07
21
-114.957
0
LINE
8
Black
10
184.07
20
-114.957
11
184.061
21
-114.931
0
LINE
8
Black
10
184.061
20
-114.931
11
183.785
21
-114.655
0
LINE
8
Black
10
183.785
20
-114.655
11
183.773
21
-114.637
0
LINE
8
Black
10
183.773
20
-114.637
11
183.767
21
-114.616
0
LINE
8
Black
10
183.767
20
-114.616
11
183.769
21
-114.594
0
LINE
8
Black
10
183.769
20
-114.594
11
183.778
21
-114.575
0
LINE
8
Black
10
183.778
20
-114.575
11
183.794
21
-114.559
0
LINE
8
Black
10
183.794
20
-114.559
11
183.813
21
-114.55
0
LINE
8
Black
10
183.813
20
-114.55
11
183.835
21
-114.548
0
LINE
8
Black
10
183.835
20
-114.548
11
183.856
21
-114.554
0
LINE
8
Black
10
149.211
20
-113.057
11
149.229
21
-113.068
0
LINE
8
Black
10
149.229
20
-113.068
11
149.243
21
-113.085
0
LINE
8
Black
10
149.243
20
-113.085
11
149.251
21
-113.105
0
LINE
8
Black
10
149.251
20
-113.105
11
149.251
21
-113.127
0
LINE
8
Black
10
149.251
20
-113.127
11
149.243
21
-113.147
0
LINE
8
Black
10
149.243
20
-113.147
11
149.229
21
-113.164
0
LINE
8
Black
10
149.229
20
-113.164
11
149.211
21
-113.175
0
LINE
8
Black
10
149.211
20
-113.175
11
149.189
21
-113.178
0
LINE
8
Black
10
149.189
20
-113.178
11
149.166
21
-113.178
0
LINE
8
Black
10
149.166
20
-113.178
11
149.139
21
-113.187
0
LINE
8
Black
10
149.139
20
-113.187
11
149.076
21
-113.251
0
LINE
8
Black
10
149.076
20
-113.251
11
149.067
21
-113.277
0
LINE
8
Black
10
149.067
20
-113.277
11
149.067
21
-113.291
0
LINE
8
Black
10
149.067
20
-113.291
11
149.076
21
-113.318
0
LINE
8
Black
10
149.076
20
-113.318
11
149.092
21
-113.334
0
LINE
8
Black
10
149.092
20
-113.334
11
149.137
21
-113.356
0
LINE
8
Black
10
149.137
20
-113.356
11
149.526
21
-113.356
0
LINE
8
Black
10
149.526
20
-113.356
11
149.534
21
-113.358
0
LINE
8
Black
10
149.534
20
-113.358
11
149.542
21
-113.358
0
LINE
8
Black
10
149.542
20
-113.358
11
149.545
21
-113.36
0
LINE
8
Black
10
149.545
20
-113.36
11
149.547
21
-113.36
0
LINE
8
Black
10
149.547
20
-113.36
11
149.554
21
-113.364
0
LINE
8
Black
10
149.554
20
-113.364
11
149.562
21
-113.368
0
LINE
8
Black
10
149.562
20
-113.368
11
149.564
21
-113.37
0
LINE
8
Black
10
149.564
20
-113.37
11
149.566
21
-113.371
0
LINE
8
Black
10
149.566
20
-113.371
11
149.571
21
-113.377
0
LINE
8
Black
10
149.571
20
-113.377
11
149.577
21
-113.383
0
LINE
8
Black
10
149.577
20
-113.383
11
149.578
21
-113.386
0
LINE
8
Black
10
149.578
20
-113.386
11
149.58
21
-113.388
0
LINE
8
Black
10
149.58
20
-113.388
11
149.583
21
-113.395
0
LINE
8
Black
10
149.583
20
-113.395
11
149.586
21
-113.403
0
LINE
8
Black
10
149.586
20
-113.403
11
149.587
21
-113.405
0
LINE
8
Black
10
149.587
20
-113.405
11
149.588
21
-113.408
0
LINE
8
Black
10
149.588
20
-113.408
11
149.588
21
-113.416
0
LINE
8
Black
10
149.588
20
-113.416
11
149.588
21
-113.424
0
LINE
8
Black
10
149.588
20
-113.424
11
149.588
21
-113.427
0
LINE
8
Black
10
149.588
20
-113.427
11
149.588
21
-113.43
0
LINE
8
Black
10
149.588
20
-113.43
11
149.585
21
-113.437
0
LINE
8
Black
10
149.585
20
-113.437
11
149.583
21
-113.445
0
LINE
8
Black
10
149.583
20
-113.445
11
149.581
21
-113.448
0
LINE
8
Black
10
149.581
20
-113.448
11
149.58
21
-113.45
0
LINE
8
Black
10
149.58
20
-113.45
11
149.575
21
-113.456
0
LINE
8
Black
10
149.575
20
-113.456
11
149.57
21
-113.463
0
LINE
8
Black
10
149.57
20
-113.463
11
149.351
21
-113.682
0
LINE
8
Black
10
149.351
20
-113.682
11
149.334
21
-113.694
0
LINE
8
Black
10
149.334
20
-113.694
11
149.313
21
-113.7
0
LINE
8
Black
10
149.313
20
-113.7
11
149.291
21
-113.698
0
LINE
8
Black
10
149.291
20
-113.698
11
149.271
21
-113.689
0
LINE
8
Black
10
149.271
20
-113.689
11
149.256
21
-113.674
0
LINE
8
Black
10
149.256
20
-113.674
11
149.247
21
-113.654
0
LINE
8
Black
10
149.247
20
-113.654
11
149.245
21
-113.632
0
LINE
8
Black
10
149.245
20
-113.632
11
149.251
21
-113.611
0
LINE
8
Black
10
149.251
20
-113.611
11
149.263
21
-113.594
0
LINE
8
Black
10
149.263
20
-113.594
11
149.375
21
-113.481
0
LINE
8
Black
10
149.375
20
-113.481
11
149.122
21
-113.481
0
LINE
8
Black
10
149.122
20
-113.481
11
149.118
21
-113.481
0
LINE
8
Black
10
149.118
20
-113.481
11
149.115
21
-113.481
0
LINE
8
Black
10
149.115
20
-113.481
11
149.108
21
-113.479
0
LINE
8
Black
10
149.108
20
-113.479
11
149.101
21
-113.478
0
LINE
8
Black
10
149.101
20
-113.478
11
149.097
21
-113.476
0
LINE
8
Black
10
149.097
20
-113.476
11
149.094
21
-113.475
0
LINE
8
Black
10
149.094
20
-113.475
11
149.027
21
-113.441
0
LINE
8
Black
10
149.027
20
-113.441
11
149.019
21
-113.435
0
LINE
8
Black
10
149.019
20
-113.435
11
149.01
21
-113.429
0
LINE
8
Black
10
149.01
20
-113.429
11
148.977
21
-113.396
0
LINE
8
Black
10
148.977
20
-113.396
11
148.975
21
-113.393
0
LINE
8
Black
10
148.975
20
-113.393
11
148.972
21
-113.39
0
LINE
8
Black
10
148.972
20
-113.39
11
148.968
21
-113.384
0
LINE
8
Black
10
148.968
20
-113.384
11
148.964
21
-113.378
0
LINE
8
Black
10
148.964
20
-113.378
11
148.963
21
-113.374
0
LINE
8
Black
10
148.963
20
-113.374
11
148.962
21
-113.371
0
LINE
8
Black
10
148.962
20
-113.371
11
148.945
21
-113.321
0
LINE
8
Black
10
148.945
20
-113.321
11
148.943
21
-113.311
0
LINE
8
Black
10
148.943
20
-113.311
11
148.942
21
-113.301
0
LINE
8
Black
10
148.942
20
-113.301
11
148.942
21
-113.267
0
LINE
8
Black
10
148.942
20
-113.267
11
148.943
21
-113.257
0
LINE
8
Black
10
148.943
20
-113.257
11
148.945
21
-113.248
0
LINE
8
Black
10
148.945
20
-113.248
11
148.962
21
-113.197
0
LINE
8
Black
10
148.962
20
-113.197
11
148.963
21
-113.194
0
LINE
8
Black
10
148.963
20
-113.194
11
148.964
21
-113.19
0
LINE
8
Black
10
148.964
20
-113.19
11
148.968
21
-113.184
0
LINE
8
Black
10
148.968
20
-113.184
11
148.972
21
-113.178
0
LINE
8
Black
10
148.972
20
-113.178
11
148.975
21
-113.176
0
LINE
8
Black
10
148.975
20
-113.176
11
148.977
21
-113.173
0
LINE
8
Black
10
148.977
20
-113.173
11
149.061
21
-113.088
0
LINE
8
Black
10
149.061
20
-113.088
11
149.064
21
-113.086
0
LINE
8
Black
10
149.064
20
-113.086
11
149.066
21
-113.084
0
LINE
8
Black
10
149.066
20
-113.084
11
149.073
21
-113.08
0
LINE
8
Black
10
149.073
20
-113.08
11
149.079
21
-113.076
0
LINE
8
Black
10
149.079
20
-113.076
11
149.082
21
-113.075
0
LINE
8
Black
10
149.082
20
-113.075
11
149.085
21
-113.073
0
LINE
8
Black
10
149.085
20
-113.073
11
149.136
21
-113.057
0
LINE
8
Black
10
149.136
20
-113.057
11
149.146
21
-113.055
0
LINE
8
Black
10
149.146
20
-113.055
11
149.156
21
-113.053
0
LINE
8
Black
10
149.156
20
-113.053
11
149.189
21
-113.053
0
LINE
8
Black
10
149.189
20
-113.053
11
149.211
21
-113.057
0
LINE
8
Black
10
149.503
20
-112.685
11
149.509
21
-112.685
0
LINE
8
Black
10
149.509
20
-112.685
11
149.513
21
-112.687
0
LINE
8
Black
10
149.513
20
-112.687
11
149.519
21
-112.689
0
LINE
8
Black
10
149.519
20
-112.689
11
149.523
21
-112.692
0
LINE
8
Black
10
149.523
20
-112.692
11
149.528
21
-112.694
0
LINE
8
Black
10
149.528
20
-112.694
11
149.532
21
-112.698
0
LINE
8
Black
10
149.532
20
-112.698
11
149.537
21
-112.701
0
LINE
8
Black
10
149.537
20
-112.701
11
149.89
21
-113.055
0
LINE
8
Black
10
149.89
20
-113.055
11
149.893
21
-113.059
0
LINE
8
Black
10
149.893
20
-113.059
11
149.897
21
-113.063
0
LINE
8
Black
10
149.897
20
-113.063
11
149.899
21
-113.068
0
LINE
8
Black
10
149.899
20
-113.068
11
149.903
21
-113.073
0
LINE
8
Black
10
149.903
20
-113.073
11
149.904
21
-113.078
0
LINE
8
Black
10
149.904
20
-113.078
11
149.906
21
-113.083
0
LINE
8
Black
10
149.906
20
-113.083
11
149.907
21
-113.088
0
LINE
8
Black
10
149.907
20
-113.088
11
149.908
21
-113.094
0
LINE
8
Black
10
149.908
20
-113.094
11
149.908
21
-113.099
0
LINE
8
Black
10
149.908
20
-113.099
11
149.908
21
-113.104
0
LINE
8
Black
10
149.908
20
-113.104
11
149.907
21
-113.11
0
LINE
8
Black
10
149.907
20
-113.11
11
149.906
21
-113.115
0
LINE
8
Black
10
149.906
20
-113.115
11
149.904
21
-113.12
0
LINE
8
Black
10
149.904
20
-113.12
11
149.903
21
-113.125
0
LINE
8
Black
10
149.903
20
-113.125
11
149.899
21
-113.13
0
LINE
8
Black
10
149.899
20
-113.13
11
149.897
21
-113.135
0
LINE
8
Black
10
149.897
20
-113.135
11
149.893
21
-113.139
0
LINE
8
Black
10
149.893
20
-113.139
11
149.89
21
-113.143
0
LINE
8
Black
10
149.89
20
-113.143
11
149.806
21
-113.227
0
LINE
8
Black
10
149.806
20
-113.227
11
149.798
21
-113.233
0
LINE
8
Black
10
149.798
20
-113.233
11
149.79
21
-113.239
0
LINE
8
Black
10
149.79
20
-113.239
11
149.722
21
-113.273
0
LINE
8
Black
10
149.722
20
-113.273
11
149.719
21
-113.274
0
LINE
8
Black
10
149.719
20
-113.274
11
149.716
21
-113.276
0
LINE
8
Black
10
149.716
20
-113.276
11
149.709
21
-113.277
0
LINE
8
Black
10
149.709
20
-113.277
11
149.702
21
-113.279
0
LINE
8
Black
10
149.702
20
-113.279
11
149.698
21
-113.279
0
LINE
8
Black
10
149.698
20
-113.279
11
149.694
21
-113.279
0
LINE
8
Black
10
149.694
20
-113.279
11
149.627
21
-113.279
0
LINE
8
Black
10
149.627
20
-113.279
11
149.617
21
-113.278
0
LINE
8
Black
10
149.617
20
-113.278
11
149.607
21
-113.276
0
LINE
8
Black
10
149.607
20
-113.276
11
149.557
21
-113.259
0
LINE
8
Black
10
149.557
20
-113.259
11
149.551
21
-113.256
0
LINE
8
Black
10
149.551
20
-113.256
11
149.544
21
-113.254
0
LINE
8
Black
10
149.544
20
-113.254
11
149.46
21
-113.203
0
LINE
8
Black
10
149.46
20
-113.203
11
149.454
21
-113.198
0
LINE
8
Black
10
149.454
20
-113.198
11
149.448
21
-113.194
0
LINE
8
Black
10
149.448
20
-113.194
11
149.398
21
-113.143
0
LINE
8
Black
10
149.398
20
-113.143
11
149.393
21
-113.137
0
LINE
8
Black
10
149.393
20
-113.137
11
149.388
21
-113.131
0
LINE
8
Black
10
149.388
20
-113.131
11
149.338
21
-113.047
0
LINE
8
Black
10
149.338
20
-113.047
11
149.335
21
-113.041
0
LINE
8
Black
10
149.335
20
-113.041
11
149.332
21
-113.035
0
LINE
8
Black
10
149.332
20
-113.035
11
149.315
21
-112.984
0
LINE
8
Black
10
149.315
20
-112.984
11
149.314
21
-112.974
0
LINE
8
Black
10
149.314
20
-112.974
11
149.312
21
-112.964
0
LINE
8
Black
10
149.312
20
-112.964
11
149.312
21
-112.897
0
LINE
8
Black
10
149.312
20
-112.897
11
149.313
21
-112.893
0
LINE
8
Black
10
149.313
20
-112.893
11
149.312
21
-112.89
0
LINE
8
Black
10
149.312
20
-112.89
11
149.314
21
-112.883
0
LINE
8
Black
10
149.314
20
-112.883
11
149.316
21
-112.876
0
LINE
8
Black
10
149.316
20
-112.876
11
149.318
21
-112.872
0
LINE
8
Black
10
149.318
20
-112.872
11
149.319
21
-112.869
0
LINE
8
Black
10
149.319
20
-112.869
11
149.352
21
-112.802
0
LINE
8
Black
10
149.352
20
-112.802
11
149.358
21
-112.794
0
LINE
8
Black
10
149.358
20
-112.794
11
149.364
21
-112.785
0
LINE
8
Black
10
149.364
20
-112.785
11
149.448
21
-112.701
0
LINE
8
Black
10
149.448
20
-112.701
11
149.453
21
-112.698
0
LINE
8
Black
10
149.453
20
-112.698
11
149.456
21
-112.694
0
LINE
8
Black
10
149.456
20
-112.694
11
149.461
21
-112.692
0
LINE
8
Black
10
149.461
20
-112.692
11
149.466
21
-112.689
0
LINE
8
Black
10
149.466
20
-112.689
11
149.471
21
-112.687
0
LINE
8
Black
10
149.471
20
-112.687
11
149.476
21
-112.685
0
LINE
8
Black
10
149.476
20
-112.685
11
149.482
21
-112.685
0
LINE
8
Black
10
149.482
20
-112.685
11
149.487
21
-112.683
0
LINE
8
Black
10
149.487
20
-112.683
11
149.492
21
-112.684
0
LINE
8
Black
10
149.492
20
-112.684
11
149.498
21
-112.683
0
LINE
8
Black
10
149.498
20
-112.683
11
149.503
21
-112.685
0
LINE
8
Black
10
149.46
20
-112.867
11
149.437
21
-112.912
0
LINE
8
Black
10
149.437
20
-112.912
11
149.437
21
-112.954
0
LINE
8
Black
10
149.437
20
-112.954
11
149.448
21
-112.989
0
LINE
8
Black
10
149.448
20
-112.989
11
149.491
21
-113.06
0
LINE
8
Black
10
149.491
20
-113.06
11
149.531
21
-113.1
0
LINE
8
Black
10
149.531
20
-113.1
11
149.603
21
-113.143
0
LINE
8
Black
10
149.603
20
-113.143
11
149.637
21
-113.154
0
LINE
8
Black
10
149.637
20
-113.154
11
149.68
21
-113.154
0
LINE
8
Black
10
149.68
20
-113.154
11
149.725
21
-113.132
0
LINE
8
Black
10
149.725
20
-113.132
11
149.758
21
-113.099
0
LINE
8
Black
10
149.758
20
-113.099
11
149.492
21
-112.834
0
LINE
8
Black
10
149.492
20
-112.834
11
149.46
21
-112.867
0
LINE
8
Black
10
147.817
20
-110.485
11
147.839
21
-110.5
0
LINE
8
Black
10
147.839
20
-110.5
11
148.475
21
-111.136
0
LINE
8
Black
10
148.475
20
-111.136
11
148.49
21
-111.157
0
LINE
8
Black
10
148.49
20
-111.157
11
148.497
21
-111.183
0
LINE
8
Black
10
148.497
20
-111.183
11
148.494
21
-111.209
0
LINE
8
Black
10
148.494
20
-111.209
11
148.483
21
-111.232
0
LINE
8
Black
10
148.483
20
-111.232
11
148.465
21
-111.251
0
LINE
8
Black
10
148.465
20
-111.251
11
148.441
21
-111.262
0
LINE
8
Black
10
148.441
20
-111.262
11
148.415
21
-111.264
0
LINE
8
Black
10
148.415
20
-111.264
11
148.39
21
-111.257
0
LINE
8
Black
10
148.39
20
-111.257
11
148.369
21
-111.242
0
LINE
8
Black
10
148.369
20
-111.242
11
147.733
21
-110.606
0
LINE
8
Black
10
147.733
20
-110.606
11
147.718
21
-110.584
0
LINE
8
Black
10
147.718
20
-110.584
11
147.711
21
-110.559
0
LINE
8
Black
10
147.711
20
-110.559
11
147.713
21
-110.533
0
LINE
8
Black
10
147.713
20
-110.533
11
147.724
21
-110.51
0
LINE
8
Black
10
147.724
20
-110.51
11
147.743
21
-110.491
0
LINE
8
Black
10
147.743
20
-110.491
11
147.766
21
-110.48
0
LINE
8
Black
10
147.766
20
-110.48
11
147.792
21
-110.478
0
LINE
8
Black
10
147.792
20
-110.478
11
147.817
21
-110.485
0
LINE
8
Black
10
135.013
20
-73.1592
11
135.019
21
-73.1598
0
LINE
8
Black
10
135.019
20
-73.1598
11
135.025
21
-73.1626
0
LINE
8
Black
10
135.025
20
-73.1626
11
135.032
21
-73.1643
0
LINE
8
Black
10
135.032
20
-73.1643
11
135.037
21
-73.168
0
LINE
8
Black
10
135.037
20
-73.168
11
135.043
21
-73.1708
0
LINE
8
Black
10
135.043
20
-73.1708
11
135.048
21
-73.1754
0
LINE
8
Black
10
135.048
20
-73.1754
11
135.053
21
-73.1792
0
LINE
8
Black
10
135.053
20
-73.1792
11
136.821
21
-74.947
0
LINE
8
Black
10
136.821
20
-74.947
11
136.825
21
-74.9523
0
LINE
8
Black
10
136.825
20
-74.9523
11
136.829
21
-74.957
0
LINE
8
Black
10
136.829
20
-74.957
11
136.832
21
-74.9629
0
LINE
8
Black
10
136.832
20
-74.9629
11
136.836
21
-74.9683
0
LINE
8
Black
10
136.836
20
-74.9683
11
136.837
21
-74.9746
0
LINE
8
Black
10
136.837
20
-74.9746
11
136.84
21
-74.9806
0
LINE
8
Black
10
136.84
20
-74.9806
11
136.841
21
-74.9871
0
LINE
8
Black
10
136.841
20
-74.9871
11
136.842
21
-74.9935
0
LINE
8
Black
10
136.842
20
-74.9935
11
136.842
21
-75
0
LINE
8
Black
10
136.842
20
-75
11
136.842
21
-75.0065
0
LINE
8
Black
10
136.842
20
-75.0065
11
136.841
21
-75.0129
0
LINE
8
Black
10
136.841
20
-75.0129
11
136.84
21
-75.0194
0
LINE
8
Black
10
136.84
20
-75.0194
11
136.837
21
-75.0254
0
LINE
8
Black
10
136.837
20
-75.0254
11
136.836
21
-75.0317
0
LINE
8
Black
10
136.836
20
-75.0317
11
136.832
21
-75.0371
0
LINE
8
Black
10
136.832
20
-75.0371
11
136.829
21
-75.043
0
LINE
8
Black
10
136.829
20
-75.043
11
136.825
21
-75.0477
0
LINE
8
Black
10
136.825
20
-75.0477
11
136.821
21
-75.053
0
LINE
8
Black
10
136.821
20
-75.053
11
135.053
21
-76.8208
0
LINE
8
Black
10
135.053
20
-76.8208
11
135.048
21
-76.8246
0
LINE
8
Black
10
135.048
20
-76.8246
11
135.043
21
-76.8292
0
LINE
8
Black
10
135.043
20
-76.8292
11
135.037
21
-76.832
0
LINE
8
Black
10
135.037
20
-76.832
11
135.032
21
-76.8357
0
LINE
8
Black
10
135.032
20
-76.8357
11
135.025
21
-76.8374
0
LINE
8
Black
10
135.025
20
-76.8374
11
135.019
21
-76.8402
0
LINE
8
Black
10
135.019
20
-76.8402
11
135.013
21
-76.8408
0
LINE
8
Black
10
135.013
20
-76.8408
11
135.007
21
-76.8425
0
LINE
8
Black
10
135.007
20
-76.8425
11
135
21
-76.8419
0
LINE
8
Black
10
135
20
-76.8419
11
134.993
21
-76.8425
0
LINE
8
Black
10
134.993
20
-76.8425
11
134.987
21
-76.8408
0
LINE
8
Black
10
134.987
20
-76.8408
11
134.981
21
-76.8402
0
LINE
8
Black
10
134.981
20
-76.8402
11
134.975
21
-76.8374
0
LINE
8
Black
10
134.975
20
-76.8374
11
134.968
21
-76.8357
0
LINE
8
Black
10
134.968
20
-76.8357
11
134.963
21
-76.832
0
LINE
8
Black
10
134.963
20
-76.832
11
134.957
21
-76.8292
0
LINE
8
Black
10
134.957
20
-76.8292
11
134.952
21
-76.8246
0
LINE
8
Black
10
134.952
20
-76.8246
11
134.947
21
-76.8208
0
LINE
8
Black
10
134.947
20
-76.8208
11
133.179
21
-75.053
0
LINE
8
Black
10
133.179
20
-75.053
11
133.175
21
-75.0477
0
LINE
8
Black
10
133.175
20
-75.0477
11
133.171
21
-75.043
0
LINE
8
Black
10
133.171
20
-75.043
11
133.168
21
-75.0371
0
LINE
8
Black
10
133.168
20
-75.0371
11
133.164
21
-75.0317
0
LINE
8
Black
10
133.164
20
-75.0317
11
133.163
21
-75.0254
0
LINE
8
Black
10
133.163
20
-75.0254
11
133.16
21
-75.0194
0
LINE
8
Black
10
133.16
20
-75.0194
11
133.159
21
-75.0129
0
LINE
8
Black
10
133.159
20
-75.0129
11
133.158
21
-75.0065
0
LINE
8
Black
10
133.158
20
-75.0065
11
133.158
21
-75
0
LINE
8
Black
10
133.158
20
-75
11
133.158
21
-74.9935
0
LINE
8
Black
10
133.158
20
-74.9935
11
133.159
21
-74.9871
0
LINE
8
Black
10
133.159
20
-74.9871
11
133.16
21
-74.9806
0
LINE
8
Black
10
133.16
20
-74.9806
11
133.163
21
-74.9746
0
LINE
8
Black
10
133.163
20
-74.9746
11
133.164
21
-74.9683
0
LINE
8
Black
10
133.164
20
-74.9683
11
133.168
21
-74.9629
0
LINE
8
Black
10
133.168
20
-74.9629
11
133.171
21
-74.957
0
LINE
8
Black
10
133.171
20
-74.957
11
133.175
21
-74.9523
0
LINE
8
Black
10
133.175
20
-74.9523
11
133.179
21
-74.947
0
LINE
8
Black
10
133.179
20
-74.947
11
134.947
21
-73.1792
0
LINE
8
Black
10
134.947
20
-73.1792
11
134.952
21
-73.1754
0
LINE
8
Black
10
134.952
20
-73.1754
11
134.957
21
-73.1708
0
LINE
8
Black
10
134.957
20
-73.1708
11
134.963
21
-73.168
0
LINE
8
Black
10
134.963
20
-73.168
11
134.968
21
-73.1643
0
LINE
8
Black
10
134.968
20
-73.1643
11
134.975
21
-73.1626
0
LINE
8
Black
10
134.975
20
-73.1626
11
134.981
21
-73.1598
0
LINE
8
Black
10
134.981
20
-73.1598
11
134.987
21
-73.1592
0
LINE
8
Black
10
134.987
20
-73.1592
11
134.993
21
-73.1575
0
LINE
8
Black
10
134.993
20
-73.1575
11
135
21
-73.1581
0
LINE
8
Black
10
135
20
-73.1581
11
135.007
21
-73.1575
0
LINE
8
Black
10
135.007
20
-73.1575
11
135.013
21
-73.1592
0
LINE
8
Black
10
133.338
20
-75
11
135
21
-76.6617
0
LINE
8
Black
10
135
20
-76.6617
11
136.662
21
-75
0
LINE
8
Black
10
136.662
20
-75
11
135
21
-73.3383
0
LINE
8
Black
10
135
20
-73.3383
11
133.338
21
-75
0
LINE
8
Black
10
135.744
20
-73.4641
11
135.707
21
-73.4955
0
LINE
8
Black
10
135.707
20
-73.4955
11
135.661
21
-73.5122
0
LINE
8
Black
10
135.661
20
-73.5122
11
135.612
21
-73.5122
0
LINE
8
Black
10
135.612
20
-73.5122
11
135.566
21
-73.4955
0
LINE
8
Black
10
135.566
20
-73.4955
11
135.529
21
-73.4641
0
LINE
8
Black
10
135.529
20
-73.4641
11
135.504
21
-73.4218
0
LINE
8
Black
10
135.504
20
-73.4218
11
135.496
21
-73.3737
0
LINE
8
Black
10
135.496
20
-73.3737
11
135.504
21
-73.3255
0
LINE
8
Black
10
135.504
20
-73.3255
11
135.529
21
-73.2832
0
LINE
8
Black
10
135.529
20
-73.2832
11
135.566
21
-73.2518
0
LINE
8
Black
10
135.566
20
-73.2518
11
135.612
21
-73.2351
0
LINE
8
Black
10
135.612
20
-73.2351
11
135.661
21
-73.2351
0
LINE
8
Black
10
135.661
20
-73.2351
11
135.707
21
-73.2518
0
LINE
8
Black
10
135.707
20
-73.2518
11
135.744
21
-73.2832
0
LINE
8
Black
10
135.744
20
-73.2832
11
135.769
21
-73.3255
0
LINE
8
Black
10
135.769
20
-73.3255
11
135.777
21
-73.3737
0
LINE
8
Black
10
135.777
20
-73.3737
11
135.769
21
-73.4218
0
LINE
8
Black
10
135.769
20
-73.4218
11
135.744
21
-73.4641
0
LINE
8
Black
10
135.637
20
-73.3732
11
135.637
21
-73.373
0
LINE
8
Black
10
135.637
20
-73.373
11
135.637
21
-73.373
0
LINE
8
Black
10
135.637
20
-73.373
11
135.636
21
-73.373
0
LINE
8
Black
10
135.636
20
-73.373
11
135.636
21
-73.373
0
LINE
8
Black
10
135.636
20
-73.373
11
135.636
21
-73.3732
0
LINE
8
Black
10
135.636
20
-73.3732
11
135.636
21
-73.3734
0
LINE
8
Black
10
135.636
20
-73.3734
11
135.636
21
-73.3737
0
LINE
8
Black
10
135.636
20
-73.3737
11
135.636
21
-73.3739
0
LINE
8
Black
10
135.636
20
-73.3739
11
135.636
21
-73.3741
0
LINE
8
Black
10
135.636
20
-73.3741
11
135.636
21
-73.3743
0
LINE
8
Black
10
135.636
20
-73.3743
11
135.636
21
-73.3744
0
LINE
8
Black
10
135.636
20
-73.3744
11
135.637
21
-73.3744
0
LINE
8
Black
10
135.637
20
-73.3744
11
135.637
21
-73.3743
0
LINE
8
Black
10
135.637
20
-73.3743
11
135.637
21
-73.3741
0
LINE
8
Black
10
135.637
20
-73.3741
11
135.637
21
-73.3739
0
LINE
8
Black
10
135.637
20
-73.3739
11
135.637
21
-73.3737
0
LINE
8
Black
10
135.637
20
-73.3737
11
135.637
21
-73.3734
0
LINE
8
Black
10
135.637
20
-73.3734
11
135.637
21
-73.3732
0
CIRCLE
8
Black
10
159.951
20
-82.6729
40
0.4955
0
CIRCLE
8
Black
10
158.935
20
-77.5929
40
0.4955
0
CIRCLE
8
Black
10
160.967
20
-77.5929
40
0.4955
0
CIRCLE
8
Black
10
173.075
20
-100
40
0.51
0
CIRCLE
8
Black
10
173.075
20
-97.46
40
0.51
0
CIRCLE
8
Black
10
173.075
20
-94.92
40
0.51
0
CIRCLE
8
Black
10
173.075
20
-102.54
40
0.51
0
CIRCLE
8
Black
10
173.075
20
-105.08
40
0.51
  0
ENDSEC
  0
EOF
