  0
SECTION
  2
HEADER
  9
$ACADVER
  1
AC1009
  9
$DWGCODEPAGE
  3
mac-roman
  9
$INSBASE
 10
0.0
 20
0.0
 30
0.0
  9
$EXTMIN
 10
149.9990428932188
 20
-110.0002071067812
 30
0.0
  9
$EXTMAX
 10
178.075
 20
-76.59740000000002
 30
0.0
  9
$LIMMIN
 10
0.0
 20
0.0
  9
$LIMMAX
 10
12.0
 20
9.0
  9
$ORTHOMODE
 70
     0
  9
$REGENMODE
 70
     1
  9
$FILLMODE
 70
     1
  9
$QTEXTMODE
 70
     0
  9
$MIRRTEXT
 70
     1
  9
$DRAGMODE
 70
     2
  9
$LTSCALE
 40
1.0
  9
$OSMODE
 70
    37
  9
$ATTMODE
 70
     1
  9
$TEXTSIZE
 40
0.2
  9
$TRACEWID
 40
0.05
  9
$TEXTSTYLE
  7
STANDARD
  9
$CLAYER
  8
LAYER_04
  9
$CELTYPE
  6
BYLAYER
  9
$CECOLOR
 62
   256
  9
$DIMSCALE
 40
1.0
  9
$DIMASZ
 40
0.18
  9
$DIMEXO
 40
0.0625
  9
$DIMDLI
 40
0.38
  9
$DIMRND
 40
0.0
  9
$DIMDLE
 40
0.0
  9
$DIMEXE
 40
0.18
  9
$DIMTP
 40
0.0
  9
$DIMTM
 40
0.0
  9
$DIMTXT
 40
0.18
  9
$DIMCEN
 40
0.09
  9
$DIMTSZ
 40
0.0
  9
$DIMTOL
 70
     0
  9
$DIMLIM
 70
     0
  9
$DIMTIH
 70
     1
  9
$DIMTOH
 70
     1
  9
$DIMSE1
 70
     0
  9
$DIMSE2
 70
     0
  9
$DIMTAD
 70
     0
  9
$DIMZIN
 70
     0
  9
$DIMBLK
  1

  9
$DIMASO
 70
     1
  9
$DIMSHO
 70
     1
  9
$DIMPOST
  1

  9
$DIMAPOST
  1

  9
$DIMALT
 70
     0
  9
$DIMALTD
 70
     2
  9
$DIMALTF
 40
25.4
  9
$DIMLFAC
 40
1.0
  9
$DIMTOFL
 70
     0
  9
$DIMTVP
 40
0.0
  9
$DIMTIX
 70
     0
  9
$DIMSOXD
 70
     0
  9
$DIMSAH
 70
     0
  9
$DIMBLK1
  1

  9
$DIMBLK2
  1

  9
$DIMSTYLE
  2
STANDARD
  9
$DIMCLRD
 70
     0
  9
$DIMCLRE
 70
     0
  9
$DIMCLRT
 70
     0
  9
$DIMTFAC
 40
1.0
  9
$DIMGAP
 40
0.09
  9
$LUNITS
 70
     2
  9
$LUPREC
 70
     3
  9
$SKETCHINC
 40
0.1
  9
$FILLETRAD
 40
0.5
  9
$AUNITS
 70
     0
  9
$AUPREC
 70
     0
  9
$MENU
  1
.
  9
$ELEVATION
 40
0.0
  9
$PELEVATION
 40
0.0
  9
$THICKNESS
 40
0.0
  9
$LIMCHECK
 70
     0
  9
$CHAMFERA
 40
0.0
  9
$CHAMFERB
 40
0.0
  9
$SKPOLY
 70
     0
  9
$TDCREATE
 40
2457750.551018518
  9
$TDUPDATE
 40
2457750.551030092
  9
$TDINDWG
 40
0.0000000116
  9
$TDUSRTIMER
 40
0.0000000116
  9
$USRTIMER
 70
     1
  9
$ANGBASE
 50
0.0
  9
$ANGDIR
 70
     0
  9
$PDMODE
 70
     0
  9
$PDSIZE
 40
0.0
  9
$PLINEWID
 40
0.0
  9
$COORDS
 70
     1
  9
$SPLFRAME
 70
     0
  9
$SPLINETYPE
 70
     6
  9
$SPLINESEGS
 70
     8
  9
$ATTDIA
 70
     0
  9
$ATTREQ
 70
     1
  9
$HANDLING
 70
     1
  9
$HANDSEED
  5
D4
  9
$SURFTAB1
 70
     6
  9
$SURFTAB2
 70
     6
  9
$SURFTYPE
 70
     6
  9
$SURFU
 70
     6
  9
$SURFV
 70
     6
  9
$UCSNAME
  2

  9
$UCSORG
 10
0.0
 20
0.0
 30
0.0
  9
$UCSXDIR
 10
1.0
 20
0.0
 30
0.0
  9
$UCSYDIR
 10
0.0
 20
1.0
 30
0.0
  9
$PUCSNAME
  2

  9
$PUCSORG
 10
0.0
 20
0.0
 30
0.0
  9
$PUCSXDIR
 10
1.0
 20
0.0
 30
0.0
  9
$PUCSYDIR
 10
0.0
 20
1.0
 30
0.0
  9
$USERI1
 70
     0
  9
$USERI2
 70
     0
  9
$USERI3
 70
     0
  9
$USERI4
 70
     0
  9
$USERI5
 70
     0
  9
$USERR1
 40
0.0
  9
$USERR2
 40
0.0
  9
$USERR3
 40
0.0
  9
$USERR4
 40
0.0
  9
$USERR5
 40
0.0
  9
$WORLDVIEW
 70
     1
  9
$SHADEDGE
 70
     3
  9
$SHADEDIF
 70
    70
  9
$TILEMODE
 70
     1
  9
$MAXACTVP
 70
    64
  9
$PLIMCHECK
 70
     0
  9
$PEXTMIN
 10
1.000000000000000E+20
 20
1.000000000000000E+20
 30
1.000000000000000E+20
  9
$PEXTMAX
 10
-1.000000000000000E+20
 20
-1.000000000000000E+20
 30
-1.000000000000000E+20
  9
$PLIMMIN
 10
0.0
 20
0.0
  9
$PLIMMAX
 10
12.0
 20
9.0
  9
$UNITMODE
 70
     0
  9
$VISRETAIN
 70
     1
  9
$PLINEGEN
 70
     0
  9
$PSLTSCALE
 70
     1
  0
ENDSEC
  0
SECTION
  2
TABLES
  0
TABLE
  2
VPORT
 70
     1
  0
VPORT
  2
*ACTIVE
 70
     0
 10
0.0
 20
0.0
 11
1.0
 21
1.0
 12
164.0370214466094
 22
-93.2988035533906
 13
0.0
 23
0.0
 14
0.5
 24
0.5
 15
0.5
 25
0.5
 16
0.0
 26
0.0
 36
1.0
 17
0.0
 27
0.0
 37
0.0
 40
34.07086324891678
 41
0.8405268759906538
 42
50.0
 43
0.0
 44
0.0
 50
0.0
 51
0.0
 71
     0
 72
   100
 73
     1
 74
     3
 75
     0
 76
     0
 77
     0
 78
     0
  0
ENDTAB
  0
TABLE
  2
LTYPE
 70
     1
  0
LTYPE
  2
CONTINUOUS
 70
     0
  3
Solid line
 72
    65
 73
     0
 40
0.0
  0
ENDTAB
  0
TABLE
  2
LAYER
 70
     2
  0
LAYER
  2
0
 70
     0
 62
     7
  6
CONTINUOUS
  0
LAYER
  2
LAYER_04
 70
     0
 62
    96
  6
CONTINUOUS
  0
ENDTAB
  0
TABLE
  2
STYLE
 70
     1
  0
STYLE
  2
STANDARD
 70
     0
 40
0.0
 41
1.0
 50
0.0
 71
     0
 42
0.2
  3
txt
  4

  0
ENDTAB
  0
TABLE
  2
VIEW
 70
     0
  0
ENDTAB
  0
TABLE
  2
UCS
 70
     0
  0
ENDTAB
  0
TABLE
  2
APPID
 70
     1
  0
APPID
  2
ACAD
 70
     0
  0
ENDTAB
  0
TABLE
  2
DIMSTYLE
 70
     1
  0
DIMSTYLE
  2
STANDARD
 70
     0
  3

  4

  5

  6

  7

 40
1.0
 41
0.18
 42
0.0625
 43
0.38
 44
0.18
 45
0.0
 46
0.0
 47
0.0
 48
0.0
140
0.18
141
0.09
142
0.0
143
25.4
144
1.0
145
0.0
146
1.0
147
0.09
 71
     0
 72
     0
 73
     1
 74
     1
 75
     0
 76
     0
 77
     0
 78
     0
170
     0
171
     2
172
     0
173
     0
174
     0
175
     0
176
     0
177
     0
178
     0
  0
ENDTAB
  0
ENDSEC
  0
SECTION
  2
BLOCKS
  0
BLOCK
  8
0
  2
$MODEL_SPACE
 70
     0
 10
0.0
 20
0.0
 30
0.0
  3
$MODEL_SPACE
  1

  0
ENDBLK
  5
21
  8
0
  0
BLOCK
 67
     1
  8
0
  2
$PAPER_SPACE
 70
     0
 10
0.0
 20
0.0
 30
0.0
  3
$PAPER_SPACE
  1

  0
ENDBLK
  5
1D
 67
     1
  8
0
  0
ENDSEC
  0
SECTION
  2
ENTITIES
  0
LINE
  5
6F
  8
LAYER_04
 10
173.6532379813738
 20
-106.5836506848478
 30
0.0
 11
176.1069992375958
 21
-109.0374119343906
 31
0.0
  0
ARC
  5
70
  8
LAYER_04
 10
176.2837759310775
 20
-108.860635237279
 30
0.0
 40
0.250000000000012
 50
225.0000005882631
 51
345.0621429208184
  0
LINE
  5
71
  8
LAYER_04
 10
176.525327424294
 20
-108.9250780501044
 30
0.0
 11
176.5413480118503
 21
-108.8689309332585
 31
0.0
  0
LINE
  5
72
  8
LAYER_04
 10
176.5413480118503
 20
-108.8689309332585
 30
0.0
 11
176.5500819164999
 21
-108.8410969054785
 31
0.0
  0
LINE
  5
73
  8
LAYER_04
 10
176.5500819164999
 20
-108.8410969054785
 30
0.0
 11
176.5592998572595
 21
-108.8134368349991
 31
0.0
  0
LINE
  5
74
  8
LAYER_04
 10
176.5592998572595
 20
-108.8134368349991
 30
0.0
 11
176.5690026663477
 21
-108.7859614291486
 31
0.0
  0
LINE
  5
75
  8
LAYER_04
 10
176.5690026663477
 20
-108.7859614291486
 30
0.0
 11
176.5791908581432
 21
-108.758681384629
 31
0.0
  0
LINE
  5
76
  8
LAYER_04
 10
176.5791908581432
 20
-108.758681384629
 30
0.0
 11
176.5898646244627
 21
-108.7316073753364
 31
0.0
  0
LINE
  5
77
  8
LAYER_04
 10
176.5898646244627
 20
-108.7316073753364
 30
0.0
 11
176.6010238303124
 21
-108.7047500400348
 31
0.0
  0
LINE
  5
78
  8
LAYER_04
 10
176.6010238303124
 20
-108.7047500400348
 30
0.0
 11
176.612668010131
 21
-108.6781199699071
 31
0.0
  0
LINE
  5
79
  8
LAYER_04
 10
176.612668010131
 20
-108.6781199699071
 30
0.0
 11
176.6247963645428
 21
-108.6517276960127
 31
0.0
  0
LINE
  5
7A
  8
LAYER_04
 10
176.6247963645428
 20
-108.6517276960127
 30
0.0
 11
176.637407757634
 21
-108.6255836766793
 31
0.0
  0
LINE
  5
7B
  8
LAYER_04
 10
176.637407757634
 20
-108.6255836766793
 30
0.0
 11
176.6505007147699
 21
-108.5996982848584
 31
0.0
  0
LINE
  5
7C
  8
LAYER_04
 10
176.6505007147699
 20
-108.5996982848584
 30
0.0
 11
176.664073420964
 21
-108.5740817954741
 31
0.0
  0
LINE
  5
7D
  8
LAYER_04
 10
176.664073420964
 20
-108.5740817954741
 30
0.0
 11
176.6781237198105
 21
-108.5487443727952
 31
0.0
  0
LINE
  5
7E
  8
LAYER_04
 10
176.6781237198105
 20
-108.5487443727952
 30
0.0
 11
176.6926491129917
 21
-108.5236960578612
 31
0.0
  0
LINE
  5
7F
  8
LAYER_04
 10
176.6926491129917
 20
-108.5236960578612
 30
0.0
 11
176.7076467603665
 21
-108.4989467559938
 31
0.0
  0
LINE
  5
80
  8
LAYER_04
 10
176.7076467603665
 20
-108.4989467559938
 30
0.0
 11
176.723113480647
 21
-108.4745062244243
 31
0.0
  0
LINE
  5
81
  8
LAYER_04
 10
176.723113480647
 20
-108.4745062244243
 30
0.0
 11
176.7390457526691
 21
-108.4503840600671
 31
0.0
  0
LINE
  5
82
  8
LAYER_04
 10
176.7390457526691
 20
-108.4503840600671
 30
0.0
 11
176.7554397172581
 21
-108.4265896874724
 31
0.0
  0
LINE
  5
83
  8
LAYER_04
 10
176.7554397172581
 20
-108.4265896874724
 30
0.0
 11
176.77229117969
 21
-108.4031323469868
 31
0.0
  0
LINE
  5
84
  8
LAYER_04
 10
176.77229117969
 20
-108.4031323469868
 30
0.0
 11
176.78959561275
 21
-108.3800210831528
 31
0.0
  0
LINE
  5
85
  8
LAYER_04
 10
176.78959561275
 20
-108.3800210831528
 30
0.0
 11
176.8073481603818
 21
-108.3572647333773
 31
0.0
  0
LINE
  5
86
  8
LAYER_04
 10
176.8073481603818
 20
-108.3572647333773
 30
0.0
 11
176.8255436419253
 21
-108.3348719168978
 31
0.0
  0
LINE
  5
87
  8
LAYER_04
 10
176.8255436419253
 20
-108.3348719168978
 30
0.0
 11
176.8441765569347
 21
-108.3128510240747
 31
0.0
  0
LINE
  5
88
  8
LAYER_04
 10
176.8441765569347
 20
-108.3128510240747
 30
0.0
 11
176.8632410905685
 21
-108.2912102060384
 31
0.0
  0
LINE
  5
89
  8
LAYER_04
 10
176.8632410905685
 20
-108.2912102060384
 30
0.0
 11
176.8827311195401
 21
-108.2699573647154
 31
0.0
  0
LINE
  5
8A
  8
LAYER_04
 10
176.8827311195401
 20
-108.2699573647154
 30
0.0
 11
176.9026402186185
 21
-108.2491001432616
 31
0.0
  0
LINE
  5
8B
  8
LAYER_04
 10
176.9026402186185
 20
-108.2491001432616
 30
0.0
 11
176.9229616676617
 21
-108.2286459169246
 31
0.0
  0
LINE
  5
8C
  8
LAYER_04
 10
176.9229616676617
 20
-108.2286459169246
 30
0.0
 11
176.9436884591691
 21
-108.2086017843597
 31
0.0
  0
LINE
  5
8D
  8
LAYER_04
 10
176.9436884591691
 20
-108.2086017843597
 30
0.0
 11
176.9648133063346
 21
-108.1889745594198
 31
0.0
  0
LINE
  5
8E
  8
LAYER_04
 10
176.9648133063346
 20
-108.1889745594198
 30
0.0
 11
176.98632865158
 21
-108.1697707634396
 31
0.0
  0
LINE
  5
8F
  8
LAYER_04
 10
176.98632865158
 20
-108.1697707634396
 30
0.0
 11
177.0082266755487
 21
-108.1509966180329
 31
0.0
  0
LINE
  5
90
  8
LAYER_04
 10
177.0082266755487
 20
-108.1509966180329
 30
0.0
 11
177.0304993065373
 21
-108.132658038419
 31
0.0
  0
LINE
  5
91
  8
LAYER_04
 10
177.0304993065373
 20
-108.132658038419
 30
0.0
 11
177.0531382303406
 21
-108.1147606272925
 31
0.0
  0
LINE
  5
92
  8
LAYER_04
 10
177.0531382303406
 20
-108.1147606272925
 30
0.0
 11
177.0761349004853
 21
-108.0973096692521
 31
0.0
  0
LINE
  5
93
  8
LAYER_04
 10
177.0761349004853
 20
-108.0973096692521
 30
0.0
 11
177.0994805488268
 21
-108.0803101257965
 31
0.0
  0
LINE
  5
94
  8
LAYER_04
 10
177.0994805488268
 20
-108.0803101257965
 30
0.0
 11
177.1231661964805
 21
-108.063766630899
 31
0.0
  0
LINE
  5
95
  8
LAYER_04
 10
177.1231661964805
 20
-108.063766630899
 30
0.0
 11
177.1471826650611
 21
-108.0476834871672
 31
0.0
  0
LINE
  5
96
  8
LAYER_04
 10
177.1471826650611
 20
-108.0476834871672
 30
0.0
 11
177.1715205881991
 21
-108.0320646625944
 31
0.0
  0
LINE
  5
97
  8
LAYER_04
 10
177.1715205881991
 20
-108.0320646625944
 30
0.0
 11
177.1961704233074
 21
-108.016913787905
 31
0.0
  0
LINE
  5
98
  8
LAYER_04
 10
177.1961704233074
 20
-108.016913787905
 30
0.0
 11
177.2211224635646
 21
-108.0022341544963
 31
0.0
  0
LINE
  5
99
  8
LAYER_04
 10
177.2211224635646
 20
-108.0022341544963
 30
0.0
 11
177.2463668500873
 21
-107.9880287129766
 31
0.0
  0
LINE
  5
9A
  8
LAYER_04
 10
177.2463668500873
 20
-107.9880287129766
 30
0.0
 11
177.2718935842591
 21
-107.9743000722976
 31
0.0
  0
LINE
  5
9B
  8
LAYER_04
 10
177.2718935842591
 20
-107.9743000722976
 30
0.0
 11
177.2976925401853
 21
-107.9610504994759
 31
0.0
  0
LINE
  5
9C
  8
LAYER_04
 10
177.2976925401853
 20
-107.9610504994759
 30
0.0
 11
177.3237534772432
 21
-107.9482819198997
 31
0.0
  0
LINE
  5
9D
  8
LAYER_04
 10
177.3237534772432
 20
-107.9482819198997
 30
0.0
 11
177.3500660526958
 21
-107.9359959182109
 31
0.0
  0
LINE
  5
9E
  8
LAYER_04
 10
177.3500660526958
 20
-107.9359959182109
 30
0.0
 11
177.376619834339
 21
-107.924193739756
 31
0.0
  0
LINE
  5
9F
  8
LAYER_04
 10
177.376619834339
 20
-107.924193739756
 30
0.0
 11
177.4034043131519
 21
-107.9128762925914
 31
0.0
  0
LINE
  5
A0
  8
LAYER_04
 10
177.4034043131519
 20
-107.9128762925914
 30
0.0
 11
177.4304089159199
 21
-107.9020441500344
 31
0.0
  0
LINE
  5
A1
  8
LAYER_04
 10
177.4304089159199
 20
-107.9020441500344
 30
0.0
 11
177.4576230178016
 21
-107.8916975537426
 31
0.0
  0
LINE
  5
A2
  8
LAYER_04
 10
177.4576230178016
 20
-107.8916975537426
 30
0.0
 11
177.4850359548115
 21
-107.8818364173079
 31
0.0
  0
LINE
  5
A3
  8
LAYER_04
 10
177.4850359548115
 20
-107.8818364173079
 30
0.0
 11
177.5126370361886
 21
-107.8724603303479
 31
0.0
  0
LINE
  5
A4
  8
LAYER_04
 10
177.5126370361886
 20
-107.8724603303479
 30
0.0
 11
177.5404155566262
 21
-107.8635685630777
 31
0.0
  0
LINE
  5
A5
  8
LAYER_04
 10
177.5404155566262
 20
-107.8635685630777
 30
0.0
 11
177.5683608083363
 21
-107.8551600713401
 31
0.0
  0
LINE
  5
A6
  8
LAYER_04
 10
177.5683608083363
 20
-107.8551600713401
 30
0.0
 11
177.6247087330365
 21
-107.8397871992239
 31
0.0
  0
LINE
  5
A7
  8
LAYER_04
 10
177.6247087330365
 20
-107.8397871992239
 30
0.0
 11
177.6815955439884
 21
-107.8263272915234
 31
0.0
  0
LINE
  5
A8
  8
LAYER_04
 10
177.6815955439884
 20
-107.8263272915234
 30
0.0
 11
177.7389366708204
 21
-107.8147612876108
 31
0.0
  0
LINE
  5
A9
  8
LAYER_04
 10
177.7389366708204
 20
-107.8147612876108
 30
0.0
 11
177.796648582344
 21
-107.8050657179917
 31
0.0
  0
LINE
  5
AA
  8
LAYER_04
 10
177.796648582344
 20
-107.8050657179917
 30
0.0
 11
177.8546491097335
 21
-107.7972129529937
 31
0.0
  0
ARC
  5
AB
  8
LAYER_04
 10
177.8249999987814
 20
-107.5489773185257
 30
0.0
 40
0.2499999999999961
 50
276.8111062885459
 51
0.0000000320640623
  0
LINE
  5
AC
  8
LAYER_04
 10
178.0749999987814
 20
-107.5489773183858
 30
0.0
 11
178.075
 21
-97.79550516265357
 31
0.0
  0
LINE
  5
AD
  8
LAYER_04
 10
178.075
 20
-97.79550516265357
 30
0.0
 11
173.6981170149625
 21
-93.41636090530749
 31
0.0
  0
LINE
  5
AE
  8
LAYER_04
 10
173.6981170149625
 20
-93.41636090530749
 30
0.0
 11
172.4521412382578
 21
-93.41603912803988
 31
0.0
  0
LINE
  5
AF
  8
LAYER_04
 10
172.4521412382578
 20
-93.41603912803988
 30
0.0
 11
171.5708757864678
 21
-94.29684951805403
 31
0.0
  0
LINE
  5
B0
  8
LAYER_04
 10
171.5708757864678
 20
-94.29684951805403
 30
0.0
 11
171.5708757864678
 21
-105.703150481946
 31
0.0
  0
LINE
  5
B1
  8
LAYER_04
 10
171.5708757864678
 20
-105.703150481946
 30
0.0
 11
172.4521412382578
 21
-106.5839608719601
 31
0.0
  0
LINE
  5
B2
  8
LAYER_04
 10
172.4521412382578
 20
-106.5839608719601
 30
0.0
 11
173.6532379813738
 21
-106.5836506848478
 31
0.0
  0
ARC
  5
B3
  8
LAYER_04
 10
159.9989000025
 20
-87.9994999999995
 30
0.0
 40
2.500000002000332
 50
233.1329671058884
 51
306.8727623288164
  0
LINE
  5
B4
  8
LAYER_04
 10
164.1412391771216
 20
-89.99929289321884
 30
0.0
 11
161.4989999981252
 21
-89.99942500187508
 31
0.0
  0
LINE
  5
B5
  8
LAYER_04
 10
169.9995428932188
 20
-95.85701082287848
 30
0.0
 11
164.1412391771216
 21
-89.99929289321884
 31
0.0
  0
LINE
  5
B6
  8
LAYER_04
 10
169.9999571067812
 20
-104.1414891771216
 30
0.0
 11
169.9995428932188
 21
-95.85701082287848
 31
0.0
  0
LINE
  5
B7
  8
LAYER_04
 10
168.1317052807227
 20
-106.0099278330334
 30
0.0
 11
169.9999571067812
 21
-104.1414891771216
 31
0.0
  0
ARC
  5
B8
  8
LAYER_04
 10
168.4853824132352
 20
-108.4847838886333
 30
0.0
 40
2.500000002000351
 50
98.13296710588955
 51
171.8727623288167
  0
LINE
  5
B9
  8
LAYER_04
 10
164.1422391771216
 20
-109.9997928932188
 30
0.0
 11
166.01049100318
 21
-108.131354237307
 31
0.0
  0
LINE
  5
BA
  8
LAYER_04
 10
155.8577608228784
 20
-110.0002071067812
 30
0.0
 11
164.1422391771216
 21
-109.9997928932188
 31
0.0
  0
LINE
  5
BB
  8
LAYER_04
 10
153.9893221669667
 20
-108.1319552807229
 30
0.0
 11
155.8577608228784
 21
-110.0002071067812
 31
0.0
  0
ARC
  5
BC
  8
LAYER_04
 10
151.5144661113667
 20
-108.4856324132352
 30
0.0
 40
2.500000002000351
 50
8.132967105889223
 51
81.87276232881642
  0
LINE
  5
BD
  8
LAYER_04
 10
149.9994571067812
 20
-104.1424891771215
 30
0.0
 11
151.867895762693
 21
-106.01074100318
 31
0.0
  0
LINE
  5
BE
  8
LAYER_04
 10
149.9990428932188
 20
-95.85801082287844
 30
0.0
 11
149.9994571067812
 21
-104.1424891771215
 31
0.0
  0
LINE
  5
BF
  8
LAYER_04
 10
151.8672947192771
 20
-93.98957216696665
 30
0.0
 11
149.9990428932188
 21
-95.85801082287844
 31
0.0
  0
ARC
  5
C0
  8
LAYER_04
 10
151.5136175867648
 20
-91.51471611136672
 30
0.0
 40
2.500000002000351
 50
278.1329671058895
 51
351.8727623288167
  0
LINE
  5
C1
  8
LAYER_04
 10
155.8567608228785
 20
-89.99970710678119
 30
0.0
 11
153.98850899682
 21
-91.86814576269299
 31
0.0
  0
LINE
  5
C2
  8
LAYER_04
 10
158.4990000018747
 20
-89.99957499812486
 30
0.0
 11
155.8567608228785
 21
-89.99970710678119
 31
0.0
  0
LINE
  5
C3
  8
LAYER_04
 10
156.502659020629
 20
-81.47409058071347
 30
0.0
 11
156.502659020629
 21
-88.74290000000002
 31
0.0
  0
LINE
  5
C4
  8
LAYER_04
 10
163.399340979371
 20
-81.47409058071347
 30
0.0
 11
163.399340979371
 21
-88.74290000000002
 31
0.0
  0
ARC
  5
C5
  8
LAYER_04
 10
159.9248672399304
 20
-94.78657076264692
 30
0.0
 40
6.543722944247317
 50
67.45563273406424
 51
112.544367265936
  0
LINE
  5
C6
  8
LAYER_04
 10
156.502659020629
 20
-88.74290000000002
 30
0.0
 11
157.4160121855688
 21
-88.74290000000002
 31
0.0
  0
LINE
  5
C7
  8
LAYER_04
 10
162.433722294292
 20
-88.74290000000002
 30
0.0
 11
163.399340979371
 21
-88.74290000000002
 31
0.0
  0
LINE
  5
C8
  8
LAYER_04
 10
163.399340979371
 20
-81.47409058071347
 30
0.0
 11
163.399340979371
 21
-78.61739137802866
 31
0.0
  0
LINE
  5
C9
  8
LAYER_04
 10
163.399340979371
 20
-78.61739137802866
 30
0.0
 11
161.3793496013424
 21
-76.59740000000002
 31
0.0
  0
LINE
  5
CA
  8
LAYER_04
 10
161.3793496013424
 20
-76.59740000000002
 30
0.0
 11
158.5226503986576
 21
-76.59740000000002
 31
0.0
  0
LINE
  5
CB
  8
LAYER_04
 10
158.5226503986576
 20
-76.59740000000002
 30
0.0
 11
156.502659020629
 21
-78.61739137802866
 31
0.0
  0
LINE
  5
CC
  8
LAYER_04
 10
156.502659020629
 20
-78.61739137802866
 30
0.0
 11
156.502659020629
 21
-81.47409058071347
 31
0.0
  0
ENDSEC
  0
EOF
