  0
SECTION
  2
HEADER
  9
$ACADVER
  1
AC1009
  9
$DWGCODEPAGE
  3
mac-roman
  9
$INSBASE
 10
0.0
 20
0.0
 30
0.0
  9
$EXTMIN
 10
132.5002704949563
 20
-127.4995000000544
 30
0.0
  9
$EXTMAX
 10
187.7415
 20
-72.49999999994563
 30
0.0
  9
$LIMMIN
 10
0.0
 20
0.0
  9
$LIMMAX
 10
12.0
 20
9.0
  9
$ORTHOMODE
 70
     0
  9
$REGENMODE
 70
     1
  9
$FILLMODE
 70
     1
  9
$QTEXTMODE
 70
     0
  9
$MIRRTEXT
 70
     1
  9
$DRAGMODE
 70
     2
  9
$LTSCALE
 40
1.0
  9
$OSMODE
 70
    37
  9
$ATTMODE
 70
     1
  9
$TEXTSIZE
 40
0.2
  9
$TRACEWID
 40
0.05
  9
$TEXTSTYLE
  7
STANDARD
  9
$CLAYER
  8
0
  9
$CELTYPE
  6
BYLAYER
  9
$CECOLOR
 62
   256
  9
$DIMSCALE
 40
1.0
  9
$DIMASZ
 40
0.18
  9
$DIMEXO
 40
0.0625
  9
$DIMDLI
 40
0.38
  9
$DIMRND
 40
0.0
  9
$DIMDLE
 40
0.0
  9
$DIMEXE
 40
0.18
  9
$DIMTP
 40
0.0
  9
$DIMTM
 40
0.0
  9
$DIMTXT
 40
0.18
  9
$DIMCEN
 40
0.09
  9
$DIMTSZ
 40
0.0
  9
$DIMTOL
 70
     0
  9
$DIMLIM
 70
     0
  9
$DIMTIH
 70
     1
  9
$DIMTOH
 70
     1
  9
$DIMSE1
 70
     0
  9
$DIMSE2
 70
     0
  9
$DIMTAD
 70
     0
  9
$DIMZIN
 70
     0
  9
$DIMBLK
  1

  9
$DIMASO
 70
     1
  9
$DIMSHO
 70
     1
  9
$DIMPOST
  1

  9
$DIMAPOST
  1

  9
$DIMALT
 70
     0
  9
$DIMALTD
 70
     2
  9
$DIMALTF
 40
25.4
  9
$DIMLFAC
 40
1.0
  9
$DIMTOFL
 70
     0
  9
$DIMTVP
 40
0.0
  9
$DIMTIX
 70
     0
  9
$DIMSOXD
 70
     0
  9
$DIMSAH
 70
     0
  9
$DIMBLK1
  1

  9
$DIMBLK2
  1

  9
$DIMSTYLE
  2
STANDARD
  9
$DIMCLRD
 70
     0
  9
$DIMCLRE
 70
     0
  9
$DIMCLRT
 70
     0
  9
$DIMTFAC
 40
1.0
  9
$DIMGAP
 40
0.09
  9
$LUNITS
 70
     2
  9
$LUPREC
 70
     3
  9
$SKETCHINC
 40
0.1
  9
$FILLETRAD
 40
0.5
  9
$AUNITS
 70
     0
  9
$AUPREC
 70
     0
  9
$MENU
  1
.
  9
$ELEVATION
 40
0.0
  9
$PELEVATION
 40
0.0
  9
$THICKNESS
 40
0.0
  9
$LIMCHECK
 70
     0
  9
$CHAMFERA
 40
0.0
  9
$CHAMFERB
 40
0.0
  9
$SKPOLY
 70
     0
  9
$TDCREATE
 40
2457750.550787037
  9
$TDUPDATE
 40
2457750.550821759
  9
$TDINDWG
 40
0.0000000116
  9
$TDUSRTIMER
 40
0.0000000116
  9
$USRTIMER
 70
     1
  9
$ANGBASE
 50
0.0
  9
$ANGDIR
 70
     0
  9
$PDMODE
 70
     0
  9
$PDSIZE
 40
0.0
  9
$PLINEWID
 40
0.0
  9
$COORDS
 70
     1
  9
$SPLFRAME
 70
     0
  9
$SPLINETYPE
 70
     6
  9
$SPLINESEGS
 70
     8
  9
$ATTDIA
 70
     0
  9
$ATTREQ
 70
     1
  9
$HANDLING
 70
     1
  9
$HANDSEED
  5
C7
  9
$SURFTAB1
 70
     6
  9
$SURFTAB2
 70
     6
  9
$SURFTYPE
 70
     6
  9
$SURFU
 70
     6
  9
$SURFV
 70
     6
  9
$UCSNAME
  2

  9
$UCSORG
 10
0.0
 20
0.0
 30
0.0
  9
$UCSXDIR
 10
1.0
 20
0.0
 30
0.0
  9
$UCSYDIR
 10
0.0
 20
1.0
 30
0.0
  9
$PUCSNAME
  2

  9
$PUCSORG
 10
0.0
 20
0.0
 30
0.0
  9
$PUCSXDIR
 10
1.0
 20
0.0
 30
0.0
  9
$PUCSYDIR
 10
0.0
 20
1.0
 30
0.0
  9
$USERI1
 70
     0
  9
$USERI2
 70
     0
  9
$USERI3
 70
     0
  9
$USERI4
 70
     0
  9
$USERI5
 70
     0
  9
$USERR1
 40
0.0
  9
$USERR2
 40
0.0
  9
$USERR3
 40
0.0
  9
$USERR4
 40
0.0
  9
$USERR5
 40
0.0
  9
$WORLDVIEW
 70
     1
  9
$SHADEDGE
 70
     3
  9
$SHADEDIF
 70
    70
  9
$TILEMODE
 70
     1
  9
$MAXACTVP
 70
    64
  9
$PLIMCHECK
 70
     0
  9
$PEXTMIN
 10
1.000000000000000E+20
 20
1.000000000000000E+20
 30
1.000000000000000E+20
  9
$PEXTMAX
 10
-1.000000000000000E+20
 20
-1.000000000000000E+20
 30
-1.000000000000000E+20
  9
$PLIMMIN
 10
0.0
 20
0.0
  9
$PLIMMAX
 10
12.0
 20
9.0
  9
$UNITMODE
 70
     0
  9
$VISRETAIN
 70
     1
  9
$PLINEGEN
 70
     0
  9
$PSLTSCALE
 70
     1
  0
ENDSEC
  0
SECTION
  2
TABLES
  0
TABLE
  2
VPORT
 70
     1
  0
VPORT
  2
*ACTIVE
 70
     0
 10
0.0
 20
0.0
 11
1.0
 21
1.0
 12
160.1208852474782
 22
-99.99975
 13
0.0
 23
0.0
 14
0.5
 24
0.5
 15
0.5
 25
0.5
 16
0.0
 26
0.0
 36
1.0
 17
0.0
 27
0.0
 37
0.0
 40
56.09949000011093
 41
1.004395121863552
 42
50.0
 43
0.0
 44
0.0
 50
0.0
 51
0.0
 71
     0
 72
   100
 73
     1
 74
     3
 75
     0
 76
     0
 77
     0
 78
     0
  0
ENDTAB
  0
TABLE
  2
LTYPE
 70
     1
  0
LTYPE
  2
CONTINUOUS
 70
     0
  3
Solid line
 72
    65
 73
     0
 40
0.0
  0
ENDTAB
  0
TABLE
  2
LAYER
 70
     2
  0
LAYER
  2
0
 70
     0
 62
     7
  6
CONTINUOUS
  0
LAYER
  2
FLEX
 70
     0
 62
    11
  6
CONTINUOUS
  0
ENDTAB
  0
TABLE
  2
STYLE
 70
     1
  0
STYLE
  2
STANDARD
 70
     0
 40
0.0
 41
1.0
 50
0.0
 71
     0
 42
0.2
  3
txt
  4

  0
ENDTAB
  0
TABLE
  2
VIEW
 70
     0
  0
ENDTAB
  0
TABLE
  2
UCS
 70
     0
  0
ENDTAB
  0
TABLE
  2
APPID
 70
     1
  0
APPID
  2
ACAD
 70
     0
  0
ENDTAB
  0
TABLE
  2
DIMSTYLE
 70
     1
  0
DIMSTYLE
  2
STANDARD
 70
     0
  3

  4

  5

  6

  7

 40
1.0
 41
0.18
 42
0.0625
 43
0.38
 44
0.18
 45
0.0
 46
0.0
 47
0.0
 48
0.0
140
0.18
141
0.09
142
0.0
143
25.4
144
1.0
145
0.0
146
1.0
147
0.09
 71
     0
 72
     0
 73
     1
 74
     1
 75
     0
 76
     0
 77
     0
 78
     0
170
     0
171
     2
172
     0
173
     0
174
     0
175
     0
176
     0
177
     0
178
     0
  0
ENDTAB
  0
ENDSEC
  0
SECTION
  2
BLOCKS
  0
BLOCK
  8
0
  2
$MODEL_SPACE
 70
     0
 10
0.0
 20
0.0
 30
0.0
  3
$MODEL_SPACE
  1

  0
ENDBLK
  5
21
  8
0
  0
BLOCK
 67
     1
  8
0
  2
$PAPER_SPACE
 70
     0
 10
0.0
 20
0.0
 30
0.0
  3
$PAPER_SPACE
  1

  0
ENDBLK
  5
1D
 67
     1
  8
0
  0
ENDSEC
  0
SECTION
  2
ENTITIES
  0
LINE
  5
6F
  8
FLEX
 10
169.9996998487538
 20
-98.99619999999999
 30
0.0
 11
169.9995428932188
 21
-95.85701082287848
 31
0.0
  0
LINE
  5
70
  8
FLEX
 10
169.9995428932188
 20
-95.85701082287848
 30
0.0
 11
164.1412391771216
 21
-89.99929289321884
 31
0.0
  0
LINE
  5
71
  8
FLEX
 10
164.1412391771216
 20
-89.99929289321884
 30
0.0
 11
161.4989999981252
 21
-89.99942500187508
 31
0.0
  0
ARC
  5
72
  8
FLEX
 10
159.9989000025
 20
-87.9994999999995
 30
0.0
 40
2.500000002000332
 50
306.8716163358939
 51
306.8727623288164
  0
LINE
  5
73
  8
FLEX
 10
161.4989599966258
 20
-89.99945500549964
 30
0.0
 11
161.499049996875
 21
-89.82588781630595
 31
0.0
  0
LINE
  5
74
  8
FLEX
 10
161.499049996875
 20
-89.82588781630595
 30
0.0
 11
162.5820378131809
 21
-88.74290000000002
 31
0.0
  0
LINE
  5
75
  8
FLEX
 10
162.5820378131809
 20
-88.74290000000002
 30
0.0
 11
163.399340979371
 21
-88.74290000000002
 31
0.0
  0
LINE
  5
76
  8
FLEX
 10
163.399340979371
 20
-88.74290000000002
 30
0.0
 11
163.399340979371
 21
-81.47409058071347
 31
0.0
  0
LINE
  5
77
  8
FLEX
 10
163.399340979371
 20
-81.47409058071347
 30
0.0
 11
163.399340979371
 21
-78.61739137802866
 31
0.0
  0
LINE
  5
78
  8
FLEX
 10
163.399340979371
 20
-78.61739137802866
 30
0.0
 11
161.3793496013424
 21
-76.59740000000002
 31
0.0
  0
LINE
  5
79
  8
FLEX
 10
161.3793496013424
 20
-76.59740000000002
 30
0.0
 11
158.5226503986576
 21
-76.59740000000002
 31
0.0
  0
LINE
  5
7A
  8
FLEX
 10
158.5226503986576
 20
-76.59740000000002
 30
0.0
 11
156.502659020629
 21
-78.61739137802866
 31
0.0
  0
LINE
  5
7B
  8
FLEX
 10
156.502659020629
 20
-78.61739137802866
 30
0.0
 11
156.502659020629
 21
-81.47409058071347
 31
0.0
  0
LINE
  5
7C
  8
FLEX
 10
156.502659020629
 20
-81.47409058071347
 30
0.0
 11
156.502659020629
 21
-88.74290000000002
 31
0.0
  0
LINE
  5
7D
  8
FLEX
 10
156.502659020629
 20
-88.74290000000002
 30
0.0
 11
157.4160121855688
 21
-88.74290000000002
 31
0.0
  0
LINE
  5
7E
  8
FLEX
 10
157.4160121855688
 20
-88.74290000000002
 30
0.0
 11
158.4990000018747
 21
-89.82588781630595
 31
0.0
  0
LINE
  5
7F
  8
FLEX
 10
158.4990000018747
 20
-89.82588781630595
 30
0.0
 11
158.4990000018747
 21
-89.99957499812486
 31
0.0
  0
LINE
  5
80
  8
FLEX
 10
158.4990000018747
 20
-89.99957499812486
 30
0.0
 11
155.8567608228785
 21
-89.99970710678119
 31
0.0
  0
LINE
  5
81
  8
FLEX
 10
155.8567608228785
 20
-89.99970710678119
 30
0.0
 11
153.98850899682
 21
-91.86814576269299
 31
0.0
  0
LINE
  5
82
  8
FLEX
 10
153.98850899682
 20
-91.86814576269299
 30
0.0
 11
153.3327238997239
 21
-91.86814576269299
 31
0.0
  0
LINE
  5
83
  8
FLEX
 10
153.3327238997239
 20
-91.86814576269299
 30
0.0
 11
138.1692995147655
 21
-76.70472137773459
 31
0.0
  0
LINE
  5
84
  8
FLEX
 10
138.1692995147655
 20
-76.70472137773459
 30
0.0
 11
138.1692995146567
 21
-74.63387765126518
 31
0.0
  0
LINE
  5
85
  8
FLEX
 10
138.1692995146567
 20
-74.63387765126518
 30
0.0
 11
136.035421863113
 21
-72.49999999994563
 31
0.0
  0
LINE
  5
86
  8
FLEX
 10
136.035421863113
 20
-72.49999999994563
 30
0.0
 11
133.9645781366436
 21
-72.5000000000544
 31
0.0
  0
LINE
  5
87
  8
FLEX
 10
133.9645781366436
 20
-72.5000000000544
 30
0.0
 11
132.5002704949563
 21
-73.96430764189545
 31
0.0
  0
LINE
  5
88
  8
FLEX
 10
132.5002704949563
 20
-73.96430764189545
 30
0.0
 11
132.5002704950651
 21
-76.03515136836485
 31
0.0
  0
LINE
  5
89
  8
FLEX
 10
132.5002704950651
 20
-76.03515136836485
 30
0.0
 11
134.6341481466089
 21
-78.1690290196844
 31
0.0
  0
LINE
  5
8A
  8
FLEX
 10
134.6341481466089
 20
-78.1690290196844
 30
0.0
 11
136.7048566255729
 21
-78.16916426708104
 31
0.0
  0
LINE
  5
8B
  8
FLEX
 10
136.7048566255729
 20
-78.16916426708104
 30
0.0
 11
151.8681457646186
 21
-93.33272389795208
 31
0.0
  0
LINE
  5
8C
  8
FLEX
 10
151.8681457646186
 20
-93.33272389795208
 30
0.0
 11
151.8682779655668
 21
-93.98943145372627
 31
0.0
  0
ARC
  5
8D
  8
FLEX
 10
151.5136175867648
 20
-91.51471611136672
 30
0.0
 40
2.500000002000351
 50
278.1329671058895
 51
278.1557310413296
  0
LINE
  5
8E
  8
FLEX
 10
151.8672947192771
 20
-93.98957216696665
 30
0.0
 11
149.9990428932188
 21
-95.85801082287844
 31
0.0
  0
LINE
  5
8F
  8
FLEX
 10
149.9990428932188
 20
-95.85801082287844
 30
0.0
 11
149.9994571067812
 21
-104.1424891771215
 31
0.0
  0
LINE
  5
90
  8
FLEX
 10
149.9994571067812
 20
-104.1424891771215
 30
0.0
 11
151.867895762693
 21
-106.01074100318
 31
0.0
  0
LINE
  5
91
  8
FLEX
 10
151.867895762693
 20
-106.01074100318
 30
0.0
 11
149.6290845617179
 21
-108.2499999999807
 31
0.0
  0
LINE
  5
92
  8
FLEX
 10
149.6290845617179
 20
-108.2499999999807
 30
0.0
 11
146.0931457504865
 21
-108.2500000000067
 31
0.0
  0
LINE
  5
93
  8
FLEX
 10
146.0931457504865
 20
-108.2500000000067
 30
0.0
 11
142.2499999999934
 21
-112.0931457505287
 31
0.0
  0
LINE
  5
94
  8
FLEX
 10
142.2499999999934
 20
-112.0931457505287
 30
0.0
 11
142.2500000000119
 21
-114.6139610306788
 31
0.0
  0
LINE
  5
95
  8
FLEX
 10
142.2500000000119
 20
-114.6139610306788
 30
0.0
 11
145.386038969321
 21
-117.7500000000119
 31
0.0
  0
LINE
  5
96
  8
FLEX
 10
145.386038969321
 20
-117.7500000000119
 30
0.0
 11
147.9068542495135
 21
-117.7499999999933
 31
0.0
  0
LINE
  5
97
  8
FLEX
 10
147.9068542495135
 20
-117.7499999999933
 30
0.0
 11
151.7500000000067
 21
-113.9068542494713
 31
0.0
  0
LINE
  5
98
  8
FLEX
 10
151.7500000000067
 20
-113.9068542494713
 30
0.0
 11
151.7499999999806
 21
-110.3712774477089
 31
0.0
  0
LINE
  5
99
  8
FLEX
 10
151.7499999999806
 20
-110.3712774477089
 30
0.0
 11
153.9893221669667
 21
-108.1319552807229
 31
0.0
  0
LINE
  5
9A
  8
FLEX
 10
153.9893221669667
 20
-108.1319552807229
 30
0.0
 11
155.8577608228784
 21
-110.0002071067812
 31
0.0
  0
LINE
  5
9B
  8
FLEX
 10
155.8577608228784
 20
-110.0002071067812
 30
0.0
 11
164.1422391771216
 21
-109.9997928932188
 31
0.0
  0
LINE
  5
9C
  8
FLEX
 10
164.1422391771216
 20
-109.9997928932188
 30
0.0
 11
166.01049100318
 21
-108.131354237307
 31
0.0
  0
LINE
  5
9D
  8
FLEX
 10
166.01049100318
 20
-108.131354237307
 30
0.0
 11
166.6662761002761
 21
-108.131354237307
 31
0.0
  0
LINE
  5
9E
  8
FLEX
 10
166.6662761002761
 20
-108.131354237307
 30
0.0
 11
181.8297004852345
 21
-123.2947786222654
 31
0.0
  0
LINE
  5
9F
  8
FLEX
 10
181.8297004852345
 20
-123.2947786222654
 30
0.0
 11
181.8297004853433
 21
-125.3656223487348
 31
0.0
  0
LINE
  5
A0
  8
FLEX
 10
181.8297004853433
 20
-125.3656223487348
 30
0.0
 11
183.9635781368871
 21
-127.4995000000544
 31
0.0
  0
LINE
  5
A1
  8
FLEX
 10
183.9635781368871
 20
-127.4995000000544
 30
0.0
 11
186.0344218633564
 21
-127.4994999999456
 31
0.0
  0
LINE
  5
A2
  8
FLEX
 10
186.0344218633564
 20
-127.4994999999456
 30
0.0
 11
187.4987295050437
 21
-126.0351923581046
 31
0.0
  0
LINE
  5
A3
  8
FLEX
 10
187.4987295050437
 20
-126.0351923581046
 30
0.0
 11
187.4987295049349
 21
-123.9643486316352
 31
0.0
  0
LINE
  5
A4
  8
FLEX
 10
187.4987295049349
 20
-123.9643486316352
 30
0.0
 11
185.3648518533911
 21
-121.8304709803156
 31
0.0
  0
LINE
  5
A5
  8
FLEX
 10
185.3648518533911
 20
-121.8304709803156
 30
0.0
 11
183.2941433744271
 21
-121.830335732919
 31
0.0
  0
LINE
  5
A6
  8
FLEX
 10
183.2941433744271
 20
-121.830335732919
 30
0.0
 11
168.1308542353814
 21
-106.6667761020479
 31
0.0
  0
LINE
  5
A7
  8
FLEX
 10
168.1308542353814
 20
-106.6667761020479
 30
0.0
 11
168.1307220328353
 21
-106.0100685465028
 31
0.0
  0
ARC
  5
A8
  8
FLEX
 10
168.4853824132352
 20
-108.4847838886333
 30
0.0
 40
2.500000002000351
 50
98.13296710588955
 51
98.15573107832618
  0
LINE
  5
A9
  8
FLEX
 10
168.1317052807227
 20
-106.0099278330334
 30
0.0
 11
169.9999571067812
 21
-104.1414891771216
 31
0.0
  0
LINE
  5
AA
  8
FLEX
 10
169.9999571067812
 20
-104.1414891771216
 30
0.0
 11
169.9998002362441
 21
-101.004
 31
0.0
  0
LINE
  5
AB
  8
FLEX
 10
169.9998002362441
 20
-101.004
 30
0.0
 11
171.5705540092001
 21
-101.004
 31
0.0
  0
LINE
  5
AC
  8
FLEX
 10
171.5705540092001
 20
-101.004
 30
0.0
 11
171.5705540092001
 21
-104.4571747052412
 31
0.0
  0
LINE
  5
AD
  8
FLEX
 10
171.5705540092001
 20
-104.4571747052412
 30
0.0
 11
171.5708757864678
 21
-105.703150481946
 31
0.0
  0
LINE
  5
AE
  8
FLEX
 10
171.5708757864678
 20
-105.703150481946
 30
0.0
 11
172.4521412382578
 21
-106.5839608719601
 31
0.0
  0
LINE
  5
AF
  8
FLEX
 10
172.4521412382578
 20
-106.5839608719601
 30
0.0
 11
173.6532379813739
 21
-106.5836506848479
 31
0.0
  0
LINE
  5
B0
  8
FLEX
 10
173.6532379813738
 20
-106.5836506848478
 30
0.0
 11
182.2415
 21
-115.171912703474
 31
0.0
  0
LINE
  5
B1
  8
FLEX
 10
182.2415
 20
-115.171912703474
 30
0.0
 11
182.2415
 21
-117.450087296526
 31
0.0
  0
LINE
  5
B2
  8
FLEX
 10
182.2415
 20
-117.450087296526
 30
0.0
 11
183.852412703474
 21
-119.061
 31
0.0
  0
LINE
  5
B3
  8
FLEX
 10
183.852412703474
 20
-119.061
 30
0.0
 11
186.130587296526
 21
-119.061
 31
0.0
  0
LINE
  5
B4
  8
FLEX
 10
186.130587296526
 20
-119.061
 30
0.0
 11
187.7415
 21
-117.450087296526
 31
0.0
  0
LINE
  5
B5
  8
FLEX
 10
187.7415
 20
-117.450087296526
 30
0.0
 11
187.7415
 21
-115.171912703474
 31
0.0
  0
LINE
  5
B6
  8
FLEX
 10
187.7415
 20
-115.171912703474
 30
0.0
 11
186.130587296526
 21
-113.561
 31
0.0
  0
LINE
  5
B7
  8
FLEX
 10
186.130587296526
 20
-113.561
 30
0.0
 11
183.852412703474
 21
-113.561
 31
0.0
  0
LINE
  5
B8
  8
FLEX
 10
183.852412703474
 20
-113.561
 30
0.0
 11
178.075
 21
-107.783587296526
 31
0.0
  0
LINE
  5
B9
  8
FLEX
 10
178.075
 20
-107.783587296526
 30
0.0
 11
178.075
 21
-97.79550516265357
 31
0.0
  0
LINE
  5
BA
  8
FLEX
 10
178.075
 20
-97.79550516265357
 30
0.0
 11
173.6981170149625
 21
-93.41636090530749
 31
0.0
  0
LINE
  5
BB
  8
FLEX
 10
173.6981170149625
 20
-93.41636090530749
 30
0.0
 11
172.4521412382578
 21
-93.41603912803988
 31
0.0
  0
LINE
  5
BC
  8
FLEX
 10
172.4521412382578
 20
-93.41603912803988
 30
0.0
 11
171.5708757864678
 21
-94.29684951805403
 31
0.0
  0
LINE
  5
BD
  8
FLEX
 10
171.5708757864678
 20
-94.29684951805403
 30
0.0
 11
171.5705540092001
 21
-95.54282529475877
 31
0.0
  0
LINE
  5
BE
  8
FLEX
 10
171.5705540092001
 20
-95.54282529475877
 30
0.0
 11
171.5705540092001
 21
-98.99619999999999
 31
0.0
  0
LINE
  5
BF
  8
FLEX
 10
171.5705540092001
 20
-98.99619999999999
 30
0.0
 11
169.9996998487538
 21
-98.99619999999999
 31
0.0
  0
ENDSEC
  0
EOF
