%
M48
M72
T01C0.01600
T02C0.06350
%
T01
X32950Y23050
X24550Y27550
X24550Y31550
X24550Y35450
X24550Y39450
X32950Y37850
X32950Y32250
X39450Y45150
X46550Y45050
X60250Y45050
X68150Y45050
X71450Y49350
X83550Y60750
X83550Y63950
X83550Y67150
X83550Y70350
X83550Y73550
X83550Y76750
X88950Y76750
X88950Y73550
X88950Y70350
X88950Y67150
X88950Y63950
X88950Y60750
X100950Y64650
X104250Y68950
X112150Y68950
X107150Y76850
X118650Y86650
X118650Y90650
X139450Y90950
X147850Y86450
X147850Y82450
X147850Y78550
X147850Y74550
X139450Y76150
X139450Y81750
X132950Y68850
X125850Y68950
X126350Y59750
X123150Y59750
X119950Y59750
X119950Y54350
X123150Y54350
X126350Y54350
X129550Y54350
X132750Y54350
X135950Y54350
X135950Y59750
X132750Y59750
X129550Y59750
X155450Y65750
X139450Y36450
X147850Y31950
X147850Y27950
X147850Y24050
X147850Y20050
X139450Y21650
X139450Y27250
X132950Y14350
X125850Y14450
X112150Y14450
X104250Y14450
X100950Y10150
X107150Y22350
X118650Y32150
X118650Y36150
X155450Y11250
X65250Y37150
X53750Y27350
X53750Y23350
X16950Y48250
X36450Y54350
X39650Y54350
X42850Y54350
X46050Y54350
X49250Y54350
X52450Y54350
X52450Y59750
X49250Y59750
X46050Y59750
X42850Y59750
X39650Y59750
X36450Y59750
X32950Y77550
X24550Y82050
X24550Y86050
X24550Y89950
X24550Y93950
X32950Y92350
X32950Y86750
X39450Y99650
X46550Y99550
X60250Y99550
X68150Y99550
X71450Y103850
X65250Y91650
X53750Y81850
X53750Y77850
X16950Y102750
T02
X26650Y10550
X78450Y29550
X93950Y29950
X145750Y10950
X145750Y48950
X145750Y65450
X93950Y84450
X78450Y84050
X26650Y65050
X26650Y48550
X26650Y103050
X145750Y103450
M30
