G75*
%MOIN*%
%OFA0B0*%
%FSLAX25Y25*%
%IPPOS*%
%LPD*%
%AMOC8*
5,1,8,0,0,1.08239X$1,22.5*
%
%ADD10R,0.01969X0.04134*%
%ADD11R,0.01063X0.01772*%
%ADD12R,0.01772X0.01063*%
%ADD13R,0.03937X0.04331*%
%ADD14R,0.06102X0.02362*%
%ADD15R,0.07087X0.04724*%
%ADD16R,0.02362X0.06102*%
%ADD17R,0.04724X0.07087*%
%ADD18C,0.01181*%
%ADD19C,0.01000*%
%ADD20C,0.01500*%
%ADD21OC8,0.03200*%
%ADD22C,0.00600*%
%ADD23C,0.00800*%
%ADD24C,0.09600*%
%ADD25C,0.00700*%
%ADD26C,0.01600*%
D10*
X0035710Y0032719D03*
X0039450Y0032719D03*
X0043190Y0032719D03*
X0043190Y0041381D03*
X0039450Y0041381D03*
X0035710Y0041381D03*
X0035710Y0087219D03*
X0039450Y0087219D03*
X0043190Y0087219D03*
X0043190Y0095881D03*
X0039450Y0095881D03*
X0035710Y0095881D03*
X0129210Y0081281D03*
X0132950Y0081281D03*
X0136690Y0081281D03*
X0136690Y0072619D03*
X0132950Y0072619D03*
X0129210Y0072619D03*
X0129210Y0026781D03*
X0132950Y0026781D03*
X0136690Y0026781D03*
X0136690Y0018119D03*
X0132950Y0018119D03*
X0129210Y0018119D03*
D11*
X0113875Y0017627D03*
X0112182Y0017627D03*
X0110489Y0017627D03*
X0108796Y0017627D03*
X0107104Y0017627D03*
X0105411Y0017627D03*
X0103718Y0017627D03*
X0102025Y0017627D03*
X0102025Y0027273D03*
X0103718Y0027273D03*
X0105411Y0027273D03*
X0107104Y0027273D03*
X0108796Y0027273D03*
X0110489Y0027273D03*
X0112182Y0027273D03*
X0113875Y0027273D03*
X0070375Y0032227D03*
X0068682Y0032227D03*
X0066989Y0032227D03*
X0065296Y0032227D03*
X0063604Y0032227D03*
X0061911Y0032227D03*
X0060218Y0032227D03*
X0058525Y0032227D03*
X0058525Y0041873D03*
X0060218Y0041873D03*
X0061911Y0041873D03*
X0063604Y0041873D03*
X0065296Y0041873D03*
X0066989Y0041873D03*
X0068682Y0041873D03*
X0070375Y0041873D03*
X0102025Y0072127D03*
X0103718Y0072127D03*
X0105411Y0072127D03*
X0107104Y0072127D03*
X0108796Y0072127D03*
X0110489Y0072127D03*
X0112182Y0072127D03*
X0113875Y0072127D03*
X0113875Y0081773D03*
X0112182Y0081773D03*
X0110489Y0081773D03*
X0108796Y0081773D03*
X0107104Y0081773D03*
X0105411Y0081773D03*
X0103718Y0081773D03*
X0102025Y0081773D03*
X0070375Y0086727D03*
X0068682Y0086727D03*
X0066989Y0086727D03*
X0065296Y0086727D03*
X0063604Y0086727D03*
X0061911Y0086727D03*
X0060218Y0086727D03*
X0058525Y0086727D03*
X0058525Y0096373D03*
X0060218Y0096373D03*
X0061911Y0096373D03*
X0063604Y0096373D03*
X0065296Y0096373D03*
X0066989Y0096373D03*
X0068682Y0096373D03*
X0070375Y0096373D03*
D12*
X0070257Y0094089D03*
X0070257Y0092396D03*
X0070257Y0090704D03*
X0070257Y0089011D03*
X0058643Y0089011D03*
X0058643Y0090704D03*
X0058643Y0092396D03*
X0058643Y0094089D03*
X0102143Y0079489D03*
X0102143Y0077796D03*
X0102143Y0076104D03*
X0102143Y0074411D03*
X0113757Y0074411D03*
X0113757Y0076104D03*
X0113757Y0077796D03*
X0113757Y0079489D03*
X0070257Y0039589D03*
X0070257Y0037896D03*
X0070257Y0036204D03*
X0070257Y0034511D03*
X0058643Y0034511D03*
X0058643Y0036204D03*
X0058643Y0037896D03*
X0058643Y0039589D03*
X0102143Y0024989D03*
X0102143Y0023296D03*
X0102143Y0021604D03*
X0102143Y0019911D03*
X0113757Y0019911D03*
X0113757Y0021604D03*
X0113757Y0023296D03*
X0113757Y0024989D03*
D13*
X0122150Y0020396D03*
X0122150Y0013704D03*
X0050250Y0039104D03*
X0050250Y0045796D03*
X0122150Y0068204D03*
X0122150Y0074896D03*
X0050250Y0093604D03*
X0050250Y0100296D03*
D14*
X0019550Y0097830D03*
X0019550Y0093893D03*
X0019550Y0089956D03*
X0019550Y0086019D03*
X0019550Y0082081D03*
X0019550Y0078144D03*
X0019550Y0074207D03*
X0019550Y0070270D03*
X0019550Y0043330D03*
X0019550Y0039393D03*
X0019550Y0035456D03*
X0019550Y0031519D03*
X0019550Y0027581D03*
X0019550Y0023644D03*
X0019550Y0019707D03*
X0019550Y0015770D03*
X0152850Y0016170D03*
X0152850Y0020107D03*
X0152850Y0024044D03*
X0152850Y0027981D03*
X0152850Y0031919D03*
X0152850Y0035856D03*
X0152850Y0039793D03*
X0152850Y0043730D03*
X0152850Y0070670D03*
X0152850Y0074607D03*
X0152850Y0078544D03*
X0152850Y0082481D03*
X0152850Y0086419D03*
X0152850Y0090356D03*
X0152850Y0094293D03*
X0152850Y0098230D03*
D15*
X0162791Y0103348D03*
X0162791Y0065552D03*
X0162791Y0048848D03*
X0162791Y0011052D03*
X0009609Y0010652D03*
X0009609Y0048448D03*
X0009609Y0065152D03*
X0009609Y0102948D03*
D16*
X0038070Y0065650D03*
X0042007Y0065650D03*
X0045944Y0065650D03*
X0049881Y0065650D03*
X0053819Y0065650D03*
X0057756Y0065650D03*
X0061693Y0065650D03*
X0065630Y0065650D03*
X0106770Y0048350D03*
X0110707Y0048350D03*
X0114644Y0048350D03*
X0118581Y0048350D03*
X0122519Y0048350D03*
X0126456Y0048350D03*
X0130393Y0048350D03*
X0134330Y0048350D03*
X0065630Y0011150D03*
X0061693Y0011150D03*
X0057756Y0011150D03*
X0053819Y0011150D03*
X0049881Y0011150D03*
X0045944Y0011150D03*
X0042007Y0011150D03*
X0038070Y0011150D03*
X0106770Y0102850D03*
X0110707Y0102850D03*
X0114644Y0102850D03*
X0118581Y0102850D03*
X0122519Y0102850D03*
X0126456Y0102850D03*
X0130393Y0102850D03*
X0134330Y0102850D03*
D17*
X0139448Y0092909D03*
X0101652Y0092909D03*
X0070748Y0075591D03*
X0032952Y0075591D03*
X0101652Y0038409D03*
X0070748Y0021091D03*
X0032952Y0021091D03*
X0139448Y0038409D03*
D18*
X0113481Y0063272D02*
X0113481Y0066028D01*
X0113481Y0063272D02*
X0110725Y0063272D01*
X0110725Y0066028D01*
X0113481Y0066028D01*
X0113481Y0064452D02*
X0110725Y0064452D01*
X0110725Y0065632D02*
X0113481Y0065632D01*
X0106575Y0066028D02*
X0106575Y0063272D01*
X0103819Y0063272D01*
X0103819Y0066028D01*
X0106575Y0066028D01*
X0106575Y0064452D02*
X0103819Y0064452D01*
X0103819Y0065632D02*
X0106575Y0065632D01*
X0065825Y0050728D02*
X0065825Y0047972D01*
X0065825Y0050728D02*
X0068581Y0050728D01*
X0068581Y0047972D01*
X0065825Y0047972D01*
X0065825Y0049152D02*
X0068581Y0049152D01*
X0068581Y0050332D02*
X0065825Y0050332D01*
X0058919Y0050728D02*
X0058919Y0047972D01*
X0058919Y0050728D02*
X0061675Y0050728D01*
X0061675Y0047972D01*
X0058919Y0047972D01*
X0058919Y0049152D02*
X0061675Y0049152D01*
X0061675Y0050332D02*
X0058919Y0050332D01*
X0106575Y0011528D02*
X0106575Y0008772D01*
X0103819Y0008772D01*
X0103819Y0011528D01*
X0106575Y0011528D01*
X0106575Y0009952D02*
X0103819Y0009952D01*
X0103819Y0011132D02*
X0106575Y0011132D01*
X0113481Y0011528D02*
X0113481Y0008772D01*
X0110725Y0008772D01*
X0110725Y0011528D01*
X0113481Y0011528D01*
X0113481Y0009952D02*
X0110725Y0009952D01*
X0110725Y0011132D02*
X0113481Y0011132D01*
X0065825Y0102472D02*
X0065825Y0105228D01*
X0068581Y0105228D01*
X0068581Y0102472D01*
X0065825Y0102472D01*
X0065825Y0103652D02*
X0068581Y0103652D01*
X0068581Y0104832D02*
X0065825Y0104832D01*
X0058919Y0105228D02*
X0058919Y0102472D01*
X0058919Y0105228D02*
X0061675Y0105228D01*
X0061675Y0102472D01*
X0058919Y0102472D01*
X0058919Y0103652D02*
X0061675Y0103652D01*
X0061675Y0104832D02*
X0058919Y0104832D01*
D19*
X0060297Y0103850D02*
X0060297Y0103603D01*
X0061650Y0102250D01*
X0058950Y0102250D01*
X0057450Y0100750D01*
X0057450Y0100296D01*
X0050250Y0100296D01*
X0046550Y0099550D02*
X0045350Y0099950D01*
X0045350Y0092850D01*
X0044750Y0092250D01*
X0041450Y0092250D01*
X0039450Y0090250D01*
X0039450Y0087219D01*
X0035779Y0086750D02*
X0032950Y0086750D01*
X0035710Y0087219D02*
X0035779Y0086750D01*
X0030550Y0083950D02*
X0024550Y0089950D01*
X0019556Y0089950D01*
X0019550Y0089956D01*
X0024550Y0086050D02*
X0028350Y0082250D01*
X0047250Y0082250D01*
X0047250Y0086850D01*
X0048950Y0088550D01*
X0054450Y0088550D01*
X0055250Y0089350D01*
X0055250Y0090704D01*
X0058643Y0090704D01*
X0058643Y0089011D02*
X0057311Y0089011D01*
X0055150Y0086850D01*
X0050050Y0086850D01*
X0049050Y0085850D01*
X0049050Y0081350D01*
X0048250Y0080550D01*
X0026050Y0080550D01*
X0024550Y0082050D01*
X0030550Y0083950D02*
X0045450Y0083950D01*
X0045450Y0087650D01*
X0048050Y0090250D01*
X0053450Y0090250D01*
X0053450Y0093989D01*
X0053550Y0094089D01*
X0058643Y0094089D01*
X0058643Y0092396D02*
X0061911Y0092396D01*
X0061911Y0096373D01*
X0063050Y0096373D01*
X0063050Y0100850D01*
X0061650Y0102250D01*
X0060250Y0099550D02*
X0060218Y0099550D01*
X0060218Y0096373D01*
X0061911Y0096373D02*
X0063604Y0096373D01*
X0065296Y0096373D02*
X0065296Y0097896D01*
X0065296Y0098496D02*
X0065296Y0096373D01*
X0066989Y0096373D02*
X0068682Y0096373D01*
X0070375Y0096373D01*
X0070375Y0094207D01*
X0070257Y0094089D01*
X0070257Y0092396D01*
X0070257Y0090704D01*
X0070257Y0089011D01*
X0070375Y0086727D02*
X0070375Y0080575D01*
X0061693Y0071893D01*
X0061693Y0065650D01*
X0057756Y0065650D02*
X0057756Y0070356D01*
X0068682Y0081282D01*
X0068682Y0086727D01*
X0066989Y0086727D02*
X0066989Y0081989D01*
X0053819Y0068819D01*
X0053819Y0065650D01*
X0049881Y0065650D02*
X0049881Y0069919D01*
X0049850Y0069950D01*
X0052450Y0069950D01*
X0065296Y0082796D01*
X0065296Y0086727D01*
X0063604Y0086727D02*
X0063604Y0083704D01*
X0051650Y0071750D01*
X0047150Y0071750D01*
X0045944Y0070544D01*
X0045944Y0065650D01*
X0042007Y0065650D02*
X0042007Y0073207D01*
X0042450Y0073650D01*
X0051050Y0073650D01*
X0053750Y0076350D01*
X0053750Y0077850D01*
X0055250Y0077850D01*
X0061911Y0084511D01*
X0061911Y0086727D01*
X0060218Y0086727D02*
X0060218Y0085418D01*
X0056650Y0081850D01*
X0053750Y0081850D01*
X0050850Y0083550D02*
X0050850Y0077750D01*
X0048450Y0075350D01*
X0038070Y0075350D01*
X0038070Y0065650D01*
X0032950Y0077550D02*
X0032356Y0078144D01*
X0019550Y0078144D01*
X0019644Y0078050D01*
X0032950Y0092350D02*
X0035710Y0092350D01*
X0035710Y0095881D01*
X0033450Y0097050D02*
X0030350Y0093950D01*
X0024650Y0093950D01*
X0024550Y0093950D01*
X0019607Y0093950D01*
X0019550Y0093893D01*
X0033450Y0097050D02*
X0033450Y0098250D01*
X0034550Y0099350D01*
X0035250Y0099350D01*
X0038250Y0102350D01*
X0040550Y0102350D01*
X0043190Y0099710D01*
X0043190Y0095881D01*
X0043150Y0095881D01*
X0039450Y0095881D02*
X0039450Y0099650D01*
X0039450Y0099950D01*
X0048704Y0093604D02*
X0045150Y0090050D01*
X0043190Y0090050D01*
X0043190Y0087219D01*
X0050850Y0083550D02*
X0052450Y0085150D01*
X0056150Y0085150D01*
X0057727Y0086727D01*
X0058525Y0086727D01*
X0060650Y0090750D02*
X0064350Y0090750D01*
X0065250Y0091650D01*
X0058525Y0096373D02*
X0057450Y0097448D01*
X0057450Y0100296D01*
X0065296Y0098496D02*
X0066350Y0099550D01*
X0068150Y0099550D01*
X0067203Y0103850D02*
X0071450Y0103850D01*
X0050250Y0093604D02*
X0048704Y0093604D01*
X0100950Y0064650D02*
X0105197Y0064650D01*
X0109350Y0067650D02*
X0110750Y0066250D01*
X0112103Y0064897D01*
X0112103Y0064650D01*
X0113450Y0066250D02*
X0110750Y0066250D01*
X0109350Y0067650D02*
X0109350Y0072127D01*
X0110489Y0072127D01*
X0110489Y0076104D01*
X0113757Y0076104D01*
X0113757Y0074411D02*
X0118850Y0074411D01*
X0118950Y0074511D01*
X0118950Y0078250D01*
X0124350Y0078250D01*
X0126950Y0080850D01*
X0126950Y0084550D01*
X0141850Y0084550D01*
X0147850Y0078550D01*
X0152844Y0078550D01*
X0152850Y0078544D01*
X0152850Y0074607D02*
X0152793Y0074550D01*
X0147850Y0074550D01*
X0147750Y0074550D01*
X0142050Y0074550D01*
X0138950Y0071450D01*
X0138950Y0070250D01*
X0137850Y0069150D01*
X0137150Y0069150D01*
X0134150Y0066150D01*
X0131850Y0066150D01*
X0129210Y0068790D01*
X0129210Y0072619D01*
X0129250Y0072619D01*
X0132950Y0072619D02*
X0132950Y0068850D01*
X0132950Y0068550D01*
X0136690Y0072619D02*
X0136690Y0076150D01*
X0139450Y0076150D01*
X0132950Y0078250D02*
X0130950Y0076250D01*
X0127650Y0076250D01*
X0127050Y0075650D01*
X0127050Y0068550D01*
X0125850Y0068950D01*
X0122150Y0068204D02*
X0114950Y0068204D01*
X0114950Y0071052D01*
X0113875Y0072127D01*
X0112182Y0072127D02*
X0112182Y0068950D01*
X0112150Y0068950D01*
X0114950Y0068204D02*
X0114950Y0067750D01*
X0113450Y0066250D01*
X0107104Y0070004D02*
X0107104Y0072127D01*
X0107104Y0070604D01*
X0107104Y0070004D02*
X0106050Y0068950D01*
X0104250Y0068950D01*
X0103718Y0072127D02*
X0102025Y0072127D01*
X0102025Y0074293D01*
X0102143Y0074411D01*
X0102143Y0076104D01*
X0102143Y0077796D01*
X0102143Y0079489D01*
X0102025Y0081773D02*
X0102025Y0087925D01*
X0110707Y0096607D01*
X0110707Y0102850D01*
X0114644Y0102850D02*
X0114644Y0098144D01*
X0103718Y0087218D01*
X0103718Y0081773D01*
X0105411Y0081773D02*
X0105411Y0086511D01*
X0118581Y0099681D01*
X0118581Y0102850D01*
X0122519Y0102850D02*
X0122519Y0098581D01*
X0122550Y0098550D01*
X0119950Y0098550D01*
X0107104Y0085704D01*
X0107104Y0081773D01*
X0108796Y0081773D02*
X0108796Y0084796D01*
X0120750Y0096750D01*
X0125250Y0096750D01*
X0126456Y0097956D01*
X0126456Y0102850D01*
X0130393Y0102850D02*
X0130393Y0095293D01*
X0129950Y0094850D01*
X0121350Y0094850D01*
X0118650Y0092150D01*
X0118650Y0090650D01*
X0117150Y0090650D01*
X0110489Y0083989D01*
X0110489Y0081773D01*
X0112182Y0081773D02*
X0112182Y0083082D01*
X0115750Y0086650D01*
X0118650Y0086650D01*
X0121550Y0084950D02*
X0121550Y0090750D01*
X0123950Y0093150D01*
X0134330Y0093150D01*
X0134330Y0102850D01*
X0139450Y0090950D02*
X0140044Y0090356D01*
X0152850Y0090356D01*
X0152756Y0090450D01*
X0147850Y0086450D02*
X0146350Y0087950D01*
X0124150Y0087950D01*
X0123350Y0087150D01*
X0123350Y0082650D01*
X0122350Y0081650D01*
X0117250Y0081650D01*
X0115089Y0079489D01*
X0113757Y0079489D01*
X0113757Y0077796D02*
X0117150Y0077796D01*
X0117150Y0079150D01*
X0117950Y0079950D01*
X0123450Y0079950D01*
X0125150Y0081650D01*
X0125150Y0086250D01*
X0144050Y0086250D01*
X0147850Y0082450D01*
X0139450Y0081750D02*
X0136621Y0081750D01*
X0136690Y0081281D01*
X0132950Y0081281D02*
X0132950Y0078250D01*
X0129210Y0078450D02*
X0129210Y0081281D01*
X0129210Y0078450D02*
X0127250Y0078450D01*
X0123696Y0074896D01*
X0122150Y0074896D01*
X0114673Y0081773D02*
X0116250Y0083350D01*
X0119950Y0083350D01*
X0121550Y0084950D01*
X0114673Y0081773D02*
X0113875Y0081773D01*
X0111750Y0077750D02*
X0108050Y0077750D01*
X0107150Y0076850D01*
X0108796Y0072127D02*
X0110489Y0072127D01*
X0105411Y0072127D02*
X0103718Y0072127D01*
X0071450Y0049350D02*
X0067203Y0049350D01*
X0063050Y0046350D02*
X0061650Y0047750D01*
X0060297Y0049103D01*
X0060297Y0049350D01*
X0058950Y0047750D02*
X0057450Y0046250D01*
X0057450Y0045796D01*
X0050250Y0045796D01*
X0046550Y0045050D02*
X0045350Y0045450D01*
X0045350Y0038350D01*
X0044750Y0037750D01*
X0041450Y0037750D01*
X0039450Y0035750D01*
X0039450Y0032719D01*
X0035779Y0032250D02*
X0032950Y0032250D01*
X0035710Y0032719D02*
X0035779Y0032250D01*
X0030550Y0029450D02*
X0024550Y0035450D01*
X0019556Y0035450D01*
X0019550Y0035456D01*
X0019550Y0039393D02*
X0019607Y0039450D01*
X0024550Y0039450D01*
X0024650Y0039450D01*
X0030350Y0039450D01*
X0033450Y0042550D01*
X0033450Y0043750D01*
X0034550Y0044850D01*
X0035250Y0044850D01*
X0038250Y0047850D01*
X0040550Y0047850D01*
X0043190Y0045210D01*
X0043190Y0041381D01*
X0043150Y0041381D01*
X0039450Y0041381D02*
X0039450Y0045150D01*
X0039450Y0045450D01*
X0035710Y0041381D02*
X0035710Y0037850D01*
X0032950Y0037850D01*
X0043190Y0035550D02*
X0043190Y0032719D01*
X0045450Y0033150D02*
X0048050Y0035750D01*
X0053450Y0035750D01*
X0053450Y0039489D01*
X0053550Y0039589D01*
X0058643Y0039589D01*
X0058643Y0037896D02*
X0061911Y0037896D01*
X0061911Y0041873D01*
X0063050Y0041873D01*
X0063050Y0046350D01*
X0061650Y0047750D02*
X0058950Y0047750D01*
X0057450Y0045796D02*
X0057450Y0042948D01*
X0058525Y0041873D01*
X0060218Y0041873D02*
X0060218Y0045050D01*
X0060250Y0045050D01*
X0061911Y0041873D02*
X0063604Y0041873D01*
X0065296Y0041873D02*
X0065296Y0043996D01*
X0066350Y0045050D01*
X0068150Y0045050D01*
X0065296Y0043396D02*
X0065296Y0041873D01*
X0066989Y0041873D02*
X0068682Y0041873D01*
X0070375Y0041873D01*
X0070375Y0039707D01*
X0070257Y0039589D01*
X0070257Y0037896D01*
X0070257Y0036204D01*
X0070257Y0034511D01*
X0070375Y0032227D02*
X0070375Y0026075D01*
X0061693Y0017393D01*
X0061693Y0011150D01*
X0057756Y0011150D02*
X0057756Y0015856D01*
X0068682Y0026782D01*
X0068682Y0032227D01*
X0066989Y0032227D02*
X0066989Y0027489D01*
X0053819Y0014319D01*
X0053819Y0011150D01*
X0049881Y0011150D02*
X0049881Y0015419D01*
X0049850Y0015450D01*
X0052450Y0015450D01*
X0065296Y0028296D01*
X0065296Y0032227D01*
X0063604Y0032227D02*
X0063604Y0029204D01*
X0051650Y0017250D01*
X0047150Y0017250D01*
X0045944Y0016044D01*
X0045944Y0011150D01*
X0042007Y0011150D02*
X0042007Y0018707D01*
X0042450Y0019150D01*
X0051050Y0019150D01*
X0053750Y0021850D01*
X0053750Y0023350D01*
X0055250Y0023350D01*
X0061911Y0030011D01*
X0061911Y0032227D01*
X0060218Y0032227D02*
X0060218Y0030918D01*
X0056650Y0027350D01*
X0053750Y0027350D01*
X0050850Y0029050D02*
X0050850Y0023250D01*
X0048450Y0020850D01*
X0038070Y0020850D01*
X0038070Y0011150D01*
X0032950Y0023050D02*
X0032356Y0023644D01*
X0019550Y0023644D01*
X0019644Y0023550D01*
X0024550Y0027550D02*
X0026050Y0026050D01*
X0048250Y0026050D01*
X0049050Y0026850D01*
X0049050Y0031350D01*
X0050050Y0032350D01*
X0055150Y0032350D01*
X0057311Y0034511D01*
X0058643Y0034511D01*
X0058643Y0036204D02*
X0055250Y0036204D01*
X0055250Y0034850D01*
X0054450Y0034050D01*
X0048950Y0034050D01*
X0047250Y0032350D01*
X0047250Y0027750D01*
X0028350Y0027750D01*
X0024550Y0031550D01*
X0030550Y0029450D02*
X0045450Y0029450D01*
X0045450Y0033150D01*
X0045150Y0035550D02*
X0043190Y0035550D01*
X0045150Y0035550D02*
X0048704Y0039104D01*
X0050250Y0039104D01*
X0057727Y0032227D02*
X0056150Y0030650D01*
X0052450Y0030650D01*
X0050850Y0029050D01*
X0057727Y0032227D02*
X0058525Y0032227D01*
X0060650Y0036250D02*
X0064350Y0036250D01*
X0065250Y0037150D01*
X0102025Y0033425D02*
X0102025Y0027273D01*
X0103718Y0027273D02*
X0103718Y0032718D01*
X0114644Y0043644D01*
X0114644Y0048350D01*
X0110707Y0048350D02*
X0110707Y0042107D01*
X0102025Y0033425D01*
X0105411Y0032011D02*
X0118581Y0045181D01*
X0118581Y0048350D01*
X0122519Y0048350D02*
X0122519Y0044081D01*
X0122550Y0044050D01*
X0119950Y0044050D01*
X0107104Y0031204D01*
X0107104Y0027273D01*
X0108796Y0027273D02*
X0108796Y0030296D01*
X0120750Y0042250D01*
X0125250Y0042250D01*
X0126456Y0043456D01*
X0126456Y0048350D01*
X0130393Y0048350D02*
X0130393Y0040793D01*
X0129950Y0040350D01*
X0121350Y0040350D01*
X0118650Y0037650D01*
X0118650Y0036150D01*
X0117150Y0036150D01*
X0110489Y0029489D01*
X0110489Y0027273D01*
X0112182Y0027273D02*
X0112182Y0028582D01*
X0115750Y0032150D01*
X0118650Y0032150D01*
X0121550Y0030450D02*
X0121550Y0036250D01*
X0123950Y0038650D01*
X0134330Y0038650D01*
X0134330Y0048350D01*
X0139450Y0036450D02*
X0140044Y0035856D01*
X0152850Y0035856D01*
X0152756Y0035950D01*
X0147850Y0031950D02*
X0146350Y0033450D01*
X0124150Y0033450D01*
X0123350Y0032650D01*
X0123350Y0028150D01*
X0122350Y0027150D01*
X0117250Y0027150D01*
X0115089Y0024989D01*
X0113757Y0024989D01*
X0113757Y0023296D02*
X0117150Y0023296D01*
X0117150Y0024650D01*
X0117950Y0025450D01*
X0123450Y0025450D01*
X0125150Y0027150D01*
X0125150Y0031750D01*
X0144050Y0031750D01*
X0147850Y0027950D01*
X0147850Y0024050D02*
X0152844Y0024050D01*
X0152850Y0024044D01*
X0147850Y0024050D02*
X0141850Y0030050D01*
X0126950Y0030050D01*
X0126950Y0026350D01*
X0124350Y0023750D01*
X0118950Y0023750D01*
X0118950Y0020011D01*
X0118850Y0019911D01*
X0113757Y0019911D01*
X0113757Y0021604D02*
X0110489Y0021604D01*
X0110489Y0017627D01*
X0109350Y0017627D01*
X0109350Y0013150D01*
X0110750Y0011750D01*
X0112103Y0010397D01*
X0112103Y0010150D01*
X0113450Y0011750D02*
X0110750Y0011750D01*
X0113450Y0011750D02*
X0114950Y0013250D01*
X0114950Y0013704D01*
X0122150Y0013704D01*
X0125850Y0014450D02*
X0127050Y0014050D01*
X0127050Y0021150D01*
X0127650Y0021750D01*
X0130950Y0021750D01*
X0132950Y0023750D01*
X0132950Y0026781D01*
X0136621Y0027250D02*
X0139450Y0027250D01*
X0136690Y0026781D02*
X0136621Y0027250D01*
X0136690Y0021650D02*
X0139450Y0021650D01*
X0136690Y0021650D02*
X0136690Y0018119D01*
X0138950Y0016950D02*
X0142050Y0020050D01*
X0147750Y0020050D01*
X0147850Y0020050D01*
X0152793Y0020050D01*
X0152850Y0020107D01*
X0138950Y0016950D02*
X0138950Y0015750D01*
X0137850Y0014650D01*
X0137150Y0014650D01*
X0134150Y0011650D01*
X0131850Y0011650D01*
X0129210Y0014290D01*
X0129210Y0018119D01*
X0129250Y0018119D01*
X0132950Y0018119D02*
X0132950Y0014350D01*
X0132950Y0014050D01*
X0123696Y0020396D02*
X0127250Y0023950D01*
X0129210Y0023950D01*
X0129210Y0026781D01*
X0121550Y0030450D02*
X0119950Y0028850D01*
X0116250Y0028850D01*
X0114673Y0027273D01*
X0113875Y0027273D01*
X0111750Y0023250D02*
X0108050Y0023250D01*
X0107150Y0022350D01*
X0102143Y0021604D02*
X0102143Y0019911D01*
X0102025Y0019793D01*
X0102025Y0017627D01*
X0103718Y0017627D01*
X0105411Y0017627D01*
X0107104Y0017627D02*
X0107104Y0016104D01*
X0107104Y0015504D02*
X0107104Y0017627D01*
X0108796Y0017627D02*
X0110489Y0017627D01*
X0112182Y0017627D02*
X0112182Y0014450D01*
X0112150Y0014450D01*
X0114950Y0013704D02*
X0114950Y0016552D01*
X0113875Y0017627D01*
X0107104Y0015504D02*
X0106050Y0014450D01*
X0104250Y0014450D01*
X0105197Y0010150D02*
X0100950Y0010150D01*
X0102143Y0021604D02*
X0102143Y0023296D01*
X0102143Y0024989D01*
X0105411Y0027273D02*
X0105411Y0032011D01*
X0122150Y0020396D02*
X0123696Y0020396D01*
D20*
X0125850Y0014450D02*
X0125350Y0012350D01*
X0125450Y0012250D01*
X0122350Y0012250D01*
X0122150Y0013704D01*
X0050250Y0045796D02*
X0050050Y0047250D01*
X0046950Y0047250D01*
X0047050Y0047150D01*
X0046550Y0045050D01*
X0122350Y0066750D02*
X0122150Y0068204D01*
X0122350Y0066750D02*
X0125450Y0066750D01*
X0125350Y0066850D01*
X0125850Y0068950D01*
X0050250Y0100296D02*
X0050050Y0101750D01*
X0046950Y0101750D01*
X0047050Y0101650D01*
X0046550Y0099550D01*
D21*
X0046550Y0099550D03*
X0039450Y0099650D03*
X0032950Y0092350D03*
X0032950Y0086750D03*
X0024550Y0086050D03*
X0024550Y0089950D03*
X0024550Y0093950D03*
X0016950Y0102750D03*
X0024550Y0082050D03*
X0032950Y0077550D03*
X0053750Y0077850D03*
X0053750Y0081850D03*
X0065250Y0091650D03*
X0068150Y0099550D03*
X0071450Y0103850D03*
X0060250Y0099550D03*
X0104250Y0068950D03*
X0100950Y0064650D03*
X0112150Y0068950D03*
X0107150Y0076850D03*
X0118650Y0086650D03*
X0118650Y0090650D03*
X0139450Y0090950D03*
X0147850Y0086450D03*
X0147850Y0082450D03*
X0147850Y0078550D03*
X0147850Y0074550D03*
X0139450Y0076150D03*
X0139450Y0081750D03*
X0132950Y0068850D03*
X0125850Y0068950D03*
X0155450Y0065750D03*
X0139450Y0036450D03*
X0147850Y0031950D03*
X0147850Y0027950D03*
X0147850Y0024050D03*
X0147850Y0020050D03*
X0139450Y0021650D03*
X0139450Y0027250D03*
X0132950Y0014350D03*
X0125850Y0014450D03*
X0112150Y0014450D03*
X0104250Y0014450D03*
X0100950Y0010150D03*
X0107150Y0022350D03*
X0118650Y0032150D03*
X0118650Y0036150D03*
X0155450Y0011250D03*
X0071450Y0049350D03*
X0068150Y0045050D03*
X0060250Y0045050D03*
X0065250Y0037150D03*
X0053750Y0027350D03*
X0053750Y0023350D03*
X0032950Y0023050D03*
X0024550Y0027550D03*
X0024550Y0031550D03*
X0024550Y0035450D03*
X0024550Y0039450D03*
X0032950Y0037850D03*
X0032950Y0032250D03*
X0039450Y0045150D03*
X0046550Y0045050D03*
X0016950Y0048250D03*
D22*
X0019850Y0043620D02*
X0022901Y0043620D01*
X0022901Y0044238D01*
X0023421Y0043718D01*
X0025516Y0042850D01*
X0027784Y0042850D01*
X0029879Y0043718D01*
X0031482Y0045321D01*
X0032350Y0047416D01*
X0032350Y0049684D01*
X0032033Y0050450D01*
X0052050Y0050450D01*
X0052050Y0048262D01*
X0050550Y0048262D01*
X0050550Y0046096D01*
X0049950Y0046096D01*
X0049950Y0045496D01*
X0050550Y0045496D01*
X0050550Y0043331D01*
X0052050Y0043331D01*
X0052050Y0042169D01*
X0047909Y0042169D01*
X0047381Y0041642D01*
X0047381Y0039761D01*
X0047170Y0039550D01*
X0045074Y0039550D01*
X0045074Y0043820D01*
X0044590Y0044305D01*
X0044590Y0045790D01*
X0043770Y0046610D01*
X0041130Y0049250D01*
X0037670Y0049250D01*
X0036850Y0048430D01*
X0034670Y0046250D01*
X0033970Y0046250D01*
X0033150Y0045430D01*
X0032050Y0044330D01*
X0032050Y0043130D01*
X0029770Y0040850D01*
X0026686Y0040850D01*
X0025586Y0041950D01*
X0023514Y0041950D01*
X0023006Y0041442D01*
X0022974Y0041474D01*
X0019850Y0041474D01*
X0019850Y0041848D01*
X0022661Y0041848D01*
X0022771Y0041894D01*
X0022855Y0041978D01*
X0022901Y0042089D01*
X0022901Y0043039D01*
X0019850Y0043039D01*
X0019850Y0043620D01*
X0019850Y0043153D02*
X0024784Y0043153D01*
X0023387Y0043752D02*
X0022901Y0043752D01*
X0022901Y0042555D02*
X0031475Y0042555D01*
X0032050Y0043153D02*
X0028516Y0043153D01*
X0029913Y0043752D02*
X0032050Y0043752D01*
X0032070Y0044350D02*
X0030511Y0044350D01*
X0031110Y0044949D02*
X0032669Y0044949D01*
X0033267Y0045547D02*
X0031576Y0045547D01*
X0031824Y0046146D02*
X0033866Y0046146D01*
X0035164Y0046744D02*
X0032072Y0046744D01*
X0032320Y0047343D02*
X0035763Y0047343D01*
X0036361Y0047941D02*
X0032350Y0047941D01*
X0032350Y0048540D02*
X0036960Y0048540D01*
X0037558Y0049138D02*
X0032350Y0049138D01*
X0032328Y0049737D02*
X0052050Y0049737D01*
X0052050Y0050335D02*
X0032080Y0050335D01*
X0041242Y0049138D02*
X0052050Y0049138D01*
X0052050Y0048540D02*
X0041840Y0048540D01*
X0042439Y0047941D02*
X0047981Y0047941D01*
X0047981Y0048021D02*
X0048027Y0048132D01*
X0048112Y0048216D01*
X0048222Y0048262D01*
X0049950Y0048262D01*
X0049950Y0046096D01*
X0047981Y0046096D01*
X0047981Y0048021D01*
X0047981Y0047343D02*
X0043037Y0047343D01*
X0043636Y0046744D02*
X0047981Y0046744D01*
X0047981Y0046146D02*
X0044234Y0046146D01*
X0044590Y0045547D02*
X0049950Y0045547D01*
X0049950Y0045496D02*
X0047981Y0045496D01*
X0047981Y0043571D01*
X0048027Y0043461D01*
X0048112Y0043377D01*
X0048222Y0043331D01*
X0049950Y0043331D01*
X0049950Y0045496D01*
X0049950Y0044949D02*
X0050550Y0044949D01*
X0050550Y0044350D02*
X0049950Y0044350D01*
X0049950Y0043752D02*
X0050550Y0043752D01*
X0052050Y0043153D02*
X0045074Y0043153D01*
X0045074Y0042555D02*
X0052050Y0042555D01*
X0050550Y0046146D02*
X0049950Y0046146D01*
X0049950Y0046744D02*
X0050550Y0046744D01*
X0050550Y0047343D02*
X0049950Y0047343D01*
X0049950Y0047941D02*
X0050550Y0047941D01*
X0047981Y0044949D02*
X0044590Y0044949D01*
X0044590Y0044350D02*
X0047981Y0044350D01*
X0047981Y0043752D02*
X0045074Y0043752D01*
X0045074Y0041956D02*
X0047696Y0041956D01*
X0047381Y0041358D02*
X0045074Y0041358D01*
X0045074Y0040759D02*
X0047381Y0040759D01*
X0047381Y0040161D02*
X0045074Y0040161D01*
X0045074Y0039562D02*
X0047182Y0039562D01*
X0030876Y0041956D02*
X0022833Y0041956D01*
X0026178Y0041358D02*
X0030278Y0041358D01*
X0045074Y0094050D02*
X0045074Y0098320D01*
X0044590Y0098805D01*
X0044590Y0100290D01*
X0043770Y0101110D01*
X0041130Y0103750D01*
X0037670Y0103750D01*
X0034670Y0100750D01*
X0033970Y0100750D01*
X0033150Y0099930D01*
X0032050Y0098830D01*
X0032050Y0097630D01*
X0029770Y0095350D01*
X0026686Y0095350D01*
X0025586Y0096450D01*
X0023514Y0096450D01*
X0023006Y0095942D01*
X0022974Y0095974D01*
X0019850Y0095974D01*
X0019850Y0096348D01*
X0022661Y0096348D01*
X0022771Y0096394D01*
X0022855Y0096478D01*
X0022901Y0096589D01*
X0022901Y0097539D01*
X0019850Y0097539D01*
X0019850Y0098120D01*
X0022901Y0098120D01*
X0022901Y0098738D01*
X0023421Y0098218D01*
X0025516Y0097350D01*
X0027784Y0097350D01*
X0029879Y0098218D01*
X0031482Y0099821D01*
X0032350Y0101916D01*
X0032350Y0104184D01*
X0032033Y0104950D01*
X0052050Y0104950D01*
X0052050Y0102762D01*
X0050550Y0102762D01*
X0050550Y0100596D01*
X0049950Y0100596D01*
X0049950Y0099996D01*
X0050550Y0099996D01*
X0050550Y0097831D01*
X0052050Y0097831D01*
X0052050Y0096669D01*
X0047909Y0096669D01*
X0047381Y0096142D01*
X0047381Y0094261D01*
X0047170Y0094050D01*
X0045074Y0094050D01*
X0045074Y0094625D02*
X0047381Y0094625D01*
X0047381Y0095224D02*
X0045074Y0095224D01*
X0045074Y0095822D02*
X0047381Y0095822D01*
X0047661Y0096421D02*
X0045074Y0096421D01*
X0045074Y0097019D02*
X0052050Y0097019D01*
X0052050Y0097618D02*
X0045074Y0097618D01*
X0045074Y0098216D02*
X0047981Y0098216D01*
X0047981Y0098071D02*
X0048027Y0097961D01*
X0048112Y0097877D01*
X0048222Y0097831D01*
X0049950Y0097831D01*
X0049950Y0099996D01*
X0047981Y0099996D01*
X0047981Y0098071D01*
X0047981Y0098815D02*
X0044590Y0098815D01*
X0044590Y0099413D02*
X0047981Y0099413D01*
X0047981Y0100596D02*
X0049950Y0100596D01*
X0049950Y0102762D01*
X0048222Y0102762D01*
X0048112Y0102716D01*
X0048027Y0102632D01*
X0047981Y0102521D01*
X0047981Y0100596D01*
X0047981Y0100610D02*
X0044270Y0100610D01*
X0044590Y0100012D02*
X0049950Y0100012D01*
X0049950Y0100610D02*
X0050550Y0100610D01*
X0050550Y0101209D02*
X0049950Y0101209D01*
X0049950Y0101807D02*
X0050550Y0101807D01*
X0050550Y0102406D02*
X0049950Y0102406D01*
X0047981Y0102406D02*
X0042474Y0102406D01*
X0041876Y0103004D02*
X0052050Y0103004D01*
X0052050Y0103603D02*
X0041277Y0103603D01*
X0043073Y0101807D02*
X0047981Y0101807D01*
X0047981Y0101209D02*
X0043671Y0101209D01*
X0043770Y0101110D02*
X0043770Y0101110D01*
X0049950Y0099413D02*
X0050550Y0099413D01*
X0050550Y0098815D02*
X0049950Y0098815D01*
X0049950Y0098216D02*
X0050550Y0098216D01*
X0052050Y0104201D02*
X0032343Y0104201D01*
X0032350Y0103603D02*
X0037523Y0103603D01*
X0036924Y0103004D02*
X0032350Y0103004D01*
X0032350Y0102406D02*
X0036326Y0102406D01*
X0035727Y0101807D02*
X0032305Y0101807D01*
X0032057Y0101209D02*
X0035129Y0101209D01*
X0033830Y0100610D02*
X0031809Y0100610D01*
X0031561Y0100012D02*
X0033232Y0100012D01*
X0032633Y0099413D02*
X0031074Y0099413D01*
X0030476Y0098815D02*
X0032050Y0098815D01*
X0032050Y0098216D02*
X0029875Y0098216D01*
X0028430Y0097618D02*
X0032038Y0097618D01*
X0031439Y0097019D02*
X0022901Y0097019D01*
X0022798Y0096421D02*
X0023485Y0096421D01*
X0024870Y0097618D02*
X0019850Y0097618D01*
X0022901Y0098216D02*
X0023425Y0098216D01*
X0025615Y0096421D02*
X0030841Y0096421D01*
X0030242Y0095822D02*
X0026213Y0095822D01*
X0032095Y0104800D02*
X0052050Y0104800D01*
X0120350Y0071831D02*
X0120350Y0070669D01*
X0121850Y0070669D01*
X0121850Y0068504D01*
X0122450Y0068504D01*
X0122450Y0070669D01*
X0124178Y0070669D01*
X0124288Y0070623D01*
X0124373Y0070539D01*
X0124418Y0070429D01*
X0124418Y0068504D01*
X0122450Y0068504D01*
X0122450Y0067904D01*
X0124418Y0067904D01*
X0124418Y0065979D01*
X0124373Y0065868D01*
X0124288Y0065784D01*
X0124178Y0065738D01*
X0122450Y0065738D01*
X0122450Y0067903D01*
X0121850Y0067903D01*
X0121850Y0065738D01*
X0120350Y0065738D01*
X0120350Y0063550D01*
X0140367Y0063550D01*
X0140050Y0064316D01*
X0140050Y0066584D01*
X0140918Y0068679D01*
X0142521Y0070282D01*
X0144616Y0071150D01*
X0146884Y0071150D01*
X0148979Y0070282D01*
X0149499Y0069762D01*
X0149499Y0070380D01*
X0152550Y0070380D01*
X0152550Y0070961D01*
X0149499Y0070961D01*
X0149499Y0071911D01*
X0149544Y0072022D01*
X0149629Y0072106D01*
X0149739Y0072152D01*
X0152550Y0072152D01*
X0152550Y0072526D01*
X0149426Y0072526D01*
X0149394Y0072558D01*
X0148886Y0072050D01*
X0146814Y0072050D01*
X0145714Y0073150D01*
X0142630Y0073150D01*
X0140350Y0070870D01*
X0140350Y0069670D01*
X0139250Y0068570D01*
X0138430Y0067750D01*
X0137730Y0067750D01*
X0135550Y0065570D01*
X0134730Y0064750D01*
X0131270Y0064750D01*
X0128630Y0067390D01*
X0127810Y0068210D01*
X0127810Y0069695D01*
X0127326Y0070180D01*
X0127326Y0074450D01*
X0125230Y0074450D01*
X0125018Y0074239D01*
X0125018Y0072358D01*
X0124491Y0071831D01*
X0120350Y0071831D01*
X0120350Y0071283D02*
X0127326Y0071283D01*
X0127326Y0070685D02*
X0120350Y0070685D01*
X0121850Y0070086D02*
X0122450Y0070086D01*
X0122450Y0069488D02*
X0121850Y0069488D01*
X0121850Y0068889D02*
X0122450Y0068889D01*
X0122450Y0068291D02*
X0127810Y0068291D01*
X0127810Y0068889D02*
X0124418Y0068889D01*
X0124418Y0069488D02*
X0127810Y0069488D01*
X0127419Y0070086D02*
X0124418Y0070086D01*
X0124542Y0071882D02*
X0127326Y0071882D01*
X0127326Y0072480D02*
X0125018Y0072480D01*
X0125018Y0073079D02*
X0127326Y0073079D01*
X0127326Y0073677D02*
X0125018Y0073677D01*
X0125056Y0074276D02*
X0127326Y0074276D01*
X0128328Y0067692D02*
X0124418Y0067692D01*
X0124418Y0067094D02*
X0128926Y0067094D01*
X0129525Y0066495D02*
X0124418Y0066495D01*
X0124385Y0065897D02*
X0130123Y0065897D01*
X0130722Y0065298D02*
X0120350Y0065298D01*
X0120350Y0064700D02*
X0140050Y0064700D01*
X0140050Y0065298D02*
X0135278Y0065298D01*
X0135877Y0065897D02*
X0140050Y0065897D01*
X0140050Y0066495D02*
X0136475Y0066495D01*
X0137074Y0067094D02*
X0140261Y0067094D01*
X0140509Y0067692D02*
X0137672Y0067692D01*
X0138971Y0068291D02*
X0140757Y0068291D01*
X0141128Y0068889D02*
X0139569Y0068889D01*
X0140168Y0069488D02*
X0141727Y0069488D01*
X0142325Y0070086D02*
X0140350Y0070086D01*
X0140350Y0070685D02*
X0143493Y0070685D01*
X0141960Y0072480D02*
X0146384Y0072480D01*
X0145786Y0073079D02*
X0142559Y0073079D01*
X0141362Y0071882D02*
X0149499Y0071882D01*
X0149499Y0071283D02*
X0140763Y0071283D01*
X0148007Y0070685D02*
X0152550Y0070685D01*
X0152550Y0072480D02*
X0149316Y0072480D01*
X0149175Y0070086D02*
X0149499Y0070086D01*
X0140139Y0064101D02*
X0120350Y0064101D01*
X0121850Y0065897D02*
X0122450Y0065897D01*
X0122450Y0066495D02*
X0121850Y0066495D01*
X0121850Y0067094D02*
X0122450Y0067094D01*
X0122450Y0067692D02*
X0121850Y0067692D01*
X0125230Y0019950D02*
X0127326Y0019950D01*
X0127326Y0015680D01*
X0127810Y0015195D01*
X0127810Y0013710D01*
X0128630Y0012890D01*
X0131270Y0010250D01*
X0134730Y0010250D01*
X0135550Y0011070D01*
X0137730Y0013250D01*
X0138430Y0013250D01*
X0139250Y0014070D01*
X0140350Y0015170D01*
X0140350Y0016370D01*
X0142630Y0018650D01*
X0145714Y0018650D01*
X0146814Y0017550D01*
X0148886Y0017550D01*
X0149394Y0018058D01*
X0149426Y0018026D01*
X0152550Y0018026D01*
X0152550Y0017652D01*
X0149739Y0017652D01*
X0149629Y0017606D01*
X0149544Y0017522D01*
X0149499Y0017411D01*
X0149499Y0016461D01*
X0152550Y0016461D01*
X0152550Y0015880D01*
X0149499Y0015880D01*
X0149499Y0015262D01*
X0148979Y0015782D01*
X0146884Y0016650D01*
X0144616Y0016650D01*
X0142521Y0015782D01*
X0140918Y0014179D01*
X0140050Y0012084D01*
X0140050Y0009816D01*
X0140367Y0009050D01*
X0120350Y0009050D01*
X0120350Y0011238D01*
X0121850Y0011238D01*
X0121850Y0013403D01*
X0122450Y0013403D01*
X0122450Y0011238D01*
X0124178Y0011238D01*
X0124288Y0011284D01*
X0124373Y0011368D01*
X0124418Y0011479D01*
X0124418Y0013404D01*
X0122450Y0013404D01*
X0122450Y0014004D01*
X0121850Y0014004D01*
X0121850Y0016169D01*
X0120350Y0016169D01*
X0120350Y0017331D01*
X0124491Y0017331D01*
X0125018Y0017858D01*
X0125018Y0019739D01*
X0125230Y0019950D01*
X0125091Y0019811D02*
X0127326Y0019811D01*
X0127326Y0019213D02*
X0125018Y0019213D01*
X0125018Y0018614D02*
X0127326Y0018614D01*
X0127326Y0018016D02*
X0125018Y0018016D01*
X0124577Y0017417D02*
X0127326Y0017417D01*
X0127326Y0016819D02*
X0120350Y0016819D01*
X0120350Y0016220D02*
X0127326Y0016220D01*
X0127383Y0015622D02*
X0124418Y0015622D01*
X0124418Y0015929D02*
X0124373Y0016039D01*
X0124288Y0016123D01*
X0124178Y0016169D01*
X0122450Y0016169D01*
X0122450Y0014004D01*
X0124418Y0014004D01*
X0124418Y0015929D01*
X0124418Y0015023D02*
X0127810Y0015023D01*
X0127810Y0014425D02*
X0124418Y0014425D01*
X0124418Y0013228D02*
X0128292Y0013228D01*
X0127810Y0013826D02*
X0122450Y0013826D01*
X0122450Y0013228D02*
X0121850Y0013228D01*
X0121850Y0012629D02*
X0122450Y0012629D01*
X0122450Y0012031D02*
X0121850Y0012031D01*
X0121850Y0011432D02*
X0122450Y0011432D01*
X0124399Y0011432D02*
X0130088Y0011432D01*
X0130686Y0010834D02*
X0120350Y0010834D01*
X0120350Y0010235D02*
X0140050Y0010235D01*
X0140050Y0010834D02*
X0135314Y0010834D01*
X0135912Y0011432D02*
X0140050Y0011432D01*
X0140050Y0012031D02*
X0136511Y0012031D01*
X0137109Y0012629D02*
X0140276Y0012629D01*
X0140524Y0013228D02*
X0137708Y0013228D01*
X0139006Y0013826D02*
X0140772Y0013826D01*
X0141164Y0014425D02*
X0139605Y0014425D01*
X0140203Y0015023D02*
X0141762Y0015023D01*
X0142361Y0015622D02*
X0140350Y0015622D01*
X0140350Y0016220D02*
X0143579Y0016220D01*
X0141996Y0018016D02*
X0146349Y0018016D01*
X0145750Y0018614D02*
X0142594Y0018614D01*
X0141397Y0017417D02*
X0149501Y0017417D01*
X0149499Y0016819D02*
X0140799Y0016819D01*
X0147921Y0016220D02*
X0152550Y0016220D01*
X0152550Y0018016D02*
X0149351Y0018016D01*
X0149499Y0015622D02*
X0149139Y0015622D01*
X0140124Y0009637D02*
X0120350Y0009637D01*
X0124418Y0012031D02*
X0129489Y0012031D01*
X0128891Y0012629D02*
X0124418Y0012629D01*
X0122450Y0014425D02*
X0121850Y0014425D01*
X0121850Y0015023D02*
X0122450Y0015023D01*
X0122450Y0015622D02*
X0121850Y0015622D01*
D23*
X0111750Y0023250D02*
X0111750Y0025750D01*
X0112182Y0026182D01*
X0112182Y0027273D01*
X0152850Y0016170D02*
X0152850Y0013850D01*
X0155450Y0011250D01*
X0155450Y0065750D02*
X0152850Y0068350D01*
X0152850Y0070670D01*
X0112182Y0080682D02*
X0111750Y0080250D01*
X0111750Y0077750D01*
X0112182Y0080682D02*
X0112182Y0081773D01*
X0060650Y0088250D02*
X0060650Y0090750D01*
X0060650Y0088250D02*
X0060218Y0087818D01*
X0060218Y0086727D01*
X0019550Y0097830D02*
X0019550Y0100150D01*
X0016950Y0102750D01*
X0016950Y0048250D02*
X0019550Y0045650D01*
X0019550Y0043330D01*
X0060218Y0033318D02*
X0060218Y0032227D01*
X0060218Y0033318D02*
X0060650Y0033750D01*
X0060650Y0036250D01*
D24*
X0078450Y0029550D03*
X0093950Y0029950D03*
X0145750Y0010950D03*
X0145750Y0048950D03*
X0145750Y0065450D03*
X0093950Y0084450D03*
X0078450Y0084050D03*
X0026650Y0065050D03*
X0026650Y0048550D03*
X0026650Y0010550D03*
X0026650Y0103050D03*
X0145750Y0103450D03*
D25*
X0006800Y0007340D02*
X0006800Y0006600D01*
X0082100Y0006600D01*
X0082100Y0052900D01*
X0055259Y0052900D01*
X0055120Y0052566D01*
X0054234Y0051680D01*
X0053077Y0051200D01*
X0053068Y0051200D01*
X0053300Y0050968D01*
X0053300Y0047246D01*
X0056396Y0047246D01*
X0056849Y0047700D01*
X0057379Y0048229D01*
X0057379Y0051366D01*
X0058281Y0052268D01*
X0062313Y0052268D01*
X0063216Y0051366D01*
X0063216Y0048235D01*
X0064500Y0046951D01*
X0064500Y0045251D01*
X0064696Y0045446D01*
X0065681Y0046431D01*
X0065187Y0046431D01*
X0064284Y0047334D01*
X0064284Y0051366D01*
X0065187Y0052268D01*
X0069219Y0052268D01*
X0069991Y0051497D01*
X0070394Y0051900D01*
X0072506Y0051900D01*
X0074000Y0050406D01*
X0074000Y0048294D01*
X0072506Y0046800D01*
X0070394Y0046800D01*
X0069991Y0047203D01*
X0069797Y0047009D01*
X0070700Y0046106D01*
X0070700Y0043994D01*
X0069913Y0043207D01*
X0069979Y0043142D01*
X0069979Y0043109D01*
X0070375Y0043109D01*
X0070375Y0041873D01*
X0070375Y0041873D01*
X0070375Y0043109D01*
X0070976Y0043109D01*
X0071105Y0043055D01*
X0071203Y0042957D01*
X0071257Y0042828D01*
X0071257Y0041873D01*
X0070375Y0041873D01*
X0070375Y0041873D01*
X0071257Y0041873D01*
X0071257Y0040917D01*
X0071244Y0040886D01*
X0071329Y0040886D01*
X0071593Y0040622D01*
X0071593Y0040249D01*
X0071493Y0040149D01*
X0071493Y0039589D01*
X0070257Y0039589D01*
X0069021Y0039589D01*
X0069021Y0039193D01*
X0068988Y0039193D01*
X0068724Y0038929D01*
X0068724Y0038557D01*
X0068988Y0038293D01*
X0069021Y0038293D01*
X0069021Y0037897D01*
X0070257Y0037897D01*
X0070257Y0037896D01*
X0069021Y0037896D01*
X0069021Y0037500D01*
X0068988Y0037500D01*
X0068724Y0037236D01*
X0068724Y0036864D01*
X0068988Y0036600D01*
X0069021Y0036600D01*
X0069021Y0036204D01*
X0070257Y0036204D01*
X0070257Y0036203D01*
X0069021Y0036203D01*
X0069021Y0035807D01*
X0068988Y0035807D01*
X0068724Y0035543D01*
X0068724Y0035171D01*
X0068988Y0034907D01*
X0069021Y0034907D01*
X0069021Y0034511D01*
X0070257Y0034511D01*
X0070257Y0034511D01*
X0071493Y0034511D01*
X0071493Y0035071D01*
X0071593Y0035171D01*
X0071593Y0035543D01*
X0071493Y0035643D01*
X0071493Y0036203D01*
X0070257Y0036203D01*
X0070257Y0036204D01*
X0071493Y0036204D01*
X0071493Y0036764D01*
X0071593Y0036864D01*
X0071593Y0037236D01*
X0071493Y0037336D01*
X0071493Y0037896D01*
X0070257Y0037896D01*
X0070257Y0037897D01*
X0071493Y0037897D01*
X0071493Y0038457D01*
X0071593Y0038557D01*
X0071593Y0038929D01*
X0071493Y0039029D01*
X0071493Y0039589D01*
X0070257Y0039589D01*
X0070257Y0039589D01*
X0070257Y0039589D01*
X0069021Y0039589D01*
X0069021Y0039986D01*
X0068988Y0039986D01*
X0068724Y0040249D01*
X0068724Y0040622D01*
X0068739Y0040637D01*
X0068682Y0040637D01*
X0068682Y0041873D01*
X0068682Y0041873D01*
X0068682Y0040637D01*
X0068122Y0040637D01*
X0068022Y0040537D01*
X0067649Y0040537D01*
X0067549Y0040637D01*
X0066989Y0040637D01*
X0066778Y0040637D01*
X0066778Y0040593D01*
X0066221Y0040037D01*
X0063361Y0040037D01*
X0063361Y0038867D01*
X0064194Y0039700D01*
X0066306Y0039700D01*
X0067800Y0038206D01*
X0067800Y0036094D01*
X0066306Y0034600D01*
X0064194Y0034600D01*
X0063994Y0034800D01*
X0062000Y0034800D01*
X0062000Y0034063D01*
X0068937Y0034063D01*
X0068988Y0034114D01*
X0069021Y0034114D01*
X0069021Y0034511D01*
X0070257Y0034511D01*
X0070257Y0034511D01*
X0071493Y0034511D01*
X0071493Y0033951D01*
X0071593Y0033851D01*
X0071593Y0033770D01*
X0071857Y0033506D01*
X0071857Y0030948D01*
X0071825Y0030916D01*
X0071825Y0025584D01*
X0073503Y0025584D01*
X0074060Y0025028D01*
X0074060Y0017154D01*
X0073503Y0016598D01*
X0067992Y0016598D01*
X0067435Y0017154D01*
X0067435Y0021085D01*
X0063143Y0016792D01*
X0063143Y0015151D01*
X0063267Y0015151D01*
X0063824Y0014595D01*
X0063824Y0007705D01*
X0063267Y0007149D01*
X0060118Y0007149D01*
X0059724Y0007543D01*
X0059330Y0007149D01*
X0056181Y0007149D01*
X0055787Y0007543D01*
X0055393Y0007149D01*
X0052244Y0007149D01*
X0051850Y0007543D01*
X0051456Y0007149D01*
X0048307Y0007149D01*
X0047913Y0007543D01*
X0047519Y0007149D01*
X0044370Y0007149D01*
X0043976Y0007543D01*
X0043582Y0007149D01*
X0040433Y0007149D01*
X0040039Y0007543D01*
X0039645Y0007149D01*
X0036496Y0007149D01*
X0035939Y0007705D01*
X0035939Y0014595D01*
X0036496Y0015151D01*
X0036620Y0015151D01*
X0036620Y0021451D01*
X0037470Y0022300D01*
X0047849Y0022300D01*
X0049400Y0023851D01*
X0049400Y0025149D01*
X0048851Y0024600D01*
X0036265Y0024600D01*
X0036265Y0017154D01*
X0035708Y0016598D01*
X0030197Y0016598D01*
X0029640Y0017154D01*
X0029640Y0022194D01*
X0023551Y0022194D01*
X0023551Y0022070D01*
X0022995Y0021513D01*
X0016105Y0021513D01*
X0015549Y0022070D01*
X0015549Y0025219D01*
X0015943Y0025613D01*
X0015549Y0026007D01*
X0015549Y0029156D01*
X0015943Y0029550D01*
X0015549Y0029944D01*
X0015549Y0033093D01*
X0015943Y0033487D01*
X0015549Y0033881D01*
X0015549Y0037030D01*
X0015943Y0037424D01*
X0015549Y0037818D01*
X0015549Y0040967D01*
X0015943Y0041361D01*
X0015549Y0041755D01*
X0015549Y0044904D01*
X0016105Y0045461D01*
X0017830Y0045461D01*
X0017591Y0045700D01*
X0015894Y0045700D01*
X0014400Y0047194D01*
X0014400Y0049306D01*
X0015894Y0050800D01*
X0018006Y0050800D01*
X0018600Y0050206D01*
X0018600Y0050968D01*
X0019332Y0051700D01*
X0034645Y0051700D01*
X0033780Y0052566D01*
X0033641Y0052900D01*
X0006800Y0052900D01*
X0006800Y0051760D01*
X0013546Y0051760D01*
X0014102Y0051203D01*
X0014102Y0045692D01*
X0013546Y0045135D01*
X0006800Y0045135D01*
X0006800Y0013965D01*
X0013546Y0013965D01*
X0014102Y0013408D01*
X0014102Y0007897D01*
X0013546Y0007340D01*
X0006800Y0007340D01*
X0006800Y0007044D02*
X0082100Y0007044D01*
X0082100Y0007743D02*
X0063824Y0007743D01*
X0064152Y0007901D02*
X0064250Y0007802D01*
X0064379Y0007749D01*
X0065389Y0007749D01*
X0065389Y0010909D01*
X0065870Y0010909D01*
X0065870Y0007749D01*
X0066880Y0007749D01*
X0067009Y0007802D01*
X0067107Y0007901D01*
X0067161Y0008029D01*
X0067161Y0010909D01*
X0065870Y0010909D01*
X0065870Y0011391D01*
X0065389Y0011391D01*
X0065389Y0014551D01*
X0064379Y0014551D01*
X0064250Y0014498D01*
X0064152Y0014399D01*
X0064098Y0014271D01*
X0064098Y0011391D01*
X0065389Y0011391D01*
X0065389Y0010909D01*
X0064098Y0010909D01*
X0064098Y0008029D01*
X0064152Y0007901D01*
X0064098Y0008441D02*
X0063824Y0008441D01*
X0063824Y0009140D02*
X0064098Y0009140D01*
X0064098Y0009838D02*
X0063824Y0009838D01*
X0063824Y0010537D02*
X0064098Y0010537D01*
X0063824Y0011235D02*
X0065389Y0011235D01*
X0065870Y0011235D02*
X0082100Y0011235D01*
X0082100Y0010537D02*
X0067161Y0010537D01*
X0067161Y0009838D02*
X0082100Y0009838D01*
X0082100Y0009140D02*
X0067161Y0009140D01*
X0067161Y0008441D02*
X0082100Y0008441D01*
X0082100Y0011934D02*
X0067161Y0011934D01*
X0067161Y0011391D02*
X0067161Y0014271D01*
X0067107Y0014399D01*
X0067009Y0014498D01*
X0066880Y0014551D01*
X0065870Y0014551D01*
X0065870Y0011391D01*
X0067161Y0011391D01*
X0065870Y0011934D02*
X0065389Y0011934D01*
X0065389Y0012632D02*
X0065870Y0012632D01*
X0065870Y0013331D02*
X0065389Y0013331D01*
X0065389Y0014029D02*
X0065870Y0014029D01*
X0067161Y0014029D02*
X0082100Y0014029D01*
X0082100Y0013331D02*
X0067161Y0013331D01*
X0067161Y0012632D02*
X0082100Y0012632D01*
X0082100Y0014728D02*
X0063691Y0014728D01*
X0063824Y0014029D02*
X0064098Y0014029D01*
X0064098Y0013331D02*
X0063824Y0013331D01*
X0063824Y0012632D02*
X0064098Y0012632D01*
X0064098Y0011934D02*
X0063824Y0011934D01*
X0065389Y0010537D02*
X0065870Y0010537D01*
X0065870Y0009838D02*
X0065389Y0009838D01*
X0065389Y0009140D02*
X0065870Y0009140D01*
X0065870Y0008441D02*
X0065389Y0008441D01*
X0063143Y0015426D02*
X0082100Y0015426D01*
X0082100Y0016125D02*
X0063143Y0016125D01*
X0063174Y0016823D02*
X0067766Y0016823D01*
X0067435Y0017522D02*
X0063872Y0017522D01*
X0064571Y0018220D02*
X0067435Y0018220D01*
X0067435Y0018919D02*
X0065269Y0018919D01*
X0065968Y0019617D02*
X0067435Y0019617D01*
X0067435Y0020316D02*
X0066666Y0020316D01*
X0067365Y0021014D02*
X0067435Y0021014D01*
X0074060Y0021014D02*
X0082100Y0021014D01*
X0082100Y0020316D02*
X0074060Y0020316D01*
X0074060Y0019617D02*
X0082100Y0019617D01*
X0082100Y0018919D02*
X0074060Y0018919D01*
X0074060Y0018220D02*
X0082100Y0018220D01*
X0082100Y0017522D02*
X0074060Y0017522D01*
X0073729Y0016823D02*
X0082100Y0016823D01*
X0082100Y0021713D02*
X0074060Y0021713D01*
X0074060Y0022411D02*
X0082100Y0022411D01*
X0082100Y0023110D02*
X0074060Y0023110D01*
X0074060Y0023808D02*
X0082100Y0023808D01*
X0082100Y0024507D02*
X0074060Y0024507D01*
X0073882Y0025205D02*
X0082100Y0025205D01*
X0082100Y0025904D02*
X0071825Y0025904D01*
X0071825Y0026602D02*
X0082100Y0026602D01*
X0082100Y0027301D02*
X0071825Y0027301D01*
X0071825Y0027999D02*
X0082100Y0027999D01*
X0082100Y0028698D02*
X0071825Y0028698D01*
X0071825Y0029396D02*
X0082100Y0029396D01*
X0082100Y0030095D02*
X0071825Y0030095D01*
X0071825Y0030793D02*
X0082100Y0030793D01*
X0082100Y0031492D02*
X0071857Y0031492D01*
X0071857Y0032190D02*
X0082100Y0032190D01*
X0082100Y0032889D02*
X0071857Y0032889D01*
X0071776Y0033587D02*
X0082100Y0033587D01*
X0082100Y0034286D02*
X0071493Y0034286D01*
X0071493Y0034984D02*
X0082100Y0034984D01*
X0082100Y0035683D02*
X0071493Y0035683D01*
X0071493Y0036382D02*
X0082100Y0036382D01*
X0082100Y0037080D02*
X0071593Y0037080D01*
X0071493Y0037779D02*
X0082100Y0037779D01*
X0082100Y0038477D02*
X0071513Y0038477D01*
X0071493Y0039176D02*
X0082100Y0039176D01*
X0082100Y0039874D02*
X0071493Y0039874D01*
X0071593Y0040573D02*
X0082100Y0040573D01*
X0082100Y0041271D02*
X0071257Y0041271D01*
X0071257Y0041970D02*
X0082100Y0041970D01*
X0082100Y0042668D02*
X0071257Y0042668D01*
X0070375Y0042668D02*
X0070375Y0042668D01*
X0070375Y0041970D02*
X0070375Y0041970D01*
X0068682Y0041271D02*
X0068682Y0041271D01*
X0068724Y0040573D02*
X0068058Y0040573D01*
X0067614Y0040573D02*
X0066757Y0040573D01*
X0066989Y0040637D02*
X0066989Y0041873D01*
X0066989Y0041873D01*
X0066989Y0040637D01*
X0066989Y0041271D02*
X0066989Y0041271D01*
X0066831Y0039176D02*
X0068971Y0039176D01*
X0069021Y0039874D02*
X0063361Y0039874D01*
X0063361Y0039176D02*
X0063669Y0039176D01*
X0067529Y0038477D02*
X0068804Y0038477D01*
X0069021Y0037779D02*
X0067800Y0037779D01*
X0067800Y0037080D02*
X0068724Y0037080D01*
X0069021Y0036382D02*
X0067800Y0036382D01*
X0067389Y0035683D02*
X0068864Y0035683D01*
X0068911Y0034984D02*
X0066691Y0034984D01*
X0069021Y0034286D02*
X0062000Y0034286D01*
X0070073Y0043367D02*
X0082100Y0043367D01*
X0082100Y0044065D02*
X0070700Y0044065D01*
X0070700Y0044764D02*
X0082100Y0044764D01*
X0082100Y0045462D02*
X0070700Y0045462D01*
X0070646Y0046161D02*
X0082100Y0046161D01*
X0082100Y0046859D02*
X0072565Y0046859D01*
X0073264Y0047558D02*
X0082100Y0047558D01*
X0082100Y0048256D02*
X0073962Y0048256D01*
X0074000Y0048955D02*
X0082100Y0048955D01*
X0082100Y0049653D02*
X0074000Y0049653D01*
X0074000Y0050352D02*
X0082100Y0050352D01*
X0082100Y0051050D02*
X0073356Y0051050D01*
X0072657Y0051749D02*
X0082100Y0051749D01*
X0082100Y0052447D02*
X0055002Y0052447D01*
X0054304Y0051749D02*
X0057761Y0051749D01*
X0057379Y0051050D02*
X0053217Y0051050D01*
X0053300Y0050352D02*
X0057379Y0050352D01*
X0057379Y0049653D02*
X0053300Y0049653D01*
X0053300Y0048955D02*
X0057379Y0048955D01*
X0057379Y0048256D02*
X0053300Y0048256D01*
X0053300Y0047558D02*
X0056707Y0047558D01*
X0063216Y0048256D02*
X0064284Y0048256D01*
X0064284Y0047558D02*
X0063893Y0047558D01*
X0064500Y0046859D02*
X0064759Y0046859D01*
X0064500Y0046161D02*
X0065410Y0046161D01*
X0064712Y0045462D02*
X0064500Y0045462D01*
X0064284Y0048955D02*
X0063216Y0048955D01*
X0063216Y0049653D02*
X0064284Y0049653D01*
X0064284Y0050352D02*
X0063216Y0050352D01*
X0063216Y0051050D02*
X0064284Y0051050D01*
X0064667Y0051749D02*
X0062833Y0051749D01*
X0069739Y0051749D02*
X0070243Y0051749D01*
X0070335Y0046859D02*
X0069947Y0046859D01*
X0080400Y0061100D02*
X0055300Y0061100D01*
X0055120Y0061534D01*
X0055006Y0061649D01*
X0055393Y0061649D01*
X0055787Y0062043D01*
X0056181Y0061649D01*
X0059330Y0061649D01*
X0059724Y0062043D01*
X0060118Y0061649D01*
X0063267Y0061649D01*
X0063824Y0062205D01*
X0063824Y0069095D01*
X0063267Y0069651D01*
X0063143Y0069651D01*
X0063143Y0071292D01*
X0067435Y0075585D01*
X0067435Y0071654D01*
X0067992Y0071098D01*
X0073503Y0071098D01*
X0074060Y0071654D01*
X0074060Y0079528D01*
X0073503Y0080084D01*
X0071825Y0080084D01*
X0071825Y0085416D01*
X0071857Y0085448D01*
X0071857Y0088006D01*
X0071593Y0088270D01*
X0071593Y0088351D01*
X0071493Y0088451D01*
X0071493Y0089011D01*
X0071493Y0089571D01*
X0071593Y0089671D01*
X0071593Y0090043D01*
X0071493Y0090143D01*
X0071493Y0090703D01*
X0070257Y0090703D01*
X0069021Y0090703D01*
X0069021Y0090307D01*
X0068988Y0090307D01*
X0068724Y0090043D01*
X0068724Y0089671D01*
X0068988Y0089407D01*
X0069021Y0089407D01*
X0069021Y0089011D01*
X0070257Y0089011D01*
X0070257Y0089011D01*
X0071493Y0089011D01*
X0070257Y0089011D01*
X0070257Y0089011D01*
X0069021Y0089011D01*
X0069021Y0088614D01*
X0068988Y0088614D01*
X0068937Y0088563D01*
X0062000Y0088563D01*
X0062000Y0089300D01*
X0063994Y0089300D01*
X0064194Y0089100D01*
X0066306Y0089100D01*
X0067800Y0090594D01*
X0067800Y0092706D01*
X0066306Y0094200D01*
X0064194Y0094200D01*
X0063361Y0093367D01*
X0063361Y0094537D01*
X0066221Y0094537D01*
X0066778Y0095093D01*
X0066778Y0095137D01*
X0066989Y0095137D01*
X0066989Y0096373D01*
X0066989Y0096373D01*
X0066989Y0095137D01*
X0067549Y0095137D01*
X0067649Y0095037D01*
X0068022Y0095037D01*
X0068122Y0095137D01*
X0068682Y0095137D01*
X0068682Y0096373D01*
X0068682Y0096373D01*
X0068682Y0095137D01*
X0068739Y0095137D01*
X0068724Y0095122D01*
X0068724Y0094749D01*
X0068988Y0094486D01*
X0069021Y0094486D01*
X0069021Y0094089D01*
X0069021Y0093693D01*
X0068988Y0093693D01*
X0068724Y0093429D01*
X0068724Y0093057D01*
X0068988Y0092793D01*
X0069021Y0092793D01*
X0069021Y0092397D01*
X0070257Y0092397D01*
X0070257Y0092396D01*
X0069021Y0092396D01*
X0069021Y0092000D01*
X0068988Y0092000D01*
X0068724Y0091736D01*
X0068724Y0091364D01*
X0068988Y0091100D01*
X0069021Y0091100D01*
X0069021Y0090704D01*
X0070257Y0090704D01*
X0070257Y0090703D01*
X0070257Y0090704D01*
X0071493Y0090704D01*
X0071493Y0091264D01*
X0071593Y0091364D01*
X0071593Y0091736D01*
X0071493Y0091836D01*
X0071493Y0092396D01*
X0070257Y0092396D01*
X0070257Y0092397D01*
X0071493Y0092397D01*
X0071493Y0092957D01*
X0071593Y0093057D01*
X0071593Y0093429D01*
X0071493Y0093529D01*
X0071493Y0094089D01*
X0070257Y0094089D01*
X0069021Y0094089D01*
X0070257Y0094089D01*
X0070257Y0094089D01*
X0070257Y0094089D01*
X0071493Y0094089D01*
X0071493Y0094649D01*
X0071593Y0094749D01*
X0071593Y0095122D01*
X0071329Y0095386D01*
X0071244Y0095386D01*
X0071257Y0095417D01*
X0071257Y0096373D01*
X0071257Y0097328D01*
X0071203Y0097457D01*
X0071105Y0097555D01*
X0070976Y0097609D01*
X0070375Y0097609D01*
X0069979Y0097609D01*
X0069979Y0097642D01*
X0069913Y0097707D01*
X0070700Y0098494D01*
X0070700Y0100606D01*
X0069797Y0101509D01*
X0069991Y0101703D01*
X0070394Y0101300D01*
X0072506Y0101300D01*
X0074000Y0102794D01*
X0074000Y0104906D01*
X0072506Y0106400D01*
X0070394Y0106400D01*
X0069991Y0105997D01*
X0069219Y0106768D01*
X0065187Y0106768D01*
X0064284Y0105866D01*
X0064284Y0101834D01*
X0065187Y0100931D01*
X0065681Y0100931D01*
X0064900Y0100151D01*
X0064900Y0100151D01*
X0064696Y0099946D01*
X0064696Y0099946D01*
X0064500Y0099751D01*
X0064500Y0101451D01*
X0063216Y0102735D01*
X0063216Y0105866D01*
X0062313Y0106768D01*
X0058281Y0106768D01*
X0057379Y0105866D01*
X0057379Y0102729D01*
X0056849Y0102200D01*
X0056396Y0101746D01*
X0053300Y0101746D01*
X0053300Y0105468D01*
X0052568Y0106200D01*
X0019332Y0106200D01*
X0018600Y0105468D01*
X0018600Y0104706D01*
X0018006Y0105300D01*
X0015894Y0105300D01*
X0014400Y0103806D01*
X0014400Y0101694D01*
X0015894Y0100200D01*
X0017591Y0100200D01*
X0017830Y0099961D01*
X0016105Y0099961D01*
X0015549Y0099404D01*
X0015549Y0096255D01*
X0015943Y0095861D01*
X0015549Y0095467D01*
X0015549Y0092318D01*
X0015943Y0091924D01*
X0015549Y0091530D01*
X0015549Y0088381D01*
X0015943Y0087987D01*
X0015549Y0087593D01*
X0015549Y0084444D01*
X0015943Y0084050D01*
X0015549Y0083656D01*
X0015549Y0080507D01*
X0015943Y0080113D01*
X0015549Y0079719D01*
X0015549Y0076570D01*
X0016105Y0076013D01*
X0022995Y0076013D01*
X0023551Y0076570D01*
X0023551Y0076694D01*
X0029640Y0076694D01*
X0029640Y0071654D01*
X0030197Y0071098D01*
X0035708Y0071098D01*
X0036265Y0071654D01*
X0036265Y0079100D01*
X0048851Y0079100D01*
X0049400Y0079649D01*
X0049400Y0078351D01*
X0047849Y0076800D01*
X0037470Y0076800D01*
X0036620Y0075951D01*
X0036620Y0069651D01*
X0036496Y0069651D01*
X0035939Y0069095D01*
X0035939Y0062900D01*
X0035823Y0062900D01*
X0034666Y0062420D01*
X0033780Y0061534D01*
X0033600Y0061100D01*
X0006800Y0061100D01*
X0006800Y0061840D01*
X0013546Y0061840D01*
X0014102Y0062397D01*
X0014102Y0067908D01*
X0013546Y0068465D01*
X0006800Y0068465D01*
X0006800Y0099635D01*
X0013546Y0099635D01*
X0014102Y0100192D01*
X0014102Y0105703D01*
X0013546Y0106260D01*
X0006800Y0106260D01*
X0006800Y0107400D01*
X0082100Y0107400D01*
X0082100Y0079559D01*
X0081766Y0079420D01*
X0080880Y0078534D01*
X0080400Y0077377D01*
X0080400Y0076123D01*
X0080803Y0075150D01*
X0080400Y0074177D01*
X0080400Y0072923D01*
X0080803Y0071950D01*
X0080400Y0070977D01*
X0080400Y0069723D01*
X0080803Y0068750D01*
X0080400Y0067777D01*
X0080400Y0066523D01*
X0080803Y0065550D01*
X0080400Y0064577D01*
X0080400Y0063323D01*
X0080803Y0062350D01*
X0080400Y0061377D01*
X0080400Y0061100D01*
X0080463Y0061528D02*
X0055123Y0061528D01*
X0063824Y0062226D02*
X0080752Y0062226D01*
X0080565Y0062925D02*
X0067161Y0062925D01*
X0067161Y0062529D02*
X0067161Y0065409D01*
X0065870Y0065409D01*
X0065870Y0062249D01*
X0066880Y0062249D01*
X0067009Y0062302D01*
X0067107Y0062401D01*
X0067161Y0062529D01*
X0067161Y0063623D02*
X0080400Y0063623D01*
X0080400Y0064322D02*
X0067161Y0064322D01*
X0067161Y0065020D02*
X0080584Y0065020D01*
X0080733Y0065719D02*
X0065870Y0065719D01*
X0065870Y0065891D02*
X0067161Y0065891D01*
X0067161Y0068771D01*
X0067107Y0068899D01*
X0067009Y0068998D01*
X0066880Y0069051D01*
X0065870Y0069051D01*
X0065870Y0065891D01*
X0065389Y0065891D01*
X0065389Y0069051D01*
X0064379Y0069051D01*
X0064250Y0068998D01*
X0064152Y0068899D01*
X0064098Y0068771D01*
X0064098Y0065891D01*
X0065389Y0065891D01*
X0065389Y0065409D01*
X0065870Y0065409D01*
X0065870Y0065891D01*
X0065389Y0065719D02*
X0063824Y0065719D01*
X0064098Y0065409D02*
X0064098Y0062529D01*
X0064152Y0062401D01*
X0064250Y0062302D01*
X0064379Y0062249D01*
X0065389Y0062249D01*
X0065389Y0065409D01*
X0064098Y0065409D01*
X0064098Y0065020D02*
X0063824Y0065020D01*
X0063824Y0064322D02*
X0064098Y0064322D01*
X0064098Y0063623D02*
X0063824Y0063623D01*
X0063824Y0062925D02*
X0064098Y0062925D01*
X0065389Y0062925D02*
X0065870Y0062925D01*
X0065870Y0063623D02*
X0065389Y0063623D01*
X0065389Y0064322D02*
X0065870Y0064322D01*
X0065870Y0065020D02*
X0065389Y0065020D01*
X0065389Y0066418D02*
X0065870Y0066418D01*
X0065870Y0067116D02*
X0065389Y0067116D01*
X0065389Y0067815D02*
X0065870Y0067815D01*
X0065870Y0068513D02*
X0065389Y0068513D01*
X0064098Y0068513D02*
X0063824Y0068513D01*
X0063824Y0067815D02*
X0064098Y0067815D01*
X0064098Y0067116D02*
X0063824Y0067116D01*
X0063824Y0066418D02*
X0064098Y0066418D01*
X0067161Y0066418D02*
X0080444Y0066418D01*
X0080400Y0067116D02*
X0067161Y0067116D01*
X0067161Y0067815D02*
X0080416Y0067815D01*
X0080705Y0068513D02*
X0067161Y0068513D01*
X0067782Y0071307D02*
X0063158Y0071307D01*
X0063143Y0070609D02*
X0080400Y0070609D01*
X0080400Y0069910D02*
X0063143Y0069910D01*
X0063707Y0069212D02*
X0080612Y0069212D01*
X0080537Y0071307D02*
X0073713Y0071307D01*
X0074060Y0072006D02*
X0080780Y0072006D01*
X0080491Y0072704D02*
X0074060Y0072704D01*
X0074060Y0073403D02*
X0080400Y0073403D01*
X0080400Y0074101D02*
X0074060Y0074101D01*
X0074060Y0074800D02*
X0080658Y0074800D01*
X0080659Y0075498D02*
X0074060Y0075498D01*
X0074060Y0076197D02*
X0080400Y0076197D01*
X0080400Y0076895D02*
X0074060Y0076895D01*
X0074060Y0077594D02*
X0080490Y0077594D01*
X0080779Y0078292D02*
X0074060Y0078292D01*
X0074060Y0078991D02*
X0081336Y0078991D01*
X0082100Y0079689D02*
X0073898Y0079689D01*
X0071825Y0080388D02*
X0082100Y0080388D01*
X0082100Y0081086D02*
X0071825Y0081086D01*
X0071825Y0081785D02*
X0082100Y0081785D01*
X0082100Y0082483D02*
X0071825Y0082483D01*
X0071825Y0083182D02*
X0082100Y0083182D01*
X0082100Y0083880D02*
X0071825Y0083880D01*
X0071825Y0084579D02*
X0082100Y0084579D01*
X0082100Y0085277D02*
X0071825Y0085277D01*
X0071857Y0085976D02*
X0082100Y0085976D01*
X0082100Y0086674D02*
X0071857Y0086674D01*
X0071857Y0087373D02*
X0082100Y0087373D01*
X0082100Y0088071D02*
X0071792Y0088071D01*
X0071493Y0088770D02*
X0082100Y0088770D01*
X0082100Y0089468D02*
X0071493Y0089468D01*
X0071493Y0090167D02*
X0082100Y0090167D01*
X0082100Y0090865D02*
X0071493Y0090865D01*
X0071593Y0091564D02*
X0082100Y0091564D01*
X0082100Y0092262D02*
X0071493Y0092262D01*
X0071497Y0092961D02*
X0082100Y0092961D01*
X0082100Y0093659D02*
X0071493Y0093659D01*
X0071493Y0094358D02*
X0082100Y0094358D01*
X0082100Y0095056D02*
X0071593Y0095056D01*
X0071257Y0095755D02*
X0082100Y0095755D01*
X0082100Y0096453D02*
X0071257Y0096453D01*
X0071257Y0096373D02*
X0070375Y0096373D01*
X0070375Y0097609D01*
X0070375Y0096373D01*
X0070375Y0096373D01*
X0070375Y0096373D01*
X0071257Y0096373D01*
X0071257Y0097152D02*
X0082100Y0097152D01*
X0082100Y0097851D02*
X0070057Y0097851D01*
X0070375Y0097152D02*
X0070375Y0097152D01*
X0070375Y0096453D02*
X0070375Y0096453D01*
X0068682Y0095755D02*
X0068682Y0095755D01*
X0068724Y0095056D02*
X0068042Y0095056D01*
X0067630Y0095056D02*
X0066741Y0095056D01*
X0066989Y0095755D02*
X0066989Y0095755D01*
X0066847Y0093659D02*
X0068955Y0093659D01*
X0069021Y0094358D02*
X0063361Y0094358D01*
X0063361Y0093659D02*
X0063653Y0093659D01*
X0067545Y0092961D02*
X0068820Y0092961D01*
X0069021Y0092262D02*
X0067800Y0092262D01*
X0067800Y0091564D02*
X0068724Y0091564D01*
X0069021Y0090865D02*
X0067800Y0090865D01*
X0067373Y0090167D02*
X0068848Y0090167D01*
X0068927Y0089468D02*
X0066675Y0089468D01*
X0069021Y0088770D02*
X0062000Y0088770D01*
X0049400Y0078991D02*
X0036265Y0078991D01*
X0036265Y0078292D02*
X0049342Y0078292D01*
X0048643Y0077594D02*
X0036265Y0077594D01*
X0036265Y0076895D02*
X0047945Y0076895D01*
X0036867Y0076197D02*
X0036265Y0076197D01*
X0036265Y0075498D02*
X0036620Y0075498D01*
X0036620Y0074800D02*
X0036265Y0074800D01*
X0036265Y0074101D02*
X0036620Y0074101D01*
X0036620Y0073403D02*
X0036265Y0073403D01*
X0036265Y0072704D02*
X0036620Y0072704D01*
X0036620Y0072006D02*
X0036265Y0072006D01*
X0035918Y0071307D02*
X0036620Y0071307D01*
X0036620Y0070609D02*
X0022951Y0070609D01*
X0022951Y0070511D02*
X0022951Y0071521D01*
X0022898Y0071650D01*
X0022799Y0071748D01*
X0022671Y0071802D01*
X0019791Y0071802D01*
X0019791Y0070511D01*
X0022951Y0070511D01*
X0022951Y0070030D02*
X0022951Y0069020D01*
X0022898Y0068891D01*
X0022799Y0068793D01*
X0022671Y0068739D01*
X0019791Y0068739D01*
X0019791Y0070030D01*
X0019791Y0070511D01*
X0019309Y0070511D01*
X0019309Y0070030D01*
X0016149Y0070030D01*
X0016149Y0069020D01*
X0016202Y0068891D01*
X0016301Y0068793D01*
X0016429Y0068739D01*
X0019309Y0068739D01*
X0019309Y0070030D01*
X0019791Y0070030D01*
X0022951Y0070030D01*
X0022951Y0069910D02*
X0036620Y0069910D01*
X0036056Y0069212D02*
X0022951Y0069212D01*
X0022951Y0071307D02*
X0029987Y0071307D01*
X0029640Y0072006D02*
X0006800Y0072006D01*
X0006800Y0072704D02*
X0016362Y0072704D01*
X0016301Y0072730D02*
X0016429Y0072676D01*
X0019309Y0072676D01*
X0019309Y0073967D01*
X0016149Y0073967D01*
X0016149Y0072957D01*
X0016202Y0072828D01*
X0016301Y0072730D01*
X0016149Y0073403D02*
X0006800Y0073403D01*
X0006800Y0074101D02*
X0019309Y0074101D01*
X0019309Y0073967D02*
X0019309Y0074448D01*
X0016149Y0074448D01*
X0016149Y0075458D01*
X0016202Y0075587D01*
X0016301Y0075685D01*
X0016429Y0075739D01*
X0019309Y0075739D01*
X0019309Y0074448D01*
X0019791Y0074448D01*
X0022951Y0074448D01*
X0022951Y0075458D01*
X0022898Y0075587D01*
X0022799Y0075685D01*
X0022671Y0075739D01*
X0019791Y0075739D01*
X0019791Y0074448D01*
X0019791Y0073967D01*
X0022951Y0073967D01*
X0022951Y0072957D01*
X0022898Y0072828D01*
X0022799Y0072730D01*
X0022671Y0072676D01*
X0019791Y0072676D01*
X0019791Y0073967D01*
X0019309Y0073967D01*
X0019791Y0074101D02*
X0029640Y0074101D01*
X0029640Y0073403D02*
X0022951Y0073403D01*
X0022738Y0072704D02*
X0029640Y0072704D01*
X0029640Y0074800D02*
X0022951Y0074800D01*
X0022935Y0075498D02*
X0029640Y0075498D01*
X0029640Y0076197D02*
X0023178Y0076197D01*
X0019791Y0075498D02*
X0019309Y0075498D01*
X0019309Y0074800D02*
X0019791Y0074800D01*
X0019791Y0073403D02*
X0019309Y0073403D01*
X0019309Y0072704D02*
X0019791Y0072704D01*
X0019309Y0071802D02*
X0016429Y0071802D01*
X0016301Y0071748D01*
X0016202Y0071650D01*
X0016149Y0071521D01*
X0016149Y0070511D01*
X0019309Y0070511D01*
X0019309Y0071802D01*
X0019309Y0071307D02*
X0019791Y0071307D01*
X0019791Y0070609D02*
X0019309Y0070609D01*
X0019309Y0069910D02*
X0019791Y0069910D01*
X0019791Y0069212D02*
X0019309Y0069212D01*
X0016149Y0069212D02*
X0006800Y0069212D01*
X0006800Y0069910D02*
X0016149Y0069910D01*
X0016149Y0070609D02*
X0006800Y0070609D01*
X0006800Y0071307D02*
X0016149Y0071307D01*
X0016149Y0074800D02*
X0006800Y0074800D01*
X0006800Y0075498D02*
X0016165Y0075498D01*
X0015922Y0076197D02*
X0006800Y0076197D01*
X0006800Y0076895D02*
X0015549Y0076895D01*
X0015549Y0077594D02*
X0006800Y0077594D01*
X0006800Y0078292D02*
X0015549Y0078292D01*
X0015549Y0078991D02*
X0006800Y0078991D01*
X0006800Y0079689D02*
X0015549Y0079689D01*
X0015668Y0080388D02*
X0006800Y0080388D01*
X0006800Y0081086D02*
X0015549Y0081086D01*
X0015549Y0081785D02*
X0006800Y0081785D01*
X0006800Y0082483D02*
X0015549Y0082483D01*
X0015549Y0083182D02*
X0006800Y0083182D01*
X0006800Y0083880D02*
X0015773Y0083880D01*
X0015549Y0084579D02*
X0006800Y0084579D01*
X0006800Y0085277D02*
X0015549Y0085277D01*
X0015549Y0085976D02*
X0006800Y0085976D01*
X0006800Y0086674D02*
X0015549Y0086674D01*
X0015549Y0087373D02*
X0006800Y0087373D01*
X0006800Y0088071D02*
X0015858Y0088071D01*
X0015549Y0088770D02*
X0006800Y0088770D01*
X0006800Y0089468D02*
X0015549Y0089468D01*
X0015549Y0090167D02*
X0006800Y0090167D01*
X0006800Y0090865D02*
X0015549Y0090865D01*
X0015583Y0091564D02*
X0006800Y0091564D01*
X0006800Y0092262D02*
X0015604Y0092262D01*
X0015549Y0092961D02*
X0006800Y0092961D01*
X0006800Y0093659D02*
X0015549Y0093659D01*
X0015549Y0094358D02*
X0006800Y0094358D01*
X0006800Y0095056D02*
X0015549Y0095056D01*
X0015837Y0095755D02*
X0006800Y0095755D01*
X0006800Y0096453D02*
X0015549Y0096453D01*
X0015549Y0097152D02*
X0006800Y0097152D01*
X0006800Y0097851D02*
X0015549Y0097851D01*
X0015549Y0098549D02*
X0006800Y0098549D01*
X0006800Y0099248D02*
X0015549Y0099248D01*
X0016091Y0099946D02*
X0013856Y0099946D01*
X0014102Y0100645D02*
X0015449Y0100645D01*
X0014751Y0101343D02*
X0014102Y0101343D01*
X0014102Y0102042D02*
X0014400Y0102042D01*
X0014400Y0102740D02*
X0014102Y0102740D01*
X0014102Y0103439D02*
X0014400Y0103439D01*
X0014102Y0104137D02*
X0014731Y0104137D01*
X0014102Y0104836D02*
X0015429Y0104836D01*
X0014102Y0105534D02*
X0018666Y0105534D01*
X0018600Y0104836D02*
X0018471Y0104836D01*
X0013573Y0106233D02*
X0057745Y0106233D01*
X0057379Y0105534D02*
X0053234Y0105534D01*
X0053300Y0104836D02*
X0057379Y0104836D01*
X0057379Y0104137D02*
X0053300Y0104137D01*
X0053300Y0103439D02*
X0057379Y0103439D01*
X0057379Y0102740D02*
X0053300Y0102740D01*
X0053300Y0102042D02*
X0056691Y0102042D01*
X0063216Y0102740D02*
X0064284Y0102740D01*
X0064284Y0102042D02*
X0063909Y0102042D01*
X0064500Y0101343D02*
X0064775Y0101343D01*
X0064500Y0100645D02*
X0065394Y0100645D01*
X0064695Y0099946D02*
X0064500Y0099946D01*
X0064284Y0103439D02*
X0063216Y0103439D01*
X0063216Y0104137D02*
X0064284Y0104137D01*
X0064284Y0104836D02*
X0063216Y0104836D01*
X0063216Y0105534D02*
X0064284Y0105534D01*
X0064651Y0106233D02*
X0062849Y0106233D01*
X0069755Y0106233D02*
X0070226Y0106233D01*
X0072674Y0106233D02*
X0082100Y0106233D01*
X0082100Y0106931D02*
X0006800Y0106931D01*
X0006800Y0068513D02*
X0035939Y0068513D01*
X0035939Y0067815D02*
X0014102Y0067815D01*
X0014102Y0067116D02*
X0035939Y0067116D01*
X0035939Y0066418D02*
X0014102Y0066418D01*
X0014102Y0065719D02*
X0035939Y0065719D01*
X0035939Y0065020D02*
X0014102Y0065020D01*
X0014102Y0064322D02*
X0035939Y0064322D01*
X0035939Y0063623D02*
X0014102Y0063623D01*
X0014102Y0062925D02*
X0035939Y0062925D01*
X0034472Y0062226D02*
X0013932Y0062226D01*
X0006800Y0061528D02*
X0033777Y0061528D01*
X0033898Y0052447D02*
X0006800Y0052447D01*
X0013557Y0051749D02*
X0034596Y0051749D01*
X0018682Y0051050D02*
X0014102Y0051050D01*
X0014102Y0050352D02*
X0015446Y0050352D01*
X0014747Y0049653D02*
X0014102Y0049653D01*
X0014102Y0048955D02*
X0014400Y0048955D01*
X0014400Y0048256D02*
X0014102Y0048256D01*
X0014102Y0047558D02*
X0014400Y0047558D01*
X0014102Y0046859D02*
X0014735Y0046859D01*
X0014102Y0046161D02*
X0015433Y0046161D01*
X0015549Y0044764D02*
X0006800Y0044764D01*
X0006800Y0044065D02*
X0015549Y0044065D01*
X0015549Y0043367D02*
X0006800Y0043367D01*
X0006800Y0042668D02*
X0015549Y0042668D01*
X0015549Y0041970D02*
X0006800Y0041970D01*
X0006800Y0041271D02*
X0015853Y0041271D01*
X0015549Y0040573D02*
X0006800Y0040573D01*
X0006800Y0039874D02*
X0015549Y0039874D01*
X0015549Y0039176D02*
X0006800Y0039176D01*
X0006800Y0038477D02*
X0015549Y0038477D01*
X0015588Y0037779D02*
X0006800Y0037779D01*
X0006800Y0037080D02*
X0015599Y0037080D01*
X0015549Y0036382D02*
X0006800Y0036382D01*
X0006800Y0035683D02*
X0015549Y0035683D01*
X0015549Y0034984D02*
X0006800Y0034984D01*
X0006800Y0034286D02*
X0015549Y0034286D01*
X0015842Y0033587D02*
X0006800Y0033587D01*
X0006800Y0032889D02*
X0015549Y0032889D01*
X0015549Y0032190D02*
X0006800Y0032190D01*
X0006800Y0031492D02*
X0015549Y0031492D01*
X0015549Y0030793D02*
X0006800Y0030793D01*
X0006800Y0030095D02*
X0015549Y0030095D01*
X0015789Y0029396D02*
X0006800Y0029396D01*
X0006800Y0028698D02*
X0015549Y0028698D01*
X0015549Y0027999D02*
X0006800Y0027999D01*
X0006800Y0027301D02*
X0015549Y0027301D01*
X0015549Y0026602D02*
X0006800Y0026602D01*
X0006800Y0025904D02*
X0015652Y0025904D01*
X0015549Y0025205D02*
X0006800Y0025205D01*
X0006800Y0024507D02*
X0015549Y0024507D01*
X0015549Y0023808D02*
X0006800Y0023808D01*
X0006800Y0023110D02*
X0015549Y0023110D01*
X0015549Y0022411D02*
X0006800Y0022411D01*
X0006800Y0021713D02*
X0015906Y0021713D01*
X0016301Y0021185D02*
X0016202Y0021087D01*
X0016149Y0020958D01*
X0016149Y0019948D01*
X0019309Y0019948D01*
X0019309Y0019467D01*
X0016149Y0019467D01*
X0016149Y0018457D01*
X0016202Y0018328D01*
X0016301Y0018230D01*
X0016429Y0018176D01*
X0019309Y0018176D01*
X0019309Y0019467D01*
X0019791Y0019467D01*
X0019791Y0019948D01*
X0022951Y0019948D01*
X0022951Y0020958D01*
X0022898Y0021087D01*
X0022799Y0021185D01*
X0022671Y0021239D01*
X0019791Y0021239D01*
X0019791Y0019948D01*
X0019309Y0019948D01*
X0019309Y0021239D01*
X0016429Y0021239D01*
X0016301Y0021185D01*
X0016172Y0021014D02*
X0006800Y0021014D01*
X0006800Y0020316D02*
X0016149Y0020316D01*
X0016149Y0018919D02*
X0006800Y0018919D01*
X0006800Y0019617D02*
X0019309Y0019617D01*
X0019791Y0019617D02*
X0029640Y0019617D01*
X0029640Y0018919D02*
X0022951Y0018919D01*
X0022951Y0018457D02*
X0022951Y0019467D01*
X0019791Y0019467D01*
X0019791Y0018176D01*
X0022671Y0018176D01*
X0022799Y0018230D01*
X0022898Y0018328D01*
X0022951Y0018457D01*
X0022777Y0018220D02*
X0029640Y0018220D01*
X0029640Y0017522D02*
X0006800Y0017522D01*
X0006800Y0018220D02*
X0016323Y0018220D01*
X0016429Y0017302D02*
X0016301Y0017248D01*
X0016202Y0017150D01*
X0016149Y0017021D01*
X0016149Y0016011D01*
X0019309Y0016011D01*
X0019309Y0015530D01*
X0016149Y0015530D01*
X0016149Y0014520D01*
X0016202Y0014391D01*
X0016301Y0014293D01*
X0016429Y0014239D01*
X0019309Y0014239D01*
X0019309Y0015530D01*
X0019791Y0015530D01*
X0019791Y0016011D01*
X0022951Y0016011D01*
X0022951Y0017021D01*
X0022898Y0017150D01*
X0022799Y0017248D01*
X0022671Y0017302D01*
X0019791Y0017302D01*
X0019791Y0016011D01*
X0019309Y0016011D01*
X0019309Y0017302D01*
X0016429Y0017302D01*
X0016149Y0016823D02*
X0006800Y0016823D01*
X0006800Y0016125D02*
X0016149Y0016125D01*
X0016149Y0015426D02*
X0006800Y0015426D01*
X0006800Y0014728D02*
X0016149Y0014728D01*
X0014102Y0013331D02*
X0035939Y0013331D01*
X0035939Y0014029D02*
X0006800Y0014029D01*
X0014102Y0012632D02*
X0035939Y0012632D01*
X0035939Y0011934D02*
X0014102Y0011934D01*
X0014102Y0011235D02*
X0035939Y0011235D01*
X0035939Y0010537D02*
X0014102Y0010537D01*
X0014102Y0009838D02*
X0035939Y0009838D01*
X0035939Y0009140D02*
X0014102Y0009140D01*
X0014102Y0008441D02*
X0035939Y0008441D01*
X0035939Y0007743D02*
X0013948Y0007743D01*
X0019791Y0014239D02*
X0022671Y0014239D01*
X0022799Y0014293D01*
X0022898Y0014391D01*
X0022951Y0014520D01*
X0022951Y0015530D01*
X0019791Y0015530D01*
X0019791Y0014239D01*
X0019791Y0014728D02*
X0019309Y0014728D01*
X0019309Y0015426D02*
X0019791Y0015426D01*
X0019791Y0016125D02*
X0019309Y0016125D01*
X0019309Y0016823D02*
X0019791Y0016823D01*
X0019791Y0018220D02*
X0019309Y0018220D01*
X0019309Y0018919D02*
X0019791Y0018919D01*
X0019791Y0020316D02*
X0019309Y0020316D01*
X0019309Y0021014D02*
X0019791Y0021014D01*
X0022928Y0021014D02*
X0029640Y0021014D01*
X0029640Y0020316D02*
X0022951Y0020316D01*
X0023194Y0021713D02*
X0029640Y0021713D01*
X0036265Y0021713D02*
X0036883Y0021713D01*
X0036620Y0021014D02*
X0036265Y0021014D01*
X0036265Y0020316D02*
X0036620Y0020316D01*
X0036620Y0019617D02*
X0036265Y0019617D01*
X0036265Y0018919D02*
X0036620Y0018919D01*
X0036620Y0018220D02*
X0036265Y0018220D01*
X0036265Y0017522D02*
X0036620Y0017522D01*
X0036620Y0016823D02*
X0035934Y0016823D01*
X0036620Y0016125D02*
X0022951Y0016125D01*
X0022951Y0016823D02*
X0029971Y0016823D01*
X0036072Y0014728D02*
X0022951Y0014728D01*
X0022951Y0015426D02*
X0036620Y0015426D01*
X0036265Y0022411D02*
X0047961Y0022411D01*
X0048659Y0023110D02*
X0036265Y0023110D01*
X0036265Y0023808D02*
X0049358Y0023808D01*
X0049400Y0024507D02*
X0036265Y0024507D01*
X0017829Y0045462D02*
X0013873Y0045462D01*
X0018454Y0050352D02*
X0018600Y0050352D01*
X0063856Y0072006D02*
X0067435Y0072006D01*
X0067435Y0072704D02*
X0064555Y0072704D01*
X0065253Y0073403D02*
X0067435Y0073403D01*
X0067435Y0074101D02*
X0065952Y0074101D01*
X0066650Y0074800D02*
X0067435Y0074800D01*
X0067435Y0075498D02*
X0067349Y0075498D01*
X0090300Y0079600D02*
X0090300Y0107400D01*
X0165600Y0107400D01*
X0165600Y0106660D01*
X0158854Y0106660D01*
X0158298Y0106103D01*
X0158298Y0100592D01*
X0158854Y0100035D01*
X0165600Y0100035D01*
X0165600Y0068865D01*
X0158854Y0068865D01*
X0158298Y0068308D01*
X0158298Y0062797D01*
X0158854Y0062240D01*
X0165600Y0062240D01*
X0165600Y0061100D01*
X0138800Y0061100D01*
X0138620Y0061534D01*
X0137855Y0062300D01*
X0153068Y0062300D01*
X0153800Y0063032D01*
X0153800Y0063794D01*
X0154394Y0063200D01*
X0156506Y0063200D01*
X0158000Y0064694D01*
X0158000Y0066806D01*
X0156506Y0068300D01*
X0154809Y0068300D01*
X0154570Y0068539D01*
X0156295Y0068539D01*
X0156851Y0069096D01*
X0156851Y0072245D01*
X0156457Y0072639D01*
X0156851Y0073033D01*
X0156851Y0076182D01*
X0156457Y0076576D01*
X0156851Y0076970D01*
X0156851Y0080119D01*
X0156457Y0080513D01*
X0156851Y0080907D01*
X0156851Y0084056D01*
X0156457Y0084450D01*
X0156851Y0084844D01*
X0156851Y0087993D01*
X0156457Y0088387D01*
X0156851Y0088781D01*
X0156851Y0091930D01*
X0156295Y0092487D01*
X0149405Y0092487D01*
X0148849Y0091930D01*
X0148849Y0091805D01*
X0142760Y0091805D01*
X0142760Y0096846D01*
X0142203Y0097402D01*
X0136692Y0097402D01*
X0136135Y0096846D01*
X0136135Y0089400D01*
X0123549Y0089400D01*
X0123000Y0088851D01*
X0123000Y0090149D01*
X0124551Y0091700D01*
X0134930Y0091700D01*
X0135780Y0092549D01*
X0135780Y0098849D01*
X0135904Y0098849D01*
X0136461Y0099405D01*
X0136461Y0106295D01*
X0135904Y0106851D01*
X0132755Y0106851D01*
X0132361Y0106457D01*
X0131967Y0106851D01*
X0128818Y0106851D01*
X0128424Y0106457D01*
X0128030Y0106851D01*
X0124881Y0106851D01*
X0124487Y0106457D01*
X0124093Y0106851D01*
X0120944Y0106851D01*
X0120550Y0106457D01*
X0120156Y0106851D01*
X0117007Y0106851D01*
X0116613Y0106457D01*
X0116219Y0106851D01*
X0113070Y0106851D01*
X0112676Y0106457D01*
X0112282Y0106851D01*
X0109133Y0106851D01*
X0108576Y0106295D01*
X0108576Y0099405D01*
X0109133Y0098849D01*
X0109257Y0098849D01*
X0109257Y0097208D01*
X0104965Y0092915D01*
X0104965Y0096846D01*
X0104408Y0097402D01*
X0098897Y0097402D01*
X0098340Y0096846D01*
X0098340Y0088972D01*
X0098897Y0088416D01*
X0100575Y0088416D01*
X0100575Y0083084D01*
X0100543Y0083052D01*
X0100543Y0080493D01*
X0100807Y0080230D01*
X0100807Y0080149D01*
X0100907Y0080049D01*
X0100907Y0079489D01*
X0100907Y0078929D01*
X0100807Y0078829D01*
X0100807Y0078457D01*
X0100907Y0078357D01*
X0100907Y0077797D01*
X0102143Y0077797D01*
X0103379Y0077797D01*
X0103379Y0078193D01*
X0103412Y0078193D01*
X0103676Y0078457D01*
X0103676Y0078829D01*
X0103412Y0079093D01*
X0103379Y0079093D01*
X0103379Y0079489D01*
X0102143Y0079489D01*
X0102143Y0079489D01*
X0100907Y0079489D01*
X0102143Y0079489D01*
X0102143Y0079489D01*
X0103379Y0079489D01*
X0103379Y0079886D01*
X0103412Y0079886D01*
X0103463Y0079937D01*
X0110400Y0079937D01*
X0110400Y0079200D01*
X0108406Y0079200D01*
X0108206Y0079400D01*
X0106094Y0079400D01*
X0104600Y0077906D01*
X0104600Y0075794D01*
X0106094Y0074300D01*
X0108206Y0074300D01*
X0109039Y0075133D01*
X0109039Y0073963D01*
X0106179Y0073963D01*
X0105622Y0073406D01*
X0105622Y0073363D01*
X0105411Y0073363D01*
X0105411Y0072127D01*
X0105411Y0072127D01*
X0105411Y0073363D01*
X0104851Y0073363D01*
X0104751Y0073463D01*
X0104378Y0073463D01*
X0104278Y0073363D01*
X0103718Y0073363D01*
X0103718Y0072127D01*
X0103718Y0072127D01*
X0103718Y0073363D01*
X0103661Y0073363D01*
X0103676Y0073378D01*
X0103676Y0073751D01*
X0103412Y0074014D01*
X0103379Y0074014D01*
X0103379Y0074411D01*
X0103379Y0074807D01*
X0103412Y0074807D01*
X0103676Y0075071D01*
X0103676Y0075443D01*
X0103412Y0075707D01*
X0103379Y0075707D01*
X0103379Y0076103D01*
X0102143Y0076103D01*
X0102143Y0076104D01*
X0103379Y0076104D01*
X0103379Y0076500D01*
X0103412Y0076500D01*
X0103676Y0076764D01*
X0103676Y0077136D01*
X0103412Y0077400D01*
X0103379Y0077400D01*
X0103379Y0077796D01*
X0102143Y0077796D01*
X0102143Y0077797D01*
X0102143Y0077796D01*
X0100907Y0077796D01*
X0100907Y0077236D01*
X0100807Y0077136D01*
X0100807Y0076764D01*
X0100907Y0076664D01*
X0100907Y0076104D01*
X0102143Y0076104D01*
X0102143Y0076103D01*
X0100907Y0076103D01*
X0100907Y0075543D01*
X0100807Y0075443D01*
X0100807Y0075071D01*
X0100907Y0074971D01*
X0100907Y0074411D01*
X0102143Y0074411D01*
X0103379Y0074411D01*
X0102143Y0074411D01*
X0102143Y0074411D01*
X0102143Y0074411D01*
X0100907Y0074411D01*
X0100907Y0073851D01*
X0100807Y0073751D01*
X0100807Y0073378D01*
X0101071Y0073114D01*
X0101156Y0073114D01*
X0101143Y0073083D01*
X0101143Y0072127D01*
X0101143Y0071172D01*
X0101197Y0071043D01*
X0101295Y0070945D01*
X0101424Y0070891D01*
X0102025Y0070891D01*
X0102421Y0070891D01*
X0102421Y0070858D01*
X0102487Y0070793D01*
X0101700Y0070006D01*
X0101700Y0067894D01*
X0102603Y0066991D01*
X0102409Y0066797D01*
X0102006Y0067200D01*
X0099894Y0067200D01*
X0098400Y0065706D01*
X0098400Y0063594D01*
X0099894Y0062100D01*
X0102006Y0062100D01*
X0102409Y0062503D01*
X0103181Y0061731D01*
X0107213Y0061731D01*
X0108116Y0062634D01*
X0108116Y0066666D01*
X0107213Y0067568D01*
X0106719Y0067568D01*
X0107704Y0068554D01*
X0107900Y0068749D01*
X0107900Y0067049D01*
X0109184Y0065765D01*
X0109184Y0062634D01*
X0110087Y0061731D01*
X0114119Y0061731D01*
X0115021Y0062634D01*
X0115021Y0065771D01*
X0115551Y0066300D01*
X0116004Y0066754D01*
X0119100Y0066754D01*
X0119100Y0063032D01*
X0119259Y0062873D01*
X0118166Y0062420D01*
X0117280Y0061534D01*
X0117100Y0061100D01*
X0092100Y0061100D01*
X0092100Y0061377D01*
X0091697Y0062350D01*
X0092100Y0063323D01*
X0092100Y0064577D01*
X0091697Y0065550D01*
X0092100Y0066523D01*
X0092100Y0067777D01*
X0091697Y0068750D01*
X0092100Y0069723D01*
X0092100Y0070977D01*
X0091697Y0071950D01*
X0092100Y0072923D01*
X0092100Y0074177D01*
X0091697Y0075150D01*
X0092100Y0076123D01*
X0092100Y0077377D01*
X0091620Y0078534D01*
X0090734Y0079420D01*
X0090300Y0079600D01*
X0090300Y0079689D02*
X0100907Y0079689D01*
X0100907Y0078991D02*
X0091164Y0078991D01*
X0091721Y0078292D02*
X0100907Y0078292D01*
X0100907Y0077594D02*
X0092010Y0077594D01*
X0092100Y0076895D02*
X0100807Y0076895D01*
X0100907Y0076197D02*
X0092100Y0076197D01*
X0091841Y0075498D02*
X0100862Y0075498D01*
X0100907Y0074800D02*
X0091842Y0074800D01*
X0092100Y0074101D02*
X0100907Y0074101D01*
X0100807Y0073403D02*
X0092100Y0073403D01*
X0092009Y0072704D02*
X0101143Y0072704D01*
X0101143Y0072127D02*
X0102025Y0072127D01*
X0102025Y0070891D01*
X0102025Y0072127D01*
X0102025Y0072127D01*
X0101143Y0072127D01*
X0101143Y0072006D02*
X0091720Y0072006D01*
X0091963Y0071307D02*
X0101143Y0071307D01*
X0102025Y0071307D02*
X0102025Y0071307D01*
X0102025Y0072006D02*
X0102025Y0072006D01*
X0102025Y0072127D02*
X0102025Y0072127D01*
X0103718Y0072704D02*
X0103718Y0072704D01*
X0103676Y0073403D02*
X0104317Y0073403D01*
X0104811Y0073403D02*
X0105622Y0073403D01*
X0105411Y0072704D02*
X0105411Y0072704D01*
X0105594Y0074800D02*
X0103379Y0074800D01*
X0103379Y0074101D02*
X0109039Y0074101D01*
X0109039Y0074800D02*
X0108706Y0074800D01*
X0104896Y0075498D02*
X0103621Y0075498D01*
X0103379Y0076197D02*
X0104600Y0076197D01*
X0104600Y0076895D02*
X0103676Y0076895D01*
X0103379Y0077594D02*
X0104600Y0077594D01*
X0104986Y0078292D02*
X0103511Y0078292D01*
X0103514Y0078991D02*
X0105684Y0078991D01*
X0103379Y0079689D02*
X0110400Y0079689D01*
X0100649Y0080388D02*
X0090300Y0080388D01*
X0090300Y0081086D02*
X0100543Y0081086D01*
X0100543Y0081785D02*
X0090300Y0081785D01*
X0090300Y0082483D02*
X0100543Y0082483D01*
X0100575Y0083182D02*
X0090300Y0083182D01*
X0090300Y0083880D02*
X0100575Y0083880D01*
X0100575Y0084579D02*
X0090300Y0084579D01*
X0090300Y0085277D02*
X0100575Y0085277D01*
X0100575Y0085976D02*
X0090300Y0085976D01*
X0090300Y0086674D02*
X0100575Y0086674D01*
X0100575Y0087373D02*
X0090300Y0087373D01*
X0090300Y0088071D02*
X0100575Y0088071D01*
X0098543Y0088770D02*
X0090300Y0088770D01*
X0090300Y0089468D02*
X0098340Y0089468D01*
X0098340Y0090167D02*
X0090300Y0090167D01*
X0090300Y0090865D02*
X0098340Y0090865D01*
X0098340Y0091564D02*
X0090300Y0091564D01*
X0090300Y0092262D02*
X0098340Y0092262D01*
X0098340Y0092961D02*
X0090300Y0092961D01*
X0090300Y0093659D02*
X0098340Y0093659D01*
X0098340Y0094358D02*
X0090300Y0094358D01*
X0090300Y0095056D02*
X0098340Y0095056D01*
X0098340Y0095755D02*
X0090300Y0095755D01*
X0090300Y0096453D02*
X0098340Y0096453D01*
X0098646Y0097152D02*
X0090300Y0097152D01*
X0090300Y0097851D02*
X0109257Y0097851D01*
X0109257Y0098549D02*
X0090300Y0098549D01*
X0090300Y0099248D02*
X0108734Y0099248D01*
X0108248Y0099601D02*
X0108302Y0099729D01*
X0108302Y0102609D01*
X0107011Y0102609D01*
X0107011Y0099449D01*
X0108021Y0099449D01*
X0108150Y0099502D01*
X0108248Y0099601D01*
X0108302Y0099946D02*
X0108576Y0099946D01*
X0108576Y0100645D02*
X0108302Y0100645D01*
X0108302Y0101343D02*
X0108576Y0101343D01*
X0108576Y0102042D02*
X0108302Y0102042D01*
X0108576Y0102740D02*
X0107011Y0102740D01*
X0107011Y0102609D02*
X0107011Y0103091D01*
X0106530Y0103091D01*
X0106530Y0106251D01*
X0105520Y0106251D01*
X0105391Y0106198D01*
X0105293Y0106099D01*
X0105239Y0105971D01*
X0105239Y0103091D01*
X0106530Y0103091D01*
X0106530Y0102609D01*
X0107011Y0102609D01*
X0106530Y0102609D02*
X0106530Y0099449D01*
X0105520Y0099449D01*
X0105391Y0099502D01*
X0105293Y0099601D01*
X0105239Y0099729D01*
X0105239Y0102609D01*
X0106530Y0102609D01*
X0106530Y0102740D02*
X0090300Y0102740D01*
X0090300Y0102042D02*
X0105239Y0102042D01*
X0105239Y0101343D02*
X0090300Y0101343D01*
X0090300Y0100645D02*
X0105239Y0100645D01*
X0105239Y0099946D02*
X0090300Y0099946D01*
X0090300Y0103439D02*
X0105239Y0103439D01*
X0105239Y0104137D02*
X0090300Y0104137D01*
X0090300Y0104836D02*
X0105239Y0104836D01*
X0105239Y0105534D02*
X0090300Y0105534D01*
X0090300Y0106233D02*
X0105475Y0106233D01*
X0106530Y0106233D02*
X0107011Y0106233D01*
X0107011Y0106251D02*
X0108021Y0106251D01*
X0108150Y0106198D01*
X0108248Y0106099D01*
X0108302Y0105971D01*
X0108302Y0103091D01*
X0107011Y0103091D01*
X0107011Y0106251D01*
X0107011Y0105534D02*
X0106530Y0105534D01*
X0106530Y0104836D02*
X0107011Y0104836D01*
X0107011Y0104137D02*
X0106530Y0104137D01*
X0106530Y0103439D02*
X0107011Y0103439D01*
X0108302Y0103439D02*
X0108576Y0103439D01*
X0108576Y0104137D02*
X0108302Y0104137D01*
X0108302Y0104836D02*
X0108576Y0104836D01*
X0108576Y0105534D02*
X0108302Y0105534D01*
X0108066Y0106233D02*
X0108576Y0106233D01*
X0107011Y0102042D02*
X0106530Y0102042D01*
X0106530Y0101343D02*
X0107011Y0101343D01*
X0107011Y0100645D02*
X0106530Y0100645D01*
X0106530Y0099946D02*
X0107011Y0099946D01*
X0109201Y0097152D02*
X0104658Y0097152D01*
X0104965Y0096453D02*
X0108503Y0096453D01*
X0107804Y0095755D02*
X0104965Y0095755D01*
X0104965Y0095056D02*
X0107106Y0095056D01*
X0106407Y0094358D02*
X0104965Y0094358D01*
X0104965Y0093659D02*
X0105709Y0093659D01*
X0105010Y0092961D02*
X0104965Y0092961D01*
X0123017Y0090167D02*
X0136135Y0090167D01*
X0136135Y0090865D02*
X0123716Y0090865D01*
X0124415Y0091564D02*
X0136135Y0091564D01*
X0136135Y0092262D02*
X0135493Y0092262D01*
X0135780Y0092961D02*
X0136135Y0092961D01*
X0136135Y0093659D02*
X0135780Y0093659D01*
X0135780Y0094358D02*
X0136135Y0094358D01*
X0136135Y0095056D02*
X0135780Y0095056D01*
X0135780Y0095755D02*
X0136135Y0095755D01*
X0136135Y0096453D02*
X0135780Y0096453D01*
X0135780Y0097152D02*
X0136442Y0097152D01*
X0135780Y0097851D02*
X0149449Y0097851D01*
X0149449Y0097989D02*
X0149449Y0096979D01*
X0149502Y0096850D01*
X0149601Y0096752D01*
X0149729Y0096698D01*
X0152609Y0096698D01*
X0152609Y0097989D01*
X0149449Y0097989D01*
X0149449Y0098470D02*
X0149449Y0099480D01*
X0149502Y0099609D01*
X0149601Y0099707D01*
X0149729Y0099761D01*
X0152609Y0099761D01*
X0152609Y0098470D01*
X0152609Y0097989D01*
X0153091Y0097989D01*
X0153091Y0098470D01*
X0156251Y0098470D01*
X0156251Y0099480D01*
X0156198Y0099609D01*
X0156099Y0099707D01*
X0155971Y0099761D01*
X0153091Y0099761D01*
X0153091Y0098470D01*
X0152609Y0098470D01*
X0149449Y0098470D01*
X0149449Y0098549D02*
X0135780Y0098549D01*
X0136303Y0099248D02*
X0149449Y0099248D01*
X0149449Y0097152D02*
X0142454Y0097152D01*
X0142760Y0096453D02*
X0165600Y0096453D01*
X0165600Y0095755D02*
X0156115Y0095755D01*
X0156099Y0095770D02*
X0156198Y0095672D01*
X0156251Y0095543D01*
X0156251Y0094533D01*
X0153091Y0094533D01*
X0153091Y0094052D01*
X0156251Y0094052D01*
X0156251Y0093042D01*
X0156198Y0092913D01*
X0156099Y0092815D01*
X0155971Y0092761D01*
X0153091Y0092761D01*
X0153091Y0094052D01*
X0152609Y0094052D01*
X0149449Y0094052D01*
X0149449Y0093042D01*
X0149502Y0092913D01*
X0149601Y0092815D01*
X0149729Y0092761D01*
X0152609Y0092761D01*
X0152609Y0094052D01*
X0152609Y0094533D01*
X0149449Y0094533D01*
X0149449Y0095543D01*
X0149502Y0095672D01*
X0149601Y0095770D01*
X0149729Y0095824D01*
X0152609Y0095824D01*
X0152609Y0094533D01*
X0153091Y0094533D01*
X0153091Y0095824D01*
X0155971Y0095824D01*
X0156099Y0095770D01*
X0156251Y0095056D02*
X0165600Y0095056D01*
X0165600Y0094358D02*
X0153091Y0094358D01*
X0152609Y0094358D02*
X0142760Y0094358D01*
X0142760Y0095056D02*
X0149449Y0095056D01*
X0149585Y0095755D02*
X0142760Y0095755D01*
X0142760Y0093659D02*
X0149449Y0093659D01*
X0149482Y0092961D02*
X0142760Y0092961D01*
X0142760Y0092262D02*
X0149181Y0092262D01*
X0152609Y0092961D02*
X0153091Y0092961D01*
X0153091Y0093659D02*
X0152609Y0093659D01*
X0152609Y0095056D02*
X0153091Y0095056D01*
X0153091Y0095755D02*
X0152609Y0095755D01*
X0153091Y0096698D02*
X0155971Y0096698D01*
X0156099Y0096752D01*
X0156198Y0096850D01*
X0156251Y0096979D01*
X0156251Y0097989D01*
X0153091Y0097989D01*
X0153091Y0096698D01*
X0153091Y0097152D02*
X0152609Y0097152D01*
X0152609Y0097851D02*
X0153091Y0097851D01*
X0153091Y0098549D02*
X0152609Y0098549D01*
X0152609Y0099248D02*
X0153091Y0099248D01*
X0156251Y0099248D02*
X0165600Y0099248D01*
X0165600Y0099946D02*
X0136461Y0099946D01*
X0136461Y0100645D02*
X0158298Y0100645D01*
X0158298Y0101343D02*
X0136461Y0101343D01*
X0136461Y0102042D02*
X0158298Y0102042D01*
X0158298Y0102740D02*
X0136461Y0102740D01*
X0136461Y0103439D02*
X0158298Y0103439D01*
X0158298Y0104137D02*
X0136461Y0104137D01*
X0136461Y0104836D02*
X0158298Y0104836D01*
X0158298Y0105534D02*
X0136461Y0105534D01*
X0136461Y0106233D02*
X0158427Y0106233D01*
X0165600Y0106931D02*
X0090300Y0106931D01*
X0082100Y0105534D02*
X0073372Y0105534D01*
X0074000Y0104836D02*
X0082100Y0104836D01*
X0082100Y0104137D02*
X0074000Y0104137D01*
X0074000Y0103439D02*
X0082100Y0103439D01*
X0082100Y0102740D02*
X0073946Y0102740D01*
X0073248Y0102042D02*
X0082100Y0102042D01*
X0082100Y0101343D02*
X0072549Y0101343D01*
X0070700Y0099946D02*
X0082100Y0099946D01*
X0082100Y0099248D02*
X0070700Y0099248D01*
X0070700Y0098549D02*
X0082100Y0098549D01*
X0082100Y0100645D02*
X0070662Y0100645D01*
X0070351Y0101343D02*
X0069963Y0101343D01*
X0092100Y0070609D02*
X0102302Y0070609D01*
X0101700Y0069910D02*
X0092100Y0069910D01*
X0091888Y0069212D02*
X0101700Y0069212D01*
X0101700Y0068513D02*
X0091795Y0068513D01*
X0092084Y0067815D02*
X0101779Y0067815D01*
X0102090Y0067116D02*
X0102478Y0067116D01*
X0099810Y0067116D02*
X0092100Y0067116D01*
X0092056Y0066418D02*
X0099111Y0066418D01*
X0098413Y0065719D02*
X0091767Y0065719D01*
X0091916Y0065020D02*
X0098400Y0065020D01*
X0098400Y0064322D02*
X0092100Y0064322D01*
X0092100Y0063623D02*
X0098400Y0063623D01*
X0099069Y0062925D02*
X0091935Y0062925D01*
X0091748Y0062226D02*
X0099767Y0062226D01*
X0102133Y0062226D02*
X0102686Y0062226D01*
X0107708Y0062226D02*
X0109592Y0062226D01*
X0109184Y0062925D02*
X0108116Y0062925D01*
X0108116Y0063623D02*
X0109184Y0063623D01*
X0109184Y0064322D02*
X0108116Y0064322D01*
X0108116Y0065020D02*
X0109184Y0065020D01*
X0109184Y0065719D02*
X0108116Y0065719D01*
X0108116Y0066418D02*
X0108532Y0066418D01*
X0107900Y0067116D02*
X0107666Y0067116D01*
X0107900Y0067815D02*
X0106965Y0067815D01*
X0107664Y0068513D02*
X0107900Y0068513D01*
X0115021Y0065719D02*
X0119100Y0065719D01*
X0119100Y0065020D02*
X0115021Y0065020D01*
X0115021Y0064322D02*
X0119100Y0064322D01*
X0119100Y0063623D02*
X0115021Y0063623D01*
X0115021Y0062925D02*
X0119207Y0062925D01*
X0117972Y0062226D02*
X0114614Y0062226D01*
X0117277Y0061528D02*
X0092037Y0061528D01*
X0090300Y0052900D02*
X0117141Y0052900D01*
X0117280Y0052566D01*
X0117494Y0052351D01*
X0117007Y0052351D01*
X0116613Y0051957D01*
X0116219Y0052351D01*
X0113070Y0052351D01*
X0112676Y0051957D01*
X0112282Y0052351D01*
X0109133Y0052351D01*
X0108576Y0051795D01*
X0108576Y0044905D01*
X0109133Y0044349D01*
X0109257Y0044349D01*
X0109257Y0042708D01*
X0104965Y0038415D01*
X0104965Y0042346D01*
X0104408Y0042902D01*
X0098897Y0042902D01*
X0098340Y0042346D01*
X0098340Y0034472D01*
X0098897Y0033916D01*
X0100575Y0033916D01*
X0100575Y0028584D01*
X0100543Y0028552D01*
X0100543Y0025993D01*
X0100807Y0025730D01*
X0100807Y0025649D01*
X0100907Y0025549D01*
X0100907Y0024989D01*
X0100907Y0024429D01*
X0100807Y0024329D01*
X0100807Y0023957D01*
X0100907Y0023857D01*
X0100907Y0023297D01*
X0102143Y0023297D01*
X0103379Y0023297D01*
X0103379Y0023693D01*
X0103412Y0023693D01*
X0103676Y0023957D01*
X0103676Y0024329D01*
X0103412Y0024593D01*
X0103379Y0024593D01*
X0103379Y0024989D01*
X0102143Y0024989D01*
X0102143Y0024989D01*
X0100907Y0024989D01*
X0102143Y0024989D01*
X0102143Y0024989D01*
X0103379Y0024989D01*
X0103379Y0025386D01*
X0103412Y0025386D01*
X0103463Y0025437D01*
X0110400Y0025437D01*
X0110400Y0024700D01*
X0108406Y0024700D01*
X0108206Y0024900D01*
X0106094Y0024900D01*
X0104600Y0023406D01*
X0104600Y0021294D01*
X0106094Y0019800D01*
X0108206Y0019800D01*
X0109039Y0020633D01*
X0109039Y0019463D01*
X0106179Y0019463D01*
X0105622Y0018906D01*
X0105622Y0018863D01*
X0105411Y0018863D01*
X0105411Y0017627D01*
X0105411Y0017627D01*
X0105411Y0018863D01*
X0104851Y0018863D01*
X0104751Y0018963D01*
X0104378Y0018963D01*
X0104278Y0018863D01*
X0103718Y0018863D01*
X0103718Y0017627D01*
X0103718Y0017627D01*
X0103718Y0018863D01*
X0103661Y0018863D01*
X0103676Y0018878D01*
X0103676Y0019251D01*
X0103412Y0019514D01*
X0103379Y0019514D01*
X0103379Y0019911D01*
X0103379Y0020307D01*
X0103412Y0020307D01*
X0103676Y0020571D01*
X0103676Y0020943D01*
X0103412Y0021207D01*
X0103379Y0021207D01*
X0103379Y0021603D01*
X0102143Y0021603D01*
X0102143Y0021604D01*
X0103379Y0021604D01*
X0103379Y0022000D01*
X0103412Y0022000D01*
X0103676Y0022264D01*
X0103676Y0022636D01*
X0103412Y0022900D01*
X0103379Y0022900D01*
X0103379Y0023296D01*
X0102143Y0023296D01*
X0102143Y0023297D01*
X0102143Y0023296D01*
X0100907Y0023296D01*
X0100907Y0022736D01*
X0100807Y0022636D01*
X0100807Y0022264D01*
X0100907Y0022164D01*
X0100907Y0021604D01*
X0102143Y0021604D01*
X0102143Y0021603D01*
X0100907Y0021603D01*
X0100907Y0021043D01*
X0100807Y0020943D01*
X0100807Y0020571D01*
X0100907Y0020471D01*
X0100907Y0019911D01*
X0102143Y0019911D01*
X0103379Y0019911D01*
X0102143Y0019911D01*
X0102143Y0019911D01*
X0102143Y0019911D01*
X0100907Y0019911D01*
X0100907Y0019351D01*
X0100807Y0019251D01*
X0100807Y0018878D01*
X0101071Y0018614D01*
X0101156Y0018614D01*
X0101143Y0018583D01*
X0101143Y0017627D01*
X0101143Y0016672D01*
X0101197Y0016543D01*
X0101295Y0016445D01*
X0101424Y0016391D01*
X0102025Y0016391D01*
X0102421Y0016391D01*
X0102421Y0016358D01*
X0102487Y0016293D01*
X0101700Y0015506D01*
X0101700Y0013394D01*
X0102603Y0012491D01*
X0102409Y0012297D01*
X0102006Y0012700D01*
X0099894Y0012700D01*
X0098400Y0011206D01*
X0098400Y0009094D01*
X0099894Y0007600D01*
X0102006Y0007600D01*
X0102409Y0008003D01*
X0103181Y0007231D01*
X0107213Y0007231D01*
X0108116Y0008134D01*
X0108116Y0012166D01*
X0107213Y0013068D01*
X0106719Y0013068D01*
X0107500Y0013849D01*
X0107500Y0013849D01*
X0107704Y0014054D01*
X0107900Y0014249D01*
X0107900Y0012549D01*
X0109184Y0011265D01*
X0109184Y0008134D01*
X0110087Y0007231D01*
X0114119Y0007231D01*
X0115021Y0008134D01*
X0115021Y0011271D01*
X0115551Y0011800D01*
X0116004Y0012254D01*
X0119100Y0012254D01*
X0119100Y0008532D01*
X0119832Y0007800D01*
X0153068Y0007800D01*
X0153800Y0008532D01*
X0153800Y0009294D01*
X0154394Y0008700D01*
X0156506Y0008700D01*
X0158000Y0010194D01*
X0158000Y0012306D01*
X0156506Y0013800D01*
X0154809Y0013800D01*
X0154570Y0014039D01*
X0156295Y0014039D01*
X0156851Y0014596D01*
X0156851Y0017745D01*
X0156457Y0018139D01*
X0156851Y0018533D01*
X0156851Y0021682D01*
X0156457Y0022076D01*
X0156851Y0022470D01*
X0156851Y0025619D01*
X0156457Y0026013D01*
X0156851Y0026407D01*
X0156851Y0029556D01*
X0156457Y0029950D01*
X0156851Y0030344D01*
X0156851Y0033493D01*
X0156457Y0033887D01*
X0156851Y0034281D01*
X0156851Y0037430D01*
X0156295Y0037987D01*
X0149405Y0037987D01*
X0148849Y0037430D01*
X0148849Y0037305D01*
X0142760Y0037305D01*
X0142760Y0042346D01*
X0142203Y0042902D01*
X0136692Y0042902D01*
X0136135Y0042346D01*
X0136135Y0034900D01*
X0123549Y0034900D01*
X0123000Y0034351D01*
X0123000Y0035649D01*
X0124551Y0037200D01*
X0134930Y0037200D01*
X0135780Y0038049D01*
X0135780Y0044349D01*
X0135904Y0044349D01*
X0136461Y0044905D01*
X0136461Y0051200D01*
X0136577Y0051200D01*
X0137734Y0051680D01*
X0138620Y0052566D01*
X0138759Y0052900D01*
X0165600Y0052900D01*
X0165600Y0052160D01*
X0158854Y0052160D01*
X0158298Y0051603D01*
X0158298Y0046092D01*
X0158854Y0045535D01*
X0165600Y0045535D01*
X0165600Y0014365D01*
X0158854Y0014365D01*
X0158298Y0013808D01*
X0158298Y0008297D01*
X0158854Y0007740D01*
X0165600Y0007740D01*
X0165600Y0006600D01*
X0090300Y0006600D01*
X0090300Y0052900D01*
X0090300Y0052447D02*
X0117398Y0052447D01*
X0108576Y0051749D02*
X0108027Y0051749D01*
X0108021Y0051751D02*
X0107011Y0051751D01*
X0107011Y0048591D01*
X0106530Y0048591D01*
X0106530Y0051751D01*
X0105520Y0051751D01*
X0105391Y0051698D01*
X0105293Y0051599D01*
X0105239Y0051471D01*
X0105239Y0048591D01*
X0106530Y0048591D01*
X0106530Y0048109D01*
X0107011Y0048109D01*
X0107011Y0044949D01*
X0108021Y0044949D01*
X0108150Y0045002D01*
X0108248Y0045101D01*
X0108302Y0045229D01*
X0108302Y0048109D01*
X0107011Y0048109D01*
X0107011Y0048591D01*
X0108302Y0048591D01*
X0108302Y0051471D01*
X0108248Y0051599D01*
X0108150Y0051698D01*
X0108021Y0051751D01*
X0108302Y0051050D02*
X0108576Y0051050D01*
X0108576Y0050352D02*
X0108302Y0050352D01*
X0108302Y0049653D02*
X0108576Y0049653D01*
X0108576Y0048955D02*
X0108302Y0048955D01*
X0108576Y0048256D02*
X0107011Y0048256D01*
X0106530Y0048256D02*
X0090300Y0048256D01*
X0090300Y0047558D02*
X0105239Y0047558D01*
X0105239Y0048109D02*
X0105239Y0045229D01*
X0105293Y0045101D01*
X0105391Y0045002D01*
X0105520Y0044949D01*
X0106530Y0044949D01*
X0106530Y0048109D01*
X0105239Y0048109D01*
X0105239Y0048955D02*
X0090300Y0048955D01*
X0090300Y0049653D02*
X0105239Y0049653D01*
X0105239Y0050352D02*
X0090300Y0050352D01*
X0090300Y0051050D02*
X0105239Y0051050D01*
X0105514Y0051749D02*
X0090300Y0051749D01*
X0090300Y0046859D02*
X0105239Y0046859D01*
X0105239Y0046161D02*
X0090300Y0046161D01*
X0090300Y0045462D02*
X0105239Y0045462D01*
X0106530Y0045462D02*
X0107011Y0045462D01*
X0107011Y0046161D02*
X0106530Y0046161D01*
X0106530Y0046859D02*
X0107011Y0046859D01*
X0107011Y0047558D02*
X0106530Y0047558D01*
X0106530Y0048955D02*
X0107011Y0048955D01*
X0107011Y0049653D02*
X0106530Y0049653D01*
X0106530Y0050352D02*
X0107011Y0050352D01*
X0107011Y0051050D02*
X0106530Y0051050D01*
X0106530Y0051749D02*
X0107011Y0051749D01*
X0108302Y0047558D02*
X0108576Y0047558D01*
X0108576Y0046859D02*
X0108302Y0046859D01*
X0108302Y0046161D02*
X0108576Y0046161D01*
X0108576Y0045462D02*
X0108302Y0045462D01*
X0108718Y0044764D02*
X0090300Y0044764D01*
X0090300Y0044065D02*
X0109257Y0044065D01*
X0109257Y0043367D02*
X0090300Y0043367D01*
X0090300Y0042668D02*
X0098662Y0042668D01*
X0098340Y0041970D02*
X0090300Y0041970D01*
X0090300Y0041271D02*
X0098340Y0041271D01*
X0098340Y0040573D02*
X0090300Y0040573D01*
X0090300Y0039874D02*
X0098340Y0039874D01*
X0098340Y0039176D02*
X0090300Y0039176D01*
X0090300Y0038477D02*
X0098340Y0038477D01*
X0098340Y0037779D02*
X0090300Y0037779D01*
X0090300Y0037080D02*
X0098340Y0037080D01*
X0098340Y0036382D02*
X0090300Y0036382D01*
X0090300Y0035683D02*
X0098340Y0035683D01*
X0098340Y0034984D02*
X0090300Y0034984D01*
X0090300Y0034286D02*
X0098526Y0034286D01*
X0100575Y0033587D02*
X0090300Y0033587D01*
X0090300Y0032889D02*
X0100575Y0032889D01*
X0100575Y0032190D02*
X0090300Y0032190D01*
X0090300Y0031492D02*
X0100575Y0031492D01*
X0100575Y0030793D02*
X0090300Y0030793D01*
X0090300Y0030095D02*
X0100575Y0030095D01*
X0100575Y0029396D02*
X0090300Y0029396D01*
X0090300Y0028698D02*
X0100575Y0028698D01*
X0100543Y0027999D02*
X0090300Y0027999D01*
X0090300Y0027301D02*
X0100543Y0027301D01*
X0100543Y0026602D02*
X0090300Y0026602D01*
X0090300Y0025904D02*
X0100633Y0025904D01*
X0100907Y0025205D02*
X0090300Y0025205D01*
X0090300Y0024507D02*
X0100907Y0024507D01*
X0100907Y0023808D02*
X0090300Y0023808D01*
X0090300Y0023110D02*
X0100907Y0023110D01*
X0100807Y0022411D02*
X0090300Y0022411D01*
X0090300Y0021713D02*
X0100907Y0021713D01*
X0100878Y0021014D02*
X0090300Y0021014D01*
X0090300Y0020316D02*
X0100907Y0020316D01*
X0100907Y0019617D02*
X0090300Y0019617D01*
X0090300Y0018919D02*
X0100807Y0018919D01*
X0101143Y0018220D02*
X0090300Y0018220D01*
X0090300Y0017522D02*
X0101143Y0017522D01*
X0101143Y0017627D02*
X0102025Y0017627D01*
X0102025Y0016391D01*
X0102025Y0017627D01*
X0102025Y0017627D01*
X0102025Y0017627D01*
X0101143Y0017627D01*
X0101143Y0016823D02*
X0090300Y0016823D01*
X0090300Y0016125D02*
X0102318Y0016125D01*
X0102025Y0016823D02*
X0102025Y0016823D01*
X0102025Y0017522D02*
X0102025Y0017522D01*
X0103718Y0018220D02*
X0103718Y0018220D01*
X0103676Y0018919D02*
X0104334Y0018919D01*
X0104795Y0018919D02*
X0105634Y0018919D01*
X0105411Y0018220D02*
X0105411Y0018220D01*
X0105578Y0020316D02*
X0103421Y0020316D01*
X0103379Y0019617D02*
X0109039Y0019617D01*
X0109039Y0020316D02*
X0108722Y0020316D01*
X0104879Y0021014D02*
X0103605Y0021014D01*
X0103379Y0021713D02*
X0104600Y0021713D01*
X0104600Y0022411D02*
X0103676Y0022411D01*
X0103379Y0023110D02*
X0104600Y0023110D01*
X0105002Y0023808D02*
X0103527Y0023808D01*
X0103498Y0024507D02*
X0105701Y0024507D01*
X0103379Y0025205D02*
X0110400Y0025205D01*
X0123000Y0034984D02*
X0136135Y0034984D01*
X0136135Y0035683D02*
X0123034Y0035683D01*
X0123732Y0036382D02*
X0136135Y0036382D01*
X0136135Y0037080D02*
X0124431Y0037080D01*
X0135509Y0037779D02*
X0136135Y0037779D01*
X0136135Y0038477D02*
X0135780Y0038477D01*
X0135780Y0039176D02*
X0136135Y0039176D01*
X0136135Y0039874D02*
X0135780Y0039874D01*
X0135780Y0040573D02*
X0136135Y0040573D01*
X0136135Y0041271D02*
X0135780Y0041271D01*
X0135780Y0041970D02*
X0136135Y0041970D01*
X0136458Y0042668D02*
X0135780Y0042668D01*
X0135780Y0043367D02*
X0149449Y0043367D01*
X0149449Y0043489D02*
X0149449Y0042479D01*
X0149502Y0042350D01*
X0149601Y0042252D01*
X0149729Y0042198D01*
X0152609Y0042198D01*
X0152609Y0043489D01*
X0149449Y0043489D01*
X0149449Y0043970D02*
X0149449Y0044980D01*
X0149502Y0045109D01*
X0149601Y0045207D01*
X0149729Y0045261D01*
X0152609Y0045261D01*
X0152609Y0043970D01*
X0152609Y0043489D01*
X0153091Y0043489D01*
X0153091Y0043970D01*
X0156251Y0043970D01*
X0156251Y0044980D01*
X0156198Y0045109D01*
X0156099Y0045207D01*
X0155971Y0045261D01*
X0153091Y0045261D01*
X0153091Y0043970D01*
X0152609Y0043970D01*
X0149449Y0043970D01*
X0149449Y0044065D02*
X0135780Y0044065D01*
X0136319Y0044764D02*
X0149449Y0044764D01*
X0149449Y0042668D02*
X0142438Y0042668D01*
X0142760Y0041970D02*
X0165600Y0041970D01*
X0165600Y0042668D02*
X0156251Y0042668D01*
X0156251Y0042479D02*
X0156251Y0043489D01*
X0153091Y0043489D01*
X0153091Y0042198D01*
X0155971Y0042198D01*
X0156099Y0042252D01*
X0156198Y0042350D01*
X0156251Y0042479D01*
X0156251Y0043367D02*
X0165600Y0043367D01*
X0165600Y0044065D02*
X0156251Y0044065D01*
X0156251Y0044764D02*
X0165600Y0044764D01*
X0165600Y0045462D02*
X0136461Y0045462D01*
X0136461Y0046161D02*
X0158298Y0046161D01*
X0158298Y0046859D02*
X0136461Y0046859D01*
X0136461Y0047558D02*
X0158298Y0047558D01*
X0158298Y0048256D02*
X0136461Y0048256D01*
X0136461Y0048955D02*
X0158298Y0048955D01*
X0158298Y0049653D02*
X0136461Y0049653D01*
X0136461Y0050352D02*
X0158298Y0050352D01*
X0158298Y0051050D02*
X0136461Y0051050D01*
X0137804Y0051749D02*
X0158443Y0051749D01*
X0165600Y0052447D02*
X0138502Y0052447D01*
X0138623Y0061528D02*
X0165600Y0061528D01*
X0165600Y0062226D02*
X0137928Y0062226D01*
X0153693Y0062925D02*
X0158298Y0062925D01*
X0158298Y0063623D02*
X0156930Y0063623D01*
X0157628Y0064322D02*
X0158298Y0064322D01*
X0158298Y0065020D02*
X0158000Y0065020D01*
X0158000Y0065719D02*
X0158298Y0065719D01*
X0158298Y0066418D02*
X0158000Y0066418D01*
X0158298Y0067116D02*
X0157690Y0067116D01*
X0158298Y0067815D02*
X0156992Y0067815D01*
X0156851Y0069212D02*
X0165600Y0069212D01*
X0165600Y0069910D02*
X0156851Y0069910D01*
X0156851Y0070609D02*
X0165600Y0070609D01*
X0165600Y0071307D02*
X0156851Y0071307D01*
X0156851Y0072006D02*
X0165600Y0072006D01*
X0165600Y0072704D02*
X0156522Y0072704D01*
X0156851Y0073403D02*
X0165600Y0073403D01*
X0165600Y0074101D02*
X0156851Y0074101D01*
X0156851Y0074800D02*
X0165600Y0074800D01*
X0165600Y0075498D02*
X0156851Y0075498D01*
X0156837Y0076197D02*
X0165600Y0076197D01*
X0165600Y0076895D02*
X0156776Y0076895D01*
X0156851Y0077594D02*
X0165600Y0077594D01*
X0165600Y0078292D02*
X0156851Y0078292D01*
X0156851Y0078991D02*
X0165600Y0078991D01*
X0165600Y0079689D02*
X0156851Y0079689D01*
X0156583Y0080388D02*
X0165600Y0080388D01*
X0165600Y0081086D02*
X0156851Y0081086D01*
X0156851Y0081785D02*
X0165600Y0081785D01*
X0165600Y0082483D02*
X0156851Y0082483D01*
X0156851Y0083182D02*
X0165600Y0083182D01*
X0165600Y0083880D02*
X0156851Y0083880D01*
X0156586Y0084579D02*
X0165600Y0084579D01*
X0165600Y0085277D02*
X0156851Y0085277D01*
X0156851Y0085976D02*
X0165600Y0085976D01*
X0165600Y0086674D02*
X0156851Y0086674D01*
X0156851Y0087373D02*
X0165600Y0087373D01*
X0165600Y0088071D02*
X0156773Y0088071D01*
X0156840Y0088770D02*
X0165600Y0088770D01*
X0165600Y0089468D02*
X0156851Y0089468D01*
X0156851Y0090167D02*
X0165600Y0090167D01*
X0165600Y0090865D02*
X0156851Y0090865D01*
X0156851Y0091564D02*
X0165600Y0091564D01*
X0165600Y0092262D02*
X0156519Y0092262D01*
X0156218Y0092961D02*
X0165600Y0092961D01*
X0165600Y0093659D02*
X0156251Y0093659D01*
X0156251Y0097152D02*
X0165600Y0097152D01*
X0165600Y0097851D02*
X0156251Y0097851D01*
X0156251Y0098549D02*
X0165600Y0098549D01*
X0136135Y0089468D02*
X0123000Y0089468D01*
X0154596Y0068513D02*
X0158503Y0068513D01*
X0153970Y0063623D02*
X0153800Y0063623D01*
X0153091Y0044764D02*
X0152609Y0044764D01*
X0152609Y0044065D02*
X0153091Y0044065D01*
X0153091Y0043367D02*
X0152609Y0043367D01*
X0152609Y0042668D02*
X0153091Y0042668D01*
X0153091Y0041324D02*
X0153091Y0040033D01*
X0156251Y0040033D01*
X0156251Y0041043D01*
X0156198Y0041172D01*
X0156099Y0041270D01*
X0155971Y0041324D01*
X0153091Y0041324D01*
X0153091Y0041271D02*
X0152609Y0041271D01*
X0152609Y0041324D02*
X0149729Y0041324D01*
X0149601Y0041270D01*
X0149502Y0041172D01*
X0149449Y0041043D01*
X0149449Y0040033D01*
X0152609Y0040033D01*
X0152609Y0039552D01*
X0149449Y0039552D01*
X0149449Y0038542D01*
X0149502Y0038413D01*
X0149601Y0038315D01*
X0149729Y0038261D01*
X0152609Y0038261D01*
X0152609Y0039552D01*
X0153091Y0039552D01*
X0153091Y0040033D01*
X0152609Y0040033D01*
X0152609Y0041324D01*
X0152609Y0040573D02*
X0153091Y0040573D01*
X0153091Y0039874D02*
X0165600Y0039874D01*
X0165600Y0039176D02*
X0156251Y0039176D01*
X0156251Y0039552D02*
X0153091Y0039552D01*
X0153091Y0038261D01*
X0155971Y0038261D01*
X0156099Y0038315D01*
X0156198Y0038413D01*
X0156251Y0038542D01*
X0156251Y0039552D01*
X0156251Y0040573D02*
X0165600Y0040573D01*
X0165600Y0041271D02*
X0156098Y0041271D01*
X0153091Y0039176D02*
X0152609Y0039176D01*
X0152609Y0039874D02*
X0142760Y0039874D01*
X0142760Y0039176D02*
X0149449Y0039176D01*
X0149476Y0038477D02*
X0142760Y0038477D01*
X0142760Y0037779D02*
X0149197Y0037779D01*
X0149449Y0040573D02*
X0142760Y0040573D01*
X0142760Y0041271D02*
X0149602Y0041271D01*
X0152609Y0038477D02*
X0153091Y0038477D01*
X0156224Y0038477D02*
X0165600Y0038477D01*
X0165600Y0037779D02*
X0156503Y0037779D01*
X0156851Y0037080D02*
X0165600Y0037080D01*
X0165600Y0036382D02*
X0156851Y0036382D01*
X0156851Y0035683D02*
X0165600Y0035683D01*
X0165600Y0034984D02*
X0156851Y0034984D01*
X0156851Y0034286D02*
X0165600Y0034286D01*
X0165600Y0033587D02*
X0156757Y0033587D01*
X0156851Y0032889D02*
X0165600Y0032889D01*
X0165600Y0032190D02*
X0156851Y0032190D01*
X0156851Y0031492D02*
X0165600Y0031492D01*
X0165600Y0030793D02*
X0156851Y0030793D01*
X0156602Y0030095D02*
X0165600Y0030095D01*
X0165600Y0029396D02*
X0156851Y0029396D01*
X0156851Y0028698D02*
X0165600Y0028698D01*
X0165600Y0027999D02*
X0156851Y0027999D01*
X0156851Y0027301D02*
X0165600Y0027301D01*
X0165600Y0026602D02*
X0156851Y0026602D01*
X0156566Y0025904D02*
X0165600Y0025904D01*
X0165600Y0025205D02*
X0156851Y0025205D01*
X0156851Y0024507D02*
X0165600Y0024507D01*
X0165600Y0023808D02*
X0156851Y0023808D01*
X0156851Y0023110D02*
X0165600Y0023110D01*
X0165600Y0022411D02*
X0156793Y0022411D01*
X0156820Y0021713D02*
X0165600Y0021713D01*
X0165600Y0021014D02*
X0156851Y0021014D01*
X0156851Y0020316D02*
X0165600Y0020316D01*
X0165600Y0019617D02*
X0156851Y0019617D01*
X0156851Y0018919D02*
X0165600Y0018919D01*
X0165600Y0018220D02*
X0156539Y0018220D01*
X0156851Y0017522D02*
X0165600Y0017522D01*
X0165600Y0016823D02*
X0156851Y0016823D01*
X0156851Y0016125D02*
X0165600Y0016125D01*
X0165600Y0015426D02*
X0156851Y0015426D01*
X0156851Y0014728D02*
X0165600Y0014728D01*
X0158519Y0014029D02*
X0154580Y0014029D01*
X0156976Y0013331D02*
X0158298Y0013331D01*
X0158298Y0012632D02*
X0157674Y0012632D01*
X0158000Y0011934D02*
X0158298Y0011934D01*
X0158298Y0011235D02*
X0158000Y0011235D01*
X0158000Y0010537D02*
X0158298Y0010537D01*
X0158298Y0009838D02*
X0157644Y0009838D01*
X0158298Y0009140D02*
X0156946Y0009140D01*
X0158298Y0008441D02*
X0153709Y0008441D01*
X0153800Y0009140D02*
X0153954Y0009140D01*
X0158852Y0007743D02*
X0114630Y0007743D01*
X0115021Y0008441D02*
X0119191Y0008441D01*
X0119100Y0009140D02*
X0115021Y0009140D01*
X0115021Y0009838D02*
X0119100Y0009838D01*
X0119100Y0010537D02*
X0115021Y0010537D01*
X0115021Y0011235D02*
X0119100Y0011235D01*
X0119100Y0011934D02*
X0115684Y0011934D01*
X0109184Y0011235D02*
X0108116Y0011235D01*
X0108116Y0010537D02*
X0109184Y0010537D01*
X0109184Y0009838D02*
X0108116Y0009838D01*
X0108116Y0009140D02*
X0109184Y0009140D01*
X0109184Y0008441D02*
X0108116Y0008441D01*
X0107724Y0007743D02*
X0109576Y0007743D01*
X0108516Y0011934D02*
X0108116Y0011934D01*
X0107900Y0012632D02*
X0107650Y0012632D01*
X0107900Y0013331D02*
X0106981Y0013331D01*
X0107680Y0014029D02*
X0107900Y0014029D01*
X0107704Y0014054D02*
X0107704Y0014054D01*
X0102462Y0012632D02*
X0102074Y0012632D01*
X0101763Y0013331D02*
X0090300Y0013331D01*
X0090300Y0014029D02*
X0101700Y0014029D01*
X0101700Y0014728D02*
X0090300Y0014728D01*
X0090300Y0015426D02*
X0101700Y0015426D01*
X0099826Y0012632D02*
X0090300Y0012632D01*
X0090300Y0011934D02*
X0099127Y0011934D01*
X0098429Y0011235D02*
X0090300Y0011235D01*
X0090300Y0010537D02*
X0098400Y0010537D01*
X0098400Y0009838D02*
X0090300Y0009838D01*
X0090300Y0009140D02*
X0098400Y0009140D01*
X0099053Y0008441D02*
X0090300Y0008441D01*
X0090300Y0007743D02*
X0099751Y0007743D01*
X0102149Y0007743D02*
X0102670Y0007743D01*
X0090300Y0007044D02*
X0165600Y0007044D01*
X0109218Y0042668D02*
X0104642Y0042668D01*
X0104965Y0041970D02*
X0108519Y0041970D01*
X0107821Y0041271D02*
X0104965Y0041271D01*
X0104965Y0040573D02*
X0107122Y0040573D01*
X0106423Y0039874D02*
X0104965Y0039874D01*
X0104965Y0039176D02*
X0105725Y0039176D01*
X0105026Y0038477D02*
X0104965Y0038477D01*
X0115668Y0066418D02*
X0119100Y0066418D01*
D26*
X0147850Y0082450D02*
X0147850Y0082481D01*
X0152850Y0082481D01*
X0152850Y0086419D02*
X0147850Y0086419D01*
X0147850Y0086450D01*
X0147850Y0031950D02*
X0147850Y0031919D01*
X0152850Y0031919D01*
X0152850Y0027981D02*
X0147850Y0027981D01*
X0147850Y0027950D01*
X0024550Y0027581D02*
X0024550Y0027550D01*
X0024550Y0027581D02*
X0019550Y0027581D01*
X0019550Y0031519D02*
X0024550Y0031519D01*
X0024550Y0031550D01*
X0024550Y0082050D02*
X0024550Y0082081D01*
X0019550Y0082081D01*
X0019550Y0086019D02*
X0024550Y0086019D01*
X0024550Y0086050D01*
M02*
