G75*
%MOIN*%
%OFA0B0*%
%FSLAX25Y25*%
%IPPOS*%
%LPD*%
%AMOC8*
5,1,8,0,0,1.08239X$1,22.5*
%
%ADD10C,0.00000*%
D10*
X0003100Y0002700D02*
X0003100Y0053700D01*
X0083100Y0053700D01*
X0083100Y0020700D01*
X0083102Y0020602D01*
X0083108Y0020504D01*
X0083117Y0020406D01*
X0083131Y0020309D01*
X0083148Y0020212D01*
X0083169Y0020116D01*
X0083194Y0020021D01*
X0083222Y0019927D01*
X0083255Y0019835D01*
X0083290Y0019743D01*
X0083330Y0019653D01*
X0083372Y0019565D01*
X0083419Y0019478D01*
X0083468Y0019394D01*
X0083521Y0019311D01*
X0083577Y0019231D01*
X0083637Y0019152D01*
X0083699Y0019076D01*
X0083764Y0019003D01*
X0083832Y0018932D01*
X0083903Y0018864D01*
X0083976Y0018799D01*
X0084052Y0018737D01*
X0084131Y0018677D01*
X0084211Y0018621D01*
X0084294Y0018568D01*
X0084378Y0018519D01*
X0084465Y0018472D01*
X0084553Y0018430D01*
X0084643Y0018390D01*
X0084735Y0018355D01*
X0084827Y0018322D01*
X0084921Y0018294D01*
X0085016Y0018269D01*
X0085112Y0018248D01*
X0085209Y0018231D01*
X0085306Y0018217D01*
X0085404Y0018208D01*
X0085502Y0018202D01*
X0085600Y0018200D01*
X0085698Y0018202D01*
X0085796Y0018208D01*
X0085894Y0018217D01*
X0085991Y0018231D01*
X0086088Y0018248D01*
X0086184Y0018269D01*
X0086279Y0018294D01*
X0086373Y0018322D01*
X0086465Y0018355D01*
X0086557Y0018390D01*
X0086647Y0018430D01*
X0086735Y0018472D01*
X0086822Y0018519D01*
X0086906Y0018568D01*
X0086989Y0018621D01*
X0087069Y0018677D01*
X0087148Y0018737D01*
X0087224Y0018799D01*
X0087297Y0018864D01*
X0087368Y0018932D01*
X0087436Y0019003D01*
X0087501Y0019076D01*
X0087563Y0019152D01*
X0087623Y0019231D01*
X0087679Y0019311D01*
X0087732Y0019394D01*
X0087781Y0019478D01*
X0087828Y0019565D01*
X0087870Y0019653D01*
X0087910Y0019743D01*
X0087945Y0019835D01*
X0087978Y0019927D01*
X0088006Y0020021D01*
X0088031Y0020116D01*
X0088052Y0020212D01*
X0088069Y0020309D01*
X0088083Y0020406D01*
X0088092Y0020504D01*
X0088098Y0020602D01*
X0088100Y0020700D01*
X0088100Y0053700D01*
X0090300Y0052700D02*
X0090302Y0052756D01*
X0090308Y0052813D01*
X0090318Y0052868D01*
X0090332Y0052923D01*
X0090349Y0052977D01*
X0090371Y0053029D01*
X0090396Y0053079D01*
X0090424Y0053128D01*
X0090456Y0053175D01*
X0090491Y0053219D01*
X0090529Y0053261D01*
X0090570Y0053300D01*
X0090614Y0053335D01*
X0090660Y0053368D01*
X0090708Y0053397D01*
X0090758Y0053423D01*
X0090810Y0053446D01*
X0090864Y0053464D01*
X0090918Y0053479D01*
X0090973Y0053490D01*
X0091029Y0053497D01*
X0091086Y0053500D01*
X0091142Y0053499D01*
X0091199Y0053494D01*
X0091254Y0053485D01*
X0091309Y0053472D01*
X0091363Y0053455D01*
X0091416Y0053435D01*
X0091467Y0053411D01*
X0091516Y0053383D01*
X0091563Y0053352D01*
X0091608Y0053318D01*
X0091651Y0053280D01*
X0091690Y0053240D01*
X0091727Y0053197D01*
X0091760Y0053152D01*
X0091790Y0053104D01*
X0091817Y0053054D01*
X0091840Y0053003D01*
X0091860Y0052950D01*
X0091876Y0052896D01*
X0091888Y0052840D01*
X0091896Y0052785D01*
X0091900Y0052728D01*
X0091900Y0052672D01*
X0091896Y0052615D01*
X0091888Y0052560D01*
X0091876Y0052504D01*
X0091860Y0052450D01*
X0091840Y0052397D01*
X0091817Y0052346D01*
X0091790Y0052296D01*
X0091760Y0052248D01*
X0091727Y0052203D01*
X0091690Y0052160D01*
X0091651Y0052120D01*
X0091608Y0052082D01*
X0091563Y0052048D01*
X0091516Y0052017D01*
X0091467Y0051989D01*
X0091416Y0051965D01*
X0091363Y0051945D01*
X0091309Y0051928D01*
X0091254Y0051915D01*
X0091199Y0051906D01*
X0091142Y0051901D01*
X0091086Y0051900D01*
X0091029Y0051903D01*
X0090973Y0051910D01*
X0090918Y0051921D01*
X0090864Y0051936D01*
X0090810Y0051954D01*
X0090758Y0051977D01*
X0090708Y0052003D01*
X0090660Y0052032D01*
X0090614Y0052065D01*
X0090570Y0052100D01*
X0090529Y0052139D01*
X0090491Y0052181D01*
X0090456Y0052225D01*
X0090424Y0052272D01*
X0090396Y0052321D01*
X0090371Y0052371D01*
X0090349Y0052423D01*
X0090332Y0052477D01*
X0090318Y0052532D01*
X0090308Y0052587D01*
X0090302Y0052644D01*
X0090300Y0052700D01*
X0093300Y0052700D02*
X0093302Y0052756D01*
X0093308Y0052813D01*
X0093318Y0052868D01*
X0093332Y0052923D01*
X0093349Y0052977D01*
X0093371Y0053029D01*
X0093396Y0053079D01*
X0093424Y0053128D01*
X0093456Y0053175D01*
X0093491Y0053219D01*
X0093529Y0053261D01*
X0093570Y0053300D01*
X0093614Y0053335D01*
X0093660Y0053368D01*
X0093708Y0053397D01*
X0093758Y0053423D01*
X0093810Y0053446D01*
X0093864Y0053464D01*
X0093918Y0053479D01*
X0093973Y0053490D01*
X0094029Y0053497D01*
X0094086Y0053500D01*
X0094142Y0053499D01*
X0094199Y0053494D01*
X0094254Y0053485D01*
X0094309Y0053472D01*
X0094363Y0053455D01*
X0094416Y0053435D01*
X0094467Y0053411D01*
X0094516Y0053383D01*
X0094563Y0053352D01*
X0094608Y0053318D01*
X0094651Y0053280D01*
X0094690Y0053240D01*
X0094727Y0053197D01*
X0094760Y0053152D01*
X0094790Y0053104D01*
X0094817Y0053054D01*
X0094840Y0053003D01*
X0094860Y0052950D01*
X0094876Y0052896D01*
X0094888Y0052840D01*
X0094896Y0052785D01*
X0094900Y0052728D01*
X0094900Y0052672D01*
X0094896Y0052615D01*
X0094888Y0052560D01*
X0094876Y0052504D01*
X0094860Y0052450D01*
X0094840Y0052397D01*
X0094817Y0052346D01*
X0094790Y0052296D01*
X0094760Y0052248D01*
X0094727Y0052203D01*
X0094690Y0052160D01*
X0094651Y0052120D01*
X0094608Y0052082D01*
X0094563Y0052048D01*
X0094516Y0052017D01*
X0094467Y0051989D01*
X0094416Y0051965D01*
X0094363Y0051945D01*
X0094309Y0051928D01*
X0094254Y0051915D01*
X0094199Y0051906D01*
X0094142Y0051901D01*
X0094086Y0051900D01*
X0094029Y0051903D01*
X0093973Y0051910D01*
X0093918Y0051921D01*
X0093864Y0051936D01*
X0093810Y0051954D01*
X0093758Y0051977D01*
X0093708Y0052003D01*
X0093660Y0052032D01*
X0093614Y0052065D01*
X0093570Y0052100D01*
X0093529Y0052139D01*
X0093491Y0052181D01*
X0093456Y0052225D01*
X0093424Y0052272D01*
X0093396Y0052321D01*
X0093371Y0052371D01*
X0093349Y0052423D01*
X0093332Y0052477D01*
X0093318Y0052532D01*
X0093308Y0052587D01*
X0093302Y0052644D01*
X0093300Y0052700D01*
X0096300Y0052700D02*
X0096302Y0052756D01*
X0096308Y0052813D01*
X0096318Y0052868D01*
X0096332Y0052923D01*
X0096349Y0052977D01*
X0096371Y0053029D01*
X0096396Y0053079D01*
X0096424Y0053128D01*
X0096456Y0053175D01*
X0096491Y0053219D01*
X0096529Y0053261D01*
X0096570Y0053300D01*
X0096614Y0053335D01*
X0096660Y0053368D01*
X0096708Y0053397D01*
X0096758Y0053423D01*
X0096810Y0053446D01*
X0096864Y0053464D01*
X0096918Y0053479D01*
X0096973Y0053490D01*
X0097029Y0053497D01*
X0097086Y0053500D01*
X0097142Y0053499D01*
X0097199Y0053494D01*
X0097254Y0053485D01*
X0097309Y0053472D01*
X0097363Y0053455D01*
X0097416Y0053435D01*
X0097467Y0053411D01*
X0097516Y0053383D01*
X0097563Y0053352D01*
X0097608Y0053318D01*
X0097651Y0053280D01*
X0097690Y0053240D01*
X0097727Y0053197D01*
X0097760Y0053152D01*
X0097790Y0053104D01*
X0097817Y0053054D01*
X0097840Y0053003D01*
X0097860Y0052950D01*
X0097876Y0052896D01*
X0097888Y0052840D01*
X0097896Y0052785D01*
X0097900Y0052728D01*
X0097900Y0052672D01*
X0097896Y0052615D01*
X0097888Y0052560D01*
X0097876Y0052504D01*
X0097860Y0052450D01*
X0097840Y0052397D01*
X0097817Y0052346D01*
X0097790Y0052296D01*
X0097760Y0052248D01*
X0097727Y0052203D01*
X0097690Y0052160D01*
X0097651Y0052120D01*
X0097608Y0052082D01*
X0097563Y0052048D01*
X0097516Y0052017D01*
X0097467Y0051989D01*
X0097416Y0051965D01*
X0097363Y0051945D01*
X0097309Y0051928D01*
X0097254Y0051915D01*
X0097199Y0051906D01*
X0097142Y0051901D01*
X0097086Y0051900D01*
X0097029Y0051903D01*
X0096973Y0051910D01*
X0096918Y0051921D01*
X0096864Y0051936D01*
X0096810Y0051954D01*
X0096758Y0051977D01*
X0096708Y0052003D01*
X0096660Y0052032D01*
X0096614Y0052065D01*
X0096570Y0052100D01*
X0096529Y0052139D01*
X0096491Y0052181D01*
X0096456Y0052225D01*
X0096424Y0052272D01*
X0096396Y0052321D01*
X0096371Y0052371D01*
X0096349Y0052423D01*
X0096332Y0052477D01*
X0096318Y0052532D01*
X0096308Y0052587D01*
X0096302Y0052644D01*
X0096300Y0052700D01*
X0099300Y0052700D02*
X0099302Y0052756D01*
X0099308Y0052813D01*
X0099318Y0052868D01*
X0099332Y0052923D01*
X0099349Y0052977D01*
X0099371Y0053029D01*
X0099396Y0053079D01*
X0099424Y0053128D01*
X0099456Y0053175D01*
X0099491Y0053219D01*
X0099529Y0053261D01*
X0099570Y0053300D01*
X0099614Y0053335D01*
X0099660Y0053368D01*
X0099708Y0053397D01*
X0099758Y0053423D01*
X0099810Y0053446D01*
X0099864Y0053464D01*
X0099918Y0053479D01*
X0099973Y0053490D01*
X0100029Y0053497D01*
X0100086Y0053500D01*
X0100142Y0053499D01*
X0100199Y0053494D01*
X0100254Y0053485D01*
X0100309Y0053472D01*
X0100363Y0053455D01*
X0100416Y0053435D01*
X0100467Y0053411D01*
X0100516Y0053383D01*
X0100563Y0053352D01*
X0100608Y0053318D01*
X0100651Y0053280D01*
X0100690Y0053240D01*
X0100727Y0053197D01*
X0100760Y0053152D01*
X0100790Y0053104D01*
X0100817Y0053054D01*
X0100840Y0053003D01*
X0100860Y0052950D01*
X0100876Y0052896D01*
X0100888Y0052840D01*
X0100896Y0052785D01*
X0100900Y0052728D01*
X0100900Y0052672D01*
X0100896Y0052615D01*
X0100888Y0052560D01*
X0100876Y0052504D01*
X0100860Y0052450D01*
X0100840Y0052397D01*
X0100817Y0052346D01*
X0100790Y0052296D01*
X0100760Y0052248D01*
X0100727Y0052203D01*
X0100690Y0052160D01*
X0100651Y0052120D01*
X0100608Y0052082D01*
X0100563Y0052048D01*
X0100516Y0052017D01*
X0100467Y0051989D01*
X0100416Y0051965D01*
X0100363Y0051945D01*
X0100309Y0051928D01*
X0100254Y0051915D01*
X0100199Y0051906D01*
X0100142Y0051901D01*
X0100086Y0051900D01*
X0100029Y0051903D01*
X0099973Y0051910D01*
X0099918Y0051921D01*
X0099864Y0051936D01*
X0099810Y0051954D01*
X0099758Y0051977D01*
X0099708Y0052003D01*
X0099660Y0052032D01*
X0099614Y0052065D01*
X0099570Y0052100D01*
X0099529Y0052139D01*
X0099491Y0052181D01*
X0099456Y0052225D01*
X0099424Y0052272D01*
X0099396Y0052321D01*
X0099371Y0052371D01*
X0099349Y0052423D01*
X0099332Y0052477D01*
X0099318Y0052532D01*
X0099308Y0052587D01*
X0099302Y0052644D01*
X0099300Y0052700D01*
X0102300Y0052700D02*
X0102302Y0052756D01*
X0102308Y0052813D01*
X0102318Y0052868D01*
X0102332Y0052923D01*
X0102349Y0052977D01*
X0102371Y0053029D01*
X0102396Y0053079D01*
X0102424Y0053128D01*
X0102456Y0053175D01*
X0102491Y0053219D01*
X0102529Y0053261D01*
X0102570Y0053300D01*
X0102614Y0053335D01*
X0102660Y0053368D01*
X0102708Y0053397D01*
X0102758Y0053423D01*
X0102810Y0053446D01*
X0102864Y0053464D01*
X0102918Y0053479D01*
X0102973Y0053490D01*
X0103029Y0053497D01*
X0103086Y0053500D01*
X0103142Y0053499D01*
X0103199Y0053494D01*
X0103254Y0053485D01*
X0103309Y0053472D01*
X0103363Y0053455D01*
X0103416Y0053435D01*
X0103467Y0053411D01*
X0103516Y0053383D01*
X0103563Y0053352D01*
X0103608Y0053318D01*
X0103651Y0053280D01*
X0103690Y0053240D01*
X0103727Y0053197D01*
X0103760Y0053152D01*
X0103790Y0053104D01*
X0103817Y0053054D01*
X0103840Y0053003D01*
X0103860Y0052950D01*
X0103876Y0052896D01*
X0103888Y0052840D01*
X0103896Y0052785D01*
X0103900Y0052728D01*
X0103900Y0052672D01*
X0103896Y0052615D01*
X0103888Y0052560D01*
X0103876Y0052504D01*
X0103860Y0052450D01*
X0103840Y0052397D01*
X0103817Y0052346D01*
X0103790Y0052296D01*
X0103760Y0052248D01*
X0103727Y0052203D01*
X0103690Y0052160D01*
X0103651Y0052120D01*
X0103608Y0052082D01*
X0103563Y0052048D01*
X0103516Y0052017D01*
X0103467Y0051989D01*
X0103416Y0051965D01*
X0103363Y0051945D01*
X0103309Y0051928D01*
X0103254Y0051915D01*
X0103199Y0051906D01*
X0103142Y0051901D01*
X0103086Y0051900D01*
X0103029Y0051903D01*
X0102973Y0051910D01*
X0102918Y0051921D01*
X0102864Y0051936D01*
X0102810Y0051954D01*
X0102758Y0051977D01*
X0102708Y0052003D01*
X0102660Y0052032D01*
X0102614Y0052065D01*
X0102570Y0052100D01*
X0102529Y0052139D01*
X0102491Y0052181D01*
X0102456Y0052225D01*
X0102424Y0052272D01*
X0102396Y0052321D01*
X0102371Y0052371D01*
X0102349Y0052423D01*
X0102332Y0052477D01*
X0102318Y0052532D01*
X0102308Y0052587D01*
X0102302Y0052644D01*
X0102300Y0052700D01*
X0106100Y0053700D02*
X0168100Y0053700D01*
X0168100Y0002700D01*
X0088100Y0002700D01*
X0088098Y0002798D01*
X0088092Y0002896D01*
X0088083Y0002994D01*
X0088069Y0003091D01*
X0088052Y0003188D01*
X0088031Y0003284D01*
X0088006Y0003379D01*
X0087978Y0003473D01*
X0087945Y0003565D01*
X0087910Y0003657D01*
X0087870Y0003747D01*
X0087828Y0003835D01*
X0087781Y0003922D01*
X0087732Y0004006D01*
X0087679Y0004089D01*
X0087623Y0004169D01*
X0087563Y0004248D01*
X0087501Y0004324D01*
X0087436Y0004397D01*
X0087368Y0004468D01*
X0087297Y0004536D01*
X0087224Y0004601D01*
X0087148Y0004663D01*
X0087069Y0004723D01*
X0086989Y0004779D01*
X0086906Y0004832D01*
X0086822Y0004881D01*
X0086735Y0004928D01*
X0086647Y0004970D01*
X0086557Y0005010D01*
X0086465Y0005045D01*
X0086373Y0005078D01*
X0086279Y0005106D01*
X0086184Y0005131D01*
X0086088Y0005152D01*
X0085991Y0005169D01*
X0085894Y0005183D01*
X0085796Y0005192D01*
X0085698Y0005198D01*
X0085600Y0005200D01*
X0085502Y0005198D01*
X0085404Y0005192D01*
X0085306Y0005183D01*
X0085209Y0005169D01*
X0085112Y0005152D01*
X0085016Y0005131D01*
X0084921Y0005106D01*
X0084827Y0005078D01*
X0084735Y0005045D01*
X0084643Y0005010D01*
X0084553Y0004970D01*
X0084465Y0004928D01*
X0084378Y0004881D01*
X0084294Y0004832D01*
X0084211Y0004779D01*
X0084131Y0004723D01*
X0084052Y0004663D01*
X0083976Y0004601D01*
X0083903Y0004536D01*
X0083832Y0004468D01*
X0083764Y0004397D01*
X0083699Y0004324D01*
X0083637Y0004248D01*
X0083577Y0004169D01*
X0083521Y0004089D01*
X0083468Y0004006D01*
X0083419Y0003922D01*
X0083372Y0003835D01*
X0083330Y0003747D01*
X0083290Y0003657D01*
X0083255Y0003565D01*
X0083222Y0003473D01*
X0083194Y0003379D01*
X0083169Y0003284D01*
X0083148Y0003188D01*
X0083131Y0003091D01*
X0083117Y0002994D01*
X0083108Y0002896D01*
X0083102Y0002798D01*
X0083100Y0002700D01*
X0003100Y0002700D01*
X0081300Y0005700D02*
X0081302Y0005756D01*
X0081308Y0005813D01*
X0081318Y0005868D01*
X0081332Y0005923D01*
X0081349Y0005977D01*
X0081371Y0006029D01*
X0081396Y0006079D01*
X0081424Y0006128D01*
X0081456Y0006175D01*
X0081491Y0006219D01*
X0081529Y0006261D01*
X0081570Y0006300D01*
X0081614Y0006335D01*
X0081660Y0006368D01*
X0081708Y0006397D01*
X0081758Y0006423D01*
X0081810Y0006446D01*
X0081864Y0006464D01*
X0081918Y0006479D01*
X0081973Y0006490D01*
X0082029Y0006497D01*
X0082086Y0006500D01*
X0082142Y0006499D01*
X0082199Y0006494D01*
X0082254Y0006485D01*
X0082309Y0006472D01*
X0082363Y0006455D01*
X0082416Y0006435D01*
X0082467Y0006411D01*
X0082516Y0006383D01*
X0082563Y0006352D01*
X0082608Y0006318D01*
X0082651Y0006280D01*
X0082690Y0006240D01*
X0082727Y0006197D01*
X0082760Y0006152D01*
X0082790Y0006104D01*
X0082817Y0006054D01*
X0082840Y0006003D01*
X0082860Y0005950D01*
X0082876Y0005896D01*
X0082888Y0005840D01*
X0082896Y0005785D01*
X0082900Y0005728D01*
X0082900Y0005672D01*
X0082896Y0005615D01*
X0082888Y0005560D01*
X0082876Y0005504D01*
X0082860Y0005450D01*
X0082840Y0005397D01*
X0082817Y0005346D01*
X0082790Y0005296D01*
X0082760Y0005248D01*
X0082727Y0005203D01*
X0082690Y0005160D01*
X0082651Y0005120D01*
X0082608Y0005082D01*
X0082563Y0005048D01*
X0082516Y0005017D01*
X0082467Y0004989D01*
X0082416Y0004965D01*
X0082363Y0004945D01*
X0082309Y0004928D01*
X0082254Y0004915D01*
X0082199Y0004906D01*
X0082142Y0004901D01*
X0082086Y0004900D01*
X0082029Y0004903D01*
X0081973Y0004910D01*
X0081918Y0004921D01*
X0081864Y0004936D01*
X0081810Y0004954D01*
X0081758Y0004977D01*
X0081708Y0005003D01*
X0081660Y0005032D01*
X0081614Y0005065D01*
X0081570Y0005100D01*
X0081529Y0005139D01*
X0081491Y0005181D01*
X0081456Y0005225D01*
X0081424Y0005272D01*
X0081396Y0005321D01*
X0081371Y0005371D01*
X0081349Y0005423D01*
X0081332Y0005477D01*
X0081318Y0005532D01*
X0081308Y0005587D01*
X0081302Y0005644D01*
X0081300Y0005700D01*
X0081300Y0008700D02*
X0081302Y0008756D01*
X0081308Y0008813D01*
X0081318Y0008868D01*
X0081332Y0008923D01*
X0081349Y0008977D01*
X0081371Y0009029D01*
X0081396Y0009079D01*
X0081424Y0009128D01*
X0081456Y0009175D01*
X0081491Y0009219D01*
X0081529Y0009261D01*
X0081570Y0009300D01*
X0081614Y0009335D01*
X0081660Y0009368D01*
X0081708Y0009397D01*
X0081758Y0009423D01*
X0081810Y0009446D01*
X0081864Y0009464D01*
X0081918Y0009479D01*
X0081973Y0009490D01*
X0082029Y0009497D01*
X0082086Y0009500D01*
X0082142Y0009499D01*
X0082199Y0009494D01*
X0082254Y0009485D01*
X0082309Y0009472D01*
X0082363Y0009455D01*
X0082416Y0009435D01*
X0082467Y0009411D01*
X0082516Y0009383D01*
X0082563Y0009352D01*
X0082608Y0009318D01*
X0082651Y0009280D01*
X0082690Y0009240D01*
X0082727Y0009197D01*
X0082760Y0009152D01*
X0082790Y0009104D01*
X0082817Y0009054D01*
X0082840Y0009003D01*
X0082860Y0008950D01*
X0082876Y0008896D01*
X0082888Y0008840D01*
X0082896Y0008785D01*
X0082900Y0008728D01*
X0082900Y0008672D01*
X0082896Y0008615D01*
X0082888Y0008560D01*
X0082876Y0008504D01*
X0082860Y0008450D01*
X0082840Y0008397D01*
X0082817Y0008346D01*
X0082790Y0008296D01*
X0082760Y0008248D01*
X0082727Y0008203D01*
X0082690Y0008160D01*
X0082651Y0008120D01*
X0082608Y0008082D01*
X0082563Y0008048D01*
X0082516Y0008017D01*
X0082467Y0007989D01*
X0082416Y0007965D01*
X0082363Y0007945D01*
X0082309Y0007928D01*
X0082254Y0007915D01*
X0082199Y0007906D01*
X0082142Y0007901D01*
X0082086Y0007900D01*
X0082029Y0007903D01*
X0081973Y0007910D01*
X0081918Y0007921D01*
X0081864Y0007936D01*
X0081810Y0007954D01*
X0081758Y0007977D01*
X0081708Y0008003D01*
X0081660Y0008032D01*
X0081614Y0008065D01*
X0081570Y0008100D01*
X0081529Y0008139D01*
X0081491Y0008181D01*
X0081456Y0008225D01*
X0081424Y0008272D01*
X0081396Y0008321D01*
X0081371Y0008371D01*
X0081349Y0008423D01*
X0081332Y0008477D01*
X0081318Y0008532D01*
X0081308Y0008587D01*
X0081302Y0008644D01*
X0081300Y0008700D01*
X0081300Y0011700D02*
X0081302Y0011756D01*
X0081308Y0011813D01*
X0081318Y0011868D01*
X0081332Y0011923D01*
X0081349Y0011977D01*
X0081371Y0012029D01*
X0081396Y0012079D01*
X0081424Y0012128D01*
X0081456Y0012175D01*
X0081491Y0012219D01*
X0081529Y0012261D01*
X0081570Y0012300D01*
X0081614Y0012335D01*
X0081660Y0012368D01*
X0081708Y0012397D01*
X0081758Y0012423D01*
X0081810Y0012446D01*
X0081864Y0012464D01*
X0081918Y0012479D01*
X0081973Y0012490D01*
X0082029Y0012497D01*
X0082086Y0012500D01*
X0082142Y0012499D01*
X0082199Y0012494D01*
X0082254Y0012485D01*
X0082309Y0012472D01*
X0082363Y0012455D01*
X0082416Y0012435D01*
X0082467Y0012411D01*
X0082516Y0012383D01*
X0082563Y0012352D01*
X0082608Y0012318D01*
X0082651Y0012280D01*
X0082690Y0012240D01*
X0082727Y0012197D01*
X0082760Y0012152D01*
X0082790Y0012104D01*
X0082817Y0012054D01*
X0082840Y0012003D01*
X0082860Y0011950D01*
X0082876Y0011896D01*
X0082888Y0011840D01*
X0082896Y0011785D01*
X0082900Y0011728D01*
X0082900Y0011672D01*
X0082896Y0011615D01*
X0082888Y0011560D01*
X0082876Y0011504D01*
X0082860Y0011450D01*
X0082840Y0011397D01*
X0082817Y0011346D01*
X0082790Y0011296D01*
X0082760Y0011248D01*
X0082727Y0011203D01*
X0082690Y0011160D01*
X0082651Y0011120D01*
X0082608Y0011082D01*
X0082563Y0011048D01*
X0082516Y0011017D01*
X0082467Y0010989D01*
X0082416Y0010965D01*
X0082363Y0010945D01*
X0082309Y0010928D01*
X0082254Y0010915D01*
X0082199Y0010906D01*
X0082142Y0010901D01*
X0082086Y0010900D01*
X0082029Y0010903D01*
X0081973Y0010910D01*
X0081918Y0010921D01*
X0081864Y0010936D01*
X0081810Y0010954D01*
X0081758Y0010977D01*
X0081708Y0011003D01*
X0081660Y0011032D01*
X0081614Y0011065D01*
X0081570Y0011100D01*
X0081529Y0011139D01*
X0081491Y0011181D01*
X0081456Y0011225D01*
X0081424Y0011272D01*
X0081396Y0011321D01*
X0081371Y0011371D01*
X0081349Y0011423D01*
X0081332Y0011477D01*
X0081318Y0011532D01*
X0081308Y0011587D01*
X0081302Y0011644D01*
X0081300Y0011700D01*
X0081300Y0014700D02*
X0081302Y0014756D01*
X0081308Y0014813D01*
X0081318Y0014868D01*
X0081332Y0014923D01*
X0081349Y0014977D01*
X0081371Y0015029D01*
X0081396Y0015079D01*
X0081424Y0015128D01*
X0081456Y0015175D01*
X0081491Y0015219D01*
X0081529Y0015261D01*
X0081570Y0015300D01*
X0081614Y0015335D01*
X0081660Y0015368D01*
X0081708Y0015397D01*
X0081758Y0015423D01*
X0081810Y0015446D01*
X0081864Y0015464D01*
X0081918Y0015479D01*
X0081973Y0015490D01*
X0082029Y0015497D01*
X0082086Y0015500D01*
X0082142Y0015499D01*
X0082199Y0015494D01*
X0082254Y0015485D01*
X0082309Y0015472D01*
X0082363Y0015455D01*
X0082416Y0015435D01*
X0082467Y0015411D01*
X0082516Y0015383D01*
X0082563Y0015352D01*
X0082608Y0015318D01*
X0082651Y0015280D01*
X0082690Y0015240D01*
X0082727Y0015197D01*
X0082760Y0015152D01*
X0082790Y0015104D01*
X0082817Y0015054D01*
X0082840Y0015003D01*
X0082860Y0014950D01*
X0082876Y0014896D01*
X0082888Y0014840D01*
X0082896Y0014785D01*
X0082900Y0014728D01*
X0082900Y0014672D01*
X0082896Y0014615D01*
X0082888Y0014560D01*
X0082876Y0014504D01*
X0082860Y0014450D01*
X0082840Y0014397D01*
X0082817Y0014346D01*
X0082790Y0014296D01*
X0082760Y0014248D01*
X0082727Y0014203D01*
X0082690Y0014160D01*
X0082651Y0014120D01*
X0082608Y0014082D01*
X0082563Y0014048D01*
X0082516Y0014017D01*
X0082467Y0013989D01*
X0082416Y0013965D01*
X0082363Y0013945D01*
X0082309Y0013928D01*
X0082254Y0013915D01*
X0082199Y0013906D01*
X0082142Y0013901D01*
X0082086Y0013900D01*
X0082029Y0013903D01*
X0081973Y0013910D01*
X0081918Y0013921D01*
X0081864Y0013936D01*
X0081810Y0013954D01*
X0081758Y0013977D01*
X0081708Y0014003D01*
X0081660Y0014032D01*
X0081614Y0014065D01*
X0081570Y0014100D01*
X0081529Y0014139D01*
X0081491Y0014181D01*
X0081456Y0014225D01*
X0081424Y0014272D01*
X0081396Y0014321D01*
X0081371Y0014371D01*
X0081349Y0014423D01*
X0081332Y0014477D01*
X0081318Y0014532D01*
X0081308Y0014587D01*
X0081302Y0014644D01*
X0081300Y0014700D01*
X0081300Y0017700D02*
X0081302Y0017756D01*
X0081308Y0017813D01*
X0081318Y0017868D01*
X0081332Y0017923D01*
X0081349Y0017977D01*
X0081371Y0018029D01*
X0081396Y0018079D01*
X0081424Y0018128D01*
X0081456Y0018175D01*
X0081491Y0018219D01*
X0081529Y0018261D01*
X0081570Y0018300D01*
X0081614Y0018335D01*
X0081660Y0018368D01*
X0081708Y0018397D01*
X0081758Y0018423D01*
X0081810Y0018446D01*
X0081864Y0018464D01*
X0081918Y0018479D01*
X0081973Y0018490D01*
X0082029Y0018497D01*
X0082086Y0018500D01*
X0082142Y0018499D01*
X0082199Y0018494D01*
X0082254Y0018485D01*
X0082309Y0018472D01*
X0082363Y0018455D01*
X0082416Y0018435D01*
X0082467Y0018411D01*
X0082516Y0018383D01*
X0082563Y0018352D01*
X0082608Y0018318D01*
X0082651Y0018280D01*
X0082690Y0018240D01*
X0082727Y0018197D01*
X0082760Y0018152D01*
X0082790Y0018104D01*
X0082817Y0018054D01*
X0082840Y0018003D01*
X0082860Y0017950D01*
X0082876Y0017896D01*
X0082888Y0017840D01*
X0082896Y0017785D01*
X0082900Y0017728D01*
X0082900Y0017672D01*
X0082896Y0017615D01*
X0082888Y0017560D01*
X0082876Y0017504D01*
X0082860Y0017450D01*
X0082840Y0017397D01*
X0082817Y0017346D01*
X0082790Y0017296D01*
X0082760Y0017248D01*
X0082727Y0017203D01*
X0082690Y0017160D01*
X0082651Y0017120D01*
X0082608Y0017082D01*
X0082563Y0017048D01*
X0082516Y0017017D01*
X0082467Y0016989D01*
X0082416Y0016965D01*
X0082363Y0016945D01*
X0082309Y0016928D01*
X0082254Y0016915D01*
X0082199Y0016906D01*
X0082142Y0016901D01*
X0082086Y0016900D01*
X0082029Y0016903D01*
X0081973Y0016910D01*
X0081918Y0016921D01*
X0081864Y0016936D01*
X0081810Y0016954D01*
X0081758Y0016977D01*
X0081708Y0017003D01*
X0081660Y0017032D01*
X0081614Y0017065D01*
X0081570Y0017100D01*
X0081529Y0017139D01*
X0081491Y0017181D01*
X0081456Y0017225D01*
X0081424Y0017272D01*
X0081396Y0017321D01*
X0081371Y0017371D01*
X0081349Y0017423D01*
X0081332Y0017477D01*
X0081318Y0017532D01*
X0081308Y0017587D01*
X0081302Y0017644D01*
X0081300Y0017700D01*
X0088300Y0017700D02*
X0088302Y0017756D01*
X0088308Y0017813D01*
X0088318Y0017868D01*
X0088332Y0017923D01*
X0088349Y0017977D01*
X0088371Y0018029D01*
X0088396Y0018079D01*
X0088424Y0018128D01*
X0088456Y0018175D01*
X0088491Y0018219D01*
X0088529Y0018261D01*
X0088570Y0018300D01*
X0088614Y0018335D01*
X0088660Y0018368D01*
X0088708Y0018397D01*
X0088758Y0018423D01*
X0088810Y0018446D01*
X0088864Y0018464D01*
X0088918Y0018479D01*
X0088973Y0018490D01*
X0089029Y0018497D01*
X0089086Y0018500D01*
X0089142Y0018499D01*
X0089199Y0018494D01*
X0089254Y0018485D01*
X0089309Y0018472D01*
X0089363Y0018455D01*
X0089416Y0018435D01*
X0089467Y0018411D01*
X0089516Y0018383D01*
X0089563Y0018352D01*
X0089608Y0018318D01*
X0089651Y0018280D01*
X0089690Y0018240D01*
X0089727Y0018197D01*
X0089760Y0018152D01*
X0089790Y0018104D01*
X0089817Y0018054D01*
X0089840Y0018003D01*
X0089860Y0017950D01*
X0089876Y0017896D01*
X0089888Y0017840D01*
X0089896Y0017785D01*
X0089900Y0017728D01*
X0089900Y0017672D01*
X0089896Y0017615D01*
X0089888Y0017560D01*
X0089876Y0017504D01*
X0089860Y0017450D01*
X0089840Y0017397D01*
X0089817Y0017346D01*
X0089790Y0017296D01*
X0089760Y0017248D01*
X0089727Y0017203D01*
X0089690Y0017160D01*
X0089651Y0017120D01*
X0089608Y0017082D01*
X0089563Y0017048D01*
X0089516Y0017017D01*
X0089467Y0016989D01*
X0089416Y0016965D01*
X0089363Y0016945D01*
X0089309Y0016928D01*
X0089254Y0016915D01*
X0089199Y0016906D01*
X0089142Y0016901D01*
X0089086Y0016900D01*
X0089029Y0016903D01*
X0088973Y0016910D01*
X0088918Y0016921D01*
X0088864Y0016936D01*
X0088810Y0016954D01*
X0088758Y0016977D01*
X0088708Y0017003D01*
X0088660Y0017032D01*
X0088614Y0017065D01*
X0088570Y0017100D01*
X0088529Y0017139D01*
X0088491Y0017181D01*
X0088456Y0017225D01*
X0088424Y0017272D01*
X0088396Y0017321D01*
X0088371Y0017371D01*
X0088349Y0017423D01*
X0088332Y0017477D01*
X0088318Y0017532D01*
X0088308Y0017587D01*
X0088302Y0017644D01*
X0088300Y0017700D01*
X0088300Y0014700D02*
X0088302Y0014756D01*
X0088308Y0014813D01*
X0088318Y0014868D01*
X0088332Y0014923D01*
X0088349Y0014977D01*
X0088371Y0015029D01*
X0088396Y0015079D01*
X0088424Y0015128D01*
X0088456Y0015175D01*
X0088491Y0015219D01*
X0088529Y0015261D01*
X0088570Y0015300D01*
X0088614Y0015335D01*
X0088660Y0015368D01*
X0088708Y0015397D01*
X0088758Y0015423D01*
X0088810Y0015446D01*
X0088864Y0015464D01*
X0088918Y0015479D01*
X0088973Y0015490D01*
X0089029Y0015497D01*
X0089086Y0015500D01*
X0089142Y0015499D01*
X0089199Y0015494D01*
X0089254Y0015485D01*
X0089309Y0015472D01*
X0089363Y0015455D01*
X0089416Y0015435D01*
X0089467Y0015411D01*
X0089516Y0015383D01*
X0089563Y0015352D01*
X0089608Y0015318D01*
X0089651Y0015280D01*
X0089690Y0015240D01*
X0089727Y0015197D01*
X0089760Y0015152D01*
X0089790Y0015104D01*
X0089817Y0015054D01*
X0089840Y0015003D01*
X0089860Y0014950D01*
X0089876Y0014896D01*
X0089888Y0014840D01*
X0089896Y0014785D01*
X0089900Y0014728D01*
X0089900Y0014672D01*
X0089896Y0014615D01*
X0089888Y0014560D01*
X0089876Y0014504D01*
X0089860Y0014450D01*
X0089840Y0014397D01*
X0089817Y0014346D01*
X0089790Y0014296D01*
X0089760Y0014248D01*
X0089727Y0014203D01*
X0089690Y0014160D01*
X0089651Y0014120D01*
X0089608Y0014082D01*
X0089563Y0014048D01*
X0089516Y0014017D01*
X0089467Y0013989D01*
X0089416Y0013965D01*
X0089363Y0013945D01*
X0089309Y0013928D01*
X0089254Y0013915D01*
X0089199Y0013906D01*
X0089142Y0013901D01*
X0089086Y0013900D01*
X0089029Y0013903D01*
X0088973Y0013910D01*
X0088918Y0013921D01*
X0088864Y0013936D01*
X0088810Y0013954D01*
X0088758Y0013977D01*
X0088708Y0014003D01*
X0088660Y0014032D01*
X0088614Y0014065D01*
X0088570Y0014100D01*
X0088529Y0014139D01*
X0088491Y0014181D01*
X0088456Y0014225D01*
X0088424Y0014272D01*
X0088396Y0014321D01*
X0088371Y0014371D01*
X0088349Y0014423D01*
X0088332Y0014477D01*
X0088318Y0014532D01*
X0088308Y0014587D01*
X0088302Y0014644D01*
X0088300Y0014700D01*
X0088300Y0011700D02*
X0088302Y0011756D01*
X0088308Y0011813D01*
X0088318Y0011868D01*
X0088332Y0011923D01*
X0088349Y0011977D01*
X0088371Y0012029D01*
X0088396Y0012079D01*
X0088424Y0012128D01*
X0088456Y0012175D01*
X0088491Y0012219D01*
X0088529Y0012261D01*
X0088570Y0012300D01*
X0088614Y0012335D01*
X0088660Y0012368D01*
X0088708Y0012397D01*
X0088758Y0012423D01*
X0088810Y0012446D01*
X0088864Y0012464D01*
X0088918Y0012479D01*
X0088973Y0012490D01*
X0089029Y0012497D01*
X0089086Y0012500D01*
X0089142Y0012499D01*
X0089199Y0012494D01*
X0089254Y0012485D01*
X0089309Y0012472D01*
X0089363Y0012455D01*
X0089416Y0012435D01*
X0089467Y0012411D01*
X0089516Y0012383D01*
X0089563Y0012352D01*
X0089608Y0012318D01*
X0089651Y0012280D01*
X0089690Y0012240D01*
X0089727Y0012197D01*
X0089760Y0012152D01*
X0089790Y0012104D01*
X0089817Y0012054D01*
X0089840Y0012003D01*
X0089860Y0011950D01*
X0089876Y0011896D01*
X0089888Y0011840D01*
X0089896Y0011785D01*
X0089900Y0011728D01*
X0089900Y0011672D01*
X0089896Y0011615D01*
X0089888Y0011560D01*
X0089876Y0011504D01*
X0089860Y0011450D01*
X0089840Y0011397D01*
X0089817Y0011346D01*
X0089790Y0011296D01*
X0089760Y0011248D01*
X0089727Y0011203D01*
X0089690Y0011160D01*
X0089651Y0011120D01*
X0089608Y0011082D01*
X0089563Y0011048D01*
X0089516Y0011017D01*
X0089467Y0010989D01*
X0089416Y0010965D01*
X0089363Y0010945D01*
X0089309Y0010928D01*
X0089254Y0010915D01*
X0089199Y0010906D01*
X0089142Y0010901D01*
X0089086Y0010900D01*
X0089029Y0010903D01*
X0088973Y0010910D01*
X0088918Y0010921D01*
X0088864Y0010936D01*
X0088810Y0010954D01*
X0088758Y0010977D01*
X0088708Y0011003D01*
X0088660Y0011032D01*
X0088614Y0011065D01*
X0088570Y0011100D01*
X0088529Y0011139D01*
X0088491Y0011181D01*
X0088456Y0011225D01*
X0088424Y0011272D01*
X0088396Y0011321D01*
X0088371Y0011371D01*
X0088349Y0011423D01*
X0088332Y0011477D01*
X0088318Y0011532D01*
X0088308Y0011587D01*
X0088302Y0011644D01*
X0088300Y0011700D01*
X0088300Y0008700D02*
X0088302Y0008756D01*
X0088308Y0008813D01*
X0088318Y0008868D01*
X0088332Y0008923D01*
X0088349Y0008977D01*
X0088371Y0009029D01*
X0088396Y0009079D01*
X0088424Y0009128D01*
X0088456Y0009175D01*
X0088491Y0009219D01*
X0088529Y0009261D01*
X0088570Y0009300D01*
X0088614Y0009335D01*
X0088660Y0009368D01*
X0088708Y0009397D01*
X0088758Y0009423D01*
X0088810Y0009446D01*
X0088864Y0009464D01*
X0088918Y0009479D01*
X0088973Y0009490D01*
X0089029Y0009497D01*
X0089086Y0009500D01*
X0089142Y0009499D01*
X0089199Y0009494D01*
X0089254Y0009485D01*
X0089309Y0009472D01*
X0089363Y0009455D01*
X0089416Y0009435D01*
X0089467Y0009411D01*
X0089516Y0009383D01*
X0089563Y0009352D01*
X0089608Y0009318D01*
X0089651Y0009280D01*
X0089690Y0009240D01*
X0089727Y0009197D01*
X0089760Y0009152D01*
X0089790Y0009104D01*
X0089817Y0009054D01*
X0089840Y0009003D01*
X0089860Y0008950D01*
X0089876Y0008896D01*
X0089888Y0008840D01*
X0089896Y0008785D01*
X0089900Y0008728D01*
X0089900Y0008672D01*
X0089896Y0008615D01*
X0089888Y0008560D01*
X0089876Y0008504D01*
X0089860Y0008450D01*
X0089840Y0008397D01*
X0089817Y0008346D01*
X0089790Y0008296D01*
X0089760Y0008248D01*
X0089727Y0008203D01*
X0089690Y0008160D01*
X0089651Y0008120D01*
X0089608Y0008082D01*
X0089563Y0008048D01*
X0089516Y0008017D01*
X0089467Y0007989D01*
X0089416Y0007965D01*
X0089363Y0007945D01*
X0089309Y0007928D01*
X0089254Y0007915D01*
X0089199Y0007906D01*
X0089142Y0007901D01*
X0089086Y0007900D01*
X0089029Y0007903D01*
X0088973Y0007910D01*
X0088918Y0007921D01*
X0088864Y0007936D01*
X0088810Y0007954D01*
X0088758Y0007977D01*
X0088708Y0008003D01*
X0088660Y0008032D01*
X0088614Y0008065D01*
X0088570Y0008100D01*
X0088529Y0008139D01*
X0088491Y0008181D01*
X0088456Y0008225D01*
X0088424Y0008272D01*
X0088396Y0008321D01*
X0088371Y0008371D01*
X0088349Y0008423D01*
X0088332Y0008477D01*
X0088318Y0008532D01*
X0088308Y0008587D01*
X0088302Y0008644D01*
X0088300Y0008700D01*
X0088300Y0005700D02*
X0088302Y0005756D01*
X0088308Y0005813D01*
X0088318Y0005868D01*
X0088332Y0005923D01*
X0088349Y0005977D01*
X0088371Y0006029D01*
X0088396Y0006079D01*
X0088424Y0006128D01*
X0088456Y0006175D01*
X0088491Y0006219D01*
X0088529Y0006261D01*
X0088570Y0006300D01*
X0088614Y0006335D01*
X0088660Y0006368D01*
X0088708Y0006397D01*
X0088758Y0006423D01*
X0088810Y0006446D01*
X0088864Y0006464D01*
X0088918Y0006479D01*
X0088973Y0006490D01*
X0089029Y0006497D01*
X0089086Y0006500D01*
X0089142Y0006499D01*
X0089199Y0006494D01*
X0089254Y0006485D01*
X0089309Y0006472D01*
X0089363Y0006455D01*
X0089416Y0006435D01*
X0089467Y0006411D01*
X0089516Y0006383D01*
X0089563Y0006352D01*
X0089608Y0006318D01*
X0089651Y0006280D01*
X0089690Y0006240D01*
X0089727Y0006197D01*
X0089760Y0006152D01*
X0089790Y0006104D01*
X0089817Y0006054D01*
X0089840Y0006003D01*
X0089860Y0005950D01*
X0089876Y0005896D01*
X0089888Y0005840D01*
X0089896Y0005785D01*
X0089900Y0005728D01*
X0089900Y0005672D01*
X0089896Y0005615D01*
X0089888Y0005560D01*
X0089876Y0005504D01*
X0089860Y0005450D01*
X0089840Y0005397D01*
X0089817Y0005346D01*
X0089790Y0005296D01*
X0089760Y0005248D01*
X0089727Y0005203D01*
X0089690Y0005160D01*
X0089651Y0005120D01*
X0089608Y0005082D01*
X0089563Y0005048D01*
X0089516Y0005017D01*
X0089467Y0004989D01*
X0089416Y0004965D01*
X0089363Y0004945D01*
X0089309Y0004928D01*
X0089254Y0004915D01*
X0089199Y0004906D01*
X0089142Y0004901D01*
X0089086Y0004900D01*
X0089029Y0004903D01*
X0088973Y0004910D01*
X0088918Y0004921D01*
X0088864Y0004936D01*
X0088810Y0004954D01*
X0088758Y0004977D01*
X0088708Y0005003D01*
X0088660Y0005032D01*
X0088614Y0005065D01*
X0088570Y0005100D01*
X0088529Y0005139D01*
X0088491Y0005181D01*
X0088456Y0005225D01*
X0088424Y0005272D01*
X0088396Y0005321D01*
X0088371Y0005371D01*
X0088349Y0005423D01*
X0088332Y0005477D01*
X0088318Y0005532D01*
X0088308Y0005587D01*
X0088302Y0005644D01*
X0088300Y0005700D01*
X0088100Y0053700D02*
X0088198Y0053702D01*
X0088296Y0053708D01*
X0088394Y0053717D01*
X0088491Y0053731D01*
X0088588Y0053748D01*
X0088684Y0053769D01*
X0088779Y0053794D01*
X0088873Y0053822D01*
X0088965Y0053855D01*
X0089057Y0053890D01*
X0089147Y0053930D01*
X0089235Y0053972D01*
X0089322Y0054019D01*
X0089406Y0054068D01*
X0089489Y0054121D01*
X0089569Y0054177D01*
X0089648Y0054237D01*
X0089724Y0054299D01*
X0089797Y0054364D01*
X0089868Y0054432D01*
X0089936Y0054503D01*
X0090001Y0054576D01*
X0090063Y0054652D01*
X0090123Y0054731D01*
X0090179Y0054811D01*
X0090232Y0054894D01*
X0090281Y0054978D01*
X0090328Y0055065D01*
X0090370Y0055153D01*
X0090410Y0055243D01*
X0090445Y0055335D01*
X0090478Y0055427D01*
X0090506Y0055521D01*
X0090531Y0055616D01*
X0090552Y0055712D01*
X0090569Y0055809D01*
X0090583Y0055906D01*
X0090592Y0056004D01*
X0090598Y0056102D01*
X0090600Y0056200D01*
X0090598Y0056298D01*
X0090592Y0056396D01*
X0090583Y0056494D01*
X0090569Y0056591D01*
X0090552Y0056688D01*
X0090531Y0056784D01*
X0090506Y0056879D01*
X0090478Y0056973D01*
X0090445Y0057065D01*
X0090410Y0057157D01*
X0090370Y0057247D01*
X0090328Y0057335D01*
X0090281Y0057422D01*
X0090232Y0057506D01*
X0090179Y0057589D01*
X0090123Y0057669D01*
X0090063Y0057748D01*
X0090001Y0057824D01*
X0089936Y0057897D01*
X0089868Y0057968D01*
X0089797Y0058036D01*
X0089724Y0058101D01*
X0089648Y0058163D01*
X0089569Y0058223D01*
X0089489Y0058279D01*
X0089406Y0058332D01*
X0089322Y0058381D01*
X0089235Y0058428D01*
X0089147Y0058470D01*
X0089057Y0058510D01*
X0088965Y0058545D01*
X0088873Y0058578D01*
X0088779Y0058606D01*
X0088684Y0058631D01*
X0088588Y0058652D01*
X0088491Y0058669D01*
X0088394Y0058683D01*
X0088296Y0058692D01*
X0088198Y0058698D01*
X0088100Y0058700D01*
X0088100Y0091700D01*
X0088098Y0091798D01*
X0088092Y0091896D01*
X0088083Y0091994D01*
X0088069Y0092091D01*
X0088052Y0092188D01*
X0088031Y0092284D01*
X0088006Y0092379D01*
X0087978Y0092473D01*
X0087945Y0092565D01*
X0087910Y0092657D01*
X0087870Y0092747D01*
X0087828Y0092835D01*
X0087781Y0092922D01*
X0087732Y0093006D01*
X0087679Y0093089D01*
X0087623Y0093169D01*
X0087563Y0093248D01*
X0087501Y0093324D01*
X0087436Y0093397D01*
X0087368Y0093468D01*
X0087297Y0093536D01*
X0087224Y0093601D01*
X0087148Y0093663D01*
X0087069Y0093723D01*
X0086989Y0093779D01*
X0086906Y0093832D01*
X0086822Y0093881D01*
X0086735Y0093928D01*
X0086647Y0093970D01*
X0086557Y0094010D01*
X0086465Y0094045D01*
X0086373Y0094078D01*
X0086279Y0094106D01*
X0086184Y0094131D01*
X0086088Y0094152D01*
X0085991Y0094169D01*
X0085894Y0094183D01*
X0085796Y0094192D01*
X0085698Y0094198D01*
X0085600Y0094200D01*
X0085502Y0094198D01*
X0085404Y0094192D01*
X0085306Y0094183D01*
X0085209Y0094169D01*
X0085112Y0094152D01*
X0085016Y0094131D01*
X0084921Y0094106D01*
X0084827Y0094078D01*
X0084735Y0094045D01*
X0084643Y0094010D01*
X0084553Y0093970D01*
X0084465Y0093928D01*
X0084378Y0093881D01*
X0084294Y0093832D01*
X0084211Y0093779D01*
X0084131Y0093723D01*
X0084052Y0093663D01*
X0083976Y0093601D01*
X0083903Y0093536D01*
X0083832Y0093468D01*
X0083764Y0093397D01*
X0083699Y0093324D01*
X0083637Y0093248D01*
X0083577Y0093169D01*
X0083521Y0093089D01*
X0083468Y0093006D01*
X0083419Y0092922D01*
X0083372Y0092835D01*
X0083330Y0092747D01*
X0083290Y0092657D01*
X0083255Y0092565D01*
X0083222Y0092473D01*
X0083194Y0092379D01*
X0083169Y0092284D01*
X0083148Y0092188D01*
X0083131Y0092091D01*
X0083117Y0091994D01*
X0083108Y0091896D01*
X0083102Y0091798D01*
X0083100Y0091700D01*
X0083100Y0058700D01*
X0003100Y0058700D01*
X0003100Y0109700D01*
X0083100Y0109700D01*
X0083102Y0109602D01*
X0083108Y0109504D01*
X0083117Y0109406D01*
X0083131Y0109309D01*
X0083148Y0109212D01*
X0083169Y0109116D01*
X0083194Y0109021D01*
X0083222Y0108927D01*
X0083255Y0108835D01*
X0083290Y0108743D01*
X0083330Y0108653D01*
X0083372Y0108565D01*
X0083419Y0108478D01*
X0083468Y0108394D01*
X0083521Y0108311D01*
X0083577Y0108231D01*
X0083637Y0108152D01*
X0083699Y0108076D01*
X0083764Y0108003D01*
X0083832Y0107932D01*
X0083903Y0107864D01*
X0083976Y0107799D01*
X0084052Y0107737D01*
X0084131Y0107677D01*
X0084211Y0107621D01*
X0084294Y0107568D01*
X0084378Y0107519D01*
X0084465Y0107472D01*
X0084553Y0107430D01*
X0084643Y0107390D01*
X0084735Y0107355D01*
X0084827Y0107322D01*
X0084921Y0107294D01*
X0085016Y0107269D01*
X0085112Y0107248D01*
X0085209Y0107231D01*
X0085306Y0107217D01*
X0085404Y0107208D01*
X0085502Y0107202D01*
X0085600Y0107200D01*
X0085698Y0107202D01*
X0085796Y0107208D01*
X0085894Y0107217D01*
X0085991Y0107231D01*
X0086088Y0107248D01*
X0086184Y0107269D01*
X0086279Y0107294D01*
X0086373Y0107322D01*
X0086465Y0107355D01*
X0086557Y0107390D01*
X0086647Y0107430D01*
X0086735Y0107472D01*
X0086822Y0107519D01*
X0086906Y0107568D01*
X0086989Y0107621D01*
X0087069Y0107677D01*
X0087148Y0107737D01*
X0087224Y0107799D01*
X0087297Y0107864D01*
X0087368Y0107932D01*
X0087436Y0108003D01*
X0087501Y0108076D01*
X0087563Y0108152D01*
X0087623Y0108231D01*
X0087679Y0108311D01*
X0087732Y0108394D01*
X0087781Y0108478D01*
X0087828Y0108565D01*
X0087870Y0108653D01*
X0087910Y0108743D01*
X0087945Y0108835D01*
X0087978Y0108927D01*
X0088006Y0109021D01*
X0088031Y0109116D01*
X0088052Y0109212D01*
X0088069Y0109309D01*
X0088083Y0109406D01*
X0088092Y0109504D01*
X0088098Y0109602D01*
X0088100Y0109700D01*
X0168100Y0109700D01*
X0168100Y0058700D01*
X0106100Y0058700D01*
X0102300Y0059700D02*
X0102302Y0059756D01*
X0102308Y0059813D01*
X0102318Y0059868D01*
X0102332Y0059923D01*
X0102349Y0059977D01*
X0102371Y0060029D01*
X0102396Y0060079D01*
X0102424Y0060128D01*
X0102456Y0060175D01*
X0102491Y0060219D01*
X0102529Y0060261D01*
X0102570Y0060300D01*
X0102614Y0060335D01*
X0102660Y0060368D01*
X0102708Y0060397D01*
X0102758Y0060423D01*
X0102810Y0060446D01*
X0102864Y0060464D01*
X0102918Y0060479D01*
X0102973Y0060490D01*
X0103029Y0060497D01*
X0103086Y0060500D01*
X0103142Y0060499D01*
X0103199Y0060494D01*
X0103254Y0060485D01*
X0103309Y0060472D01*
X0103363Y0060455D01*
X0103416Y0060435D01*
X0103467Y0060411D01*
X0103516Y0060383D01*
X0103563Y0060352D01*
X0103608Y0060318D01*
X0103651Y0060280D01*
X0103690Y0060240D01*
X0103727Y0060197D01*
X0103760Y0060152D01*
X0103790Y0060104D01*
X0103817Y0060054D01*
X0103840Y0060003D01*
X0103860Y0059950D01*
X0103876Y0059896D01*
X0103888Y0059840D01*
X0103896Y0059785D01*
X0103900Y0059728D01*
X0103900Y0059672D01*
X0103896Y0059615D01*
X0103888Y0059560D01*
X0103876Y0059504D01*
X0103860Y0059450D01*
X0103840Y0059397D01*
X0103817Y0059346D01*
X0103790Y0059296D01*
X0103760Y0059248D01*
X0103727Y0059203D01*
X0103690Y0059160D01*
X0103651Y0059120D01*
X0103608Y0059082D01*
X0103563Y0059048D01*
X0103516Y0059017D01*
X0103467Y0058989D01*
X0103416Y0058965D01*
X0103363Y0058945D01*
X0103309Y0058928D01*
X0103254Y0058915D01*
X0103199Y0058906D01*
X0103142Y0058901D01*
X0103086Y0058900D01*
X0103029Y0058903D01*
X0102973Y0058910D01*
X0102918Y0058921D01*
X0102864Y0058936D01*
X0102810Y0058954D01*
X0102758Y0058977D01*
X0102708Y0059003D01*
X0102660Y0059032D01*
X0102614Y0059065D01*
X0102570Y0059100D01*
X0102529Y0059139D01*
X0102491Y0059181D01*
X0102456Y0059225D01*
X0102424Y0059272D01*
X0102396Y0059321D01*
X0102371Y0059371D01*
X0102349Y0059423D01*
X0102332Y0059477D01*
X0102318Y0059532D01*
X0102308Y0059587D01*
X0102302Y0059644D01*
X0102300Y0059700D01*
X0099300Y0059700D02*
X0099302Y0059756D01*
X0099308Y0059813D01*
X0099318Y0059868D01*
X0099332Y0059923D01*
X0099349Y0059977D01*
X0099371Y0060029D01*
X0099396Y0060079D01*
X0099424Y0060128D01*
X0099456Y0060175D01*
X0099491Y0060219D01*
X0099529Y0060261D01*
X0099570Y0060300D01*
X0099614Y0060335D01*
X0099660Y0060368D01*
X0099708Y0060397D01*
X0099758Y0060423D01*
X0099810Y0060446D01*
X0099864Y0060464D01*
X0099918Y0060479D01*
X0099973Y0060490D01*
X0100029Y0060497D01*
X0100086Y0060500D01*
X0100142Y0060499D01*
X0100199Y0060494D01*
X0100254Y0060485D01*
X0100309Y0060472D01*
X0100363Y0060455D01*
X0100416Y0060435D01*
X0100467Y0060411D01*
X0100516Y0060383D01*
X0100563Y0060352D01*
X0100608Y0060318D01*
X0100651Y0060280D01*
X0100690Y0060240D01*
X0100727Y0060197D01*
X0100760Y0060152D01*
X0100790Y0060104D01*
X0100817Y0060054D01*
X0100840Y0060003D01*
X0100860Y0059950D01*
X0100876Y0059896D01*
X0100888Y0059840D01*
X0100896Y0059785D01*
X0100900Y0059728D01*
X0100900Y0059672D01*
X0100896Y0059615D01*
X0100888Y0059560D01*
X0100876Y0059504D01*
X0100860Y0059450D01*
X0100840Y0059397D01*
X0100817Y0059346D01*
X0100790Y0059296D01*
X0100760Y0059248D01*
X0100727Y0059203D01*
X0100690Y0059160D01*
X0100651Y0059120D01*
X0100608Y0059082D01*
X0100563Y0059048D01*
X0100516Y0059017D01*
X0100467Y0058989D01*
X0100416Y0058965D01*
X0100363Y0058945D01*
X0100309Y0058928D01*
X0100254Y0058915D01*
X0100199Y0058906D01*
X0100142Y0058901D01*
X0100086Y0058900D01*
X0100029Y0058903D01*
X0099973Y0058910D01*
X0099918Y0058921D01*
X0099864Y0058936D01*
X0099810Y0058954D01*
X0099758Y0058977D01*
X0099708Y0059003D01*
X0099660Y0059032D01*
X0099614Y0059065D01*
X0099570Y0059100D01*
X0099529Y0059139D01*
X0099491Y0059181D01*
X0099456Y0059225D01*
X0099424Y0059272D01*
X0099396Y0059321D01*
X0099371Y0059371D01*
X0099349Y0059423D01*
X0099332Y0059477D01*
X0099318Y0059532D01*
X0099308Y0059587D01*
X0099302Y0059644D01*
X0099300Y0059700D01*
X0096300Y0059700D02*
X0096302Y0059756D01*
X0096308Y0059813D01*
X0096318Y0059868D01*
X0096332Y0059923D01*
X0096349Y0059977D01*
X0096371Y0060029D01*
X0096396Y0060079D01*
X0096424Y0060128D01*
X0096456Y0060175D01*
X0096491Y0060219D01*
X0096529Y0060261D01*
X0096570Y0060300D01*
X0096614Y0060335D01*
X0096660Y0060368D01*
X0096708Y0060397D01*
X0096758Y0060423D01*
X0096810Y0060446D01*
X0096864Y0060464D01*
X0096918Y0060479D01*
X0096973Y0060490D01*
X0097029Y0060497D01*
X0097086Y0060500D01*
X0097142Y0060499D01*
X0097199Y0060494D01*
X0097254Y0060485D01*
X0097309Y0060472D01*
X0097363Y0060455D01*
X0097416Y0060435D01*
X0097467Y0060411D01*
X0097516Y0060383D01*
X0097563Y0060352D01*
X0097608Y0060318D01*
X0097651Y0060280D01*
X0097690Y0060240D01*
X0097727Y0060197D01*
X0097760Y0060152D01*
X0097790Y0060104D01*
X0097817Y0060054D01*
X0097840Y0060003D01*
X0097860Y0059950D01*
X0097876Y0059896D01*
X0097888Y0059840D01*
X0097896Y0059785D01*
X0097900Y0059728D01*
X0097900Y0059672D01*
X0097896Y0059615D01*
X0097888Y0059560D01*
X0097876Y0059504D01*
X0097860Y0059450D01*
X0097840Y0059397D01*
X0097817Y0059346D01*
X0097790Y0059296D01*
X0097760Y0059248D01*
X0097727Y0059203D01*
X0097690Y0059160D01*
X0097651Y0059120D01*
X0097608Y0059082D01*
X0097563Y0059048D01*
X0097516Y0059017D01*
X0097467Y0058989D01*
X0097416Y0058965D01*
X0097363Y0058945D01*
X0097309Y0058928D01*
X0097254Y0058915D01*
X0097199Y0058906D01*
X0097142Y0058901D01*
X0097086Y0058900D01*
X0097029Y0058903D01*
X0096973Y0058910D01*
X0096918Y0058921D01*
X0096864Y0058936D01*
X0096810Y0058954D01*
X0096758Y0058977D01*
X0096708Y0059003D01*
X0096660Y0059032D01*
X0096614Y0059065D01*
X0096570Y0059100D01*
X0096529Y0059139D01*
X0096491Y0059181D01*
X0096456Y0059225D01*
X0096424Y0059272D01*
X0096396Y0059321D01*
X0096371Y0059371D01*
X0096349Y0059423D01*
X0096332Y0059477D01*
X0096318Y0059532D01*
X0096308Y0059587D01*
X0096302Y0059644D01*
X0096300Y0059700D01*
X0093300Y0059700D02*
X0093302Y0059756D01*
X0093308Y0059813D01*
X0093318Y0059868D01*
X0093332Y0059923D01*
X0093349Y0059977D01*
X0093371Y0060029D01*
X0093396Y0060079D01*
X0093424Y0060128D01*
X0093456Y0060175D01*
X0093491Y0060219D01*
X0093529Y0060261D01*
X0093570Y0060300D01*
X0093614Y0060335D01*
X0093660Y0060368D01*
X0093708Y0060397D01*
X0093758Y0060423D01*
X0093810Y0060446D01*
X0093864Y0060464D01*
X0093918Y0060479D01*
X0093973Y0060490D01*
X0094029Y0060497D01*
X0094086Y0060500D01*
X0094142Y0060499D01*
X0094199Y0060494D01*
X0094254Y0060485D01*
X0094309Y0060472D01*
X0094363Y0060455D01*
X0094416Y0060435D01*
X0094467Y0060411D01*
X0094516Y0060383D01*
X0094563Y0060352D01*
X0094608Y0060318D01*
X0094651Y0060280D01*
X0094690Y0060240D01*
X0094727Y0060197D01*
X0094760Y0060152D01*
X0094790Y0060104D01*
X0094817Y0060054D01*
X0094840Y0060003D01*
X0094860Y0059950D01*
X0094876Y0059896D01*
X0094888Y0059840D01*
X0094896Y0059785D01*
X0094900Y0059728D01*
X0094900Y0059672D01*
X0094896Y0059615D01*
X0094888Y0059560D01*
X0094876Y0059504D01*
X0094860Y0059450D01*
X0094840Y0059397D01*
X0094817Y0059346D01*
X0094790Y0059296D01*
X0094760Y0059248D01*
X0094727Y0059203D01*
X0094690Y0059160D01*
X0094651Y0059120D01*
X0094608Y0059082D01*
X0094563Y0059048D01*
X0094516Y0059017D01*
X0094467Y0058989D01*
X0094416Y0058965D01*
X0094363Y0058945D01*
X0094309Y0058928D01*
X0094254Y0058915D01*
X0094199Y0058906D01*
X0094142Y0058901D01*
X0094086Y0058900D01*
X0094029Y0058903D01*
X0093973Y0058910D01*
X0093918Y0058921D01*
X0093864Y0058936D01*
X0093810Y0058954D01*
X0093758Y0058977D01*
X0093708Y0059003D01*
X0093660Y0059032D01*
X0093614Y0059065D01*
X0093570Y0059100D01*
X0093529Y0059139D01*
X0093491Y0059181D01*
X0093456Y0059225D01*
X0093424Y0059272D01*
X0093396Y0059321D01*
X0093371Y0059371D01*
X0093349Y0059423D01*
X0093332Y0059477D01*
X0093318Y0059532D01*
X0093308Y0059587D01*
X0093302Y0059644D01*
X0093300Y0059700D01*
X0090300Y0059700D02*
X0090302Y0059756D01*
X0090308Y0059813D01*
X0090318Y0059868D01*
X0090332Y0059923D01*
X0090349Y0059977D01*
X0090371Y0060029D01*
X0090396Y0060079D01*
X0090424Y0060128D01*
X0090456Y0060175D01*
X0090491Y0060219D01*
X0090529Y0060261D01*
X0090570Y0060300D01*
X0090614Y0060335D01*
X0090660Y0060368D01*
X0090708Y0060397D01*
X0090758Y0060423D01*
X0090810Y0060446D01*
X0090864Y0060464D01*
X0090918Y0060479D01*
X0090973Y0060490D01*
X0091029Y0060497D01*
X0091086Y0060500D01*
X0091142Y0060499D01*
X0091199Y0060494D01*
X0091254Y0060485D01*
X0091309Y0060472D01*
X0091363Y0060455D01*
X0091416Y0060435D01*
X0091467Y0060411D01*
X0091516Y0060383D01*
X0091563Y0060352D01*
X0091608Y0060318D01*
X0091651Y0060280D01*
X0091690Y0060240D01*
X0091727Y0060197D01*
X0091760Y0060152D01*
X0091790Y0060104D01*
X0091817Y0060054D01*
X0091840Y0060003D01*
X0091860Y0059950D01*
X0091876Y0059896D01*
X0091888Y0059840D01*
X0091896Y0059785D01*
X0091900Y0059728D01*
X0091900Y0059672D01*
X0091896Y0059615D01*
X0091888Y0059560D01*
X0091876Y0059504D01*
X0091860Y0059450D01*
X0091840Y0059397D01*
X0091817Y0059346D01*
X0091790Y0059296D01*
X0091760Y0059248D01*
X0091727Y0059203D01*
X0091690Y0059160D01*
X0091651Y0059120D01*
X0091608Y0059082D01*
X0091563Y0059048D01*
X0091516Y0059017D01*
X0091467Y0058989D01*
X0091416Y0058965D01*
X0091363Y0058945D01*
X0091309Y0058928D01*
X0091254Y0058915D01*
X0091199Y0058906D01*
X0091142Y0058901D01*
X0091086Y0058900D01*
X0091029Y0058903D01*
X0090973Y0058910D01*
X0090918Y0058921D01*
X0090864Y0058936D01*
X0090810Y0058954D01*
X0090758Y0058977D01*
X0090708Y0059003D01*
X0090660Y0059032D01*
X0090614Y0059065D01*
X0090570Y0059100D01*
X0090529Y0059139D01*
X0090491Y0059181D01*
X0090456Y0059225D01*
X0090424Y0059272D01*
X0090396Y0059321D01*
X0090371Y0059371D01*
X0090349Y0059423D01*
X0090332Y0059477D01*
X0090318Y0059532D01*
X0090308Y0059587D01*
X0090302Y0059644D01*
X0090300Y0059700D01*
X0106100Y0058700D02*
X0106002Y0058698D01*
X0105904Y0058692D01*
X0105806Y0058683D01*
X0105709Y0058669D01*
X0105612Y0058652D01*
X0105516Y0058631D01*
X0105421Y0058606D01*
X0105327Y0058578D01*
X0105235Y0058545D01*
X0105143Y0058510D01*
X0105053Y0058470D01*
X0104965Y0058428D01*
X0104878Y0058381D01*
X0104794Y0058332D01*
X0104711Y0058279D01*
X0104631Y0058223D01*
X0104552Y0058163D01*
X0104476Y0058101D01*
X0104403Y0058036D01*
X0104332Y0057968D01*
X0104264Y0057897D01*
X0104199Y0057824D01*
X0104137Y0057748D01*
X0104077Y0057669D01*
X0104021Y0057589D01*
X0103968Y0057506D01*
X0103919Y0057422D01*
X0103872Y0057335D01*
X0103830Y0057247D01*
X0103790Y0057157D01*
X0103755Y0057065D01*
X0103722Y0056973D01*
X0103694Y0056879D01*
X0103669Y0056784D01*
X0103648Y0056688D01*
X0103631Y0056591D01*
X0103617Y0056494D01*
X0103608Y0056396D01*
X0103602Y0056298D01*
X0103600Y0056200D01*
X0103602Y0056102D01*
X0103608Y0056004D01*
X0103617Y0055906D01*
X0103631Y0055809D01*
X0103648Y0055712D01*
X0103669Y0055616D01*
X0103694Y0055521D01*
X0103722Y0055427D01*
X0103755Y0055335D01*
X0103790Y0055243D01*
X0103830Y0055153D01*
X0103872Y0055065D01*
X0103919Y0054978D01*
X0103968Y0054894D01*
X0104021Y0054811D01*
X0104077Y0054731D01*
X0104137Y0054652D01*
X0104199Y0054576D01*
X0104264Y0054503D01*
X0104332Y0054432D01*
X0104403Y0054364D01*
X0104476Y0054299D01*
X0104552Y0054237D01*
X0104631Y0054177D01*
X0104711Y0054121D01*
X0104794Y0054068D01*
X0104878Y0054019D01*
X0104965Y0053972D01*
X0105053Y0053930D01*
X0105143Y0053890D01*
X0105235Y0053855D01*
X0105327Y0053822D01*
X0105421Y0053794D01*
X0105516Y0053769D01*
X0105612Y0053748D01*
X0105709Y0053731D01*
X0105806Y0053717D01*
X0105904Y0053708D01*
X0106002Y0053702D01*
X0106100Y0053700D01*
X0088300Y0094700D02*
X0088302Y0094756D01*
X0088308Y0094813D01*
X0088318Y0094868D01*
X0088332Y0094923D01*
X0088349Y0094977D01*
X0088371Y0095029D01*
X0088396Y0095079D01*
X0088424Y0095128D01*
X0088456Y0095175D01*
X0088491Y0095219D01*
X0088529Y0095261D01*
X0088570Y0095300D01*
X0088614Y0095335D01*
X0088660Y0095368D01*
X0088708Y0095397D01*
X0088758Y0095423D01*
X0088810Y0095446D01*
X0088864Y0095464D01*
X0088918Y0095479D01*
X0088973Y0095490D01*
X0089029Y0095497D01*
X0089086Y0095500D01*
X0089142Y0095499D01*
X0089199Y0095494D01*
X0089254Y0095485D01*
X0089309Y0095472D01*
X0089363Y0095455D01*
X0089416Y0095435D01*
X0089467Y0095411D01*
X0089516Y0095383D01*
X0089563Y0095352D01*
X0089608Y0095318D01*
X0089651Y0095280D01*
X0089690Y0095240D01*
X0089727Y0095197D01*
X0089760Y0095152D01*
X0089790Y0095104D01*
X0089817Y0095054D01*
X0089840Y0095003D01*
X0089860Y0094950D01*
X0089876Y0094896D01*
X0089888Y0094840D01*
X0089896Y0094785D01*
X0089900Y0094728D01*
X0089900Y0094672D01*
X0089896Y0094615D01*
X0089888Y0094560D01*
X0089876Y0094504D01*
X0089860Y0094450D01*
X0089840Y0094397D01*
X0089817Y0094346D01*
X0089790Y0094296D01*
X0089760Y0094248D01*
X0089727Y0094203D01*
X0089690Y0094160D01*
X0089651Y0094120D01*
X0089608Y0094082D01*
X0089563Y0094048D01*
X0089516Y0094017D01*
X0089467Y0093989D01*
X0089416Y0093965D01*
X0089363Y0093945D01*
X0089309Y0093928D01*
X0089254Y0093915D01*
X0089199Y0093906D01*
X0089142Y0093901D01*
X0089086Y0093900D01*
X0089029Y0093903D01*
X0088973Y0093910D01*
X0088918Y0093921D01*
X0088864Y0093936D01*
X0088810Y0093954D01*
X0088758Y0093977D01*
X0088708Y0094003D01*
X0088660Y0094032D01*
X0088614Y0094065D01*
X0088570Y0094100D01*
X0088529Y0094139D01*
X0088491Y0094181D01*
X0088456Y0094225D01*
X0088424Y0094272D01*
X0088396Y0094321D01*
X0088371Y0094371D01*
X0088349Y0094423D01*
X0088332Y0094477D01*
X0088318Y0094532D01*
X0088308Y0094587D01*
X0088302Y0094644D01*
X0088300Y0094700D01*
X0088300Y0097700D02*
X0088302Y0097756D01*
X0088308Y0097813D01*
X0088318Y0097868D01*
X0088332Y0097923D01*
X0088349Y0097977D01*
X0088371Y0098029D01*
X0088396Y0098079D01*
X0088424Y0098128D01*
X0088456Y0098175D01*
X0088491Y0098219D01*
X0088529Y0098261D01*
X0088570Y0098300D01*
X0088614Y0098335D01*
X0088660Y0098368D01*
X0088708Y0098397D01*
X0088758Y0098423D01*
X0088810Y0098446D01*
X0088864Y0098464D01*
X0088918Y0098479D01*
X0088973Y0098490D01*
X0089029Y0098497D01*
X0089086Y0098500D01*
X0089142Y0098499D01*
X0089199Y0098494D01*
X0089254Y0098485D01*
X0089309Y0098472D01*
X0089363Y0098455D01*
X0089416Y0098435D01*
X0089467Y0098411D01*
X0089516Y0098383D01*
X0089563Y0098352D01*
X0089608Y0098318D01*
X0089651Y0098280D01*
X0089690Y0098240D01*
X0089727Y0098197D01*
X0089760Y0098152D01*
X0089790Y0098104D01*
X0089817Y0098054D01*
X0089840Y0098003D01*
X0089860Y0097950D01*
X0089876Y0097896D01*
X0089888Y0097840D01*
X0089896Y0097785D01*
X0089900Y0097728D01*
X0089900Y0097672D01*
X0089896Y0097615D01*
X0089888Y0097560D01*
X0089876Y0097504D01*
X0089860Y0097450D01*
X0089840Y0097397D01*
X0089817Y0097346D01*
X0089790Y0097296D01*
X0089760Y0097248D01*
X0089727Y0097203D01*
X0089690Y0097160D01*
X0089651Y0097120D01*
X0089608Y0097082D01*
X0089563Y0097048D01*
X0089516Y0097017D01*
X0089467Y0096989D01*
X0089416Y0096965D01*
X0089363Y0096945D01*
X0089309Y0096928D01*
X0089254Y0096915D01*
X0089199Y0096906D01*
X0089142Y0096901D01*
X0089086Y0096900D01*
X0089029Y0096903D01*
X0088973Y0096910D01*
X0088918Y0096921D01*
X0088864Y0096936D01*
X0088810Y0096954D01*
X0088758Y0096977D01*
X0088708Y0097003D01*
X0088660Y0097032D01*
X0088614Y0097065D01*
X0088570Y0097100D01*
X0088529Y0097139D01*
X0088491Y0097181D01*
X0088456Y0097225D01*
X0088424Y0097272D01*
X0088396Y0097321D01*
X0088371Y0097371D01*
X0088349Y0097423D01*
X0088332Y0097477D01*
X0088318Y0097532D01*
X0088308Y0097587D01*
X0088302Y0097644D01*
X0088300Y0097700D01*
X0088300Y0100700D02*
X0088302Y0100756D01*
X0088308Y0100813D01*
X0088318Y0100868D01*
X0088332Y0100923D01*
X0088349Y0100977D01*
X0088371Y0101029D01*
X0088396Y0101079D01*
X0088424Y0101128D01*
X0088456Y0101175D01*
X0088491Y0101219D01*
X0088529Y0101261D01*
X0088570Y0101300D01*
X0088614Y0101335D01*
X0088660Y0101368D01*
X0088708Y0101397D01*
X0088758Y0101423D01*
X0088810Y0101446D01*
X0088864Y0101464D01*
X0088918Y0101479D01*
X0088973Y0101490D01*
X0089029Y0101497D01*
X0089086Y0101500D01*
X0089142Y0101499D01*
X0089199Y0101494D01*
X0089254Y0101485D01*
X0089309Y0101472D01*
X0089363Y0101455D01*
X0089416Y0101435D01*
X0089467Y0101411D01*
X0089516Y0101383D01*
X0089563Y0101352D01*
X0089608Y0101318D01*
X0089651Y0101280D01*
X0089690Y0101240D01*
X0089727Y0101197D01*
X0089760Y0101152D01*
X0089790Y0101104D01*
X0089817Y0101054D01*
X0089840Y0101003D01*
X0089860Y0100950D01*
X0089876Y0100896D01*
X0089888Y0100840D01*
X0089896Y0100785D01*
X0089900Y0100728D01*
X0089900Y0100672D01*
X0089896Y0100615D01*
X0089888Y0100560D01*
X0089876Y0100504D01*
X0089860Y0100450D01*
X0089840Y0100397D01*
X0089817Y0100346D01*
X0089790Y0100296D01*
X0089760Y0100248D01*
X0089727Y0100203D01*
X0089690Y0100160D01*
X0089651Y0100120D01*
X0089608Y0100082D01*
X0089563Y0100048D01*
X0089516Y0100017D01*
X0089467Y0099989D01*
X0089416Y0099965D01*
X0089363Y0099945D01*
X0089309Y0099928D01*
X0089254Y0099915D01*
X0089199Y0099906D01*
X0089142Y0099901D01*
X0089086Y0099900D01*
X0089029Y0099903D01*
X0088973Y0099910D01*
X0088918Y0099921D01*
X0088864Y0099936D01*
X0088810Y0099954D01*
X0088758Y0099977D01*
X0088708Y0100003D01*
X0088660Y0100032D01*
X0088614Y0100065D01*
X0088570Y0100100D01*
X0088529Y0100139D01*
X0088491Y0100181D01*
X0088456Y0100225D01*
X0088424Y0100272D01*
X0088396Y0100321D01*
X0088371Y0100371D01*
X0088349Y0100423D01*
X0088332Y0100477D01*
X0088318Y0100532D01*
X0088308Y0100587D01*
X0088302Y0100644D01*
X0088300Y0100700D01*
X0088300Y0103700D02*
X0088302Y0103756D01*
X0088308Y0103813D01*
X0088318Y0103868D01*
X0088332Y0103923D01*
X0088349Y0103977D01*
X0088371Y0104029D01*
X0088396Y0104079D01*
X0088424Y0104128D01*
X0088456Y0104175D01*
X0088491Y0104219D01*
X0088529Y0104261D01*
X0088570Y0104300D01*
X0088614Y0104335D01*
X0088660Y0104368D01*
X0088708Y0104397D01*
X0088758Y0104423D01*
X0088810Y0104446D01*
X0088864Y0104464D01*
X0088918Y0104479D01*
X0088973Y0104490D01*
X0089029Y0104497D01*
X0089086Y0104500D01*
X0089142Y0104499D01*
X0089199Y0104494D01*
X0089254Y0104485D01*
X0089309Y0104472D01*
X0089363Y0104455D01*
X0089416Y0104435D01*
X0089467Y0104411D01*
X0089516Y0104383D01*
X0089563Y0104352D01*
X0089608Y0104318D01*
X0089651Y0104280D01*
X0089690Y0104240D01*
X0089727Y0104197D01*
X0089760Y0104152D01*
X0089790Y0104104D01*
X0089817Y0104054D01*
X0089840Y0104003D01*
X0089860Y0103950D01*
X0089876Y0103896D01*
X0089888Y0103840D01*
X0089896Y0103785D01*
X0089900Y0103728D01*
X0089900Y0103672D01*
X0089896Y0103615D01*
X0089888Y0103560D01*
X0089876Y0103504D01*
X0089860Y0103450D01*
X0089840Y0103397D01*
X0089817Y0103346D01*
X0089790Y0103296D01*
X0089760Y0103248D01*
X0089727Y0103203D01*
X0089690Y0103160D01*
X0089651Y0103120D01*
X0089608Y0103082D01*
X0089563Y0103048D01*
X0089516Y0103017D01*
X0089467Y0102989D01*
X0089416Y0102965D01*
X0089363Y0102945D01*
X0089309Y0102928D01*
X0089254Y0102915D01*
X0089199Y0102906D01*
X0089142Y0102901D01*
X0089086Y0102900D01*
X0089029Y0102903D01*
X0088973Y0102910D01*
X0088918Y0102921D01*
X0088864Y0102936D01*
X0088810Y0102954D01*
X0088758Y0102977D01*
X0088708Y0103003D01*
X0088660Y0103032D01*
X0088614Y0103065D01*
X0088570Y0103100D01*
X0088529Y0103139D01*
X0088491Y0103181D01*
X0088456Y0103225D01*
X0088424Y0103272D01*
X0088396Y0103321D01*
X0088371Y0103371D01*
X0088349Y0103423D01*
X0088332Y0103477D01*
X0088318Y0103532D01*
X0088308Y0103587D01*
X0088302Y0103644D01*
X0088300Y0103700D01*
X0088300Y0106700D02*
X0088302Y0106756D01*
X0088308Y0106813D01*
X0088318Y0106868D01*
X0088332Y0106923D01*
X0088349Y0106977D01*
X0088371Y0107029D01*
X0088396Y0107079D01*
X0088424Y0107128D01*
X0088456Y0107175D01*
X0088491Y0107219D01*
X0088529Y0107261D01*
X0088570Y0107300D01*
X0088614Y0107335D01*
X0088660Y0107368D01*
X0088708Y0107397D01*
X0088758Y0107423D01*
X0088810Y0107446D01*
X0088864Y0107464D01*
X0088918Y0107479D01*
X0088973Y0107490D01*
X0089029Y0107497D01*
X0089086Y0107500D01*
X0089142Y0107499D01*
X0089199Y0107494D01*
X0089254Y0107485D01*
X0089309Y0107472D01*
X0089363Y0107455D01*
X0089416Y0107435D01*
X0089467Y0107411D01*
X0089516Y0107383D01*
X0089563Y0107352D01*
X0089608Y0107318D01*
X0089651Y0107280D01*
X0089690Y0107240D01*
X0089727Y0107197D01*
X0089760Y0107152D01*
X0089790Y0107104D01*
X0089817Y0107054D01*
X0089840Y0107003D01*
X0089860Y0106950D01*
X0089876Y0106896D01*
X0089888Y0106840D01*
X0089896Y0106785D01*
X0089900Y0106728D01*
X0089900Y0106672D01*
X0089896Y0106615D01*
X0089888Y0106560D01*
X0089876Y0106504D01*
X0089860Y0106450D01*
X0089840Y0106397D01*
X0089817Y0106346D01*
X0089790Y0106296D01*
X0089760Y0106248D01*
X0089727Y0106203D01*
X0089690Y0106160D01*
X0089651Y0106120D01*
X0089608Y0106082D01*
X0089563Y0106048D01*
X0089516Y0106017D01*
X0089467Y0105989D01*
X0089416Y0105965D01*
X0089363Y0105945D01*
X0089309Y0105928D01*
X0089254Y0105915D01*
X0089199Y0105906D01*
X0089142Y0105901D01*
X0089086Y0105900D01*
X0089029Y0105903D01*
X0088973Y0105910D01*
X0088918Y0105921D01*
X0088864Y0105936D01*
X0088810Y0105954D01*
X0088758Y0105977D01*
X0088708Y0106003D01*
X0088660Y0106032D01*
X0088614Y0106065D01*
X0088570Y0106100D01*
X0088529Y0106139D01*
X0088491Y0106181D01*
X0088456Y0106225D01*
X0088424Y0106272D01*
X0088396Y0106321D01*
X0088371Y0106371D01*
X0088349Y0106423D01*
X0088332Y0106477D01*
X0088318Y0106532D01*
X0088308Y0106587D01*
X0088302Y0106644D01*
X0088300Y0106700D01*
X0081300Y0106700D02*
X0081302Y0106756D01*
X0081308Y0106813D01*
X0081318Y0106868D01*
X0081332Y0106923D01*
X0081349Y0106977D01*
X0081371Y0107029D01*
X0081396Y0107079D01*
X0081424Y0107128D01*
X0081456Y0107175D01*
X0081491Y0107219D01*
X0081529Y0107261D01*
X0081570Y0107300D01*
X0081614Y0107335D01*
X0081660Y0107368D01*
X0081708Y0107397D01*
X0081758Y0107423D01*
X0081810Y0107446D01*
X0081864Y0107464D01*
X0081918Y0107479D01*
X0081973Y0107490D01*
X0082029Y0107497D01*
X0082086Y0107500D01*
X0082142Y0107499D01*
X0082199Y0107494D01*
X0082254Y0107485D01*
X0082309Y0107472D01*
X0082363Y0107455D01*
X0082416Y0107435D01*
X0082467Y0107411D01*
X0082516Y0107383D01*
X0082563Y0107352D01*
X0082608Y0107318D01*
X0082651Y0107280D01*
X0082690Y0107240D01*
X0082727Y0107197D01*
X0082760Y0107152D01*
X0082790Y0107104D01*
X0082817Y0107054D01*
X0082840Y0107003D01*
X0082860Y0106950D01*
X0082876Y0106896D01*
X0082888Y0106840D01*
X0082896Y0106785D01*
X0082900Y0106728D01*
X0082900Y0106672D01*
X0082896Y0106615D01*
X0082888Y0106560D01*
X0082876Y0106504D01*
X0082860Y0106450D01*
X0082840Y0106397D01*
X0082817Y0106346D01*
X0082790Y0106296D01*
X0082760Y0106248D01*
X0082727Y0106203D01*
X0082690Y0106160D01*
X0082651Y0106120D01*
X0082608Y0106082D01*
X0082563Y0106048D01*
X0082516Y0106017D01*
X0082467Y0105989D01*
X0082416Y0105965D01*
X0082363Y0105945D01*
X0082309Y0105928D01*
X0082254Y0105915D01*
X0082199Y0105906D01*
X0082142Y0105901D01*
X0082086Y0105900D01*
X0082029Y0105903D01*
X0081973Y0105910D01*
X0081918Y0105921D01*
X0081864Y0105936D01*
X0081810Y0105954D01*
X0081758Y0105977D01*
X0081708Y0106003D01*
X0081660Y0106032D01*
X0081614Y0106065D01*
X0081570Y0106100D01*
X0081529Y0106139D01*
X0081491Y0106181D01*
X0081456Y0106225D01*
X0081424Y0106272D01*
X0081396Y0106321D01*
X0081371Y0106371D01*
X0081349Y0106423D01*
X0081332Y0106477D01*
X0081318Y0106532D01*
X0081308Y0106587D01*
X0081302Y0106644D01*
X0081300Y0106700D01*
X0081300Y0103700D02*
X0081302Y0103756D01*
X0081308Y0103813D01*
X0081318Y0103868D01*
X0081332Y0103923D01*
X0081349Y0103977D01*
X0081371Y0104029D01*
X0081396Y0104079D01*
X0081424Y0104128D01*
X0081456Y0104175D01*
X0081491Y0104219D01*
X0081529Y0104261D01*
X0081570Y0104300D01*
X0081614Y0104335D01*
X0081660Y0104368D01*
X0081708Y0104397D01*
X0081758Y0104423D01*
X0081810Y0104446D01*
X0081864Y0104464D01*
X0081918Y0104479D01*
X0081973Y0104490D01*
X0082029Y0104497D01*
X0082086Y0104500D01*
X0082142Y0104499D01*
X0082199Y0104494D01*
X0082254Y0104485D01*
X0082309Y0104472D01*
X0082363Y0104455D01*
X0082416Y0104435D01*
X0082467Y0104411D01*
X0082516Y0104383D01*
X0082563Y0104352D01*
X0082608Y0104318D01*
X0082651Y0104280D01*
X0082690Y0104240D01*
X0082727Y0104197D01*
X0082760Y0104152D01*
X0082790Y0104104D01*
X0082817Y0104054D01*
X0082840Y0104003D01*
X0082860Y0103950D01*
X0082876Y0103896D01*
X0082888Y0103840D01*
X0082896Y0103785D01*
X0082900Y0103728D01*
X0082900Y0103672D01*
X0082896Y0103615D01*
X0082888Y0103560D01*
X0082876Y0103504D01*
X0082860Y0103450D01*
X0082840Y0103397D01*
X0082817Y0103346D01*
X0082790Y0103296D01*
X0082760Y0103248D01*
X0082727Y0103203D01*
X0082690Y0103160D01*
X0082651Y0103120D01*
X0082608Y0103082D01*
X0082563Y0103048D01*
X0082516Y0103017D01*
X0082467Y0102989D01*
X0082416Y0102965D01*
X0082363Y0102945D01*
X0082309Y0102928D01*
X0082254Y0102915D01*
X0082199Y0102906D01*
X0082142Y0102901D01*
X0082086Y0102900D01*
X0082029Y0102903D01*
X0081973Y0102910D01*
X0081918Y0102921D01*
X0081864Y0102936D01*
X0081810Y0102954D01*
X0081758Y0102977D01*
X0081708Y0103003D01*
X0081660Y0103032D01*
X0081614Y0103065D01*
X0081570Y0103100D01*
X0081529Y0103139D01*
X0081491Y0103181D01*
X0081456Y0103225D01*
X0081424Y0103272D01*
X0081396Y0103321D01*
X0081371Y0103371D01*
X0081349Y0103423D01*
X0081332Y0103477D01*
X0081318Y0103532D01*
X0081308Y0103587D01*
X0081302Y0103644D01*
X0081300Y0103700D01*
X0081300Y0100700D02*
X0081302Y0100756D01*
X0081308Y0100813D01*
X0081318Y0100868D01*
X0081332Y0100923D01*
X0081349Y0100977D01*
X0081371Y0101029D01*
X0081396Y0101079D01*
X0081424Y0101128D01*
X0081456Y0101175D01*
X0081491Y0101219D01*
X0081529Y0101261D01*
X0081570Y0101300D01*
X0081614Y0101335D01*
X0081660Y0101368D01*
X0081708Y0101397D01*
X0081758Y0101423D01*
X0081810Y0101446D01*
X0081864Y0101464D01*
X0081918Y0101479D01*
X0081973Y0101490D01*
X0082029Y0101497D01*
X0082086Y0101500D01*
X0082142Y0101499D01*
X0082199Y0101494D01*
X0082254Y0101485D01*
X0082309Y0101472D01*
X0082363Y0101455D01*
X0082416Y0101435D01*
X0082467Y0101411D01*
X0082516Y0101383D01*
X0082563Y0101352D01*
X0082608Y0101318D01*
X0082651Y0101280D01*
X0082690Y0101240D01*
X0082727Y0101197D01*
X0082760Y0101152D01*
X0082790Y0101104D01*
X0082817Y0101054D01*
X0082840Y0101003D01*
X0082860Y0100950D01*
X0082876Y0100896D01*
X0082888Y0100840D01*
X0082896Y0100785D01*
X0082900Y0100728D01*
X0082900Y0100672D01*
X0082896Y0100615D01*
X0082888Y0100560D01*
X0082876Y0100504D01*
X0082860Y0100450D01*
X0082840Y0100397D01*
X0082817Y0100346D01*
X0082790Y0100296D01*
X0082760Y0100248D01*
X0082727Y0100203D01*
X0082690Y0100160D01*
X0082651Y0100120D01*
X0082608Y0100082D01*
X0082563Y0100048D01*
X0082516Y0100017D01*
X0082467Y0099989D01*
X0082416Y0099965D01*
X0082363Y0099945D01*
X0082309Y0099928D01*
X0082254Y0099915D01*
X0082199Y0099906D01*
X0082142Y0099901D01*
X0082086Y0099900D01*
X0082029Y0099903D01*
X0081973Y0099910D01*
X0081918Y0099921D01*
X0081864Y0099936D01*
X0081810Y0099954D01*
X0081758Y0099977D01*
X0081708Y0100003D01*
X0081660Y0100032D01*
X0081614Y0100065D01*
X0081570Y0100100D01*
X0081529Y0100139D01*
X0081491Y0100181D01*
X0081456Y0100225D01*
X0081424Y0100272D01*
X0081396Y0100321D01*
X0081371Y0100371D01*
X0081349Y0100423D01*
X0081332Y0100477D01*
X0081318Y0100532D01*
X0081308Y0100587D01*
X0081302Y0100644D01*
X0081300Y0100700D01*
X0081300Y0097700D02*
X0081302Y0097756D01*
X0081308Y0097813D01*
X0081318Y0097868D01*
X0081332Y0097923D01*
X0081349Y0097977D01*
X0081371Y0098029D01*
X0081396Y0098079D01*
X0081424Y0098128D01*
X0081456Y0098175D01*
X0081491Y0098219D01*
X0081529Y0098261D01*
X0081570Y0098300D01*
X0081614Y0098335D01*
X0081660Y0098368D01*
X0081708Y0098397D01*
X0081758Y0098423D01*
X0081810Y0098446D01*
X0081864Y0098464D01*
X0081918Y0098479D01*
X0081973Y0098490D01*
X0082029Y0098497D01*
X0082086Y0098500D01*
X0082142Y0098499D01*
X0082199Y0098494D01*
X0082254Y0098485D01*
X0082309Y0098472D01*
X0082363Y0098455D01*
X0082416Y0098435D01*
X0082467Y0098411D01*
X0082516Y0098383D01*
X0082563Y0098352D01*
X0082608Y0098318D01*
X0082651Y0098280D01*
X0082690Y0098240D01*
X0082727Y0098197D01*
X0082760Y0098152D01*
X0082790Y0098104D01*
X0082817Y0098054D01*
X0082840Y0098003D01*
X0082860Y0097950D01*
X0082876Y0097896D01*
X0082888Y0097840D01*
X0082896Y0097785D01*
X0082900Y0097728D01*
X0082900Y0097672D01*
X0082896Y0097615D01*
X0082888Y0097560D01*
X0082876Y0097504D01*
X0082860Y0097450D01*
X0082840Y0097397D01*
X0082817Y0097346D01*
X0082790Y0097296D01*
X0082760Y0097248D01*
X0082727Y0097203D01*
X0082690Y0097160D01*
X0082651Y0097120D01*
X0082608Y0097082D01*
X0082563Y0097048D01*
X0082516Y0097017D01*
X0082467Y0096989D01*
X0082416Y0096965D01*
X0082363Y0096945D01*
X0082309Y0096928D01*
X0082254Y0096915D01*
X0082199Y0096906D01*
X0082142Y0096901D01*
X0082086Y0096900D01*
X0082029Y0096903D01*
X0081973Y0096910D01*
X0081918Y0096921D01*
X0081864Y0096936D01*
X0081810Y0096954D01*
X0081758Y0096977D01*
X0081708Y0097003D01*
X0081660Y0097032D01*
X0081614Y0097065D01*
X0081570Y0097100D01*
X0081529Y0097139D01*
X0081491Y0097181D01*
X0081456Y0097225D01*
X0081424Y0097272D01*
X0081396Y0097321D01*
X0081371Y0097371D01*
X0081349Y0097423D01*
X0081332Y0097477D01*
X0081318Y0097532D01*
X0081308Y0097587D01*
X0081302Y0097644D01*
X0081300Y0097700D01*
X0081300Y0094700D02*
X0081302Y0094756D01*
X0081308Y0094813D01*
X0081318Y0094868D01*
X0081332Y0094923D01*
X0081349Y0094977D01*
X0081371Y0095029D01*
X0081396Y0095079D01*
X0081424Y0095128D01*
X0081456Y0095175D01*
X0081491Y0095219D01*
X0081529Y0095261D01*
X0081570Y0095300D01*
X0081614Y0095335D01*
X0081660Y0095368D01*
X0081708Y0095397D01*
X0081758Y0095423D01*
X0081810Y0095446D01*
X0081864Y0095464D01*
X0081918Y0095479D01*
X0081973Y0095490D01*
X0082029Y0095497D01*
X0082086Y0095500D01*
X0082142Y0095499D01*
X0082199Y0095494D01*
X0082254Y0095485D01*
X0082309Y0095472D01*
X0082363Y0095455D01*
X0082416Y0095435D01*
X0082467Y0095411D01*
X0082516Y0095383D01*
X0082563Y0095352D01*
X0082608Y0095318D01*
X0082651Y0095280D01*
X0082690Y0095240D01*
X0082727Y0095197D01*
X0082760Y0095152D01*
X0082790Y0095104D01*
X0082817Y0095054D01*
X0082840Y0095003D01*
X0082860Y0094950D01*
X0082876Y0094896D01*
X0082888Y0094840D01*
X0082896Y0094785D01*
X0082900Y0094728D01*
X0082900Y0094672D01*
X0082896Y0094615D01*
X0082888Y0094560D01*
X0082876Y0094504D01*
X0082860Y0094450D01*
X0082840Y0094397D01*
X0082817Y0094346D01*
X0082790Y0094296D01*
X0082760Y0094248D01*
X0082727Y0094203D01*
X0082690Y0094160D01*
X0082651Y0094120D01*
X0082608Y0094082D01*
X0082563Y0094048D01*
X0082516Y0094017D01*
X0082467Y0093989D01*
X0082416Y0093965D01*
X0082363Y0093945D01*
X0082309Y0093928D01*
X0082254Y0093915D01*
X0082199Y0093906D01*
X0082142Y0093901D01*
X0082086Y0093900D01*
X0082029Y0093903D01*
X0081973Y0093910D01*
X0081918Y0093921D01*
X0081864Y0093936D01*
X0081810Y0093954D01*
X0081758Y0093977D01*
X0081708Y0094003D01*
X0081660Y0094032D01*
X0081614Y0094065D01*
X0081570Y0094100D01*
X0081529Y0094139D01*
X0081491Y0094181D01*
X0081456Y0094225D01*
X0081424Y0094272D01*
X0081396Y0094321D01*
X0081371Y0094371D01*
X0081349Y0094423D01*
X0081332Y0094477D01*
X0081318Y0094532D01*
X0081308Y0094587D01*
X0081302Y0094644D01*
X0081300Y0094700D01*
M02*
