G75*
%MOIN*%
%OFA0B0*%
%FSLAX25Y25*%
%IPPOS*%
%LPD*%
%AMOC8*
5,1,8,0,0,1.08239X$1,22.5*
%
%ADD10C,0.02200*%
%ADD11R,0.04537X0.04931*%
%ADD12R,0.06702X0.02962*%
%ADD13R,0.07687X0.05324*%
%ADD14OC8,0.03800*%
%ADD15C,0.10200*%
D10*
X0082100Y0005700D03*
X0082100Y0008700D03*
X0082100Y0011700D03*
X0082100Y0014700D03*
X0082100Y0017700D03*
X0089100Y0017700D03*
X0089100Y0014700D03*
X0089100Y0011700D03*
X0089100Y0008700D03*
X0089100Y0005700D03*
X0091100Y0052700D03*
X0094100Y0052700D03*
X0097100Y0052700D03*
X0100100Y0052700D03*
X0103100Y0052700D03*
X0103100Y0059700D03*
X0100100Y0059700D03*
X0097100Y0059700D03*
X0094100Y0059700D03*
X0091100Y0059700D03*
X0089100Y0094700D03*
X0089100Y0097700D03*
X0089100Y0100700D03*
X0089100Y0103700D03*
X0089100Y0106700D03*
X0082100Y0106700D03*
X0082100Y0103700D03*
X0082100Y0100700D03*
X0082100Y0097700D03*
X0082100Y0094700D03*
D11*
X0067800Y0094846D03*
X0060000Y0094846D03*
X0052200Y0094846D03*
X0044400Y0094846D03*
X0036700Y0094846D03*
X0036700Y0088154D03*
X0044400Y0088154D03*
X0052200Y0088154D03*
X0060000Y0088154D03*
X0067800Y0088154D03*
X0103400Y0080246D03*
X0111200Y0080246D03*
X0119000Y0080246D03*
X0126800Y0080246D03*
X0134500Y0080246D03*
X0134500Y0073554D03*
X0126800Y0073554D03*
X0119000Y0073554D03*
X0111200Y0073554D03*
X0103400Y0073554D03*
X0067800Y0038846D03*
X0060000Y0038846D03*
X0052200Y0038846D03*
X0044400Y0038846D03*
X0036700Y0038846D03*
X0036700Y0032154D03*
X0044400Y0032154D03*
X0052200Y0032154D03*
X0060000Y0032154D03*
X0067800Y0032154D03*
X0103400Y0024246D03*
X0111200Y0024246D03*
X0119000Y0024246D03*
X0126800Y0024246D03*
X0134500Y0024246D03*
X0134500Y0017554D03*
X0126800Y0017554D03*
X0119000Y0017554D03*
X0111200Y0017554D03*
X0103400Y0017554D03*
D12*
X0153000Y0018557D03*
X0153000Y0014620D03*
X0153000Y0022494D03*
X0153000Y0026431D03*
X0153000Y0030369D03*
X0153000Y0034306D03*
X0153000Y0038243D03*
X0153000Y0042180D03*
X0153000Y0070620D03*
X0153000Y0074557D03*
X0153000Y0078494D03*
X0153000Y0082431D03*
X0153000Y0086369D03*
X0153000Y0090306D03*
X0153000Y0094243D03*
X0153000Y0098180D03*
X0018200Y0097780D03*
X0018200Y0093843D03*
X0018200Y0089906D03*
X0018200Y0085969D03*
X0018200Y0082031D03*
X0018200Y0078094D03*
X0018200Y0074157D03*
X0018200Y0070220D03*
X0018200Y0041780D03*
X0018200Y0037843D03*
X0018200Y0033906D03*
X0018200Y0029969D03*
X0018200Y0026031D03*
X0018200Y0022094D03*
X0018200Y0018157D03*
X0018200Y0014220D03*
D13*
X0008259Y0009102D03*
X0008259Y0046898D03*
X0008259Y0065102D03*
X0008259Y0102898D03*
X0162941Y0103298D03*
X0162941Y0065502D03*
X0162941Y0047298D03*
X0162941Y0009502D03*
D14*
X0158400Y0025400D03*
X0161200Y0028400D03*
X0165100Y0028400D03*
X0147400Y0028300D03*
X0143500Y0028300D03*
X0139400Y0024000D03*
X0139400Y0020100D03*
X0133100Y0012800D03*
X0126000Y0012900D03*
X0112300Y0012900D03*
X0105600Y0012900D03*
X0117100Y0030200D03*
X0139600Y0034900D03*
X0133100Y0068800D03*
X0126000Y0068900D03*
X0112300Y0068900D03*
X0105600Y0068900D03*
X0117100Y0086200D03*
X0139600Y0090900D03*
X0143500Y0084300D03*
X0147400Y0084300D03*
X0139400Y0080000D03*
X0139400Y0076100D03*
X0158400Y0081400D03*
X0161200Y0084400D03*
X0165100Y0084400D03*
X0065600Y0099500D03*
X0058900Y0099500D03*
X0045200Y0099500D03*
X0038100Y0099600D03*
X0031800Y0092300D03*
X0031800Y0088400D03*
X0027700Y0084100D03*
X0023800Y0084100D03*
X0031600Y0077500D03*
X0012800Y0087000D03*
X0010000Y0084000D03*
X0006100Y0084000D03*
X0054100Y0082200D03*
X0058900Y0043500D03*
X0065600Y0043500D03*
X0045200Y0043500D03*
X0038100Y0043600D03*
X0031800Y0036300D03*
X0031800Y0032400D03*
X0027700Y0028100D03*
X0023800Y0028100D03*
X0031600Y0021500D03*
X0012800Y0031000D03*
X0010000Y0028000D03*
X0006100Y0028000D03*
X0054100Y0026200D03*
D15*
X0077100Y0028000D03*
X0094100Y0028400D03*
X0145900Y0009400D03*
X0145900Y0047400D03*
X0145900Y0065400D03*
X0094100Y0084400D03*
X0077100Y0084000D03*
X0025300Y0065000D03*
X0025300Y0047000D03*
X0025300Y0009000D03*
X0025300Y0103000D03*
X0145900Y0103400D03*
M02*
